M48
; DRILL file {KiCad (5.1.9)-1} date 05/15/21 12:52:04
; FORMAT={-:-/ absolute / inch / decimal}
; #@! TF.CreationDate,2021-05-15T12:52:04+10:00
; #@! TF.GenerationSoftware,Kicad,Pcbnew,(5.1.9)-1
FMAT,2
INCH
T1C0.0118
T2C0.0157
T3C0.0197
T4C0.0256
T5C0.0315
T6C0.0394
T7C0.0300
%
G90
G05
T1
X1.1299Y-2.1772
X1.1299Y-2.8465
X1.1299Y-3.5157
X1.1299Y-4.185
X1.1299Y-4.8543
X1.2559Y-1.7957
X1.2559Y-2.0591
X1.2559Y-2.1299
X1.2559Y-2.465
X1.2559Y-2.7283
X1.2559Y-2.7992
X1.2559Y-3.1343
X1.2559Y-3.3976
X1.2559Y-3.4685
X1.2559Y-3.8035
X1.2559Y-4.0669
X1.2559Y-4.1378
X1.2559Y-4.4728
X1.2559Y-4.7362
X1.2559Y-4.8071
X1.3524Y-2.2343
X1.3524Y-2.9035
X1.3524Y-3.5728
X1.3524Y-4.2421
X1.3524Y-4.9114
X1.4213Y-1.8307
X1.4213Y-2.5
X1.4213Y-3.1693
X1.4213Y-3.8386
X1.4213Y-4.5079
X1.4291Y-1.8937
X1.4291Y-2.563
X1.4291Y-3.2323
X1.4291Y-3.9016
X1.4291Y-4.5709
X1.4646Y-1.8327
X1.4646Y-2.502
X1.4646Y-3.1713
X1.4646Y-3.8406
X1.4646Y-4.5098
X1.5079Y-2.1929
X1.5079Y-2.8622
X1.5079Y-3.5315
X1.5079Y-4.2008
X1.5079Y-4.8701
X1.5413Y-2.0807
X1.5413Y-2.75
X1.5413Y-3.4193
X1.5413Y-4.0886
X1.5413Y-4.7579
X1.5591Y-2.0551
X1.5591Y-2.7244
X1.5591Y-3.3937
X1.5591Y-4.063
X1.5591Y-4.7323
X1.5945Y-1.7047
X1.5945Y-2.374
X1.5945Y-3.0433
X1.5945Y-3.7126
X1.5945Y-4.3819
X1.6454Y-1.8792
X1.6454Y-2.5485
X1.6454Y-3.2178
X1.6454Y-3.887
X1.6454Y-4.5563
X1.6496Y-2.0138
X1.6496Y-2.6831
X1.6496Y-3.3524
X1.6496Y-4.0217
X1.6496Y-4.6909
X1.6535Y-1.9055
X1.6535Y-2.5748
X1.6535Y-3.2441
X1.6535Y-3.9134
X1.6535Y-4.5827
X1.7205Y-1.8091
X1.7205Y-2.4783
X1.7205Y-3.1476
X1.7205Y-3.8169
X1.7205Y-4.4862
X1.8346Y-2.0335
X1.8346Y-2.7028
X1.8346Y-3.372
X1.8346Y-4.0413
X1.8346Y-4.7106
X1.8504Y-1.9803
X1.8504Y-2.6496
X1.8504Y-3.3189
X1.8504Y-3.9882
X1.8504Y-4.6575
X1.9134Y-1.9626
X1.9134Y-2.6319
X1.9134Y-3.3012
X1.9134Y-3.9705
X1.9134Y-4.6398
X1.9301Y-2.0207
X1.9301Y-2.69
X1.9301Y-3.3592
X1.9301Y-4.0285
X1.9301Y-4.6978
X2.0342Y-1.8624
X2.0342Y-2.5317
X2.0342Y-3.201
X2.0342Y-3.8703
X2.0342Y-4.5396
X2.0394Y-1.9528
X2.0394Y-2.622
X2.0394Y-3.2913
X2.0394Y-3.9606
X2.0394Y-4.6299
X2.0551Y-1.8445
X2.0551Y-2.5138
X2.0551Y-3.1831
X2.0551Y-3.8524
X2.0551Y-4.5217
X2.0649Y-1.9319
X2.0649Y-2.6012
X2.0649Y-3.2704
X2.0649Y-3.9397
X2.0649Y-4.609
X2.0797Y-2.0856
X2.0797Y-2.7549
X2.0797Y-3.4242
X2.0797Y-4.0935
X2.0797Y-4.7628
X2.0857Y-1.9978
X2.0857Y-2.667
X2.0857Y-3.3363
X2.0857Y-4.0056
X2.0857Y-4.6749
X2.0866Y-1.8937
X2.0866Y-2.563
X2.0866Y-3.2323
X2.0866Y-3.9016
X2.0866Y-4.5709
X2.0925Y-2.11
X2.0925Y-2.7793
X2.0925Y-3.4486
X2.0925Y-4.1179
X2.0925Y-4.7872
X2.1047Y-1.6969
X2.1047Y-2.3661
X2.1047Y-3.0354
X2.1047Y-3.7047
X2.1047Y-4.374
X2.1179Y-1.7217
X2.1179Y-2.3909
X2.1179Y-3.0602
X2.1179Y-3.7295
X2.1179Y-4.3988
X2.1228Y-1.9379
X2.1228Y-2.6072
X2.1228Y-3.2765
X2.1228Y-3.9458
X2.1228Y-4.6151
X2.1514Y-1.6939
X2.1514Y-2.3632
X2.1514Y-3.0325
X2.1514Y-3.7018
X2.1514Y-4.3711
X2.1803Y-2.0906
X2.1803Y-2.7598
X2.1803Y-3.4291
X2.1803Y-4.0984
X2.1803Y-4.7677
X2.1969Y-1.7262
X2.1969Y-2.3955
X2.1969Y-3.0648
X2.1969Y-3.7341
X2.1969Y-4.4033
X2.2082Y-2.1076
X2.2082Y-2.7769
X2.2082Y-3.4462
X2.2082Y-4.1155
X2.2082Y-4.7848
X2.222Y-2.0838
X2.222Y-2.7531
X2.222Y-3.4224
X2.222Y-4.0916
X2.222Y-4.7609
X2.236Y-2.1095
X2.236Y-2.7788
X2.236Y-3.4481
X2.236Y-4.1174
X2.236Y-4.7867
X2.2578Y-1.845
X2.2578Y-2.5143
X2.2578Y-3.1836
X2.2578Y-3.8529
X2.2578Y-4.5222
X2.2638Y-2.0846
X2.2638Y-2.7539
X2.2638Y-3.4232
X2.2638Y-4.0925
X2.2638Y-4.7618
X2.2855Y-1.845
X2.2855Y-2.5143
X2.2855Y-3.1835
X2.2855Y-3.8528
X2.2855Y-4.5221
X2.2885Y-2.098
X2.2885Y-2.7673
X2.2885Y-3.4366
X2.2885Y-4.1059
X2.2885Y-4.7752
X2.3543Y-2.0657
X2.3543Y-2.735
X2.3543Y-3.4043
X2.3543Y-4.0736
X2.3543Y-4.7429
X2.3638Y-1.9606
X2.3638Y-2.6299
X2.3638Y-3.2992
X2.3638Y-3.9685
X2.3638Y-4.6378
X2.3701Y-1.7244
X2.3701Y-2.3937
X2.3701Y-3.063
X2.3701Y-3.7323
X2.3701Y-4.4016
X2.378Y-1.937
X2.378Y-2.6063
X2.378Y-3.2756
X2.378Y-3.9449
X2.378Y-4.6142
X2.4094Y-2.0669
X2.4094Y-2.7362
X2.4094Y-3.4055
X2.4094Y-4.0748
X2.4094Y-4.7441
X2.4096Y-2.0317
X2.4096Y-2.701
X2.4096Y-3.3703
X2.4096Y-4.0396
X2.4096Y-4.7089
X2.4441Y-1.8024
X2.4441Y-2.4717
X2.4441Y-3.141
X2.4441Y-3.8103
X2.4441Y-4.4795
X2.4514Y-1.8713
X2.4514Y-2.5406
X2.4514Y-3.2099
X2.4514Y-3.8791
X2.4514Y-4.5484
X2.4724Y-2.063
X2.4724Y-2.7323
X2.4724Y-3.4016
X2.4724Y-4.0709
X2.4724Y-4.7402
X2.4784Y-1.8657
X2.4784Y-2.535
X2.4784Y-3.2043
X2.4784Y-3.8736
X2.4784Y-4.5429
X2.5827Y-2.2343
X2.5827Y-2.9035
X2.5827Y-3.5728
X2.5827Y-4.2421
X2.5827Y-4.9114
X2.6594Y-1.9528
X2.6594Y-2.622
X2.6594Y-3.2913
X2.6594Y-3.9606
X2.6594Y-4.6299
X2.9803Y-2.1772
X2.9803Y-2.8465
X2.9803Y-3.5157
X2.9803Y-4.185
X2.9803Y-4.8543
X3.1063Y-1.7957
X3.1063Y-2.0591
X3.1063Y-2.1299
X3.1063Y-2.465
X3.1063Y-2.7283
X3.1063Y-2.7992
X3.1063Y-3.1343
X3.1063Y-3.3976
X3.1063Y-3.4685
X3.1063Y-3.8035
X3.1063Y-4.0669
X3.1063Y-4.1378
X3.1063Y-4.4728
X3.1063Y-4.7362
X3.1063Y-4.8071
X3.2028Y-2.2343
X3.2028Y-2.9035
X3.2028Y-3.5728
X3.2028Y-4.2421
X3.2028Y-4.9114
X3.2717Y-1.8307
X3.2717Y-2.5
X3.2717Y-3.1693
X3.2717Y-3.8386
X3.2717Y-4.5079
X3.2795Y-1.8937
X3.2795Y-2.563
X3.2795Y-3.2323
X3.2795Y-3.9016
X3.2795Y-4.5709
X3.315Y-1.8327
X3.315Y-2.502
X3.315Y-3.1713
X3.315Y-3.8406
X3.315Y-4.5098
X3.3583Y-2.1929
X3.3583Y-2.8622
X3.3583Y-3.5315
X3.3583Y-4.2008
X3.3583Y-4.8701
X3.3917Y-2.0807
X3.3917Y-2.75
X3.3917Y-3.4193
X3.3917Y-4.0886
X3.3917Y-4.7579
X3.4094Y-2.0551
X3.4094Y-2.7244
X3.4094Y-3.3937
X3.4094Y-4.063
X3.4094Y-4.7323
X3.4449Y-1.7047
X3.4449Y-2.374
X3.4449Y-3.0433
X3.4449Y-3.7126
X3.4449Y-4.3819
X3.4958Y-1.8792
X3.4958Y-2.5485
X3.4958Y-3.2178
X3.4958Y-3.887
X3.4958Y-4.5563
X3.5Y-2.0138
X3.5Y-2.6831
X3.5Y-3.3524
X3.5Y-4.0217
X3.5Y-4.6909
X3.5039Y-1.9055
X3.5039Y-2.5748
X3.5039Y-3.2441
X3.5039Y-3.9134
X3.5039Y-4.5827
X3.5709Y-1.8091
X3.5709Y-2.4783
X3.5709Y-3.1476
X3.5709Y-3.8169
X3.5709Y-4.4862
X3.685Y-2.0335
X3.685Y-2.7028
X3.685Y-3.372
X3.685Y-4.0413
X3.685Y-4.7106
X3.7008Y-1.9803
X3.7008Y-2.6496
X3.7008Y-3.3189
X3.7008Y-3.9882
X3.7008Y-4.6575
X3.7638Y-1.9626
X3.7638Y-2.6319
X3.7638Y-3.3012
X3.7638Y-3.9705
X3.7638Y-4.6398
X3.7805Y-2.0207
X3.7805Y-2.69
X3.7805Y-3.3592
X3.7805Y-4.0285
X3.7805Y-4.6978
X3.8846Y-1.8624
X3.8846Y-2.5317
X3.8846Y-3.201
X3.8846Y-3.8703
X3.8846Y-4.5396
X3.8898Y-1.9528
X3.8898Y-2.622
X3.8898Y-3.2913
X3.8898Y-3.9606
X3.8898Y-4.6299
X3.9055Y-1.8445
X3.9055Y-2.5138
X3.9055Y-3.1831
X3.9055Y-3.8524
X3.9055Y-4.5217
X3.9153Y-1.9319
X3.9153Y-2.6012
X3.9153Y-3.2704
X3.9153Y-3.9397
X3.9153Y-4.609
X3.9301Y-2.0856
X3.9301Y-2.7549
X3.9301Y-3.4242
X3.9301Y-4.0935
X3.9301Y-4.7628
X3.9361Y-1.9978
X3.9361Y-2.667
X3.9361Y-3.3363
X3.9361Y-4.0056
X3.9361Y-4.6749
X3.937Y-1.8937
X3.937Y-2.563
X3.937Y-3.2323
X3.937Y-3.9016
X3.937Y-4.5709
X3.9429Y-2.11
X3.9429Y-2.7793
X3.9429Y-3.4486
X3.9429Y-4.1179
X3.9429Y-4.7872
X3.9551Y-1.6969
X3.9551Y-2.3661
X3.9551Y-3.0354
X3.9551Y-3.7047
X3.9551Y-4.374
X3.9683Y-1.7217
X3.9683Y-2.3909
X3.9683Y-3.0602
X3.9683Y-3.7295
X3.9683Y-4.3988
X3.9732Y-1.9379
X3.9732Y-2.6072
X3.9732Y-3.2765
X3.9732Y-3.9458
X3.9732Y-4.6151
X4.0018Y-1.6939
X4.0018Y-2.3632
X4.0018Y-3.0325
X4.0018Y-3.7018
X4.0018Y-4.3711
X4.0307Y-2.0906
X4.0307Y-2.7598
X4.0307Y-3.4291
X4.0307Y-4.0984
X4.0307Y-4.7677
X4.0472Y-1.7262
X4.0472Y-2.3955
X4.0472Y-3.0648
X4.0472Y-3.7341
X4.0472Y-4.4033
X4.0586Y-2.1076
X4.0586Y-2.7769
X4.0586Y-3.4462
X4.0586Y-4.1155
X4.0586Y-4.7848
X4.0724Y-2.0838
X4.0724Y-2.7531
X4.0724Y-3.4224
X4.0724Y-4.0916
X4.0724Y-4.7609
X4.0864Y-2.1095
X4.0864Y-2.7788
X4.0864Y-3.4481
X4.0864Y-4.1174
X4.0864Y-4.7867
X4.1082Y-1.845
X4.1082Y-2.5143
X4.1082Y-3.1836
X4.1082Y-3.8529
X4.1082Y-4.5222
X4.1142Y-2.0846
X4.1142Y-2.7539
X4.1142Y-3.4232
X4.1142Y-4.0925
X4.1142Y-4.7618
X4.1359Y-1.845
X4.1359Y-2.5143
X4.1359Y-3.1835
X4.1359Y-3.8528
X4.1359Y-4.5221
X4.1389Y-2.098
X4.1389Y-2.7673
X4.1389Y-3.4366
X4.1389Y-4.1059
X4.1389Y-4.7752
X4.2047Y-2.0657
X4.2047Y-2.735
X4.2047Y-3.4043
X4.2047Y-4.0736
X4.2047Y-4.7429
X4.2142Y-1.9606
X4.2142Y-2.6299
X4.2142Y-3.2992
X4.2142Y-3.9685
X4.2142Y-4.6378
X4.2205Y-1.7244
X4.2205Y-2.3937
X4.2205Y-3.063
X4.2205Y-3.7323
X4.2205Y-4.4016
X4.2283Y-1.937
X4.2283Y-2.6063
X4.2283Y-3.2756
X4.2283Y-3.9449
X4.2283Y-4.6142
X4.2598Y-2.0669
X4.2598Y-2.7362
X4.2598Y-3.4055
X4.2598Y-4.0748
X4.2598Y-4.7441
X4.26Y-2.0317
X4.26Y-2.701
X4.26Y-3.3703
X4.26Y-4.0396
X4.26Y-4.7089
X4.2945Y-1.8024
X4.2945Y-2.4717
X4.2945Y-3.141
X4.2945Y-3.8103
X4.2945Y-4.4795
X4.3018Y-1.8713
X4.3018Y-2.5406
X4.3018Y-3.2099
X4.3018Y-3.8791
X4.3018Y-4.5484
X4.3228Y-2.063
X4.3228Y-2.7323
X4.3228Y-3.4016
X4.3228Y-4.0709
X4.3228Y-4.7402
X4.3288Y-1.8657
X4.3288Y-2.535
X4.3288Y-3.2043
X4.3288Y-3.8736
X4.3288Y-4.5429
X4.4331Y-2.2343
X4.4331Y-2.9035
X4.4331Y-3.5728
X4.4331Y-4.2421
X4.4331Y-4.9114
X4.5098Y-1.9528
X4.5098Y-2.622
X4.5098Y-3.2913
X4.5098Y-3.9606
X4.5098Y-4.6299
T2
X1.2559Y-1.9882
X1.2559Y-2.6575
X1.2559Y-3.3268
X1.2559Y-3.9961
X1.2559Y-4.6654
X1.2874Y-2.1929
X1.2874Y-2.8622
X1.2874Y-3.5315
X1.2874Y-4.2008
X1.2874Y-4.8701
X1.3268Y-1.7362
X1.3268Y-2.4055
X1.3268Y-3.0748
X1.3268Y-3.7441
X1.3268Y-4.4134
X1.3928Y-2.0899
X1.3928Y-2.7592
X1.3928Y-3.4285
X1.3928Y-4.0978
X1.3928Y-4.7671
X1.4363Y-2.1302
X1.4363Y-2.7995
X1.4363Y-3.4688
X1.4363Y-4.1381
X1.4363Y-4.8074
X1.5177Y-1.939
X1.5177Y-2.6083
X1.5177Y-3.2776
X1.5177Y-3.9469
X1.5177Y-4.6161
X1.5827Y-1.8555
X1.5827Y-2.5248
X1.5827Y-3.1941
X1.5827Y-3.8634
X1.5827Y-4.5327
X1.6489Y-2.1857
X1.6489Y-2.855
X1.6489Y-3.5243
X1.6489Y-4.1936
X1.6489Y-4.8629
X1.7264Y-1.8406
X1.7264Y-2.5098
X1.7264Y-3.1791
X1.7264Y-3.8484
X1.7264Y-4.5177
X1.9472Y-2.0732
X1.9472Y-2.7424
X1.9472Y-3.4117
X1.9472Y-4.081
X1.9472Y-4.7503
X2.0472Y-2.0748
X2.0472Y-2.7441
X2.0472Y-3.4134
X2.0472Y-4.0827
X2.0472Y-4.752
X2.0991Y-1.8425
X2.0991Y-2.5118
X2.0991Y-3.1811
X2.0991Y-3.8504
X2.0991Y-4.5197
X2.2461Y-1.939
X2.2461Y-2.6083
X2.2461Y-3.2776
X2.2461Y-3.9468
X2.2461Y-4.6161
X2.2717Y-1.8189
X2.2717Y-2.4882
X2.2717Y-3.1575
X2.2717Y-3.8268
X2.2717Y-4.4961
X2.2913Y-1.7311
X2.2913Y-2.4004
X2.2913Y-3.0697
X2.2913Y-3.739
X2.2913Y-4.4083
X2.3031Y-1.815
X2.3031Y-2.4843
X2.3031Y-3.1535
X2.3031Y-3.8228
X2.3031Y-4.4921
X2.4043Y-1.9638
X2.4043Y-2.6331
X2.4043Y-3.3024
X2.4043Y-3.9717
X2.4043Y-4.6409
X2.4232Y-1.7815
X2.4232Y-2.4508
X2.4232Y-3.1201
X2.4232Y-3.7894
X2.4232Y-4.4587
X2.5079Y-2.0354
X2.5079Y-2.7047
X2.5079Y-3.374
X2.5079Y-4.0433
X2.5079Y-4.7126
X2.5551Y-2.0354
X2.5551Y-2.7047
X2.5551Y-3.374
X2.5551Y-4.0433
X2.5551Y-4.7126
X3.1063Y-1.9882
X3.1063Y-2.6575
X3.1063Y-3.3268
X3.1063Y-3.9961
X3.1063Y-4.6654
X3.1378Y-2.1929
X3.1378Y-2.8622
X3.1378Y-3.5315
X3.1378Y-4.2008
X3.1378Y-4.8701
X3.1772Y-1.7362
X3.1772Y-2.4055
X3.1772Y-3.0748
X3.1772Y-3.7441
X3.1772Y-4.4134
X3.2432Y-2.0899
X3.2432Y-2.7592
X3.2432Y-3.4285
X3.2432Y-4.0978
X3.2432Y-4.7671
X3.2867Y-2.1302
X3.2867Y-2.7995
X3.2867Y-3.4688
X3.2867Y-4.1381
X3.2867Y-4.8074
X3.3681Y-1.939
X3.3681Y-2.6083
X3.3681Y-3.2776
X3.3681Y-3.9469
X3.3681Y-4.6161
X3.4331Y-1.8555
X3.4331Y-2.5248
X3.4331Y-3.1941
X3.4331Y-3.8634
X3.4331Y-4.5327
X3.4993Y-2.1857
X3.4993Y-2.855
X3.4993Y-3.5243
X3.4993Y-4.1936
X3.4993Y-4.8629
X3.5768Y-1.8406
X3.5768Y-2.5098
X3.5768Y-3.1791
X3.5768Y-3.8484
X3.5768Y-4.5177
X3.7976Y-2.0732
X3.7976Y-2.7424
X3.7976Y-3.4117
X3.7976Y-4.081
X3.7976Y-4.7503
X3.8976Y-2.0748
X3.8976Y-2.7441
X3.8976Y-3.4134
X3.8976Y-4.0827
X3.8976Y-4.752
X3.9495Y-1.8425
X3.9495Y-2.5118
X3.9495Y-3.1811
X3.9495Y-3.8504
X3.9495Y-4.5197
X4.0964Y-1.939
X4.0964Y-2.6083
X4.0964Y-3.2776
X4.0964Y-3.9468
X4.0964Y-4.6161
X4.122Y-1.8189
X4.122Y-2.4882
X4.122Y-3.1575
X4.122Y-3.8268
X4.122Y-4.4961
X4.1417Y-1.7311
X4.1417Y-2.4004
X4.1417Y-3.0697
X4.1417Y-3.739
X4.1417Y-4.4083
X4.1535Y-1.815
X4.1535Y-2.4843
X4.1535Y-3.1535
X4.1535Y-3.8228
X4.1535Y-4.4921
X4.2547Y-1.9638
X4.2547Y-2.6331
X4.2547Y-3.3024
X4.2547Y-3.9717
X4.2547Y-4.6409
X4.2736Y-1.7815
X4.2736Y-2.4508
X4.2736Y-3.1201
X4.2736Y-3.7894
X4.2736Y-4.4587
X4.3583Y-2.0354
X4.3583Y-2.7047
X4.3583Y-3.374
X4.3583Y-4.0433
X4.3583Y-4.7126
X4.4055Y-2.0354
X4.4055Y-2.7047
X4.4055Y-3.374
X4.4055Y-4.0433
X4.4055Y-4.7126
T4
X1.7791Y-2.126
X1.7791Y-2.7953
X1.7791Y-3.4646
X1.7791Y-4.1339
X1.7791Y-4.8032
X1.8291Y-2.126
X1.8291Y-2.7953
X1.8291Y-3.4646
X1.8291Y-4.1339
X1.8291Y-4.8032
X1.8791Y-2.126
X1.8791Y-2.7953
X1.8791Y-3.4646
X1.8791Y-4.1339
X1.8791Y-4.8032
X1.9291Y-2.126
X1.9291Y-2.7953
X1.9291Y-3.4646
X1.9291Y-4.1339
X1.9291Y-4.8032
X2.4701Y-1.7343
X2.4701Y-2.4035
X2.4701Y-3.0728
X2.4701Y-3.7421
X2.4701Y-4.4114
X2.4945Y-1.7992
X2.4945Y-2.4685
X2.4945Y-3.1378
X2.4945Y-3.8071
X2.4945Y-4.4764
X2.5201Y-1.7343
X2.5201Y-2.4035
X2.5201Y-3.0728
X2.5201Y-3.7421
X2.5201Y-4.4114
X2.5445Y-1.7992
X2.5445Y-2.4685
X2.5445Y-3.1378
X2.5445Y-3.8071
X2.5445Y-4.4764
X2.5701Y-1.7343
X2.5701Y-2.4035
X2.5701Y-3.0728
X2.5701Y-3.7421
X2.5701Y-4.4114
X2.5945Y-1.7992
X2.5945Y-2.4685
X2.5945Y-3.1378
X2.5945Y-3.8071
X2.5945Y-4.4764
X2.6201Y-1.7343
X2.6201Y-2.4035
X2.6201Y-3.0728
X2.6201Y-3.7421
X2.6201Y-4.4114
X3.6295Y-2.126
X3.6295Y-2.7953
X3.6295Y-3.4646
X3.6295Y-4.1339
X3.6295Y-4.8032
X3.6795Y-2.126
X3.6795Y-2.7953
X3.6795Y-3.4646
X3.6795Y-4.1339
X3.6795Y-4.8032
X3.7295Y-2.126
X3.7295Y-2.7953
X3.7295Y-3.4646
X3.7295Y-4.1339
X3.7295Y-4.8032
X3.7795Y-2.126
X3.7795Y-2.7953
X3.7795Y-3.4646
X3.7795Y-4.1339
X3.7795Y-4.8032
X4.3205Y-1.7343
X4.3205Y-2.4035
X4.3205Y-3.0728
X4.3205Y-3.7421
X4.3205Y-4.4114
X4.3449Y-1.7992
X4.3449Y-2.4685
X4.3449Y-3.1378
X4.3449Y-3.8071
X4.3449Y-4.4764
X4.3705Y-1.7343
X4.3705Y-2.4035
X4.3705Y-3.0728
X4.3705Y-3.7421
X4.3705Y-4.4114
X4.3949Y-1.7992
X4.3949Y-2.4685
X4.3949Y-3.1378
X4.3949Y-3.8071
X4.3949Y-4.4764
X4.4205Y-1.7343
X4.4205Y-2.4035
X4.4205Y-3.0728
X4.4205Y-3.7421
X4.4205Y-4.4114
X4.4449Y-1.7992
X4.4449Y-2.4685
X4.4449Y-3.1378
X4.4449Y-3.8071
X4.4449Y-4.4764
X4.4705Y-1.7343
X4.4705Y-2.4035
X4.4705Y-3.0728
X4.4705Y-3.7421
X4.4705Y-4.4114
T5
X1.7717Y-2.2047
X1.7717Y-2.874
X1.7717Y-3.5433
X1.7717Y-4.2126
X1.7717Y-4.8819
X1.8504Y-2.2047
X1.8504Y-2.874
X1.8504Y-3.5433
X1.8504Y-4.2126
X1.8504Y-4.8819
X1.8976Y-1.7323
X1.8976Y-2.4016
X1.8976Y-3.0709
X1.8976Y-3.7402
X1.8976Y-4.4095
X1.9291Y-2.2047
X1.9291Y-2.874
X1.9291Y-3.5433
X1.9291Y-4.2126
X1.9291Y-4.8819
X1.9764Y-1.7323
X1.9764Y-2.4016
X1.9764Y-3.0709
X1.9764Y-3.7402
X1.9764Y-4.4095
X2.0551Y-1.7323
X2.0551Y-2.4016
X2.0551Y-3.0709
X2.0551Y-3.7402
X2.0551Y-4.4095
X2.6969Y-1.7323
X2.6969Y-1.811
X2.6969Y-1.8898
X2.6969Y-2.4016
X2.6969Y-2.4803
X2.6969Y-2.5591
X2.6969Y-3.0709
X2.6969Y-3.1496
X2.6969Y-3.2283
X2.6969Y-3.7402
X2.6969Y-3.8189
X2.6969Y-3.8976
X2.6969Y-4.4095
X2.6969Y-4.4882
X2.6969Y-4.5669
X2.7953Y-1.7323
X2.7953Y-1.811
X2.7953Y-1.8898
X2.7953Y-2.4016
X2.7953Y-2.4803
X2.7953Y-2.5591
X2.7953Y-3.0709
X2.7953Y-3.1496
X2.7953Y-3.2283
X2.7953Y-3.7402
X2.7953Y-3.8189
X2.7953Y-3.8976
X2.7953Y-4.4095
X2.7953Y-4.4882
X2.7953Y-4.5669
X3.622Y-2.2047
X3.622Y-2.874
X3.622Y-3.5433
X3.622Y-4.2126
X3.622Y-4.8819
X3.7008Y-2.2047
X3.7008Y-2.874
X3.7008Y-3.5433
X3.7008Y-4.2126
X3.7008Y-4.8819
X3.748Y-1.7323
X3.748Y-2.4016
X3.748Y-3.0709
X3.748Y-3.7402
X3.748Y-4.4095
X3.7795Y-2.2047
X3.7795Y-2.874
X3.7795Y-3.5433
X3.7795Y-4.2126
X3.7795Y-4.8819
X3.8268Y-1.7323
X3.8268Y-2.4016
X3.8268Y-3.0709
X3.8268Y-3.7402
X3.8268Y-4.4095
X3.9055Y-1.7323
X3.9055Y-2.4016
X3.9055Y-3.0709
X3.9055Y-3.7402
X3.9055Y-4.4095
X4.5472Y-1.7323
X4.5472Y-1.811
X4.5472Y-1.8898
X4.5472Y-2.4016
X4.5472Y-2.4803
X4.5472Y-2.5591
X4.5472Y-3.0709
X4.5472Y-3.1496
X4.5472Y-3.2283
X4.5472Y-3.7402
X4.5472Y-3.8189
X4.5472Y-3.8976
X4.5472Y-4.4095
X4.5472Y-4.4882
X4.5472Y-4.5669
X4.6457Y-1.7323
X4.6457Y-1.811
X4.6457Y-1.8898
X4.6457Y-2.4016
X4.6457Y-2.4803
X4.6457Y-2.5591
X4.6457Y-3.0709
X4.6457Y-3.1496
X4.6457Y-3.2283
X4.6457Y-3.7402
X4.6457Y-3.8189
X4.6457Y-3.8976
X4.6457Y-4.4095
X4.6457Y-4.4882
X4.6457Y-4.5669
T6
X1.1535Y-1.7441
X1.1535Y-1.8441
X1.1535Y-2.4134
X1.1535Y-2.5134
X1.1535Y-3.0827
X1.1535Y-3.1827
X1.1535Y-3.752
X1.1535Y-3.852
X1.1535Y-4.4213
X1.1535Y-4.5213
X1.6969Y-1.7421
X1.6969Y-2.4114
X1.6969Y-3.0807
X1.6969Y-3.75
X1.6969Y-4.4193
X1.7969Y-1.7421
X1.7969Y-2.4114
X1.7969Y-3.0807
X1.7969Y-3.75
X1.7969Y-4.4193
X2.0295Y-2.1929
X2.0295Y-2.8622
X2.0295Y-3.5315
X2.0295Y-4.2008
X2.0295Y-4.8701
X2.1295Y-2.1929
X2.1295Y-2.8622
X2.1295Y-3.5315
X2.1295Y-4.2008
X2.1295Y-4.8701
X2.2295Y-2.1929
X2.2295Y-2.8622
X2.2295Y-3.5315
X2.2295Y-4.2008
X2.2295Y-4.8701
X2.3295Y-2.1929
X2.3295Y-2.8622
X2.3295Y-3.5315
X2.3295Y-4.2008
X2.3295Y-4.8701
X2.6929Y-2.0551
X2.6929Y-2.1929
X2.6929Y-2.7244
X2.6929Y-2.8622
X2.6929Y-3.3937
X2.6929Y-3.5315
X2.6929Y-4.063
X2.6929Y-4.2008
X2.6929Y-4.7323
X2.6929Y-4.8701
X2.7929Y-2.0551
X2.7929Y-2.1929
X2.7929Y-2.7244
X2.7929Y-2.8622
X2.7929Y-3.3937
X2.7929Y-3.5315
X2.7929Y-4.063
X2.7929Y-4.2008
X2.7929Y-4.7323
X2.7929Y-4.8701
X3.0039Y-1.7441
X3.0039Y-1.8441
X3.0039Y-2.4134
X3.0039Y-2.5134
X3.0039Y-3.0827
X3.0039Y-3.1827
X3.0039Y-3.752
X3.0039Y-3.852
X3.0039Y-4.4213
X3.0039Y-4.5213
X3.5472Y-1.7421
X3.5472Y-2.4114
X3.5472Y-3.0807
X3.5472Y-3.75
X3.5472Y-4.4193
X3.6472Y-1.7421
X3.6472Y-2.4114
X3.6472Y-3.0807
X3.6472Y-3.75
X3.6472Y-4.4193
X3.8799Y-2.1929
X3.8799Y-2.8622
X3.8799Y-3.5315
X3.8799Y-4.2008
X3.8799Y-4.8701
X3.9799Y-2.1929
X3.9799Y-2.8622
X3.9799Y-3.5315
X3.9799Y-4.2008
X3.9799Y-4.8701
X4.0799Y-2.1929
X4.0799Y-2.8622
X4.0799Y-3.5315
X4.0799Y-4.2008
X4.0799Y-4.8701
X4.1799Y-2.1929
X4.1799Y-2.8622
X4.1799Y-3.5315
X4.1799Y-4.2008
X4.1799Y-4.8701
X4.5433Y-2.0551
X4.5433Y-2.1929
X4.5433Y-2.7244
X4.5433Y-2.8622
X4.5433Y-3.3937
X4.5433Y-3.5315
X4.5433Y-4.063
X4.5433Y-4.2008
X4.5433Y-4.7323
X4.5433Y-4.8701
X4.6433Y-2.0551
X4.6433Y-2.1929
X4.6433Y-2.7244
X4.6433Y-2.8622
X4.6433Y-3.3937
X4.6433Y-3.5315
X4.6433Y-4.063
X4.6433Y-4.2008
X4.6433Y-4.7323
X4.6433Y-4.8701
T7
X1.3169Y-1.7776
X1.3169Y-2.4469
X1.3169Y-3.1161
X1.3169Y-3.7854
X1.3169Y-4.4547
X1.5335Y-1.7776
X1.5335Y-2.4469
X1.5335Y-3.1161
X1.5335Y-3.7854
X1.5335Y-4.4547
X3.1673Y-1.7776
X3.1673Y-2.4469
X3.1673Y-3.1161
X3.1673Y-3.7854
X3.1673Y-4.4547
X3.3839Y-1.7776
X3.3839Y-2.4469
X3.3839Y-3.1161
X3.3839Y-3.7854
X3.3839Y-4.4547
T3
G00X1.127Y-2.063
M15
G01X1.127Y-2.1063
M16
G05
G00X1.127Y-2.7323
M15
G01X1.127Y-2.7756
M16
G05
G00X1.127Y-3.4016
M15
G01X1.127Y-3.4449
M16
G05
G00X1.127Y-4.0709
M15
G01X1.127Y-4.1142
M16
G05
G00X1.127Y-4.7402
M15
G01X1.127Y-4.7835
M16
G05
G00X1.2116Y-1.9606
M15
G01X1.2116Y-1.9882
M16
G05
G00X1.2116Y-2.1811
M15
G01X1.2116Y-2.2087
M16
G05
G00X1.2116Y-2.6299
M15
G01X1.2116Y-2.6575
M16
G05
G00X1.2116Y-2.8504
M15
G01X1.2116Y-2.878
M16
G05
G00X1.2116Y-3.2992
M15
G01X1.2116Y-3.3268
M16
G05
G00X1.2116Y-3.5197
M15
G01X1.2116Y-3.5472
M16
G05
G00X1.2116Y-3.9685
M15
G01X1.2116Y-3.9961
M16
G05
G00X1.2116Y-4.189
M15
G01X1.2116Y-4.2165
M16
G05
G00X1.2116Y-4.6378
M15
G01X1.2116Y-4.6654
M16
G05
G00X1.2116Y-4.8583
M15
G01X1.2116Y-4.8858
M16
G05
G00X2.9774Y-2.063
M15
G01X2.9774Y-2.1063
M16
G05
G00X2.9774Y-2.7323
M15
G01X2.9774Y-2.7756
M16
G05
G00X2.9774Y-3.4016
M15
G01X2.9774Y-3.4449
M16
G05
G00X2.9774Y-4.0709
M15
G01X2.9774Y-4.1142
M16
G05
G00X2.9774Y-4.7402
M15
G01X2.9774Y-4.7835
M16
G05
G00X3.062Y-1.9606
M15
G01X3.062Y-1.9882
M16
G05
G00X3.062Y-2.1811
M15
G01X3.062Y-2.2087
M16
G05
G00X3.062Y-2.6299
M15
G01X3.062Y-2.6575
M16
G05
G00X3.062Y-2.8504
M15
G01X3.062Y-2.878
M16
G05
G00X3.062Y-3.2992
M15
G01X3.062Y-3.3268
M16
G05
G00X3.062Y-3.5197
M15
G01X3.062Y-3.5472
M16
G05
G00X3.062Y-3.9685
M15
G01X3.062Y-3.9961
M16
G05
G00X3.062Y-4.189
M15
G01X3.062Y-4.2165
M16
G05
G00X3.062Y-4.6378
M15
G01X3.062Y-4.6654
M16
G05
G00X3.062Y-4.8583
M15
G01X3.062Y-4.8858
M16
G05
T0
M30
