G04 #@! TF.GenerationSoftware,KiCad,Pcbnew,(5.1.5)-3*
G04 #@! TF.CreationDate,2020-12-08T14:38:42+11:00*
G04 #@! TF.ProjectId,microBoSL,6d696372-6f42-46f5-934c-2e6b69636164,0.1.0*
G04 #@! TF.SameCoordinates,Original*
G04 #@! TF.FileFunction,Legend,Bot*
G04 #@! TF.FilePolarity,Positive*
%FSLAX46Y46*%
G04 Gerber Fmt 4.6, Leading zero omitted, Abs format (unit mm)*
G04 Created by KiCad (PCBNEW (5.1.5)-3) date 2020-12-08 14:38:42*
%MOMM*%
%LPD*%
G04 APERTURE LIST*
%ADD10C,0.150000*%
%ADD11C,0.120000*%
%ADD12C,0.125000*%
G04 APERTURE END LIST*
D10*
X110852380Y-112886904D02*
X110852380Y-112353571D01*
X110852380Y-112429761D02*
X110814285Y-112391666D01*
X110738095Y-112353571D01*
X110623809Y-112353571D01*
X110547619Y-112391666D01*
X110509523Y-112467857D01*
X110509523Y-112886904D01*
X110509523Y-112467857D02*
X110471428Y-112391666D01*
X110395238Y-112353571D01*
X110280952Y-112353571D01*
X110204761Y-112391666D01*
X110166666Y-112467857D01*
X110166666Y-112886904D01*
X109785714Y-112886904D02*
X109785714Y-112353571D01*
X109785714Y-112086904D02*
X109823809Y-112125000D01*
X109785714Y-112163095D01*
X109747619Y-112125000D01*
X109785714Y-112086904D01*
X109785714Y-112163095D01*
X109061904Y-112848809D02*
X109138095Y-112886904D01*
X109290476Y-112886904D01*
X109366666Y-112848809D01*
X109404761Y-112810714D01*
X109442857Y-112734523D01*
X109442857Y-112505952D01*
X109404761Y-112429761D01*
X109366666Y-112391666D01*
X109290476Y-112353571D01*
X109138095Y-112353571D01*
X109061904Y-112391666D01*
X108719047Y-112886904D02*
X108719047Y-112353571D01*
X108719047Y-112505952D02*
X108680952Y-112429761D01*
X108642857Y-112391666D01*
X108566666Y-112353571D01*
X108490476Y-112353571D01*
X108109523Y-112886904D02*
X108185714Y-112848809D01*
X108223809Y-112810714D01*
X108261904Y-112734523D01*
X108261904Y-112505952D01*
X108223809Y-112429761D01*
X108185714Y-112391666D01*
X108109523Y-112353571D01*
X107995238Y-112353571D01*
X107919047Y-112391666D01*
X107880952Y-112429761D01*
X107842857Y-112505952D01*
X107842857Y-112734523D01*
X107880952Y-112810714D01*
X107919047Y-112848809D01*
X107995238Y-112886904D01*
X108109523Y-112886904D01*
X107233333Y-112467857D02*
X107119047Y-112505952D01*
X107080952Y-112544047D01*
X107042857Y-112620238D01*
X107042857Y-112734523D01*
X107080952Y-112810714D01*
X107119047Y-112848809D01*
X107195238Y-112886904D01*
X107500000Y-112886904D01*
X107500000Y-112086904D01*
X107233333Y-112086904D01*
X107157142Y-112125000D01*
X107119047Y-112163095D01*
X107080952Y-112239285D01*
X107080952Y-112315476D01*
X107119047Y-112391666D01*
X107157142Y-112429761D01*
X107233333Y-112467857D01*
X107500000Y-112467857D01*
X106585714Y-112886904D02*
X106661904Y-112848809D01*
X106700000Y-112810714D01*
X106738095Y-112734523D01*
X106738095Y-112505952D01*
X106700000Y-112429761D01*
X106661904Y-112391666D01*
X106585714Y-112353571D01*
X106471428Y-112353571D01*
X106395238Y-112391666D01*
X106357142Y-112429761D01*
X106319047Y-112505952D01*
X106319047Y-112734523D01*
X106357142Y-112810714D01*
X106395238Y-112848809D01*
X106471428Y-112886904D01*
X106585714Y-112886904D01*
X106014285Y-112848809D02*
X105900000Y-112886904D01*
X105709523Y-112886904D01*
X105633333Y-112848809D01*
X105595238Y-112810714D01*
X105557142Y-112734523D01*
X105557142Y-112658333D01*
X105595238Y-112582142D01*
X105633333Y-112544047D01*
X105709523Y-112505952D01*
X105861904Y-112467857D01*
X105938095Y-112429761D01*
X105976190Y-112391666D01*
X106014285Y-112315476D01*
X106014285Y-112239285D01*
X105976190Y-112163095D01*
X105938095Y-112125000D01*
X105861904Y-112086904D01*
X105671428Y-112086904D01*
X105557142Y-112125000D01*
X104833333Y-112886904D02*
X105214285Y-112886904D01*
X105214285Y-112086904D01*
X110433333Y-114236904D02*
X110433333Y-113703571D01*
X110433333Y-113855952D02*
X110395238Y-113779761D01*
X110357142Y-113741666D01*
X110280952Y-113703571D01*
X110204761Y-113703571D01*
X109633333Y-114198809D02*
X109709523Y-114236904D01*
X109861904Y-114236904D01*
X109938095Y-114198809D01*
X109976190Y-114122619D01*
X109976190Y-113817857D01*
X109938095Y-113741666D01*
X109861904Y-113703571D01*
X109709523Y-113703571D01*
X109633333Y-113741666D01*
X109595238Y-113817857D01*
X109595238Y-113894047D01*
X109976190Y-113970238D01*
X109328571Y-113703571D02*
X109138095Y-114236904D01*
X108947619Y-113703571D01*
X107880952Y-113436904D02*
X107804761Y-113436904D01*
X107728571Y-113475000D01*
X107690476Y-113513095D01*
X107652380Y-113589285D01*
X107614285Y-113741666D01*
X107614285Y-113932142D01*
X107652380Y-114084523D01*
X107690476Y-114160714D01*
X107728571Y-114198809D01*
X107804761Y-114236904D01*
X107880952Y-114236904D01*
X107957142Y-114198809D01*
X107995238Y-114160714D01*
X108033333Y-114084523D01*
X108071428Y-113932142D01*
X108071428Y-113741666D01*
X108033333Y-113589285D01*
X107995238Y-113513095D01*
X107957142Y-113475000D01*
X107880952Y-113436904D01*
X107271428Y-114160714D02*
X107233333Y-114198809D01*
X107271428Y-114236904D01*
X107309523Y-114198809D01*
X107271428Y-114160714D01*
X107271428Y-114236904D01*
X106471428Y-114236904D02*
X106928571Y-114236904D01*
X106700000Y-114236904D02*
X106700000Y-113436904D01*
X106776190Y-113551190D01*
X106852380Y-113627380D01*
X106928571Y-113665476D01*
X106128571Y-114160714D02*
X106090476Y-114198809D01*
X106128571Y-114236904D01*
X106166666Y-114198809D01*
X106128571Y-114160714D01*
X106128571Y-114236904D01*
X105595238Y-113436904D02*
X105519047Y-113436904D01*
X105442857Y-113475000D01*
X105404761Y-113513095D01*
X105366666Y-113589285D01*
X105328571Y-113741666D01*
X105328571Y-113932142D01*
X105366666Y-114084523D01*
X105404761Y-114160714D01*
X105442857Y-114198809D01*
X105519047Y-114236904D01*
X105595238Y-114236904D01*
X105671428Y-114198809D01*
X105709523Y-114160714D01*
X105747619Y-114084523D01*
X105785714Y-113932142D01*
X105785714Y-113741666D01*
X105747619Y-113589285D01*
X105709523Y-113513095D01*
X105671428Y-113475000D01*
X105595238Y-113436904D01*
D11*
X129900000Y-111100000D02*
X126000000Y-111100000D01*
X129900000Y-107900000D02*
X129900000Y-111100000D01*
X106383000Y-111849000D02*
X107149000Y-111849000D01*
X107149000Y-111849000D02*
X107149000Y-110901000D01*
X107149000Y-110901000D02*
X106201000Y-110901000D01*
X106201000Y-110901000D02*
X106201000Y-111667000D01*
X106383000Y-108499000D02*
X107149000Y-108499000D01*
X107149000Y-108499000D02*
X107149000Y-107551000D01*
X107149000Y-107551000D02*
X106201000Y-107551000D01*
X106201000Y-107551000D02*
X106201000Y-108317000D01*
D10*
X122050000Y-105600000D02*
X123400000Y-105600000D01*
X122050000Y-110725000D02*
X117400000Y-110725000D01*
X122050000Y-105475000D02*
X117400000Y-105475000D01*
X122050000Y-110725000D02*
X122050000Y-110500000D01*
X117400000Y-110725000D02*
X117400000Y-110500000D01*
X117400000Y-105475000D02*
X117400000Y-105700000D01*
X122050000Y-105475000D02*
X122050000Y-105600000D01*
D11*
X107390000Y-106430000D02*
X108850000Y-106430000D01*
X107390000Y-103270000D02*
X109550000Y-103270000D01*
X107390000Y-103270000D02*
X107390000Y-104200000D01*
X107390000Y-106430000D02*
X107390000Y-105500000D01*
X130270000Y-106340000D02*
X130270000Y-107800000D01*
X133430000Y-106340000D02*
X133430000Y-108500000D01*
X133430000Y-106340000D02*
X132500000Y-106340000D01*
X130270000Y-106340000D02*
X131200000Y-106340000D01*
X111775279Y-105610000D02*
X111449721Y-105610000D01*
X111775279Y-104590000D02*
X111449721Y-104590000D01*
X110260000Y-108397936D02*
X110260000Y-109602064D01*
X108440000Y-108397936D02*
X108440000Y-109602064D01*
D12*
X128238095Y-107388095D02*
X128238095Y-107626190D01*
X128404761Y-107126190D02*
X128238095Y-107388095D01*
X128071428Y-107126190D01*
X127642857Y-107626190D02*
X127928571Y-107626190D01*
X127785714Y-107626190D02*
X127785714Y-107126190D01*
X127833333Y-107197619D01*
X127880952Y-107245238D01*
X127928571Y-107269047D01*
X132883333Y-111526190D02*
X133050000Y-111288095D01*
X133169047Y-111526190D02*
X133169047Y-111026190D01*
X132978571Y-111026190D01*
X132930952Y-111050000D01*
X132907142Y-111073809D01*
X132883333Y-111121428D01*
X132883333Y-111192857D01*
X132907142Y-111240476D01*
X132930952Y-111264285D01*
X132978571Y-111288095D01*
X133169047Y-111288095D01*
X132692857Y-111073809D02*
X132669047Y-111050000D01*
X132621428Y-111026190D01*
X132502380Y-111026190D01*
X132454761Y-111050000D01*
X132430952Y-111073809D01*
X132407142Y-111121428D01*
X132407142Y-111169047D01*
X132430952Y-111240476D01*
X132716666Y-111526190D01*
X132407142Y-111526190D01*
X110583333Y-103826190D02*
X110750000Y-103588095D01*
X110869047Y-103826190D02*
X110869047Y-103326190D01*
X110678571Y-103326190D01*
X110630952Y-103350000D01*
X110607142Y-103373809D01*
X110583333Y-103421428D01*
X110583333Y-103492857D01*
X110607142Y-103540476D01*
X110630952Y-103564285D01*
X110678571Y-103588095D01*
X110869047Y-103588095D01*
X110107142Y-103826190D02*
X110392857Y-103826190D01*
X110250000Y-103826190D02*
X110250000Y-103326190D01*
X110297619Y-103397619D01*
X110345238Y-103445238D01*
X110392857Y-103469047D01*
X125478571Y-108016666D02*
X125502380Y-107992857D01*
X125526190Y-107921428D01*
X125526190Y-107873809D01*
X125502380Y-107802380D01*
X125454761Y-107754761D01*
X125407142Y-107730952D01*
X125311904Y-107707142D01*
X125240476Y-107707142D01*
X125145238Y-107730952D01*
X125097619Y-107754761D01*
X125050000Y-107802380D01*
X125026190Y-107873809D01*
X125026190Y-107921428D01*
X125050000Y-107992857D01*
X125073809Y-108016666D01*
X125026190Y-108183333D02*
X125026190Y-108492857D01*
X125216666Y-108326190D01*
X125216666Y-108397619D01*
X125240476Y-108445238D01*
X125264285Y-108469047D01*
X125311904Y-108492857D01*
X125430952Y-108492857D01*
X125478571Y-108469047D01*
X125502380Y-108445238D01*
X125526190Y-108397619D01*
X125526190Y-108254761D01*
X125502380Y-108207142D01*
X125478571Y-108183333D01*
X130883333Y-111578571D02*
X130907142Y-111602380D01*
X130978571Y-111626190D01*
X131026190Y-111626190D01*
X131097619Y-111602380D01*
X131145238Y-111554761D01*
X131169047Y-111507142D01*
X131192857Y-111411904D01*
X131192857Y-111340476D01*
X131169047Y-111245238D01*
X131145238Y-111197619D01*
X131097619Y-111150000D01*
X131026190Y-111126190D01*
X130978571Y-111126190D01*
X130907142Y-111150000D01*
X130883333Y-111173809D01*
X130692857Y-111173809D02*
X130669047Y-111150000D01*
X130621428Y-111126190D01*
X130502380Y-111126190D01*
X130454761Y-111150000D01*
X130430952Y-111173809D01*
X130407142Y-111221428D01*
X130407142Y-111269047D01*
X130430952Y-111340476D01*
X130716666Y-111626190D01*
X130407142Y-111626190D01*
X107055952Y-112076190D02*
X107055952Y-112480952D01*
X107032142Y-112528571D01*
X107008333Y-112552380D01*
X106960714Y-112576190D01*
X106865476Y-112576190D01*
X106817857Y-112552380D01*
X106794047Y-112528571D01*
X106770238Y-112480952D01*
X106770238Y-112076190D01*
X106270238Y-112576190D02*
X106555952Y-112576190D01*
X106413095Y-112576190D02*
X106413095Y-112076190D01*
X106460714Y-112147619D01*
X106508333Y-112195238D01*
X106555952Y-112219047D01*
X107055952Y-108776190D02*
X107055952Y-109180952D01*
X107032142Y-109228571D01*
X107008333Y-109252380D01*
X106960714Y-109276190D01*
X106865476Y-109276190D01*
X106817857Y-109252380D01*
X106794047Y-109228571D01*
X106770238Y-109180952D01*
X106770238Y-108776190D01*
X106555952Y-108823809D02*
X106532142Y-108800000D01*
X106484523Y-108776190D01*
X106365476Y-108776190D01*
X106317857Y-108800000D01*
X106294047Y-108823809D01*
X106270238Y-108871428D01*
X106270238Y-108919047D01*
X106294047Y-108990476D01*
X106579761Y-109276190D01*
X106270238Y-109276190D01*
X122980952Y-104726190D02*
X122980952Y-105130952D01*
X122957142Y-105178571D01*
X122933333Y-105202380D01*
X122885714Y-105226190D01*
X122790476Y-105226190D01*
X122742857Y-105202380D01*
X122719047Y-105178571D01*
X122695238Y-105130952D01*
X122695238Y-104726190D01*
X122242857Y-104726190D02*
X122338095Y-104726190D01*
X122385714Y-104750000D01*
X122409523Y-104773809D01*
X122457142Y-104845238D01*
X122480952Y-104940476D01*
X122480952Y-105130952D01*
X122457142Y-105178571D01*
X122433333Y-105202380D01*
X122385714Y-105226190D01*
X122290476Y-105226190D01*
X122242857Y-105202380D01*
X122219047Y-105178571D01*
X122195238Y-105130952D01*
X122195238Y-105011904D01*
X122219047Y-104964285D01*
X122242857Y-104940476D01*
X122290476Y-104916666D01*
X122385714Y-104916666D01*
X122433333Y-104940476D01*
X122457142Y-104964285D01*
X122480952Y-105011904D01*
X109480952Y-102526190D02*
X109480952Y-102930952D01*
X109457142Y-102978571D01*
X109433333Y-103002380D01*
X109385714Y-103026190D01*
X109290476Y-103026190D01*
X109242857Y-103002380D01*
X109219047Y-102978571D01*
X109195238Y-102930952D01*
X109195238Y-102526190D01*
X109004761Y-102526190D02*
X108695238Y-102526190D01*
X108861904Y-102716666D01*
X108790476Y-102716666D01*
X108742857Y-102740476D01*
X108719047Y-102764285D01*
X108695238Y-102811904D01*
X108695238Y-102930952D01*
X108719047Y-102978571D01*
X108742857Y-103002380D01*
X108790476Y-103026190D01*
X108933333Y-103026190D01*
X108980952Y-103002380D01*
X109004761Y-102978571D01*
X134173809Y-108152380D02*
X134150000Y-108104761D01*
X134102380Y-108057142D01*
X134030952Y-107985714D01*
X134007142Y-107938095D01*
X134007142Y-107890476D01*
X134126190Y-107914285D02*
X134102380Y-107866666D01*
X134054761Y-107819047D01*
X133959523Y-107795238D01*
X133792857Y-107795238D01*
X133697619Y-107819047D01*
X133650000Y-107866666D01*
X133626190Y-107914285D01*
X133626190Y-108009523D01*
X133650000Y-108057142D01*
X133697619Y-108104761D01*
X133792857Y-108128571D01*
X133959523Y-108128571D01*
X134054761Y-108104761D01*
X134102380Y-108057142D01*
X134126190Y-108009523D01*
X134126190Y-107914285D01*
X134126190Y-108604761D02*
X134126190Y-108319047D01*
X134126190Y-108461904D02*
X133626190Y-108461904D01*
X133697619Y-108414285D01*
X133745238Y-108366666D01*
X133769047Y-108319047D01*
X113783333Y-105278571D02*
X113807142Y-105302380D01*
X113878571Y-105326190D01*
X113926190Y-105326190D01*
X113997619Y-105302380D01*
X114045238Y-105254761D01*
X114069047Y-105207142D01*
X114092857Y-105111904D01*
X114092857Y-105040476D01*
X114069047Y-104945238D01*
X114045238Y-104897619D01*
X113997619Y-104850000D01*
X113926190Y-104826190D01*
X113878571Y-104826190D01*
X113807142Y-104850000D01*
X113783333Y-104873809D01*
X113616666Y-104826190D02*
X113283333Y-104826190D01*
X113497619Y-105326190D01*
X111178571Y-108916666D02*
X111202380Y-108892857D01*
X111226190Y-108821428D01*
X111226190Y-108773809D01*
X111202380Y-108702380D01*
X111154761Y-108654761D01*
X111107142Y-108630952D01*
X111011904Y-108607142D01*
X110940476Y-108607142D01*
X110845238Y-108630952D01*
X110797619Y-108654761D01*
X110750000Y-108702380D01*
X110726190Y-108773809D01*
X110726190Y-108821428D01*
X110750000Y-108892857D01*
X110773809Y-108916666D01*
X111226190Y-109392857D02*
X111226190Y-109107142D01*
X111226190Y-109250000D02*
X110726190Y-109250000D01*
X110797619Y-109202380D01*
X110845238Y-109154761D01*
X110869047Y-109107142D01*
M02*
