G04 #@! TF.GenerationSoftware,KiCad,Pcbnew,(5.1.9)-1*
G04 #@! TF.CreationDate,2021-05-04T20:43:57+10:00*
G04 #@! TF.ProjectId,microBoSL,6d696372-6f42-46f5-934c-2e6b69636164,0.2.0*
G04 #@! TF.SameCoordinates,Original*
G04 #@! TF.FileFunction,Legend,Bot*
G04 #@! TF.FilePolarity,Positive*
%FSLAX46Y46*%
G04 Gerber Fmt 4.6, Leading zero omitted, Abs format (unit mm)*
G04 Created by KiCad (PCBNEW (5.1.9)-1) date 2021-05-04 20:43:57*
%MOMM*%
%LPD*%
G01*
G04 APERTURE LIST*
%ADD10C,0.100000*%
%ADD11C,0.075000*%
%ADD12C,0.125000*%
%ADD13C,0.150000*%
%ADD14C,0.120000*%
G04 APERTURE END LIST*
D10*
X119185714Y-114811904D02*
X119128571Y-114830952D01*
X119033333Y-114830952D01*
X118995238Y-114811904D01*
X118976190Y-114792857D01*
X118957142Y-114754761D01*
X118957142Y-114716666D01*
X118976190Y-114678571D01*
X118995238Y-114659523D01*
X119033333Y-114640476D01*
X119109523Y-114621428D01*
X119147619Y-114602380D01*
X119166666Y-114583333D01*
X119185714Y-114545238D01*
X119185714Y-114507142D01*
X119166666Y-114469047D01*
X119147619Y-114450000D01*
X119109523Y-114430952D01*
X119014285Y-114430952D01*
X118957142Y-114450000D01*
X118785714Y-114830952D02*
X118785714Y-114430952D01*
X118690476Y-114430952D01*
X118633333Y-114450000D01*
X118595238Y-114488095D01*
X118576190Y-114526190D01*
X118557142Y-114602380D01*
X118557142Y-114659523D01*
X118576190Y-114735714D01*
X118595238Y-114773809D01*
X118633333Y-114811904D01*
X118690476Y-114830952D01*
X118785714Y-114830952D01*
X118404761Y-114716666D02*
X118214285Y-114716666D01*
X118442857Y-114830952D02*
X118309523Y-114430952D01*
X118176190Y-114830952D01*
X120304761Y-114450000D02*
X120342857Y-114430952D01*
X120400000Y-114430952D01*
X120457142Y-114450000D01*
X120495238Y-114488095D01*
X120514285Y-114526190D01*
X120533333Y-114602380D01*
X120533333Y-114659523D01*
X120514285Y-114735714D01*
X120495238Y-114773809D01*
X120457142Y-114811904D01*
X120400000Y-114830952D01*
X120361904Y-114830952D01*
X120304761Y-114811904D01*
X120285714Y-114792857D01*
X120285714Y-114659523D01*
X120361904Y-114659523D01*
X120114285Y-114830952D02*
X120114285Y-114430952D01*
X119885714Y-114830952D01*
X119885714Y-114430952D01*
X119695238Y-114830952D02*
X119695238Y-114430952D01*
X119600000Y-114430952D01*
X119542857Y-114450000D01*
X119504761Y-114488095D01*
X119485714Y-114526190D01*
X119466666Y-114602380D01*
X119466666Y-114659523D01*
X119485714Y-114735714D01*
X119504761Y-114773809D01*
X119542857Y-114811904D01*
X119600000Y-114830952D01*
X119695238Y-114830952D01*
X117926190Y-114811904D02*
X117869047Y-114830952D01*
X117773809Y-114830952D01*
X117735714Y-114811904D01*
X117716666Y-114792857D01*
X117697619Y-114754761D01*
X117697619Y-114716666D01*
X117716666Y-114678571D01*
X117735714Y-114659523D01*
X117773809Y-114640476D01*
X117850000Y-114621428D01*
X117888095Y-114602380D01*
X117907142Y-114583333D01*
X117926190Y-114545238D01*
X117926190Y-114507142D01*
X117907142Y-114469047D01*
X117888095Y-114450000D01*
X117850000Y-114430952D01*
X117754761Y-114430952D01*
X117697619Y-114450000D01*
X117297619Y-114792857D02*
X117316666Y-114811904D01*
X117373809Y-114830952D01*
X117411904Y-114830952D01*
X117469047Y-114811904D01*
X117507142Y-114773809D01*
X117526190Y-114735714D01*
X117545238Y-114659523D01*
X117545238Y-114602380D01*
X117526190Y-114526190D01*
X117507142Y-114488095D01*
X117469047Y-114450000D01*
X117411904Y-114430952D01*
X117373809Y-114430952D01*
X117316666Y-114450000D01*
X117297619Y-114469047D01*
X116935714Y-114830952D02*
X117126190Y-114830952D01*
X117126190Y-114430952D01*
X121745238Y-114480952D02*
X121497619Y-114480952D01*
X121630952Y-114633333D01*
X121573809Y-114633333D01*
X121535714Y-114652380D01*
X121516666Y-114671428D01*
X121497619Y-114709523D01*
X121497619Y-114804761D01*
X121516666Y-114842857D01*
X121535714Y-114861904D01*
X121573809Y-114880952D01*
X121688095Y-114880952D01*
X121726190Y-114861904D01*
X121745238Y-114842857D01*
X121383333Y-114480952D02*
X121250000Y-114880952D01*
X121116666Y-114480952D01*
X121021428Y-114480952D02*
X120773809Y-114480952D01*
X120907142Y-114633333D01*
X120850000Y-114633333D01*
X120811904Y-114652380D01*
X120792857Y-114671428D01*
X120773809Y-114709523D01*
X120773809Y-114804761D01*
X120792857Y-114842857D01*
X120811904Y-114861904D01*
X120850000Y-114880952D01*
X120964285Y-114880952D01*
X121002380Y-114861904D01*
X121021428Y-114842857D01*
D11*
X122871428Y-102776190D02*
X122871428Y-102276190D01*
X122771428Y-102633333D01*
X122671428Y-102276190D01*
X122671428Y-102776190D01*
X122471428Y-102276190D02*
X122414285Y-102276190D01*
X122385714Y-102300000D01*
X122357142Y-102347619D01*
X122342857Y-102442857D01*
X122342857Y-102609523D01*
X122357142Y-102704761D01*
X122385714Y-102752380D01*
X122414285Y-102776190D01*
X122471428Y-102776190D01*
X122500000Y-102752380D01*
X122528571Y-102704761D01*
X122542857Y-102609523D01*
X122542857Y-102442857D01*
X122528571Y-102347619D01*
X122500000Y-102300000D01*
X122471428Y-102276190D01*
X122228571Y-102752380D02*
X122185714Y-102776190D01*
X122114285Y-102776190D01*
X122085714Y-102752380D01*
X122071428Y-102728571D01*
X122057142Y-102680952D01*
X122057142Y-102633333D01*
X122071428Y-102585714D01*
X122085714Y-102561904D01*
X122114285Y-102538095D01*
X122171428Y-102514285D01*
X122200000Y-102490476D01*
X122214285Y-102466666D01*
X122228571Y-102419047D01*
X122228571Y-102371428D01*
X122214285Y-102323809D01*
X122200000Y-102300000D01*
X122171428Y-102276190D01*
X122100000Y-102276190D01*
X122057142Y-102300000D01*
X121928571Y-102776190D02*
X121928571Y-102276190D01*
X125457142Y-102752380D02*
X125414285Y-102776190D01*
X125342857Y-102776190D01*
X125314285Y-102752380D01*
X125300000Y-102728571D01*
X125285714Y-102680952D01*
X125285714Y-102633333D01*
X125300000Y-102585714D01*
X125314285Y-102561904D01*
X125342857Y-102538095D01*
X125400000Y-102514285D01*
X125428571Y-102490476D01*
X125442857Y-102466666D01*
X125457142Y-102419047D01*
X125457142Y-102371428D01*
X125442857Y-102323809D01*
X125428571Y-102300000D01*
X125400000Y-102276190D01*
X125328571Y-102276190D01*
X125285714Y-102300000D01*
X124985714Y-102728571D02*
X125000000Y-102752380D01*
X125042857Y-102776190D01*
X125071428Y-102776190D01*
X125114285Y-102752380D01*
X125142857Y-102704761D01*
X125157142Y-102657142D01*
X125171428Y-102561904D01*
X125171428Y-102490476D01*
X125157142Y-102395238D01*
X125142857Y-102347619D01*
X125114285Y-102300000D01*
X125071428Y-102276190D01*
X125042857Y-102276190D01*
X125000000Y-102300000D01*
X124985714Y-102323809D01*
X124714285Y-102776190D02*
X124857142Y-102776190D01*
X124857142Y-102276190D01*
X124614285Y-102776190D02*
X124614285Y-102276190D01*
X124442857Y-102776190D02*
X124571428Y-102490476D01*
X124442857Y-102276190D02*
X124614285Y-102561904D01*
X124171428Y-102776190D02*
X124171428Y-102276190D01*
X124071428Y-102633333D01*
X123971428Y-102276190D01*
X123971428Y-102776190D01*
X123828571Y-102776190D02*
X123828571Y-102276190D01*
X123700000Y-102752380D02*
X123657142Y-102776190D01*
X123585714Y-102776190D01*
X123557142Y-102752380D01*
X123542857Y-102728571D01*
X123528571Y-102680952D01*
X123528571Y-102633333D01*
X123542857Y-102585714D01*
X123557142Y-102561904D01*
X123585714Y-102538095D01*
X123642857Y-102514285D01*
X123671428Y-102490476D01*
X123685714Y-102466666D01*
X123700000Y-102419047D01*
X123700000Y-102371428D01*
X123685714Y-102323809D01*
X123671428Y-102300000D01*
X123642857Y-102276190D01*
X123571428Y-102276190D01*
X123528571Y-102300000D01*
X123342857Y-102276190D02*
X123285714Y-102276190D01*
X123257142Y-102300000D01*
X123228571Y-102347619D01*
X123214285Y-102442857D01*
X123214285Y-102609523D01*
X123228571Y-102704761D01*
X123257142Y-102752380D01*
X123285714Y-102776190D01*
X123342857Y-102776190D01*
X123371428Y-102752380D01*
X123400000Y-102704761D01*
X123414285Y-102609523D01*
X123414285Y-102442857D01*
X123400000Y-102347619D01*
X123371428Y-102300000D01*
X123342857Y-102276190D01*
D12*
X118633333Y-102726190D02*
X118800000Y-102488095D01*
X118919047Y-102726190D02*
X118919047Y-102226190D01*
X118728571Y-102226190D01*
X118680952Y-102250000D01*
X118657142Y-102273809D01*
X118633333Y-102321428D01*
X118633333Y-102392857D01*
X118657142Y-102440476D01*
X118680952Y-102464285D01*
X118728571Y-102488095D01*
X118919047Y-102488095D01*
X118466666Y-102226190D02*
X118133333Y-102726190D01*
X118133333Y-102226190D02*
X118466666Y-102726190D01*
D10*
X119969047Y-102726190D02*
X120102380Y-102488095D01*
X120197619Y-102726190D02*
X120197619Y-102226190D01*
X120045238Y-102226190D01*
X120007142Y-102250000D01*
X119988095Y-102273809D01*
X119969047Y-102321428D01*
X119969047Y-102392857D01*
X119988095Y-102440476D01*
X120007142Y-102464285D01*
X120045238Y-102488095D01*
X120197619Y-102488095D01*
X119816666Y-102702380D02*
X119759523Y-102726190D01*
X119664285Y-102726190D01*
X119626190Y-102702380D01*
X119607142Y-102678571D01*
X119588095Y-102630952D01*
X119588095Y-102583333D01*
X119607142Y-102535714D01*
X119626190Y-102511904D01*
X119664285Y-102488095D01*
X119740476Y-102464285D01*
X119778571Y-102440476D01*
X119797619Y-102416666D01*
X119816666Y-102369047D01*
X119816666Y-102321428D01*
X119797619Y-102273809D01*
X119778571Y-102250000D01*
X119740476Y-102226190D01*
X119645238Y-102226190D01*
X119588095Y-102250000D01*
X119473809Y-102226190D02*
X119245238Y-102226190D01*
X119359523Y-102726190D02*
X119359523Y-102226190D01*
X121454761Y-102752380D02*
X121397619Y-102776190D01*
X121302380Y-102776190D01*
X121264285Y-102752380D01*
X121245238Y-102728571D01*
X121226190Y-102680952D01*
X121226190Y-102633333D01*
X121245238Y-102585714D01*
X121264285Y-102561904D01*
X121302380Y-102538095D01*
X121378571Y-102514285D01*
X121416666Y-102490476D01*
X121435714Y-102466666D01*
X121454761Y-102419047D01*
X121454761Y-102371428D01*
X121435714Y-102323809D01*
X121416666Y-102300000D01*
X121378571Y-102276190D01*
X121283333Y-102276190D01*
X121226190Y-102300000D01*
X121073809Y-102752380D02*
X121016666Y-102776190D01*
X120921428Y-102776190D01*
X120883333Y-102752380D01*
X120864285Y-102728571D01*
X120845238Y-102680952D01*
X120845238Y-102633333D01*
X120864285Y-102585714D01*
X120883333Y-102561904D01*
X120921428Y-102538095D01*
X120997619Y-102514285D01*
X121035714Y-102490476D01*
X121054761Y-102466666D01*
X121073809Y-102419047D01*
X121073809Y-102371428D01*
X121054761Y-102323809D01*
X121035714Y-102300000D01*
X120997619Y-102276190D01*
X120902380Y-102276190D01*
X120845238Y-102300000D01*
D12*
X117630952Y-102226190D02*
X117345238Y-102226190D01*
X117488095Y-102726190D02*
X117488095Y-102226190D01*
X117226190Y-102226190D02*
X116892857Y-102726190D01*
X116892857Y-102226190D02*
X117226190Y-102726190D01*
D13*
X102861904Y-105391904D02*
X102595238Y-106191904D01*
X102328571Y-105391904D01*
X102061904Y-105887142D02*
X101452380Y-105887142D01*
X101757142Y-106191904D02*
X101757142Y-105582380D01*
X105009523Y-105430000D02*
X105085714Y-105391904D01*
X105200000Y-105391904D01*
X105314285Y-105430000D01*
X105390476Y-105506190D01*
X105428571Y-105582380D01*
X105466666Y-105734761D01*
X105466666Y-105849047D01*
X105428571Y-106001428D01*
X105390476Y-106077619D01*
X105314285Y-106153809D01*
X105200000Y-106191904D01*
X105123809Y-106191904D01*
X105009523Y-106153809D01*
X104971428Y-106115714D01*
X104971428Y-105849047D01*
X105123809Y-105849047D01*
X104628571Y-106191904D02*
X104628571Y-105391904D01*
X104171428Y-106191904D01*
X104171428Y-105391904D01*
X103790476Y-106191904D02*
X103790476Y-105391904D01*
X103600000Y-105391904D01*
X103485714Y-105430000D01*
X103409523Y-105506190D01*
X103371428Y-105582380D01*
X103333333Y-105734761D01*
X103333333Y-105849047D01*
X103371428Y-106001428D01*
X103409523Y-106077619D01*
X103485714Y-106153809D01*
X103600000Y-106191904D01*
X103790476Y-106191904D01*
X136391904Y-106361904D02*
X136391904Y-105561904D01*
X136125238Y-106133333D01*
X135858571Y-105561904D01*
X135858571Y-106361904D01*
X135477619Y-106057142D02*
X134868095Y-106057142D01*
X138691904Y-106361904D02*
X138691904Y-105561904D01*
X138425238Y-106133333D01*
X138158571Y-105561904D01*
X138158571Y-106361904D01*
X137777619Y-106057142D02*
X137168095Y-106057142D01*
X137472857Y-106361904D02*
X137472857Y-105752380D01*
D12*
X133676190Y-105199523D02*
X134176190Y-105318571D01*
X133819047Y-105413809D01*
X134176190Y-105509047D01*
X133676190Y-105628095D01*
X134176190Y-105818571D02*
X133676190Y-105818571D01*
X134176190Y-106104285D02*
X133890476Y-105890000D01*
X133676190Y-106104285D02*
X133961904Y-105818571D01*
X133914285Y-106318571D02*
X133914285Y-106485238D01*
X134176190Y-106556666D02*
X134176190Y-106318571D01*
X133676190Y-106318571D01*
X133676190Y-106556666D01*
X139908571Y-105702380D02*
X139932380Y-105678571D01*
X139956190Y-105607142D01*
X139956190Y-105559523D01*
X139932380Y-105488095D01*
X139884761Y-105440476D01*
X139837142Y-105416666D01*
X139741904Y-105392857D01*
X139670476Y-105392857D01*
X139575238Y-105416666D01*
X139527619Y-105440476D01*
X139480000Y-105488095D01*
X139456190Y-105559523D01*
X139456190Y-105607142D01*
X139480000Y-105678571D01*
X139503809Y-105702380D01*
X139956190Y-105916666D02*
X139456190Y-105916666D01*
X139956190Y-106202380D01*
X139456190Y-106202380D01*
X139456190Y-106369047D02*
X139456190Y-106654761D01*
X139956190Y-106511904D02*
X139456190Y-106511904D01*
X133660000Y-107609047D02*
X133636190Y-107561428D01*
X133636190Y-107490000D01*
X133660000Y-107418571D01*
X133707619Y-107370952D01*
X133755238Y-107347142D01*
X133850476Y-107323333D01*
X133921904Y-107323333D01*
X134017142Y-107347142D01*
X134064761Y-107370952D01*
X134112380Y-107418571D01*
X134136190Y-107490000D01*
X134136190Y-107537619D01*
X134112380Y-107609047D01*
X134088571Y-107632857D01*
X133921904Y-107632857D01*
X133921904Y-107537619D01*
X134136190Y-107847142D02*
X133636190Y-107847142D01*
X134136190Y-108132857D01*
X133636190Y-108132857D01*
X134136190Y-108370952D02*
X133636190Y-108370952D01*
X133636190Y-108490000D01*
X133660000Y-108561428D01*
X133707619Y-108609047D01*
X133755238Y-108632857D01*
X133850476Y-108656666D01*
X133921904Y-108656666D01*
X134017142Y-108632857D01*
X134064761Y-108609047D01*
X134112380Y-108561428D01*
X134136190Y-108490000D01*
X134136190Y-108370952D01*
X139580000Y-107599047D02*
X139556190Y-107551428D01*
X139556190Y-107480000D01*
X139580000Y-107408571D01*
X139627619Y-107360952D01*
X139675238Y-107337142D01*
X139770476Y-107313333D01*
X139841904Y-107313333D01*
X139937142Y-107337142D01*
X139984761Y-107360952D01*
X140032380Y-107408571D01*
X140056190Y-107480000D01*
X140056190Y-107527619D01*
X140032380Y-107599047D01*
X140008571Y-107622857D01*
X139841904Y-107622857D01*
X139841904Y-107527619D01*
X140056190Y-107837142D02*
X139556190Y-107837142D01*
X140056190Y-108122857D01*
X139556190Y-108122857D01*
X140056190Y-108360952D02*
X139556190Y-108360952D01*
X139556190Y-108480000D01*
X139580000Y-108551428D01*
X139627619Y-108599047D01*
X139675238Y-108622857D01*
X139770476Y-108646666D01*
X139841904Y-108646666D01*
X139937142Y-108622857D01*
X139984761Y-108599047D01*
X140032380Y-108551428D01*
X140056190Y-108480000D01*
X140056190Y-108360952D01*
X134130952Y-113326190D02*
X134130952Y-112826190D01*
X133940476Y-112826190D01*
X133892857Y-112850000D01*
X133869047Y-112873809D01*
X133845238Y-112921428D01*
X133845238Y-112992857D01*
X133869047Y-113040476D01*
X133892857Y-113064285D01*
X133940476Y-113088095D01*
X134130952Y-113088095D01*
X139810952Y-113226190D02*
X139810952Y-112726190D01*
X139620476Y-112726190D01*
X139572857Y-112750000D01*
X139549047Y-112773809D01*
X139525238Y-112821428D01*
X139525238Y-112892857D01*
X139549047Y-112940476D01*
X139572857Y-112964285D01*
X139620476Y-112988095D01*
X139810952Y-112988095D01*
X133942857Y-110602380D02*
X133871428Y-110626190D01*
X133752380Y-110626190D01*
X133704761Y-110602380D01*
X133680952Y-110578571D01*
X133657142Y-110530952D01*
X133657142Y-110483333D01*
X133680952Y-110435714D01*
X133704761Y-110411904D01*
X133752380Y-110388095D01*
X133847619Y-110364285D01*
X133895238Y-110340476D01*
X133919047Y-110316666D01*
X133942857Y-110269047D01*
X133942857Y-110221428D01*
X133919047Y-110173809D01*
X133895238Y-110150000D01*
X133847619Y-110126190D01*
X133728571Y-110126190D01*
X133657142Y-110150000D01*
X139842857Y-110602380D02*
X139771428Y-110626190D01*
X139652380Y-110626190D01*
X139604761Y-110602380D01*
X139580952Y-110578571D01*
X139557142Y-110530952D01*
X139557142Y-110483333D01*
X139580952Y-110435714D01*
X139604761Y-110411904D01*
X139652380Y-110388095D01*
X139747619Y-110364285D01*
X139795238Y-110340476D01*
X139819047Y-110316666D01*
X139842857Y-110269047D01*
X139842857Y-110221428D01*
X139819047Y-110173809D01*
X139795238Y-110150000D01*
X139747619Y-110126190D01*
X139628571Y-110126190D01*
X139557142Y-110150000D01*
X124809047Y-114306190D02*
X124499523Y-114306190D01*
X124666190Y-114496666D01*
X124594761Y-114496666D01*
X124547142Y-114520476D01*
X124523333Y-114544285D01*
X124499523Y-114591904D01*
X124499523Y-114710952D01*
X124523333Y-114758571D01*
X124547142Y-114782380D01*
X124594761Y-114806190D01*
X124737619Y-114806190D01*
X124785238Y-114782380D01*
X124809047Y-114758571D01*
X124356666Y-114306190D02*
X124190000Y-114806190D01*
X124023333Y-114306190D01*
X123904285Y-114306190D02*
X123594761Y-114306190D01*
X123761428Y-114496666D01*
X123690000Y-114496666D01*
X123642380Y-114520476D01*
X123618571Y-114544285D01*
X123594761Y-114591904D01*
X123594761Y-114710952D01*
X123618571Y-114758571D01*
X123642380Y-114782380D01*
X123690000Y-114806190D01*
X123832857Y-114806190D01*
X123880476Y-114782380D01*
X123904285Y-114758571D01*
X129876190Y-114256190D02*
X129709523Y-114756190D01*
X129542857Y-114256190D01*
X129376190Y-114565714D02*
X128995238Y-114565714D01*
X129185714Y-114756190D02*
X129185714Y-114375238D01*
X132280952Y-114280000D02*
X132328571Y-114256190D01*
X132400000Y-114256190D01*
X132471428Y-114280000D01*
X132519047Y-114327619D01*
X132542857Y-114375238D01*
X132566666Y-114470476D01*
X132566666Y-114541904D01*
X132542857Y-114637142D01*
X132519047Y-114684761D01*
X132471428Y-114732380D01*
X132400000Y-114756190D01*
X132352380Y-114756190D01*
X132280952Y-114732380D01*
X132257142Y-114708571D01*
X132257142Y-114541904D01*
X132352380Y-114541904D01*
X132042857Y-114756190D02*
X132042857Y-114256190D01*
X131757142Y-114756190D01*
X131757142Y-114256190D01*
X131519047Y-114756190D02*
X131519047Y-114256190D01*
X131400000Y-114256190D01*
X131328571Y-114280000D01*
X131280952Y-114327619D01*
X131257142Y-114375238D01*
X131233333Y-114470476D01*
X131233333Y-114541904D01*
X131257142Y-114637142D01*
X131280952Y-114684761D01*
X131328571Y-114732380D01*
X131400000Y-114756190D01*
X131519047Y-114756190D01*
X127170952Y-114330000D02*
X127218571Y-114306190D01*
X127290000Y-114306190D01*
X127361428Y-114330000D01*
X127409047Y-114377619D01*
X127432857Y-114425238D01*
X127456666Y-114520476D01*
X127456666Y-114591904D01*
X127432857Y-114687142D01*
X127409047Y-114734761D01*
X127361428Y-114782380D01*
X127290000Y-114806190D01*
X127242380Y-114806190D01*
X127170952Y-114782380D01*
X127147142Y-114758571D01*
X127147142Y-114591904D01*
X127242380Y-114591904D01*
X126932857Y-114806190D02*
X126932857Y-114306190D01*
X126647142Y-114806190D01*
X126647142Y-114306190D01*
X126409047Y-114806190D02*
X126409047Y-114306190D01*
X126290000Y-114306190D01*
X126218571Y-114330000D01*
X126170952Y-114377619D01*
X126147142Y-114425238D01*
X126123333Y-114520476D01*
X126123333Y-114591904D01*
X126147142Y-114687142D01*
X126170952Y-114734761D01*
X126218571Y-114782380D01*
X126290000Y-114806190D01*
X126409047Y-114806190D01*
D14*
X126840000Y-108000000D02*
X132590000Y-108000000D01*
X132590000Y-108000000D02*
X132590000Y-111600000D01*
X132590000Y-111600000D02*
X126840000Y-111600000D01*
X129800000Y-102440000D02*
X131750000Y-102440000D01*
X129800000Y-102440000D02*
X127850000Y-102440000D01*
X129800000Y-107560000D02*
X131750000Y-107560000D01*
X129800000Y-107560000D02*
X126350000Y-107560000D01*
X109390000Y-108742000D02*
X109390000Y-106942000D01*
X112610000Y-106942000D02*
X112610000Y-109392000D01*
X105190000Y-112100000D02*
X105190000Y-110300000D01*
X108410000Y-110300000D02*
X108410000Y-112750000D01*
X110560000Y-103707836D02*
X110560000Y-103492164D01*
X109840000Y-103707836D02*
X109840000Y-103492164D01*
X112240000Y-103492164D02*
X112240000Y-103707836D01*
X112960000Y-103492164D02*
X112960000Y-103707836D01*
X107580000Y-103753641D02*
X107580000Y-103446359D01*
X106820000Y-103753641D02*
X106820000Y-103446359D01*
X105870000Y-107700000D02*
X105870000Y-108360000D01*
X105870000Y-106040000D02*
X105870000Y-106700000D01*
X105870000Y-106040000D02*
X107900000Y-106040000D01*
X107280000Y-108360000D02*
X105870000Y-108360000D01*
X111760000Y-103707836D02*
X111760000Y-103492164D01*
X111040000Y-103707836D02*
X111040000Y-103492164D01*
X111261252Y-111465000D02*
X110738748Y-111465000D01*
X111261252Y-112935000D02*
X110738748Y-112935000D01*
D13*
X122125000Y-105975000D02*
X122125000Y-106100000D01*
X117475000Y-105975000D02*
X117475000Y-106200000D01*
X117475000Y-111225000D02*
X117475000Y-111000000D01*
X122125000Y-111225000D02*
X122125000Y-111000000D01*
X122125000Y-105975000D02*
X117475000Y-105975000D01*
X122125000Y-111225000D02*
X117475000Y-111225000D01*
X122125000Y-106100000D02*
X123475000Y-106100000D01*
D12*
X126280952Y-107726190D02*
X126280952Y-108130952D01*
X126257142Y-108178571D01*
X126233333Y-108202380D01*
X126185714Y-108226190D01*
X126090476Y-108226190D01*
X126042857Y-108202380D01*
X126019047Y-108178571D01*
X125995238Y-108130952D01*
X125995238Y-107726190D01*
X125542857Y-107892857D02*
X125542857Y-108226190D01*
X125661904Y-107702380D02*
X125780952Y-108059523D01*
X125471428Y-108059523D01*
X112380952Y-109876190D02*
X112380952Y-110280952D01*
X112357142Y-110328571D01*
X112333333Y-110352380D01*
X112285714Y-110376190D01*
X112190476Y-110376190D01*
X112142857Y-110352380D01*
X112119047Y-110328571D01*
X112095238Y-110280952D01*
X112095238Y-109876190D01*
X111880952Y-109923809D02*
X111857142Y-109900000D01*
X111809523Y-109876190D01*
X111690476Y-109876190D01*
X111642857Y-109900000D01*
X111619047Y-109923809D01*
X111595238Y-109971428D01*
X111595238Y-110019047D01*
X111619047Y-110090476D01*
X111904761Y-110376190D01*
X111595238Y-110376190D01*
X108130952Y-113226190D02*
X108130952Y-113630952D01*
X108107142Y-113678571D01*
X108083333Y-113702380D01*
X108035714Y-113726190D01*
X107940476Y-113726190D01*
X107892857Y-113702380D01*
X107869047Y-113678571D01*
X107845238Y-113630952D01*
X107845238Y-113226190D01*
X107345238Y-113726190D02*
X107630952Y-113726190D01*
X107488095Y-113726190D02*
X107488095Y-113226190D01*
X107535714Y-113297619D01*
X107583333Y-113345238D01*
X107630952Y-113369047D01*
X123055952Y-105226190D02*
X123055952Y-105630952D01*
X123032142Y-105678571D01*
X123008333Y-105702380D01*
X122960714Y-105726190D01*
X122865476Y-105726190D01*
X122817857Y-105702380D01*
X122794047Y-105678571D01*
X122770238Y-105630952D01*
X122770238Y-105226190D01*
X122294047Y-105226190D02*
X122532142Y-105226190D01*
X122555952Y-105464285D01*
X122532142Y-105440476D01*
X122484523Y-105416666D01*
X122365476Y-105416666D01*
X122317857Y-105440476D01*
X122294047Y-105464285D01*
X122270238Y-105511904D01*
X122270238Y-105630952D01*
X122294047Y-105678571D01*
X122317857Y-105702380D01*
X122365476Y-105726190D01*
X122484523Y-105726190D01*
X122532142Y-105702380D01*
X122555952Y-105678571D01*
M02*
