G04 #@! TF.GenerationSoftware,KiCad,Pcbnew,(5.1.9)-1*
G04 #@! TF.CreationDate,2021-05-17T22:57:24+10:00*
G04 #@! TF.ProjectId,microBoSL-panel,6d696372-6f42-46f5-934c-2d70616e656c,rev?*
G04 #@! TF.SameCoordinates,Original*
G04 #@! TF.FileFunction,Paste,Bot*
G04 #@! TF.FilePolarity,Positive*
%FSLAX46Y46*%
G04 Gerber Fmt 4.6, Leading zero omitted, Abs format (unit mm)*
G04 Created by KiCad (PCBNEW (5.1.9)-1) date 2021-05-17 22:57:24*
%MOMM*%
%LPD*%
G01*
G04 APERTURE LIST*
%ADD10R,1.450000X0.450000*%
%ADD11R,0.700000X0.450000*%
%ADD12R,0.650000X1.060000*%
%ADD13R,2.000000X2.400000*%
G04 APERTURE END LIST*
D10*
X100250006Y-127800033D03*
X100250006Y-128450033D03*
X100250006Y-129100033D03*
X100250006Y-129750033D03*
X100250006Y-130400033D03*
X100250006Y-131050033D03*
X100250006Y-131700033D03*
X94350006Y-131700033D03*
X94350006Y-131050033D03*
X94350006Y-130400033D03*
X94350006Y-129750033D03*
X94350006Y-129100033D03*
X94350006Y-128450033D03*
X94350006Y-127800033D03*
G36*
G01*
X110177506Y-130448033D02*
X110522506Y-130448033D01*
G75*
G02*
X110670006Y-130595533I0J-147500D01*
G01*
X110670006Y-130890533D01*
G75*
G02*
X110522506Y-131038033I-147500J0D01*
G01*
X110177506Y-131038033D01*
G75*
G02*
X110030006Y-130890533I0J147500D01*
G01*
X110030006Y-130595533D01*
G75*
G02*
X110177506Y-130448033I147500J0D01*
G01*
G37*
G36*
G01*
X110177506Y-131418033D02*
X110522506Y-131418033D01*
G75*
G02*
X110670006Y-131565533I0J-147500D01*
G01*
X110670006Y-131860533D01*
G75*
G02*
X110522506Y-132008033I-147500J0D01*
G01*
X110177506Y-132008033D01*
G75*
G02*
X110030006Y-131860533I0J147500D01*
G01*
X110030006Y-131565533D01*
G75*
G02*
X110177506Y-131418033I147500J0D01*
G01*
G37*
G36*
G01*
X102398506Y-132008033D02*
X102053506Y-132008033D01*
G75*
G02*
X101906006Y-131860533I0J147500D01*
G01*
X101906006Y-131565533D01*
G75*
G02*
X102053506Y-131418033I147500J0D01*
G01*
X102398506Y-131418033D01*
G75*
G02*
X102546006Y-131565533I0J-147500D01*
G01*
X102546006Y-131860533D01*
G75*
G02*
X102398506Y-132008033I-147500J0D01*
G01*
G37*
G36*
G01*
X102398506Y-131038033D02*
X102053506Y-131038033D01*
G75*
G02*
X101906006Y-130890533I0J147500D01*
G01*
X101906006Y-130595533D01*
G75*
G02*
X102053506Y-130448033I147500J0D01*
G01*
X102398506Y-130448033D01*
G75*
G02*
X102546006Y-130595533I0J-147500D01*
G01*
X102546006Y-130890533D01*
G75*
G02*
X102398506Y-131038033I-147500J0D01*
G01*
G37*
G36*
G01*
X90672506Y-125795033D02*
X90327506Y-125795033D01*
G75*
G02*
X90180006Y-125647533I0J147500D01*
G01*
X90180006Y-125352533D01*
G75*
G02*
X90327506Y-125205033I147500J0D01*
G01*
X90672506Y-125205033D01*
G75*
G02*
X90820006Y-125352533I0J-147500D01*
G01*
X90820006Y-125647533D01*
G75*
G02*
X90672506Y-125795033I-147500J0D01*
G01*
G37*
G36*
G01*
X90672506Y-124825033D02*
X90327506Y-124825033D01*
G75*
G02*
X90180006Y-124677533I0J147500D01*
G01*
X90180006Y-124382533D01*
G75*
G02*
X90327506Y-124235033I147500J0D01*
G01*
X90672506Y-124235033D01*
G75*
G02*
X90820006Y-124382533I0J-147500D01*
G01*
X90820006Y-124677533D01*
G75*
G02*
X90672506Y-124825033I-147500J0D01*
G01*
G37*
G36*
G01*
X89950006Y-133625033D02*
X89950006Y-134575033D01*
G75*
G02*
X89700006Y-134825033I-250000J0D01*
G01*
X89200006Y-134825033D01*
G75*
G02*
X88950006Y-134575033I0J250000D01*
G01*
X88950006Y-133625033D01*
G75*
G02*
X89200006Y-133375033I250000J0D01*
G01*
X89700006Y-133375033D01*
G75*
G02*
X89950006Y-133625033I0J-250000D01*
G01*
G37*
G36*
G01*
X88050006Y-133625033D02*
X88050006Y-134575033D01*
G75*
G02*
X87800006Y-134825033I-250000J0D01*
G01*
X87300006Y-134825033D01*
G75*
G02*
X87050006Y-134575033I0J250000D01*
G01*
X87050006Y-133625033D01*
G75*
G02*
X87300006Y-133375033I250000J0D01*
G01*
X87800006Y-133375033D01*
G75*
G02*
X88050006Y-133625033I0J-250000D01*
G01*
G37*
G36*
G01*
X86270006Y-125860033D02*
X85930006Y-125860033D01*
G75*
G02*
X85790006Y-125720033I0J140000D01*
G01*
X85790006Y-125440033D01*
G75*
G02*
X85930006Y-125300033I140000J0D01*
G01*
X86270006Y-125300033D01*
G75*
G02*
X86410006Y-125440033I0J-140000D01*
G01*
X86410006Y-125720033D01*
G75*
G02*
X86270006Y-125860033I-140000J0D01*
G01*
G37*
G36*
G01*
X86270006Y-124900033D02*
X85930006Y-124900033D01*
G75*
G02*
X85790006Y-124760033I0J140000D01*
G01*
X85790006Y-124480033D01*
G75*
G02*
X85930006Y-124340033I140000J0D01*
G01*
X86270006Y-124340033D01*
G75*
G02*
X86410006Y-124480033I0J-140000D01*
G01*
X86410006Y-124760033D01*
G75*
G02*
X86270006Y-124900033I-140000J0D01*
G01*
G37*
D11*
X85100006Y-128050033D03*
X85100006Y-129350033D03*
X83100006Y-128700033D03*
G36*
G01*
X82085006Y-125880033D02*
X81715006Y-125880033D01*
G75*
G02*
X81580006Y-125745033I0J135000D01*
G01*
X81580006Y-125475033D01*
G75*
G02*
X81715006Y-125340033I135000J0D01*
G01*
X82085006Y-125340033D01*
G75*
G02*
X82220006Y-125475033I0J-135000D01*
G01*
X82220006Y-125745033D01*
G75*
G02*
X82085006Y-125880033I-135000J0D01*
G01*
G37*
G36*
G01*
X82085006Y-124860033D02*
X81715006Y-124860033D01*
G75*
G02*
X81580006Y-124725033I0J135000D01*
G01*
X81580006Y-124455033D01*
G75*
G02*
X81715006Y-124320033I135000J0D01*
G01*
X82085006Y-124320033D01*
G75*
G02*
X82220006Y-124455033I0J-135000D01*
G01*
X82220006Y-124725033D01*
G75*
G02*
X82085006Y-124860033I-135000J0D01*
G01*
G37*
G36*
G01*
X87130006Y-124340033D02*
X87470006Y-124340033D01*
G75*
G02*
X87610006Y-124480033I0J-140000D01*
G01*
X87610006Y-124760033D01*
G75*
G02*
X87470006Y-124900033I-140000J0D01*
G01*
X87130006Y-124900033D01*
G75*
G02*
X86990006Y-124760033I0J140000D01*
G01*
X86990006Y-124480033D01*
G75*
G02*
X87130006Y-124340033I140000J0D01*
G01*
G37*
G36*
G01*
X87130006Y-125300033D02*
X87470006Y-125300033D01*
G75*
G02*
X87610006Y-125440033I0J-140000D01*
G01*
X87610006Y-125720033D01*
G75*
G02*
X87470006Y-125860033I-140000J0D01*
G01*
X87130006Y-125860033D01*
G75*
G02*
X86990006Y-125720033I0J140000D01*
G01*
X86990006Y-125440033D01*
G75*
G02*
X87130006Y-125300033I140000J0D01*
G01*
G37*
G36*
G01*
X85070006Y-125860033D02*
X84730006Y-125860033D01*
G75*
G02*
X84590006Y-125720033I0J140000D01*
G01*
X84590006Y-125440033D01*
G75*
G02*
X84730006Y-125300033I140000J0D01*
G01*
X85070006Y-125300033D01*
G75*
G02*
X85210006Y-125440033I0J-140000D01*
G01*
X85210006Y-125720033D01*
G75*
G02*
X85070006Y-125860033I-140000J0D01*
G01*
G37*
G36*
G01*
X85070006Y-124900033D02*
X84730006Y-124900033D01*
G75*
G02*
X84590006Y-124760033I0J140000D01*
G01*
X84590006Y-124480033D01*
G75*
G02*
X84730006Y-124340033I140000J0D01*
G01*
X85070006Y-124340033D01*
G75*
G02*
X85210006Y-124480033I0J-140000D01*
G01*
X85210006Y-124760033D01*
G75*
G02*
X85070006Y-124900033I-140000J0D01*
G01*
G37*
D12*
X85250006Y-134200033D03*
X84300006Y-134200033D03*
X83350006Y-134200033D03*
X83350006Y-132000033D03*
X85250006Y-132000033D03*
X89450006Y-130442033D03*
X88500006Y-130442033D03*
X87550006Y-130442033D03*
X87550006Y-128242033D03*
X89450006Y-128242033D03*
G36*
G01*
X104300006Y-127805033D02*
X104300006Y-127505033D01*
G75*
G02*
X104450006Y-127355033I150000J0D01*
G01*
X106100006Y-127355033D01*
G75*
G02*
X106250006Y-127505033I0J-150000D01*
G01*
X106250006Y-127805033D01*
G75*
G02*
X106100006Y-127955033I-150000J0D01*
G01*
X104450006Y-127955033D01*
G75*
G02*
X104300006Y-127805033I0J150000D01*
G01*
G37*
G36*
G01*
X104300006Y-126535033D02*
X104300006Y-126235033D01*
G75*
G02*
X104450006Y-126085033I150000J0D01*
G01*
X106100006Y-126085033D01*
G75*
G02*
X106250006Y-126235033I0J-150000D01*
G01*
X106250006Y-126535033D01*
G75*
G02*
X106100006Y-126685033I-150000J0D01*
G01*
X104450006Y-126685033D01*
G75*
G02*
X104300006Y-126535033I0J150000D01*
G01*
G37*
G36*
G01*
X104300006Y-125265033D02*
X104300006Y-124965033D01*
G75*
G02*
X104450006Y-124815033I150000J0D01*
G01*
X106100006Y-124815033D01*
G75*
G02*
X106250006Y-124965033I0J-150000D01*
G01*
X106250006Y-125265033D01*
G75*
G02*
X106100006Y-125415033I-150000J0D01*
G01*
X104450006Y-125415033D01*
G75*
G02*
X104300006Y-125265033I0J150000D01*
G01*
G37*
G36*
G01*
X104300006Y-123995033D02*
X104300006Y-123695033D01*
G75*
G02*
X104450006Y-123545033I150000J0D01*
G01*
X106100006Y-123545033D01*
G75*
G02*
X106250006Y-123695033I0J-150000D01*
G01*
X106250006Y-123995033D01*
G75*
G02*
X106100006Y-124145033I-150000J0D01*
G01*
X104450006Y-124145033D01*
G75*
G02*
X104300006Y-123995033I0J150000D01*
G01*
G37*
G36*
G01*
X109250006Y-123995033D02*
X109250006Y-123695033D01*
G75*
G02*
X109400006Y-123545033I150000J0D01*
G01*
X111050006Y-123545033D01*
G75*
G02*
X111200006Y-123695033I0J-150000D01*
G01*
X111200006Y-123995033D01*
G75*
G02*
X111050006Y-124145033I-150000J0D01*
G01*
X109400006Y-124145033D01*
G75*
G02*
X109250006Y-123995033I0J150000D01*
G01*
G37*
G36*
G01*
X109250006Y-125265033D02*
X109250006Y-124965033D01*
G75*
G02*
X109400006Y-124815033I150000J0D01*
G01*
X111050006Y-124815033D01*
G75*
G02*
X111200006Y-124965033I0J-150000D01*
G01*
X111200006Y-125265033D01*
G75*
G02*
X111050006Y-125415033I-150000J0D01*
G01*
X109400006Y-125415033D01*
G75*
G02*
X109250006Y-125265033I0J150000D01*
G01*
G37*
G36*
G01*
X109250006Y-126535033D02*
X109250006Y-126235033D01*
G75*
G02*
X109400006Y-126085033I150000J0D01*
G01*
X111050006Y-126085033D01*
G75*
G02*
X111200006Y-126235033I0J-150000D01*
G01*
X111200006Y-126535033D01*
G75*
G02*
X111050006Y-126685033I-150000J0D01*
G01*
X109400006Y-126685033D01*
G75*
G02*
X109250006Y-126535033I0J150000D01*
G01*
G37*
G36*
G01*
X109250006Y-127805033D02*
X109250006Y-127505033D01*
G75*
G02*
X109400006Y-127355033I150000J0D01*
G01*
X111050006Y-127355033D01*
G75*
G02*
X111200006Y-127505033I0J-150000D01*
G01*
X111200006Y-127805033D01*
G75*
G02*
X111050006Y-127955033I-150000J0D01*
G01*
X109400006Y-127955033D01*
G75*
G02*
X109250006Y-127805033I0J150000D01*
G01*
G37*
D13*
X108140006Y-131300033D03*
X104440006Y-131300033D03*
G36*
G01*
X112390006Y-135970033D02*
X112390006Y-135630033D01*
G75*
G02*
X112530006Y-135490033I140000J0D01*
G01*
X112810006Y-135490033D01*
G75*
G02*
X112950006Y-135630033I0J-140000D01*
G01*
X112950006Y-135970033D01*
G75*
G02*
X112810006Y-136110033I-140000J0D01*
G01*
X112530006Y-136110033D01*
G75*
G02*
X112390006Y-135970033I0J140000D01*
G01*
G37*
G36*
G01*
X113350006Y-135970033D02*
X113350006Y-135630033D01*
G75*
G02*
X113490006Y-135490033I140000J0D01*
G01*
X113770006Y-135490033D01*
G75*
G02*
X113910006Y-135630033I0J-140000D01*
G01*
X113910006Y-135970033D01*
G75*
G02*
X113770006Y-136110033I-140000J0D01*
G01*
X113490006Y-136110033D01*
G75*
G02*
X113350006Y-135970033I0J140000D01*
G01*
G37*
G36*
G01*
X114590006Y-136020033D02*
X114590006Y-135680033D01*
G75*
G02*
X114730006Y-135540033I140000J0D01*
G01*
X115010006Y-135540033D01*
G75*
G02*
X115150006Y-135680033I0J-140000D01*
G01*
X115150006Y-136020033D01*
G75*
G02*
X115010006Y-136160033I-140000J0D01*
G01*
X114730006Y-136160033D01*
G75*
G02*
X114590006Y-136020033I0J140000D01*
G01*
G37*
G36*
G01*
X115550006Y-136020033D02*
X115550006Y-135680033D01*
G75*
G02*
X115690006Y-135540033I140000J0D01*
G01*
X115970006Y-135540033D01*
G75*
G02*
X116110006Y-135680033I0J-140000D01*
G01*
X116110006Y-136020033D01*
G75*
G02*
X115970006Y-136160033I-140000J0D01*
G01*
X115690006Y-136160033D01*
G75*
G02*
X115550006Y-136020033I0J140000D01*
G01*
G37*
G36*
G01*
X116305006Y-134950033D02*
X116005006Y-134950033D01*
G75*
G02*
X115855006Y-134800033I0J150000D01*
G01*
X115855006Y-133150033D01*
G75*
G02*
X116005006Y-133000033I150000J0D01*
G01*
X116305006Y-133000033D01*
G75*
G02*
X116455006Y-133150033I0J-150000D01*
G01*
X116455006Y-134800033D01*
G75*
G02*
X116305006Y-134950033I-150000J0D01*
G01*
G37*
G36*
G01*
X115035006Y-134950033D02*
X114735006Y-134950033D01*
G75*
G02*
X114585006Y-134800033I0J150000D01*
G01*
X114585006Y-133150033D01*
G75*
G02*
X114735006Y-133000033I150000J0D01*
G01*
X115035006Y-133000033D01*
G75*
G02*
X115185006Y-133150033I0J-150000D01*
G01*
X115185006Y-134800033D01*
G75*
G02*
X115035006Y-134950033I-150000J0D01*
G01*
G37*
G36*
G01*
X113765006Y-134950033D02*
X113465006Y-134950033D01*
G75*
G02*
X113315006Y-134800033I0J150000D01*
G01*
X113315006Y-133150033D01*
G75*
G02*
X113465006Y-133000033I150000J0D01*
G01*
X113765006Y-133000033D01*
G75*
G02*
X113915006Y-133150033I0J-150000D01*
G01*
X113915006Y-134800033D01*
G75*
G02*
X113765006Y-134950033I-150000J0D01*
G01*
G37*
G36*
G01*
X112495006Y-134950033D02*
X112195006Y-134950033D01*
G75*
G02*
X112045006Y-134800033I0J150000D01*
G01*
X112045006Y-133150033D01*
G75*
G02*
X112195006Y-133000033I150000J0D01*
G01*
X112495006Y-133000033D01*
G75*
G02*
X112645006Y-133150033I0J-150000D01*
G01*
X112645006Y-134800033D01*
G75*
G02*
X112495006Y-134950033I-150000J0D01*
G01*
G37*
G36*
G01*
X112495006Y-130000033D02*
X112195006Y-130000033D01*
G75*
G02*
X112045006Y-129850033I0J150000D01*
G01*
X112045006Y-128200033D01*
G75*
G02*
X112195006Y-128050033I150000J0D01*
G01*
X112495006Y-128050033D01*
G75*
G02*
X112645006Y-128200033I0J-150000D01*
G01*
X112645006Y-129850033D01*
G75*
G02*
X112495006Y-130000033I-150000J0D01*
G01*
G37*
G36*
G01*
X113765006Y-130000033D02*
X113465006Y-130000033D01*
G75*
G02*
X113315006Y-129850033I0J150000D01*
G01*
X113315006Y-128200033D01*
G75*
G02*
X113465006Y-128050033I150000J0D01*
G01*
X113765006Y-128050033D01*
G75*
G02*
X113915006Y-128200033I0J-150000D01*
G01*
X113915006Y-129850033D01*
G75*
G02*
X113765006Y-130000033I-150000J0D01*
G01*
G37*
G36*
G01*
X115035006Y-130000033D02*
X114735006Y-130000033D01*
G75*
G02*
X114585006Y-129850033I0J150000D01*
G01*
X114585006Y-128200033D01*
G75*
G02*
X114735006Y-128050033I150000J0D01*
G01*
X115035006Y-128050033D01*
G75*
G02*
X115185006Y-128200033I0J-150000D01*
G01*
X115185006Y-129850033D01*
G75*
G02*
X115035006Y-130000033I-150000J0D01*
G01*
G37*
G36*
G01*
X116305006Y-130000033D02*
X116005006Y-130000033D01*
G75*
G02*
X115855006Y-129850033I0J150000D01*
G01*
X115855006Y-128200033D01*
G75*
G02*
X116005006Y-128050033I150000J0D01*
G01*
X116305006Y-128050033D01*
G75*
G02*
X116455006Y-128200033I0J-150000D01*
G01*
X116455006Y-129850033D01*
G75*
G02*
X116305006Y-130000033I-150000J0D01*
G01*
G37*
D10*
X50249997Y-127800033D03*
X50249997Y-128450033D03*
X50249997Y-129100033D03*
X50249997Y-129750033D03*
X50249997Y-130400033D03*
X50249997Y-131050033D03*
X50249997Y-131700033D03*
X44349997Y-131700033D03*
X44349997Y-131050033D03*
X44349997Y-130400033D03*
X44349997Y-129750033D03*
X44349997Y-129100033D03*
X44349997Y-128450033D03*
X44349997Y-127800033D03*
G36*
G01*
X60177497Y-130448033D02*
X60522497Y-130448033D01*
G75*
G02*
X60669997Y-130595533I0J-147500D01*
G01*
X60669997Y-130890533D01*
G75*
G02*
X60522497Y-131038033I-147500J0D01*
G01*
X60177497Y-131038033D01*
G75*
G02*
X60029997Y-130890533I0J147500D01*
G01*
X60029997Y-130595533D01*
G75*
G02*
X60177497Y-130448033I147500J0D01*
G01*
G37*
G36*
G01*
X60177497Y-131418033D02*
X60522497Y-131418033D01*
G75*
G02*
X60669997Y-131565533I0J-147500D01*
G01*
X60669997Y-131860533D01*
G75*
G02*
X60522497Y-132008033I-147500J0D01*
G01*
X60177497Y-132008033D01*
G75*
G02*
X60029997Y-131860533I0J147500D01*
G01*
X60029997Y-131565533D01*
G75*
G02*
X60177497Y-131418033I147500J0D01*
G01*
G37*
G36*
G01*
X52398497Y-132008033D02*
X52053497Y-132008033D01*
G75*
G02*
X51905997Y-131860533I0J147500D01*
G01*
X51905997Y-131565533D01*
G75*
G02*
X52053497Y-131418033I147500J0D01*
G01*
X52398497Y-131418033D01*
G75*
G02*
X52545997Y-131565533I0J-147500D01*
G01*
X52545997Y-131860533D01*
G75*
G02*
X52398497Y-132008033I-147500J0D01*
G01*
G37*
G36*
G01*
X52398497Y-131038033D02*
X52053497Y-131038033D01*
G75*
G02*
X51905997Y-130890533I0J147500D01*
G01*
X51905997Y-130595533D01*
G75*
G02*
X52053497Y-130448033I147500J0D01*
G01*
X52398497Y-130448033D01*
G75*
G02*
X52545997Y-130595533I0J-147500D01*
G01*
X52545997Y-130890533D01*
G75*
G02*
X52398497Y-131038033I-147500J0D01*
G01*
G37*
G36*
G01*
X40672497Y-125795033D02*
X40327497Y-125795033D01*
G75*
G02*
X40179997Y-125647533I0J147500D01*
G01*
X40179997Y-125352533D01*
G75*
G02*
X40327497Y-125205033I147500J0D01*
G01*
X40672497Y-125205033D01*
G75*
G02*
X40819997Y-125352533I0J-147500D01*
G01*
X40819997Y-125647533D01*
G75*
G02*
X40672497Y-125795033I-147500J0D01*
G01*
G37*
G36*
G01*
X40672497Y-124825033D02*
X40327497Y-124825033D01*
G75*
G02*
X40179997Y-124677533I0J147500D01*
G01*
X40179997Y-124382533D01*
G75*
G02*
X40327497Y-124235033I147500J0D01*
G01*
X40672497Y-124235033D01*
G75*
G02*
X40819997Y-124382533I0J-147500D01*
G01*
X40819997Y-124677533D01*
G75*
G02*
X40672497Y-124825033I-147500J0D01*
G01*
G37*
G36*
G01*
X39949997Y-133625033D02*
X39949997Y-134575033D01*
G75*
G02*
X39699997Y-134825033I-250000J0D01*
G01*
X39199997Y-134825033D01*
G75*
G02*
X38949997Y-134575033I0J250000D01*
G01*
X38949997Y-133625033D01*
G75*
G02*
X39199997Y-133375033I250000J0D01*
G01*
X39699997Y-133375033D01*
G75*
G02*
X39949997Y-133625033I0J-250000D01*
G01*
G37*
G36*
G01*
X38049997Y-133625033D02*
X38049997Y-134575033D01*
G75*
G02*
X37799997Y-134825033I-250000J0D01*
G01*
X37299997Y-134825033D01*
G75*
G02*
X37049997Y-134575033I0J250000D01*
G01*
X37049997Y-133625033D01*
G75*
G02*
X37299997Y-133375033I250000J0D01*
G01*
X37799997Y-133375033D01*
G75*
G02*
X38049997Y-133625033I0J-250000D01*
G01*
G37*
G36*
G01*
X36269997Y-125860033D02*
X35929997Y-125860033D01*
G75*
G02*
X35789997Y-125720033I0J140000D01*
G01*
X35789997Y-125440033D01*
G75*
G02*
X35929997Y-125300033I140000J0D01*
G01*
X36269997Y-125300033D01*
G75*
G02*
X36409997Y-125440033I0J-140000D01*
G01*
X36409997Y-125720033D01*
G75*
G02*
X36269997Y-125860033I-140000J0D01*
G01*
G37*
G36*
G01*
X36269997Y-124900033D02*
X35929997Y-124900033D01*
G75*
G02*
X35789997Y-124760033I0J140000D01*
G01*
X35789997Y-124480033D01*
G75*
G02*
X35929997Y-124340033I140000J0D01*
G01*
X36269997Y-124340033D01*
G75*
G02*
X36409997Y-124480033I0J-140000D01*
G01*
X36409997Y-124760033D01*
G75*
G02*
X36269997Y-124900033I-140000J0D01*
G01*
G37*
D11*
X35099997Y-128050033D03*
X35099997Y-129350033D03*
X33099997Y-128700033D03*
G36*
G01*
X32084997Y-125880033D02*
X31714997Y-125880033D01*
G75*
G02*
X31579997Y-125745033I0J135000D01*
G01*
X31579997Y-125475033D01*
G75*
G02*
X31714997Y-125340033I135000J0D01*
G01*
X32084997Y-125340033D01*
G75*
G02*
X32219997Y-125475033I0J-135000D01*
G01*
X32219997Y-125745033D01*
G75*
G02*
X32084997Y-125880033I-135000J0D01*
G01*
G37*
G36*
G01*
X32084997Y-124860033D02*
X31714997Y-124860033D01*
G75*
G02*
X31579997Y-124725033I0J135000D01*
G01*
X31579997Y-124455033D01*
G75*
G02*
X31714997Y-124320033I135000J0D01*
G01*
X32084997Y-124320033D01*
G75*
G02*
X32219997Y-124455033I0J-135000D01*
G01*
X32219997Y-124725033D01*
G75*
G02*
X32084997Y-124860033I-135000J0D01*
G01*
G37*
G36*
G01*
X37129997Y-124340033D02*
X37469997Y-124340033D01*
G75*
G02*
X37609997Y-124480033I0J-140000D01*
G01*
X37609997Y-124760033D01*
G75*
G02*
X37469997Y-124900033I-140000J0D01*
G01*
X37129997Y-124900033D01*
G75*
G02*
X36989997Y-124760033I0J140000D01*
G01*
X36989997Y-124480033D01*
G75*
G02*
X37129997Y-124340033I140000J0D01*
G01*
G37*
G36*
G01*
X37129997Y-125300033D02*
X37469997Y-125300033D01*
G75*
G02*
X37609997Y-125440033I0J-140000D01*
G01*
X37609997Y-125720033D01*
G75*
G02*
X37469997Y-125860033I-140000J0D01*
G01*
X37129997Y-125860033D01*
G75*
G02*
X36989997Y-125720033I0J140000D01*
G01*
X36989997Y-125440033D01*
G75*
G02*
X37129997Y-125300033I140000J0D01*
G01*
G37*
G36*
G01*
X35069997Y-125860033D02*
X34729997Y-125860033D01*
G75*
G02*
X34589997Y-125720033I0J140000D01*
G01*
X34589997Y-125440033D01*
G75*
G02*
X34729997Y-125300033I140000J0D01*
G01*
X35069997Y-125300033D01*
G75*
G02*
X35209997Y-125440033I0J-140000D01*
G01*
X35209997Y-125720033D01*
G75*
G02*
X35069997Y-125860033I-140000J0D01*
G01*
G37*
G36*
G01*
X35069997Y-124900033D02*
X34729997Y-124900033D01*
G75*
G02*
X34589997Y-124760033I0J140000D01*
G01*
X34589997Y-124480033D01*
G75*
G02*
X34729997Y-124340033I140000J0D01*
G01*
X35069997Y-124340033D01*
G75*
G02*
X35209997Y-124480033I0J-140000D01*
G01*
X35209997Y-124760033D01*
G75*
G02*
X35069997Y-124900033I-140000J0D01*
G01*
G37*
D12*
X35249997Y-134200033D03*
X34299997Y-134200033D03*
X33349997Y-134200033D03*
X33349997Y-132000033D03*
X35249997Y-132000033D03*
X39449997Y-130442033D03*
X38499997Y-130442033D03*
X37549997Y-130442033D03*
X37549997Y-128242033D03*
X39449997Y-128242033D03*
G36*
G01*
X54299997Y-127805033D02*
X54299997Y-127505033D01*
G75*
G02*
X54449997Y-127355033I150000J0D01*
G01*
X56099997Y-127355033D01*
G75*
G02*
X56249997Y-127505033I0J-150000D01*
G01*
X56249997Y-127805033D01*
G75*
G02*
X56099997Y-127955033I-150000J0D01*
G01*
X54449997Y-127955033D01*
G75*
G02*
X54299997Y-127805033I0J150000D01*
G01*
G37*
G36*
G01*
X54299997Y-126535033D02*
X54299997Y-126235033D01*
G75*
G02*
X54449997Y-126085033I150000J0D01*
G01*
X56099997Y-126085033D01*
G75*
G02*
X56249997Y-126235033I0J-150000D01*
G01*
X56249997Y-126535033D01*
G75*
G02*
X56099997Y-126685033I-150000J0D01*
G01*
X54449997Y-126685033D01*
G75*
G02*
X54299997Y-126535033I0J150000D01*
G01*
G37*
G36*
G01*
X54299997Y-125265033D02*
X54299997Y-124965033D01*
G75*
G02*
X54449997Y-124815033I150000J0D01*
G01*
X56099997Y-124815033D01*
G75*
G02*
X56249997Y-124965033I0J-150000D01*
G01*
X56249997Y-125265033D01*
G75*
G02*
X56099997Y-125415033I-150000J0D01*
G01*
X54449997Y-125415033D01*
G75*
G02*
X54299997Y-125265033I0J150000D01*
G01*
G37*
G36*
G01*
X54299997Y-123995033D02*
X54299997Y-123695033D01*
G75*
G02*
X54449997Y-123545033I150000J0D01*
G01*
X56099997Y-123545033D01*
G75*
G02*
X56249997Y-123695033I0J-150000D01*
G01*
X56249997Y-123995033D01*
G75*
G02*
X56099997Y-124145033I-150000J0D01*
G01*
X54449997Y-124145033D01*
G75*
G02*
X54299997Y-123995033I0J150000D01*
G01*
G37*
G36*
G01*
X59249997Y-123995033D02*
X59249997Y-123695033D01*
G75*
G02*
X59399997Y-123545033I150000J0D01*
G01*
X61049997Y-123545033D01*
G75*
G02*
X61199997Y-123695033I0J-150000D01*
G01*
X61199997Y-123995033D01*
G75*
G02*
X61049997Y-124145033I-150000J0D01*
G01*
X59399997Y-124145033D01*
G75*
G02*
X59249997Y-123995033I0J150000D01*
G01*
G37*
G36*
G01*
X59249997Y-125265033D02*
X59249997Y-124965033D01*
G75*
G02*
X59399997Y-124815033I150000J0D01*
G01*
X61049997Y-124815033D01*
G75*
G02*
X61199997Y-124965033I0J-150000D01*
G01*
X61199997Y-125265033D01*
G75*
G02*
X61049997Y-125415033I-150000J0D01*
G01*
X59399997Y-125415033D01*
G75*
G02*
X59249997Y-125265033I0J150000D01*
G01*
G37*
G36*
G01*
X59249997Y-126535033D02*
X59249997Y-126235033D01*
G75*
G02*
X59399997Y-126085033I150000J0D01*
G01*
X61049997Y-126085033D01*
G75*
G02*
X61199997Y-126235033I0J-150000D01*
G01*
X61199997Y-126535033D01*
G75*
G02*
X61049997Y-126685033I-150000J0D01*
G01*
X59399997Y-126685033D01*
G75*
G02*
X59249997Y-126535033I0J150000D01*
G01*
G37*
G36*
G01*
X59249997Y-127805033D02*
X59249997Y-127505033D01*
G75*
G02*
X59399997Y-127355033I150000J0D01*
G01*
X61049997Y-127355033D01*
G75*
G02*
X61199997Y-127505033I0J-150000D01*
G01*
X61199997Y-127805033D01*
G75*
G02*
X61049997Y-127955033I-150000J0D01*
G01*
X59399997Y-127955033D01*
G75*
G02*
X59249997Y-127805033I0J150000D01*
G01*
G37*
D13*
X58139997Y-131300033D03*
X54439997Y-131300033D03*
G36*
G01*
X62389997Y-135970033D02*
X62389997Y-135630033D01*
G75*
G02*
X62529997Y-135490033I140000J0D01*
G01*
X62809997Y-135490033D01*
G75*
G02*
X62949997Y-135630033I0J-140000D01*
G01*
X62949997Y-135970033D01*
G75*
G02*
X62809997Y-136110033I-140000J0D01*
G01*
X62529997Y-136110033D01*
G75*
G02*
X62389997Y-135970033I0J140000D01*
G01*
G37*
G36*
G01*
X63349997Y-135970033D02*
X63349997Y-135630033D01*
G75*
G02*
X63489997Y-135490033I140000J0D01*
G01*
X63769997Y-135490033D01*
G75*
G02*
X63909997Y-135630033I0J-140000D01*
G01*
X63909997Y-135970033D01*
G75*
G02*
X63769997Y-136110033I-140000J0D01*
G01*
X63489997Y-136110033D01*
G75*
G02*
X63349997Y-135970033I0J140000D01*
G01*
G37*
G36*
G01*
X64589997Y-136020033D02*
X64589997Y-135680033D01*
G75*
G02*
X64729997Y-135540033I140000J0D01*
G01*
X65009997Y-135540033D01*
G75*
G02*
X65149997Y-135680033I0J-140000D01*
G01*
X65149997Y-136020033D01*
G75*
G02*
X65009997Y-136160033I-140000J0D01*
G01*
X64729997Y-136160033D01*
G75*
G02*
X64589997Y-136020033I0J140000D01*
G01*
G37*
G36*
G01*
X65549997Y-136020033D02*
X65549997Y-135680033D01*
G75*
G02*
X65689997Y-135540033I140000J0D01*
G01*
X65969997Y-135540033D01*
G75*
G02*
X66109997Y-135680033I0J-140000D01*
G01*
X66109997Y-136020033D01*
G75*
G02*
X65969997Y-136160033I-140000J0D01*
G01*
X65689997Y-136160033D01*
G75*
G02*
X65549997Y-136020033I0J140000D01*
G01*
G37*
G36*
G01*
X66304997Y-134950033D02*
X66004997Y-134950033D01*
G75*
G02*
X65854997Y-134800033I0J150000D01*
G01*
X65854997Y-133150033D01*
G75*
G02*
X66004997Y-133000033I150000J0D01*
G01*
X66304997Y-133000033D01*
G75*
G02*
X66454997Y-133150033I0J-150000D01*
G01*
X66454997Y-134800033D01*
G75*
G02*
X66304997Y-134950033I-150000J0D01*
G01*
G37*
G36*
G01*
X65034997Y-134950033D02*
X64734997Y-134950033D01*
G75*
G02*
X64584997Y-134800033I0J150000D01*
G01*
X64584997Y-133150033D01*
G75*
G02*
X64734997Y-133000033I150000J0D01*
G01*
X65034997Y-133000033D01*
G75*
G02*
X65184997Y-133150033I0J-150000D01*
G01*
X65184997Y-134800033D01*
G75*
G02*
X65034997Y-134950033I-150000J0D01*
G01*
G37*
G36*
G01*
X63764997Y-134950033D02*
X63464997Y-134950033D01*
G75*
G02*
X63314997Y-134800033I0J150000D01*
G01*
X63314997Y-133150033D01*
G75*
G02*
X63464997Y-133000033I150000J0D01*
G01*
X63764997Y-133000033D01*
G75*
G02*
X63914997Y-133150033I0J-150000D01*
G01*
X63914997Y-134800033D01*
G75*
G02*
X63764997Y-134950033I-150000J0D01*
G01*
G37*
G36*
G01*
X62494997Y-134950033D02*
X62194997Y-134950033D01*
G75*
G02*
X62044997Y-134800033I0J150000D01*
G01*
X62044997Y-133150033D01*
G75*
G02*
X62194997Y-133000033I150000J0D01*
G01*
X62494997Y-133000033D01*
G75*
G02*
X62644997Y-133150033I0J-150000D01*
G01*
X62644997Y-134800033D01*
G75*
G02*
X62494997Y-134950033I-150000J0D01*
G01*
G37*
G36*
G01*
X62494997Y-130000033D02*
X62194997Y-130000033D01*
G75*
G02*
X62044997Y-129850033I0J150000D01*
G01*
X62044997Y-128200033D01*
G75*
G02*
X62194997Y-128050033I150000J0D01*
G01*
X62494997Y-128050033D01*
G75*
G02*
X62644997Y-128200033I0J-150000D01*
G01*
X62644997Y-129850033D01*
G75*
G02*
X62494997Y-130000033I-150000J0D01*
G01*
G37*
G36*
G01*
X63764997Y-130000033D02*
X63464997Y-130000033D01*
G75*
G02*
X63314997Y-129850033I0J150000D01*
G01*
X63314997Y-128200033D01*
G75*
G02*
X63464997Y-128050033I150000J0D01*
G01*
X63764997Y-128050033D01*
G75*
G02*
X63914997Y-128200033I0J-150000D01*
G01*
X63914997Y-129850033D01*
G75*
G02*
X63764997Y-130000033I-150000J0D01*
G01*
G37*
G36*
G01*
X65034997Y-130000033D02*
X64734997Y-130000033D01*
G75*
G02*
X64584997Y-129850033I0J150000D01*
G01*
X64584997Y-128200033D01*
G75*
G02*
X64734997Y-128050033I150000J0D01*
G01*
X65034997Y-128050033D01*
G75*
G02*
X65184997Y-128200033I0J-150000D01*
G01*
X65184997Y-129850033D01*
G75*
G02*
X65034997Y-130000033I-150000J0D01*
G01*
G37*
G36*
G01*
X66304997Y-130000033D02*
X66004997Y-130000033D01*
G75*
G02*
X65854997Y-129850033I0J150000D01*
G01*
X65854997Y-128200033D01*
G75*
G02*
X66004997Y-128050033I150000J0D01*
G01*
X66304997Y-128050033D01*
G75*
G02*
X66454997Y-128200033I0J-150000D01*
G01*
X66454997Y-129850033D01*
G75*
G02*
X66304997Y-130000033I-150000J0D01*
G01*
G37*
D10*
X100250006Y-107800024D03*
X100250006Y-108450024D03*
X100250006Y-109100024D03*
X100250006Y-109750024D03*
X100250006Y-110400024D03*
X100250006Y-111050024D03*
X100250006Y-111700024D03*
X94350006Y-111700024D03*
X94350006Y-111050024D03*
X94350006Y-110400024D03*
X94350006Y-109750024D03*
X94350006Y-109100024D03*
X94350006Y-108450024D03*
X94350006Y-107800024D03*
G36*
G01*
X110177506Y-110448024D02*
X110522506Y-110448024D01*
G75*
G02*
X110670006Y-110595524I0J-147500D01*
G01*
X110670006Y-110890524D01*
G75*
G02*
X110522506Y-111038024I-147500J0D01*
G01*
X110177506Y-111038024D01*
G75*
G02*
X110030006Y-110890524I0J147500D01*
G01*
X110030006Y-110595524D01*
G75*
G02*
X110177506Y-110448024I147500J0D01*
G01*
G37*
G36*
G01*
X110177506Y-111418024D02*
X110522506Y-111418024D01*
G75*
G02*
X110670006Y-111565524I0J-147500D01*
G01*
X110670006Y-111860524D01*
G75*
G02*
X110522506Y-112008024I-147500J0D01*
G01*
X110177506Y-112008024D01*
G75*
G02*
X110030006Y-111860524I0J147500D01*
G01*
X110030006Y-111565524D01*
G75*
G02*
X110177506Y-111418024I147500J0D01*
G01*
G37*
G36*
G01*
X102398506Y-112008024D02*
X102053506Y-112008024D01*
G75*
G02*
X101906006Y-111860524I0J147500D01*
G01*
X101906006Y-111565524D01*
G75*
G02*
X102053506Y-111418024I147500J0D01*
G01*
X102398506Y-111418024D01*
G75*
G02*
X102546006Y-111565524I0J-147500D01*
G01*
X102546006Y-111860524D01*
G75*
G02*
X102398506Y-112008024I-147500J0D01*
G01*
G37*
G36*
G01*
X102398506Y-111038024D02*
X102053506Y-111038024D01*
G75*
G02*
X101906006Y-110890524I0J147500D01*
G01*
X101906006Y-110595524D01*
G75*
G02*
X102053506Y-110448024I147500J0D01*
G01*
X102398506Y-110448024D01*
G75*
G02*
X102546006Y-110595524I0J-147500D01*
G01*
X102546006Y-110890524D01*
G75*
G02*
X102398506Y-111038024I-147500J0D01*
G01*
G37*
G36*
G01*
X90672506Y-105795024D02*
X90327506Y-105795024D01*
G75*
G02*
X90180006Y-105647524I0J147500D01*
G01*
X90180006Y-105352524D01*
G75*
G02*
X90327506Y-105205024I147500J0D01*
G01*
X90672506Y-105205024D01*
G75*
G02*
X90820006Y-105352524I0J-147500D01*
G01*
X90820006Y-105647524D01*
G75*
G02*
X90672506Y-105795024I-147500J0D01*
G01*
G37*
G36*
G01*
X90672506Y-104825024D02*
X90327506Y-104825024D01*
G75*
G02*
X90180006Y-104677524I0J147500D01*
G01*
X90180006Y-104382524D01*
G75*
G02*
X90327506Y-104235024I147500J0D01*
G01*
X90672506Y-104235024D01*
G75*
G02*
X90820006Y-104382524I0J-147500D01*
G01*
X90820006Y-104677524D01*
G75*
G02*
X90672506Y-104825024I-147500J0D01*
G01*
G37*
G36*
G01*
X89950006Y-113625024D02*
X89950006Y-114575024D01*
G75*
G02*
X89700006Y-114825024I-250000J0D01*
G01*
X89200006Y-114825024D01*
G75*
G02*
X88950006Y-114575024I0J250000D01*
G01*
X88950006Y-113625024D01*
G75*
G02*
X89200006Y-113375024I250000J0D01*
G01*
X89700006Y-113375024D01*
G75*
G02*
X89950006Y-113625024I0J-250000D01*
G01*
G37*
G36*
G01*
X88050006Y-113625024D02*
X88050006Y-114575024D01*
G75*
G02*
X87800006Y-114825024I-250000J0D01*
G01*
X87300006Y-114825024D01*
G75*
G02*
X87050006Y-114575024I0J250000D01*
G01*
X87050006Y-113625024D01*
G75*
G02*
X87300006Y-113375024I250000J0D01*
G01*
X87800006Y-113375024D01*
G75*
G02*
X88050006Y-113625024I0J-250000D01*
G01*
G37*
G36*
G01*
X86270006Y-105860024D02*
X85930006Y-105860024D01*
G75*
G02*
X85790006Y-105720024I0J140000D01*
G01*
X85790006Y-105440024D01*
G75*
G02*
X85930006Y-105300024I140000J0D01*
G01*
X86270006Y-105300024D01*
G75*
G02*
X86410006Y-105440024I0J-140000D01*
G01*
X86410006Y-105720024D01*
G75*
G02*
X86270006Y-105860024I-140000J0D01*
G01*
G37*
G36*
G01*
X86270006Y-104900024D02*
X85930006Y-104900024D01*
G75*
G02*
X85790006Y-104760024I0J140000D01*
G01*
X85790006Y-104480024D01*
G75*
G02*
X85930006Y-104340024I140000J0D01*
G01*
X86270006Y-104340024D01*
G75*
G02*
X86410006Y-104480024I0J-140000D01*
G01*
X86410006Y-104760024D01*
G75*
G02*
X86270006Y-104900024I-140000J0D01*
G01*
G37*
D11*
X85100006Y-108050024D03*
X85100006Y-109350024D03*
X83100006Y-108700024D03*
G36*
G01*
X82085006Y-105880024D02*
X81715006Y-105880024D01*
G75*
G02*
X81580006Y-105745024I0J135000D01*
G01*
X81580006Y-105475024D01*
G75*
G02*
X81715006Y-105340024I135000J0D01*
G01*
X82085006Y-105340024D01*
G75*
G02*
X82220006Y-105475024I0J-135000D01*
G01*
X82220006Y-105745024D01*
G75*
G02*
X82085006Y-105880024I-135000J0D01*
G01*
G37*
G36*
G01*
X82085006Y-104860024D02*
X81715006Y-104860024D01*
G75*
G02*
X81580006Y-104725024I0J135000D01*
G01*
X81580006Y-104455024D01*
G75*
G02*
X81715006Y-104320024I135000J0D01*
G01*
X82085006Y-104320024D01*
G75*
G02*
X82220006Y-104455024I0J-135000D01*
G01*
X82220006Y-104725024D01*
G75*
G02*
X82085006Y-104860024I-135000J0D01*
G01*
G37*
G36*
G01*
X87130006Y-104340024D02*
X87470006Y-104340024D01*
G75*
G02*
X87610006Y-104480024I0J-140000D01*
G01*
X87610006Y-104760024D01*
G75*
G02*
X87470006Y-104900024I-140000J0D01*
G01*
X87130006Y-104900024D01*
G75*
G02*
X86990006Y-104760024I0J140000D01*
G01*
X86990006Y-104480024D01*
G75*
G02*
X87130006Y-104340024I140000J0D01*
G01*
G37*
G36*
G01*
X87130006Y-105300024D02*
X87470006Y-105300024D01*
G75*
G02*
X87610006Y-105440024I0J-140000D01*
G01*
X87610006Y-105720024D01*
G75*
G02*
X87470006Y-105860024I-140000J0D01*
G01*
X87130006Y-105860024D01*
G75*
G02*
X86990006Y-105720024I0J140000D01*
G01*
X86990006Y-105440024D01*
G75*
G02*
X87130006Y-105300024I140000J0D01*
G01*
G37*
G36*
G01*
X85070006Y-105860024D02*
X84730006Y-105860024D01*
G75*
G02*
X84590006Y-105720024I0J140000D01*
G01*
X84590006Y-105440024D01*
G75*
G02*
X84730006Y-105300024I140000J0D01*
G01*
X85070006Y-105300024D01*
G75*
G02*
X85210006Y-105440024I0J-140000D01*
G01*
X85210006Y-105720024D01*
G75*
G02*
X85070006Y-105860024I-140000J0D01*
G01*
G37*
G36*
G01*
X85070006Y-104900024D02*
X84730006Y-104900024D01*
G75*
G02*
X84590006Y-104760024I0J140000D01*
G01*
X84590006Y-104480024D01*
G75*
G02*
X84730006Y-104340024I140000J0D01*
G01*
X85070006Y-104340024D01*
G75*
G02*
X85210006Y-104480024I0J-140000D01*
G01*
X85210006Y-104760024D01*
G75*
G02*
X85070006Y-104900024I-140000J0D01*
G01*
G37*
D12*
X85250006Y-114200024D03*
X84300006Y-114200024D03*
X83350006Y-114200024D03*
X83350006Y-112000024D03*
X85250006Y-112000024D03*
X89450006Y-110442024D03*
X88500006Y-110442024D03*
X87550006Y-110442024D03*
X87550006Y-108242024D03*
X89450006Y-108242024D03*
G36*
G01*
X104300006Y-107805024D02*
X104300006Y-107505024D01*
G75*
G02*
X104450006Y-107355024I150000J0D01*
G01*
X106100006Y-107355024D01*
G75*
G02*
X106250006Y-107505024I0J-150000D01*
G01*
X106250006Y-107805024D01*
G75*
G02*
X106100006Y-107955024I-150000J0D01*
G01*
X104450006Y-107955024D01*
G75*
G02*
X104300006Y-107805024I0J150000D01*
G01*
G37*
G36*
G01*
X104300006Y-106535024D02*
X104300006Y-106235024D01*
G75*
G02*
X104450006Y-106085024I150000J0D01*
G01*
X106100006Y-106085024D01*
G75*
G02*
X106250006Y-106235024I0J-150000D01*
G01*
X106250006Y-106535024D01*
G75*
G02*
X106100006Y-106685024I-150000J0D01*
G01*
X104450006Y-106685024D01*
G75*
G02*
X104300006Y-106535024I0J150000D01*
G01*
G37*
G36*
G01*
X104300006Y-105265024D02*
X104300006Y-104965024D01*
G75*
G02*
X104450006Y-104815024I150000J0D01*
G01*
X106100006Y-104815024D01*
G75*
G02*
X106250006Y-104965024I0J-150000D01*
G01*
X106250006Y-105265024D01*
G75*
G02*
X106100006Y-105415024I-150000J0D01*
G01*
X104450006Y-105415024D01*
G75*
G02*
X104300006Y-105265024I0J150000D01*
G01*
G37*
G36*
G01*
X104300006Y-103995024D02*
X104300006Y-103695024D01*
G75*
G02*
X104450006Y-103545024I150000J0D01*
G01*
X106100006Y-103545024D01*
G75*
G02*
X106250006Y-103695024I0J-150000D01*
G01*
X106250006Y-103995024D01*
G75*
G02*
X106100006Y-104145024I-150000J0D01*
G01*
X104450006Y-104145024D01*
G75*
G02*
X104300006Y-103995024I0J150000D01*
G01*
G37*
G36*
G01*
X109250006Y-103995024D02*
X109250006Y-103695024D01*
G75*
G02*
X109400006Y-103545024I150000J0D01*
G01*
X111050006Y-103545024D01*
G75*
G02*
X111200006Y-103695024I0J-150000D01*
G01*
X111200006Y-103995024D01*
G75*
G02*
X111050006Y-104145024I-150000J0D01*
G01*
X109400006Y-104145024D01*
G75*
G02*
X109250006Y-103995024I0J150000D01*
G01*
G37*
G36*
G01*
X109250006Y-105265024D02*
X109250006Y-104965024D01*
G75*
G02*
X109400006Y-104815024I150000J0D01*
G01*
X111050006Y-104815024D01*
G75*
G02*
X111200006Y-104965024I0J-150000D01*
G01*
X111200006Y-105265024D01*
G75*
G02*
X111050006Y-105415024I-150000J0D01*
G01*
X109400006Y-105415024D01*
G75*
G02*
X109250006Y-105265024I0J150000D01*
G01*
G37*
G36*
G01*
X109250006Y-106535024D02*
X109250006Y-106235024D01*
G75*
G02*
X109400006Y-106085024I150000J0D01*
G01*
X111050006Y-106085024D01*
G75*
G02*
X111200006Y-106235024I0J-150000D01*
G01*
X111200006Y-106535024D01*
G75*
G02*
X111050006Y-106685024I-150000J0D01*
G01*
X109400006Y-106685024D01*
G75*
G02*
X109250006Y-106535024I0J150000D01*
G01*
G37*
G36*
G01*
X109250006Y-107805024D02*
X109250006Y-107505024D01*
G75*
G02*
X109400006Y-107355024I150000J0D01*
G01*
X111050006Y-107355024D01*
G75*
G02*
X111200006Y-107505024I0J-150000D01*
G01*
X111200006Y-107805024D01*
G75*
G02*
X111050006Y-107955024I-150000J0D01*
G01*
X109400006Y-107955024D01*
G75*
G02*
X109250006Y-107805024I0J150000D01*
G01*
G37*
D13*
X108140006Y-111300024D03*
X104440006Y-111300024D03*
G36*
G01*
X112390006Y-115970024D02*
X112390006Y-115630024D01*
G75*
G02*
X112530006Y-115490024I140000J0D01*
G01*
X112810006Y-115490024D01*
G75*
G02*
X112950006Y-115630024I0J-140000D01*
G01*
X112950006Y-115970024D01*
G75*
G02*
X112810006Y-116110024I-140000J0D01*
G01*
X112530006Y-116110024D01*
G75*
G02*
X112390006Y-115970024I0J140000D01*
G01*
G37*
G36*
G01*
X113350006Y-115970024D02*
X113350006Y-115630024D01*
G75*
G02*
X113490006Y-115490024I140000J0D01*
G01*
X113770006Y-115490024D01*
G75*
G02*
X113910006Y-115630024I0J-140000D01*
G01*
X113910006Y-115970024D01*
G75*
G02*
X113770006Y-116110024I-140000J0D01*
G01*
X113490006Y-116110024D01*
G75*
G02*
X113350006Y-115970024I0J140000D01*
G01*
G37*
G36*
G01*
X114590006Y-116020024D02*
X114590006Y-115680024D01*
G75*
G02*
X114730006Y-115540024I140000J0D01*
G01*
X115010006Y-115540024D01*
G75*
G02*
X115150006Y-115680024I0J-140000D01*
G01*
X115150006Y-116020024D01*
G75*
G02*
X115010006Y-116160024I-140000J0D01*
G01*
X114730006Y-116160024D01*
G75*
G02*
X114590006Y-116020024I0J140000D01*
G01*
G37*
G36*
G01*
X115550006Y-116020024D02*
X115550006Y-115680024D01*
G75*
G02*
X115690006Y-115540024I140000J0D01*
G01*
X115970006Y-115540024D01*
G75*
G02*
X116110006Y-115680024I0J-140000D01*
G01*
X116110006Y-116020024D01*
G75*
G02*
X115970006Y-116160024I-140000J0D01*
G01*
X115690006Y-116160024D01*
G75*
G02*
X115550006Y-116020024I0J140000D01*
G01*
G37*
G36*
G01*
X116305006Y-114950024D02*
X116005006Y-114950024D01*
G75*
G02*
X115855006Y-114800024I0J150000D01*
G01*
X115855006Y-113150024D01*
G75*
G02*
X116005006Y-113000024I150000J0D01*
G01*
X116305006Y-113000024D01*
G75*
G02*
X116455006Y-113150024I0J-150000D01*
G01*
X116455006Y-114800024D01*
G75*
G02*
X116305006Y-114950024I-150000J0D01*
G01*
G37*
G36*
G01*
X115035006Y-114950024D02*
X114735006Y-114950024D01*
G75*
G02*
X114585006Y-114800024I0J150000D01*
G01*
X114585006Y-113150024D01*
G75*
G02*
X114735006Y-113000024I150000J0D01*
G01*
X115035006Y-113000024D01*
G75*
G02*
X115185006Y-113150024I0J-150000D01*
G01*
X115185006Y-114800024D01*
G75*
G02*
X115035006Y-114950024I-150000J0D01*
G01*
G37*
G36*
G01*
X113765006Y-114950024D02*
X113465006Y-114950024D01*
G75*
G02*
X113315006Y-114800024I0J150000D01*
G01*
X113315006Y-113150024D01*
G75*
G02*
X113465006Y-113000024I150000J0D01*
G01*
X113765006Y-113000024D01*
G75*
G02*
X113915006Y-113150024I0J-150000D01*
G01*
X113915006Y-114800024D01*
G75*
G02*
X113765006Y-114950024I-150000J0D01*
G01*
G37*
G36*
G01*
X112495006Y-114950024D02*
X112195006Y-114950024D01*
G75*
G02*
X112045006Y-114800024I0J150000D01*
G01*
X112045006Y-113150024D01*
G75*
G02*
X112195006Y-113000024I150000J0D01*
G01*
X112495006Y-113000024D01*
G75*
G02*
X112645006Y-113150024I0J-150000D01*
G01*
X112645006Y-114800024D01*
G75*
G02*
X112495006Y-114950024I-150000J0D01*
G01*
G37*
G36*
G01*
X112495006Y-110000024D02*
X112195006Y-110000024D01*
G75*
G02*
X112045006Y-109850024I0J150000D01*
G01*
X112045006Y-108200024D01*
G75*
G02*
X112195006Y-108050024I150000J0D01*
G01*
X112495006Y-108050024D01*
G75*
G02*
X112645006Y-108200024I0J-150000D01*
G01*
X112645006Y-109850024D01*
G75*
G02*
X112495006Y-110000024I-150000J0D01*
G01*
G37*
G36*
G01*
X113765006Y-110000024D02*
X113465006Y-110000024D01*
G75*
G02*
X113315006Y-109850024I0J150000D01*
G01*
X113315006Y-108200024D01*
G75*
G02*
X113465006Y-108050024I150000J0D01*
G01*
X113765006Y-108050024D01*
G75*
G02*
X113915006Y-108200024I0J-150000D01*
G01*
X113915006Y-109850024D01*
G75*
G02*
X113765006Y-110000024I-150000J0D01*
G01*
G37*
G36*
G01*
X115035006Y-110000024D02*
X114735006Y-110000024D01*
G75*
G02*
X114585006Y-109850024I0J150000D01*
G01*
X114585006Y-108200024D01*
G75*
G02*
X114735006Y-108050024I150000J0D01*
G01*
X115035006Y-108050024D01*
G75*
G02*
X115185006Y-108200024I0J-150000D01*
G01*
X115185006Y-109850024D01*
G75*
G02*
X115035006Y-110000024I-150000J0D01*
G01*
G37*
G36*
G01*
X116305006Y-110000024D02*
X116005006Y-110000024D01*
G75*
G02*
X115855006Y-109850024I0J150000D01*
G01*
X115855006Y-108200024D01*
G75*
G02*
X116005006Y-108050024I150000J0D01*
G01*
X116305006Y-108050024D01*
G75*
G02*
X116455006Y-108200024I0J-150000D01*
G01*
X116455006Y-109850024D01*
G75*
G02*
X116305006Y-110000024I-150000J0D01*
G01*
G37*
D10*
X50249997Y-107800024D03*
X50249997Y-108450024D03*
X50249997Y-109100024D03*
X50249997Y-109750024D03*
X50249997Y-110400024D03*
X50249997Y-111050024D03*
X50249997Y-111700024D03*
X44349997Y-111700024D03*
X44349997Y-111050024D03*
X44349997Y-110400024D03*
X44349997Y-109750024D03*
X44349997Y-109100024D03*
X44349997Y-108450024D03*
X44349997Y-107800024D03*
G36*
G01*
X60177497Y-110448024D02*
X60522497Y-110448024D01*
G75*
G02*
X60669997Y-110595524I0J-147500D01*
G01*
X60669997Y-110890524D01*
G75*
G02*
X60522497Y-111038024I-147500J0D01*
G01*
X60177497Y-111038024D01*
G75*
G02*
X60029997Y-110890524I0J147500D01*
G01*
X60029997Y-110595524D01*
G75*
G02*
X60177497Y-110448024I147500J0D01*
G01*
G37*
G36*
G01*
X60177497Y-111418024D02*
X60522497Y-111418024D01*
G75*
G02*
X60669997Y-111565524I0J-147500D01*
G01*
X60669997Y-111860524D01*
G75*
G02*
X60522497Y-112008024I-147500J0D01*
G01*
X60177497Y-112008024D01*
G75*
G02*
X60029997Y-111860524I0J147500D01*
G01*
X60029997Y-111565524D01*
G75*
G02*
X60177497Y-111418024I147500J0D01*
G01*
G37*
G36*
G01*
X52398497Y-112008024D02*
X52053497Y-112008024D01*
G75*
G02*
X51905997Y-111860524I0J147500D01*
G01*
X51905997Y-111565524D01*
G75*
G02*
X52053497Y-111418024I147500J0D01*
G01*
X52398497Y-111418024D01*
G75*
G02*
X52545997Y-111565524I0J-147500D01*
G01*
X52545997Y-111860524D01*
G75*
G02*
X52398497Y-112008024I-147500J0D01*
G01*
G37*
G36*
G01*
X52398497Y-111038024D02*
X52053497Y-111038024D01*
G75*
G02*
X51905997Y-110890524I0J147500D01*
G01*
X51905997Y-110595524D01*
G75*
G02*
X52053497Y-110448024I147500J0D01*
G01*
X52398497Y-110448024D01*
G75*
G02*
X52545997Y-110595524I0J-147500D01*
G01*
X52545997Y-110890524D01*
G75*
G02*
X52398497Y-111038024I-147500J0D01*
G01*
G37*
G36*
G01*
X40672497Y-105795024D02*
X40327497Y-105795024D01*
G75*
G02*
X40179997Y-105647524I0J147500D01*
G01*
X40179997Y-105352524D01*
G75*
G02*
X40327497Y-105205024I147500J0D01*
G01*
X40672497Y-105205024D01*
G75*
G02*
X40819997Y-105352524I0J-147500D01*
G01*
X40819997Y-105647524D01*
G75*
G02*
X40672497Y-105795024I-147500J0D01*
G01*
G37*
G36*
G01*
X40672497Y-104825024D02*
X40327497Y-104825024D01*
G75*
G02*
X40179997Y-104677524I0J147500D01*
G01*
X40179997Y-104382524D01*
G75*
G02*
X40327497Y-104235024I147500J0D01*
G01*
X40672497Y-104235024D01*
G75*
G02*
X40819997Y-104382524I0J-147500D01*
G01*
X40819997Y-104677524D01*
G75*
G02*
X40672497Y-104825024I-147500J0D01*
G01*
G37*
G36*
G01*
X39949997Y-113625024D02*
X39949997Y-114575024D01*
G75*
G02*
X39699997Y-114825024I-250000J0D01*
G01*
X39199997Y-114825024D01*
G75*
G02*
X38949997Y-114575024I0J250000D01*
G01*
X38949997Y-113625024D01*
G75*
G02*
X39199997Y-113375024I250000J0D01*
G01*
X39699997Y-113375024D01*
G75*
G02*
X39949997Y-113625024I0J-250000D01*
G01*
G37*
G36*
G01*
X38049997Y-113625024D02*
X38049997Y-114575024D01*
G75*
G02*
X37799997Y-114825024I-250000J0D01*
G01*
X37299997Y-114825024D01*
G75*
G02*
X37049997Y-114575024I0J250000D01*
G01*
X37049997Y-113625024D01*
G75*
G02*
X37299997Y-113375024I250000J0D01*
G01*
X37799997Y-113375024D01*
G75*
G02*
X38049997Y-113625024I0J-250000D01*
G01*
G37*
G36*
G01*
X36269997Y-105860024D02*
X35929997Y-105860024D01*
G75*
G02*
X35789997Y-105720024I0J140000D01*
G01*
X35789997Y-105440024D01*
G75*
G02*
X35929997Y-105300024I140000J0D01*
G01*
X36269997Y-105300024D01*
G75*
G02*
X36409997Y-105440024I0J-140000D01*
G01*
X36409997Y-105720024D01*
G75*
G02*
X36269997Y-105860024I-140000J0D01*
G01*
G37*
G36*
G01*
X36269997Y-104900024D02*
X35929997Y-104900024D01*
G75*
G02*
X35789997Y-104760024I0J140000D01*
G01*
X35789997Y-104480024D01*
G75*
G02*
X35929997Y-104340024I140000J0D01*
G01*
X36269997Y-104340024D01*
G75*
G02*
X36409997Y-104480024I0J-140000D01*
G01*
X36409997Y-104760024D01*
G75*
G02*
X36269997Y-104900024I-140000J0D01*
G01*
G37*
D11*
X35099997Y-108050024D03*
X35099997Y-109350024D03*
X33099997Y-108700024D03*
G36*
G01*
X32084997Y-105880024D02*
X31714997Y-105880024D01*
G75*
G02*
X31579997Y-105745024I0J135000D01*
G01*
X31579997Y-105475024D01*
G75*
G02*
X31714997Y-105340024I135000J0D01*
G01*
X32084997Y-105340024D01*
G75*
G02*
X32219997Y-105475024I0J-135000D01*
G01*
X32219997Y-105745024D01*
G75*
G02*
X32084997Y-105880024I-135000J0D01*
G01*
G37*
G36*
G01*
X32084997Y-104860024D02*
X31714997Y-104860024D01*
G75*
G02*
X31579997Y-104725024I0J135000D01*
G01*
X31579997Y-104455024D01*
G75*
G02*
X31714997Y-104320024I135000J0D01*
G01*
X32084997Y-104320024D01*
G75*
G02*
X32219997Y-104455024I0J-135000D01*
G01*
X32219997Y-104725024D01*
G75*
G02*
X32084997Y-104860024I-135000J0D01*
G01*
G37*
G36*
G01*
X37129997Y-104340024D02*
X37469997Y-104340024D01*
G75*
G02*
X37609997Y-104480024I0J-140000D01*
G01*
X37609997Y-104760024D01*
G75*
G02*
X37469997Y-104900024I-140000J0D01*
G01*
X37129997Y-104900024D01*
G75*
G02*
X36989997Y-104760024I0J140000D01*
G01*
X36989997Y-104480024D01*
G75*
G02*
X37129997Y-104340024I140000J0D01*
G01*
G37*
G36*
G01*
X37129997Y-105300024D02*
X37469997Y-105300024D01*
G75*
G02*
X37609997Y-105440024I0J-140000D01*
G01*
X37609997Y-105720024D01*
G75*
G02*
X37469997Y-105860024I-140000J0D01*
G01*
X37129997Y-105860024D01*
G75*
G02*
X36989997Y-105720024I0J140000D01*
G01*
X36989997Y-105440024D01*
G75*
G02*
X37129997Y-105300024I140000J0D01*
G01*
G37*
G36*
G01*
X35069997Y-105860024D02*
X34729997Y-105860024D01*
G75*
G02*
X34589997Y-105720024I0J140000D01*
G01*
X34589997Y-105440024D01*
G75*
G02*
X34729997Y-105300024I140000J0D01*
G01*
X35069997Y-105300024D01*
G75*
G02*
X35209997Y-105440024I0J-140000D01*
G01*
X35209997Y-105720024D01*
G75*
G02*
X35069997Y-105860024I-140000J0D01*
G01*
G37*
G36*
G01*
X35069997Y-104900024D02*
X34729997Y-104900024D01*
G75*
G02*
X34589997Y-104760024I0J140000D01*
G01*
X34589997Y-104480024D01*
G75*
G02*
X34729997Y-104340024I140000J0D01*
G01*
X35069997Y-104340024D01*
G75*
G02*
X35209997Y-104480024I0J-140000D01*
G01*
X35209997Y-104760024D01*
G75*
G02*
X35069997Y-104900024I-140000J0D01*
G01*
G37*
D12*
X35249997Y-114200024D03*
X34299997Y-114200024D03*
X33349997Y-114200024D03*
X33349997Y-112000024D03*
X35249997Y-112000024D03*
X39449997Y-110442024D03*
X38499997Y-110442024D03*
X37549997Y-110442024D03*
X37549997Y-108242024D03*
X39449997Y-108242024D03*
G36*
G01*
X54299997Y-107805024D02*
X54299997Y-107505024D01*
G75*
G02*
X54449997Y-107355024I150000J0D01*
G01*
X56099997Y-107355024D01*
G75*
G02*
X56249997Y-107505024I0J-150000D01*
G01*
X56249997Y-107805024D01*
G75*
G02*
X56099997Y-107955024I-150000J0D01*
G01*
X54449997Y-107955024D01*
G75*
G02*
X54299997Y-107805024I0J150000D01*
G01*
G37*
G36*
G01*
X54299997Y-106535024D02*
X54299997Y-106235024D01*
G75*
G02*
X54449997Y-106085024I150000J0D01*
G01*
X56099997Y-106085024D01*
G75*
G02*
X56249997Y-106235024I0J-150000D01*
G01*
X56249997Y-106535024D01*
G75*
G02*
X56099997Y-106685024I-150000J0D01*
G01*
X54449997Y-106685024D01*
G75*
G02*
X54299997Y-106535024I0J150000D01*
G01*
G37*
G36*
G01*
X54299997Y-105265024D02*
X54299997Y-104965024D01*
G75*
G02*
X54449997Y-104815024I150000J0D01*
G01*
X56099997Y-104815024D01*
G75*
G02*
X56249997Y-104965024I0J-150000D01*
G01*
X56249997Y-105265024D01*
G75*
G02*
X56099997Y-105415024I-150000J0D01*
G01*
X54449997Y-105415024D01*
G75*
G02*
X54299997Y-105265024I0J150000D01*
G01*
G37*
G36*
G01*
X54299997Y-103995024D02*
X54299997Y-103695024D01*
G75*
G02*
X54449997Y-103545024I150000J0D01*
G01*
X56099997Y-103545024D01*
G75*
G02*
X56249997Y-103695024I0J-150000D01*
G01*
X56249997Y-103995024D01*
G75*
G02*
X56099997Y-104145024I-150000J0D01*
G01*
X54449997Y-104145024D01*
G75*
G02*
X54299997Y-103995024I0J150000D01*
G01*
G37*
G36*
G01*
X59249997Y-103995024D02*
X59249997Y-103695024D01*
G75*
G02*
X59399997Y-103545024I150000J0D01*
G01*
X61049997Y-103545024D01*
G75*
G02*
X61199997Y-103695024I0J-150000D01*
G01*
X61199997Y-103995024D01*
G75*
G02*
X61049997Y-104145024I-150000J0D01*
G01*
X59399997Y-104145024D01*
G75*
G02*
X59249997Y-103995024I0J150000D01*
G01*
G37*
G36*
G01*
X59249997Y-105265024D02*
X59249997Y-104965024D01*
G75*
G02*
X59399997Y-104815024I150000J0D01*
G01*
X61049997Y-104815024D01*
G75*
G02*
X61199997Y-104965024I0J-150000D01*
G01*
X61199997Y-105265024D01*
G75*
G02*
X61049997Y-105415024I-150000J0D01*
G01*
X59399997Y-105415024D01*
G75*
G02*
X59249997Y-105265024I0J150000D01*
G01*
G37*
G36*
G01*
X59249997Y-106535024D02*
X59249997Y-106235024D01*
G75*
G02*
X59399997Y-106085024I150000J0D01*
G01*
X61049997Y-106085024D01*
G75*
G02*
X61199997Y-106235024I0J-150000D01*
G01*
X61199997Y-106535024D01*
G75*
G02*
X61049997Y-106685024I-150000J0D01*
G01*
X59399997Y-106685024D01*
G75*
G02*
X59249997Y-106535024I0J150000D01*
G01*
G37*
G36*
G01*
X59249997Y-107805024D02*
X59249997Y-107505024D01*
G75*
G02*
X59399997Y-107355024I150000J0D01*
G01*
X61049997Y-107355024D01*
G75*
G02*
X61199997Y-107505024I0J-150000D01*
G01*
X61199997Y-107805024D01*
G75*
G02*
X61049997Y-107955024I-150000J0D01*
G01*
X59399997Y-107955024D01*
G75*
G02*
X59249997Y-107805024I0J150000D01*
G01*
G37*
D13*
X58139997Y-111300024D03*
X54439997Y-111300024D03*
G36*
G01*
X62389997Y-115970024D02*
X62389997Y-115630024D01*
G75*
G02*
X62529997Y-115490024I140000J0D01*
G01*
X62809997Y-115490024D01*
G75*
G02*
X62949997Y-115630024I0J-140000D01*
G01*
X62949997Y-115970024D01*
G75*
G02*
X62809997Y-116110024I-140000J0D01*
G01*
X62529997Y-116110024D01*
G75*
G02*
X62389997Y-115970024I0J140000D01*
G01*
G37*
G36*
G01*
X63349997Y-115970024D02*
X63349997Y-115630024D01*
G75*
G02*
X63489997Y-115490024I140000J0D01*
G01*
X63769997Y-115490024D01*
G75*
G02*
X63909997Y-115630024I0J-140000D01*
G01*
X63909997Y-115970024D01*
G75*
G02*
X63769997Y-116110024I-140000J0D01*
G01*
X63489997Y-116110024D01*
G75*
G02*
X63349997Y-115970024I0J140000D01*
G01*
G37*
G36*
G01*
X64589997Y-116020024D02*
X64589997Y-115680024D01*
G75*
G02*
X64729997Y-115540024I140000J0D01*
G01*
X65009997Y-115540024D01*
G75*
G02*
X65149997Y-115680024I0J-140000D01*
G01*
X65149997Y-116020024D01*
G75*
G02*
X65009997Y-116160024I-140000J0D01*
G01*
X64729997Y-116160024D01*
G75*
G02*
X64589997Y-116020024I0J140000D01*
G01*
G37*
G36*
G01*
X65549997Y-116020024D02*
X65549997Y-115680024D01*
G75*
G02*
X65689997Y-115540024I140000J0D01*
G01*
X65969997Y-115540024D01*
G75*
G02*
X66109997Y-115680024I0J-140000D01*
G01*
X66109997Y-116020024D01*
G75*
G02*
X65969997Y-116160024I-140000J0D01*
G01*
X65689997Y-116160024D01*
G75*
G02*
X65549997Y-116020024I0J140000D01*
G01*
G37*
G36*
G01*
X66304997Y-114950024D02*
X66004997Y-114950024D01*
G75*
G02*
X65854997Y-114800024I0J150000D01*
G01*
X65854997Y-113150024D01*
G75*
G02*
X66004997Y-113000024I150000J0D01*
G01*
X66304997Y-113000024D01*
G75*
G02*
X66454997Y-113150024I0J-150000D01*
G01*
X66454997Y-114800024D01*
G75*
G02*
X66304997Y-114950024I-150000J0D01*
G01*
G37*
G36*
G01*
X65034997Y-114950024D02*
X64734997Y-114950024D01*
G75*
G02*
X64584997Y-114800024I0J150000D01*
G01*
X64584997Y-113150024D01*
G75*
G02*
X64734997Y-113000024I150000J0D01*
G01*
X65034997Y-113000024D01*
G75*
G02*
X65184997Y-113150024I0J-150000D01*
G01*
X65184997Y-114800024D01*
G75*
G02*
X65034997Y-114950024I-150000J0D01*
G01*
G37*
G36*
G01*
X63764997Y-114950024D02*
X63464997Y-114950024D01*
G75*
G02*
X63314997Y-114800024I0J150000D01*
G01*
X63314997Y-113150024D01*
G75*
G02*
X63464997Y-113000024I150000J0D01*
G01*
X63764997Y-113000024D01*
G75*
G02*
X63914997Y-113150024I0J-150000D01*
G01*
X63914997Y-114800024D01*
G75*
G02*
X63764997Y-114950024I-150000J0D01*
G01*
G37*
G36*
G01*
X62494997Y-114950024D02*
X62194997Y-114950024D01*
G75*
G02*
X62044997Y-114800024I0J150000D01*
G01*
X62044997Y-113150024D01*
G75*
G02*
X62194997Y-113000024I150000J0D01*
G01*
X62494997Y-113000024D01*
G75*
G02*
X62644997Y-113150024I0J-150000D01*
G01*
X62644997Y-114800024D01*
G75*
G02*
X62494997Y-114950024I-150000J0D01*
G01*
G37*
G36*
G01*
X62494997Y-110000024D02*
X62194997Y-110000024D01*
G75*
G02*
X62044997Y-109850024I0J150000D01*
G01*
X62044997Y-108200024D01*
G75*
G02*
X62194997Y-108050024I150000J0D01*
G01*
X62494997Y-108050024D01*
G75*
G02*
X62644997Y-108200024I0J-150000D01*
G01*
X62644997Y-109850024D01*
G75*
G02*
X62494997Y-110000024I-150000J0D01*
G01*
G37*
G36*
G01*
X63764997Y-110000024D02*
X63464997Y-110000024D01*
G75*
G02*
X63314997Y-109850024I0J150000D01*
G01*
X63314997Y-108200024D01*
G75*
G02*
X63464997Y-108050024I150000J0D01*
G01*
X63764997Y-108050024D01*
G75*
G02*
X63914997Y-108200024I0J-150000D01*
G01*
X63914997Y-109850024D01*
G75*
G02*
X63764997Y-110000024I-150000J0D01*
G01*
G37*
G36*
G01*
X65034997Y-110000024D02*
X64734997Y-110000024D01*
G75*
G02*
X64584997Y-109850024I0J150000D01*
G01*
X64584997Y-108200024D01*
G75*
G02*
X64734997Y-108050024I150000J0D01*
G01*
X65034997Y-108050024D01*
G75*
G02*
X65184997Y-108200024I0J-150000D01*
G01*
X65184997Y-109850024D01*
G75*
G02*
X65034997Y-110000024I-150000J0D01*
G01*
G37*
G36*
G01*
X66304997Y-110000024D02*
X66004997Y-110000024D01*
G75*
G02*
X65854997Y-109850024I0J150000D01*
G01*
X65854997Y-108200024D01*
G75*
G02*
X66004997Y-108050024I150000J0D01*
G01*
X66304997Y-108050024D01*
G75*
G02*
X66454997Y-108200024I0J-150000D01*
G01*
X66454997Y-109850024D01*
G75*
G02*
X66304997Y-110000024I-150000J0D01*
G01*
G37*
D10*
X100250006Y-87800015D03*
X100250006Y-88450015D03*
X100250006Y-89100015D03*
X100250006Y-89750015D03*
X100250006Y-90400015D03*
X100250006Y-91050015D03*
X100250006Y-91700015D03*
X94350006Y-91700015D03*
X94350006Y-91050015D03*
X94350006Y-90400015D03*
X94350006Y-89750015D03*
X94350006Y-89100015D03*
X94350006Y-88450015D03*
X94350006Y-87800015D03*
G36*
G01*
X110177506Y-90448015D02*
X110522506Y-90448015D01*
G75*
G02*
X110670006Y-90595515I0J-147500D01*
G01*
X110670006Y-90890515D01*
G75*
G02*
X110522506Y-91038015I-147500J0D01*
G01*
X110177506Y-91038015D01*
G75*
G02*
X110030006Y-90890515I0J147500D01*
G01*
X110030006Y-90595515D01*
G75*
G02*
X110177506Y-90448015I147500J0D01*
G01*
G37*
G36*
G01*
X110177506Y-91418015D02*
X110522506Y-91418015D01*
G75*
G02*
X110670006Y-91565515I0J-147500D01*
G01*
X110670006Y-91860515D01*
G75*
G02*
X110522506Y-92008015I-147500J0D01*
G01*
X110177506Y-92008015D01*
G75*
G02*
X110030006Y-91860515I0J147500D01*
G01*
X110030006Y-91565515D01*
G75*
G02*
X110177506Y-91418015I147500J0D01*
G01*
G37*
G36*
G01*
X102398506Y-92008015D02*
X102053506Y-92008015D01*
G75*
G02*
X101906006Y-91860515I0J147500D01*
G01*
X101906006Y-91565515D01*
G75*
G02*
X102053506Y-91418015I147500J0D01*
G01*
X102398506Y-91418015D01*
G75*
G02*
X102546006Y-91565515I0J-147500D01*
G01*
X102546006Y-91860515D01*
G75*
G02*
X102398506Y-92008015I-147500J0D01*
G01*
G37*
G36*
G01*
X102398506Y-91038015D02*
X102053506Y-91038015D01*
G75*
G02*
X101906006Y-90890515I0J147500D01*
G01*
X101906006Y-90595515D01*
G75*
G02*
X102053506Y-90448015I147500J0D01*
G01*
X102398506Y-90448015D01*
G75*
G02*
X102546006Y-90595515I0J-147500D01*
G01*
X102546006Y-90890515D01*
G75*
G02*
X102398506Y-91038015I-147500J0D01*
G01*
G37*
G36*
G01*
X90672506Y-85795015D02*
X90327506Y-85795015D01*
G75*
G02*
X90180006Y-85647515I0J147500D01*
G01*
X90180006Y-85352515D01*
G75*
G02*
X90327506Y-85205015I147500J0D01*
G01*
X90672506Y-85205015D01*
G75*
G02*
X90820006Y-85352515I0J-147500D01*
G01*
X90820006Y-85647515D01*
G75*
G02*
X90672506Y-85795015I-147500J0D01*
G01*
G37*
G36*
G01*
X90672506Y-84825015D02*
X90327506Y-84825015D01*
G75*
G02*
X90180006Y-84677515I0J147500D01*
G01*
X90180006Y-84382515D01*
G75*
G02*
X90327506Y-84235015I147500J0D01*
G01*
X90672506Y-84235015D01*
G75*
G02*
X90820006Y-84382515I0J-147500D01*
G01*
X90820006Y-84677515D01*
G75*
G02*
X90672506Y-84825015I-147500J0D01*
G01*
G37*
G36*
G01*
X89950006Y-93625015D02*
X89950006Y-94575015D01*
G75*
G02*
X89700006Y-94825015I-250000J0D01*
G01*
X89200006Y-94825015D01*
G75*
G02*
X88950006Y-94575015I0J250000D01*
G01*
X88950006Y-93625015D01*
G75*
G02*
X89200006Y-93375015I250000J0D01*
G01*
X89700006Y-93375015D01*
G75*
G02*
X89950006Y-93625015I0J-250000D01*
G01*
G37*
G36*
G01*
X88050006Y-93625015D02*
X88050006Y-94575015D01*
G75*
G02*
X87800006Y-94825015I-250000J0D01*
G01*
X87300006Y-94825015D01*
G75*
G02*
X87050006Y-94575015I0J250000D01*
G01*
X87050006Y-93625015D01*
G75*
G02*
X87300006Y-93375015I250000J0D01*
G01*
X87800006Y-93375015D01*
G75*
G02*
X88050006Y-93625015I0J-250000D01*
G01*
G37*
G36*
G01*
X86270006Y-85860015D02*
X85930006Y-85860015D01*
G75*
G02*
X85790006Y-85720015I0J140000D01*
G01*
X85790006Y-85440015D01*
G75*
G02*
X85930006Y-85300015I140000J0D01*
G01*
X86270006Y-85300015D01*
G75*
G02*
X86410006Y-85440015I0J-140000D01*
G01*
X86410006Y-85720015D01*
G75*
G02*
X86270006Y-85860015I-140000J0D01*
G01*
G37*
G36*
G01*
X86270006Y-84900015D02*
X85930006Y-84900015D01*
G75*
G02*
X85790006Y-84760015I0J140000D01*
G01*
X85790006Y-84480015D01*
G75*
G02*
X85930006Y-84340015I140000J0D01*
G01*
X86270006Y-84340015D01*
G75*
G02*
X86410006Y-84480015I0J-140000D01*
G01*
X86410006Y-84760015D01*
G75*
G02*
X86270006Y-84900015I-140000J0D01*
G01*
G37*
D11*
X85100006Y-88050015D03*
X85100006Y-89350015D03*
X83100006Y-88700015D03*
G36*
G01*
X82085006Y-85880015D02*
X81715006Y-85880015D01*
G75*
G02*
X81580006Y-85745015I0J135000D01*
G01*
X81580006Y-85475015D01*
G75*
G02*
X81715006Y-85340015I135000J0D01*
G01*
X82085006Y-85340015D01*
G75*
G02*
X82220006Y-85475015I0J-135000D01*
G01*
X82220006Y-85745015D01*
G75*
G02*
X82085006Y-85880015I-135000J0D01*
G01*
G37*
G36*
G01*
X82085006Y-84860015D02*
X81715006Y-84860015D01*
G75*
G02*
X81580006Y-84725015I0J135000D01*
G01*
X81580006Y-84455015D01*
G75*
G02*
X81715006Y-84320015I135000J0D01*
G01*
X82085006Y-84320015D01*
G75*
G02*
X82220006Y-84455015I0J-135000D01*
G01*
X82220006Y-84725015D01*
G75*
G02*
X82085006Y-84860015I-135000J0D01*
G01*
G37*
G36*
G01*
X87130006Y-84340015D02*
X87470006Y-84340015D01*
G75*
G02*
X87610006Y-84480015I0J-140000D01*
G01*
X87610006Y-84760015D01*
G75*
G02*
X87470006Y-84900015I-140000J0D01*
G01*
X87130006Y-84900015D01*
G75*
G02*
X86990006Y-84760015I0J140000D01*
G01*
X86990006Y-84480015D01*
G75*
G02*
X87130006Y-84340015I140000J0D01*
G01*
G37*
G36*
G01*
X87130006Y-85300015D02*
X87470006Y-85300015D01*
G75*
G02*
X87610006Y-85440015I0J-140000D01*
G01*
X87610006Y-85720015D01*
G75*
G02*
X87470006Y-85860015I-140000J0D01*
G01*
X87130006Y-85860015D01*
G75*
G02*
X86990006Y-85720015I0J140000D01*
G01*
X86990006Y-85440015D01*
G75*
G02*
X87130006Y-85300015I140000J0D01*
G01*
G37*
G36*
G01*
X85070006Y-85860015D02*
X84730006Y-85860015D01*
G75*
G02*
X84590006Y-85720015I0J140000D01*
G01*
X84590006Y-85440015D01*
G75*
G02*
X84730006Y-85300015I140000J0D01*
G01*
X85070006Y-85300015D01*
G75*
G02*
X85210006Y-85440015I0J-140000D01*
G01*
X85210006Y-85720015D01*
G75*
G02*
X85070006Y-85860015I-140000J0D01*
G01*
G37*
G36*
G01*
X85070006Y-84900015D02*
X84730006Y-84900015D01*
G75*
G02*
X84590006Y-84760015I0J140000D01*
G01*
X84590006Y-84480015D01*
G75*
G02*
X84730006Y-84340015I140000J0D01*
G01*
X85070006Y-84340015D01*
G75*
G02*
X85210006Y-84480015I0J-140000D01*
G01*
X85210006Y-84760015D01*
G75*
G02*
X85070006Y-84900015I-140000J0D01*
G01*
G37*
D12*
X85250006Y-94200015D03*
X84300006Y-94200015D03*
X83350006Y-94200015D03*
X83350006Y-92000015D03*
X85250006Y-92000015D03*
X89450006Y-90442015D03*
X88500006Y-90442015D03*
X87550006Y-90442015D03*
X87550006Y-88242015D03*
X89450006Y-88242015D03*
G36*
G01*
X104300006Y-87805015D02*
X104300006Y-87505015D01*
G75*
G02*
X104450006Y-87355015I150000J0D01*
G01*
X106100006Y-87355015D01*
G75*
G02*
X106250006Y-87505015I0J-150000D01*
G01*
X106250006Y-87805015D01*
G75*
G02*
X106100006Y-87955015I-150000J0D01*
G01*
X104450006Y-87955015D01*
G75*
G02*
X104300006Y-87805015I0J150000D01*
G01*
G37*
G36*
G01*
X104300006Y-86535015D02*
X104300006Y-86235015D01*
G75*
G02*
X104450006Y-86085015I150000J0D01*
G01*
X106100006Y-86085015D01*
G75*
G02*
X106250006Y-86235015I0J-150000D01*
G01*
X106250006Y-86535015D01*
G75*
G02*
X106100006Y-86685015I-150000J0D01*
G01*
X104450006Y-86685015D01*
G75*
G02*
X104300006Y-86535015I0J150000D01*
G01*
G37*
G36*
G01*
X104300006Y-85265015D02*
X104300006Y-84965015D01*
G75*
G02*
X104450006Y-84815015I150000J0D01*
G01*
X106100006Y-84815015D01*
G75*
G02*
X106250006Y-84965015I0J-150000D01*
G01*
X106250006Y-85265015D01*
G75*
G02*
X106100006Y-85415015I-150000J0D01*
G01*
X104450006Y-85415015D01*
G75*
G02*
X104300006Y-85265015I0J150000D01*
G01*
G37*
G36*
G01*
X104300006Y-83995015D02*
X104300006Y-83695015D01*
G75*
G02*
X104450006Y-83545015I150000J0D01*
G01*
X106100006Y-83545015D01*
G75*
G02*
X106250006Y-83695015I0J-150000D01*
G01*
X106250006Y-83995015D01*
G75*
G02*
X106100006Y-84145015I-150000J0D01*
G01*
X104450006Y-84145015D01*
G75*
G02*
X104300006Y-83995015I0J150000D01*
G01*
G37*
G36*
G01*
X109250006Y-83995015D02*
X109250006Y-83695015D01*
G75*
G02*
X109400006Y-83545015I150000J0D01*
G01*
X111050006Y-83545015D01*
G75*
G02*
X111200006Y-83695015I0J-150000D01*
G01*
X111200006Y-83995015D01*
G75*
G02*
X111050006Y-84145015I-150000J0D01*
G01*
X109400006Y-84145015D01*
G75*
G02*
X109250006Y-83995015I0J150000D01*
G01*
G37*
G36*
G01*
X109250006Y-85265015D02*
X109250006Y-84965015D01*
G75*
G02*
X109400006Y-84815015I150000J0D01*
G01*
X111050006Y-84815015D01*
G75*
G02*
X111200006Y-84965015I0J-150000D01*
G01*
X111200006Y-85265015D01*
G75*
G02*
X111050006Y-85415015I-150000J0D01*
G01*
X109400006Y-85415015D01*
G75*
G02*
X109250006Y-85265015I0J150000D01*
G01*
G37*
G36*
G01*
X109250006Y-86535015D02*
X109250006Y-86235015D01*
G75*
G02*
X109400006Y-86085015I150000J0D01*
G01*
X111050006Y-86085015D01*
G75*
G02*
X111200006Y-86235015I0J-150000D01*
G01*
X111200006Y-86535015D01*
G75*
G02*
X111050006Y-86685015I-150000J0D01*
G01*
X109400006Y-86685015D01*
G75*
G02*
X109250006Y-86535015I0J150000D01*
G01*
G37*
G36*
G01*
X109250006Y-87805015D02*
X109250006Y-87505015D01*
G75*
G02*
X109400006Y-87355015I150000J0D01*
G01*
X111050006Y-87355015D01*
G75*
G02*
X111200006Y-87505015I0J-150000D01*
G01*
X111200006Y-87805015D01*
G75*
G02*
X111050006Y-87955015I-150000J0D01*
G01*
X109400006Y-87955015D01*
G75*
G02*
X109250006Y-87805015I0J150000D01*
G01*
G37*
D13*
X108140006Y-91300015D03*
X104440006Y-91300015D03*
G36*
G01*
X112390006Y-95970015D02*
X112390006Y-95630015D01*
G75*
G02*
X112530006Y-95490015I140000J0D01*
G01*
X112810006Y-95490015D01*
G75*
G02*
X112950006Y-95630015I0J-140000D01*
G01*
X112950006Y-95970015D01*
G75*
G02*
X112810006Y-96110015I-140000J0D01*
G01*
X112530006Y-96110015D01*
G75*
G02*
X112390006Y-95970015I0J140000D01*
G01*
G37*
G36*
G01*
X113350006Y-95970015D02*
X113350006Y-95630015D01*
G75*
G02*
X113490006Y-95490015I140000J0D01*
G01*
X113770006Y-95490015D01*
G75*
G02*
X113910006Y-95630015I0J-140000D01*
G01*
X113910006Y-95970015D01*
G75*
G02*
X113770006Y-96110015I-140000J0D01*
G01*
X113490006Y-96110015D01*
G75*
G02*
X113350006Y-95970015I0J140000D01*
G01*
G37*
G36*
G01*
X114590006Y-96020015D02*
X114590006Y-95680015D01*
G75*
G02*
X114730006Y-95540015I140000J0D01*
G01*
X115010006Y-95540015D01*
G75*
G02*
X115150006Y-95680015I0J-140000D01*
G01*
X115150006Y-96020015D01*
G75*
G02*
X115010006Y-96160015I-140000J0D01*
G01*
X114730006Y-96160015D01*
G75*
G02*
X114590006Y-96020015I0J140000D01*
G01*
G37*
G36*
G01*
X115550006Y-96020015D02*
X115550006Y-95680015D01*
G75*
G02*
X115690006Y-95540015I140000J0D01*
G01*
X115970006Y-95540015D01*
G75*
G02*
X116110006Y-95680015I0J-140000D01*
G01*
X116110006Y-96020015D01*
G75*
G02*
X115970006Y-96160015I-140000J0D01*
G01*
X115690006Y-96160015D01*
G75*
G02*
X115550006Y-96020015I0J140000D01*
G01*
G37*
G36*
G01*
X116305006Y-94950015D02*
X116005006Y-94950015D01*
G75*
G02*
X115855006Y-94800015I0J150000D01*
G01*
X115855006Y-93150015D01*
G75*
G02*
X116005006Y-93000015I150000J0D01*
G01*
X116305006Y-93000015D01*
G75*
G02*
X116455006Y-93150015I0J-150000D01*
G01*
X116455006Y-94800015D01*
G75*
G02*
X116305006Y-94950015I-150000J0D01*
G01*
G37*
G36*
G01*
X115035006Y-94950015D02*
X114735006Y-94950015D01*
G75*
G02*
X114585006Y-94800015I0J150000D01*
G01*
X114585006Y-93150015D01*
G75*
G02*
X114735006Y-93000015I150000J0D01*
G01*
X115035006Y-93000015D01*
G75*
G02*
X115185006Y-93150015I0J-150000D01*
G01*
X115185006Y-94800015D01*
G75*
G02*
X115035006Y-94950015I-150000J0D01*
G01*
G37*
G36*
G01*
X113765006Y-94950015D02*
X113465006Y-94950015D01*
G75*
G02*
X113315006Y-94800015I0J150000D01*
G01*
X113315006Y-93150015D01*
G75*
G02*
X113465006Y-93000015I150000J0D01*
G01*
X113765006Y-93000015D01*
G75*
G02*
X113915006Y-93150015I0J-150000D01*
G01*
X113915006Y-94800015D01*
G75*
G02*
X113765006Y-94950015I-150000J0D01*
G01*
G37*
G36*
G01*
X112495006Y-94950015D02*
X112195006Y-94950015D01*
G75*
G02*
X112045006Y-94800015I0J150000D01*
G01*
X112045006Y-93150015D01*
G75*
G02*
X112195006Y-93000015I150000J0D01*
G01*
X112495006Y-93000015D01*
G75*
G02*
X112645006Y-93150015I0J-150000D01*
G01*
X112645006Y-94800015D01*
G75*
G02*
X112495006Y-94950015I-150000J0D01*
G01*
G37*
G36*
G01*
X112495006Y-90000015D02*
X112195006Y-90000015D01*
G75*
G02*
X112045006Y-89850015I0J150000D01*
G01*
X112045006Y-88200015D01*
G75*
G02*
X112195006Y-88050015I150000J0D01*
G01*
X112495006Y-88050015D01*
G75*
G02*
X112645006Y-88200015I0J-150000D01*
G01*
X112645006Y-89850015D01*
G75*
G02*
X112495006Y-90000015I-150000J0D01*
G01*
G37*
G36*
G01*
X113765006Y-90000015D02*
X113465006Y-90000015D01*
G75*
G02*
X113315006Y-89850015I0J150000D01*
G01*
X113315006Y-88200015D01*
G75*
G02*
X113465006Y-88050015I150000J0D01*
G01*
X113765006Y-88050015D01*
G75*
G02*
X113915006Y-88200015I0J-150000D01*
G01*
X113915006Y-89850015D01*
G75*
G02*
X113765006Y-90000015I-150000J0D01*
G01*
G37*
G36*
G01*
X115035006Y-90000015D02*
X114735006Y-90000015D01*
G75*
G02*
X114585006Y-89850015I0J150000D01*
G01*
X114585006Y-88200015D01*
G75*
G02*
X114735006Y-88050015I150000J0D01*
G01*
X115035006Y-88050015D01*
G75*
G02*
X115185006Y-88200015I0J-150000D01*
G01*
X115185006Y-89850015D01*
G75*
G02*
X115035006Y-90000015I-150000J0D01*
G01*
G37*
G36*
G01*
X116305006Y-90000015D02*
X116005006Y-90000015D01*
G75*
G02*
X115855006Y-89850015I0J150000D01*
G01*
X115855006Y-88200015D01*
G75*
G02*
X116005006Y-88050015I150000J0D01*
G01*
X116305006Y-88050015D01*
G75*
G02*
X116455006Y-88200015I0J-150000D01*
G01*
X116455006Y-89850015D01*
G75*
G02*
X116305006Y-90000015I-150000J0D01*
G01*
G37*
D10*
X50249997Y-87800015D03*
X50249997Y-88450015D03*
X50249997Y-89100015D03*
X50249997Y-89750015D03*
X50249997Y-90400015D03*
X50249997Y-91050015D03*
X50249997Y-91700015D03*
X44349997Y-91700015D03*
X44349997Y-91050015D03*
X44349997Y-90400015D03*
X44349997Y-89750015D03*
X44349997Y-89100015D03*
X44349997Y-88450015D03*
X44349997Y-87800015D03*
G36*
G01*
X60177497Y-90448015D02*
X60522497Y-90448015D01*
G75*
G02*
X60669997Y-90595515I0J-147500D01*
G01*
X60669997Y-90890515D01*
G75*
G02*
X60522497Y-91038015I-147500J0D01*
G01*
X60177497Y-91038015D01*
G75*
G02*
X60029997Y-90890515I0J147500D01*
G01*
X60029997Y-90595515D01*
G75*
G02*
X60177497Y-90448015I147500J0D01*
G01*
G37*
G36*
G01*
X60177497Y-91418015D02*
X60522497Y-91418015D01*
G75*
G02*
X60669997Y-91565515I0J-147500D01*
G01*
X60669997Y-91860515D01*
G75*
G02*
X60522497Y-92008015I-147500J0D01*
G01*
X60177497Y-92008015D01*
G75*
G02*
X60029997Y-91860515I0J147500D01*
G01*
X60029997Y-91565515D01*
G75*
G02*
X60177497Y-91418015I147500J0D01*
G01*
G37*
G36*
G01*
X52398497Y-92008015D02*
X52053497Y-92008015D01*
G75*
G02*
X51905997Y-91860515I0J147500D01*
G01*
X51905997Y-91565515D01*
G75*
G02*
X52053497Y-91418015I147500J0D01*
G01*
X52398497Y-91418015D01*
G75*
G02*
X52545997Y-91565515I0J-147500D01*
G01*
X52545997Y-91860515D01*
G75*
G02*
X52398497Y-92008015I-147500J0D01*
G01*
G37*
G36*
G01*
X52398497Y-91038015D02*
X52053497Y-91038015D01*
G75*
G02*
X51905997Y-90890515I0J147500D01*
G01*
X51905997Y-90595515D01*
G75*
G02*
X52053497Y-90448015I147500J0D01*
G01*
X52398497Y-90448015D01*
G75*
G02*
X52545997Y-90595515I0J-147500D01*
G01*
X52545997Y-90890515D01*
G75*
G02*
X52398497Y-91038015I-147500J0D01*
G01*
G37*
G36*
G01*
X40672497Y-85795015D02*
X40327497Y-85795015D01*
G75*
G02*
X40179997Y-85647515I0J147500D01*
G01*
X40179997Y-85352515D01*
G75*
G02*
X40327497Y-85205015I147500J0D01*
G01*
X40672497Y-85205015D01*
G75*
G02*
X40819997Y-85352515I0J-147500D01*
G01*
X40819997Y-85647515D01*
G75*
G02*
X40672497Y-85795015I-147500J0D01*
G01*
G37*
G36*
G01*
X40672497Y-84825015D02*
X40327497Y-84825015D01*
G75*
G02*
X40179997Y-84677515I0J147500D01*
G01*
X40179997Y-84382515D01*
G75*
G02*
X40327497Y-84235015I147500J0D01*
G01*
X40672497Y-84235015D01*
G75*
G02*
X40819997Y-84382515I0J-147500D01*
G01*
X40819997Y-84677515D01*
G75*
G02*
X40672497Y-84825015I-147500J0D01*
G01*
G37*
G36*
G01*
X39949997Y-93625015D02*
X39949997Y-94575015D01*
G75*
G02*
X39699997Y-94825015I-250000J0D01*
G01*
X39199997Y-94825015D01*
G75*
G02*
X38949997Y-94575015I0J250000D01*
G01*
X38949997Y-93625015D01*
G75*
G02*
X39199997Y-93375015I250000J0D01*
G01*
X39699997Y-93375015D01*
G75*
G02*
X39949997Y-93625015I0J-250000D01*
G01*
G37*
G36*
G01*
X38049997Y-93625015D02*
X38049997Y-94575015D01*
G75*
G02*
X37799997Y-94825015I-250000J0D01*
G01*
X37299997Y-94825015D01*
G75*
G02*
X37049997Y-94575015I0J250000D01*
G01*
X37049997Y-93625015D01*
G75*
G02*
X37299997Y-93375015I250000J0D01*
G01*
X37799997Y-93375015D01*
G75*
G02*
X38049997Y-93625015I0J-250000D01*
G01*
G37*
G36*
G01*
X36269997Y-85860015D02*
X35929997Y-85860015D01*
G75*
G02*
X35789997Y-85720015I0J140000D01*
G01*
X35789997Y-85440015D01*
G75*
G02*
X35929997Y-85300015I140000J0D01*
G01*
X36269997Y-85300015D01*
G75*
G02*
X36409997Y-85440015I0J-140000D01*
G01*
X36409997Y-85720015D01*
G75*
G02*
X36269997Y-85860015I-140000J0D01*
G01*
G37*
G36*
G01*
X36269997Y-84900015D02*
X35929997Y-84900015D01*
G75*
G02*
X35789997Y-84760015I0J140000D01*
G01*
X35789997Y-84480015D01*
G75*
G02*
X35929997Y-84340015I140000J0D01*
G01*
X36269997Y-84340015D01*
G75*
G02*
X36409997Y-84480015I0J-140000D01*
G01*
X36409997Y-84760015D01*
G75*
G02*
X36269997Y-84900015I-140000J0D01*
G01*
G37*
D11*
X35099997Y-88050015D03*
X35099997Y-89350015D03*
X33099997Y-88700015D03*
G36*
G01*
X32084997Y-85880015D02*
X31714997Y-85880015D01*
G75*
G02*
X31579997Y-85745015I0J135000D01*
G01*
X31579997Y-85475015D01*
G75*
G02*
X31714997Y-85340015I135000J0D01*
G01*
X32084997Y-85340015D01*
G75*
G02*
X32219997Y-85475015I0J-135000D01*
G01*
X32219997Y-85745015D01*
G75*
G02*
X32084997Y-85880015I-135000J0D01*
G01*
G37*
G36*
G01*
X32084997Y-84860015D02*
X31714997Y-84860015D01*
G75*
G02*
X31579997Y-84725015I0J135000D01*
G01*
X31579997Y-84455015D01*
G75*
G02*
X31714997Y-84320015I135000J0D01*
G01*
X32084997Y-84320015D01*
G75*
G02*
X32219997Y-84455015I0J-135000D01*
G01*
X32219997Y-84725015D01*
G75*
G02*
X32084997Y-84860015I-135000J0D01*
G01*
G37*
G36*
G01*
X37129997Y-84340015D02*
X37469997Y-84340015D01*
G75*
G02*
X37609997Y-84480015I0J-140000D01*
G01*
X37609997Y-84760015D01*
G75*
G02*
X37469997Y-84900015I-140000J0D01*
G01*
X37129997Y-84900015D01*
G75*
G02*
X36989997Y-84760015I0J140000D01*
G01*
X36989997Y-84480015D01*
G75*
G02*
X37129997Y-84340015I140000J0D01*
G01*
G37*
G36*
G01*
X37129997Y-85300015D02*
X37469997Y-85300015D01*
G75*
G02*
X37609997Y-85440015I0J-140000D01*
G01*
X37609997Y-85720015D01*
G75*
G02*
X37469997Y-85860015I-140000J0D01*
G01*
X37129997Y-85860015D01*
G75*
G02*
X36989997Y-85720015I0J140000D01*
G01*
X36989997Y-85440015D01*
G75*
G02*
X37129997Y-85300015I140000J0D01*
G01*
G37*
G36*
G01*
X35069997Y-85860015D02*
X34729997Y-85860015D01*
G75*
G02*
X34589997Y-85720015I0J140000D01*
G01*
X34589997Y-85440015D01*
G75*
G02*
X34729997Y-85300015I140000J0D01*
G01*
X35069997Y-85300015D01*
G75*
G02*
X35209997Y-85440015I0J-140000D01*
G01*
X35209997Y-85720015D01*
G75*
G02*
X35069997Y-85860015I-140000J0D01*
G01*
G37*
G36*
G01*
X35069997Y-84900015D02*
X34729997Y-84900015D01*
G75*
G02*
X34589997Y-84760015I0J140000D01*
G01*
X34589997Y-84480015D01*
G75*
G02*
X34729997Y-84340015I140000J0D01*
G01*
X35069997Y-84340015D01*
G75*
G02*
X35209997Y-84480015I0J-140000D01*
G01*
X35209997Y-84760015D01*
G75*
G02*
X35069997Y-84900015I-140000J0D01*
G01*
G37*
D12*
X35249997Y-94200015D03*
X34299997Y-94200015D03*
X33349997Y-94200015D03*
X33349997Y-92000015D03*
X35249997Y-92000015D03*
X39449997Y-90442015D03*
X38499997Y-90442015D03*
X37549997Y-90442015D03*
X37549997Y-88242015D03*
X39449997Y-88242015D03*
G36*
G01*
X54299997Y-87805015D02*
X54299997Y-87505015D01*
G75*
G02*
X54449997Y-87355015I150000J0D01*
G01*
X56099997Y-87355015D01*
G75*
G02*
X56249997Y-87505015I0J-150000D01*
G01*
X56249997Y-87805015D01*
G75*
G02*
X56099997Y-87955015I-150000J0D01*
G01*
X54449997Y-87955015D01*
G75*
G02*
X54299997Y-87805015I0J150000D01*
G01*
G37*
G36*
G01*
X54299997Y-86535015D02*
X54299997Y-86235015D01*
G75*
G02*
X54449997Y-86085015I150000J0D01*
G01*
X56099997Y-86085015D01*
G75*
G02*
X56249997Y-86235015I0J-150000D01*
G01*
X56249997Y-86535015D01*
G75*
G02*
X56099997Y-86685015I-150000J0D01*
G01*
X54449997Y-86685015D01*
G75*
G02*
X54299997Y-86535015I0J150000D01*
G01*
G37*
G36*
G01*
X54299997Y-85265015D02*
X54299997Y-84965015D01*
G75*
G02*
X54449997Y-84815015I150000J0D01*
G01*
X56099997Y-84815015D01*
G75*
G02*
X56249997Y-84965015I0J-150000D01*
G01*
X56249997Y-85265015D01*
G75*
G02*
X56099997Y-85415015I-150000J0D01*
G01*
X54449997Y-85415015D01*
G75*
G02*
X54299997Y-85265015I0J150000D01*
G01*
G37*
G36*
G01*
X54299997Y-83995015D02*
X54299997Y-83695015D01*
G75*
G02*
X54449997Y-83545015I150000J0D01*
G01*
X56099997Y-83545015D01*
G75*
G02*
X56249997Y-83695015I0J-150000D01*
G01*
X56249997Y-83995015D01*
G75*
G02*
X56099997Y-84145015I-150000J0D01*
G01*
X54449997Y-84145015D01*
G75*
G02*
X54299997Y-83995015I0J150000D01*
G01*
G37*
G36*
G01*
X59249997Y-83995015D02*
X59249997Y-83695015D01*
G75*
G02*
X59399997Y-83545015I150000J0D01*
G01*
X61049997Y-83545015D01*
G75*
G02*
X61199997Y-83695015I0J-150000D01*
G01*
X61199997Y-83995015D01*
G75*
G02*
X61049997Y-84145015I-150000J0D01*
G01*
X59399997Y-84145015D01*
G75*
G02*
X59249997Y-83995015I0J150000D01*
G01*
G37*
G36*
G01*
X59249997Y-85265015D02*
X59249997Y-84965015D01*
G75*
G02*
X59399997Y-84815015I150000J0D01*
G01*
X61049997Y-84815015D01*
G75*
G02*
X61199997Y-84965015I0J-150000D01*
G01*
X61199997Y-85265015D01*
G75*
G02*
X61049997Y-85415015I-150000J0D01*
G01*
X59399997Y-85415015D01*
G75*
G02*
X59249997Y-85265015I0J150000D01*
G01*
G37*
G36*
G01*
X59249997Y-86535015D02*
X59249997Y-86235015D01*
G75*
G02*
X59399997Y-86085015I150000J0D01*
G01*
X61049997Y-86085015D01*
G75*
G02*
X61199997Y-86235015I0J-150000D01*
G01*
X61199997Y-86535015D01*
G75*
G02*
X61049997Y-86685015I-150000J0D01*
G01*
X59399997Y-86685015D01*
G75*
G02*
X59249997Y-86535015I0J150000D01*
G01*
G37*
G36*
G01*
X59249997Y-87805015D02*
X59249997Y-87505015D01*
G75*
G02*
X59399997Y-87355015I150000J0D01*
G01*
X61049997Y-87355015D01*
G75*
G02*
X61199997Y-87505015I0J-150000D01*
G01*
X61199997Y-87805015D01*
G75*
G02*
X61049997Y-87955015I-150000J0D01*
G01*
X59399997Y-87955015D01*
G75*
G02*
X59249997Y-87805015I0J150000D01*
G01*
G37*
D13*
X58139997Y-91300015D03*
X54439997Y-91300015D03*
G36*
G01*
X62389997Y-95970015D02*
X62389997Y-95630015D01*
G75*
G02*
X62529997Y-95490015I140000J0D01*
G01*
X62809997Y-95490015D01*
G75*
G02*
X62949997Y-95630015I0J-140000D01*
G01*
X62949997Y-95970015D01*
G75*
G02*
X62809997Y-96110015I-140000J0D01*
G01*
X62529997Y-96110015D01*
G75*
G02*
X62389997Y-95970015I0J140000D01*
G01*
G37*
G36*
G01*
X63349997Y-95970015D02*
X63349997Y-95630015D01*
G75*
G02*
X63489997Y-95490015I140000J0D01*
G01*
X63769997Y-95490015D01*
G75*
G02*
X63909997Y-95630015I0J-140000D01*
G01*
X63909997Y-95970015D01*
G75*
G02*
X63769997Y-96110015I-140000J0D01*
G01*
X63489997Y-96110015D01*
G75*
G02*
X63349997Y-95970015I0J140000D01*
G01*
G37*
G36*
G01*
X64589997Y-96020015D02*
X64589997Y-95680015D01*
G75*
G02*
X64729997Y-95540015I140000J0D01*
G01*
X65009997Y-95540015D01*
G75*
G02*
X65149997Y-95680015I0J-140000D01*
G01*
X65149997Y-96020015D01*
G75*
G02*
X65009997Y-96160015I-140000J0D01*
G01*
X64729997Y-96160015D01*
G75*
G02*
X64589997Y-96020015I0J140000D01*
G01*
G37*
G36*
G01*
X65549997Y-96020015D02*
X65549997Y-95680015D01*
G75*
G02*
X65689997Y-95540015I140000J0D01*
G01*
X65969997Y-95540015D01*
G75*
G02*
X66109997Y-95680015I0J-140000D01*
G01*
X66109997Y-96020015D01*
G75*
G02*
X65969997Y-96160015I-140000J0D01*
G01*
X65689997Y-96160015D01*
G75*
G02*
X65549997Y-96020015I0J140000D01*
G01*
G37*
G36*
G01*
X66304997Y-94950015D02*
X66004997Y-94950015D01*
G75*
G02*
X65854997Y-94800015I0J150000D01*
G01*
X65854997Y-93150015D01*
G75*
G02*
X66004997Y-93000015I150000J0D01*
G01*
X66304997Y-93000015D01*
G75*
G02*
X66454997Y-93150015I0J-150000D01*
G01*
X66454997Y-94800015D01*
G75*
G02*
X66304997Y-94950015I-150000J0D01*
G01*
G37*
G36*
G01*
X65034997Y-94950015D02*
X64734997Y-94950015D01*
G75*
G02*
X64584997Y-94800015I0J150000D01*
G01*
X64584997Y-93150015D01*
G75*
G02*
X64734997Y-93000015I150000J0D01*
G01*
X65034997Y-93000015D01*
G75*
G02*
X65184997Y-93150015I0J-150000D01*
G01*
X65184997Y-94800015D01*
G75*
G02*
X65034997Y-94950015I-150000J0D01*
G01*
G37*
G36*
G01*
X63764997Y-94950015D02*
X63464997Y-94950015D01*
G75*
G02*
X63314997Y-94800015I0J150000D01*
G01*
X63314997Y-93150015D01*
G75*
G02*
X63464997Y-93000015I150000J0D01*
G01*
X63764997Y-93000015D01*
G75*
G02*
X63914997Y-93150015I0J-150000D01*
G01*
X63914997Y-94800015D01*
G75*
G02*
X63764997Y-94950015I-150000J0D01*
G01*
G37*
G36*
G01*
X62494997Y-94950015D02*
X62194997Y-94950015D01*
G75*
G02*
X62044997Y-94800015I0J150000D01*
G01*
X62044997Y-93150015D01*
G75*
G02*
X62194997Y-93000015I150000J0D01*
G01*
X62494997Y-93000015D01*
G75*
G02*
X62644997Y-93150015I0J-150000D01*
G01*
X62644997Y-94800015D01*
G75*
G02*
X62494997Y-94950015I-150000J0D01*
G01*
G37*
G36*
G01*
X62494997Y-90000015D02*
X62194997Y-90000015D01*
G75*
G02*
X62044997Y-89850015I0J150000D01*
G01*
X62044997Y-88200015D01*
G75*
G02*
X62194997Y-88050015I150000J0D01*
G01*
X62494997Y-88050015D01*
G75*
G02*
X62644997Y-88200015I0J-150000D01*
G01*
X62644997Y-89850015D01*
G75*
G02*
X62494997Y-90000015I-150000J0D01*
G01*
G37*
G36*
G01*
X63764997Y-90000015D02*
X63464997Y-90000015D01*
G75*
G02*
X63314997Y-89850015I0J150000D01*
G01*
X63314997Y-88200015D01*
G75*
G02*
X63464997Y-88050015I150000J0D01*
G01*
X63764997Y-88050015D01*
G75*
G02*
X63914997Y-88200015I0J-150000D01*
G01*
X63914997Y-89850015D01*
G75*
G02*
X63764997Y-90000015I-150000J0D01*
G01*
G37*
G36*
G01*
X65034997Y-90000015D02*
X64734997Y-90000015D01*
G75*
G02*
X64584997Y-89850015I0J150000D01*
G01*
X64584997Y-88200015D01*
G75*
G02*
X64734997Y-88050015I150000J0D01*
G01*
X65034997Y-88050015D01*
G75*
G02*
X65184997Y-88200015I0J-150000D01*
G01*
X65184997Y-89850015D01*
G75*
G02*
X65034997Y-90000015I-150000J0D01*
G01*
G37*
G36*
G01*
X66304997Y-90000015D02*
X66004997Y-90000015D01*
G75*
G02*
X65854997Y-89850015I0J150000D01*
G01*
X65854997Y-88200015D01*
G75*
G02*
X66004997Y-88050015I150000J0D01*
G01*
X66304997Y-88050015D01*
G75*
G02*
X66454997Y-88200015I0J-150000D01*
G01*
X66454997Y-89850015D01*
G75*
G02*
X66304997Y-90000015I-150000J0D01*
G01*
G37*
D10*
X100250006Y-67800006D03*
X100250006Y-68450006D03*
X100250006Y-69100006D03*
X100250006Y-69750006D03*
X100250006Y-70400006D03*
X100250006Y-71050006D03*
X100250006Y-71700006D03*
X94350006Y-71700006D03*
X94350006Y-71050006D03*
X94350006Y-70400006D03*
X94350006Y-69750006D03*
X94350006Y-69100006D03*
X94350006Y-68450006D03*
X94350006Y-67800006D03*
G36*
G01*
X110177506Y-70448006D02*
X110522506Y-70448006D01*
G75*
G02*
X110670006Y-70595506I0J-147500D01*
G01*
X110670006Y-70890506D01*
G75*
G02*
X110522506Y-71038006I-147500J0D01*
G01*
X110177506Y-71038006D01*
G75*
G02*
X110030006Y-70890506I0J147500D01*
G01*
X110030006Y-70595506D01*
G75*
G02*
X110177506Y-70448006I147500J0D01*
G01*
G37*
G36*
G01*
X110177506Y-71418006D02*
X110522506Y-71418006D01*
G75*
G02*
X110670006Y-71565506I0J-147500D01*
G01*
X110670006Y-71860506D01*
G75*
G02*
X110522506Y-72008006I-147500J0D01*
G01*
X110177506Y-72008006D01*
G75*
G02*
X110030006Y-71860506I0J147500D01*
G01*
X110030006Y-71565506D01*
G75*
G02*
X110177506Y-71418006I147500J0D01*
G01*
G37*
G36*
G01*
X102398506Y-72008006D02*
X102053506Y-72008006D01*
G75*
G02*
X101906006Y-71860506I0J147500D01*
G01*
X101906006Y-71565506D01*
G75*
G02*
X102053506Y-71418006I147500J0D01*
G01*
X102398506Y-71418006D01*
G75*
G02*
X102546006Y-71565506I0J-147500D01*
G01*
X102546006Y-71860506D01*
G75*
G02*
X102398506Y-72008006I-147500J0D01*
G01*
G37*
G36*
G01*
X102398506Y-71038006D02*
X102053506Y-71038006D01*
G75*
G02*
X101906006Y-70890506I0J147500D01*
G01*
X101906006Y-70595506D01*
G75*
G02*
X102053506Y-70448006I147500J0D01*
G01*
X102398506Y-70448006D01*
G75*
G02*
X102546006Y-70595506I0J-147500D01*
G01*
X102546006Y-70890506D01*
G75*
G02*
X102398506Y-71038006I-147500J0D01*
G01*
G37*
G36*
G01*
X90672506Y-65795006D02*
X90327506Y-65795006D01*
G75*
G02*
X90180006Y-65647506I0J147500D01*
G01*
X90180006Y-65352506D01*
G75*
G02*
X90327506Y-65205006I147500J0D01*
G01*
X90672506Y-65205006D01*
G75*
G02*
X90820006Y-65352506I0J-147500D01*
G01*
X90820006Y-65647506D01*
G75*
G02*
X90672506Y-65795006I-147500J0D01*
G01*
G37*
G36*
G01*
X90672506Y-64825006D02*
X90327506Y-64825006D01*
G75*
G02*
X90180006Y-64677506I0J147500D01*
G01*
X90180006Y-64382506D01*
G75*
G02*
X90327506Y-64235006I147500J0D01*
G01*
X90672506Y-64235006D01*
G75*
G02*
X90820006Y-64382506I0J-147500D01*
G01*
X90820006Y-64677506D01*
G75*
G02*
X90672506Y-64825006I-147500J0D01*
G01*
G37*
G36*
G01*
X89950006Y-73625006D02*
X89950006Y-74575006D01*
G75*
G02*
X89700006Y-74825006I-250000J0D01*
G01*
X89200006Y-74825006D01*
G75*
G02*
X88950006Y-74575006I0J250000D01*
G01*
X88950006Y-73625006D01*
G75*
G02*
X89200006Y-73375006I250000J0D01*
G01*
X89700006Y-73375006D01*
G75*
G02*
X89950006Y-73625006I0J-250000D01*
G01*
G37*
G36*
G01*
X88050006Y-73625006D02*
X88050006Y-74575006D01*
G75*
G02*
X87800006Y-74825006I-250000J0D01*
G01*
X87300006Y-74825006D01*
G75*
G02*
X87050006Y-74575006I0J250000D01*
G01*
X87050006Y-73625006D01*
G75*
G02*
X87300006Y-73375006I250000J0D01*
G01*
X87800006Y-73375006D01*
G75*
G02*
X88050006Y-73625006I0J-250000D01*
G01*
G37*
G36*
G01*
X86270006Y-65860006D02*
X85930006Y-65860006D01*
G75*
G02*
X85790006Y-65720006I0J140000D01*
G01*
X85790006Y-65440006D01*
G75*
G02*
X85930006Y-65300006I140000J0D01*
G01*
X86270006Y-65300006D01*
G75*
G02*
X86410006Y-65440006I0J-140000D01*
G01*
X86410006Y-65720006D01*
G75*
G02*
X86270006Y-65860006I-140000J0D01*
G01*
G37*
G36*
G01*
X86270006Y-64900006D02*
X85930006Y-64900006D01*
G75*
G02*
X85790006Y-64760006I0J140000D01*
G01*
X85790006Y-64480006D01*
G75*
G02*
X85930006Y-64340006I140000J0D01*
G01*
X86270006Y-64340006D01*
G75*
G02*
X86410006Y-64480006I0J-140000D01*
G01*
X86410006Y-64760006D01*
G75*
G02*
X86270006Y-64900006I-140000J0D01*
G01*
G37*
D11*
X85100006Y-68050006D03*
X85100006Y-69350006D03*
X83100006Y-68700006D03*
G36*
G01*
X82085006Y-65880006D02*
X81715006Y-65880006D01*
G75*
G02*
X81580006Y-65745006I0J135000D01*
G01*
X81580006Y-65475006D01*
G75*
G02*
X81715006Y-65340006I135000J0D01*
G01*
X82085006Y-65340006D01*
G75*
G02*
X82220006Y-65475006I0J-135000D01*
G01*
X82220006Y-65745006D01*
G75*
G02*
X82085006Y-65880006I-135000J0D01*
G01*
G37*
G36*
G01*
X82085006Y-64860006D02*
X81715006Y-64860006D01*
G75*
G02*
X81580006Y-64725006I0J135000D01*
G01*
X81580006Y-64455006D01*
G75*
G02*
X81715006Y-64320006I135000J0D01*
G01*
X82085006Y-64320006D01*
G75*
G02*
X82220006Y-64455006I0J-135000D01*
G01*
X82220006Y-64725006D01*
G75*
G02*
X82085006Y-64860006I-135000J0D01*
G01*
G37*
G36*
G01*
X87130006Y-64340006D02*
X87470006Y-64340006D01*
G75*
G02*
X87610006Y-64480006I0J-140000D01*
G01*
X87610006Y-64760006D01*
G75*
G02*
X87470006Y-64900006I-140000J0D01*
G01*
X87130006Y-64900006D01*
G75*
G02*
X86990006Y-64760006I0J140000D01*
G01*
X86990006Y-64480006D01*
G75*
G02*
X87130006Y-64340006I140000J0D01*
G01*
G37*
G36*
G01*
X87130006Y-65300006D02*
X87470006Y-65300006D01*
G75*
G02*
X87610006Y-65440006I0J-140000D01*
G01*
X87610006Y-65720006D01*
G75*
G02*
X87470006Y-65860006I-140000J0D01*
G01*
X87130006Y-65860006D01*
G75*
G02*
X86990006Y-65720006I0J140000D01*
G01*
X86990006Y-65440006D01*
G75*
G02*
X87130006Y-65300006I140000J0D01*
G01*
G37*
G36*
G01*
X85070006Y-65860006D02*
X84730006Y-65860006D01*
G75*
G02*
X84590006Y-65720006I0J140000D01*
G01*
X84590006Y-65440006D01*
G75*
G02*
X84730006Y-65300006I140000J0D01*
G01*
X85070006Y-65300006D01*
G75*
G02*
X85210006Y-65440006I0J-140000D01*
G01*
X85210006Y-65720006D01*
G75*
G02*
X85070006Y-65860006I-140000J0D01*
G01*
G37*
G36*
G01*
X85070006Y-64900006D02*
X84730006Y-64900006D01*
G75*
G02*
X84590006Y-64760006I0J140000D01*
G01*
X84590006Y-64480006D01*
G75*
G02*
X84730006Y-64340006I140000J0D01*
G01*
X85070006Y-64340006D01*
G75*
G02*
X85210006Y-64480006I0J-140000D01*
G01*
X85210006Y-64760006D01*
G75*
G02*
X85070006Y-64900006I-140000J0D01*
G01*
G37*
D12*
X85250006Y-74200006D03*
X84300006Y-74200006D03*
X83350006Y-74200006D03*
X83350006Y-72000006D03*
X85250006Y-72000006D03*
X89450006Y-70442006D03*
X88500006Y-70442006D03*
X87550006Y-70442006D03*
X87550006Y-68242006D03*
X89450006Y-68242006D03*
G36*
G01*
X104300006Y-67805006D02*
X104300006Y-67505006D01*
G75*
G02*
X104450006Y-67355006I150000J0D01*
G01*
X106100006Y-67355006D01*
G75*
G02*
X106250006Y-67505006I0J-150000D01*
G01*
X106250006Y-67805006D01*
G75*
G02*
X106100006Y-67955006I-150000J0D01*
G01*
X104450006Y-67955006D01*
G75*
G02*
X104300006Y-67805006I0J150000D01*
G01*
G37*
G36*
G01*
X104300006Y-66535006D02*
X104300006Y-66235006D01*
G75*
G02*
X104450006Y-66085006I150000J0D01*
G01*
X106100006Y-66085006D01*
G75*
G02*
X106250006Y-66235006I0J-150000D01*
G01*
X106250006Y-66535006D01*
G75*
G02*
X106100006Y-66685006I-150000J0D01*
G01*
X104450006Y-66685006D01*
G75*
G02*
X104300006Y-66535006I0J150000D01*
G01*
G37*
G36*
G01*
X104300006Y-65265006D02*
X104300006Y-64965006D01*
G75*
G02*
X104450006Y-64815006I150000J0D01*
G01*
X106100006Y-64815006D01*
G75*
G02*
X106250006Y-64965006I0J-150000D01*
G01*
X106250006Y-65265006D01*
G75*
G02*
X106100006Y-65415006I-150000J0D01*
G01*
X104450006Y-65415006D01*
G75*
G02*
X104300006Y-65265006I0J150000D01*
G01*
G37*
G36*
G01*
X104300006Y-63995006D02*
X104300006Y-63695006D01*
G75*
G02*
X104450006Y-63545006I150000J0D01*
G01*
X106100006Y-63545006D01*
G75*
G02*
X106250006Y-63695006I0J-150000D01*
G01*
X106250006Y-63995006D01*
G75*
G02*
X106100006Y-64145006I-150000J0D01*
G01*
X104450006Y-64145006D01*
G75*
G02*
X104300006Y-63995006I0J150000D01*
G01*
G37*
G36*
G01*
X109250006Y-63995006D02*
X109250006Y-63695006D01*
G75*
G02*
X109400006Y-63545006I150000J0D01*
G01*
X111050006Y-63545006D01*
G75*
G02*
X111200006Y-63695006I0J-150000D01*
G01*
X111200006Y-63995006D01*
G75*
G02*
X111050006Y-64145006I-150000J0D01*
G01*
X109400006Y-64145006D01*
G75*
G02*
X109250006Y-63995006I0J150000D01*
G01*
G37*
G36*
G01*
X109250006Y-65265006D02*
X109250006Y-64965006D01*
G75*
G02*
X109400006Y-64815006I150000J0D01*
G01*
X111050006Y-64815006D01*
G75*
G02*
X111200006Y-64965006I0J-150000D01*
G01*
X111200006Y-65265006D01*
G75*
G02*
X111050006Y-65415006I-150000J0D01*
G01*
X109400006Y-65415006D01*
G75*
G02*
X109250006Y-65265006I0J150000D01*
G01*
G37*
G36*
G01*
X109250006Y-66535006D02*
X109250006Y-66235006D01*
G75*
G02*
X109400006Y-66085006I150000J0D01*
G01*
X111050006Y-66085006D01*
G75*
G02*
X111200006Y-66235006I0J-150000D01*
G01*
X111200006Y-66535006D01*
G75*
G02*
X111050006Y-66685006I-150000J0D01*
G01*
X109400006Y-66685006D01*
G75*
G02*
X109250006Y-66535006I0J150000D01*
G01*
G37*
G36*
G01*
X109250006Y-67805006D02*
X109250006Y-67505006D01*
G75*
G02*
X109400006Y-67355006I150000J0D01*
G01*
X111050006Y-67355006D01*
G75*
G02*
X111200006Y-67505006I0J-150000D01*
G01*
X111200006Y-67805006D01*
G75*
G02*
X111050006Y-67955006I-150000J0D01*
G01*
X109400006Y-67955006D01*
G75*
G02*
X109250006Y-67805006I0J150000D01*
G01*
G37*
D13*
X108140006Y-71300006D03*
X104440006Y-71300006D03*
G36*
G01*
X112390006Y-75970006D02*
X112390006Y-75630006D01*
G75*
G02*
X112530006Y-75490006I140000J0D01*
G01*
X112810006Y-75490006D01*
G75*
G02*
X112950006Y-75630006I0J-140000D01*
G01*
X112950006Y-75970006D01*
G75*
G02*
X112810006Y-76110006I-140000J0D01*
G01*
X112530006Y-76110006D01*
G75*
G02*
X112390006Y-75970006I0J140000D01*
G01*
G37*
G36*
G01*
X113350006Y-75970006D02*
X113350006Y-75630006D01*
G75*
G02*
X113490006Y-75490006I140000J0D01*
G01*
X113770006Y-75490006D01*
G75*
G02*
X113910006Y-75630006I0J-140000D01*
G01*
X113910006Y-75970006D01*
G75*
G02*
X113770006Y-76110006I-140000J0D01*
G01*
X113490006Y-76110006D01*
G75*
G02*
X113350006Y-75970006I0J140000D01*
G01*
G37*
G36*
G01*
X114590006Y-76020006D02*
X114590006Y-75680006D01*
G75*
G02*
X114730006Y-75540006I140000J0D01*
G01*
X115010006Y-75540006D01*
G75*
G02*
X115150006Y-75680006I0J-140000D01*
G01*
X115150006Y-76020006D01*
G75*
G02*
X115010006Y-76160006I-140000J0D01*
G01*
X114730006Y-76160006D01*
G75*
G02*
X114590006Y-76020006I0J140000D01*
G01*
G37*
G36*
G01*
X115550006Y-76020006D02*
X115550006Y-75680006D01*
G75*
G02*
X115690006Y-75540006I140000J0D01*
G01*
X115970006Y-75540006D01*
G75*
G02*
X116110006Y-75680006I0J-140000D01*
G01*
X116110006Y-76020006D01*
G75*
G02*
X115970006Y-76160006I-140000J0D01*
G01*
X115690006Y-76160006D01*
G75*
G02*
X115550006Y-76020006I0J140000D01*
G01*
G37*
G36*
G01*
X116305006Y-74950006D02*
X116005006Y-74950006D01*
G75*
G02*
X115855006Y-74800006I0J150000D01*
G01*
X115855006Y-73150006D01*
G75*
G02*
X116005006Y-73000006I150000J0D01*
G01*
X116305006Y-73000006D01*
G75*
G02*
X116455006Y-73150006I0J-150000D01*
G01*
X116455006Y-74800006D01*
G75*
G02*
X116305006Y-74950006I-150000J0D01*
G01*
G37*
G36*
G01*
X115035006Y-74950006D02*
X114735006Y-74950006D01*
G75*
G02*
X114585006Y-74800006I0J150000D01*
G01*
X114585006Y-73150006D01*
G75*
G02*
X114735006Y-73000006I150000J0D01*
G01*
X115035006Y-73000006D01*
G75*
G02*
X115185006Y-73150006I0J-150000D01*
G01*
X115185006Y-74800006D01*
G75*
G02*
X115035006Y-74950006I-150000J0D01*
G01*
G37*
G36*
G01*
X113765006Y-74950006D02*
X113465006Y-74950006D01*
G75*
G02*
X113315006Y-74800006I0J150000D01*
G01*
X113315006Y-73150006D01*
G75*
G02*
X113465006Y-73000006I150000J0D01*
G01*
X113765006Y-73000006D01*
G75*
G02*
X113915006Y-73150006I0J-150000D01*
G01*
X113915006Y-74800006D01*
G75*
G02*
X113765006Y-74950006I-150000J0D01*
G01*
G37*
G36*
G01*
X112495006Y-74950006D02*
X112195006Y-74950006D01*
G75*
G02*
X112045006Y-74800006I0J150000D01*
G01*
X112045006Y-73150006D01*
G75*
G02*
X112195006Y-73000006I150000J0D01*
G01*
X112495006Y-73000006D01*
G75*
G02*
X112645006Y-73150006I0J-150000D01*
G01*
X112645006Y-74800006D01*
G75*
G02*
X112495006Y-74950006I-150000J0D01*
G01*
G37*
G36*
G01*
X112495006Y-70000006D02*
X112195006Y-70000006D01*
G75*
G02*
X112045006Y-69850006I0J150000D01*
G01*
X112045006Y-68200006D01*
G75*
G02*
X112195006Y-68050006I150000J0D01*
G01*
X112495006Y-68050006D01*
G75*
G02*
X112645006Y-68200006I0J-150000D01*
G01*
X112645006Y-69850006D01*
G75*
G02*
X112495006Y-70000006I-150000J0D01*
G01*
G37*
G36*
G01*
X113765006Y-70000006D02*
X113465006Y-70000006D01*
G75*
G02*
X113315006Y-69850006I0J150000D01*
G01*
X113315006Y-68200006D01*
G75*
G02*
X113465006Y-68050006I150000J0D01*
G01*
X113765006Y-68050006D01*
G75*
G02*
X113915006Y-68200006I0J-150000D01*
G01*
X113915006Y-69850006D01*
G75*
G02*
X113765006Y-70000006I-150000J0D01*
G01*
G37*
G36*
G01*
X115035006Y-70000006D02*
X114735006Y-70000006D01*
G75*
G02*
X114585006Y-69850006I0J150000D01*
G01*
X114585006Y-68200006D01*
G75*
G02*
X114735006Y-68050006I150000J0D01*
G01*
X115035006Y-68050006D01*
G75*
G02*
X115185006Y-68200006I0J-150000D01*
G01*
X115185006Y-69850006D01*
G75*
G02*
X115035006Y-70000006I-150000J0D01*
G01*
G37*
G36*
G01*
X116305006Y-70000006D02*
X116005006Y-70000006D01*
G75*
G02*
X115855006Y-69850006I0J150000D01*
G01*
X115855006Y-68200006D01*
G75*
G02*
X116005006Y-68050006I150000J0D01*
G01*
X116305006Y-68050006D01*
G75*
G02*
X116455006Y-68200006I0J-150000D01*
G01*
X116455006Y-69850006D01*
G75*
G02*
X116305006Y-70000006I-150000J0D01*
G01*
G37*
D10*
X50249997Y-67800006D03*
X50249997Y-68450006D03*
X50249997Y-69100006D03*
X50249997Y-69750006D03*
X50249997Y-70400006D03*
X50249997Y-71050006D03*
X50249997Y-71700006D03*
X44349997Y-71700006D03*
X44349997Y-71050006D03*
X44349997Y-70400006D03*
X44349997Y-69750006D03*
X44349997Y-69100006D03*
X44349997Y-68450006D03*
X44349997Y-67800006D03*
G36*
G01*
X60177497Y-70448006D02*
X60522497Y-70448006D01*
G75*
G02*
X60669997Y-70595506I0J-147500D01*
G01*
X60669997Y-70890506D01*
G75*
G02*
X60522497Y-71038006I-147500J0D01*
G01*
X60177497Y-71038006D01*
G75*
G02*
X60029997Y-70890506I0J147500D01*
G01*
X60029997Y-70595506D01*
G75*
G02*
X60177497Y-70448006I147500J0D01*
G01*
G37*
G36*
G01*
X60177497Y-71418006D02*
X60522497Y-71418006D01*
G75*
G02*
X60669997Y-71565506I0J-147500D01*
G01*
X60669997Y-71860506D01*
G75*
G02*
X60522497Y-72008006I-147500J0D01*
G01*
X60177497Y-72008006D01*
G75*
G02*
X60029997Y-71860506I0J147500D01*
G01*
X60029997Y-71565506D01*
G75*
G02*
X60177497Y-71418006I147500J0D01*
G01*
G37*
G36*
G01*
X52398497Y-72008006D02*
X52053497Y-72008006D01*
G75*
G02*
X51905997Y-71860506I0J147500D01*
G01*
X51905997Y-71565506D01*
G75*
G02*
X52053497Y-71418006I147500J0D01*
G01*
X52398497Y-71418006D01*
G75*
G02*
X52545997Y-71565506I0J-147500D01*
G01*
X52545997Y-71860506D01*
G75*
G02*
X52398497Y-72008006I-147500J0D01*
G01*
G37*
G36*
G01*
X52398497Y-71038006D02*
X52053497Y-71038006D01*
G75*
G02*
X51905997Y-70890506I0J147500D01*
G01*
X51905997Y-70595506D01*
G75*
G02*
X52053497Y-70448006I147500J0D01*
G01*
X52398497Y-70448006D01*
G75*
G02*
X52545997Y-70595506I0J-147500D01*
G01*
X52545997Y-70890506D01*
G75*
G02*
X52398497Y-71038006I-147500J0D01*
G01*
G37*
G36*
G01*
X40672497Y-65795006D02*
X40327497Y-65795006D01*
G75*
G02*
X40179997Y-65647506I0J147500D01*
G01*
X40179997Y-65352506D01*
G75*
G02*
X40327497Y-65205006I147500J0D01*
G01*
X40672497Y-65205006D01*
G75*
G02*
X40819997Y-65352506I0J-147500D01*
G01*
X40819997Y-65647506D01*
G75*
G02*
X40672497Y-65795006I-147500J0D01*
G01*
G37*
G36*
G01*
X40672497Y-64825006D02*
X40327497Y-64825006D01*
G75*
G02*
X40179997Y-64677506I0J147500D01*
G01*
X40179997Y-64382506D01*
G75*
G02*
X40327497Y-64235006I147500J0D01*
G01*
X40672497Y-64235006D01*
G75*
G02*
X40819997Y-64382506I0J-147500D01*
G01*
X40819997Y-64677506D01*
G75*
G02*
X40672497Y-64825006I-147500J0D01*
G01*
G37*
G36*
G01*
X39949997Y-73625006D02*
X39949997Y-74575006D01*
G75*
G02*
X39699997Y-74825006I-250000J0D01*
G01*
X39199997Y-74825006D01*
G75*
G02*
X38949997Y-74575006I0J250000D01*
G01*
X38949997Y-73625006D01*
G75*
G02*
X39199997Y-73375006I250000J0D01*
G01*
X39699997Y-73375006D01*
G75*
G02*
X39949997Y-73625006I0J-250000D01*
G01*
G37*
G36*
G01*
X38049997Y-73625006D02*
X38049997Y-74575006D01*
G75*
G02*
X37799997Y-74825006I-250000J0D01*
G01*
X37299997Y-74825006D01*
G75*
G02*
X37049997Y-74575006I0J250000D01*
G01*
X37049997Y-73625006D01*
G75*
G02*
X37299997Y-73375006I250000J0D01*
G01*
X37799997Y-73375006D01*
G75*
G02*
X38049997Y-73625006I0J-250000D01*
G01*
G37*
G36*
G01*
X36269997Y-65860006D02*
X35929997Y-65860006D01*
G75*
G02*
X35789997Y-65720006I0J140000D01*
G01*
X35789997Y-65440006D01*
G75*
G02*
X35929997Y-65300006I140000J0D01*
G01*
X36269997Y-65300006D01*
G75*
G02*
X36409997Y-65440006I0J-140000D01*
G01*
X36409997Y-65720006D01*
G75*
G02*
X36269997Y-65860006I-140000J0D01*
G01*
G37*
G36*
G01*
X36269997Y-64900006D02*
X35929997Y-64900006D01*
G75*
G02*
X35789997Y-64760006I0J140000D01*
G01*
X35789997Y-64480006D01*
G75*
G02*
X35929997Y-64340006I140000J0D01*
G01*
X36269997Y-64340006D01*
G75*
G02*
X36409997Y-64480006I0J-140000D01*
G01*
X36409997Y-64760006D01*
G75*
G02*
X36269997Y-64900006I-140000J0D01*
G01*
G37*
D11*
X35099997Y-68050006D03*
X35099997Y-69350006D03*
X33099997Y-68700006D03*
G36*
G01*
X32084997Y-65880006D02*
X31714997Y-65880006D01*
G75*
G02*
X31579997Y-65745006I0J135000D01*
G01*
X31579997Y-65475006D01*
G75*
G02*
X31714997Y-65340006I135000J0D01*
G01*
X32084997Y-65340006D01*
G75*
G02*
X32219997Y-65475006I0J-135000D01*
G01*
X32219997Y-65745006D01*
G75*
G02*
X32084997Y-65880006I-135000J0D01*
G01*
G37*
G36*
G01*
X32084997Y-64860006D02*
X31714997Y-64860006D01*
G75*
G02*
X31579997Y-64725006I0J135000D01*
G01*
X31579997Y-64455006D01*
G75*
G02*
X31714997Y-64320006I135000J0D01*
G01*
X32084997Y-64320006D01*
G75*
G02*
X32219997Y-64455006I0J-135000D01*
G01*
X32219997Y-64725006D01*
G75*
G02*
X32084997Y-64860006I-135000J0D01*
G01*
G37*
G36*
G01*
X37129997Y-64340006D02*
X37469997Y-64340006D01*
G75*
G02*
X37609997Y-64480006I0J-140000D01*
G01*
X37609997Y-64760006D01*
G75*
G02*
X37469997Y-64900006I-140000J0D01*
G01*
X37129997Y-64900006D01*
G75*
G02*
X36989997Y-64760006I0J140000D01*
G01*
X36989997Y-64480006D01*
G75*
G02*
X37129997Y-64340006I140000J0D01*
G01*
G37*
G36*
G01*
X37129997Y-65300006D02*
X37469997Y-65300006D01*
G75*
G02*
X37609997Y-65440006I0J-140000D01*
G01*
X37609997Y-65720006D01*
G75*
G02*
X37469997Y-65860006I-140000J0D01*
G01*
X37129997Y-65860006D01*
G75*
G02*
X36989997Y-65720006I0J140000D01*
G01*
X36989997Y-65440006D01*
G75*
G02*
X37129997Y-65300006I140000J0D01*
G01*
G37*
G36*
G01*
X35069997Y-65860006D02*
X34729997Y-65860006D01*
G75*
G02*
X34589997Y-65720006I0J140000D01*
G01*
X34589997Y-65440006D01*
G75*
G02*
X34729997Y-65300006I140000J0D01*
G01*
X35069997Y-65300006D01*
G75*
G02*
X35209997Y-65440006I0J-140000D01*
G01*
X35209997Y-65720006D01*
G75*
G02*
X35069997Y-65860006I-140000J0D01*
G01*
G37*
G36*
G01*
X35069997Y-64900006D02*
X34729997Y-64900006D01*
G75*
G02*
X34589997Y-64760006I0J140000D01*
G01*
X34589997Y-64480006D01*
G75*
G02*
X34729997Y-64340006I140000J0D01*
G01*
X35069997Y-64340006D01*
G75*
G02*
X35209997Y-64480006I0J-140000D01*
G01*
X35209997Y-64760006D01*
G75*
G02*
X35069997Y-64900006I-140000J0D01*
G01*
G37*
D12*
X35249997Y-74200006D03*
X34299997Y-74200006D03*
X33349997Y-74200006D03*
X33349997Y-72000006D03*
X35249997Y-72000006D03*
X39449997Y-70442006D03*
X38499997Y-70442006D03*
X37549997Y-70442006D03*
X37549997Y-68242006D03*
X39449997Y-68242006D03*
G36*
G01*
X54299997Y-67805006D02*
X54299997Y-67505006D01*
G75*
G02*
X54449997Y-67355006I150000J0D01*
G01*
X56099997Y-67355006D01*
G75*
G02*
X56249997Y-67505006I0J-150000D01*
G01*
X56249997Y-67805006D01*
G75*
G02*
X56099997Y-67955006I-150000J0D01*
G01*
X54449997Y-67955006D01*
G75*
G02*
X54299997Y-67805006I0J150000D01*
G01*
G37*
G36*
G01*
X54299997Y-66535006D02*
X54299997Y-66235006D01*
G75*
G02*
X54449997Y-66085006I150000J0D01*
G01*
X56099997Y-66085006D01*
G75*
G02*
X56249997Y-66235006I0J-150000D01*
G01*
X56249997Y-66535006D01*
G75*
G02*
X56099997Y-66685006I-150000J0D01*
G01*
X54449997Y-66685006D01*
G75*
G02*
X54299997Y-66535006I0J150000D01*
G01*
G37*
G36*
G01*
X54299997Y-65265006D02*
X54299997Y-64965006D01*
G75*
G02*
X54449997Y-64815006I150000J0D01*
G01*
X56099997Y-64815006D01*
G75*
G02*
X56249997Y-64965006I0J-150000D01*
G01*
X56249997Y-65265006D01*
G75*
G02*
X56099997Y-65415006I-150000J0D01*
G01*
X54449997Y-65415006D01*
G75*
G02*
X54299997Y-65265006I0J150000D01*
G01*
G37*
G36*
G01*
X54299997Y-63995006D02*
X54299997Y-63695006D01*
G75*
G02*
X54449997Y-63545006I150000J0D01*
G01*
X56099997Y-63545006D01*
G75*
G02*
X56249997Y-63695006I0J-150000D01*
G01*
X56249997Y-63995006D01*
G75*
G02*
X56099997Y-64145006I-150000J0D01*
G01*
X54449997Y-64145006D01*
G75*
G02*
X54299997Y-63995006I0J150000D01*
G01*
G37*
G36*
G01*
X59249997Y-63995006D02*
X59249997Y-63695006D01*
G75*
G02*
X59399997Y-63545006I150000J0D01*
G01*
X61049997Y-63545006D01*
G75*
G02*
X61199997Y-63695006I0J-150000D01*
G01*
X61199997Y-63995006D01*
G75*
G02*
X61049997Y-64145006I-150000J0D01*
G01*
X59399997Y-64145006D01*
G75*
G02*
X59249997Y-63995006I0J150000D01*
G01*
G37*
G36*
G01*
X59249997Y-65265006D02*
X59249997Y-64965006D01*
G75*
G02*
X59399997Y-64815006I150000J0D01*
G01*
X61049997Y-64815006D01*
G75*
G02*
X61199997Y-64965006I0J-150000D01*
G01*
X61199997Y-65265006D01*
G75*
G02*
X61049997Y-65415006I-150000J0D01*
G01*
X59399997Y-65415006D01*
G75*
G02*
X59249997Y-65265006I0J150000D01*
G01*
G37*
G36*
G01*
X59249997Y-66535006D02*
X59249997Y-66235006D01*
G75*
G02*
X59399997Y-66085006I150000J0D01*
G01*
X61049997Y-66085006D01*
G75*
G02*
X61199997Y-66235006I0J-150000D01*
G01*
X61199997Y-66535006D01*
G75*
G02*
X61049997Y-66685006I-150000J0D01*
G01*
X59399997Y-66685006D01*
G75*
G02*
X59249997Y-66535006I0J150000D01*
G01*
G37*
G36*
G01*
X59249997Y-67805006D02*
X59249997Y-67505006D01*
G75*
G02*
X59399997Y-67355006I150000J0D01*
G01*
X61049997Y-67355006D01*
G75*
G02*
X61199997Y-67505006I0J-150000D01*
G01*
X61199997Y-67805006D01*
G75*
G02*
X61049997Y-67955006I-150000J0D01*
G01*
X59399997Y-67955006D01*
G75*
G02*
X59249997Y-67805006I0J150000D01*
G01*
G37*
D13*
X58139997Y-71300006D03*
X54439997Y-71300006D03*
G36*
G01*
X62389997Y-75970006D02*
X62389997Y-75630006D01*
G75*
G02*
X62529997Y-75490006I140000J0D01*
G01*
X62809997Y-75490006D01*
G75*
G02*
X62949997Y-75630006I0J-140000D01*
G01*
X62949997Y-75970006D01*
G75*
G02*
X62809997Y-76110006I-140000J0D01*
G01*
X62529997Y-76110006D01*
G75*
G02*
X62389997Y-75970006I0J140000D01*
G01*
G37*
G36*
G01*
X63349997Y-75970006D02*
X63349997Y-75630006D01*
G75*
G02*
X63489997Y-75490006I140000J0D01*
G01*
X63769997Y-75490006D01*
G75*
G02*
X63909997Y-75630006I0J-140000D01*
G01*
X63909997Y-75970006D01*
G75*
G02*
X63769997Y-76110006I-140000J0D01*
G01*
X63489997Y-76110006D01*
G75*
G02*
X63349997Y-75970006I0J140000D01*
G01*
G37*
G36*
G01*
X64589997Y-76020006D02*
X64589997Y-75680006D01*
G75*
G02*
X64729997Y-75540006I140000J0D01*
G01*
X65009997Y-75540006D01*
G75*
G02*
X65149997Y-75680006I0J-140000D01*
G01*
X65149997Y-76020006D01*
G75*
G02*
X65009997Y-76160006I-140000J0D01*
G01*
X64729997Y-76160006D01*
G75*
G02*
X64589997Y-76020006I0J140000D01*
G01*
G37*
G36*
G01*
X65549997Y-76020006D02*
X65549997Y-75680006D01*
G75*
G02*
X65689997Y-75540006I140000J0D01*
G01*
X65969997Y-75540006D01*
G75*
G02*
X66109997Y-75680006I0J-140000D01*
G01*
X66109997Y-76020006D01*
G75*
G02*
X65969997Y-76160006I-140000J0D01*
G01*
X65689997Y-76160006D01*
G75*
G02*
X65549997Y-76020006I0J140000D01*
G01*
G37*
G36*
G01*
X66304997Y-74950006D02*
X66004997Y-74950006D01*
G75*
G02*
X65854997Y-74800006I0J150000D01*
G01*
X65854997Y-73150006D01*
G75*
G02*
X66004997Y-73000006I150000J0D01*
G01*
X66304997Y-73000006D01*
G75*
G02*
X66454997Y-73150006I0J-150000D01*
G01*
X66454997Y-74800006D01*
G75*
G02*
X66304997Y-74950006I-150000J0D01*
G01*
G37*
G36*
G01*
X65034997Y-74950006D02*
X64734997Y-74950006D01*
G75*
G02*
X64584997Y-74800006I0J150000D01*
G01*
X64584997Y-73150006D01*
G75*
G02*
X64734997Y-73000006I150000J0D01*
G01*
X65034997Y-73000006D01*
G75*
G02*
X65184997Y-73150006I0J-150000D01*
G01*
X65184997Y-74800006D01*
G75*
G02*
X65034997Y-74950006I-150000J0D01*
G01*
G37*
G36*
G01*
X63764997Y-74950006D02*
X63464997Y-74950006D01*
G75*
G02*
X63314997Y-74800006I0J150000D01*
G01*
X63314997Y-73150006D01*
G75*
G02*
X63464997Y-73000006I150000J0D01*
G01*
X63764997Y-73000006D01*
G75*
G02*
X63914997Y-73150006I0J-150000D01*
G01*
X63914997Y-74800006D01*
G75*
G02*
X63764997Y-74950006I-150000J0D01*
G01*
G37*
G36*
G01*
X62494997Y-74950006D02*
X62194997Y-74950006D01*
G75*
G02*
X62044997Y-74800006I0J150000D01*
G01*
X62044997Y-73150006D01*
G75*
G02*
X62194997Y-73000006I150000J0D01*
G01*
X62494997Y-73000006D01*
G75*
G02*
X62644997Y-73150006I0J-150000D01*
G01*
X62644997Y-74800006D01*
G75*
G02*
X62494997Y-74950006I-150000J0D01*
G01*
G37*
G36*
G01*
X62494997Y-70000006D02*
X62194997Y-70000006D01*
G75*
G02*
X62044997Y-69850006I0J150000D01*
G01*
X62044997Y-68200006D01*
G75*
G02*
X62194997Y-68050006I150000J0D01*
G01*
X62494997Y-68050006D01*
G75*
G02*
X62644997Y-68200006I0J-150000D01*
G01*
X62644997Y-69850006D01*
G75*
G02*
X62494997Y-70000006I-150000J0D01*
G01*
G37*
G36*
G01*
X63764997Y-70000006D02*
X63464997Y-70000006D01*
G75*
G02*
X63314997Y-69850006I0J150000D01*
G01*
X63314997Y-68200006D01*
G75*
G02*
X63464997Y-68050006I150000J0D01*
G01*
X63764997Y-68050006D01*
G75*
G02*
X63914997Y-68200006I0J-150000D01*
G01*
X63914997Y-69850006D01*
G75*
G02*
X63764997Y-70000006I-150000J0D01*
G01*
G37*
G36*
G01*
X65034997Y-70000006D02*
X64734997Y-70000006D01*
G75*
G02*
X64584997Y-69850006I0J150000D01*
G01*
X64584997Y-68200006D01*
G75*
G02*
X64734997Y-68050006I150000J0D01*
G01*
X65034997Y-68050006D01*
G75*
G02*
X65184997Y-68200006I0J-150000D01*
G01*
X65184997Y-69850006D01*
G75*
G02*
X65034997Y-70000006I-150000J0D01*
G01*
G37*
G36*
G01*
X66304997Y-70000006D02*
X66004997Y-70000006D01*
G75*
G02*
X65854997Y-69850006I0J150000D01*
G01*
X65854997Y-68200006D01*
G75*
G02*
X66004997Y-68050006I150000J0D01*
G01*
X66304997Y-68050006D01*
G75*
G02*
X66454997Y-68200006I0J-150000D01*
G01*
X66454997Y-69850006D01*
G75*
G02*
X66304997Y-70000006I-150000J0D01*
G01*
G37*
D10*
X100250006Y-47799997D03*
X100250006Y-48449997D03*
X100250006Y-49099997D03*
X100250006Y-49749997D03*
X100250006Y-50399997D03*
X100250006Y-51049997D03*
X100250006Y-51699997D03*
X94350006Y-51699997D03*
X94350006Y-51049997D03*
X94350006Y-50399997D03*
X94350006Y-49749997D03*
X94350006Y-49099997D03*
X94350006Y-48449997D03*
X94350006Y-47799997D03*
G36*
G01*
X110177506Y-50447997D02*
X110522506Y-50447997D01*
G75*
G02*
X110670006Y-50595497I0J-147500D01*
G01*
X110670006Y-50890497D01*
G75*
G02*
X110522506Y-51037997I-147500J0D01*
G01*
X110177506Y-51037997D01*
G75*
G02*
X110030006Y-50890497I0J147500D01*
G01*
X110030006Y-50595497D01*
G75*
G02*
X110177506Y-50447997I147500J0D01*
G01*
G37*
G36*
G01*
X110177506Y-51417997D02*
X110522506Y-51417997D01*
G75*
G02*
X110670006Y-51565497I0J-147500D01*
G01*
X110670006Y-51860497D01*
G75*
G02*
X110522506Y-52007997I-147500J0D01*
G01*
X110177506Y-52007997D01*
G75*
G02*
X110030006Y-51860497I0J147500D01*
G01*
X110030006Y-51565497D01*
G75*
G02*
X110177506Y-51417997I147500J0D01*
G01*
G37*
G36*
G01*
X102398506Y-52007997D02*
X102053506Y-52007997D01*
G75*
G02*
X101906006Y-51860497I0J147500D01*
G01*
X101906006Y-51565497D01*
G75*
G02*
X102053506Y-51417997I147500J0D01*
G01*
X102398506Y-51417997D01*
G75*
G02*
X102546006Y-51565497I0J-147500D01*
G01*
X102546006Y-51860497D01*
G75*
G02*
X102398506Y-52007997I-147500J0D01*
G01*
G37*
G36*
G01*
X102398506Y-51037997D02*
X102053506Y-51037997D01*
G75*
G02*
X101906006Y-50890497I0J147500D01*
G01*
X101906006Y-50595497D01*
G75*
G02*
X102053506Y-50447997I147500J0D01*
G01*
X102398506Y-50447997D01*
G75*
G02*
X102546006Y-50595497I0J-147500D01*
G01*
X102546006Y-50890497D01*
G75*
G02*
X102398506Y-51037997I-147500J0D01*
G01*
G37*
G36*
G01*
X90672506Y-45794997D02*
X90327506Y-45794997D01*
G75*
G02*
X90180006Y-45647497I0J147500D01*
G01*
X90180006Y-45352497D01*
G75*
G02*
X90327506Y-45204997I147500J0D01*
G01*
X90672506Y-45204997D01*
G75*
G02*
X90820006Y-45352497I0J-147500D01*
G01*
X90820006Y-45647497D01*
G75*
G02*
X90672506Y-45794997I-147500J0D01*
G01*
G37*
G36*
G01*
X90672506Y-44824997D02*
X90327506Y-44824997D01*
G75*
G02*
X90180006Y-44677497I0J147500D01*
G01*
X90180006Y-44382497D01*
G75*
G02*
X90327506Y-44234997I147500J0D01*
G01*
X90672506Y-44234997D01*
G75*
G02*
X90820006Y-44382497I0J-147500D01*
G01*
X90820006Y-44677497D01*
G75*
G02*
X90672506Y-44824997I-147500J0D01*
G01*
G37*
G36*
G01*
X89950006Y-53624997D02*
X89950006Y-54574997D01*
G75*
G02*
X89700006Y-54824997I-250000J0D01*
G01*
X89200006Y-54824997D01*
G75*
G02*
X88950006Y-54574997I0J250000D01*
G01*
X88950006Y-53624997D01*
G75*
G02*
X89200006Y-53374997I250000J0D01*
G01*
X89700006Y-53374997D01*
G75*
G02*
X89950006Y-53624997I0J-250000D01*
G01*
G37*
G36*
G01*
X88050006Y-53624997D02*
X88050006Y-54574997D01*
G75*
G02*
X87800006Y-54824997I-250000J0D01*
G01*
X87300006Y-54824997D01*
G75*
G02*
X87050006Y-54574997I0J250000D01*
G01*
X87050006Y-53624997D01*
G75*
G02*
X87300006Y-53374997I250000J0D01*
G01*
X87800006Y-53374997D01*
G75*
G02*
X88050006Y-53624997I0J-250000D01*
G01*
G37*
G36*
G01*
X86270006Y-45859997D02*
X85930006Y-45859997D01*
G75*
G02*
X85790006Y-45719997I0J140000D01*
G01*
X85790006Y-45439997D01*
G75*
G02*
X85930006Y-45299997I140000J0D01*
G01*
X86270006Y-45299997D01*
G75*
G02*
X86410006Y-45439997I0J-140000D01*
G01*
X86410006Y-45719997D01*
G75*
G02*
X86270006Y-45859997I-140000J0D01*
G01*
G37*
G36*
G01*
X86270006Y-44899997D02*
X85930006Y-44899997D01*
G75*
G02*
X85790006Y-44759997I0J140000D01*
G01*
X85790006Y-44479997D01*
G75*
G02*
X85930006Y-44339997I140000J0D01*
G01*
X86270006Y-44339997D01*
G75*
G02*
X86410006Y-44479997I0J-140000D01*
G01*
X86410006Y-44759997D01*
G75*
G02*
X86270006Y-44899997I-140000J0D01*
G01*
G37*
D11*
X85100006Y-48049997D03*
X85100006Y-49349997D03*
X83100006Y-48699997D03*
G36*
G01*
X82085006Y-45879997D02*
X81715006Y-45879997D01*
G75*
G02*
X81580006Y-45744997I0J135000D01*
G01*
X81580006Y-45474997D01*
G75*
G02*
X81715006Y-45339997I135000J0D01*
G01*
X82085006Y-45339997D01*
G75*
G02*
X82220006Y-45474997I0J-135000D01*
G01*
X82220006Y-45744997D01*
G75*
G02*
X82085006Y-45879997I-135000J0D01*
G01*
G37*
G36*
G01*
X82085006Y-44859997D02*
X81715006Y-44859997D01*
G75*
G02*
X81580006Y-44724997I0J135000D01*
G01*
X81580006Y-44454997D01*
G75*
G02*
X81715006Y-44319997I135000J0D01*
G01*
X82085006Y-44319997D01*
G75*
G02*
X82220006Y-44454997I0J-135000D01*
G01*
X82220006Y-44724997D01*
G75*
G02*
X82085006Y-44859997I-135000J0D01*
G01*
G37*
G36*
G01*
X87130006Y-44339997D02*
X87470006Y-44339997D01*
G75*
G02*
X87610006Y-44479997I0J-140000D01*
G01*
X87610006Y-44759997D01*
G75*
G02*
X87470006Y-44899997I-140000J0D01*
G01*
X87130006Y-44899997D01*
G75*
G02*
X86990006Y-44759997I0J140000D01*
G01*
X86990006Y-44479997D01*
G75*
G02*
X87130006Y-44339997I140000J0D01*
G01*
G37*
G36*
G01*
X87130006Y-45299997D02*
X87470006Y-45299997D01*
G75*
G02*
X87610006Y-45439997I0J-140000D01*
G01*
X87610006Y-45719997D01*
G75*
G02*
X87470006Y-45859997I-140000J0D01*
G01*
X87130006Y-45859997D01*
G75*
G02*
X86990006Y-45719997I0J140000D01*
G01*
X86990006Y-45439997D01*
G75*
G02*
X87130006Y-45299997I140000J0D01*
G01*
G37*
G36*
G01*
X85070006Y-45859997D02*
X84730006Y-45859997D01*
G75*
G02*
X84590006Y-45719997I0J140000D01*
G01*
X84590006Y-45439997D01*
G75*
G02*
X84730006Y-45299997I140000J0D01*
G01*
X85070006Y-45299997D01*
G75*
G02*
X85210006Y-45439997I0J-140000D01*
G01*
X85210006Y-45719997D01*
G75*
G02*
X85070006Y-45859997I-140000J0D01*
G01*
G37*
G36*
G01*
X85070006Y-44899997D02*
X84730006Y-44899997D01*
G75*
G02*
X84590006Y-44759997I0J140000D01*
G01*
X84590006Y-44479997D01*
G75*
G02*
X84730006Y-44339997I140000J0D01*
G01*
X85070006Y-44339997D01*
G75*
G02*
X85210006Y-44479997I0J-140000D01*
G01*
X85210006Y-44759997D01*
G75*
G02*
X85070006Y-44899997I-140000J0D01*
G01*
G37*
D12*
X85250006Y-54199997D03*
X84300006Y-54199997D03*
X83350006Y-54199997D03*
X83350006Y-51999997D03*
X85250006Y-51999997D03*
X89450006Y-50441997D03*
X88500006Y-50441997D03*
X87550006Y-50441997D03*
X87550006Y-48241997D03*
X89450006Y-48241997D03*
G36*
G01*
X104300006Y-47804997D02*
X104300006Y-47504997D01*
G75*
G02*
X104450006Y-47354997I150000J0D01*
G01*
X106100006Y-47354997D01*
G75*
G02*
X106250006Y-47504997I0J-150000D01*
G01*
X106250006Y-47804997D01*
G75*
G02*
X106100006Y-47954997I-150000J0D01*
G01*
X104450006Y-47954997D01*
G75*
G02*
X104300006Y-47804997I0J150000D01*
G01*
G37*
G36*
G01*
X104300006Y-46534997D02*
X104300006Y-46234997D01*
G75*
G02*
X104450006Y-46084997I150000J0D01*
G01*
X106100006Y-46084997D01*
G75*
G02*
X106250006Y-46234997I0J-150000D01*
G01*
X106250006Y-46534997D01*
G75*
G02*
X106100006Y-46684997I-150000J0D01*
G01*
X104450006Y-46684997D01*
G75*
G02*
X104300006Y-46534997I0J150000D01*
G01*
G37*
G36*
G01*
X104300006Y-45264997D02*
X104300006Y-44964997D01*
G75*
G02*
X104450006Y-44814997I150000J0D01*
G01*
X106100006Y-44814997D01*
G75*
G02*
X106250006Y-44964997I0J-150000D01*
G01*
X106250006Y-45264997D01*
G75*
G02*
X106100006Y-45414997I-150000J0D01*
G01*
X104450006Y-45414997D01*
G75*
G02*
X104300006Y-45264997I0J150000D01*
G01*
G37*
G36*
G01*
X104300006Y-43994997D02*
X104300006Y-43694997D01*
G75*
G02*
X104450006Y-43544997I150000J0D01*
G01*
X106100006Y-43544997D01*
G75*
G02*
X106250006Y-43694997I0J-150000D01*
G01*
X106250006Y-43994997D01*
G75*
G02*
X106100006Y-44144997I-150000J0D01*
G01*
X104450006Y-44144997D01*
G75*
G02*
X104300006Y-43994997I0J150000D01*
G01*
G37*
G36*
G01*
X109250006Y-43994997D02*
X109250006Y-43694997D01*
G75*
G02*
X109400006Y-43544997I150000J0D01*
G01*
X111050006Y-43544997D01*
G75*
G02*
X111200006Y-43694997I0J-150000D01*
G01*
X111200006Y-43994997D01*
G75*
G02*
X111050006Y-44144997I-150000J0D01*
G01*
X109400006Y-44144997D01*
G75*
G02*
X109250006Y-43994997I0J150000D01*
G01*
G37*
G36*
G01*
X109250006Y-45264997D02*
X109250006Y-44964997D01*
G75*
G02*
X109400006Y-44814997I150000J0D01*
G01*
X111050006Y-44814997D01*
G75*
G02*
X111200006Y-44964997I0J-150000D01*
G01*
X111200006Y-45264997D01*
G75*
G02*
X111050006Y-45414997I-150000J0D01*
G01*
X109400006Y-45414997D01*
G75*
G02*
X109250006Y-45264997I0J150000D01*
G01*
G37*
G36*
G01*
X109250006Y-46534997D02*
X109250006Y-46234997D01*
G75*
G02*
X109400006Y-46084997I150000J0D01*
G01*
X111050006Y-46084997D01*
G75*
G02*
X111200006Y-46234997I0J-150000D01*
G01*
X111200006Y-46534997D01*
G75*
G02*
X111050006Y-46684997I-150000J0D01*
G01*
X109400006Y-46684997D01*
G75*
G02*
X109250006Y-46534997I0J150000D01*
G01*
G37*
G36*
G01*
X109250006Y-47804997D02*
X109250006Y-47504997D01*
G75*
G02*
X109400006Y-47354997I150000J0D01*
G01*
X111050006Y-47354997D01*
G75*
G02*
X111200006Y-47504997I0J-150000D01*
G01*
X111200006Y-47804997D01*
G75*
G02*
X111050006Y-47954997I-150000J0D01*
G01*
X109400006Y-47954997D01*
G75*
G02*
X109250006Y-47804997I0J150000D01*
G01*
G37*
D13*
X108140006Y-51299997D03*
X104440006Y-51299997D03*
G36*
G01*
X112390006Y-55969997D02*
X112390006Y-55629997D01*
G75*
G02*
X112530006Y-55489997I140000J0D01*
G01*
X112810006Y-55489997D01*
G75*
G02*
X112950006Y-55629997I0J-140000D01*
G01*
X112950006Y-55969997D01*
G75*
G02*
X112810006Y-56109997I-140000J0D01*
G01*
X112530006Y-56109997D01*
G75*
G02*
X112390006Y-55969997I0J140000D01*
G01*
G37*
G36*
G01*
X113350006Y-55969997D02*
X113350006Y-55629997D01*
G75*
G02*
X113490006Y-55489997I140000J0D01*
G01*
X113770006Y-55489997D01*
G75*
G02*
X113910006Y-55629997I0J-140000D01*
G01*
X113910006Y-55969997D01*
G75*
G02*
X113770006Y-56109997I-140000J0D01*
G01*
X113490006Y-56109997D01*
G75*
G02*
X113350006Y-55969997I0J140000D01*
G01*
G37*
G36*
G01*
X114590006Y-56019997D02*
X114590006Y-55679997D01*
G75*
G02*
X114730006Y-55539997I140000J0D01*
G01*
X115010006Y-55539997D01*
G75*
G02*
X115150006Y-55679997I0J-140000D01*
G01*
X115150006Y-56019997D01*
G75*
G02*
X115010006Y-56159997I-140000J0D01*
G01*
X114730006Y-56159997D01*
G75*
G02*
X114590006Y-56019997I0J140000D01*
G01*
G37*
G36*
G01*
X115550006Y-56019997D02*
X115550006Y-55679997D01*
G75*
G02*
X115690006Y-55539997I140000J0D01*
G01*
X115970006Y-55539997D01*
G75*
G02*
X116110006Y-55679997I0J-140000D01*
G01*
X116110006Y-56019997D01*
G75*
G02*
X115970006Y-56159997I-140000J0D01*
G01*
X115690006Y-56159997D01*
G75*
G02*
X115550006Y-56019997I0J140000D01*
G01*
G37*
G36*
G01*
X116305006Y-54949997D02*
X116005006Y-54949997D01*
G75*
G02*
X115855006Y-54799997I0J150000D01*
G01*
X115855006Y-53149997D01*
G75*
G02*
X116005006Y-52999997I150000J0D01*
G01*
X116305006Y-52999997D01*
G75*
G02*
X116455006Y-53149997I0J-150000D01*
G01*
X116455006Y-54799997D01*
G75*
G02*
X116305006Y-54949997I-150000J0D01*
G01*
G37*
G36*
G01*
X115035006Y-54949997D02*
X114735006Y-54949997D01*
G75*
G02*
X114585006Y-54799997I0J150000D01*
G01*
X114585006Y-53149997D01*
G75*
G02*
X114735006Y-52999997I150000J0D01*
G01*
X115035006Y-52999997D01*
G75*
G02*
X115185006Y-53149997I0J-150000D01*
G01*
X115185006Y-54799997D01*
G75*
G02*
X115035006Y-54949997I-150000J0D01*
G01*
G37*
G36*
G01*
X113765006Y-54949997D02*
X113465006Y-54949997D01*
G75*
G02*
X113315006Y-54799997I0J150000D01*
G01*
X113315006Y-53149997D01*
G75*
G02*
X113465006Y-52999997I150000J0D01*
G01*
X113765006Y-52999997D01*
G75*
G02*
X113915006Y-53149997I0J-150000D01*
G01*
X113915006Y-54799997D01*
G75*
G02*
X113765006Y-54949997I-150000J0D01*
G01*
G37*
G36*
G01*
X112495006Y-54949997D02*
X112195006Y-54949997D01*
G75*
G02*
X112045006Y-54799997I0J150000D01*
G01*
X112045006Y-53149997D01*
G75*
G02*
X112195006Y-52999997I150000J0D01*
G01*
X112495006Y-52999997D01*
G75*
G02*
X112645006Y-53149997I0J-150000D01*
G01*
X112645006Y-54799997D01*
G75*
G02*
X112495006Y-54949997I-150000J0D01*
G01*
G37*
G36*
G01*
X112495006Y-49999997D02*
X112195006Y-49999997D01*
G75*
G02*
X112045006Y-49849997I0J150000D01*
G01*
X112045006Y-48199997D01*
G75*
G02*
X112195006Y-48049997I150000J0D01*
G01*
X112495006Y-48049997D01*
G75*
G02*
X112645006Y-48199997I0J-150000D01*
G01*
X112645006Y-49849997D01*
G75*
G02*
X112495006Y-49999997I-150000J0D01*
G01*
G37*
G36*
G01*
X113765006Y-49999997D02*
X113465006Y-49999997D01*
G75*
G02*
X113315006Y-49849997I0J150000D01*
G01*
X113315006Y-48199997D01*
G75*
G02*
X113465006Y-48049997I150000J0D01*
G01*
X113765006Y-48049997D01*
G75*
G02*
X113915006Y-48199997I0J-150000D01*
G01*
X113915006Y-49849997D01*
G75*
G02*
X113765006Y-49999997I-150000J0D01*
G01*
G37*
G36*
G01*
X115035006Y-49999997D02*
X114735006Y-49999997D01*
G75*
G02*
X114585006Y-49849997I0J150000D01*
G01*
X114585006Y-48199997D01*
G75*
G02*
X114735006Y-48049997I150000J0D01*
G01*
X115035006Y-48049997D01*
G75*
G02*
X115185006Y-48199997I0J-150000D01*
G01*
X115185006Y-49849997D01*
G75*
G02*
X115035006Y-49999997I-150000J0D01*
G01*
G37*
G36*
G01*
X116305006Y-49999997D02*
X116005006Y-49999997D01*
G75*
G02*
X115855006Y-49849997I0J150000D01*
G01*
X115855006Y-48199997D01*
G75*
G02*
X116005006Y-48049997I150000J0D01*
G01*
X116305006Y-48049997D01*
G75*
G02*
X116455006Y-48199997I0J-150000D01*
G01*
X116455006Y-49849997D01*
G75*
G02*
X116305006Y-49999997I-150000J0D01*
G01*
G37*
D10*
X50249997Y-47799997D03*
X50249997Y-48449997D03*
X50249997Y-49099997D03*
X50249997Y-49749997D03*
X50249997Y-50399997D03*
X50249997Y-51049997D03*
X50249997Y-51699997D03*
X44349997Y-51699997D03*
X44349997Y-51049997D03*
X44349997Y-50399997D03*
X44349997Y-49749997D03*
X44349997Y-49099997D03*
X44349997Y-48449997D03*
X44349997Y-47799997D03*
G36*
G01*
X60177497Y-50447997D02*
X60522497Y-50447997D01*
G75*
G02*
X60669997Y-50595497I0J-147500D01*
G01*
X60669997Y-50890497D01*
G75*
G02*
X60522497Y-51037997I-147500J0D01*
G01*
X60177497Y-51037997D01*
G75*
G02*
X60029997Y-50890497I0J147500D01*
G01*
X60029997Y-50595497D01*
G75*
G02*
X60177497Y-50447997I147500J0D01*
G01*
G37*
G36*
G01*
X60177497Y-51417997D02*
X60522497Y-51417997D01*
G75*
G02*
X60669997Y-51565497I0J-147500D01*
G01*
X60669997Y-51860497D01*
G75*
G02*
X60522497Y-52007997I-147500J0D01*
G01*
X60177497Y-52007997D01*
G75*
G02*
X60029997Y-51860497I0J147500D01*
G01*
X60029997Y-51565497D01*
G75*
G02*
X60177497Y-51417997I147500J0D01*
G01*
G37*
G36*
G01*
X52398497Y-52007997D02*
X52053497Y-52007997D01*
G75*
G02*
X51905997Y-51860497I0J147500D01*
G01*
X51905997Y-51565497D01*
G75*
G02*
X52053497Y-51417997I147500J0D01*
G01*
X52398497Y-51417997D01*
G75*
G02*
X52545997Y-51565497I0J-147500D01*
G01*
X52545997Y-51860497D01*
G75*
G02*
X52398497Y-52007997I-147500J0D01*
G01*
G37*
G36*
G01*
X52398497Y-51037997D02*
X52053497Y-51037997D01*
G75*
G02*
X51905997Y-50890497I0J147500D01*
G01*
X51905997Y-50595497D01*
G75*
G02*
X52053497Y-50447997I147500J0D01*
G01*
X52398497Y-50447997D01*
G75*
G02*
X52545997Y-50595497I0J-147500D01*
G01*
X52545997Y-50890497D01*
G75*
G02*
X52398497Y-51037997I-147500J0D01*
G01*
G37*
G36*
G01*
X40672497Y-45794997D02*
X40327497Y-45794997D01*
G75*
G02*
X40179997Y-45647497I0J147500D01*
G01*
X40179997Y-45352497D01*
G75*
G02*
X40327497Y-45204997I147500J0D01*
G01*
X40672497Y-45204997D01*
G75*
G02*
X40819997Y-45352497I0J-147500D01*
G01*
X40819997Y-45647497D01*
G75*
G02*
X40672497Y-45794997I-147500J0D01*
G01*
G37*
G36*
G01*
X40672497Y-44824997D02*
X40327497Y-44824997D01*
G75*
G02*
X40179997Y-44677497I0J147500D01*
G01*
X40179997Y-44382497D01*
G75*
G02*
X40327497Y-44234997I147500J0D01*
G01*
X40672497Y-44234997D01*
G75*
G02*
X40819997Y-44382497I0J-147500D01*
G01*
X40819997Y-44677497D01*
G75*
G02*
X40672497Y-44824997I-147500J0D01*
G01*
G37*
G36*
G01*
X39949997Y-53624997D02*
X39949997Y-54574997D01*
G75*
G02*
X39699997Y-54824997I-250000J0D01*
G01*
X39199997Y-54824997D01*
G75*
G02*
X38949997Y-54574997I0J250000D01*
G01*
X38949997Y-53624997D01*
G75*
G02*
X39199997Y-53374997I250000J0D01*
G01*
X39699997Y-53374997D01*
G75*
G02*
X39949997Y-53624997I0J-250000D01*
G01*
G37*
G36*
G01*
X38049997Y-53624997D02*
X38049997Y-54574997D01*
G75*
G02*
X37799997Y-54824997I-250000J0D01*
G01*
X37299997Y-54824997D01*
G75*
G02*
X37049997Y-54574997I0J250000D01*
G01*
X37049997Y-53624997D01*
G75*
G02*
X37299997Y-53374997I250000J0D01*
G01*
X37799997Y-53374997D01*
G75*
G02*
X38049997Y-53624997I0J-250000D01*
G01*
G37*
G36*
G01*
X36269997Y-45859997D02*
X35929997Y-45859997D01*
G75*
G02*
X35789997Y-45719997I0J140000D01*
G01*
X35789997Y-45439997D01*
G75*
G02*
X35929997Y-45299997I140000J0D01*
G01*
X36269997Y-45299997D01*
G75*
G02*
X36409997Y-45439997I0J-140000D01*
G01*
X36409997Y-45719997D01*
G75*
G02*
X36269997Y-45859997I-140000J0D01*
G01*
G37*
G36*
G01*
X36269997Y-44899997D02*
X35929997Y-44899997D01*
G75*
G02*
X35789997Y-44759997I0J140000D01*
G01*
X35789997Y-44479997D01*
G75*
G02*
X35929997Y-44339997I140000J0D01*
G01*
X36269997Y-44339997D01*
G75*
G02*
X36409997Y-44479997I0J-140000D01*
G01*
X36409997Y-44759997D01*
G75*
G02*
X36269997Y-44899997I-140000J0D01*
G01*
G37*
D11*
X35099997Y-48049997D03*
X35099997Y-49349997D03*
X33099997Y-48699997D03*
G36*
G01*
X32084997Y-45879997D02*
X31714997Y-45879997D01*
G75*
G02*
X31579997Y-45744997I0J135000D01*
G01*
X31579997Y-45474997D01*
G75*
G02*
X31714997Y-45339997I135000J0D01*
G01*
X32084997Y-45339997D01*
G75*
G02*
X32219997Y-45474997I0J-135000D01*
G01*
X32219997Y-45744997D01*
G75*
G02*
X32084997Y-45879997I-135000J0D01*
G01*
G37*
G36*
G01*
X32084997Y-44859997D02*
X31714997Y-44859997D01*
G75*
G02*
X31579997Y-44724997I0J135000D01*
G01*
X31579997Y-44454997D01*
G75*
G02*
X31714997Y-44319997I135000J0D01*
G01*
X32084997Y-44319997D01*
G75*
G02*
X32219997Y-44454997I0J-135000D01*
G01*
X32219997Y-44724997D01*
G75*
G02*
X32084997Y-44859997I-135000J0D01*
G01*
G37*
G36*
G01*
X37129997Y-44339997D02*
X37469997Y-44339997D01*
G75*
G02*
X37609997Y-44479997I0J-140000D01*
G01*
X37609997Y-44759997D01*
G75*
G02*
X37469997Y-44899997I-140000J0D01*
G01*
X37129997Y-44899997D01*
G75*
G02*
X36989997Y-44759997I0J140000D01*
G01*
X36989997Y-44479997D01*
G75*
G02*
X37129997Y-44339997I140000J0D01*
G01*
G37*
G36*
G01*
X37129997Y-45299997D02*
X37469997Y-45299997D01*
G75*
G02*
X37609997Y-45439997I0J-140000D01*
G01*
X37609997Y-45719997D01*
G75*
G02*
X37469997Y-45859997I-140000J0D01*
G01*
X37129997Y-45859997D01*
G75*
G02*
X36989997Y-45719997I0J140000D01*
G01*
X36989997Y-45439997D01*
G75*
G02*
X37129997Y-45299997I140000J0D01*
G01*
G37*
G36*
G01*
X35069997Y-45859997D02*
X34729997Y-45859997D01*
G75*
G02*
X34589997Y-45719997I0J140000D01*
G01*
X34589997Y-45439997D01*
G75*
G02*
X34729997Y-45299997I140000J0D01*
G01*
X35069997Y-45299997D01*
G75*
G02*
X35209997Y-45439997I0J-140000D01*
G01*
X35209997Y-45719997D01*
G75*
G02*
X35069997Y-45859997I-140000J0D01*
G01*
G37*
G36*
G01*
X35069997Y-44899997D02*
X34729997Y-44899997D01*
G75*
G02*
X34589997Y-44759997I0J140000D01*
G01*
X34589997Y-44479997D01*
G75*
G02*
X34729997Y-44339997I140000J0D01*
G01*
X35069997Y-44339997D01*
G75*
G02*
X35209997Y-44479997I0J-140000D01*
G01*
X35209997Y-44759997D01*
G75*
G02*
X35069997Y-44899997I-140000J0D01*
G01*
G37*
D12*
X35249997Y-54199997D03*
X34299997Y-54199997D03*
X33349997Y-54199997D03*
X33349997Y-51999997D03*
X35249997Y-51999997D03*
X39449997Y-50441997D03*
X38499997Y-50441997D03*
X37549997Y-50441997D03*
X37549997Y-48241997D03*
X39449997Y-48241997D03*
G36*
G01*
X54299997Y-47804997D02*
X54299997Y-47504997D01*
G75*
G02*
X54449997Y-47354997I150000J0D01*
G01*
X56099997Y-47354997D01*
G75*
G02*
X56249997Y-47504997I0J-150000D01*
G01*
X56249997Y-47804997D01*
G75*
G02*
X56099997Y-47954997I-150000J0D01*
G01*
X54449997Y-47954997D01*
G75*
G02*
X54299997Y-47804997I0J150000D01*
G01*
G37*
G36*
G01*
X54299997Y-46534997D02*
X54299997Y-46234997D01*
G75*
G02*
X54449997Y-46084997I150000J0D01*
G01*
X56099997Y-46084997D01*
G75*
G02*
X56249997Y-46234997I0J-150000D01*
G01*
X56249997Y-46534997D01*
G75*
G02*
X56099997Y-46684997I-150000J0D01*
G01*
X54449997Y-46684997D01*
G75*
G02*
X54299997Y-46534997I0J150000D01*
G01*
G37*
G36*
G01*
X54299997Y-45264997D02*
X54299997Y-44964997D01*
G75*
G02*
X54449997Y-44814997I150000J0D01*
G01*
X56099997Y-44814997D01*
G75*
G02*
X56249997Y-44964997I0J-150000D01*
G01*
X56249997Y-45264997D01*
G75*
G02*
X56099997Y-45414997I-150000J0D01*
G01*
X54449997Y-45414997D01*
G75*
G02*
X54299997Y-45264997I0J150000D01*
G01*
G37*
G36*
G01*
X54299997Y-43994997D02*
X54299997Y-43694997D01*
G75*
G02*
X54449997Y-43544997I150000J0D01*
G01*
X56099997Y-43544997D01*
G75*
G02*
X56249997Y-43694997I0J-150000D01*
G01*
X56249997Y-43994997D01*
G75*
G02*
X56099997Y-44144997I-150000J0D01*
G01*
X54449997Y-44144997D01*
G75*
G02*
X54299997Y-43994997I0J150000D01*
G01*
G37*
G36*
G01*
X59249997Y-43994997D02*
X59249997Y-43694997D01*
G75*
G02*
X59399997Y-43544997I150000J0D01*
G01*
X61049997Y-43544997D01*
G75*
G02*
X61199997Y-43694997I0J-150000D01*
G01*
X61199997Y-43994997D01*
G75*
G02*
X61049997Y-44144997I-150000J0D01*
G01*
X59399997Y-44144997D01*
G75*
G02*
X59249997Y-43994997I0J150000D01*
G01*
G37*
G36*
G01*
X59249997Y-45264997D02*
X59249997Y-44964997D01*
G75*
G02*
X59399997Y-44814997I150000J0D01*
G01*
X61049997Y-44814997D01*
G75*
G02*
X61199997Y-44964997I0J-150000D01*
G01*
X61199997Y-45264997D01*
G75*
G02*
X61049997Y-45414997I-150000J0D01*
G01*
X59399997Y-45414997D01*
G75*
G02*
X59249997Y-45264997I0J150000D01*
G01*
G37*
G36*
G01*
X59249997Y-46534997D02*
X59249997Y-46234997D01*
G75*
G02*
X59399997Y-46084997I150000J0D01*
G01*
X61049997Y-46084997D01*
G75*
G02*
X61199997Y-46234997I0J-150000D01*
G01*
X61199997Y-46534997D01*
G75*
G02*
X61049997Y-46684997I-150000J0D01*
G01*
X59399997Y-46684997D01*
G75*
G02*
X59249997Y-46534997I0J150000D01*
G01*
G37*
G36*
G01*
X59249997Y-47804997D02*
X59249997Y-47504997D01*
G75*
G02*
X59399997Y-47354997I150000J0D01*
G01*
X61049997Y-47354997D01*
G75*
G02*
X61199997Y-47504997I0J-150000D01*
G01*
X61199997Y-47804997D01*
G75*
G02*
X61049997Y-47954997I-150000J0D01*
G01*
X59399997Y-47954997D01*
G75*
G02*
X59249997Y-47804997I0J150000D01*
G01*
G37*
D13*
X58139997Y-51299997D03*
X54439997Y-51299997D03*
G36*
G01*
X62389997Y-55969997D02*
X62389997Y-55629997D01*
G75*
G02*
X62529997Y-55489997I140000J0D01*
G01*
X62809997Y-55489997D01*
G75*
G02*
X62949997Y-55629997I0J-140000D01*
G01*
X62949997Y-55969997D01*
G75*
G02*
X62809997Y-56109997I-140000J0D01*
G01*
X62529997Y-56109997D01*
G75*
G02*
X62389997Y-55969997I0J140000D01*
G01*
G37*
G36*
G01*
X63349997Y-55969997D02*
X63349997Y-55629997D01*
G75*
G02*
X63489997Y-55489997I140000J0D01*
G01*
X63769997Y-55489997D01*
G75*
G02*
X63909997Y-55629997I0J-140000D01*
G01*
X63909997Y-55969997D01*
G75*
G02*
X63769997Y-56109997I-140000J0D01*
G01*
X63489997Y-56109997D01*
G75*
G02*
X63349997Y-55969997I0J140000D01*
G01*
G37*
G36*
G01*
X64589997Y-56019997D02*
X64589997Y-55679997D01*
G75*
G02*
X64729997Y-55539997I140000J0D01*
G01*
X65009997Y-55539997D01*
G75*
G02*
X65149997Y-55679997I0J-140000D01*
G01*
X65149997Y-56019997D01*
G75*
G02*
X65009997Y-56159997I-140000J0D01*
G01*
X64729997Y-56159997D01*
G75*
G02*
X64589997Y-56019997I0J140000D01*
G01*
G37*
G36*
G01*
X65549997Y-56019997D02*
X65549997Y-55679997D01*
G75*
G02*
X65689997Y-55539997I140000J0D01*
G01*
X65969997Y-55539997D01*
G75*
G02*
X66109997Y-55679997I0J-140000D01*
G01*
X66109997Y-56019997D01*
G75*
G02*
X65969997Y-56159997I-140000J0D01*
G01*
X65689997Y-56159997D01*
G75*
G02*
X65549997Y-56019997I0J140000D01*
G01*
G37*
G36*
G01*
X66304997Y-54949997D02*
X66004997Y-54949997D01*
G75*
G02*
X65854997Y-54799997I0J150000D01*
G01*
X65854997Y-53149997D01*
G75*
G02*
X66004997Y-52999997I150000J0D01*
G01*
X66304997Y-52999997D01*
G75*
G02*
X66454997Y-53149997I0J-150000D01*
G01*
X66454997Y-54799997D01*
G75*
G02*
X66304997Y-54949997I-150000J0D01*
G01*
G37*
G36*
G01*
X65034997Y-54949997D02*
X64734997Y-54949997D01*
G75*
G02*
X64584997Y-54799997I0J150000D01*
G01*
X64584997Y-53149997D01*
G75*
G02*
X64734997Y-52999997I150000J0D01*
G01*
X65034997Y-52999997D01*
G75*
G02*
X65184997Y-53149997I0J-150000D01*
G01*
X65184997Y-54799997D01*
G75*
G02*
X65034997Y-54949997I-150000J0D01*
G01*
G37*
G36*
G01*
X63764997Y-54949997D02*
X63464997Y-54949997D01*
G75*
G02*
X63314997Y-54799997I0J150000D01*
G01*
X63314997Y-53149997D01*
G75*
G02*
X63464997Y-52999997I150000J0D01*
G01*
X63764997Y-52999997D01*
G75*
G02*
X63914997Y-53149997I0J-150000D01*
G01*
X63914997Y-54799997D01*
G75*
G02*
X63764997Y-54949997I-150000J0D01*
G01*
G37*
G36*
G01*
X62494997Y-54949997D02*
X62194997Y-54949997D01*
G75*
G02*
X62044997Y-54799997I0J150000D01*
G01*
X62044997Y-53149997D01*
G75*
G02*
X62194997Y-52999997I150000J0D01*
G01*
X62494997Y-52999997D01*
G75*
G02*
X62644997Y-53149997I0J-150000D01*
G01*
X62644997Y-54799997D01*
G75*
G02*
X62494997Y-54949997I-150000J0D01*
G01*
G37*
G36*
G01*
X62494997Y-49999997D02*
X62194997Y-49999997D01*
G75*
G02*
X62044997Y-49849997I0J150000D01*
G01*
X62044997Y-48199997D01*
G75*
G02*
X62194997Y-48049997I150000J0D01*
G01*
X62494997Y-48049997D01*
G75*
G02*
X62644997Y-48199997I0J-150000D01*
G01*
X62644997Y-49849997D01*
G75*
G02*
X62494997Y-49999997I-150000J0D01*
G01*
G37*
G36*
G01*
X63764997Y-49999997D02*
X63464997Y-49999997D01*
G75*
G02*
X63314997Y-49849997I0J150000D01*
G01*
X63314997Y-48199997D01*
G75*
G02*
X63464997Y-48049997I150000J0D01*
G01*
X63764997Y-48049997D01*
G75*
G02*
X63914997Y-48199997I0J-150000D01*
G01*
X63914997Y-49849997D01*
G75*
G02*
X63764997Y-49999997I-150000J0D01*
G01*
G37*
G36*
G01*
X65034997Y-49999997D02*
X64734997Y-49999997D01*
G75*
G02*
X64584997Y-49849997I0J150000D01*
G01*
X64584997Y-48199997D01*
G75*
G02*
X64734997Y-48049997I150000J0D01*
G01*
X65034997Y-48049997D01*
G75*
G02*
X65184997Y-48199997I0J-150000D01*
G01*
X65184997Y-49849997D01*
G75*
G02*
X65034997Y-49999997I-150000J0D01*
G01*
G37*
G36*
G01*
X66304997Y-49999997D02*
X66004997Y-49999997D01*
G75*
G02*
X65854997Y-49849997I0J150000D01*
G01*
X65854997Y-48199997D01*
G75*
G02*
X66004997Y-48049997I150000J0D01*
G01*
X66304997Y-48049997D01*
G75*
G02*
X66454997Y-48199997I0J-150000D01*
G01*
X66454997Y-49849997D01*
G75*
G02*
X66304997Y-49999997I-150000J0D01*
G01*
G37*
M02*
