G04 #@! TF.GenerationSoftware,KiCad,Pcbnew,(5.1.9)-1*
G04 #@! TF.CreationDate,2021-05-04T20:43:57+10:00*
G04 #@! TF.ProjectId,microBoSL,6d696372-6f42-46f5-934c-2e6b69636164,0.2.0*
G04 #@! TF.SameCoordinates,Original*
G04 #@! TF.FileFunction,Copper,L2,Inr*
G04 #@! TF.FilePolarity,Positive*
%FSLAX46Y46*%
G04 Gerber Fmt 4.6, Leading zero omitted, Abs format (unit mm)*
G04 Created by KiCad (PCBNEW (5.1.9)-1) date 2021-05-04 20:43:57*
%MOMM*%
%LPD*%
G01*
G04 APERTURE LIST*
G04 #@! TA.AperFunction,ComponentPad*
%ADD10O,1.000000X1.000000*%
G04 #@! TD*
G04 #@! TA.AperFunction,ComponentPad*
%ADD11R,1.000000X1.000000*%
G04 #@! TD*
G04 #@! TA.AperFunction,WasherPad*
%ADD12C,0.850000*%
G04 #@! TD*
G04 #@! TA.AperFunction,ComponentPad*
%ADD13O,1.700000X1.700000*%
G04 #@! TD*
G04 #@! TA.AperFunction,ComponentPad*
%ADD14R,1.700000X1.700000*%
G04 #@! TD*
G04 #@! TA.AperFunction,ComponentPad*
%ADD15O,1.100000X2.200000*%
G04 #@! TD*
G04 #@! TA.AperFunction,ComponentPad*
%ADD16O,1.100000X1.800000*%
G04 #@! TD*
G04 #@! TA.AperFunction,ViaPad*
%ADD17C,0.500000*%
G04 #@! TD*
G04 #@! TA.AperFunction,ViaPad*
%ADD18C,0.600000*%
G04 #@! TD*
G04 #@! TA.AperFunction,Conductor*
%ADD19C,0.400000*%
G04 #@! TD*
G04 #@! TA.AperFunction,Conductor*
%ADD20C,0.160000*%
G04 #@! TD*
G04 #@! TA.AperFunction,Conductor*
%ADD21C,0.250000*%
G04 #@! TD*
G04 #@! TA.AperFunction,Conductor*
%ADD22C,0.254000*%
G04 #@! TD*
G04 #@! TA.AperFunction,Conductor*
%ADD23C,0.100000*%
G04 #@! TD*
G04 APERTURE END LIST*
D10*
X117390000Y-103600000D03*
X118660000Y-103600000D03*
D11*
X119930000Y-103600000D03*
D10*
X121210000Y-113200000D03*
X119940000Y-113200000D03*
X118670000Y-113200000D03*
D11*
X117400000Y-113200000D03*
D10*
X121130000Y-103600000D03*
X122400000Y-103600000D03*
X123670000Y-103600000D03*
D11*
X124940000Y-103600000D03*
D12*
X114150000Y-104600000D03*
X108650000Y-104600000D03*
D13*
X138140000Y-113080000D03*
X135600000Y-113080000D03*
X138140000Y-110540000D03*
X135600000Y-110540000D03*
X138140000Y-108000000D03*
D14*
X135600000Y-108000000D03*
D15*
X101125000Y-110400000D03*
D16*
X103275000Y-113200000D03*
X103275000Y-107600000D03*
D13*
X138140000Y-103900000D03*
D14*
X135600000Y-103900000D03*
D13*
X101900000Y-103900000D03*
D14*
X104440000Y-103900000D03*
X131900000Y-113200000D03*
D13*
X129360000Y-113200000D03*
X126820000Y-113200000D03*
X124280000Y-113200000D03*
D17*
X130800000Y-103400000D03*
D18*
X107876276Y-111183774D03*
X109000000Y-112200000D03*
X109100000Y-110300000D03*
X101600000Y-112600000D03*
X109200000Y-103200000D03*
D17*
X114800000Y-107200000D03*
X118700000Y-110400000D03*
X120200000Y-104800000D03*
X121800000Y-104800000D03*
X124600000Y-110900000D03*
D18*
X129680000Y-109200000D03*
X129549823Y-107749871D03*
D17*
X121200000Y-108500000D03*
D18*
X127619990Y-104316848D03*
X125600000Y-106600000D03*
D17*
X125011013Y-105470000D03*
D18*
X133619016Y-108241570D03*
D17*
X132935000Y-104365000D03*
X129325233Y-103325233D03*
X111859620Y-110859620D03*
X114459620Y-103459620D03*
D18*
X104400000Y-109000000D03*
X104400000Y-114000000D03*
D17*
X117800000Y-105200000D03*
X114600000Y-106200000D03*
X130680003Y-105200000D03*
X124883575Y-107890262D03*
X129980000Y-105200000D03*
X125000000Y-107200000D03*
X121524767Y-109824767D03*
X104600000Y-111800000D03*
X104270000Y-110325233D03*
X110800000Y-113800000D03*
X115400000Y-109600000D03*
X109200000Y-107800000D03*
X114200000Y-109600000D03*
X116990233Y-105939767D03*
D18*
X105200000Y-113800000D03*
X114382500Y-113617500D03*
D17*
X125476000Y-109243000D03*
X127700000Y-111469990D03*
X136799994Y-106600000D03*
D18*
X125840001Y-105125001D03*
D17*
X133600000Y-110213000D03*
X125325221Y-111474770D03*
X112600000Y-105200000D03*
X108800000Y-106600000D03*
X107200000Y-104110000D03*
X108200000Y-114475000D03*
X112400000Y-113800001D03*
X130800000Y-102600000D03*
X129100000Y-111400000D03*
X128800000Y-102525000D03*
X128400013Y-111469990D03*
X130400000Y-112200000D03*
X131064090Y-111578640D03*
X126420685Y-111854727D03*
X133800000Y-111800000D03*
X133499989Y-106286108D03*
X132930002Y-111270000D03*
X133889024Y-105429720D03*
D19*
X127619990Y-104580010D02*
X127619990Y-104316848D01*
X125600000Y-106600000D02*
X127619990Y-104580010D01*
D20*
X133608706Y-104365000D02*
X132935000Y-104365000D01*
X134419025Y-105175319D02*
X133608706Y-104365000D01*
X134419025Y-106280975D02*
X134419025Y-105175319D01*
X133619016Y-107080984D02*
X134419025Y-106280975D01*
X133619016Y-108241570D02*
X133619016Y-107080984D01*
D21*
X125000000Y-105481013D02*
X125011013Y-105470000D01*
X125000000Y-106200000D02*
X125000000Y-105481013D01*
X125400000Y-106600000D02*
X125000000Y-106200000D01*
X125600000Y-106600000D02*
X125400000Y-106600000D01*
D20*
X113130001Y-109589239D02*
X111859620Y-110859620D01*
X113130001Y-104246649D02*
X113130001Y-109589239D01*
X113917030Y-103459620D02*
X113130001Y-104246649D01*
X114459620Y-103459620D02*
X113917030Y-103459620D01*
X115400000Y-106200000D02*
X114600000Y-106200000D01*
X117390000Y-104210000D02*
X115400000Y-106200000D01*
X117390000Y-103600000D02*
X117390000Y-104210000D01*
X120775233Y-109824767D02*
X117400000Y-113200000D01*
X121524767Y-109824767D02*
X120775233Y-109824767D01*
D19*
X125534999Y-104819999D02*
X125840001Y-105125001D01*
X124233574Y-108202263D02*
X124233574Y-105285437D01*
X124624310Y-108592999D02*
X124233574Y-108202263D01*
X124699012Y-104819999D02*
X125534999Y-104819999D01*
X125788001Y-108592999D02*
X124624310Y-108592999D01*
X127000000Y-109804998D02*
X125788001Y-108592999D01*
X127000000Y-111100000D02*
X127000000Y-109804998D01*
X127000000Y-111100000D02*
X127000000Y-111500000D01*
D21*
X127000000Y-111640998D02*
X127000000Y-111500000D01*
D19*
X128559002Y-113200000D02*
X127979501Y-112620499D01*
X129360000Y-113200000D02*
X128559002Y-113200000D01*
D21*
X127979501Y-112620499D02*
X127000000Y-111640998D01*
D19*
X124233574Y-105285437D02*
X124699012Y-104819999D01*
D20*
X128800000Y-111100000D02*
X129100000Y-111400000D01*
X128800000Y-104600000D02*
X128800000Y-111100000D01*
X130800000Y-102600000D02*
X128800000Y-104600000D01*
X128400013Y-102924987D02*
X128400013Y-111469990D01*
X128800000Y-102525000D02*
X128400013Y-102924987D01*
X121130000Y-106530000D02*
X121130000Y-103600000D01*
X125930001Y-111330001D02*
X121130000Y-106530000D01*
X125930001Y-111654401D02*
X125930001Y-111330001D01*
X125600000Y-111984402D02*
X125930001Y-111654401D01*
X130400000Y-112200000D02*
X130490001Y-112290001D01*
X130490001Y-113742401D02*
X129902401Y-114330001D01*
X126277599Y-114330001D02*
X125600000Y-113652402D01*
X125600000Y-113652402D02*
X125600000Y-111984402D01*
X130490001Y-112290001D02*
X130490001Y-113742401D01*
X129902401Y-114330001D02*
X126277599Y-114330001D01*
X122400000Y-107200000D02*
X122400000Y-103600000D01*
X126420685Y-111854727D02*
X126420685Y-111311555D01*
X122400000Y-107290870D02*
X122400000Y-107200000D01*
X126420685Y-111311555D02*
X122400000Y-107290870D01*
X132960010Y-106826087D02*
X133499989Y-106286108D01*
X132960010Y-110360010D02*
X132960010Y-106826087D01*
X133800000Y-111200000D02*
X132960010Y-110360010D01*
X133800000Y-111800000D02*
X133800000Y-111200000D01*
X132930002Y-111270000D02*
X132600000Y-110939998D01*
X132600000Y-110939998D02*
X132600000Y-106365191D01*
X132600000Y-106365191D02*
X133535471Y-105429720D01*
X133535471Y-105429720D02*
X133889024Y-105429720D01*
D22*
X103138815Y-102598815D02*
X103059463Y-102695506D01*
X103000498Y-102805820D01*
X102964188Y-102925518D01*
X102951928Y-103050000D01*
X102952124Y-103086079D01*
X102930748Y-103054087D01*
X102745913Y-102869252D01*
X102528570Y-102724028D01*
X102287072Y-102623996D01*
X102030698Y-102573000D01*
X101769302Y-102573000D01*
X101512928Y-102623996D01*
X101271430Y-102724028D01*
X101054087Y-102869252D01*
X100869252Y-103054087D01*
X100724028Y-103271430D01*
X100623996Y-103512928D01*
X100573000Y-103769302D01*
X100573000Y-104030698D01*
X100623996Y-104287072D01*
X100724028Y-104528570D01*
X100869252Y-104745913D01*
X101054087Y-104930748D01*
X101271430Y-105075972D01*
X101512928Y-105176004D01*
X101769302Y-105227000D01*
X102030698Y-105227000D01*
X102287072Y-105176004D01*
X102528570Y-105075972D01*
X102745913Y-104930748D01*
X102930748Y-104745913D01*
X102952124Y-104713921D01*
X102951928Y-104750000D01*
X102964188Y-104874482D01*
X103000498Y-104994180D01*
X103059463Y-105104494D01*
X103138815Y-105201185D01*
X103235506Y-105280537D01*
X103345820Y-105339502D01*
X103465518Y-105375812D01*
X103590000Y-105388072D01*
X104154250Y-105385000D01*
X104313000Y-105226250D01*
X104313000Y-104027000D01*
X104567000Y-104027000D01*
X104567000Y-105226250D01*
X104725750Y-105385000D01*
X105290000Y-105388072D01*
X105414482Y-105375812D01*
X105534180Y-105339502D01*
X105644494Y-105280537D01*
X105741185Y-105201185D01*
X105820537Y-105104494D01*
X105879502Y-104994180D01*
X105915812Y-104874482D01*
X105928072Y-104750000D01*
X105925000Y-104185750D01*
X105777647Y-104038397D01*
X106473000Y-104038397D01*
X106473000Y-104181603D01*
X106500938Y-104322058D01*
X106555741Y-104454364D01*
X106635302Y-104573436D01*
X106736564Y-104674698D01*
X106855636Y-104754259D01*
X106987942Y-104809062D01*
X107128397Y-104837000D01*
X107271603Y-104837000D01*
X107412058Y-104809062D01*
X107544364Y-104754259D01*
X107663436Y-104674698D01*
X107748000Y-104590134D01*
X107748000Y-104688839D01*
X107782664Y-104863104D01*
X107850658Y-105027257D01*
X107949371Y-105174991D01*
X108075009Y-105300629D01*
X108222743Y-105399342D01*
X108386896Y-105467336D01*
X108561161Y-105502000D01*
X108738839Y-105502000D01*
X108913104Y-105467336D01*
X109077257Y-105399342D01*
X109224991Y-105300629D01*
X109350629Y-105174991D01*
X109449342Y-105027257D01*
X109517336Y-104863104D01*
X109552000Y-104688839D01*
X109552000Y-104511161D01*
X109517336Y-104336896D01*
X109449342Y-104172743D01*
X109350629Y-104025009D01*
X109224991Y-103899371D01*
X109077257Y-103800658D01*
X108913104Y-103732664D01*
X108738839Y-103698000D01*
X108561161Y-103698000D01*
X108386896Y-103732664D01*
X108222743Y-103800658D01*
X108075009Y-103899371D01*
X107949371Y-104025009D01*
X107927000Y-104058489D01*
X107927000Y-104038397D01*
X107899062Y-103897942D01*
X107844259Y-103765636D01*
X107764698Y-103646564D01*
X107663436Y-103545302D01*
X107544364Y-103465741D01*
X107412058Y-103410938D01*
X107271603Y-103383000D01*
X107128397Y-103383000D01*
X106987942Y-103410938D01*
X106855636Y-103465741D01*
X106736564Y-103545302D01*
X106635302Y-103646564D01*
X106555741Y-103765636D01*
X106500938Y-103897942D01*
X106473000Y-104038397D01*
X105777647Y-104038397D01*
X105766250Y-104027000D01*
X104567000Y-104027000D01*
X104313000Y-104027000D01*
X104293000Y-104027000D01*
X104293000Y-103773000D01*
X104313000Y-103773000D01*
X104313000Y-103753000D01*
X104567000Y-103753000D01*
X104567000Y-103773000D01*
X105766250Y-103773000D01*
X105925000Y-103614250D01*
X105928072Y-103050000D01*
X105915812Y-102925518D01*
X105879502Y-102805820D01*
X105820537Y-102695506D01*
X105741185Y-102598815D01*
X105684141Y-102552000D01*
X127985556Y-102552000D01*
X127934644Y-102614037D01*
X127882922Y-102710802D01*
X127851072Y-102815797D01*
X127843013Y-102897624D01*
X127843013Y-102897634D01*
X127840319Y-102924987D01*
X127843013Y-102952340D01*
X127843013Y-103568987D01*
X127696518Y-103539848D01*
X127543462Y-103539848D01*
X127393347Y-103569707D01*
X127251942Y-103628279D01*
X127124681Y-103713312D01*
X127016454Y-103821539D01*
X126931421Y-103948800D01*
X126872849Y-104090205D01*
X126842990Y-104240320D01*
X126842990Y-104393376D01*
X126844021Y-104398557D01*
X126511369Y-104731209D01*
X126443537Y-104629692D01*
X126335310Y-104521465D01*
X126208049Y-104436432D01*
X126066644Y-104377860D01*
X126046219Y-104373797D01*
X126037225Y-104364803D01*
X126016026Y-104338972D01*
X125912940Y-104254371D01*
X125894607Y-104244572D01*
X125910097Y-104193508D01*
X125919307Y-104100000D01*
X125919307Y-103100000D01*
X125910097Y-103006492D01*
X125882822Y-102916577D01*
X125838529Y-102833711D01*
X125778921Y-102761079D01*
X125706289Y-102701471D01*
X125623423Y-102657178D01*
X125533508Y-102629903D01*
X125440000Y-102620693D01*
X124440000Y-102620693D01*
X124346492Y-102629903D01*
X124256577Y-102657178D01*
X124173711Y-102701471D01*
X124133365Y-102734583D01*
X124132783Y-102734194D01*
X123954980Y-102660546D01*
X123766226Y-102623000D01*
X123573774Y-102623000D01*
X123385020Y-102660546D01*
X123207217Y-102734194D01*
X123047199Y-102841115D01*
X123035000Y-102853314D01*
X123022801Y-102841115D01*
X122862783Y-102734194D01*
X122684980Y-102660546D01*
X122496226Y-102623000D01*
X122303774Y-102623000D01*
X122115020Y-102660546D01*
X121937217Y-102734194D01*
X121777199Y-102841115D01*
X121765000Y-102853314D01*
X121752801Y-102841115D01*
X121592783Y-102734194D01*
X121414980Y-102660546D01*
X121226226Y-102623000D01*
X121033774Y-102623000D01*
X120845020Y-102660546D01*
X120713036Y-102715215D01*
X120696289Y-102701471D01*
X120613423Y-102657178D01*
X120523508Y-102629903D01*
X120430000Y-102620693D01*
X119430000Y-102620693D01*
X119336492Y-102629903D01*
X119246577Y-102657178D01*
X119163711Y-102701471D01*
X119123365Y-102734583D01*
X119122783Y-102734194D01*
X118944980Y-102660546D01*
X118756226Y-102623000D01*
X118563774Y-102623000D01*
X118375020Y-102660546D01*
X118197217Y-102734194D01*
X118037199Y-102841115D01*
X118025000Y-102853314D01*
X118012801Y-102841115D01*
X117852783Y-102734194D01*
X117674980Y-102660546D01*
X117486226Y-102623000D01*
X117293774Y-102623000D01*
X117105020Y-102660546D01*
X116927217Y-102734194D01*
X116767199Y-102841115D01*
X116631115Y-102977199D01*
X116524194Y-103137217D01*
X116450546Y-103315020D01*
X116413000Y-103503774D01*
X116413000Y-103696226D01*
X116450546Y-103884980D01*
X116524194Y-104062783D01*
X116614439Y-104197844D01*
X115169284Y-105643000D01*
X115071134Y-105643000D01*
X115063436Y-105635302D01*
X114944364Y-105555741D01*
X114812058Y-105500938D01*
X114671603Y-105473000D01*
X114528397Y-105473000D01*
X114387942Y-105500938D01*
X114255636Y-105555741D01*
X114136564Y-105635302D01*
X114035302Y-105736564D01*
X113955741Y-105855636D01*
X113900938Y-105987942D01*
X113873000Y-106128397D01*
X113873000Y-106271603D01*
X113900938Y-106412058D01*
X113955741Y-106544364D01*
X114035302Y-106663436D01*
X114136564Y-106764698D01*
X114255636Y-106844259D01*
X114387942Y-106899062D01*
X114528397Y-106927000D01*
X114671603Y-106927000D01*
X114812058Y-106899062D01*
X114944364Y-106844259D01*
X115063436Y-106764698D01*
X115071134Y-106757000D01*
X115372647Y-106757000D01*
X115400000Y-106759694D01*
X115427353Y-106757000D01*
X115427364Y-106757000D01*
X115509191Y-106748941D01*
X115614186Y-106717091D01*
X115710950Y-106665369D01*
X115795764Y-106595764D01*
X115813210Y-106574506D01*
X116282000Y-106105717D01*
X116291171Y-106151825D01*
X116345974Y-106284131D01*
X116425535Y-106403203D01*
X116526797Y-106504465D01*
X116645869Y-106584026D01*
X116778175Y-106638829D01*
X116918630Y-106666767D01*
X117061836Y-106666767D01*
X117202291Y-106638829D01*
X117334597Y-106584026D01*
X117453669Y-106504465D01*
X117554931Y-106403203D01*
X117634492Y-106284131D01*
X117689295Y-106151825D01*
X117717233Y-106011370D01*
X117717233Y-105924779D01*
X117728397Y-105927000D01*
X117871603Y-105927000D01*
X118012058Y-105899062D01*
X118144364Y-105844259D01*
X118263436Y-105764698D01*
X118364698Y-105663436D01*
X118444259Y-105544364D01*
X118499062Y-105412058D01*
X118527000Y-105271603D01*
X118527000Y-105128397D01*
X118499062Y-104987942D01*
X118444259Y-104855636D01*
X118364698Y-104736564D01*
X118263436Y-104635302D01*
X118144364Y-104555741D01*
X118012058Y-104500938D01*
X117880096Y-104474689D01*
X117894738Y-104447296D01*
X117902657Y-104432481D01*
X118012801Y-104358885D01*
X118025000Y-104346686D01*
X118037199Y-104358885D01*
X118197217Y-104465806D01*
X118375020Y-104539454D01*
X118563774Y-104577000D01*
X118756226Y-104577000D01*
X118944980Y-104539454D01*
X119122783Y-104465806D01*
X119123365Y-104465417D01*
X119163711Y-104498529D01*
X119246577Y-104542822D01*
X119336492Y-104570097D01*
X119430000Y-104579307D01*
X120430000Y-104579307D01*
X120523508Y-104570097D01*
X120573001Y-104555084D01*
X120573000Y-106502646D01*
X120570306Y-106530000D01*
X120573000Y-106557353D01*
X120573000Y-106557363D01*
X120581059Y-106639190D01*
X120612909Y-106744185D01*
X120664631Y-106840950D01*
X120734236Y-106925764D01*
X120755494Y-106943210D01*
X124792070Y-110979787D01*
X124760523Y-111011334D01*
X124680962Y-111130406D01*
X124626159Y-111262712D01*
X124598221Y-111403167D01*
X124598221Y-111546373D01*
X124626159Y-111686828D01*
X124680962Y-111819134D01*
X124760523Y-111938206D01*
X124802345Y-111980028D01*
X124667072Y-111923996D01*
X124410698Y-111873000D01*
X124149302Y-111873000D01*
X123892928Y-111923996D01*
X123651430Y-112024028D01*
X123434087Y-112169252D01*
X123249252Y-112354087D01*
X123104028Y-112571430D01*
X123003996Y-112812928D01*
X122953000Y-113069302D01*
X122953000Y-113330698D01*
X123003996Y-113587072D01*
X123104028Y-113828570D01*
X123249252Y-114045913D01*
X123434087Y-114230748D01*
X123651430Y-114375972D01*
X123825321Y-114448000D01*
X112735335Y-114448000D01*
X112744364Y-114444260D01*
X112863436Y-114364699D01*
X112964698Y-114263437D01*
X113044259Y-114144365D01*
X113099062Y-114012059D01*
X113127000Y-113871604D01*
X113127000Y-113728398D01*
X113099062Y-113587943D01*
X113079606Y-113540972D01*
X113605500Y-113540972D01*
X113605500Y-113694028D01*
X113635359Y-113844143D01*
X113693931Y-113985548D01*
X113778964Y-114112809D01*
X113887191Y-114221036D01*
X114014452Y-114306069D01*
X114155857Y-114364641D01*
X114305972Y-114394500D01*
X114459028Y-114394500D01*
X114609143Y-114364641D01*
X114750548Y-114306069D01*
X114877809Y-114221036D01*
X114986036Y-114112809D01*
X115071069Y-113985548D01*
X115129641Y-113844143D01*
X115159500Y-113694028D01*
X115159500Y-113540972D01*
X115129641Y-113390857D01*
X115071069Y-113249452D01*
X114986036Y-113122191D01*
X114877809Y-113013964D01*
X114750548Y-112928931D01*
X114609143Y-112870359D01*
X114459028Y-112840500D01*
X114305972Y-112840500D01*
X114155857Y-112870359D01*
X114014452Y-112928931D01*
X113887191Y-113013964D01*
X113778964Y-113122191D01*
X113693931Y-113249452D01*
X113635359Y-113390857D01*
X113605500Y-113540972D01*
X113079606Y-113540972D01*
X113044259Y-113455637D01*
X112964698Y-113336565D01*
X112863436Y-113235303D01*
X112744364Y-113155742D01*
X112612058Y-113100939D01*
X112471603Y-113073001D01*
X112328397Y-113073001D01*
X112187942Y-113100939D01*
X112055636Y-113155742D01*
X111936564Y-113235303D01*
X111835302Y-113336565D01*
X111755741Y-113455637D01*
X111700938Y-113587943D01*
X111673000Y-113728398D01*
X111673000Y-113871604D01*
X111700938Y-114012059D01*
X111755741Y-114144365D01*
X111835302Y-114263437D01*
X111936564Y-114364699D01*
X112055636Y-114444260D01*
X112064665Y-114448000D01*
X111135332Y-114448000D01*
X111144364Y-114444259D01*
X111263436Y-114364698D01*
X111364698Y-114263436D01*
X111444259Y-114144364D01*
X111499062Y-114012058D01*
X111527000Y-113871603D01*
X111527000Y-113728397D01*
X111499062Y-113587942D01*
X111444259Y-113455636D01*
X111364698Y-113336564D01*
X111263436Y-113235302D01*
X111144364Y-113155741D01*
X111012058Y-113100938D01*
X110871603Y-113073000D01*
X110728397Y-113073000D01*
X110587942Y-113100938D01*
X110455636Y-113155741D01*
X110336564Y-113235302D01*
X110235302Y-113336564D01*
X110155741Y-113455636D01*
X110100938Y-113587942D01*
X110073000Y-113728397D01*
X110073000Y-113871603D01*
X110100938Y-114012058D01*
X110155741Y-114144364D01*
X110235302Y-114263436D01*
X110336564Y-114364698D01*
X110455636Y-114444259D01*
X110464668Y-114448000D01*
X108927000Y-114448000D01*
X108927000Y-114403397D01*
X108899062Y-114262942D01*
X108844259Y-114130636D01*
X108764698Y-114011564D01*
X108663436Y-113910302D01*
X108544364Y-113830741D01*
X108412058Y-113775938D01*
X108271603Y-113748000D01*
X108128397Y-113748000D01*
X107987942Y-113775938D01*
X107855636Y-113830741D01*
X107736564Y-113910302D01*
X107635302Y-114011564D01*
X107555741Y-114130636D01*
X107500938Y-114262942D01*
X107473000Y-114403397D01*
X107473000Y-114448000D01*
X105628764Y-114448000D01*
X105695309Y-114403536D01*
X105803536Y-114295309D01*
X105888569Y-114168048D01*
X105947141Y-114026643D01*
X105977000Y-113876528D01*
X105977000Y-113723472D01*
X105947141Y-113573357D01*
X105888569Y-113431952D01*
X105803536Y-113304691D01*
X105695309Y-113196464D01*
X105568048Y-113111431D01*
X105426643Y-113052859D01*
X105276528Y-113023000D01*
X105123472Y-113023000D01*
X104973357Y-113052859D01*
X104831952Y-113111431D01*
X104704691Y-113196464D01*
X104641954Y-113259201D01*
X104626643Y-113252859D01*
X104476528Y-113223000D01*
X104323472Y-113223000D01*
X104302000Y-113227271D01*
X104302000Y-112799550D01*
X104292196Y-112700000D01*
X116420693Y-112700000D01*
X116420693Y-113700000D01*
X116429903Y-113793508D01*
X116457178Y-113883423D01*
X116501471Y-113966289D01*
X116561079Y-114038921D01*
X116633711Y-114098529D01*
X116716577Y-114142822D01*
X116806492Y-114170097D01*
X116900000Y-114179307D01*
X117900000Y-114179307D01*
X117993508Y-114170097D01*
X118083423Y-114142822D01*
X118166289Y-114098529D01*
X118206635Y-114065417D01*
X118207217Y-114065806D01*
X118385020Y-114139454D01*
X118573774Y-114177000D01*
X118766226Y-114177000D01*
X118954980Y-114139454D01*
X119132783Y-114065806D01*
X119176690Y-114036468D01*
X119197980Y-114058865D01*
X119379794Y-114187123D01*
X119583136Y-114277446D01*
X119638126Y-114294119D01*
X119813000Y-114167954D01*
X119813000Y-113327000D01*
X119793000Y-113327000D01*
X119793000Y-113073000D01*
X119813000Y-113073000D01*
X119813000Y-112232046D01*
X120067000Y-112232046D01*
X120067000Y-113073000D01*
X120087000Y-113073000D01*
X120087000Y-113327000D01*
X120067000Y-113327000D01*
X120067000Y-114167954D01*
X120241874Y-114294119D01*
X120296864Y-114277446D01*
X120500206Y-114187123D01*
X120682020Y-114058865D01*
X120703310Y-114036468D01*
X120747217Y-114065806D01*
X120925020Y-114139454D01*
X121113774Y-114177000D01*
X121306226Y-114177000D01*
X121494980Y-114139454D01*
X121672783Y-114065806D01*
X121832801Y-113958885D01*
X121968885Y-113822801D01*
X122075806Y-113662783D01*
X122149454Y-113484980D01*
X122187000Y-113296226D01*
X122187000Y-113103774D01*
X122149454Y-112915020D01*
X122075806Y-112737217D01*
X121968885Y-112577199D01*
X121832801Y-112441115D01*
X121672783Y-112334194D01*
X121494980Y-112260546D01*
X121306226Y-112223000D01*
X121113774Y-112223000D01*
X120925020Y-112260546D01*
X120747217Y-112334194D01*
X120703310Y-112363532D01*
X120682020Y-112341135D01*
X120500206Y-112212877D01*
X120296864Y-112122554D01*
X120241874Y-112105881D01*
X120067000Y-112232046D01*
X119813000Y-112232046D01*
X119638126Y-112105881D01*
X119583136Y-112122554D01*
X119379794Y-112212877D01*
X119197980Y-112341135D01*
X119176690Y-112363532D01*
X119132783Y-112334194D01*
X119076737Y-112310979D01*
X121005950Y-110381767D01*
X121053633Y-110381767D01*
X121061331Y-110389465D01*
X121180403Y-110469026D01*
X121312709Y-110523829D01*
X121453164Y-110551767D01*
X121596370Y-110551767D01*
X121736825Y-110523829D01*
X121869131Y-110469026D01*
X121988203Y-110389465D01*
X122089465Y-110288203D01*
X122169026Y-110169131D01*
X122223829Y-110036825D01*
X122251767Y-109896370D01*
X122251767Y-109753164D01*
X122223829Y-109612709D01*
X122169026Y-109480403D01*
X122089465Y-109361331D01*
X121988203Y-109260069D01*
X121869131Y-109180508D01*
X121736825Y-109125705D01*
X121596370Y-109097767D01*
X121453164Y-109097767D01*
X121312709Y-109125705D01*
X121180403Y-109180508D01*
X121061331Y-109260069D01*
X121053633Y-109267767D01*
X120802586Y-109267767D01*
X120775232Y-109265073D01*
X120747879Y-109267767D01*
X120747869Y-109267767D01*
X120666042Y-109275826D01*
X120561047Y-109307676D01*
X120548088Y-109314603D01*
X120464282Y-109359398D01*
X120400723Y-109411560D01*
X120379469Y-109429003D01*
X120362028Y-109450255D01*
X117591591Y-112220693D01*
X116900000Y-112220693D01*
X116806492Y-112229903D01*
X116716577Y-112257178D01*
X116633711Y-112301471D01*
X116561079Y-112361079D01*
X116501471Y-112433711D01*
X116457178Y-112516577D01*
X116429903Y-112606492D01*
X116420693Y-112700000D01*
X104292196Y-112700000D01*
X104287140Y-112648674D01*
X104228415Y-112455083D01*
X104204292Y-112409952D01*
X104255636Y-112444259D01*
X104387942Y-112499062D01*
X104528397Y-112527000D01*
X104671603Y-112527000D01*
X104812058Y-112499062D01*
X104944364Y-112444259D01*
X105063436Y-112364698D01*
X105164698Y-112263436D01*
X105244259Y-112144364D01*
X105299062Y-112012058D01*
X105327000Y-111871603D01*
X105327000Y-111728397D01*
X105299062Y-111587942D01*
X105244259Y-111455636D01*
X105164698Y-111336564D01*
X105063436Y-111235302D01*
X104944364Y-111155741D01*
X104812058Y-111100938D01*
X104671603Y-111073000D01*
X104528397Y-111073000D01*
X104387942Y-111100938D01*
X104255636Y-111155741D01*
X104136564Y-111235302D01*
X104035302Y-111336564D01*
X103955741Y-111455636D01*
X103900938Y-111587942D01*
X103873000Y-111728397D01*
X103873000Y-111871603D01*
X103900938Y-112012058D01*
X103915412Y-112047001D01*
X103848331Y-111991949D01*
X103669917Y-111896585D01*
X103476327Y-111837860D01*
X103275000Y-111818031D01*
X103073674Y-111837860D01*
X102880084Y-111896585D01*
X102701670Y-111991949D01*
X102545289Y-112120288D01*
X102416950Y-112276669D01*
X102321586Y-112455083D01*
X102262860Y-112648673D01*
X102248000Y-112799549D01*
X102248000Y-113600450D01*
X102262860Y-113751326D01*
X102321585Y-113944916D01*
X102416949Y-114123331D01*
X102545288Y-114279712D01*
X102701669Y-114408051D01*
X102776409Y-114448000D01*
X101027001Y-114448000D01*
X100913497Y-114436871D01*
X100830290Y-114411750D01*
X100753544Y-114370943D01*
X100686189Y-114316010D01*
X100630784Y-114249036D01*
X100589447Y-114172584D01*
X100563744Y-114089550D01*
X100552000Y-113977822D01*
X100552000Y-111808228D01*
X100730083Y-111903415D01*
X100923673Y-111962140D01*
X101125000Y-111981969D01*
X101326326Y-111962140D01*
X101519916Y-111903415D01*
X101698331Y-111808051D01*
X101854712Y-111679712D01*
X101983051Y-111523331D01*
X102078415Y-111344917D01*
X102137140Y-111151327D01*
X102152000Y-111000451D01*
X102152000Y-109799549D01*
X102137140Y-109648673D01*
X102078415Y-109455083D01*
X101983051Y-109276669D01*
X101854712Y-109120288D01*
X101698331Y-108991949D01*
X101519917Y-108896585D01*
X101326327Y-108837860D01*
X101125000Y-108818031D01*
X100923674Y-108837860D01*
X100730084Y-108896585D01*
X100552000Y-108991773D01*
X100552000Y-107199549D01*
X102248000Y-107199549D01*
X102248000Y-108000450D01*
X102262860Y-108151326D01*
X102321585Y-108344916D01*
X102416949Y-108523331D01*
X102545288Y-108679712D01*
X102701669Y-108808051D01*
X102880083Y-108903415D01*
X103073673Y-108962140D01*
X103275000Y-108981969D01*
X103476326Y-108962140D01*
X103624233Y-108917273D01*
X103623000Y-108923472D01*
X103623000Y-109076528D01*
X103652859Y-109226643D01*
X103711431Y-109368048D01*
X103796464Y-109495309D01*
X103904691Y-109603536D01*
X103984250Y-109656695D01*
X103925636Y-109680974D01*
X103806564Y-109760535D01*
X103705302Y-109861797D01*
X103625741Y-109980869D01*
X103570938Y-110113175D01*
X103543000Y-110253630D01*
X103543000Y-110396836D01*
X103570938Y-110537291D01*
X103625741Y-110669597D01*
X103705302Y-110788669D01*
X103806564Y-110889931D01*
X103925636Y-110969492D01*
X104057942Y-111024295D01*
X104198397Y-111052233D01*
X104341603Y-111052233D01*
X104482058Y-111024295D01*
X104614364Y-110969492D01*
X104733436Y-110889931D01*
X104834698Y-110788669D01*
X104835133Y-110788017D01*
X111132620Y-110788017D01*
X111132620Y-110931223D01*
X111160558Y-111071678D01*
X111215361Y-111203984D01*
X111294922Y-111323056D01*
X111396184Y-111424318D01*
X111515256Y-111503879D01*
X111647562Y-111558682D01*
X111788017Y-111586620D01*
X111931223Y-111586620D01*
X112071678Y-111558682D01*
X112203984Y-111503879D01*
X112323056Y-111424318D01*
X112424318Y-111323056D01*
X112503879Y-111203984D01*
X112558682Y-111071678D01*
X112586620Y-110931223D01*
X112586620Y-110920336D01*
X113504513Y-110002444D01*
X113525765Y-109985003D01*
X113557256Y-109946631D01*
X113635302Y-110063436D01*
X113736564Y-110164698D01*
X113855636Y-110244259D01*
X113987942Y-110299062D01*
X114128397Y-110327000D01*
X114271603Y-110327000D01*
X114412058Y-110299062D01*
X114544364Y-110244259D01*
X114663436Y-110164698D01*
X114764698Y-110063436D01*
X114800000Y-110010603D01*
X114835302Y-110063436D01*
X114936564Y-110164698D01*
X115055636Y-110244259D01*
X115187942Y-110299062D01*
X115328397Y-110327000D01*
X115471603Y-110327000D01*
X115612058Y-110299062D01*
X115744364Y-110244259D01*
X115863436Y-110164698D01*
X115964698Y-110063436D01*
X116044259Y-109944364D01*
X116099062Y-109812058D01*
X116127000Y-109671603D01*
X116127000Y-109528397D01*
X116099062Y-109387942D01*
X116044259Y-109255636D01*
X115964698Y-109136564D01*
X115863436Y-109035302D01*
X115744364Y-108955741D01*
X115612058Y-108900938D01*
X115471603Y-108873000D01*
X115328397Y-108873000D01*
X115187942Y-108900938D01*
X115055636Y-108955741D01*
X114936564Y-109035302D01*
X114835302Y-109136564D01*
X114800000Y-109189397D01*
X114764698Y-109136564D01*
X114663436Y-109035302D01*
X114544364Y-108955741D01*
X114412058Y-108900938D01*
X114271603Y-108873000D01*
X114128397Y-108873000D01*
X113987942Y-108900938D01*
X113855636Y-108955741D01*
X113736564Y-109035302D01*
X113687001Y-109084865D01*
X113687001Y-105375460D01*
X113722743Y-105399342D01*
X113886896Y-105467336D01*
X114061161Y-105502000D01*
X114238839Y-105502000D01*
X114413104Y-105467336D01*
X114577257Y-105399342D01*
X114724991Y-105300629D01*
X114850629Y-105174991D01*
X114949342Y-105027257D01*
X115017336Y-104863104D01*
X115052000Y-104688839D01*
X115052000Y-104511161D01*
X115017336Y-104336896D01*
X114949342Y-104172743D01*
X114872665Y-104057988D01*
X114923056Y-104024318D01*
X115024318Y-103923056D01*
X115103879Y-103803984D01*
X115158682Y-103671678D01*
X115186620Y-103531223D01*
X115186620Y-103388017D01*
X115158682Y-103247562D01*
X115103879Y-103115256D01*
X115024318Y-102996184D01*
X114923056Y-102894922D01*
X114803984Y-102815361D01*
X114671678Y-102760558D01*
X114531223Y-102732620D01*
X114388017Y-102732620D01*
X114247562Y-102760558D01*
X114115256Y-102815361D01*
X113996184Y-102894922D01*
X113988486Y-102902620D01*
X113944383Y-102902620D01*
X113917029Y-102899926D01*
X113889676Y-102902620D01*
X113889666Y-102902620D01*
X113807839Y-102910679D01*
X113702844Y-102942529D01*
X113657801Y-102966605D01*
X113606079Y-102994251D01*
X113550025Y-103040254D01*
X113521266Y-103063856D01*
X113503824Y-103085109D01*
X112755495Y-103833439D01*
X112734237Y-103850885D01*
X112664632Y-103935699D01*
X112612910Y-104032464D01*
X112581060Y-104137459D01*
X112573001Y-104219286D01*
X112573001Y-104219296D01*
X112570307Y-104246649D01*
X112573001Y-104274002D01*
X112573001Y-104473000D01*
X112528397Y-104473000D01*
X112387942Y-104500938D01*
X112255636Y-104555741D01*
X112136564Y-104635302D01*
X112035302Y-104736564D01*
X111955741Y-104855636D01*
X111900938Y-104987942D01*
X111873000Y-105128397D01*
X111873000Y-105271603D01*
X111900938Y-105412058D01*
X111955741Y-105544364D01*
X112035302Y-105663436D01*
X112136564Y-105764698D01*
X112255636Y-105844259D01*
X112387942Y-105899062D01*
X112528397Y-105927000D01*
X112573001Y-105927000D01*
X112573002Y-109358521D01*
X111798904Y-110132620D01*
X111788017Y-110132620D01*
X111647562Y-110160558D01*
X111515256Y-110215361D01*
X111396184Y-110294922D01*
X111294922Y-110396184D01*
X111215361Y-110515256D01*
X111160558Y-110647562D01*
X111132620Y-110788017D01*
X104835133Y-110788017D01*
X104914259Y-110669597D01*
X104969062Y-110537291D01*
X104997000Y-110396836D01*
X104997000Y-110253630D01*
X104969062Y-110113175D01*
X104914259Y-109980869D01*
X104834698Y-109861797D01*
X104733436Y-109760535D01*
X104680193Y-109724960D01*
X104768048Y-109688569D01*
X104895309Y-109603536D01*
X105003536Y-109495309D01*
X105088569Y-109368048D01*
X105147141Y-109226643D01*
X105177000Y-109076528D01*
X105177000Y-108923472D01*
X105147141Y-108773357D01*
X105088569Y-108631952D01*
X105003536Y-108504691D01*
X104895309Y-108396464D01*
X104768048Y-108311431D01*
X104626643Y-108252859D01*
X104476528Y-108223000D01*
X104323472Y-108223000D01*
X104261669Y-108235293D01*
X104287140Y-108151327D01*
X104302000Y-108000451D01*
X104302000Y-107199550D01*
X104287140Y-107048674D01*
X104228415Y-106855083D01*
X104133051Y-106676669D01*
X104011367Y-106528397D01*
X108073000Y-106528397D01*
X108073000Y-106671603D01*
X108100938Y-106812058D01*
X108155741Y-106944364D01*
X108235302Y-107063436D01*
X108336564Y-107164698D01*
X108455636Y-107244259D01*
X108587942Y-107299062D01*
X108658725Y-107313141D01*
X108635302Y-107336564D01*
X108555741Y-107455636D01*
X108500938Y-107587942D01*
X108473000Y-107728397D01*
X108473000Y-107871603D01*
X108500938Y-108012058D01*
X108555741Y-108144364D01*
X108635302Y-108263436D01*
X108736564Y-108364698D01*
X108855636Y-108444259D01*
X108987942Y-108499062D01*
X109128397Y-108527000D01*
X109271603Y-108527000D01*
X109412058Y-108499062D01*
X109544364Y-108444259D01*
X109663436Y-108364698D01*
X109764698Y-108263436D01*
X109844259Y-108144364D01*
X109899062Y-108012058D01*
X109927000Y-107871603D01*
X109927000Y-107728397D01*
X109899062Y-107587942D01*
X109844259Y-107455636D01*
X109764698Y-107336564D01*
X109663436Y-107235302D01*
X109544364Y-107155741D01*
X109412058Y-107100938D01*
X109341275Y-107086859D01*
X109364698Y-107063436D01*
X109444259Y-106944364D01*
X109499062Y-106812058D01*
X109527000Y-106671603D01*
X109527000Y-106528397D01*
X109499062Y-106387942D01*
X109444259Y-106255636D01*
X109364698Y-106136564D01*
X109263436Y-106035302D01*
X109144364Y-105955741D01*
X109012058Y-105900938D01*
X108871603Y-105873000D01*
X108728397Y-105873000D01*
X108587942Y-105900938D01*
X108455636Y-105955741D01*
X108336564Y-106035302D01*
X108235302Y-106136564D01*
X108155741Y-106255636D01*
X108100938Y-106387942D01*
X108073000Y-106528397D01*
X104011367Y-106528397D01*
X104004712Y-106520288D01*
X103848331Y-106391949D01*
X103669917Y-106296585D01*
X103476327Y-106237860D01*
X103275000Y-106218031D01*
X103073674Y-106237860D01*
X102880084Y-106296585D01*
X102701670Y-106391949D01*
X102545289Y-106520288D01*
X102416950Y-106676669D01*
X102321586Y-106855083D01*
X102262860Y-107048673D01*
X102248000Y-107199549D01*
X100552000Y-107199549D01*
X100552000Y-103026993D01*
X100563128Y-102913498D01*
X100588252Y-102830288D01*
X100629058Y-102753543D01*
X100683988Y-102686192D01*
X100750964Y-102630784D01*
X100827417Y-102589446D01*
X100910450Y-102563743D01*
X101022178Y-102552000D01*
X103195859Y-102552000D01*
X103138815Y-102598815D01*
G04 #@! TA.AperFunction,Conductor*
D23*
G36*
X103138815Y-102598815D02*
G01*
X103059463Y-102695506D01*
X103000498Y-102805820D01*
X102964188Y-102925518D01*
X102951928Y-103050000D01*
X102952124Y-103086079D01*
X102930748Y-103054087D01*
X102745913Y-102869252D01*
X102528570Y-102724028D01*
X102287072Y-102623996D01*
X102030698Y-102573000D01*
X101769302Y-102573000D01*
X101512928Y-102623996D01*
X101271430Y-102724028D01*
X101054087Y-102869252D01*
X100869252Y-103054087D01*
X100724028Y-103271430D01*
X100623996Y-103512928D01*
X100573000Y-103769302D01*
X100573000Y-104030698D01*
X100623996Y-104287072D01*
X100724028Y-104528570D01*
X100869252Y-104745913D01*
X101054087Y-104930748D01*
X101271430Y-105075972D01*
X101512928Y-105176004D01*
X101769302Y-105227000D01*
X102030698Y-105227000D01*
X102287072Y-105176004D01*
X102528570Y-105075972D01*
X102745913Y-104930748D01*
X102930748Y-104745913D01*
X102952124Y-104713921D01*
X102951928Y-104750000D01*
X102964188Y-104874482D01*
X103000498Y-104994180D01*
X103059463Y-105104494D01*
X103138815Y-105201185D01*
X103235506Y-105280537D01*
X103345820Y-105339502D01*
X103465518Y-105375812D01*
X103590000Y-105388072D01*
X104154250Y-105385000D01*
X104313000Y-105226250D01*
X104313000Y-104027000D01*
X104567000Y-104027000D01*
X104567000Y-105226250D01*
X104725750Y-105385000D01*
X105290000Y-105388072D01*
X105414482Y-105375812D01*
X105534180Y-105339502D01*
X105644494Y-105280537D01*
X105741185Y-105201185D01*
X105820537Y-105104494D01*
X105879502Y-104994180D01*
X105915812Y-104874482D01*
X105928072Y-104750000D01*
X105925000Y-104185750D01*
X105777647Y-104038397D01*
X106473000Y-104038397D01*
X106473000Y-104181603D01*
X106500938Y-104322058D01*
X106555741Y-104454364D01*
X106635302Y-104573436D01*
X106736564Y-104674698D01*
X106855636Y-104754259D01*
X106987942Y-104809062D01*
X107128397Y-104837000D01*
X107271603Y-104837000D01*
X107412058Y-104809062D01*
X107544364Y-104754259D01*
X107663436Y-104674698D01*
X107748000Y-104590134D01*
X107748000Y-104688839D01*
X107782664Y-104863104D01*
X107850658Y-105027257D01*
X107949371Y-105174991D01*
X108075009Y-105300629D01*
X108222743Y-105399342D01*
X108386896Y-105467336D01*
X108561161Y-105502000D01*
X108738839Y-105502000D01*
X108913104Y-105467336D01*
X109077257Y-105399342D01*
X109224991Y-105300629D01*
X109350629Y-105174991D01*
X109449342Y-105027257D01*
X109517336Y-104863104D01*
X109552000Y-104688839D01*
X109552000Y-104511161D01*
X109517336Y-104336896D01*
X109449342Y-104172743D01*
X109350629Y-104025009D01*
X109224991Y-103899371D01*
X109077257Y-103800658D01*
X108913104Y-103732664D01*
X108738839Y-103698000D01*
X108561161Y-103698000D01*
X108386896Y-103732664D01*
X108222743Y-103800658D01*
X108075009Y-103899371D01*
X107949371Y-104025009D01*
X107927000Y-104058489D01*
X107927000Y-104038397D01*
X107899062Y-103897942D01*
X107844259Y-103765636D01*
X107764698Y-103646564D01*
X107663436Y-103545302D01*
X107544364Y-103465741D01*
X107412058Y-103410938D01*
X107271603Y-103383000D01*
X107128397Y-103383000D01*
X106987942Y-103410938D01*
X106855636Y-103465741D01*
X106736564Y-103545302D01*
X106635302Y-103646564D01*
X106555741Y-103765636D01*
X106500938Y-103897942D01*
X106473000Y-104038397D01*
X105777647Y-104038397D01*
X105766250Y-104027000D01*
X104567000Y-104027000D01*
X104313000Y-104027000D01*
X104293000Y-104027000D01*
X104293000Y-103773000D01*
X104313000Y-103773000D01*
X104313000Y-103753000D01*
X104567000Y-103753000D01*
X104567000Y-103773000D01*
X105766250Y-103773000D01*
X105925000Y-103614250D01*
X105928072Y-103050000D01*
X105915812Y-102925518D01*
X105879502Y-102805820D01*
X105820537Y-102695506D01*
X105741185Y-102598815D01*
X105684141Y-102552000D01*
X127985556Y-102552000D01*
X127934644Y-102614037D01*
X127882922Y-102710802D01*
X127851072Y-102815797D01*
X127843013Y-102897624D01*
X127843013Y-102897634D01*
X127840319Y-102924987D01*
X127843013Y-102952340D01*
X127843013Y-103568987D01*
X127696518Y-103539848D01*
X127543462Y-103539848D01*
X127393347Y-103569707D01*
X127251942Y-103628279D01*
X127124681Y-103713312D01*
X127016454Y-103821539D01*
X126931421Y-103948800D01*
X126872849Y-104090205D01*
X126842990Y-104240320D01*
X126842990Y-104393376D01*
X126844021Y-104398557D01*
X126511369Y-104731209D01*
X126443537Y-104629692D01*
X126335310Y-104521465D01*
X126208049Y-104436432D01*
X126066644Y-104377860D01*
X126046219Y-104373797D01*
X126037225Y-104364803D01*
X126016026Y-104338972D01*
X125912940Y-104254371D01*
X125894607Y-104244572D01*
X125910097Y-104193508D01*
X125919307Y-104100000D01*
X125919307Y-103100000D01*
X125910097Y-103006492D01*
X125882822Y-102916577D01*
X125838529Y-102833711D01*
X125778921Y-102761079D01*
X125706289Y-102701471D01*
X125623423Y-102657178D01*
X125533508Y-102629903D01*
X125440000Y-102620693D01*
X124440000Y-102620693D01*
X124346492Y-102629903D01*
X124256577Y-102657178D01*
X124173711Y-102701471D01*
X124133365Y-102734583D01*
X124132783Y-102734194D01*
X123954980Y-102660546D01*
X123766226Y-102623000D01*
X123573774Y-102623000D01*
X123385020Y-102660546D01*
X123207217Y-102734194D01*
X123047199Y-102841115D01*
X123035000Y-102853314D01*
X123022801Y-102841115D01*
X122862783Y-102734194D01*
X122684980Y-102660546D01*
X122496226Y-102623000D01*
X122303774Y-102623000D01*
X122115020Y-102660546D01*
X121937217Y-102734194D01*
X121777199Y-102841115D01*
X121765000Y-102853314D01*
X121752801Y-102841115D01*
X121592783Y-102734194D01*
X121414980Y-102660546D01*
X121226226Y-102623000D01*
X121033774Y-102623000D01*
X120845020Y-102660546D01*
X120713036Y-102715215D01*
X120696289Y-102701471D01*
X120613423Y-102657178D01*
X120523508Y-102629903D01*
X120430000Y-102620693D01*
X119430000Y-102620693D01*
X119336492Y-102629903D01*
X119246577Y-102657178D01*
X119163711Y-102701471D01*
X119123365Y-102734583D01*
X119122783Y-102734194D01*
X118944980Y-102660546D01*
X118756226Y-102623000D01*
X118563774Y-102623000D01*
X118375020Y-102660546D01*
X118197217Y-102734194D01*
X118037199Y-102841115D01*
X118025000Y-102853314D01*
X118012801Y-102841115D01*
X117852783Y-102734194D01*
X117674980Y-102660546D01*
X117486226Y-102623000D01*
X117293774Y-102623000D01*
X117105020Y-102660546D01*
X116927217Y-102734194D01*
X116767199Y-102841115D01*
X116631115Y-102977199D01*
X116524194Y-103137217D01*
X116450546Y-103315020D01*
X116413000Y-103503774D01*
X116413000Y-103696226D01*
X116450546Y-103884980D01*
X116524194Y-104062783D01*
X116614439Y-104197844D01*
X115169284Y-105643000D01*
X115071134Y-105643000D01*
X115063436Y-105635302D01*
X114944364Y-105555741D01*
X114812058Y-105500938D01*
X114671603Y-105473000D01*
X114528397Y-105473000D01*
X114387942Y-105500938D01*
X114255636Y-105555741D01*
X114136564Y-105635302D01*
X114035302Y-105736564D01*
X113955741Y-105855636D01*
X113900938Y-105987942D01*
X113873000Y-106128397D01*
X113873000Y-106271603D01*
X113900938Y-106412058D01*
X113955741Y-106544364D01*
X114035302Y-106663436D01*
X114136564Y-106764698D01*
X114255636Y-106844259D01*
X114387942Y-106899062D01*
X114528397Y-106927000D01*
X114671603Y-106927000D01*
X114812058Y-106899062D01*
X114944364Y-106844259D01*
X115063436Y-106764698D01*
X115071134Y-106757000D01*
X115372647Y-106757000D01*
X115400000Y-106759694D01*
X115427353Y-106757000D01*
X115427364Y-106757000D01*
X115509191Y-106748941D01*
X115614186Y-106717091D01*
X115710950Y-106665369D01*
X115795764Y-106595764D01*
X115813210Y-106574506D01*
X116282000Y-106105717D01*
X116291171Y-106151825D01*
X116345974Y-106284131D01*
X116425535Y-106403203D01*
X116526797Y-106504465D01*
X116645869Y-106584026D01*
X116778175Y-106638829D01*
X116918630Y-106666767D01*
X117061836Y-106666767D01*
X117202291Y-106638829D01*
X117334597Y-106584026D01*
X117453669Y-106504465D01*
X117554931Y-106403203D01*
X117634492Y-106284131D01*
X117689295Y-106151825D01*
X117717233Y-106011370D01*
X117717233Y-105924779D01*
X117728397Y-105927000D01*
X117871603Y-105927000D01*
X118012058Y-105899062D01*
X118144364Y-105844259D01*
X118263436Y-105764698D01*
X118364698Y-105663436D01*
X118444259Y-105544364D01*
X118499062Y-105412058D01*
X118527000Y-105271603D01*
X118527000Y-105128397D01*
X118499062Y-104987942D01*
X118444259Y-104855636D01*
X118364698Y-104736564D01*
X118263436Y-104635302D01*
X118144364Y-104555741D01*
X118012058Y-104500938D01*
X117880096Y-104474689D01*
X117894738Y-104447296D01*
X117902657Y-104432481D01*
X118012801Y-104358885D01*
X118025000Y-104346686D01*
X118037199Y-104358885D01*
X118197217Y-104465806D01*
X118375020Y-104539454D01*
X118563774Y-104577000D01*
X118756226Y-104577000D01*
X118944980Y-104539454D01*
X119122783Y-104465806D01*
X119123365Y-104465417D01*
X119163711Y-104498529D01*
X119246577Y-104542822D01*
X119336492Y-104570097D01*
X119430000Y-104579307D01*
X120430000Y-104579307D01*
X120523508Y-104570097D01*
X120573001Y-104555084D01*
X120573000Y-106502646D01*
X120570306Y-106530000D01*
X120573000Y-106557353D01*
X120573000Y-106557363D01*
X120581059Y-106639190D01*
X120612909Y-106744185D01*
X120664631Y-106840950D01*
X120734236Y-106925764D01*
X120755494Y-106943210D01*
X124792070Y-110979787D01*
X124760523Y-111011334D01*
X124680962Y-111130406D01*
X124626159Y-111262712D01*
X124598221Y-111403167D01*
X124598221Y-111546373D01*
X124626159Y-111686828D01*
X124680962Y-111819134D01*
X124760523Y-111938206D01*
X124802345Y-111980028D01*
X124667072Y-111923996D01*
X124410698Y-111873000D01*
X124149302Y-111873000D01*
X123892928Y-111923996D01*
X123651430Y-112024028D01*
X123434087Y-112169252D01*
X123249252Y-112354087D01*
X123104028Y-112571430D01*
X123003996Y-112812928D01*
X122953000Y-113069302D01*
X122953000Y-113330698D01*
X123003996Y-113587072D01*
X123104028Y-113828570D01*
X123249252Y-114045913D01*
X123434087Y-114230748D01*
X123651430Y-114375972D01*
X123825321Y-114448000D01*
X112735335Y-114448000D01*
X112744364Y-114444260D01*
X112863436Y-114364699D01*
X112964698Y-114263437D01*
X113044259Y-114144365D01*
X113099062Y-114012059D01*
X113127000Y-113871604D01*
X113127000Y-113728398D01*
X113099062Y-113587943D01*
X113079606Y-113540972D01*
X113605500Y-113540972D01*
X113605500Y-113694028D01*
X113635359Y-113844143D01*
X113693931Y-113985548D01*
X113778964Y-114112809D01*
X113887191Y-114221036D01*
X114014452Y-114306069D01*
X114155857Y-114364641D01*
X114305972Y-114394500D01*
X114459028Y-114394500D01*
X114609143Y-114364641D01*
X114750548Y-114306069D01*
X114877809Y-114221036D01*
X114986036Y-114112809D01*
X115071069Y-113985548D01*
X115129641Y-113844143D01*
X115159500Y-113694028D01*
X115159500Y-113540972D01*
X115129641Y-113390857D01*
X115071069Y-113249452D01*
X114986036Y-113122191D01*
X114877809Y-113013964D01*
X114750548Y-112928931D01*
X114609143Y-112870359D01*
X114459028Y-112840500D01*
X114305972Y-112840500D01*
X114155857Y-112870359D01*
X114014452Y-112928931D01*
X113887191Y-113013964D01*
X113778964Y-113122191D01*
X113693931Y-113249452D01*
X113635359Y-113390857D01*
X113605500Y-113540972D01*
X113079606Y-113540972D01*
X113044259Y-113455637D01*
X112964698Y-113336565D01*
X112863436Y-113235303D01*
X112744364Y-113155742D01*
X112612058Y-113100939D01*
X112471603Y-113073001D01*
X112328397Y-113073001D01*
X112187942Y-113100939D01*
X112055636Y-113155742D01*
X111936564Y-113235303D01*
X111835302Y-113336565D01*
X111755741Y-113455637D01*
X111700938Y-113587943D01*
X111673000Y-113728398D01*
X111673000Y-113871604D01*
X111700938Y-114012059D01*
X111755741Y-114144365D01*
X111835302Y-114263437D01*
X111936564Y-114364699D01*
X112055636Y-114444260D01*
X112064665Y-114448000D01*
X111135332Y-114448000D01*
X111144364Y-114444259D01*
X111263436Y-114364698D01*
X111364698Y-114263436D01*
X111444259Y-114144364D01*
X111499062Y-114012058D01*
X111527000Y-113871603D01*
X111527000Y-113728397D01*
X111499062Y-113587942D01*
X111444259Y-113455636D01*
X111364698Y-113336564D01*
X111263436Y-113235302D01*
X111144364Y-113155741D01*
X111012058Y-113100938D01*
X110871603Y-113073000D01*
X110728397Y-113073000D01*
X110587942Y-113100938D01*
X110455636Y-113155741D01*
X110336564Y-113235302D01*
X110235302Y-113336564D01*
X110155741Y-113455636D01*
X110100938Y-113587942D01*
X110073000Y-113728397D01*
X110073000Y-113871603D01*
X110100938Y-114012058D01*
X110155741Y-114144364D01*
X110235302Y-114263436D01*
X110336564Y-114364698D01*
X110455636Y-114444259D01*
X110464668Y-114448000D01*
X108927000Y-114448000D01*
X108927000Y-114403397D01*
X108899062Y-114262942D01*
X108844259Y-114130636D01*
X108764698Y-114011564D01*
X108663436Y-113910302D01*
X108544364Y-113830741D01*
X108412058Y-113775938D01*
X108271603Y-113748000D01*
X108128397Y-113748000D01*
X107987942Y-113775938D01*
X107855636Y-113830741D01*
X107736564Y-113910302D01*
X107635302Y-114011564D01*
X107555741Y-114130636D01*
X107500938Y-114262942D01*
X107473000Y-114403397D01*
X107473000Y-114448000D01*
X105628764Y-114448000D01*
X105695309Y-114403536D01*
X105803536Y-114295309D01*
X105888569Y-114168048D01*
X105947141Y-114026643D01*
X105977000Y-113876528D01*
X105977000Y-113723472D01*
X105947141Y-113573357D01*
X105888569Y-113431952D01*
X105803536Y-113304691D01*
X105695309Y-113196464D01*
X105568048Y-113111431D01*
X105426643Y-113052859D01*
X105276528Y-113023000D01*
X105123472Y-113023000D01*
X104973357Y-113052859D01*
X104831952Y-113111431D01*
X104704691Y-113196464D01*
X104641954Y-113259201D01*
X104626643Y-113252859D01*
X104476528Y-113223000D01*
X104323472Y-113223000D01*
X104302000Y-113227271D01*
X104302000Y-112799550D01*
X104292196Y-112700000D01*
X116420693Y-112700000D01*
X116420693Y-113700000D01*
X116429903Y-113793508D01*
X116457178Y-113883423D01*
X116501471Y-113966289D01*
X116561079Y-114038921D01*
X116633711Y-114098529D01*
X116716577Y-114142822D01*
X116806492Y-114170097D01*
X116900000Y-114179307D01*
X117900000Y-114179307D01*
X117993508Y-114170097D01*
X118083423Y-114142822D01*
X118166289Y-114098529D01*
X118206635Y-114065417D01*
X118207217Y-114065806D01*
X118385020Y-114139454D01*
X118573774Y-114177000D01*
X118766226Y-114177000D01*
X118954980Y-114139454D01*
X119132783Y-114065806D01*
X119176690Y-114036468D01*
X119197980Y-114058865D01*
X119379794Y-114187123D01*
X119583136Y-114277446D01*
X119638126Y-114294119D01*
X119813000Y-114167954D01*
X119813000Y-113327000D01*
X119793000Y-113327000D01*
X119793000Y-113073000D01*
X119813000Y-113073000D01*
X119813000Y-112232046D01*
X120067000Y-112232046D01*
X120067000Y-113073000D01*
X120087000Y-113073000D01*
X120087000Y-113327000D01*
X120067000Y-113327000D01*
X120067000Y-114167954D01*
X120241874Y-114294119D01*
X120296864Y-114277446D01*
X120500206Y-114187123D01*
X120682020Y-114058865D01*
X120703310Y-114036468D01*
X120747217Y-114065806D01*
X120925020Y-114139454D01*
X121113774Y-114177000D01*
X121306226Y-114177000D01*
X121494980Y-114139454D01*
X121672783Y-114065806D01*
X121832801Y-113958885D01*
X121968885Y-113822801D01*
X122075806Y-113662783D01*
X122149454Y-113484980D01*
X122187000Y-113296226D01*
X122187000Y-113103774D01*
X122149454Y-112915020D01*
X122075806Y-112737217D01*
X121968885Y-112577199D01*
X121832801Y-112441115D01*
X121672783Y-112334194D01*
X121494980Y-112260546D01*
X121306226Y-112223000D01*
X121113774Y-112223000D01*
X120925020Y-112260546D01*
X120747217Y-112334194D01*
X120703310Y-112363532D01*
X120682020Y-112341135D01*
X120500206Y-112212877D01*
X120296864Y-112122554D01*
X120241874Y-112105881D01*
X120067000Y-112232046D01*
X119813000Y-112232046D01*
X119638126Y-112105881D01*
X119583136Y-112122554D01*
X119379794Y-112212877D01*
X119197980Y-112341135D01*
X119176690Y-112363532D01*
X119132783Y-112334194D01*
X119076737Y-112310979D01*
X121005950Y-110381767D01*
X121053633Y-110381767D01*
X121061331Y-110389465D01*
X121180403Y-110469026D01*
X121312709Y-110523829D01*
X121453164Y-110551767D01*
X121596370Y-110551767D01*
X121736825Y-110523829D01*
X121869131Y-110469026D01*
X121988203Y-110389465D01*
X122089465Y-110288203D01*
X122169026Y-110169131D01*
X122223829Y-110036825D01*
X122251767Y-109896370D01*
X122251767Y-109753164D01*
X122223829Y-109612709D01*
X122169026Y-109480403D01*
X122089465Y-109361331D01*
X121988203Y-109260069D01*
X121869131Y-109180508D01*
X121736825Y-109125705D01*
X121596370Y-109097767D01*
X121453164Y-109097767D01*
X121312709Y-109125705D01*
X121180403Y-109180508D01*
X121061331Y-109260069D01*
X121053633Y-109267767D01*
X120802586Y-109267767D01*
X120775232Y-109265073D01*
X120747879Y-109267767D01*
X120747869Y-109267767D01*
X120666042Y-109275826D01*
X120561047Y-109307676D01*
X120548088Y-109314603D01*
X120464282Y-109359398D01*
X120400723Y-109411560D01*
X120379469Y-109429003D01*
X120362028Y-109450255D01*
X117591591Y-112220693D01*
X116900000Y-112220693D01*
X116806492Y-112229903D01*
X116716577Y-112257178D01*
X116633711Y-112301471D01*
X116561079Y-112361079D01*
X116501471Y-112433711D01*
X116457178Y-112516577D01*
X116429903Y-112606492D01*
X116420693Y-112700000D01*
X104292196Y-112700000D01*
X104287140Y-112648674D01*
X104228415Y-112455083D01*
X104204292Y-112409952D01*
X104255636Y-112444259D01*
X104387942Y-112499062D01*
X104528397Y-112527000D01*
X104671603Y-112527000D01*
X104812058Y-112499062D01*
X104944364Y-112444259D01*
X105063436Y-112364698D01*
X105164698Y-112263436D01*
X105244259Y-112144364D01*
X105299062Y-112012058D01*
X105327000Y-111871603D01*
X105327000Y-111728397D01*
X105299062Y-111587942D01*
X105244259Y-111455636D01*
X105164698Y-111336564D01*
X105063436Y-111235302D01*
X104944364Y-111155741D01*
X104812058Y-111100938D01*
X104671603Y-111073000D01*
X104528397Y-111073000D01*
X104387942Y-111100938D01*
X104255636Y-111155741D01*
X104136564Y-111235302D01*
X104035302Y-111336564D01*
X103955741Y-111455636D01*
X103900938Y-111587942D01*
X103873000Y-111728397D01*
X103873000Y-111871603D01*
X103900938Y-112012058D01*
X103915412Y-112047001D01*
X103848331Y-111991949D01*
X103669917Y-111896585D01*
X103476327Y-111837860D01*
X103275000Y-111818031D01*
X103073674Y-111837860D01*
X102880084Y-111896585D01*
X102701670Y-111991949D01*
X102545289Y-112120288D01*
X102416950Y-112276669D01*
X102321586Y-112455083D01*
X102262860Y-112648673D01*
X102248000Y-112799549D01*
X102248000Y-113600450D01*
X102262860Y-113751326D01*
X102321585Y-113944916D01*
X102416949Y-114123331D01*
X102545288Y-114279712D01*
X102701669Y-114408051D01*
X102776409Y-114448000D01*
X101027001Y-114448000D01*
X100913497Y-114436871D01*
X100830290Y-114411750D01*
X100753544Y-114370943D01*
X100686189Y-114316010D01*
X100630784Y-114249036D01*
X100589447Y-114172584D01*
X100563744Y-114089550D01*
X100552000Y-113977822D01*
X100552000Y-111808228D01*
X100730083Y-111903415D01*
X100923673Y-111962140D01*
X101125000Y-111981969D01*
X101326326Y-111962140D01*
X101519916Y-111903415D01*
X101698331Y-111808051D01*
X101854712Y-111679712D01*
X101983051Y-111523331D01*
X102078415Y-111344917D01*
X102137140Y-111151327D01*
X102152000Y-111000451D01*
X102152000Y-109799549D01*
X102137140Y-109648673D01*
X102078415Y-109455083D01*
X101983051Y-109276669D01*
X101854712Y-109120288D01*
X101698331Y-108991949D01*
X101519917Y-108896585D01*
X101326327Y-108837860D01*
X101125000Y-108818031D01*
X100923674Y-108837860D01*
X100730084Y-108896585D01*
X100552000Y-108991773D01*
X100552000Y-107199549D01*
X102248000Y-107199549D01*
X102248000Y-108000450D01*
X102262860Y-108151326D01*
X102321585Y-108344916D01*
X102416949Y-108523331D01*
X102545288Y-108679712D01*
X102701669Y-108808051D01*
X102880083Y-108903415D01*
X103073673Y-108962140D01*
X103275000Y-108981969D01*
X103476326Y-108962140D01*
X103624233Y-108917273D01*
X103623000Y-108923472D01*
X103623000Y-109076528D01*
X103652859Y-109226643D01*
X103711431Y-109368048D01*
X103796464Y-109495309D01*
X103904691Y-109603536D01*
X103984250Y-109656695D01*
X103925636Y-109680974D01*
X103806564Y-109760535D01*
X103705302Y-109861797D01*
X103625741Y-109980869D01*
X103570938Y-110113175D01*
X103543000Y-110253630D01*
X103543000Y-110396836D01*
X103570938Y-110537291D01*
X103625741Y-110669597D01*
X103705302Y-110788669D01*
X103806564Y-110889931D01*
X103925636Y-110969492D01*
X104057942Y-111024295D01*
X104198397Y-111052233D01*
X104341603Y-111052233D01*
X104482058Y-111024295D01*
X104614364Y-110969492D01*
X104733436Y-110889931D01*
X104834698Y-110788669D01*
X104835133Y-110788017D01*
X111132620Y-110788017D01*
X111132620Y-110931223D01*
X111160558Y-111071678D01*
X111215361Y-111203984D01*
X111294922Y-111323056D01*
X111396184Y-111424318D01*
X111515256Y-111503879D01*
X111647562Y-111558682D01*
X111788017Y-111586620D01*
X111931223Y-111586620D01*
X112071678Y-111558682D01*
X112203984Y-111503879D01*
X112323056Y-111424318D01*
X112424318Y-111323056D01*
X112503879Y-111203984D01*
X112558682Y-111071678D01*
X112586620Y-110931223D01*
X112586620Y-110920336D01*
X113504513Y-110002444D01*
X113525765Y-109985003D01*
X113557256Y-109946631D01*
X113635302Y-110063436D01*
X113736564Y-110164698D01*
X113855636Y-110244259D01*
X113987942Y-110299062D01*
X114128397Y-110327000D01*
X114271603Y-110327000D01*
X114412058Y-110299062D01*
X114544364Y-110244259D01*
X114663436Y-110164698D01*
X114764698Y-110063436D01*
X114800000Y-110010603D01*
X114835302Y-110063436D01*
X114936564Y-110164698D01*
X115055636Y-110244259D01*
X115187942Y-110299062D01*
X115328397Y-110327000D01*
X115471603Y-110327000D01*
X115612058Y-110299062D01*
X115744364Y-110244259D01*
X115863436Y-110164698D01*
X115964698Y-110063436D01*
X116044259Y-109944364D01*
X116099062Y-109812058D01*
X116127000Y-109671603D01*
X116127000Y-109528397D01*
X116099062Y-109387942D01*
X116044259Y-109255636D01*
X115964698Y-109136564D01*
X115863436Y-109035302D01*
X115744364Y-108955741D01*
X115612058Y-108900938D01*
X115471603Y-108873000D01*
X115328397Y-108873000D01*
X115187942Y-108900938D01*
X115055636Y-108955741D01*
X114936564Y-109035302D01*
X114835302Y-109136564D01*
X114800000Y-109189397D01*
X114764698Y-109136564D01*
X114663436Y-109035302D01*
X114544364Y-108955741D01*
X114412058Y-108900938D01*
X114271603Y-108873000D01*
X114128397Y-108873000D01*
X113987942Y-108900938D01*
X113855636Y-108955741D01*
X113736564Y-109035302D01*
X113687001Y-109084865D01*
X113687001Y-105375460D01*
X113722743Y-105399342D01*
X113886896Y-105467336D01*
X114061161Y-105502000D01*
X114238839Y-105502000D01*
X114413104Y-105467336D01*
X114577257Y-105399342D01*
X114724991Y-105300629D01*
X114850629Y-105174991D01*
X114949342Y-105027257D01*
X115017336Y-104863104D01*
X115052000Y-104688839D01*
X115052000Y-104511161D01*
X115017336Y-104336896D01*
X114949342Y-104172743D01*
X114872665Y-104057988D01*
X114923056Y-104024318D01*
X115024318Y-103923056D01*
X115103879Y-103803984D01*
X115158682Y-103671678D01*
X115186620Y-103531223D01*
X115186620Y-103388017D01*
X115158682Y-103247562D01*
X115103879Y-103115256D01*
X115024318Y-102996184D01*
X114923056Y-102894922D01*
X114803984Y-102815361D01*
X114671678Y-102760558D01*
X114531223Y-102732620D01*
X114388017Y-102732620D01*
X114247562Y-102760558D01*
X114115256Y-102815361D01*
X113996184Y-102894922D01*
X113988486Y-102902620D01*
X113944383Y-102902620D01*
X113917029Y-102899926D01*
X113889676Y-102902620D01*
X113889666Y-102902620D01*
X113807839Y-102910679D01*
X113702844Y-102942529D01*
X113657801Y-102966605D01*
X113606079Y-102994251D01*
X113550025Y-103040254D01*
X113521266Y-103063856D01*
X113503824Y-103085109D01*
X112755495Y-103833439D01*
X112734237Y-103850885D01*
X112664632Y-103935699D01*
X112612910Y-104032464D01*
X112581060Y-104137459D01*
X112573001Y-104219286D01*
X112573001Y-104219296D01*
X112570307Y-104246649D01*
X112573001Y-104274002D01*
X112573001Y-104473000D01*
X112528397Y-104473000D01*
X112387942Y-104500938D01*
X112255636Y-104555741D01*
X112136564Y-104635302D01*
X112035302Y-104736564D01*
X111955741Y-104855636D01*
X111900938Y-104987942D01*
X111873000Y-105128397D01*
X111873000Y-105271603D01*
X111900938Y-105412058D01*
X111955741Y-105544364D01*
X112035302Y-105663436D01*
X112136564Y-105764698D01*
X112255636Y-105844259D01*
X112387942Y-105899062D01*
X112528397Y-105927000D01*
X112573001Y-105927000D01*
X112573002Y-109358521D01*
X111798904Y-110132620D01*
X111788017Y-110132620D01*
X111647562Y-110160558D01*
X111515256Y-110215361D01*
X111396184Y-110294922D01*
X111294922Y-110396184D01*
X111215361Y-110515256D01*
X111160558Y-110647562D01*
X111132620Y-110788017D01*
X104835133Y-110788017D01*
X104914259Y-110669597D01*
X104969062Y-110537291D01*
X104997000Y-110396836D01*
X104997000Y-110253630D01*
X104969062Y-110113175D01*
X104914259Y-109980869D01*
X104834698Y-109861797D01*
X104733436Y-109760535D01*
X104680193Y-109724960D01*
X104768048Y-109688569D01*
X104895309Y-109603536D01*
X105003536Y-109495309D01*
X105088569Y-109368048D01*
X105147141Y-109226643D01*
X105177000Y-109076528D01*
X105177000Y-108923472D01*
X105147141Y-108773357D01*
X105088569Y-108631952D01*
X105003536Y-108504691D01*
X104895309Y-108396464D01*
X104768048Y-108311431D01*
X104626643Y-108252859D01*
X104476528Y-108223000D01*
X104323472Y-108223000D01*
X104261669Y-108235293D01*
X104287140Y-108151327D01*
X104302000Y-108000451D01*
X104302000Y-107199550D01*
X104287140Y-107048674D01*
X104228415Y-106855083D01*
X104133051Y-106676669D01*
X104011367Y-106528397D01*
X108073000Y-106528397D01*
X108073000Y-106671603D01*
X108100938Y-106812058D01*
X108155741Y-106944364D01*
X108235302Y-107063436D01*
X108336564Y-107164698D01*
X108455636Y-107244259D01*
X108587942Y-107299062D01*
X108658725Y-107313141D01*
X108635302Y-107336564D01*
X108555741Y-107455636D01*
X108500938Y-107587942D01*
X108473000Y-107728397D01*
X108473000Y-107871603D01*
X108500938Y-108012058D01*
X108555741Y-108144364D01*
X108635302Y-108263436D01*
X108736564Y-108364698D01*
X108855636Y-108444259D01*
X108987942Y-108499062D01*
X109128397Y-108527000D01*
X109271603Y-108527000D01*
X109412058Y-108499062D01*
X109544364Y-108444259D01*
X109663436Y-108364698D01*
X109764698Y-108263436D01*
X109844259Y-108144364D01*
X109899062Y-108012058D01*
X109927000Y-107871603D01*
X109927000Y-107728397D01*
X109899062Y-107587942D01*
X109844259Y-107455636D01*
X109764698Y-107336564D01*
X109663436Y-107235302D01*
X109544364Y-107155741D01*
X109412058Y-107100938D01*
X109341275Y-107086859D01*
X109364698Y-107063436D01*
X109444259Y-106944364D01*
X109499062Y-106812058D01*
X109527000Y-106671603D01*
X109527000Y-106528397D01*
X109499062Y-106387942D01*
X109444259Y-106255636D01*
X109364698Y-106136564D01*
X109263436Y-106035302D01*
X109144364Y-105955741D01*
X109012058Y-105900938D01*
X108871603Y-105873000D01*
X108728397Y-105873000D01*
X108587942Y-105900938D01*
X108455636Y-105955741D01*
X108336564Y-106035302D01*
X108235302Y-106136564D01*
X108155741Y-106255636D01*
X108100938Y-106387942D01*
X108073000Y-106528397D01*
X104011367Y-106528397D01*
X104004712Y-106520288D01*
X103848331Y-106391949D01*
X103669917Y-106296585D01*
X103476327Y-106237860D01*
X103275000Y-106218031D01*
X103073674Y-106237860D01*
X102880084Y-106296585D01*
X102701670Y-106391949D01*
X102545289Y-106520288D01*
X102416950Y-106676669D01*
X102321586Y-106855083D01*
X102262860Y-107048673D01*
X102248000Y-107199549D01*
X100552000Y-107199549D01*
X100552000Y-103026993D01*
X100563128Y-102913498D01*
X100588252Y-102830288D01*
X100629058Y-102753543D01*
X100683988Y-102686192D01*
X100750964Y-102630784D01*
X100827417Y-102589446D01*
X100910450Y-102563743D01*
X101022178Y-102552000D01*
X103195859Y-102552000D01*
X103138815Y-102598815D01*
G37*
G04 #@! TD.AperFunction*
D22*
X139086502Y-102563128D02*
X139169712Y-102588252D01*
X139246457Y-102629058D01*
X139313808Y-102683988D01*
X139369216Y-102750964D01*
X139410554Y-102827417D01*
X139436257Y-102910450D01*
X139448001Y-103022187D01*
X139448001Y-103673787D01*
X139416004Y-103512928D01*
X139315972Y-103271430D01*
X139170748Y-103054087D01*
X138985913Y-102869252D01*
X138768570Y-102724028D01*
X138527072Y-102623996D01*
X138270698Y-102573000D01*
X138009302Y-102573000D01*
X137752928Y-102623996D01*
X137511430Y-102724028D01*
X137294087Y-102869252D01*
X137109252Y-103054087D01*
X136964028Y-103271430D01*
X136929307Y-103355254D01*
X136929307Y-103050000D01*
X136920097Y-102956492D01*
X136892822Y-102866577D01*
X136848529Y-102783711D01*
X136788921Y-102711079D01*
X136716289Y-102651471D01*
X136633423Y-102607178D01*
X136543508Y-102579903D01*
X136450000Y-102570693D01*
X134750000Y-102570693D01*
X134656492Y-102579903D01*
X134566577Y-102607178D01*
X134483711Y-102651471D01*
X134411079Y-102711079D01*
X134351471Y-102783711D01*
X134307178Y-102866577D01*
X134279903Y-102956492D01*
X134270693Y-103050000D01*
X134270693Y-104239271D01*
X134021916Y-103990494D01*
X134004470Y-103969236D01*
X133919656Y-103899631D01*
X133822892Y-103847909D01*
X133717897Y-103816059D01*
X133636070Y-103808000D01*
X133636059Y-103808000D01*
X133608706Y-103805306D01*
X133581353Y-103808000D01*
X133406134Y-103808000D01*
X133398436Y-103800302D01*
X133279364Y-103720741D01*
X133147058Y-103665938D01*
X133006603Y-103638000D01*
X132863397Y-103638000D01*
X132722942Y-103665938D01*
X132590636Y-103720741D01*
X132471564Y-103800302D01*
X132370302Y-103901564D01*
X132290741Y-104020636D01*
X132235938Y-104152942D01*
X132208000Y-104293397D01*
X132208000Y-104436603D01*
X132235938Y-104577058D01*
X132290741Y-104709364D01*
X132370302Y-104828436D01*
X132471564Y-104929698D01*
X132590636Y-105009259D01*
X132722942Y-105064062D01*
X132863397Y-105092000D01*
X133006603Y-105092000D01*
X133105058Y-105072416D01*
X132225489Y-105951986D01*
X132204237Y-105969427D01*
X132186796Y-105990679D01*
X132186793Y-105990682D01*
X132134631Y-106054241D01*
X132091873Y-106134236D01*
X132082910Y-106151005D01*
X132051060Y-106256000D01*
X132048095Y-106286108D01*
X132040306Y-106365191D01*
X132043001Y-106392554D01*
X132043000Y-110912645D01*
X132040306Y-110939998D01*
X132043000Y-110967351D01*
X132043000Y-110967361D01*
X132051059Y-111049188D01*
X132082909Y-111154183D01*
X132134631Y-111250948D01*
X132203002Y-111334258D01*
X132203002Y-111341603D01*
X132230940Y-111482058D01*
X132285743Y-111614364D01*
X132352379Y-111714093D01*
X132185750Y-111715000D01*
X132027000Y-111873750D01*
X132027000Y-113073000D01*
X133226250Y-113073000D01*
X133385000Y-112914250D01*
X133387806Y-112398936D01*
X133455636Y-112444259D01*
X133587942Y-112499062D01*
X133728397Y-112527000D01*
X133871603Y-112527000D01*
X134012058Y-112499062D01*
X134144364Y-112444259D01*
X134263436Y-112364698D01*
X134364698Y-112263436D01*
X134444259Y-112144364D01*
X134499062Y-112012058D01*
X134527000Y-111871603D01*
X134527000Y-111728397D01*
X134499062Y-111587942D01*
X134444259Y-111455636D01*
X134364698Y-111336564D01*
X134357000Y-111328866D01*
X134357000Y-111227353D01*
X134359694Y-111199999D01*
X134357000Y-111172646D01*
X134357000Y-111172636D01*
X134348941Y-111090809D01*
X134317091Y-110985814D01*
X134287911Y-110931223D01*
X134265369Y-110889049D01*
X134213207Y-110825490D01*
X134213205Y-110825488D01*
X134195764Y-110804236D01*
X134174511Y-110786795D01*
X134114425Y-110726709D01*
X134164698Y-110676436D01*
X134244259Y-110557364D01*
X134273000Y-110487977D01*
X134273000Y-110670698D01*
X134323996Y-110927072D01*
X134424028Y-111168570D01*
X134569252Y-111385913D01*
X134754087Y-111570748D01*
X134971430Y-111715972D01*
X135198433Y-111810000D01*
X134971430Y-111904028D01*
X134754087Y-112049252D01*
X134569252Y-112234087D01*
X134424028Y-112451430D01*
X134323996Y-112692928D01*
X134273000Y-112949302D01*
X134273000Y-113210698D01*
X134323996Y-113467072D01*
X134424028Y-113708570D01*
X134569252Y-113925913D01*
X134754087Y-114110748D01*
X134971430Y-114255972D01*
X135212928Y-114356004D01*
X135469302Y-114407000D01*
X135730698Y-114407000D01*
X135987072Y-114356004D01*
X136228570Y-114255972D01*
X136445913Y-114110748D01*
X136630748Y-113925913D01*
X136775972Y-113708570D01*
X136870000Y-113481567D01*
X136964028Y-113708570D01*
X137109252Y-113925913D01*
X137294087Y-114110748D01*
X137511430Y-114255972D01*
X137752928Y-114356004D01*
X138009302Y-114407000D01*
X138270698Y-114407000D01*
X138527072Y-114356004D01*
X138768570Y-114255972D01*
X138985913Y-114110748D01*
X139170748Y-113925913D01*
X139315972Y-113708570D01*
X139416004Y-113467072D01*
X139448000Y-113306217D01*
X139448000Y-113972999D01*
X139436871Y-114086503D01*
X139411750Y-114169710D01*
X139370943Y-114246456D01*
X139316010Y-114313811D01*
X139249036Y-114369216D01*
X139172584Y-114410553D01*
X139089550Y-114436256D01*
X138977822Y-114448000D01*
X133244833Y-114448000D01*
X133280537Y-114404494D01*
X133339502Y-114294180D01*
X133375812Y-114174482D01*
X133388072Y-114050000D01*
X133385000Y-113485750D01*
X133226250Y-113327000D01*
X132027000Y-113327000D01*
X132027000Y-113347000D01*
X131773000Y-113347000D01*
X131773000Y-113327000D01*
X131753000Y-113327000D01*
X131753000Y-113073000D01*
X131773000Y-113073000D01*
X131773000Y-111873750D01*
X131741711Y-111842461D01*
X131763152Y-111790698D01*
X131791090Y-111650243D01*
X131791090Y-111507037D01*
X131763152Y-111366582D01*
X131708349Y-111234276D01*
X131628788Y-111115204D01*
X131527526Y-111013942D01*
X131408454Y-110934381D01*
X131276148Y-110879578D01*
X131135693Y-110851640D01*
X130992487Y-110851640D01*
X130852032Y-110879578D01*
X130719726Y-110934381D01*
X130600654Y-111013942D01*
X130499392Y-111115204D01*
X130419831Y-111234276D01*
X130365028Y-111366582D01*
X130343860Y-111473000D01*
X130328397Y-111473000D01*
X130187942Y-111500938D01*
X130055636Y-111555741D01*
X129936564Y-111635302D01*
X129835302Y-111736564D01*
X129755741Y-111855636D01*
X129728921Y-111920386D01*
X129627852Y-111900282D01*
X129664698Y-111863436D01*
X129744259Y-111744364D01*
X129799062Y-111612058D01*
X129827000Y-111471603D01*
X129827000Y-111328397D01*
X129799062Y-111187942D01*
X129744259Y-111055636D01*
X129664698Y-110936564D01*
X129563436Y-110835302D01*
X129444364Y-110755741D01*
X129357000Y-110719554D01*
X129357000Y-105576180D01*
X129415302Y-105663436D01*
X129516564Y-105764698D01*
X129635636Y-105844259D01*
X129767942Y-105899062D01*
X129908397Y-105927000D01*
X130051603Y-105927000D01*
X130192058Y-105899062D01*
X130324364Y-105844259D01*
X130330001Y-105840492D01*
X130335639Y-105844259D01*
X130467945Y-105899062D01*
X130608400Y-105927000D01*
X130751606Y-105927000D01*
X130892061Y-105899062D01*
X131024367Y-105844259D01*
X131143439Y-105764698D01*
X131244701Y-105663436D01*
X131324262Y-105544364D01*
X131379065Y-105412058D01*
X131407003Y-105271603D01*
X131407003Y-105128397D01*
X131379065Y-104987942D01*
X131324262Y-104855636D01*
X131244701Y-104736564D01*
X131143439Y-104635302D01*
X131024367Y-104555741D01*
X130892061Y-104500938D01*
X130751606Y-104473000D01*
X130608400Y-104473000D01*
X130467945Y-104500938D01*
X130335639Y-104555741D01*
X130330002Y-104559508D01*
X130324364Y-104555741D01*
X130192058Y-104500938D01*
X130051603Y-104473000D01*
X129908397Y-104473000D01*
X129767942Y-104500938D01*
X129635636Y-104555741D01*
X129624604Y-104563112D01*
X130860717Y-103327000D01*
X130871603Y-103327000D01*
X131012058Y-103299062D01*
X131144364Y-103244259D01*
X131263436Y-103164698D01*
X131364698Y-103063436D01*
X131444259Y-102944364D01*
X131499062Y-102812058D01*
X131527000Y-102671603D01*
X131527000Y-102552000D01*
X138973007Y-102552000D01*
X139086502Y-102563128D01*
G04 #@! TA.AperFunction,Conductor*
D23*
G36*
X139086502Y-102563128D02*
G01*
X139169712Y-102588252D01*
X139246457Y-102629058D01*
X139313808Y-102683988D01*
X139369216Y-102750964D01*
X139410554Y-102827417D01*
X139436257Y-102910450D01*
X139448001Y-103022187D01*
X139448001Y-103673787D01*
X139416004Y-103512928D01*
X139315972Y-103271430D01*
X139170748Y-103054087D01*
X138985913Y-102869252D01*
X138768570Y-102724028D01*
X138527072Y-102623996D01*
X138270698Y-102573000D01*
X138009302Y-102573000D01*
X137752928Y-102623996D01*
X137511430Y-102724028D01*
X137294087Y-102869252D01*
X137109252Y-103054087D01*
X136964028Y-103271430D01*
X136929307Y-103355254D01*
X136929307Y-103050000D01*
X136920097Y-102956492D01*
X136892822Y-102866577D01*
X136848529Y-102783711D01*
X136788921Y-102711079D01*
X136716289Y-102651471D01*
X136633423Y-102607178D01*
X136543508Y-102579903D01*
X136450000Y-102570693D01*
X134750000Y-102570693D01*
X134656492Y-102579903D01*
X134566577Y-102607178D01*
X134483711Y-102651471D01*
X134411079Y-102711079D01*
X134351471Y-102783711D01*
X134307178Y-102866577D01*
X134279903Y-102956492D01*
X134270693Y-103050000D01*
X134270693Y-104239271D01*
X134021916Y-103990494D01*
X134004470Y-103969236D01*
X133919656Y-103899631D01*
X133822892Y-103847909D01*
X133717897Y-103816059D01*
X133636070Y-103808000D01*
X133636059Y-103808000D01*
X133608706Y-103805306D01*
X133581353Y-103808000D01*
X133406134Y-103808000D01*
X133398436Y-103800302D01*
X133279364Y-103720741D01*
X133147058Y-103665938D01*
X133006603Y-103638000D01*
X132863397Y-103638000D01*
X132722942Y-103665938D01*
X132590636Y-103720741D01*
X132471564Y-103800302D01*
X132370302Y-103901564D01*
X132290741Y-104020636D01*
X132235938Y-104152942D01*
X132208000Y-104293397D01*
X132208000Y-104436603D01*
X132235938Y-104577058D01*
X132290741Y-104709364D01*
X132370302Y-104828436D01*
X132471564Y-104929698D01*
X132590636Y-105009259D01*
X132722942Y-105064062D01*
X132863397Y-105092000D01*
X133006603Y-105092000D01*
X133105058Y-105072416D01*
X132225489Y-105951986D01*
X132204237Y-105969427D01*
X132186796Y-105990679D01*
X132186793Y-105990682D01*
X132134631Y-106054241D01*
X132091873Y-106134236D01*
X132082910Y-106151005D01*
X132051060Y-106256000D01*
X132048095Y-106286108D01*
X132040306Y-106365191D01*
X132043001Y-106392554D01*
X132043000Y-110912645D01*
X132040306Y-110939998D01*
X132043000Y-110967351D01*
X132043000Y-110967361D01*
X132051059Y-111049188D01*
X132082909Y-111154183D01*
X132134631Y-111250948D01*
X132203002Y-111334258D01*
X132203002Y-111341603D01*
X132230940Y-111482058D01*
X132285743Y-111614364D01*
X132352379Y-111714093D01*
X132185750Y-111715000D01*
X132027000Y-111873750D01*
X132027000Y-113073000D01*
X133226250Y-113073000D01*
X133385000Y-112914250D01*
X133387806Y-112398936D01*
X133455636Y-112444259D01*
X133587942Y-112499062D01*
X133728397Y-112527000D01*
X133871603Y-112527000D01*
X134012058Y-112499062D01*
X134144364Y-112444259D01*
X134263436Y-112364698D01*
X134364698Y-112263436D01*
X134444259Y-112144364D01*
X134499062Y-112012058D01*
X134527000Y-111871603D01*
X134527000Y-111728397D01*
X134499062Y-111587942D01*
X134444259Y-111455636D01*
X134364698Y-111336564D01*
X134357000Y-111328866D01*
X134357000Y-111227353D01*
X134359694Y-111199999D01*
X134357000Y-111172646D01*
X134357000Y-111172636D01*
X134348941Y-111090809D01*
X134317091Y-110985814D01*
X134287911Y-110931223D01*
X134265369Y-110889049D01*
X134213207Y-110825490D01*
X134213205Y-110825488D01*
X134195764Y-110804236D01*
X134174511Y-110786795D01*
X134114425Y-110726709D01*
X134164698Y-110676436D01*
X134244259Y-110557364D01*
X134273000Y-110487977D01*
X134273000Y-110670698D01*
X134323996Y-110927072D01*
X134424028Y-111168570D01*
X134569252Y-111385913D01*
X134754087Y-111570748D01*
X134971430Y-111715972D01*
X135198433Y-111810000D01*
X134971430Y-111904028D01*
X134754087Y-112049252D01*
X134569252Y-112234087D01*
X134424028Y-112451430D01*
X134323996Y-112692928D01*
X134273000Y-112949302D01*
X134273000Y-113210698D01*
X134323996Y-113467072D01*
X134424028Y-113708570D01*
X134569252Y-113925913D01*
X134754087Y-114110748D01*
X134971430Y-114255972D01*
X135212928Y-114356004D01*
X135469302Y-114407000D01*
X135730698Y-114407000D01*
X135987072Y-114356004D01*
X136228570Y-114255972D01*
X136445913Y-114110748D01*
X136630748Y-113925913D01*
X136775972Y-113708570D01*
X136870000Y-113481567D01*
X136964028Y-113708570D01*
X137109252Y-113925913D01*
X137294087Y-114110748D01*
X137511430Y-114255972D01*
X137752928Y-114356004D01*
X138009302Y-114407000D01*
X138270698Y-114407000D01*
X138527072Y-114356004D01*
X138768570Y-114255972D01*
X138985913Y-114110748D01*
X139170748Y-113925913D01*
X139315972Y-113708570D01*
X139416004Y-113467072D01*
X139448000Y-113306217D01*
X139448000Y-113972999D01*
X139436871Y-114086503D01*
X139411750Y-114169710D01*
X139370943Y-114246456D01*
X139316010Y-114313811D01*
X139249036Y-114369216D01*
X139172584Y-114410553D01*
X139089550Y-114436256D01*
X138977822Y-114448000D01*
X133244833Y-114448000D01*
X133280537Y-114404494D01*
X133339502Y-114294180D01*
X133375812Y-114174482D01*
X133388072Y-114050000D01*
X133385000Y-113485750D01*
X133226250Y-113327000D01*
X132027000Y-113327000D01*
X132027000Y-113347000D01*
X131773000Y-113347000D01*
X131773000Y-113327000D01*
X131753000Y-113327000D01*
X131753000Y-113073000D01*
X131773000Y-113073000D01*
X131773000Y-111873750D01*
X131741711Y-111842461D01*
X131763152Y-111790698D01*
X131791090Y-111650243D01*
X131791090Y-111507037D01*
X131763152Y-111366582D01*
X131708349Y-111234276D01*
X131628788Y-111115204D01*
X131527526Y-111013942D01*
X131408454Y-110934381D01*
X131276148Y-110879578D01*
X131135693Y-110851640D01*
X130992487Y-110851640D01*
X130852032Y-110879578D01*
X130719726Y-110934381D01*
X130600654Y-111013942D01*
X130499392Y-111115204D01*
X130419831Y-111234276D01*
X130365028Y-111366582D01*
X130343860Y-111473000D01*
X130328397Y-111473000D01*
X130187942Y-111500938D01*
X130055636Y-111555741D01*
X129936564Y-111635302D01*
X129835302Y-111736564D01*
X129755741Y-111855636D01*
X129728921Y-111920386D01*
X129627852Y-111900282D01*
X129664698Y-111863436D01*
X129744259Y-111744364D01*
X129799062Y-111612058D01*
X129827000Y-111471603D01*
X129827000Y-111328397D01*
X129799062Y-111187942D01*
X129744259Y-111055636D01*
X129664698Y-110936564D01*
X129563436Y-110835302D01*
X129444364Y-110755741D01*
X129357000Y-110719554D01*
X129357000Y-105576180D01*
X129415302Y-105663436D01*
X129516564Y-105764698D01*
X129635636Y-105844259D01*
X129767942Y-105899062D01*
X129908397Y-105927000D01*
X130051603Y-105927000D01*
X130192058Y-105899062D01*
X130324364Y-105844259D01*
X130330001Y-105840492D01*
X130335639Y-105844259D01*
X130467945Y-105899062D01*
X130608400Y-105927000D01*
X130751606Y-105927000D01*
X130892061Y-105899062D01*
X131024367Y-105844259D01*
X131143439Y-105764698D01*
X131244701Y-105663436D01*
X131324262Y-105544364D01*
X131379065Y-105412058D01*
X131407003Y-105271603D01*
X131407003Y-105128397D01*
X131379065Y-104987942D01*
X131324262Y-104855636D01*
X131244701Y-104736564D01*
X131143439Y-104635302D01*
X131024367Y-104555741D01*
X130892061Y-104500938D01*
X130751606Y-104473000D01*
X130608400Y-104473000D01*
X130467945Y-104500938D01*
X130335639Y-104555741D01*
X130330002Y-104559508D01*
X130324364Y-104555741D01*
X130192058Y-104500938D01*
X130051603Y-104473000D01*
X129908397Y-104473000D01*
X129767942Y-104500938D01*
X129635636Y-104555741D01*
X129624604Y-104563112D01*
X130860717Y-103327000D01*
X130871603Y-103327000D01*
X131012058Y-103299062D01*
X131144364Y-103244259D01*
X131263436Y-103164698D01*
X131364698Y-103063436D01*
X131444259Y-102944364D01*
X131499062Y-102812058D01*
X131527000Y-102671603D01*
X131527000Y-102552000D01*
X138973007Y-102552000D01*
X139086502Y-102563128D01*
G37*
G04 #@! TD.AperFunction*
D22*
X126947000Y-113073000D02*
X126967000Y-113073000D01*
X126967000Y-113327000D01*
X126947000Y-113327000D01*
X126947000Y-113347000D01*
X126693000Y-113347000D01*
X126693000Y-113327000D01*
X126673000Y-113327000D01*
X126673000Y-113073000D01*
X126693000Y-113073000D01*
X126693000Y-113053000D01*
X126947000Y-113053000D01*
X126947000Y-113073000D01*
G04 #@! TA.AperFunction,Conductor*
D23*
G36*
X126947000Y-113073000D02*
G01*
X126967000Y-113073000D01*
X126967000Y-113327000D01*
X126947000Y-113327000D01*
X126947000Y-113347000D01*
X126693000Y-113347000D01*
X126693000Y-113327000D01*
X126673000Y-113327000D01*
X126673000Y-113073000D01*
X126693000Y-113073000D01*
X126693000Y-113053000D01*
X126947000Y-113053000D01*
X126947000Y-113073000D01*
G37*
G04 #@! TD.AperFunction*
D22*
X139448001Y-107309416D02*
X139411641Y-107233080D01*
X139237588Y-106999731D01*
X139021355Y-106804822D01*
X138771252Y-106655843D01*
X138496891Y-106558519D01*
X138267000Y-106679186D01*
X138267000Y-107873000D01*
X138287000Y-107873000D01*
X138287000Y-108127000D01*
X138267000Y-108127000D01*
X138267000Y-108147000D01*
X138013000Y-108147000D01*
X138013000Y-108127000D01*
X135727000Y-108127000D01*
X135727000Y-108147000D01*
X135473000Y-108147000D01*
X135473000Y-108127000D01*
X135453000Y-108127000D01*
X135453000Y-107873000D01*
X135473000Y-107873000D01*
X135473000Y-106673750D01*
X135727000Y-106673750D01*
X135727000Y-107873000D01*
X138013000Y-107873000D01*
X138013000Y-106679186D01*
X137783109Y-106558519D01*
X137526994Y-106649371D01*
X137526994Y-106528397D01*
X137499056Y-106387942D01*
X137444253Y-106255636D01*
X137364692Y-106136564D01*
X137263430Y-106035302D01*
X137144358Y-105955741D01*
X137012052Y-105900938D01*
X136871597Y-105873000D01*
X136728391Y-105873000D01*
X136587936Y-105900938D01*
X136455630Y-105955741D01*
X136336558Y-106035302D01*
X136235296Y-106136564D01*
X136155735Y-106255636D01*
X136100932Y-106387942D01*
X136075865Y-106513965D01*
X135885750Y-106515000D01*
X135727000Y-106673750D01*
X135473000Y-106673750D01*
X135314250Y-106515000D01*
X134926640Y-106512890D01*
X134936116Y-106495161D01*
X134940112Y-106481987D01*
X134967966Y-106390166D01*
X134976025Y-106308339D01*
X134976025Y-106308336D01*
X134978720Y-106280975D01*
X134976025Y-106253614D01*
X134976025Y-105229307D01*
X136450000Y-105229307D01*
X136543508Y-105220097D01*
X136633423Y-105192822D01*
X136716289Y-105148529D01*
X136788921Y-105088921D01*
X136848529Y-105016289D01*
X136892822Y-104933423D01*
X136920097Y-104843508D01*
X136929307Y-104750000D01*
X136929307Y-104444746D01*
X136964028Y-104528570D01*
X137109252Y-104745913D01*
X137294087Y-104930748D01*
X137511430Y-105075972D01*
X137752928Y-105176004D01*
X138009302Y-105227000D01*
X138270698Y-105227000D01*
X138527072Y-105176004D01*
X138768570Y-105075972D01*
X138985913Y-104930748D01*
X139170748Y-104745913D01*
X139315972Y-104528570D01*
X139416004Y-104287072D01*
X139448001Y-104126213D01*
X139448001Y-107309416D01*
G04 #@! TA.AperFunction,Conductor*
D23*
G36*
X139448001Y-107309416D02*
G01*
X139411641Y-107233080D01*
X139237588Y-106999731D01*
X139021355Y-106804822D01*
X138771252Y-106655843D01*
X138496891Y-106558519D01*
X138267000Y-106679186D01*
X138267000Y-107873000D01*
X138287000Y-107873000D01*
X138287000Y-108127000D01*
X138267000Y-108127000D01*
X138267000Y-108147000D01*
X138013000Y-108147000D01*
X138013000Y-108127000D01*
X135727000Y-108127000D01*
X135727000Y-108147000D01*
X135473000Y-108147000D01*
X135473000Y-108127000D01*
X135453000Y-108127000D01*
X135453000Y-107873000D01*
X135473000Y-107873000D01*
X135473000Y-106673750D01*
X135727000Y-106673750D01*
X135727000Y-107873000D01*
X138013000Y-107873000D01*
X138013000Y-106679186D01*
X137783109Y-106558519D01*
X137526994Y-106649371D01*
X137526994Y-106528397D01*
X137499056Y-106387942D01*
X137444253Y-106255636D01*
X137364692Y-106136564D01*
X137263430Y-106035302D01*
X137144358Y-105955741D01*
X137012052Y-105900938D01*
X136871597Y-105873000D01*
X136728391Y-105873000D01*
X136587936Y-105900938D01*
X136455630Y-105955741D01*
X136336558Y-106035302D01*
X136235296Y-106136564D01*
X136155735Y-106255636D01*
X136100932Y-106387942D01*
X136075865Y-106513965D01*
X135885750Y-106515000D01*
X135727000Y-106673750D01*
X135473000Y-106673750D01*
X135314250Y-106515000D01*
X134926640Y-106512890D01*
X134936116Y-106495161D01*
X134940112Y-106481987D01*
X134967966Y-106390166D01*
X134976025Y-106308339D01*
X134976025Y-106308336D01*
X134978720Y-106280975D01*
X134976025Y-106253614D01*
X134976025Y-105229307D01*
X136450000Y-105229307D01*
X136543508Y-105220097D01*
X136633423Y-105192822D01*
X136716289Y-105148529D01*
X136788921Y-105088921D01*
X136848529Y-105016289D01*
X136892822Y-104933423D01*
X136920097Y-104843508D01*
X136929307Y-104750000D01*
X136929307Y-104444746D01*
X136964028Y-104528570D01*
X137109252Y-104745913D01*
X137294087Y-104930748D01*
X137511430Y-105075972D01*
X137752928Y-105176004D01*
X138009302Y-105227000D01*
X138270698Y-105227000D01*
X138527072Y-105176004D01*
X138768570Y-105075972D01*
X138985913Y-104930748D01*
X139170748Y-104745913D01*
X139315972Y-104528570D01*
X139416004Y-104287072D01*
X139448001Y-104126213D01*
X139448001Y-107309416D01*
G37*
G04 #@! TD.AperFunction*
D22*
X121777199Y-104358885D02*
X121843001Y-104402852D01*
X121843000Y-106455284D01*
X121687000Y-106299284D01*
X121687000Y-104402852D01*
X121752801Y-104358885D01*
X121765000Y-104346686D01*
X121777199Y-104358885D01*
G04 #@! TA.AperFunction,Conductor*
D23*
G36*
X121777199Y-104358885D02*
G01*
X121843001Y-104402852D01*
X121843000Y-106455284D01*
X121687000Y-106299284D01*
X121687000Y-104402852D01*
X121752801Y-104358885D01*
X121765000Y-104346686D01*
X121777199Y-104358885D01*
G37*
G04 #@! TD.AperFunction*
M02*
