G04 #@! TF.GenerationSoftware,KiCad,Pcbnew,(5.1.9)-1*
G04 #@! TF.CreationDate,2021-05-04T20:43:57+10:00*
G04 #@! TF.ProjectId,microBoSL,6d696372-6f42-46f5-934c-2e6b69636164,0.2.0*
G04 #@! TF.SameCoordinates,Original*
G04 #@! TF.FileFunction,Copper,L4,Bot*
G04 #@! TF.FilePolarity,Positive*
%FSLAX46Y46*%
G04 Gerber Fmt 4.6, Leading zero omitted, Abs format (unit mm)*
G04 Created by KiCad (PCBNEW (5.1.9)-1) date 2021-05-04 20:43:57*
%MOMM*%
%LPD*%
G01*
G04 APERTURE LIST*
G04 #@! TA.AperFunction,SMDPad,CuDef*
%ADD10C,1.000000*%
G04 #@! TD*
G04 #@! TA.AperFunction,ComponentPad*
%ADD11O,1.000000X1.000000*%
G04 #@! TD*
G04 #@! TA.AperFunction,ComponentPad*
%ADD12R,1.000000X1.000000*%
G04 #@! TD*
G04 #@! TA.AperFunction,SMDPad,CuDef*
%ADD13R,2.000000X2.400000*%
G04 #@! TD*
G04 #@! TA.AperFunction,SMDPad,CuDef*
%ADD14R,0.650000X1.060000*%
G04 #@! TD*
G04 #@! TA.AperFunction,WasherPad*
%ADD15C,0.850000*%
G04 #@! TD*
G04 #@! TA.AperFunction,SMDPad,CuDef*
%ADD16R,0.700000X0.450000*%
G04 #@! TD*
G04 #@! TA.AperFunction,ComponentPad*
%ADD17O,1.700000X1.700000*%
G04 #@! TD*
G04 #@! TA.AperFunction,ComponentPad*
%ADD18R,1.700000X1.700000*%
G04 #@! TD*
G04 #@! TA.AperFunction,SMDPad,CuDef*
%ADD19R,1.450000X0.450000*%
G04 #@! TD*
G04 #@! TA.AperFunction,ComponentPad*
%ADD20O,1.100000X2.200000*%
G04 #@! TD*
G04 #@! TA.AperFunction,ComponentPad*
%ADD21O,1.100000X1.800000*%
G04 #@! TD*
G04 #@! TA.AperFunction,ViaPad*
%ADD22C,0.500000*%
G04 #@! TD*
G04 #@! TA.AperFunction,ViaPad*
%ADD23C,0.600000*%
G04 #@! TD*
G04 #@! TA.AperFunction,Conductor*
%ADD24C,0.400000*%
G04 #@! TD*
G04 #@! TA.AperFunction,Conductor*
%ADD25C,0.600000*%
G04 #@! TD*
G04 #@! TA.AperFunction,Conductor*
%ADD26C,0.250000*%
G04 #@! TD*
G04 #@! TA.AperFunction,Conductor*
%ADD27C,0.160000*%
G04 #@! TD*
G04 #@! TA.AperFunction,Conductor*
%ADD28C,0.800000*%
G04 #@! TD*
G04 #@! TA.AperFunction,Conductor*
%ADD29C,0.200000*%
G04 #@! TD*
G04 APERTURE END LIST*
D10*
X138800000Y-106000000D03*
X101300000Y-107500000D03*
X114300000Y-112200000D03*
D11*
X117390000Y-103600000D03*
X118660000Y-103600000D03*
D12*
X119930000Y-103600000D03*
D11*
X121210000Y-113200000D03*
X119940000Y-113200000D03*
X118670000Y-113200000D03*
D12*
X117400000Y-113200000D03*
D11*
X121130000Y-103600000D03*
X122400000Y-103600000D03*
X123670000Y-103600000D03*
D12*
X124940000Y-103600000D03*
D13*
X127690000Y-109800000D03*
X131390000Y-109800000D03*
G04 #@! TA.AperFunction,SMDPad,CuDef*
G36*
G01*
X131300000Y-107055000D02*
X131300000Y-106755000D01*
G75*
G02*
X131450000Y-106605000I150000J0D01*
G01*
X133100000Y-106605000D01*
G75*
G02*
X133250000Y-106755000I0J-150000D01*
G01*
X133250000Y-107055000D01*
G75*
G02*
X133100000Y-107205000I-150000J0D01*
G01*
X131450000Y-107205000D01*
G75*
G02*
X131300000Y-107055000I0J150000D01*
G01*
G37*
G04 #@! TD.AperFunction*
G04 #@! TA.AperFunction,SMDPad,CuDef*
G36*
G01*
X131300000Y-105785000D02*
X131300000Y-105485000D01*
G75*
G02*
X131450000Y-105335000I150000J0D01*
G01*
X133100000Y-105335000D01*
G75*
G02*
X133250000Y-105485000I0J-150000D01*
G01*
X133250000Y-105785000D01*
G75*
G02*
X133100000Y-105935000I-150000J0D01*
G01*
X131450000Y-105935000D01*
G75*
G02*
X131300000Y-105785000I0J150000D01*
G01*
G37*
G04 #@! TD.AperFunction*
G04 #@! TA.AperFunction,SMDPad,CuDef*
G36*
G01*
X131300000Y-104515000D02*
X131300000Y-104215000D01*
G75*
G02*
X131450000Y-104065000I150000J0D01*
G01*
X133100000Y-104065000D01*
G75*
G02*
X133250000Y-104215000I0J-150000D01*
G01*
X133250000Y-104515000D01*
G75*
G02*
X133100000Y-104665000I-150000J0D01*
G01*
X131450000Y-104665000D01*
G75*
G02*
X131300000Y-104515000I0J150000D01*
G01*
G37*
G04 #@! TD.AperFunction*
G04 #@! TA.AperFunction,SMDPad,CuDef*
G36*
G01*
X131300000Y-103245000D02*
X131300000Y-102945000D01*
G75*
G02*
X131450000Y-102795000I150000J0D01*
G01*
X133100000Y-102795000D01*
G75*
G02*
X133250000Y-102945000I0J-150000D01*
G01*
X133250000Y-103245000D01*
G75*
G02*
X133100000Y-103395000I-150000J0D01*
G01*
X131450000Y-103395000D01*
G75*
G02*
X131300000Y-103245000I0J150000D01*
G01*
G37*
G04 #@! TD.AperFunction*
G04 #@! TA.AperFunction,SMDPad,CuDef*
G36*
G01*
X126350000Y-103245000D02*
X126350000Y-102945000D01*
G75*
G02*
X126500000Y-102795000I150000J0D01*
G01*
X128150000Y-102795000D01*
G75*
G02*
X128300000Y-102945000I0J-150000D01*
G01*
X128300000Y-103245000D01*
G75*
G02*
X128150000Y-103395000I-150000J0D01*
G01*
X126500000Y-103395000D01*
G75*
G02*
X126350000Y-103245000I0J150000D01*
G01*
G37*
G04 #@! TD.AperFunction*
G04 #@! TA.AperFunction,SMDPad,CuDef*
G36*
G01*
X126350000Y-104515000D02*
X126350000Y-104215000D01*
G75*
G02*
X126500000Y-104065000I150000J0D01*
G01*
X128150000Y-104065000D01*
G75*
G02*
X128300000Y-104215000I0J-150000D01*
G01*
X128300000Y-104515000D01*
G75*
G02*
X128150000Y-104665000I-150000J0D01*
G01*
X126500000Y-104665000D01*
G75*
G02*
X126350000Y-104515000I0J150000D01*
G01*
G37*
G04 #@! TD.AperFunction*
G04 #@! TA.AperFunction,SMDPad,CuDef*
G36*
G01*
X126350000Y-105785000D02*
X126350000Y-105485000D01*
G75*
G02*
X126500000Y-105335000I150000J0D01*
G01*
X128150000Y-105335000D01*
G75*
G02*
X128300000Y-105485000I0J-150000D01*
G01*
X128300000Y-105785000D01*
G75*
G02*
X128150000Y-105935000I-150000J0D01*
G01*
X126500000Y-105935000D01*
G75*
G02*
X126350000Y-105785000I0J150000D01*
G01*
G37*
G04 #@! TD.AperFunction*
G04 #@! TA.AperFunction,SMDPad,CuDef*
G36*
G01*
X126350000Y-107055000D02*
X126350000Y-106755000D01*
G75*
G02*
X126500000Y-106605000I150000J0D01*
G01*
X128150000Y-106605000D01*
G75*
G02*
X128300000Y-106755000I0J-150000D01*
G01*
X128300000Y-107055000D01*
G75*
G02*
X128150000Y-107205000I-150000J0D01*
G01*
X126500000Y-107205000D01*
G75*
G02*
X126350000Y-107055000I0J150000D01*
G01*
G37*
G04 #@! TD.AperFunction*
D14*
X111950000Y-106742000D03*
X110050000Y-106742000D03*
X110050000Y-108942000D03*
X111000000Y-108942000D03*
X111950000Y-108942000D03*
X107750000Y-110100000D03*
X105850000Y-110100000D03*
X105850000Y-112300000D03*
X106800000Y-112300000D03*
X107750000Y-112300000D03*
D15*
X114150000Y-104600000D03*
X108650000Y-104600000D03*
G04 #@! TA.AperFunction,SMDPad,CuDef*
G36*
G01*
X110370000Y-103400000D02*
X110030000Y-103400000D01*
G75*
G02*
X109890000Y-103260000I0J140000D01*
G01*
X109890000Y-102980000D01*
G75*
G02*
X110030000Y-102840000I140000J0D01*
G01*
X110370000Y-102840000D01*
G75*
G02*
X110510000Y-102980000I0J-140000D01*
G01*
X110510000Y-103260000D01*
G75*
G02*
X110370000Y-103400000I-140000J0D01*
G01*
G37*
G04 #@! TD.AperFunction*
G04 #@! TA.AperFunction,SMDPad,CuDef*
G36*
G01*
X110370000Y-104360000D02*
X110030000Y-104360000D01*
G75*
G02*
X109890000Y-104220000I0J140000D01*
G01*
X109890000Y-103940000D01*
G75*
G02*
X110030000Y-103800000I140000J0D01*
G01*
X110370000Y-103800000D01*
G75*
G02*
X110510000Y-103940000I0J-140000D01*
G01*
X110510000Y-104220000D01*
G75*
G02*
X110370000Y-104360000I-140000J0D01*
G01*
G37*
G04 #@! TD.AperFunction*
G04 #@! TA.AperFunction,SMDPad,CuDef*
G36*
G01*
X112430000Y-103800000D02*
X112770000Y-103800000D01*
G75*
G02*
X112910000Y-103940000I0J-140000D01*
G01*
X112910000Y-104220000D01*
G75*
G02*
X112770000Y-104360000I-140000J0D01*
G01*
X112430000Y-104360000D01*
G75*
G02*
X112290000Y-104220000I0J140000D01*
G01*
X112290000Y-103940000D01*
G75*
G02*
X112430000Y-103800000I140000J0D01*
G01*
G37*
G04 #@! TD.AperFunction*
G04 #@! TA.AperFunction,SMDPad,CuDef*
G36*
G01*
X112430000Y-102840000D02*
X112770000Y-102840000D01*
G75*
G02*
X112910000Y-102980000I0J-140000D01*
G01*
X112910000Y-103260000D01*
G75*
G02*
X112770000Y-103400000I-140000J0D01*
G01*
X112430000Y-103400000D01*
G75*
G02*
X112290000Y-103260000I0J140000D01*
G01*
X112290000Y-102980000D01*
G75*
G02*
X112430000Y-102840000I140000J0D01*
G01*
G37*
G04 #@! TD.AperFunction*
G04 #@! TA.AperFunction,SMDPad,CuDef*
G36*
G01*
X107385000Y-103360000D02*
X107015000Y-103360000D01*
G75*
G02*
X106880000Y-103225000I0J135000D01*
G01*
X106880000Y-102955000D01*
G75*
G02*
X107015000Y-102820000I135000J0D01*
G01*
X107385000Y-102820000D01*
G75*
G02*
X107520000Y-102955000I0J-135000D01*
G01*
X107520000Y-103225000D01*
G75*
G02*
X107385000Y-103360000I-135000J0D01*
G01*
G37*
G04 #@! TD.AperFunction*
G04 #@! TA.AperFunction,SMDPad,CuDef*
G36*
G01*
X107385000Y-104380000D02*
X107015000Y-104380000D01*
G75*
G02*
X106880000Y-104245000I0J135000D01*
G01*
X106880000Y-103975000D01*
G75*
G02*
X107015000Y-103840000I135000J0D01*
G01*
X107385000Y-103840000D01*
G75*
G02*
X107520000Y-103975000I0J-135000D01*
G01*
X107520000Y-104245000D01*
G75*
G02*
X107385000Y-104380000I-135000J0D01*
G01*
G37*
G04 #@! TD.AperFunction*
D16*
X105600000Y-107200000D03*
X107600000Y-107850000D03*
X107600000Y-106550000D03*
G04 #@! TA.AperFunction,SMDPad,CuDef*
G36*
G01*
X111570000Y-103400000D02*
X111230000Y-103400000D01*
G75*
G02*
X111090000Y-103260000I0J140000D01*
G01*
X111090000Y-102980000D01*
G75*
G02*
X111230000Y-102840000I140000J0D01*
G01*
X111570000Y-102840000D01*
G75*
G02*
X111710000Y-102980000I0J-140000D01*
G01*
X111710000Y-103260000D01*
G75*
G02*
X111570000Y-103400000I-140000J0D01*
G01*
G37*
G04 #@! TD.AperFunction*
G04 #@! TA.AperFunction,SMDPad,CuDef*
G36*
G01*
X111570000Y-104360000D02*
X111230000Y-104360000D01*
G75*
G02*
X111090000Y-104220000I0J140000D01*
G01*
X111090000Y-103940000D01*
G75*
G02*
X111230000Y-103800000I140000J0D01*
G01*
X111570000Y-103800000D01*
G75*
G02*
X111710000Y-103940000I0J-140000D01*
G01*
X111710000Y-104220000D01*
G75*
G02*
X111570000Y-104360000I-140000J0D01*
G01*
G37*
G04 #@! TD.AperFunction*
G04 #@! TA.AperFunction,SMDPad,CuDef*
G36*
G01*
X110550000Y-111725000D02*
X110550000Y-112675000D01*
G75*
G02*
X110300000Y-112925000I-250000J0D01*
G01*
X109800000Y-112925000D01*
G75*
G02*
X109550000Y-112675000I0J250000D01*
G01*
X109550000Y-111725000D01*
G75*
G02*
X109800000Y-111475000I250000J0D01*
G01*
X110300000Y-111475000D01*
G75*
G02*
X110550000Y-111725000I0J-250000D01*
G01*
G37*
G04 #@! TD.AperFunction*
G04 #@! TA.AperFunction,SMDPad,CuDef*
G36*
G01*
X112450000Y-111725000D02*
X112450000Y-112675000D01*
G75*
G02*
X112200000Y-112925000I-250000J0D01*
G01*
X111700000Y-112925000D01*
G75*
G02*
X111450000Y-112675000I0J250000D01*
G01*
X111450000Y-111725000D01*
G75*
G02*
X111700000Y-111475000I250000J0D01*
G01*
X112200000Y-111475000D01*
G75*
G02*
X112450000Y-111725000I0J-250000D01*
G01*
G37*
G04 #@! TD.AperFunction*
G04 #@! TA.AperFunction,SMDPad,CuDef*
G36*
G01*
X115772500Y-103525000D02*
X115427500Y-103525000D01*
G75*
G02*
X115280000Y-103377500I0J147500D01*
G01*
X115280000Y-103082500D01*
G75*
G02*
X115427500Y-102935000I147500J0D01*
G01*
X115772500Y-102935000D01*
G75*
G02*
X115920000Y-103082500I0J-147500D01*
G01*
X115920000Y-103377500D01*
G75*
G02*
X115772500Y-103525000I-147500J0D01*
G01*
G37*
G04 #@! TD.AperFunction*
G04 #@! TA.AperFunction,SMDPad,CuDef*
G36*
G01*
X115772500Y-104495000D02*
X115427500Y-104495000D01*
G75*
G02*
X115280000Y-104347500I0J147500D01*
G01*
X115280000Y-104052500D01*
G75*
G02*
X115427500Y-103905000I147500J0D01*
G01*
X115772500Y-103905000D01*
G75*
G02*
X115920000Y-104052500I0J-147500D01*
G01*
X115920000Y-104347500D01*
G75*
G02*
X115772500Y-104495000I-147500J0D01*
G01*
G37*
G04 #@! TD.AperFunction*
G04 #@! TA.AperFunction,SMDPad,CuDef*
G36*
G01*
X125648500Y-109538000D02*
X125303500Y-109538000D01*
G75*
G02*
X125156000Y-109390500I0J147500D01*
G01*
X125156000Y-109095500D01*
G75*
G02*
X125303500Y-108948000I147500J0D01*
G01*
X125648500Y-108948000D01*
G75*
G02*
X125796000Y-109095500I0J-147500D01*
G01*
X125796000Y-109390500D01*
G75*
G02*
X125648500Y-109538000I-147500J0D01*
G01*
G37*
G04 #@! TD.AperFunction*
G04 #@! TA.AperFunction,SMDPad,CuDef*
G36*
G01*
X125648500Y-110508000D02*
X125303500Y-110508000D01*
G75*
G02*
X125156000Y-110360500I0J147500D01*
G01*
X125156000Y-110065500D01*
G75*
G02*
X125303500Y-109918000I147500J0D01*
G01*
X125648500Y-109918000D01*
G75*
G02*
X125796000Y-110065500I0J-147500D01*
G01*
X125796000Y-110360500D01*
G75*
G02*
X125648500Y-110508000I-147500J0D01*
G01*
G37*
G04 #@! TD.AperFunction*
G04 #@! TA.AperFunction,SMDPad,CuDef*
G36*
G01*
X133427500Y-109918000D02*
X133772500Y-109918000D01*
G75*
G02*
X133920000Y-110065500I0J-147500D01*
G01*
X133920000Y-110360500D01*
G75*
G02*
X133772500Y-110508000I-147500J0D01*
G01*
X133427500Y-110508000D01*
G75*
G02*
X133280000Y-110360500I0J147500D01*
G01*
X133280000Y-110065500D01*
G75*
G02*
X133427500Y-109918000I147500J0D01*
G01*
G37*
G04 #@! TD.AperFunction*
G04 #@! TA.AperFunction,SMDPad,CuDef*
G36*
G01*
X133427500Y-108948000D02*
X133772500Y-108948000D01*
G75*
G02*
X133920000Y-109095500I0J-147500D01*
G01*
X133920000Y-109390500D01*
G75*
G02*
X133772500Y-109538000I-147500J0D01*
G01*
X133427500Y-109538000D01*
G75*
G02*
X133280000Y-109390500I0J147500D01*
G01*
X133280000Y-109095500D01*
G75*
G02*
X133427500Y-108948000I147500J0D01*
G01*
G37*
G04 #@! TD.AperFunction*
D17*
X138140000Y-113080000D03*
X135600000Y-113080000D03*
X138140000Y-110540000D03*
X135600000Y-110540000D03*
X138140000Y-108000000D03*
D18*
X135600000Y-108000000D03*
D19*
X116850000Y-106650000D03*
X116850000Y-107300000D03*
X116850000Y-107950000D03*
X116850000Y-108600000D03*
X116850000Y-109250000D03*
X116850000Y-109900000D03*
X116850000Y-110550000D03*
X122750000Y-110550000D03*
X122750000Y-109900000D03*
X122750000Y-109250000D03*
X122750000Y-108600000D03*
X122750000Y-107950000D03*
X122750000Y-107300000D03*
X122750000Y-106650000D03*
D20*
X101125000Y-110400000D03*
D21*
X103275000Y-113200000D03*
X103275000Y-107600000D03*
D17*
X138140000Y-103900000D03*
D18*
X135600000Y-103900000D03*
D17*
X101900000Y-103900000D03*
D18*
X104440000Y-103900000D03*
X131900000Y-113200000D03*
D17*
X129360000Y-113200000D03*
X126820000Y-113200000D03*
X124280000Y-113200000D03*
D22*
X130800000Y-103400000D03*
D23*
X107876276Y-111183774D03*
X109000000Y-112200000D03*
X109100000Y-110300000D03*
X101600000Y-112600000D03*
X109200000Y-103200000D03*
D22*
X114800000Y-107200000D03*
X118700000Y-110400000D03*
X120200000Y-104800000D03*
X121800000Y-104800000D03*
X124600000Y-110900000D03*
D23*
X129680000Y-109200000D03*
X129549823Y-107749871D03*
D22*
X121200000Y-108500000D03*
D23*
X127619990Y-104316848D03*
X125600000Y-106600000D03*
D22*
X125011013Y-105470000D03*
D23*
X133619016Y-108241570D03*
D22*
X132935000Y-104365000D03*
X129325233Y-103325233D03*
X111859620Y-110859620D03*
X114459620Y-103459620D03*
D23*
X104400000Y-109000000D03*
X104400000Y-114000000D03*
D22*
X117800000Y-105200000D03*
X114600000Y-106200000D03*
X130680003Y-105200000D03*
X124883575Y-107890262D03*
X129980000Y-105200000D03*
X125000000Y-107200000D03*
X121524767Y-109824767D03*
X104600000Y-111800000D03*
X104270000Y-110325233D03*
X110800000Y-113800000D03*
X115400000Y-109600000D03*
X109200000Y-107800000D03*
X114200000Y-109600000D03*
X116990233Y-105939767D03*
D23*
X105200000Y-113800000D03*
X114382500Y-113617500D03*
D22*
X125476000Y-109243000D03*
X127700000Y-111469990D03*
X136799994Y-106600000D03*
D23*
X125840001Y-105125001D03*
D22*
X133600000Y-110213000D03*
X125325221Y-111474770D03*
X112600000Y-105200000D03*
X108800000Y-106600000D03*
X107200000Y-104110000D03*
X108200000Y-114475000D03*
X112400000Y-113800001D03*
X130800000Y-102600000D03*
X129100000Y-111400000D03*
X128800000Y-102525000D03*
X128400013Y-111469990D03*
X130400000Y-112200000D03*
X131064090Y-111578640D03*
X126420685Y-111854727D03*
X133800000Y-111800000D03*
X133499989Y-106286108D03*
X132930002Y-111270000D03*
X133889024Y-105429720D03*
D24*
X106986226Y-111183774D02*
X107876276Y-111183774D01*
X106800000Y-111370000D02*
X106986226Y-111183774D01*
X106800000Y-112300000D02*
X106800000Y-111370000D01*
D25*
X109000000Y-112200000D02*
X110050000Y-112200000D01*
X111000000Y-109747002D02*
X110447002Y-110300000D01*
X110447002Y-110300000D02*
X109100000Y-110300000D01*
X111000000Y-108942000D02*
X111000000Y-109747002D01*
D26*
X111400000Y-103120000D02*
X110200000Y-103120000D01*
X109280000Y-103120000D02*
X109200000Y-103200000D01*
X110200000Y-103120000D02*
X109280000Y-103120000D01*
D27*
X122750000Y-105750000D02*
X121800000Y-104800000D01*
X122750000Y-106650000D02*
X122750000Y-105750000D01*
X125287000Y-110213000D02*
X124600000Y-110900000D01*
X125476000Y-110213000D02*
X125287000Y-110213000D01*
X134357000Y-109243000D02*
X135600000Y-108000000D01*
X133600000Y-109243000D02*
X134357000Y-109243000D01*
D24*
X130394694Y-106905000D02*
X129549823Y-107749871D01*
X132275000Y-106905000D02*
X130394694Y-106905000D01*
D27*
X124000000Y-108600000D02*
X122750000Y-108600000D01*
X124200000Y-108800000D02*
X124000000Y-108600000D01*
X124200000Y-110300000D02*
X124200000Y-108800000D01*
X123950000Y-110550000D02*
X124200000Y-110300000D01*
X122750000Y-110550000D02*
X123950000Y-110550000D01*
X121300000Y-108600000D02*
X121200000Y-108500000D01*
X122750000Y-108600000D02*
X121300000Y-108600000D01*
D24*
X124600000Y-111711551D02*
X124600000Y-110900000D01*
X126088449Y-113200000D02*
X124600000Y-111711551D01*
X126820000Y-113200000D02*
X126088449Y-113200000D01*
D26*
X127325000Y-104365000D02*
X132275000Y-104365000D01*
D24*
X110824990Y-111074990D02*
X111950000Y-112200000D01*
X108975010Y-111074990D02*
X110824990Y-111074990D01*
X107750000Y-112300000D02*
X108975010Y-111074990D01*
X121210000Y-113907106D02*
X121210000Y-113200000D01*
X120592116Y-114524990D02*
X121210000Y-113907106D01*
X114274990Y-114524990D02*
X120592116Y-114524990D01*
X111950000Y-112200000D02*
X114274990Y-114524990D01*
X111950000Y-112200000D02*
X111950000Y-112050000D01*
X110824990Y-111074990D02*
X110824990Y-110975010D01*
X111950000Y-109850000D02*
X111950000Y-108942000D01*
X110824990Y-110975010D02*
X111950000Y-109850000D01*
X113910020Y-105927978D02*
X113910020Y-107689980D01*
X114287999Y-105549999D02*
X113910020Y-105927978D01*
X115249999Y-105549999D02*
X114287999Y-105549999D01*
X116350000Y-106650000D02*
X115249999Y-105549999D01*
X116850000Y-106650000D02*
X116350000Y-106650000D01*
X112658000Y-108942000D02*
X111950000Y-108942000D01*
X113910020Y-107689980D02*
X112658000Y-108942000D01*
D27*
X115600000Y-105199998D02*
X115249999Y-105549999D01*
X115600000Y-104200000D02*
X115600000Y-105199998D01*
D24*
X124280000Y-113200000D02*
X121210000Y-113200000D01*
D27*
X101900000Y-103900000D02*
X103400000Y-102400000D01*
X106510000Y-102400000D02*
X107200000Y-103090000D01*
X103400000Y-102400000D02*
X106510000Y-102400000D01*
X111880000Y-102400000D02*
X112600000Y-103120000D01*
X106510000Y-102400000D02*
X111880000Y-102400000D01*
D28*
X104959998Y-107200000D02*
X105600000Y-107200000D01*
X101900000Y-104140002D02*
X104959998Y-107200000D01*
X101900000Y-103900000D02*
X101900000Y-104140002D01*
D27*
X116970000Y-104570000D02*
X116400000Y-104000000D01*
X116400000Y-104000000D02*
X116400000Y-103600000D01*
X116030000Y-103230000D02*
X115600000Y-103230000D01*
X116400000Y-103600000D02*
X116030000Y-103230000D01*
X116970000Y-104570000D02*
X119430000Y-104570000D01*
X119930000Y-104070000D02*
X119930000Y-103600000D01*
X119430000Y-104570000D02*
X119930000Y-104070000D01*
X114689240Y-103230000D02*
X114459620Y-103459620D01*
X115600000Y-103230000D02*
X114689240Y-103230000D01*
D29*
X105850000Y-112300000D02*
X105698998Y-112451002D01*
D24*
X105699999Y-112450001D02*
X105850000Y-112300000D01*
X104287999Y-112450001D02*
X105699999Y-112450001D01*
X103619999Y-111782001D02*
X104287999Y-112450001D01*
X103619999Y-109780001D02*
X103619999Y-111782001D01*
X104400000Y-109000000D02*
X103619999Y-109780001D01*
X104400000Y-112562002D02*
X104287999Y-112450001D01*
X104400000Y-114000000D02*
X104400000Y-112562002D01*
D27*
X118360010Y-105760010D02*
X117800000Y-105200000D01*
X118360010Y-109924990D02*
X118360010Y-105760010D01*
X117735000Y-110550000D02*
X118360010Y-109924990D01*
X116850000Y-110550000D02*
X117735000Y-110550000D01*
X116850000Y-107950000D02*
X115965000Y-107950000D01*
X114600000Y-106200000D02*
X115200000Y-106200000D01*
X115200000Y-106200000D02*
X115700000Y-106700000D01*
X115700000Y-107685000D02*
X115965000Y-107950000D01*
X115700000Y-106700000D02*
X115700000Y-107685000D01*
X104270000Y-111470000D02*
X104270000Y-110325233D01*
X104600000Y-111800000D02*
X104270000Y-111470000D01*
X115700000Y-109900000D02*
X116850000Y-109900000D01*
X115400000Y-109600000D02*
X115700000Y-109900000D01*
X115200000Y-108600000D02*
X114200000Y-109600000D01*
X116850000Y-108600000D02*
X115200000Y-108600000D01*
X117750000Y-109250000D02*
X116850000Y-109250000D01*
X118000000Y-109000000D02*
X117750000Y-109250000D01*
X117593769Y-105939767D02*
X118000000Y-106345998D01*
X116990233Y-105939767D02*
X117593769Y-105939767D01*
X117900000Y-107300000D02*
X118000000Y-107200000D01*
X118000000Y-107200000D02*
X118000000Y-109000000D01*
X116850000Y-107300000D02*
X117900000Y-107300000D01*
X118000000Y-106345998D02*
X118000000Y-107200000D01*
D26*
X127133000Y-109243000D02*
X127690000Y-109800000D01*
X125476000Y-109243000D02*
X127133000Y-109243000D01*
D27*
X128069795Y-113582197D02*
X128069795Y-112193338D01*
X128069795Y-112193338D02*
X127700000Y-111823543D01*
X136575010Y-114644990D02*
X129132588Y-114644990D01*
X127700000Y-111823543D02*
X127700000Y-111469990D01*
X129132588Y-114644990D02*
X128069795Y-113582197D01*
X138140000Y-113080000D02*
X136575010Y-114644990D01*
X135600000Y-110204002D02*
X135600000Y-110540000D01*
X136900000Y-108904002D02*
X135600000Y-110204002D01*
X136900000Y-106700006D02*
X136900000Y-108904002D01*
X136799994Y-106600000D02*
X136900000Y-106700006D01*
D24*
X128320000Y-107900000D02*
X127325000Y-106905000D01*
X128710002Y-107900000D02*
X128320000Y-107900000D01*
X130684635Y-107605010D02*
X129789645Y-108500000D01*
X129789645Y-108500000D02*
X129310002Y-108500000D01*
X133327824Y-107605010D02*
X130684635Y-107605010D01*
X134149999Y-106782835D02*
X133327824Y-107605010D01*
X129310002Y-108500000D02*
X128710002Y-107900000D01*
X134149999Y-106087999D02*
X134149999Y-106782835D01*
X135600000Y-104637998D02*
X134149999Y-106087999D01*
X135600000Y-103900000D02*
X135600000Y-104637998D01*
X127325000Y-105635000D02*
X126435000Y-105635000D01*
X126350000Y-105635000D02*
X125840001Y-105125001D01*
X127325000Y-105635000D02*
X126350000Y-105635000D01*
X110050000Y-107950000D02*
X110050000Y-108942000D01*
X110150000Y-107850000D02*
X110050000Y-107950000D01*
X112417002Y-107850000D02*
X110150000Y-107850000D01*
X113310010Y-106956992D02*
X112417002Y-107850000D01*
X114465010Y-102534990D02*
X113310010Y-103689990D01*
X125594992Y-102534990D02*
X114465010Y-102534990D01*
X125840001Y-102779999D02*
X125594992Y-102534990D01*
X113310010Y-103689990D02*
X113310010Y-106956992D01*
X125840001Y-105125001D02*
X125840001Y-102779999D01*
X108692000Y-108942000D02*
X110050000Y-108942000D01*
X107600000Y-107850000D02*
X108692000Y-108942000D01*
D26*
X131803000Y-110213000D02*
X131390000Y-109800000D01*
X133600000Y-110213000D02*
X131803000Y-110213000D01*
X110200000Y-104080000D02*
X112600000Y-104080000D01*
X112600000Y-104080000D02*
X112600000Y-105200000D01*
D24*
X134000000Y-103122834D02*
X134000000Y-104392834D01*
X136715010Y-102475010D02*
X134647824Y-102475010D01*
X134647824Y-102475010D02*
X134000000Y-103122834D01*
X134000000Y-104392834D02*
X132757834Y-105635000D01*
X138140000Y-103900000D02*
X136715010Y-102475010D01*
X132757834Y-105635000D02*
X132275000Y-105635000D01*
D27*
X108750000Y-106550000D02*
X108800000Y-106600000D01*
X107600000Y-106550000D02*
X108750000Y-106550000D01*
X109405001Y-113269999D02*
X108200000Y-114475000D01*
X111869998Y-113269999D02*
X109405001Y-113269999D01*
X112400000Y-113800001D02*
X111869998Y-113269999D01*
X131295000Y-103095000D02*
X130800000Y-102600000D01*
X132275000Y-103095000D02*
X131295000Y-103095000D01*
X128800000Y-102800000D02*
X128800000Y-102525000D01*
X128505000Y-103095000D02*
X128800000Y-102800000D01*
X127325000Y-103095000D02*
X128505000Y-103095000D01*
M02*
