G04 #@! TF.GenerationSoftware,KiCad,Pcbnew,(5.1.9)-1*
G04 #@! TF.CreationDate,2021-05-04T20:43:57+10:00*
G04 #@! TF.ProjectId,microBoSL,6d696372-6f42-46f5-934c-2e6b69636164,0.2.0*
G04 #@! TF.SameCoordinates,Original*
G04 #@! TF.FileFunction,Copper,L1,Top*
G04 #@! TF.FilePolarity,Positive*
%FSLAX46Y46*%
G04 Gerber Fmt 4.6, Leading zero omitted, Abs format (unit mm)*
G04 Created by KiCad (PCBNEW (5.1.9)-1) date 2021-05-04 20:43:57*
%MOMM*%
%LPD*%
G01*
G04 APERTURE LIST*
G04 #@! TA.AperFunction,SMDPad,CuDef*
%ADD10C,1.000000*%
G04 #@! TD*
G04 #@! TA.AperFunction,ComponentPad*
%ADD11O,1.000000X1.000000*%
G04 #@! TD*
G04 #@! TA.AperFunction,ComponentPad*
%ADD12R,1.000000X1.000000*%
G04 #@! TD*
G04 #@! TA.AperFunction,SMDPad,CuDef*
%ADD13R,1.100000X0.600000*%
G04 #@! TD*
G04 #@! TA.AperFunction,SMDPad,CuDef*
%ADD14R,2.400000X2.400000*%
G04 #@! TD*
G04 #@! TA.AperFunction,SMDPad,CuDef*
%ADD15C,0.100000*%
G04 #@! TD*
G04 #@! TA.AperFunction,SMDPad,CuDef*
%ADD16R,1.000000X1.200000*%
G04 #@! TD*
G04 #@! TA.AperFunction,WasherPad*
%ADD17C,0.850000*%
G04 #@! TD*
G04 #@! TA.AperFunction,SMDPad,CuDef*
%ADD18R,1.300000X1.500000*%
G04 #@! TD*
G04 #@! TA.AperFunction,SMDPad,CuDef*
%ADD19R,0.750000X0.300000*%
G04 #@! TD*
G04 #@! TA.AperFunction,ComponentPad*
%ADD20O,1.700000X1.700000*%
G04 #@! TD*
G04 #@! TA.AperFunction,ComponentPad*
%ADD21R,1.700000X1.700000*%
G04 #@! TD*
G04 #@! TA.AperFunction,ComponentPad*
%ADD22O,1.100000X2.200000*%
G04 #@! TD*
G04 #@! TA.AperFunction,ComponentPad*
%ADD23O,1.100000X1.800000*%
G04 #@! TD*
G04 #@! TA.AperFunction,SMDPad,CuDef*
%ADD24R,1.500000X0.450000*%
G04 #@! TD*
G04 #@! TA.AperFunction,ViaPad*
%ADD25C,0.500000*%
G04 #@! TD*
G04 #@! TA.AperFunction,ViaPad*
%ADD26C,0.600000*%
G04 #@! TD*
G04 #@! TA.AperFunction,Conductor*
%ADD27C,0.250000*%
G04 #@! TD*
G04 #@! TA.AperFunction,Conductor*
%ADD28C,0.160000*%
G04 #@! TD*
G04 #@! TA.AperFunction,Conductor*
%ADD29C,0.200000*%
G04 #@! TD*
G04 #@! TA.AperFunction,Conductor*
%ADD30C,0.400000*%
G04 #@! TD*
G04 APERTURE END LIST*
D10*
X132200000Y-105800000D03*
X121100000Y-111200000D03*
X105400000Y-107000000D03*
D11*
X117390000Y-103600000D03*
X118660000Y-103600000D03*
D12*
X119930000Y-103600000D03*
D11*
X121210000Y-113200000D03*
X119940000Y-113200000D03*
X118670000Y-113200000D03*
D12*
X117400000Y-113200000D03*
D11*
X121130000Y-103600000D03*
X122400000Y-103600000D03*
X123670000Y-103600000D03*
D12*
X124940000Y-103600000D03*
D13*
X119000000Y-108250000D03*
X119000000Y-106850000D03*
D14*
X129450000Y-108450000D03*
G04 #@! TA.AperFunction,SMDPad,CuDef*
D15*
G36*
X128174693Y-106101201D02*
G01*
X128186418Y-106104758D01*
X128197223Y-106110533D01*
X128206694Y-106118306D01*
X128214467Y-106127777D01*
X128220242Y-106138582D01*
X128223799Y-106150307D01*
X128225000Y-106162500D01*
X128225000Y-106837500D01*
X128223799Y-106849693D01*
X128220242Y-106861418D01*
X128214467Y-106872223D01*
X128206694Y-106881694D01*
X128197223Y-106889467D01*
X128186418Y-106895242D01*
X128174693Y-106898799D01*
X128162500Y-106900000D01*
X128100888Y-106900000D01*
X128088695Y-106898799D01*
X128076970Y-106895242D01*
X128066165Y-106889467D01*
X128056694Y-106881694D01*
X127993306Y-106818306D01*
X127985533Y-106808835D01*
X127979758Y-106798030D01*
X127976201Y-106786305D01*
X127975000Y-106774112D01*
X127975000Y-106162500D01*
X127976201Y-106150307D01*
X127979758Y-106138582D01*
X127985533Y-106127777D01*
X127993306Y-106118306D01*
X128002777Y-106110533D01*
X128013582Y-106104758D01*
X128025307Y-106101201D01*
X128037500Y-106100000D01*
X128162500Y-106100000D01*
X128174693Y-106101201D01*
G37*
G04 #@! TD.AperFunction*
G04 #@! TA.AperFunction,SMDPad,CuDef*
G36*
G01*
X128425000Y-106837500D02*
X128425000Y-106162500D01*
G75*
G02*
X128487500Y-106100000I62500J0D01*
G01*
X128612500Y-106100000D01*
G75*
G02*
X128675000Y-106162500I0J-62500D01*
G01*
X128675000Y-106837500D01*
G75*
G02*
X128612500Y-106900000I-62500J0D01*
G01*
X128487500Y-106900000D01*
G75*
G02*
X128425000Y-106837500I0J62500D01*
G01*
G37*
G04 #@! TD.AperFunction*
G04 #@! TA.AperFunction,SMDPad,CuDef*
G36*
G01*
X128875000Y-106837500D02*
X128875000Y-106162500D01*
G75*
G02*
X128937500Y-106100000I62500J0D01*
G01*
X129062500Y-106100000D01*
G75*
G02*
X129125000Y-106162500I0J-62500D01*
G01*
X129125000Y-106837500D01*
G75*
G02*
X129062500Y-106900000I-62500J0D01*
G01*
X128937500Y-106900000D01*
G75*
G02*
X128875000Y-106837500I0J62500D01*
G01*
G37*
G04 #@! TD.AperFunction*
G04 #@! TA.AperFunction,SMDPad,CuDef*
G36*
G01*
X129325000Y-106837500D02*
X129325000Y-106162500D01*
G75*
G02*
X129387500Y-106100000I62500J0D01*
G01*
X129512500Y-106100000D01*
G75*
G02*
X129575000Y-106162500I0J-62500D01*
G01*
X129575000Y-106837500D01*
G75*
G02*
X129512500Y-106900000I-62500J0D01*
G01*
X129387500Y-106900000D01*
G75*
G02*
X129325000Y-106837500I0J62500D01*
G01*
G37*
G04 #@! TD.AperFunction*
G04 #@! TA.AperFunction,SMDPad,CuDef*
G36*
G01*
X129775000Y-106837500D02*
X129775000Y-106162500D01*
G75*
G02*
X129837500Y-106100000I62500J0D01*
G01*
X129962500Y-106100000D01*
G75*
G02*
X130025000Y-106162500I0J-62500D01*
G01*
X130025000Y-106837500D01*
G75*
G02*
X129962500Y-106900000I-62500J0D01*
G01*
X129837500Y-106900000D01*
G75*
G02*
X129775000Y-106837500I0J62500D01*
G01*
G37*
G04 #@! TD.AperFunction*
G04 #@! TA.AperFunction,SMDPad,CuDef*
G36*
G01*
X130225000Y-106837500D02*
X130225000Y-106162500D01*
G75*
G02*
X130287500Y-106100000I62500J0D01*
G01*
X130412500Y-106100000D01*
G75*
G02*
X130475000Y-106162500I0J-62500D01*
G01*
X130475000Y-106837500D01*
G75*
G02*
X130412500Y-106900000I-62500J0D01*
G01*
X130287500Y-106900000D01*
G75*
G02*
X130225000Y-106837500I0J62500D01*
G01*
G37*
G04 #@! TD.AperFunction*
G04 #@! TA.AperFunction,SMDPad,CuDef*
G36*
X130874693Y-106101201D02*
G01*
X130886418Y-106104758D01*
X130897223Y-106110533D01*
X130906694Y-106118306D01*
X130914467Y-106127777D01*
X130920242Y-106138582D01*
X130923799Y-106150307D01*
X130925000Y-106162500D01*
X130925000Y-106774112D01*
X130923799Y-106786305D01*
X130920242Y-106798030D01*
X130914467Y-106808835D01*
X130906694Y-106818306D01*
X130843306Y-106881694D01*
X130833835Y-106889467D01*
X130823030Y-106895242D01*
X130811305Y-106898799D01*
X130799112Y-106900000D01*
X130737500Y-106900000D01*
X130725307Y-106898799D01*
X130713582Y-106895242D01*
X130702777Y-106889467D01*
X130693306Y-106881694D01*
X130685533Y-106872223D01*
X130679758Y-106861418D01*
X130676201Y-106849693D01*
X130675000Y-106837500D01*
X130675000Y-106162500D01*
X130676201Y-106150307D01*
X130679758Y-106138582D01*
X130685533Y-106127777D01*
X130693306Y-106118306D01*
X130702777Y-106110533D01*
X130713582Y-106104758D01*
X130725307Y-106101201D01*
X130737500Y-106100000D01*
X130862500Y-106100000D01*
X130874693Y-106101201D01*
G37*
G04 #@! TD.AperFunction*
G04 #@! TA.AperFunction,SMDPad,CuDef*
G36*
X131749693Y-106976201D02*
G01*
X131761418Y-106979758D01*
X131772223Y-106985533D01*
X131781694Y-106993306D01*
X131789467Y-107002777D01*
X131795242Y-107013582D01*
X131798799Y-107025307D01*
X131800000Y-107037500D01*
X131800000Y-107162500D01*
X131798799Y-107174693D01*
X131795242Y-107186418D01*
X131789467Y-107197223D01*
X131781694Y-107206694D01*
X131772223Y-107214467D01*
X131761418Y-107220242D01*
X131749693Y-107223799D01*
X131737500Y-107225000D01*
X131062500Y-107225000D01*
X131050307Y-107223799D01*
X131038582Y-107220242D01*
X131027777Y-107214467D01*
X131018306Y-107206694D01*
X131010533Y-107197223D01*
X131004758Y-107186418D01*
X131001201Y-107174693D01*
X131000000Y-107162500D01*
X131000000Y-107100888D01*
X131001201Y-107088695D01*
X131004758Y-107076970D01*
X131010533Y-107066165D01*
X131018306Y-107056694D01*
X131081694Y-106993306D01*
X131091165Y-106985533D01*
X131101970Y-106979758D01*
X131113695Y-106976201D01*
X131125888Y-106975000D01*
X131737500Y-106975000D01*
X131749693Y-106976201D01*
G37*
G04 #@! TD.AperFunction*
G04 #@! TA.AperFunction,SMDPad,CuDef*
G36*
G01*
X131000000Y-107612500D02*
X131000000Y-107487500D01*
G75*
G02*
X131062500Y-107425000I62500J0D01*
G01*
X131737500Y-107425000D01*
G75*
G02*
X131800000Y-107487500I0J-62500D01*
G01*
X131800000Y-107612500D01*
G75*
G02*
X131737500Y-107675000I-62500J0D01*
G01*
X131062500Y-107675000D01*
G75*
G02*
X131000000Y-107612500I0J62500D01*
G01*
G37*
G04 #@! TD.AperFunction*
G04 #@! TA.AperFunction,SMDPad,CuDef*
G36*
G01*
X131000000Y-108062500D02*
X131000000Y-107937500D01*
G75*
G02*
X131062500Y-107875000I62500J0D01*
G01*
X131737500Y-107875000D01*
G75*
G02*
X131800000Y-107937500I0J-62500D01*
G01*
X131800000Y-108062500D01*
G75*
G02*
X131737500Y-108125000I-62500J0D01*
G01*
X131062500Y-108125000D01*
G75*
G02*
X131000000Y-108062500I0J62500D01*
G01*
G37*
G04 #@! TD.AperFunction*
G04 #@! TA.AperFunction,SMDPad,CuDef*
G36*
G01*
X131000000Y-108512500D02*
X131000000Y-108387500D01*
G75*
G02*
X131062500Y-108325000I62500J0D01*
G01*
X131737500Y-108325000D01*
G75*
G02*
X131800000Y-108387500I0J-62500D01*
G01*
X131800000Y-108512500D01*
G75*
G02*
X131737500Y-108575000I-62500J0D01*
G01*
X131062500Y-108575000D01*
G75*
G02*
X131000000Y-108512500I0J62500D01*
G01*
G37*
G04 #@! TD.AperFunction*
G04 #@! TA.AperFunction,SMDPad,CuDef*
G36*
G01*
X131000000Y-108962500D02*
X131000000Y-108837500D01*
G75*
G02*
X131062500Y-108775000I62500J0D01*
G01*
X131737500Y-108775000D01*
G75*
G02*
X131800000Y-108837500I0J-62500D01*
G01*
X131800000Y-108962500D01*
G75*
G02*
X131737500Y-109025000I-62500J0D01*
G01*
X131062500Y-109025000D01*
G75*
G02*
X131000000Y-108962500I0J62500D01*
G01*
G37*
G04 #@! TD.AperFunction*
G04 #@! TA.AperFunction,SMDPad,CuDef*
G36*
G01*
X131000000Y-109412500D02*
X131000000Y-109287500D01*
G75*
G02*
X131062500Y-109225000I62500J0D01*
G01*
X131737500Y-109225000D01*
G75*
G02*
X131800000Y-109287500I0J-62500D01*
G01*
X131800000Y-109412500D01*
G75*
G02*
X131737500Y-109475000I-62500J0D01*
G01*
X131062500Y-109475000D01*
G75*
G02*
X131000000Y-109412500I0J62500D01*
G01*
G37*
G04 #@! TD.AperFunction*
G04 #@! TA.AperFunction,SMDPad,CuDef*
G36*
X131749693Y-109676201D02*
G01*
X131761418Y-109679758D01*
X131772223Y-109685533D01*
X131781694Y-109693306D01*
X131789467Y-109702777D01*
X131795242Y-109713582D01*
X131798799Y-109725307D01*
X131800000Y-109737500D01*
X131800000Y-109862500D01*
X131798799Y-109874693D01*
X131795242Y-109886418D01*
X131789467Y-109897223D01*
X131781694Y-109906694D01*
X131772223Y-109914467D01*
X131761418Y-109920242D01*
X131749693Y-109923799D01*
X131737500Y-109925000D01*
X131125888Y-109925000D01*
X131113695Y-109923799D01*
X131101970Y-109920242D01*
X131091165Y-109914467D01*
X131081694Y-109906694D01*
X131018306Y-109843306D01*
X131010533Y-109833835D01*
X131004758Y-109823030D01*
X131001201Y-109811305D01*
X131000000Y-109799112D01*
X131000000Y-109737500D01*
X131001201Y-109725307D01*
X131004758Y-109713582D01*
X131010533Y-109702777D01*
X131018306Y-109693306D01*
X131027777Y-109685533D01*
X131038582Y-109679758D01*
X131050307Y-109676201D01*
X131062500Y-109675000D01*
X131737500Y-109675000D01*
X131749693Y-109676201D01*
G37*
G04 #@! TD.AperFunction*
G04 #@! TA.AperFunction,SMDPad,CuDef*
G36*
X130811305Y-110001201D02*
G01*
X130823030Y-110004758D01*
X130833835Y-110010533D01*
X130843306Y-110018306D01*
X130906694Y-110081694D01*
X130914467Y-110091165D01*
X130920242Y-110101970D01*
X130923799Y-110113695D01*
X130925000Y-110125888D01*
X130925000Y-110737500D01*
X130923799Y-110749693D01*
X130920242Y-110761418D01*
X130914467Y-110772223D01*
X130906694Y-110781694D01*
X130897223Y-110789467D01*
X130886418Y-110795242D01*
X130874693Y-110798799D01*
X130862500Y-110800000D01*
X130737500Y-110800000D01*
X130725307Y-110798799D01*
X130713582Y-110795242D01*
X130702777Y-110789467D01*
X130693306Y-110781694D01*
X130685533Y-110772223D01*
X130679758Y-110761418D01*
X130676201Y-110749693D01*
X130675000Y-110737500D01*
X130675000Y-110062500D01*
X130676201Y-110050307D01*
X130679758Y-110038582D01*
X130685533Y-110027777D01*
X130693306Y-110018306D01*
X130702777Y-110010533D01*
X130713582Y-110004758D01*
X130725307Y-110001201D01*
X130737500Y-110000000D01*
X130799112Y-110000000D01*
X130811305Y-110001201D01*
G37*
G04 #@! TD.AperFunction*
G04 #@! TA.AperFunction,SMDPad,CuDef*
G36*
G01*
X130225000Y-110737500D02*
X130225000Y-110062500D01*
G75*
G02*
X130287500Y-110000000I62500J0D01*
G01*
X130412500Y-110000000D01*
G75*
G02*
X130475000Y-110062500I0J-62500D01*
G01*
X130475000Y-110737500D01*
G75*
G02*
X130412500Y-110800000I-62500J0D01*
G01*
X130287500Y-110800000D01*
G75*
G02*
X130225000Y-110737500I0J62500D01*
G01*
G37*
G04 #@! TD.AperFunction*
G04 #@! TA.AperFunction,SMDPad,CuDef*
G36*
G01*
X129775000Y-110737500D02*
X129775000Y-110062500D01*
G75*
G02*
X129837500Y-110000000I62500J0D01*
G01*
X129962500Y-110000000D01*
G75*
G02*
X130025000Y-110062500I0J-62500D01*
G01*
X130025000Y-110737500D01*
G75*
G02*
X129962500Y-110800000I-62500J0D01*
G01*
X129837500Y-110800000D01*
G75*
G02*
X129775000Y-110737500I0J62500D01*
G01*
G37*
G04 #@! TD.AperFunction*
G04 #@! TA.AperFunction,SMDPad,CuDef*
G36*
G01*
X129325000Y-110737500D02*
X129325000Y-110062500D01*
G75*
G02*
X129387500Y-110000000I62500J0D01*
G01*
X129512500Y-110000000D01*
G75*
G02*
X129575000Y-110062500I0J-62500D01*
G01*
X129575000Y-110737500D01*
G75*
G02*
X129512500Y-110800000I-62500J0D01*
G01*
X129387500Y-110800000D01*
G75*
G02*
X129325000Y-110737500I0J62500D01*
G01*
G37*
G04 #@! TD.AperFunction*
G04 #@! TA.AperFunction,SMDPad,CuDef*
G36*
G01*
X128875000Y-110737500D02*
X128875000Y-110062500D01*
G75*
G02*
X128937500Y-110000000I62500J0D01*
G01*
X129062500Y-110000000D01*
G75*
G02*
X129125000Y-110062500I0J-62500D01*
G01*
X129125000Y-110737500D01*
G75*
G02*
X129062500Y-110800000I-62500J0D01*
G01*
X128937500Y-110800000D01*
G75*
G02*
X128875000Y-110737500I0J62500D01*
G01*
G37*
G04 #@! TD.AperFunction*
G04 #@! TA.AperFunction,SMDPad,CuDef*
G36*
G01*
X128425000Y-110737500D02*
X128425000Y-110062500D01*
G75*
G02*
X128487500Y-110000000I62500J0D01*
G01*
X128612500Y-110000000D01*
G75*
G02*
X128675000Y-110062500I0J-62500D01*
G01*
X128675000Y-110737500D01*
G75*
G02*
X128612500Y-110800000I-62500J0D01*
G01*
X128487500Y-110800000D01*
G75*
G02*
X128425000Y-110737500I0J62500D01*
G01*
G37*
G04 #@! TD.AperFunction*
G04 #@! TA.AperFunction,SMDPad,CuDef*
G36*
X128174693Y-110001201D02*
G01*
X128186418Y-110004758D01*
X128197223Y-110010533D01*
X128206694Y-110018306D01*
X128214467Y-110027777D01*
X128220242Y-110038582D01*
X128223799Y-110050307D01*
X128225000Y-110062500D01*
X128225000Y-110737500D01*
X128223799Y-110749693D01*
X128220242Y-110761418D01*
X128214467Y-110772223D01*
X128206694Y-110781694D01*
X128197223Y-110789467D01*
X128186418Y-110795242D01*
X128174693Y-110798799D01*
X128162500Y-110800000D01*
X128037500Y-110800000D01*
X128025307Y-110798799D01*
X128013582Y-110795242D01*
X128002777Y-110789467D01*
X127993306Y-110781694D01*
X127985533Y-110772223D01*
X127979758Y-110761418D01*
X127976201Y-110749693D01*
X127975000Y-110737500D01*
X127975000Y-110125888D01*
X127976201Y-110113695D01*
X127979758Y-110101970D01*
X127985533Y-110091165D01*
X127993306Y-110081694D01*
X128056694Y-110018306D01*
X128066165Y-110010533D01*
X128076970Y-110004758D01*
X128088695Y-110001201D01*
X128100888Y-110000000D01*
X128162500Y-110000000D01*
X128174693Y-110001201D01*
G37*
G04 #@! TD.AperFunction*
G04 #@! TA.AperFunction,SMDPad,CuDef*
G36*
X127849693Y-109676201D02*
G01*
X127861418Y-109679758D01*
X127872223Y-109685533D01*
X127881694Y-109693306D01*
X127889467Y-109702777D01*
X127895242Y-109713582D01*
X127898799Y-109725307D01*
X127900000Y-109737500D01*
X127900000Y-109799112D01*
X127898799Y-109811305D01*
X127895242Y-109823030D01*
X127889467Y-109833835D01*
X127881694Y-109843306D01*
X127818306Y-109906694D01*
X127808835Y-109914467D01*
X127798030Y-109920242D01*
X127786305Y-109923799D01*
X127774112Y-109925000D01*
X127162500Y-109925000D01*
X127150307Y-109923799D01*
X127138582Y-109920242D01*
X127127777Y-109914467D01*
X127118306Y-109906694D01*
X127110533Y-109897223D01*
X127104758Y-109886418D01*
X127101201Y-109874693D01*
X127100000Y-109862500D01*
X127100000Y-109737500D01*
X127101201Y-109725307D01*
X127104758Y-109713582D01*
X127110533Y-109702777D01*
X127118306Y-109693306D01*
X127127777Y-109685533D01*
X127138582Y-109679758D01*
X127150307Y-109676201D01*
X127162500Y-109675000D01*
X127837500Y-109675000D01*
X127849693Y-109676201D01*
G37*
G04 #@! TD.AperFunction*
G04 #@! TA.AperFunction,SMDPad,CuDef*
G36*
G01*
X127100000Y-109412500D02*
X127100000Y-109287500D01*
G75*
G02*
X127162500Y-109225000I62500J0D01*
G01*
X127837500Y-109225000D01*
G75*
G02*
X127900000Y-109287500I0J-62500D01*
G01*
X127900000Y-109412500D01*
G75*
G02*
X127837500Y-109475000I-62500J0D01*
G01*
X127162500Y-109475000D01*
G75*
G02*
X127100000Y-109412500I0J62500D01*
G01*
G37*
G04 #@! TD.AperFunction*
G04 #@! TA.AperFunction,SMDPad,CuDef*
G36*
G01*
X127100000Y-108962500D02*
X127100000Y-108837500D01*
G75*
G02*
X127162500Y-108775000I62500J0D01*
G01*
X127837500Y-108775000D01*
G75*
G02*
X127900000Y-108837500I0J-62500D01*
G01*
X127900000Y-108962500D01*
G75*
G02*
X127837500Y-109025000I-62500J0D01*
G01*
X127162500Y-109025000D01*
G75*
G02*
X127100000Y-108962500I0J62500D01*
G01*
G37*
G04 #@! TD.AperFunction*
G04 #@! TA.AperFunction,SMDPad,CuDef*
G36*
G01*
X127100000Y-108512500D02*
X127100000Y-108387500D01*
G75*
G02*
X127162500Y-108325000I62500J0D01*
G01*
X127837500Y-108325000D01*
G75*
G02*
X127900000Y-108387500I0J-62500D01*
G01*
X127900000Y-108512500D01*
G75*
G02*
X127837500Y-108575000I-62500J0D01*
G01*
X127162500Y-108575000D01*
G75*
G02*
X127100000Y-108512500I0J62500D01*
G01*
G37*
G04 #@! TD.AperFunction*
G04 #@! TA.AperFunction,SMDPad,CuDef*
G36*
G01*
X127100000Y-108062500D02*
X127100000Y-107937500D01*
G75*
G02*
X127162500Y-107875000I62500J0D01*
G01*
X127837500Y-107875000D01*
G75*
G02*
X127900000Y-107937500I0J-62500D01*
G01*
X127900000Y-108062500D01*
G75*
G02*
X127837500Y-108125000I-62500J0D01*
G01*
X127162500Y-108125000D01*
G75*
G02*
X127100000Y-108062500I0J62500D01*
G01*
G37*
G04 #@! TD.AperFunction*
G04 #@! TA.AperFunction,SMDPad,CuDef*
G36*
G01*
X127100000Y-107612500D02*
X127100000Y-107487500D01*
G75*
G02*
X127162500Y-107425000I62500J0D01*
G01*
X127837500Y-107425000D01*
G75*
G02*
X127900000Y-107487500I0J-62500D01*
G01*
X127900000Y-107612500D01*
G75*
G02*
X127837500Y-107675000I-62500J0D01*
G01*
X127162500Y-107675000D01*
G75*
G02*
X127100000Y-107612500I0J62500D01*
G01*
G37*
G04 #@! TD.AperFunction*
G04 #@! TA.AperFunction,SMDPad,CuDef*
G36*
X127786305Y-106976201D02*
G01*
X127798030Y-106979758D01*
X127808835Y-106985533D01*
X127818306Y-106993306D01*
X127881694Y-107056694D01*
X127889467Y-107066165D01*
X127895242Y-107076970D01*
X127898799Y-107088695D01*
X127900000Y-107100888D01*
X127900000Y-107162500D01*
X127898799Y-107174693D01*
X127895242Y-107186418D01*
X127889467Y-107197223D01*
X127881694Y-107206694D01*
X127872223Y-107214467D01*
X127861418Y-107220242D01*
X127849693Y-107223799D01*
X127837500Y-107225000D01*
X127162500Y-107225000D01*
X127150307Y-107223799D01*
X127138582Y-107220242D01*
X127127777Y-107214467D01*
X127118306Y-107206694D01*
X127110533Y-107197223D01*
X127104758Y-107186418D01*
X127101201Y-107174693D01*
X127100000Y-107162500D01*
X127100000Y-107037500D01*
X127101201Y-107025307D01*
X127104758Y-107013582D01*
X127110533Y-107002777D01*
X127118306Y-106993306D01*
X127127777Y-106985533D01*
X127138582Y-106979758D01*
X127150307Y-106976201D01*
X127162500Y-106975000D01*
X127774112Y-106975000D01*
X127786305Y-106976201D01*
G37*
G04 #@! TD.AperFunction*
D16*
X115400000Y-107200000D03*
X113400000Y-107200000D03*
X107400000Y-107200000D03*
X111400000Y-107200000D03*
D17*
X114150000Y-104600000D03*
X108650000Y-104600000D03*
G04 #@! TA.AperFunction,SMDPad,CuDef*
D15*
G36*
X129500000Y-104549398D02*
G01*
X129475466Y-104549398D01*
X129426635Y-104544588D01*
X129378510Y-104535016D01*
X129331555Y-104520772D01*
X129286222Y-104501995D01*
X129242949Y-104478864D01*
X129202150Y-104451604D01*
X129164221Y-104420476D01*
X129129524Y-104385779D01*
X129098396Y-104347850D01*
X129071136Y-104307051D01*
X129048005Y-104263778D01*
X129029228Y-104218445D01*
X129014984Y-104171490D01*
X129005412Y-104123365D01*
X129000602Y-104074534D01*
X129000602Y-104050000D01*
X129000000Y-104050000D01*
X129000000Y-103550000D01*
X129000602Y-103550000D01*
X129000602Y-103525466D01*
X129005412Y-103476635D01*
X129014984Y-103428510D01*
X129029228Y-103381555D01*
X129048005Y-103336222D01*
X129071136Y-103292949D01*
X129098396Y-103252150D01*
X129129524Y-103214221D01*
X129164221Y-103179524D01*
X129202150Y-103148396D01*
X129242949Y-103121136D01*
X129286222Y-103098005D01*
X129331555Y-103079228D01*
X129378510Y-103064984D01*
X129426635Y-103055412D01*
X129475466Y-103050602D01*
X129500000Y-103050602D01*
X129500000Y-103050000D01*
X130000000Y-103050000D01*
X130000000Y-104550000D01*
X129500000Y-104550000D01*
X129500000Y-104549398D01*
G37*
G04 #@! TD.AperFunction*
G04 #@! TA.AperFunction,SMDPad,CuDef*
G36*
X130300000Y-103050000D02*
G01*
X130800000Y-103050000D01*
X130800000Y-103050602D01*
X130824534Y-103050602D01*
X130873365Y-103055412D01*
X130921490Y-103064984D01*
X130968445Y-103079228D01*
X131013778Y-103098005D01*
X131057051Y-103121136D01*
X131097850Y-103148396D01*
X131135779Y-103179524D01*
X131170476Y-103214221D01*
X131201604Y-103252150D01*
X131228864Y-103292949D01*
X131251995Y-103336222D01*
X131270772Y-103381555D01*
X131285016Y-103428510D01*
X131294588Y-103476635D01*
X131299398Y-103525466D01*
X131299398Y-103550000D01*
X131300000Y-103550000D01*
X131300000Y-104050000D01*
X131299398Y-104050000D01*
X131299398Y-104074534D01*
X131294588Y-104123365D01*
X131285016Y-104171490D01*
X131270772Y-104218445D01*
X131251995Y-104263778D01*
X131228864Y-104307051D01*
X131201604Y-104347850D01*
X131170476Y-104385779D01*
X131135779Y-104420476D01*
X131097850Y-104451604D01*
X131057051Y-104478864D01*
X131013778Y-104501995D01*
X130968445Y-104520772D01*
X130921490Y-104535016D01*
X130873365Y-104544588D01*
X130824534Y-104549398D01*
X130800000Y-104549398D01*
X130800000Y-104550000D01*
X130300000Y-104550000D01*
X130300000Y-103050000D01*
G37*
G04 #@! TD.AperFunction*
G04 #@! TA.AperFunction,SMDPad,CuDef*
G36*
G01*
X111630000Y-111600000D02*
X111970000Y-111600000D01*
G75*
G02*
X112110000Y-111740000I0J-140000D01*
G01*
X112110000Y-112020000D01*
G75*
G02*
X111970000Y-112160000I-140000J0D01*
G01*
X111630000Y-112160000D01*
G75*
G02*
X111490000Y-112020000I0J140000D01*
G01*
X111490000Y-111740000D01*
G75*
G02*
X111630000Y-111600000I140000J0D01*
G01*
G37*
G04 #@! TD.AperFunction*
G04 #@! TA.AperFunction,SMDPad,CuDef*
G36*
G01*
X111630000Y-110640000D02*
X111970000Y-110640000D01*
G75*
G02*
X112110000Y-110780000I0J-140000D01*
G01*
X112110000Y-111060000D01*
G75*
G02*
X111970000Y-111200000I-140000J0D01*
G01*
X111630000Y-111200000D01*
G75*
G02*
X111490000Y-111060000I0J140000D01*
G01*
X111490000Y-110780000D01*
G75*
G02*
X111630000Y-110640000I140000J0D01*
G01*
G37*
G04 #@! TD.AperFunction*
G04 #@! TA.AperFunction,SMDPad,CuDef*
G36*
G01*
X111970000Y-109020000D02*
X111630000Y-109020000D01*
G75*
G02*
X111490000Y-108880000I0J140000D01*
G01*
X111490000Y-108600000D01*
G75*
G02*
X111630000Y-108460000I140000J0D01*
G01*
X111970000Y-108460000D01*
G75*
G02*
X112110000Y-108600000I0J-140000D01*
G01*
X112110000Y-108880000D01*
G75*
G02*
X111970000Y-109020000I-140000J0D01*
G01*
G37*
G04 #@! TD.AperFunction*
G04 #@! TA.AperFunction,SMDPad,CuDef*
G36*
G01*
X111970000Y-109980000D02*
X111630000Y-109980000D01*
G75*
G02*
X111490000Y-109840000I0J140000D01*
G01*
X111490000Y-109560000D01*
G75*
G02*
X111630000Y-109420000I140000J0D01*
G01*
X111970000Y-109420000D01*
G75*
G02*
X112110000Y-109560000I0J-140000D01*
G01*
X112110000Y-109840000D01*
G75*
G02*
X111970000Y-109980000I-140000J0D01*
G01*
G37*
G04 #@! TD.AperFunction*
G04 #@! TA.AperFunction,SMDPad,CuDef*
G36*
G01*
X126970000Y-103600000D02*
X126630000Y-103600000D01*
G75*
G02*
X126490000Y-103460000I0J140000D01*
G01*
X126490000Y-103180000D01*
G75*
G02*
X126630000Y-103040000I140000J0D01*
G01*
X126970000Y-103040000D01*
G75*
G02*
X127110000Y-103180000I0J-140000D01*
G01*
X127110000Y-103460000D01*
G75*
G02*
X126970000Y-103600000I-140000J0D01*
G01*
G37*
G04 #@! TD.AperFunction*
G04 #@! TA.AperFunction,SMDPad,CuDef*
G36*
G01*
X126970000Y-104560000D02*
X126630000Y-104560000D01*
G75*
G02*
X126490000Y-104420000I0J140000D01*
G01*
X126490000Y-104140000D01*
G75*
G02*
X126630000Y-104000000I140000J0D01*
G01*
X126970000Y-104000000D01*
G75*
G02*
X127110000Y-104140000I0J-140000D01*
G01*
X127110000Y-104420000D01*
G75*
G02*
X126970000Y-104560000I-140000J0D01*
G01*
G37*
G04 #@! TD.AperFunction*
G04 #@! TA.AperFunction,SMDPad,CuDef*
G36*
G01*
X132730000Y-104000000D02*
X133070000Y-104000000D01*
G75*
G02*
X133210000Y-104140000I0J-140000D01*
G01*
X133210000Y-104420000D01*
G75*
G02*
X133070000Y-104560000I-140000J0D01*
G01*
X132730000Y-104560000D01*
G75*
G02*
X132590000Y-104420000I0J140000D01*
G01*
X132590000Y-104140000D01*
G75*
G02*
X132730000Y-104000000I140000J0D01*
G01*
G37*
G04 #@! TD.AperFunction*
G04 #@! TA.AperFunction,SMDPad,CuDef*
G36*
G01*
X132730000Y-103040000D02*
X133070000Y-103040000D01*
G75*
G02*
X133210000Y-103180000I0J-140000D01*
G01*
X133210000Y-103460000D01*
G75*
G02*
X133070000Y-103600000I-140000J0D01*
G01*
X132730000Y-103600000D01*
G75*
G02*
X132590000Y-103460000I0J140000D01*
G01*
X132590000Y-103180000D01*
G75*
G02*
X132730000Y-103040000I140000J0D01*
G01*
G37*
G04 #@! TD.AperFunction*
D18*
X122550000Y-106600000D03*
D19*
X124000000Y-105850000D03*
X124000000Y-106350000D03*
X124000000Y-106850000D03*
X124000000Y-107350000D03*
X121100000Y-107350000D03*
X121100000Y-106850000D03*
X121100000Y-106350000D03*
X121100000Y-105850000D03*
G04 #@! TA.AperFunction,SMDPad,CuDef*
G36*
G01*
X115905000Y-108938500D02*
X115905000Y-108593500D01*
G75*
G02*
X116052500Y-108446000I147500J0D01*
G01*
X116347500Y-108446000D01*
G75*
G02*
X116495000Y-108593500I0J-147500D01*
G01*
X116495000Y-108938500D01*
G75*
G02*
X116347500Y-109086000I-147500J0D01*
G01*
X116052500Y-109086000D01*
G75*
G02*
X115905000Y-108938500I0J147500D01*
G01*
G37*
G04 #@! TD.AperFunction*
G04 #@! TA.AperFunction,SMDPad,CuDef*
G36*
G01*
X114935000Y-108938500D02*
X114935000Y-108593500D01*
G75*
G02*
X115082500Y-108446000I147500J0D01*
G01*
X115377500Y-108446000D01*
G75*
G02*
X115525000Y-108593500I0J-147500D01*
G01*
X115525000Y-108938500D01*
G75*
G02*
X115377500Y-109086000I-147500J0D01*
G01*
X115082500Y-109086000D01*
G75*
G02*
X114935000Y-108938500I0J147500D01*
G01*
G37*
G04 #@! TD.AperFunction*
G04 #@! TA.AperFunction,SMDPad,CuDef*
G36*
G01*
X111627500Y-113590000D02*
X111972500Y-113590000D01*
G75*
G02*
X112120000Y-113737500I0J-147500D01*
G01*
X112120000Y-114032500D01*
G75*
G02*
X111972500Y-114180000I-147500J0D01*
G01*
X111627500Y-114180000D01*
G75*
G02*
X111480000Y-114032500I0J147500D01*
G01*
X111480000Y-113737500D01*
G75*
G02*
X111627500Y-113590000I147500J0D01*
G01*
G37*
G04 #@! TD.AperFunction*
G04 #@! TA.AperFunction,SMDPad,CuDef*
G36*
G01*
X111627500Y-112620000D02*
X111972500Y-112620000D01*
G75*
G02*
X112120000Y-112767500I0J-147500D01*
G01*
X112120000Y-113062500D01*
G75*
G02*
X111972500Y-113210000I-147500J0D01*
G01*
X111627500Y-113210000D01*
G75*
G02*
X111480000Y-113062500I0J147500D01*
G01*
X111480000Y-112767500D01*
G75*
G02*
X111627500Y-112620000I147500J0D01*
G01*
G37*
G04 #@! TD.AperFunction*
G04 #@! TA.AperFunction,SMDPad,CuDef*
G36*
G01*
X117172500Y-110410000D02*
X116827500Y-110410000D01*
G75*
G02*
X116680000Y-110262500I0J147500D01*
G01*
X116680000Y-109967500D01*
G75*
G02*
X116827500Y-109820000I147500J0D01*
G01*
X117172500Y-109820000D01*
G75*
G02*
X117320000Y-109967500I0J-147500D01*
G01*
X117320000Y-110262500D01*
G75*
G02*
X117172500Y-110410000I-147500J0D01*
G01*
G37*
G04 #@! TD.AperFunction*
G04 #@! TA.AperFunction,SMDPad,CuDef*
G36*
G01*
X117172500Y-111380000D02*
X116827500Y-111380000D01*
G75*
G02*
X116680000Y-111232500I0J147500D01*
G01*
X116680000Y-110937500D01*
G75*
G02*
X116827500Y-110790000I147500J0D01*
G01*
X117172500Y-110790000D01*
G75*
G02*
X117320000Y-110937500I0J-147500D01*
G01*
X117320000Y-111232500D01*
G75*
G02*
X117172500Y-111380000I-147500J0D01*
G01*
G37*
G04 #@! TD.AperFunction*
G04 #@! TA.AperFunction,SMDPad,CuDef*
G36*
G01*
X113790000Y-108972500D02*
X113790000Y-108627500D01*
G75*
G02*
X113937500Y-108480000I147500J0D01*
G01*
X114232500Y-108480000D01*
G75*
G02*
X114380000Y-108627500I0J-147500D01*
G01*
X114380000Y-108972500D01*
G75*
G02*
X114232500Y-109120000I-147500J0D01*
G01*
X113937500Y-109120000D01*
G75*
G02*
X113790000Y-108972500I0J147500D01*
G01*
G37*
G04 #@! TD.AperFunction*
G04 #@! TA.AperFunction,SMDPad,CuDef*
G36*
G01*
X112820000Y-108972500D02*
X112820000Y-108627500D01*
G75*
G02*
X112967500Y-108480000I147500J0D01*
G01*
X113262500Y-108480000D01*
G75*
G02*
X113410000Y-108627500I0J-147500D01*
G01*
X113410000Y-108972500D01*
G75*
G02*
X113262500Y-109120000I-147500J0D01*
G01*
X112967500Y-109120000D01*
G75*
G02*
X112820000Y-108972500I0J147500D01*
G01*
G37*
G04 #@! TD.AperFunction*
G04 #@! TA.AperFunction,SMDPad,CuDef*
G36*
G01*
X122825000Y-108677500D02*
X122825000Y-109022500D01*
G75*
G02*
X122677500Y-109170000I-147500J0D01*
G01*
X122382500Y-109170000D01*
G75*
G02*
X122235000Y-109022500I0J147500D01*
G01*
X122235000Y-108677500D01*
G75*
G02*
X122382500Y-108530000I147500J0D01*
G01*
X122677500Y-108530000D01*
G75*
G02*
X122825000Y-108677500I0J-147500D01*
G01*
G37*
G04 #@! TD.AperFunction*
G04 #@! TA.AperFunction,SMDPad,CuDef*
G36*
G01*
X123795000Y-108677500D02*
X123795000Y-109022500D01*
G75*
G02*
X123647500Y-109170000I-147500J0D01*
G01*
X123352500Y-109170000D01*
G75*
G02*
X123205000Y-109022500I0J147500D01*
G01*
X123205000Y-108677500D01*
G75*
G02*
X123352500Y-108530000I147500J0D01*
G01*
X123647500Y-108530000D01*
G75*
G02*
X123795000Y-108677500I0J-147500D01*
G01*
G37*
G04 #@! TD.AperFunction*
G04 #@! TA.AperFunction,SMDPad,CuDef*
G36*
G01*
X123205000Y-110322500D02*
X123205000Y-109977500D01*
G75*
G02*
X123352500Y-109830000I147500J0D01*
G01*
X123647500Y-109830000D01*
G75*
G02*
X123795000Y-109977500I0J-147500D01*
G01*
X123795000Y-110322500D01*
G75*
G02*
X123647500Y-110470000I-147500J0D01*
G01*
X123352500Y-110470000D01*
G75*
G02*
X123205000Y-110322500I0J147500D01*
G01*
G37*
G04 #@! TD.AperFunction*
G04 #@! TA.AperFunction,SMDPad,CuDef*
G36*
G01*
X122235000Y-110322500D02*
X122235000Y-109977500D01*
G75*
G02*
X122382500Y-109830000I147500J0D01*
G01*
X122677500Y-109830000D01*
G75*
G02*
X122825000Y-109977500I0J-147500D01*
G01*
X122825000Y-110322500D01*
G75*
G02*
X122677500Y-110470000I-147500J0D01*
G01*
X122382500Y-110470000D01*
G75*
G02*
X122235000Y-110322500I0J147500D01*
G01*
G37*
G04 #@! TD.AperFunction*
G04 #@! TA.AperFunction,SMDPad,CuDef*
G36*
G01*
X119190000Y-109772500D02*
X119190000Y-109427500D01*
G75*
G02*
X119337500Y-109280000I147500J0D01*
G01*
X119632500Y-109280000D01*
G75*
G02*
X119780000Y-109427500I0J-147500D01*
G01*
X119780000Y-109772500D01*
G75*
G02*
X119632500Y-109920000I-147500J0D01*
G01*
X119337500Y-109920000D01*
G75*
G02*
X119190000Y-109772500I0J147500D01*
G01*
G37*
G04 #@! TD.AperFunction*
G04 #@! TA.AperFunction,SMDPad,CuDef*
G36*
G01*
X118220000Y-109772500D02*
X118220000Y-109427500D01*
G75*
G02*
X118367500Y-109280000I147500J0D01*
G01*
X118662500Y-109280000D01*
G75*
G02*
X118810000Y-109427500I0J-147500D01*
G01*
X118810000Y-109772500D01*
G75*
G02*
X118662500Y-109920000I-147500J0D01*
G01*
X118367500Y-109920000D01*
G75*
G02*
X118220000Y-109772500I0J147500D01*
G01*
G37*
G04 #@! TD.AperFunction*
G04 #@! TA.AperFunction,SMDPad,CuDef*
G36*
G01*
X119190000Y-105872500D02*
X119190000Y-105527500D01*
G75*
G02*
X119337500Y-105380000I147500J0D01*
G01*
X119632500Y-105380000D01*
G75*
G02*
X119780000Y-105527500I0J-147500D01*
G01*
X119780000Y-105872500D01*
G75*
G02*
X119632500Y-106020000I-147500J0D01*
G01*
X119337500Y-106020000D01*
G75*
G02*
X119190000Y-105872500I0J147500D01*
G01*
G37*
G04 #@! TD.AperFunction*
G04 #@! TA.AperFunction,SMDPad,CuDef*
G36*
G01*
X118220000Y-105872500D02*
X118220000Y-105527500D01*
G75*
G02*
X118367500Y-105380000I147500J0D01*
G01*
X118662500Y-105380000D01*
G75*
G02*
X118810000Y-105527500I0J-147500D01*
G01*
X118810000Y-105872500D01*
G75*
G02*
X118662500Y-106020000I-147500J0D01*
G01*
X118367500Y-106020000D01*
G75*
G02*
X118220000Y-105872500I0J147500D01*
G01*
G37*
G04 #@! TD.AperFunction*
D20*
X138140000Y-113080000D03*
X135600000Y-113080000D03*
X138140000Y-110540000D03*
X135600000Y-110540000D03*
X138140000Y-108000000D03*
D21*
X135600000Y-108000000D03*
G04 #@! TA.AperFunction,SMDPad,CuDef*
G36*
G01*
X110025000Y-109425000D02*
X110775000Y-109425000D01*
G75*
G02*
X110837500Y-109487500I0J-62500D01*
G01*
X110837500Y-109612500D01*
G75*
G02*
X110775000Y-109675000I-62500J0D01*
G01*
X110025000Y-109675000D01*
G75*
G02*
X109962500Y-109612500I0J62500D01*
G01*
X109962500Y-109487500D01*
G75*
G02*
X110025000Y-109425000I62500J0D01*
G01*
G37*
G04 #@! TD.AperFunction*
G04 #@! TA.AperFunction,SMDPad,CuDef*
G36*
G01*
X110025000Y-109925000D02*
X110775000Y-109925000D01*
G75*
G02*
X110837500Y-109987500I0J-62500D01*
G01*
X110837500Y-110112500D01*
G75*
G02*
X110775000Y-110175000I-62500J0D01*
G01*
X110025000Y-110175000D01*
G75*
G02*
X109962500Y-110112500I0J62500D01*
G01*
X109962500Y-109987500D01*
G75*
G02*
X110025000Y-109925000I62500J0D01*
G01*
G37*
G04 #@! TD.AperFunction*
G04 #@! TA.AperFunction,SMDPad,CuDef*
G36*
G01*
X110025000Y-110425000D02*
X110775000Y-110425000D01*
G75*
G02*
X110837500Y-110487500I0J-62500D01*
G01*
X110837500Y-110612500D01*
G75*
G02*
X110775000Y-110675000I-62500J0D01*
G01*
X110025000Y-110675000D01*
G75*
G02*
X109962500Y-110612500I0J62500D01*
G01*
X109962500Y-110487500D01*
G75*
G02*
X110025000Y-110425000I62500J0D01*
G01*
G37*
G04 #@! TD.AperFunction*
G04 #@! TA.AperFunction,SMDPad,CuDef*
G36*
G01*
X110025000Y-110925000D02*
X110775000Y-110925000D01*
G75*
G02*
X110837500Y-110987500I0J-62500D01*
G01*
X110837500Y-111112500D01*
G75*
G02*
X110775000Y-111175000I-62500J0D01*
G01*
X110025000Y-111175000D01*
G75*
G02*
X109962500Y-111112500I0J62500D01*
G01*
X109962500Y-110987500D01*
G75*
G02*
X110025000Y-110925000I62500J0D01*
G01*
G37*
G04 #@! TD.AperFunction*
G04 #@! TA.AperFunction,SMDPad,CuDef*
G36*
G01*
X110025000Y-111425000D02*
X110775000Y-111425000D01*
G75*
G02*
X110837500Y-111487500I0J-62500D01*
G01*
X110837500Y-111612500D01*
G75*
G02*
X110775000Y-111675000I-62500J0D01*
G01*
X110025000Y-111675000D01*
G75*
G02*
X109962500Y-111612500I0J62500D01*
G01*
X109962500Y-111487500D01*
G75*
G02*
X110025000Y-111425000I62500J0D01*
G01*
G37*
G04 #@! TD.AperFunction*
G04 #@! TA.AperFunction,SMDPad,CuDef*
G36*
G01*
X110025000Y-111925000D02*
X110775000Y-111925000D01*
G75*
G02*
X110837500Y-111987500I0J-62500D01*
G01*
X110837500Y-112112500D01*
G75*
G02*
X110775000Y-112175000I-62500J0D01*
G01*
X110025000Y-112175000D01*
G75*
G02*
X109962500Y-112112500I0J62500D01*
G01*
X109962500Y-111987500D01*
G75*
G02*
X110025000Y-111925000I62500J0D01*
G01*
G37*
G04 #@! TD.AperFunction*
G04 #@! TA.AperFunction,SMDPad,CuDef*
G36*
G01*
X110025000Y-112425000D02*
X110775000Y-112425000D01*
G75*
G02*
X110837500Y-112487500I0J-62500D01*
G01*
X110837500Y-112612500D01*
G75*
G02*
X110775000Y-112675000I-62500J0D01*
G01*
X110025000Y-112675000D01*
G75*
G02*
X109962500Y-112612500I0J62500D01*
G01*
X109962500Y-112487500D01*
G75*
G02*
X110025000Y-112425000I62500J0D01*
G01*
G37*
G04 #@! TD.AperFunction*
G04 #@! TA.AperFunction,SMDPad,CuDef*
G36*
G01*
X110025000Y-112925000D02*
X110775000Y-112925000D01*
G75*
G02*
X110837500Y-112987500I0J-62500D01*
G01*
X110837500Y-113112500D01*
G75*
G02*
X110775000Y-113175000I-62500J0D01*
G01*
X110025000Y-113175000D01*
G75*
G02*
X109962500Y-113112500I0J62500D01*
G01*
X109962500Y-112987500D01*
G75*
G02*
X110025000Y-112925000I62500J0D01*
G01*
G37*
G04 #@! TD.AperFunction*
G04 #@! TA.AperFunction,SMDPad,CuDef*
G36*
G01*
X109650000Y-113300000D02*
X109775000Y-113300000D01*
G75*
G02*
X109837500Y-113362500I0J-62500D01*
G01*
X109837500Y-114112500D01*
G75*
G02*
X109775000Y-114175000I-62500J0D01*
G01*
X109650000Y-114175000D01*
G75*
G02*
X109587500Y-114112500I0J62500D01*
G01*
X109587500Y-113362500D01*
G75*
G02*
X109650000Y-113300000I62500J0D01*
G01*
G37*
G04 #@! TD.AperFunction*
G04 #@! TA.AperFunction,SMDPad,CuDef*
G36*
G01*
X109150000Y-113300000D02*
X109275000Y-113300000D01*
G75*
G02*
X109337500Y-113362500I0J-62500D01*
G01*
X109337500Y-114112500D01*
G75*
G02*
X109275000Y-114175000I-62500J0D01*
G01*
X109150000Y-114175000D01*
G75*
G02*
X109087500Y-114112500I0J62500D01*
G01*
X109087500Y-113362500D01*
G75*
G02*
X109150000Y-113300000I62500J0D01*
G01*
G37*
G04 #@! TD.AperFunction*
G04 #@! TA.AperFunction,SMDPad,CuDef*
G36*
G01*
X108650000Y-113300000D02*
X108775000Y-113300000D01*
G75*
G02*
X108837500Y-113362500I0J-62500D01*
G01*
X108837500Y-114112500D01*
G75*
G02*
X108775000Y-114175000I-62500J0D01*
G01*
X108650000Y-114175000D01*
G75*
G02*
X108587500Y-114112500I0J62500D01*
G01*
X108587500Y-113362500D01*
G75*
G02*
X108650000Y-113300000I62500J0D01*
G01*
G37*
G04 #@! TD.AperFunction*
G04 #@! TA.AperFunction,SMDPad,CuDef*
G36*
G01*
X108150000Y-113300000D02*
X108275000Y-113300000D01*
G75*
G02*
X108337500Y-113362500I0J-62500D01*
G01*
X108337500Y-114112500D01*
G75*
G02*
X108275000Y-114175000I-62500J0D01*
G01*
X108150000Y-114175000D01*
G75*
G02*
X108087500Y-114112500I0J62500D01*
G01*
X108087500Y-113362500D01*
G75*
G02*
X108150000Y-113300000I62500J0D01*
G01*
G37*
G04 #@! TD.AperFunction*
G04 #@! TA.AperFunction,SMDPad,CuDef*
G36*
G01*
X107650000Y-113300000D02*
X107775000Y-113300000D01*
G75*
G02*
X107837500Y-113362500I0J-62500D01*
G01*
X107837500Y-114112500D01*
G75*
G02*
X107775000Y-114175000I-62500J0D01*
G01*
X107650000Y-114175000D01*
G75*
G02*
X107587500Y-114112500I0J62500D01*
G01*
X107587500Y-113362500D01*
G75*
G02*
X107650000Y-113300000I62500J0D01*
G01*
G37*
G04 #@! TD.AperFunction*
G04 #@! TA.AperFunction,SMDPad,CuDef*
G36*
G01*
X107150000Y-113300000D02*
X107275000Y-113300000D01*
G75*
G02*
X107337500Y-113362500I0J-62500D01*
G01*
X107337500Y-114112500D01*
G75*
G02*
X107275000Y-114175000I-62500J0D01*
G01*
X107150000Y-114175000D01*
G75*
G02*
X107087500Y-114112500I0J62500D01*
G01*
X107087500Y-113362500D01*
G75*
G02*
X107150000Y-113300000I62500J0D01*
G01*
G37*
G04 #@! TD.AperFunction*
G04 #@! TA.AperFunction,SMDPad,CuDef*
G36*
G01*
X106650000Y-113300000D02*
X106775000Y-113300000D01*
G75*
G02*
X106837500Y-113362500I0J-62500D01*
G01*
X106837500Y-114112500D01*
G75*
G02*
X106775000Y-114175000I-62500J0D01*
G01*
X106650000Y-114175000D01*
G75*
G02*
X106587500Y-114112500I0J62500D01*
G01*
X106587500Y-113362500D01*
G75*
G02*
X106650000Y-113300000I62500J0D01*
G01*
G37*
G04 #@! TD.AperFunction*
G04 #@! TA.AperFunction,SMDPad,CuDef*
G36*
G01*
X106150000Y-113300000D02*
X106275000Y-113300000D01*
G75*
G02*
X106337500Y-113362500I0J-62500D01*
G01*
X106337500Y-114112500D01*
G75*
G02*
X106275000Y-114175000I-62500J0D01*
G01*
X106150000Y-114175000D01*
G75*
G02*
X106087500Y-114112500I0J62500D01*
G01*
X106087500Y-113362500D01*
G75*
G02*
X106150000Y-113300000I62500J0D01*
G01*
G37*
G04 #@! TD.AperFunction*
G04 #@! TA.AperFunction,SMDPad,CuDef*
G36*
G01*
X105150000Y-112925000D02*
X105900000Y-112925000D01*
G75*
G02*
X105962500Y-112987500I0J-62500D01*
G01*
X105962500Y-113112500D01*
G75*
G02*
X105900000Y-113175000I-62500J0D01*
G01*
X105150000Y-113175000D01*
G75*
G02*
X105087500Y-113112500I0J62500D01*
G01*
X105087500Y-112987500D01*
G75*
G02*
X105150000Y-112925000I62500J0D01*
G01*
G37*
G04 #@! TD.AperFunction*
G04 #@! TA.AperFunction,SMDPad,CuDef*
G36*
G01*
X105150000Y-112425000D02*
X105900000Y-112425000D01*
G75*
G02*
X105962500Y-112487500I0J-62500D01*
G01*
X105962500Y-112612500D01*
G75*
G02*
X105900000Y-112675000I-62500J0D01*
G01*
X105150000Y-112675000D01*
G75*
G02*
X105087500Y-112612500I0J62500D01*
G01*
X105087500Y-112487500D01*
G75*
G02*
X105150000Y-112425000I62500J0D01*
G01*
G37*
G04 #@! TD.AperFunction*
G04 #@! TA.AperFunction,SMDPad,CuDef*
G36*
G01*
X105150000Y-111925000D02*
X105900000Y-111925000D01*
G75*
G02*
X105962500Y-111987500I0J-62500D01*
G01*
X105962500Y-112112500D01*
G75*
G02*
X105900000Y-112175000I-62500J0D01*
G01*
X105150000Y-112175000D01*
G75*
G02*
X105087500Y-112112500I0J62500D01*
G01*
X105087500Y-111987500D01*
G75*
G02*
X105150000Y-111925000I62500J0D01*
G01*
G37*
G04 #@! TD.AperFunction*
G04 #@! TA.AperFunction,SMDPad,CuDef*
G36*
G01*
X105150000Y-111425000D02*
X105900000Y-111425000D01*
G75*
G02*
X105962500Y-111487500I0J-62500D01*
G01*
X105962500Y-111612500D01*
G75*
G02*
X105900000Y-111675000I-62500J0D01*
G01*
X105150000Y-111675000D01*
G75*
G02*
X105087500Y-111612500I0J62500D01*
G01*
X105087500Y-111487500D01*
G75*
G02*
X105150000Y-111425000I62500J0D01*
G01*
G37*
G04 #@! TD.AperFunction*
G04 #@! TA.AperFunction,SMDPad,CuDef*
G36*
G01*
X105150000Y-110925000D02*
X105900000Y-110925000D01*
G75*
G02*
X105962500Y-110987500I0J-62500D01*
G01*
X105962500Y-111112500D01*
G75*
G02*
X105900000Y-111175000I-62500J0D01*
G01*
X105150000Y-111175000D01*
G75*
G02*
X105087500Y-111112500I0J62500D01*
G01*
X105087500Y-110987500D01*
G75*
G02*
X105150000Y-110925000I62500J0D01*
G01*
G37*
G04 #@! TD.AperFunction*
G04 #@! TA.AperFunction,SMDPad,CuDef*
G36*
G01*
X105150000Y-110425000D02*
X105900000Y-110425000D01*
G75*
G02*
X105962500Y-110487500I0J-62500D01*
G01*
X105962500Y-110612500D01*
G75*
G02*
X105900000Y-110675000I-62500J0D01*
G01*
X105150000Y-110675000D01*
G75*
G02*
X105087500Y-110612500I0J62500D01*
G01*
X105087500Y-110487500D01*
G75*
G02*
X105150000Y-110425000I62500J0D01*
G01*
G37*
G04 #@! TD.AperFunction*
G04 #@! TA.AperFunction,SMDPad,CuDef*
G36*
G01*
X105150000Y-109925000D02*
X105900000Y-109925000D01*
G75*
G02*
X105962500Y-109987500I0J-62500D01*
G01*
X105962500Y-110112500D01*
G75*
G02*
X105900000Y-110175000I-62500J0D01*
G01*
X105150000Y-110175000D01*
G75*
G02*
X105087500Y-110112500I0J62500D01*
G01*
X105087500Y-109987500D01*
G75*
G02*
X105150000Y-109925000I62500J0D01*
G01*
G37*
G04 #@! TD.AperFunction*
G04 #@! TA.AperFunction,SMDPad,CuDef*
G36*
G01*
X105150000Y-109425000D02*
X105900000Y-109425000D01*
G75*
G02*
X105962500Y-109487500I0J-62500D01*
G01*
X105962500Y-109612500D01*
G75*
G02*
X105900000Y-109675000I-62500J0D01*
G01*
X105150000Y-109675000D01*
G75*
G02*
X105087500Y-109612500I0J62500D01*
G01*
X105087500Y-109487500D01*
G75*
G02*
X105150000Y-109425000I62500J0D01*
G01*
G37*
G04 #@! TD.AperFunction*
G04 #@! TA.AperFunction,SMDPad,CuDef*
G36*
G01*
X106150000Y-108425000D02*
X106275000Y-108425000D01*
G75*
G02*
X106337500Y-108487500I0J-62500D01*
G01*
X106337500Y-109237500D01*
G75*
G02*
X106275000Y-109300000I-62500J0D01*
G01*
X106150000Y-109300000D01*
G75*
G02*
X106087500Y-109237500I0J62500D01*
G01*
X106087500Y-108487500D01*
G75*
G02*
X106150000Y-108425000I62500J0D01*
G01*
G37*
G04 #@! TD.AperFunction*
G04 #@! TA.AperFunction,SMDPad,CuDef*
G36*
G01*
X106650000Y-108425000D02*
X106775000Y-108425000D01*
G75*
G02*
X106837500Y-108487500I0J-62500D01*
G01*
X106837500Y-109237500D01*
G75*
G02*
X106775000Y-109300000I-62500J0D01*
G01*
X106650000Y-109300000D01*
G75*
G02*
X106587500Y-109237500I0J62500D01*
G01*
X106587500Y-108487500D01*
G75*
G02*
X106650000Y-108425000I62500J0D01*
G01*
G37*
G04 #@! TD.AperFunction*
G04 #@! TA.AperFunction,SMDPad,CuDef*
G36*
G01*
X107150000Y-108425000D02*
X107275000Y-108425000D01*
G75*
G02*
X107337500Y-108487500I0J-62500D01*
G01*
X107337500Y-109237500D01*
G75*
G02*
X107275000Y-109300000I-62500J0D01*
G01*
X107150000Y-109300000D01*
G75*
G02*
X107087500Y-109237500I0J62500D01*
G01*
X107087500Y-108487500D01*
G75*
G02*
X107150000Y-108425000I62500J0D01*
G01*
G37*
G04 #@! TD.AperFunction*
G04 #@! TA.AperFunction,SMDPad,CuDef*
G36*
G01*
X107650000Y-108425000D02*
X107775000Y-108425000D01*
G75*
G02*
X107837500Y-108487500I0J-62500D01*
G01*
X107837500Y-109237500D01*
G75*
G02*
X107775000Y-109300000I-62500J0D01*
G01*
X107650000Y-109300000D01*
G75*
G02*
X107587500Y-109237500I0J62500D01*
G01*
X107587500Y-108487500D01*
G75*
G02*
X107650000Y-108425000I62500J0D01*
G01*
G37*
G04 #@! TD.AperFunction*
G04 #@! TA.AperFunction,SMDPad,CuDef*
G36*
G01*
X108150000Y-108425000D02*
X108275000Y-108425000D01*
G75*
G02*
X108337500Y-108487500I0J-62500D01*
G01*
X108337500Y-109237500D01*
G75*
G02*
X108275000Y-109300000I-62500J0D01*
G01*
X108150000Y-109300000D01*
G75*
G02*
X108087500Y-109237500I0J62500D01*
G01*
X108087500Y-108487500D01*
G75*
G02*
X108150000Y-108425000I62500J0D01*
G01*
G37*
G04 #@! TD.AperFunction*
G04 #@! TA.AperFunction,SMDPad,CuDef*
G36*
G01*
X108650000Y-108425000D02*
X108775000Y-108425000D01*
G75*
G02*
X108837500Y-108487500I0J-62500D01*
G01*
X108837500Y-109237500D01*
G75*
G02*
X108775000Y-109300000I-62500J0D01*
G01*
X108650000Y-109300000D01*
G75*
G02*
X108587500Y-109237500I0J62500D01*
G01*
X108587500Y-108487500D01*
G75*
G02*
X108650000Y-108425000I62500J0D01*
G01*
G37*
G04 #@! TD.AperFunction*
G04 #@! TA.AperFunction,SMDPad,CuDef*
G36*
G01*
X109150000Y-108425000D02*
X109275000Y-108425000D01*
G75*
G02*
X109337500Y-108487500I0J-62500D01*
G01*
X109337500Y-109237500D01*
G75*
G02*
X109275000Y-109300000I-62500J0D01*
G01*
X109150000Y-109300000D01*
G75*
G02*
X109087500Y-109237500I0J62500D01*
G01*
X109087500Y-108487500D01*
G75*
G02*
X109150000Y-108425000I62500J0D01*
G01*
G37*
G04 #@! TD.AperFunction*
G04 #@! TA.AperFunction,SMDPad,CuDef*
G36*
G01*
X109650000Y-108425000D02*
X109775000Y-108425000D01*
G75*
G02*
X109837500Y-108487500I0J-62500D01*
G01*
X109837500Y-109237500D01*
G75*
G02*
X109775000Y-109300000I-62500J0D01*
G01*
X109650000Y-109300000D01*
G75*
G02*
X109587500Y-109237500I0J62500D01*
G01*
X109587500Y-108487500D01*
G75*
G02*
X109650000Y-108425000I62500J0D01*
G01*
G37*
G04 #@! TD.AperFunction*
G04 #@! TA.AperFunction,SMDPad,CuDef*
G36*
G01*
X106663600Y-109750000D02*
X109261400Y-109750000D01*
G75*
G02*
X109512500Y-110001100I0J-251100D01*
G01*
X109512500Y-112598900D01*
G75*
G02*
X109261400Y-112850000I-251100J0D01*
G01*
X106663600Y-112850000D01*
G75*
G02*
X106412500Y-112598900I0J251100D01*
G01*
X106412500Y-110001100D01*
G75*
G02*
X106663600Y-109750000I251100J0D01*
G01*
G37*
G04 #@! TD.AperFunction*
D22*
X101125000Y-110400000D03*
D23*
X103275000Y-113200000D03*
X103275000Y-107600000D03*
D24*
X103025000Y-109100000D03*
X103025000Y-111700000D03*
X103025000Y-109750000D03*
X103025000Y-111050000D03*
X103025000Y-110400000D03*
D20*
X138140000Y-103900000D03*
D21*
X135600000Y-103900000D03*
D20*
X101900000Y-103900000D03*
D21*
X104440000Y-103900000D03*
X131900000Y-113200000D03*
D20*
X129360000Y-113200000D03*
X126820000Y-113200000D03*
X124280000Y-113200000D03*
G04 #@! TA.AperFunction,SMDPad,CuDef*
G36*
G01*
X114050000Y-110343750D02*
X114050000Y-110856250D01*
G75*
G02*
X113831250Y-111075000I-218750J0D01*
G01*
X113393750Y-111075000D01*
G75*
G02*
X113175000Y-110856250I0J218750D01*
G01*
X113175000Y-110343750D01*
G75*
G02*
X113393750Y-110125000I218750J0D01*
G01*
X113831250Y-110125000D01*
G75*
G02*
X114050000Y-110343750I0J-218750D01*
G01*
G37*
G04 #@! TD.AperFunction*
G04 #@! TA.AperFunction,SMDPad,CuDef*
G36*
G01*
X115625000Y-110343750D02*
X115625000Y-110856250D01*
G75*
G02*
X115406250Y-111075000I-218750J0D01*
G01*
X114968750Y-111075000D01*
G75*
G02*
X114750000Y-110856250I0J218750D01*
G01*
X114750000Y-110343750D01*
G75*
G02*
X114968750Y-110125000I218750J0D01*
G01*
X115406250Y-110125000D01*
G75*
G02*
X115625000Y-110343750I0J-218750D01*
G01*
G37*
G04 #@! TD.AperFunction*
G04 #@! TA.AperFunction,SMDPad,CuDef*
G36*
G01*
X113281750Y-113380000D02*
X113794250Y-113380000D01*
G75*
G02*
X114013000Y-113598750I0J-218750D01*
G01*
X114013000Y-114036250D01*
G75*
G02*
X113794250Y-114255000I-218750J0D01*
G01*
X113281750Y-114255000D01*
G75*
G02*
X113063000Y-114036250I0J218750D01*
G01*
X113063000Y-113598750D01*
G75*
G02*
X113281750Y-113380000I218750J0D01*
G01*
G37*
G04 #@! TD.AperFunction*
G04 #@! TA.AperFunction,SMDPad,CuDef*
G36*
G01*
X113281750Y-111805000D02*
X113794250Y-111805000D01*
G75*
G02*
X114013000Y-112023750I0J-218750D01*
G01*
X114013000Y-112461250D01*
G75*
G02*
X113794250Y-112680000I-218750J0D01*
G01*
X113281750Y-112680000D01*
G75*
G02*
X113063000Y-112461250I0J218750D01*
G01*
X113063000Y-112023750D01*
G75*
G02*
X113281750Y-111805000I218750J0D01*
G01*
G37*
G04 #@! TD.AperFunction*
G04 #@! TA.AperFunction,SMDPad,CuDef*
G36*
G01*
X115059750Y-113380000D02*
X115572250Y-113380000D01*
G75*
G02*
X115791000Y-113598750I0J-218750D01*
G01*
X115791000Y-114036250D01*
G75*
G02*
X115572250Y-114255000I-218750J0D01*
G01*
X115059750Y-114255000D01*
G75*
G02*
X114841000Y-114036250I0J218750D01*
G01*
X114841000Y-113598750D01*
G75*
G02*
X115059750Y-113380000I218750J0D01*
G01*
G37*
G04 #@! TD.AperFunction*
G04 #@! TA.AperFunction,SMDPad,CuDef*
G36*
G01*
X115059750Y-111805000D02*
X115572250Y-111805000D01*
G75*
G02*
X115791000Y-112023750I0J-218750D01*
G01*
X115791000Y-112461250D01*
G75*
G02*
X115572250Y-112680000I-218750J0D01*
G01*
X115059750Y-112680000D01*
G75*
G02*
X114841000Y-112461250I0J218750D01*
G01*
X114841000Y-112023750D01*
G75*
G02*
X115059750Y-111805000I218750J0D01*
G01*
G37*
G04 #@! TD.AperFunction*
D25*
X130800000Y-103400000D03*
D26*
X107876276Y-111183774D03*
X109000000Y-112200000D03*
X109100000Y-110300000D03*
X101600000Y-112600000D03*
X109200000Y-103200000D03*
D25*
X114800000Y-107200000D03*
X118700000Y-110400000D03*
X120200000Y-104800000D03*
X121800000Y-104800000D03*
X124600000Y-110900000D03*
D26*
X129680000Y-109200000D03*
X129549823Y-107749871D03*
D25*
X121200000Y-108500000D03*
D26*
X127619990Y-104316848D03*
X125600000Y-106600000D03*
D25*
X125011013Y-105470000D03*
D26*
X133619016Y-108241570D03*
D25*
X132935000Y-104365000D03*
X129325233Y-103325233D03*
X111859620Y-110859620D03*
X114459620Y-103459620D03*
D26*
X104400000Y-109000000D03*
X104400000Y-114000000D03*
D25*
X117800000Y-105200000D03*
X114600000Y-106200000D03*
X130680003Y-105200000D03*
X124883575Y-107890262D03*
X129980000Y-105200000D03*
X125000000Y-107200000D03*
X121524767Y-109824767D03*
X104600000Y-111800000D03*
X104270000Y-110325233D03*
X110800000Y-113800000D03*
X115400000Y-109600000D03*
X109200000Y-107800000D03*
X114200000Y-109600000D03*
X116990233Y-105939767D03*
D26*
X105200000Y-113800000D03*
X114382500Y-113617500D03*
D25*
X125476000Y-109243000D03*
X127700000Y-111469990D03*
X136799994Y-106600000D03*
D26*
X125840001Y-105125001D03*
D25*
X133600000Y-110213000D03*
X125325221Y-111474770D03*
X112600000Y-105200000D03*
X108800000Y-106600000D03*
X107200000Y-104110000D03*
X108200000Y-114475000D03*
X112400000Y-113800001D03*
X130800000Y-102600000D03*
X129100000Y-111400000D03*
X128800000Y-102525000D03*
X128400013Y-111469990D03*
X130400000Y-112200000D03*
X131064090Y-111578640D03*
X126420685Y-111854727D03*
X133800000Y-111800000D03*
X133499989Y-106286108D03*
X132930002Y-111270000D03*
X133889024Y-105429720D03*
D27*
X108212500Y-111050000D02*
X107962500Y-111300000D01*
X108212500Y-108862500D02*
X108212500Y-111050000D01*
X109212500Y-112550000D02*
X107962500Y-111300000D01*
D28*
X109712500Y-113284384D02*
X109682490Y-113254374D01*
X109712500Y-113737500D02*
X109712500Y-113284384D01*
X109682490Y-113019990D02*
X107962500Y-111300000D01*
X109682490Y-113254374D02*
X109682490Y-113019990D01*
D27*
X107762490Y-111500010D02*
X107962500Y-111300000D01*
X107762490Y-113662510D02*
X107762490Y-111500010D01*
X107712500Y-113712500D02*
X107762490Y-113662510D01*
X107712500Y-113737500D02*
X107712500Y-113712500D01*
D28*
X106212500Y-113284384D02*
X106242510Y-113254374D01*
X106212500Y-113737500D02*
X106212500Y-113284384D01*
X106242510Y-113019990D02*
X107962500Y-111300000D01*
X106242510Y-113254374D02*
X106242510Y-113019990D01*
D29*
X110400000Y-112550000D02*
X109550000Y-112550000D01*
D27*
X109550000Y-112550000D02*
X109212500Y-112550000D01*
X102500000Y-111700000D02*
X101600000Y-112600000D01*
X103025000Y-111700000D02*
X102500000Y-111700000D01*
D28*
X111800000Y-108460000D02*
X112160000Y-108100000D01*
X111800000Y-108740000D02*
X111800000Y-108460000D01*
X112160000Y-108100000D02*
X114500000Y-108100000D01*
X114085000Y-108515000D02*
X114550000Y-108050000D01*
X114085000Y-108800000D02*
X114085000Y-108515000D01*
X114550000Y-108050000D02*
X115400000Y-107200000D01*
X114500000Y-108100000D02*
X114550000Y-108050000D01*
X116200000Y-108000000D02*
X115400000Y-107200000D01*
X116200000Y-108766000D02*
X116200000Y-108000000D01*
X115400000Y-107200000D02*
X114800000Y-107200000D01*
X118515000Y-110215000D02*
X118700000Y-110400000D01*
X118515000Y-109600000D02*
X118515000Y-110215000D01*
X121800000Y-107350000D02*
X122550000Y-106600000D01*
X121100000Y-107350000D02*
X121800000Y-107350000D01*
X126800000Y-103320000D02*
X126786600Y-103320000D01*
X131250000Y-108450000D02*
X129450000Y-108450000D01*
X131400000Y-108450000D02*
X131250000Y-108450000D01*
X127650000Y-108450000D02*
X129450000Y-108450000D01*
X127500000Y-108450000D02*
X127650000Y-108450000D01*
X129450000Y-108970000D02*
X129680000Y-109200000D01*
X129450000Y-108450000D02*
X129450000Y-108970000D01*
X118515000Y-105385000D02*
X118515000Y-105700000D01*
X119100000Y-104800000D02*
X118515000Y-105385000D01*
X120200000Y-104800000D02*
X119100000Y-104800000D01*
D27*
X126490000Y-103320000D02*
X125900000Y-103910000D01*
X126800000Y-103320000D02*
X126490000Y-103320000D01*
X125900000Y-104140000D02*
X125900000Y-103910000D01*
X125240000Y-104800000D02*
X125900000Y-104140000D01*
D30*
X122550000Y-105550000D02*
X122550000Y-106600000D01*
X121800000Y-104800000D02*
X122550000Y-105550000D01*
X132900000Y-103320000D02*
X132180000Y-103320000D01*
X131700000Y-103800000D02*
X130800000Y-103800000D01*
X132180000Y-103320000D02*
X131700000Y-103800000D01*
X125129000Y-104800000D02*
X125184500Y-104744500D01*
X121800000Y-104800000D02*
X125129000Y-104800000D01*
X124280000Y-113200000D02*
X124280000Y-112080000D01*
X123500000Y-111300000D02*
X123500000Y-110150000D01*
X124280000Y-112080000D02*
X123500000Y-111300000D01*
X123500000Y-110150000D02*
X123500000Y-108850000D01*
D27*
X127500000Y-108000000D02*
X125600000Y-108000000D01*
D30*
X124885839Y-108850000D02*
X125600000Y-108135839D01*
X123500000Y-108850000D02*
X124885839Y-108850000D01*
X125600000Y-108000000D02*
X125650002Y-107949998D01*
X125600000Y-108135839D02*
X125600000Y-108000000D01*
X125650001Y-106650001D02*
X125600000Y-106600000D01*
X125650001Y-108085838D02*
X125650001Y-106650001D01*
X125600000Y-108135839D02*
X125650001Y-108085838D01*
D27*
X124380000Y-105470000D02*
X124000000Y-105850000D01*
X125011013Y-105470000D02*
X124380000Y-105470000D01*
X132510586Y-109350000D02*
X133619016Y-108241570D01*
X131400000Y-109350000D02*
X132510586Y-109350000D01*
D28*
X129450000Y-103850000D02*
X129500000Y-103800000D01*
X129450000Y-106500000D02*
X129450000Y-103850000D01*
X129500000Y-103500000D02*
X129325233Y-103325233D01*
X129500000Y-103800000D02*
X129500000Y-103500000D01*
X111800000Y-110919240D02*
X111859620Y-110859620D01*
X111800000Y-110920000D02*
X111800000Y-110919240D01*
X113538000Y-112242500D02*
X112957500Y-112242500D01*
X112285000Y-112915000D02*
X112957500Y-112242500D01*
X111800000Y-112915000D02*
X112285000Y-112915000D01*
D27*
X104300000Y-109100000D02*
X104400000Y-109000000D01*
X103025000Y-109100000D02*
X104300000Y-109100000D01*
X107212500Y-114223022D02*
X106935512Y-114500010D01*
X107212500Y-113737500D02*
X107212500Y-114223022D01*
X106935512Y-114500010D02*
X104900010Y-114500010D01*
X104900010Y-114500010D02*
X104400000Y-114000000D01*
D28*
X117660000Y-104600000D02*
X118660000Y-103600000D01*
X117000000Y-104600000D02*
X117660000Y-104600000D01*
X116400000Y-103317799D02*
X116400000Y-104000000D01*
X117362789Y-102355010D02*
X116400000Y-103317799D01*
X127248128Y-102355010D02*
X117362789Y-102355010D01*
X128560010Y-103666892D02*
X127248128Y-102355010D01*
X129000000Y-106500000D02*
X129000000Y-105400000D01*
X128560011Y-104960011D02*
X128560010Y-103666892D01*
X129000000Y-105400000D02*
X128560011Y-104960011D01*
X116400000Y-104000000D02*
X117000000Y-104600000D01*
X118660000Y-103600000D02*
X117600000Y-104660000D01*
X117600000Y-105000000D02*
X117800000Y-105200000D01*
X117600000Y-104660000D02*
X117600000Y-105000000D01*
X118274979Y-102715021D02*
X117390000Y-103600000D01*
X127099007Y-102715021D02*
X118274979Y-102715021D01*
X128200000Y-103816014D02*
X127099007Y-102715021D01*
X128550000Y-105750000D02*
X128200000Y-105400000D01*
X128550000Y-106500000D02*
X128550000Y-105750000D01*
X128200000Y-105400000D02*
X128200000Y-103816014D01*
X130680003Y-105284399D02*
X130680003Y-105200000D01*
X130350000Y-105614402D02*
X130680003Y-105284399D01*
X130350000Y-106500000D02*
X130350000Y-105614402D01*
X124000000Y-107350000D02*
X124000000Y-107800000D01*
X124000000Y-107800000D02*
X123800000Y-108000000D01*
X123800000Y-108000000D02*
X123000000Y-108000000D01*
X122530000Y-108470000D02*
X122530000Y-108850000D01*
X123000000Y-108000000D02*
X122530000Y-108470000D01*
X118670000Y-111930000D02*
X118670000Y-113200000D01*
X121750000Y-108850000D02*
X118670000Y-111930000D01*
X122530000Y-108850000D02*
X121750000Y-108850000D01*
X124343313Y-107350000D02*
X124883575Y-107890262D01*
X124000000Y-107350000D02*
X124343313Y-107350000D01*
X129900000Y-105280000D02*
X129980000Y-105200000D01*
X129900000Y-106500000D02*
X129900000Y-105280000D01*
X124650000Y-106850000D02*
X125000000Y-107200000D01*
X124000000Y-106850000D02*
X124650000Y-106850000D01*
X121850000Y-110150000D02*
X121524767Y-109824767D01*
X122530000Y-110150000D02*
X121850000Y-110150000D01*
X104550000Y-112550000D02*
X105525000Y-112550000D01*
X104055001Y-112055001D02*
X104550000Y-112550000D01*
X104055001Y-111344999D02*
X104055001Y-112055001D01*
X104800000Y-110000000D02*
X104800000Y-110600000D01*
X104550000Y-109750000D02*
X104800000Y-110000000D01*
X104800000Y-110600000D02*
X104055001Y-111344999D01*
X103025000Y-109750000D02*
X104550000Y-109750000D01*
X104850000Y-112050000D02*
X104600000Y-111800000D01*
X105525000Y-112050000D02*
X104850000Y-112050000D01*
X104195233Y-110400000D02*
X104270000Y-110325233D01*
X103025000Y-110400000D02*
X104195233Y-110400000D01*
X117000000Y-111290869D02*
X117000000Y-111085000D01*
X116048369Y-112242500D02*
X117000000Y-111290869D01*
X115316000Y-112242500D02*
X116048369Y-112242500D01*
X111117510Y-113482490D02*
X110800000Y-113800000D01*
X111117510Y-110830010D02*
X111117510Y-113482490D01*
X110837500Y-110550000D02*
X111117510Y-110830010D01*
X110400000Y-110550000D02*
X110837500Y-110550000D01*
X109200000Y-108850000D02*
X109212500Y-108862500D01*
X109200000Y-107800000D02*
X109200000Y-108850000D01*
X113232144Y-111400000D02*
X112894990Y-111062846D01*
X113115000Y-109685000D02*
X113115000Y-108800000D01*
X112894990Y-109905010D02*
X113115000Y-109685000D01*
X112689980Y-109700000D02*
X112894990Y-109905010D01*
X111800000Y-109700000D02*
X112689980Y-109700000D01*
X110662500Y-108862500D02*
X109712500Y-108862500D01*
X111500000Y-109700000D02*
X110662500Y-108862500D01*
X111800000Y-109700000D02*
X111500000Y-109700000D01*
X114382500Y-111417500D02*
X114400000Y-111400000D01*
X114400000Y-111400000D02*
X113232144Y-111400000D01*
X113538000Y-113817500D02*
X114382500Y-113817500D01*
X114382500Y-113817500D02*
X115316000Y-113817500D01*
X105525000Y-113475000D02*
X105200000Y-113800000D01*
X105525000Y-113050000D02*
X105525000Y-113475000D01*
X114382500Y-113617500D02*
X114382500Y-111417500D01*
X114382500Y-113817500D02*
X114382500Y-113617500D01*
D27*
X125819000Y-108900000D02*
X125476000Y-109243000D01*
X127500000Y-108900000D02*
X125819000Y-108900000D01*
D28*
X113612500Y-110600000D02*
X113612500Y-110383500D01*
X113612500Y-110600000D02*
X112989980Y-110600000D01*
X112894990Y-110505010D02*
X112894990Y-109905010D01*
X112989980Y-110600000D02*
X112894990Y-110505010D01*
X112894990Y-111062846D02*
X112894990Y-110505010D01*
X117400000Y-109100000D02*
X117400000Y-106349534D01*
X117400000Y-106349534D02*
X116990233Y-105939767D01*
X117200000Y-109300000D02*
X117400000Y-109100000D01*
X116890408Y-109300000D02*
X117200000Y-109300000D01*
X116399990Y-109790418D02*
X116890408Y-109300000D01*
X116399990Y-110567866D02*
X116399990Y-109790418D01*
X115567856Y-111400000D02*
X116399990Y-110567866D01*
X114400000Y-111400000D02*
X115567856Y-111400000D01*
X114869999Y-109126001D02*
X115230000Y-108766000D01*
X114869999Y-110282499D02*
X114869999Y-109126001D01*
X115187500Y-110600000D02*
X114869999Y-110282499D01*
X128100000Y-110400000D02*
X127700000Y-110800000D01*
X127700000Y-110800000D02*
X127700000Y-111469990D01*
X136900000Y-109300000D02*
X138140000Y-110540000D01*
X134700000Y-109300000D02*
X136900000Y-109300000D01*
X134300000Y-107900000D02*
X134300000Y-108900000D01*
X134300000Y-108900000D02*
X134700000Y-109300000D01*
X134000000Y-107600000D02*
X134300000Y-107900000D01*
X133400000Y-107600000D02*
X134000000Y-107600000D01*
X133000000Y-108000000D02*
X133400000Y-107600000D01*
X131400000Y-108000000D02*
X133000000Y-108000000D01*
X131400000Y-107100000D02*
X133900000Y-107100000D01*
X134400000Y-106600000D02*
X136799994Y-106600000D01*
X133900000Y-107100000D02*
X134400000Y-106600000D01*
X134035010Y-114644990D02*
X135600000Y-113080000D01*
X126592588Y-114644990D02*
X134035010Y-114644990D01*
X125600000Y-113652402D02*
X126592588Y-114644990D01*
X125600000Y-111984393D02*
X125600000Y-113652402D01*
X125855222Y-111729171D02*
X125600000Y-111984393D01*
X125855222Y-110544778D02*
X125855222Y-111729171D01*
X126600000Y-109800000D02*
X125855222Y-110544778D01*
X127500000Y-109800000D02*
X126600000Y-109800000D01*
X127600000Y-106000000D02*
X128100000Y-106500000D01*
X124965598Y-106000000D02*
X127600000Y-106000000D01*
X124615598Y-106350000D02*
X124965598Y-106000000D01*
X124000000Y-106350000D02*
X124615598Y-106350000D01*
D30*
X126800000Y-104280000D02*
X126685002Y-104280000D01*
X126685002Y-104280000D02*
X125840001Y-105125001D01*
D27*
X127500000Y-109350000D02*
X126450000Y-109350000D01*
X125325221Y-110474779D02*
X125325221Y-111474770D01*
X126450000Y-109350000D02*
X125325221Y-110474779D01*
D28*
X120340020Y-107074980D02*
X120340020Y-109669572D01*
X121100000Y-106850000D02*
X120565000Y-106850000D01*
X117800000Y-106000000D02*
X117200000Y-105400000D01*
X119079590Y-110930002D02*
X118445598Y-110930002D01*
X117800000Y-110284404D02*
X117800000Y-106000000D01*
X118445598Y-110930002D02*
X117800000Y-110284404D01*
X120340020Y-109669572D02*
X119079590Y-110930002D01*
X120565000Y-106850000D02*
X120340020Y-107074980D01*
X117200000Y-105400000D02*
X112800000Y-105400000D01*
X112800000Y-105400000D02*
X112600000Y-105200000D01*
D27*
X119485000Y-109600000D02*
X119485000Y-109085000D01*
X119000000Y-108600000D02*
X119000000Y-108250000D01*
X119485000Y-109085000D02*
X119000000Y-108600000D01*
X119550000Y-108250000D02*
X119000000Y-108250000D01*
X119935010Y-107864990D02*
X119550000Y-108250000D01*
X119935010Y-106464990D02*
X119935010Y-107864990D01*
X120050000Y-106350000D02*
X119935010Y-106464990D01*
X121100000Y-106350000D02*
X120050000Y-106350000D01*
D28*
X119000000Y-106850000D02*
X119000000Y-106800000D01*
D27*
X119000000Y-106850000D02*
X119485000Y-106365000D01*
X121100000Y-105850000D02*
X120450000Y-105850000D01*
X119485000Y-106365000D02*
X119485000Y-105700000D01*
X120300000Y-105700000D02*
X120450000Y-105850000D01*
X119485000Y-105700000D02*
X120300000Y-105700000D01*
D28*
X112120000Y-111880000D02*
X111800000Y-111880000D01*
X112500000Y-110500000D02*
X112500000Y-111500000D01*
X112260010Y-110260010D02*
X112500000Y-110500000D01*
X112500000Y-111500000D02*
X112120000Y-111880000D01*
X111260010Y-110260010D02*
X112260010Y-110260010D01*
X111050000Y-110050000D02*
X111260010Y-110260010D01*
X110400000Y-110050000D02*
X111050000Y-110050000D01*
X109400000Y-107200000D02*
X108800000Y-106600000D01*
X111400000Y-107200000D02*
X109400000Y-107200000D01*
X107400000Y-104310000D02*
X107200000Y-104110000D01*
X107400000Y-107200000D02*
X107400000Y-104310000D01*
X117315000Y-110315000D02*
X117000000Y-110315000D01*
X117400000Y-111800000D02*
X117800000Y-111400000D01*
X116400000Y-112400000D02*
X117000000Y-111800000D01*
X117800000Y-111400000D02*
X117800000Y-110800000D01*
X116400000Y-113913856D02*
X116400000Y-112400000D01*
X115713856Y-114600000D02*
X116400000Y-113913856D01*
X109137500Y-114600000D02*
X115713856Y-114600000D01*
X117115000Y-110115000D02*
X117000000Y-110115000D01*
X108712500Y-114175000D02*
X109137500Y-114600000D01*
X117800000Y-110800000D02*
X117115000Y-110115000D01*
X117000000Y-111800000D02*
X117400000Y-111800000D01*
X108712500Y-113737500D02*
X108712500Y-114175000D01*
X108212500Y-114462500D02*
X108200000Y-114475000D01*
X108212500Y-113737500D02*
X108212500Y-114462500D01*
X112315001Y-113885000D02*
X112400000Y-113800001D01*
X111800000Y-113885000D02*
X112315001Y-113885000D01*
X129000000Y-110400000D02*
X129000000Y-111300000D01*
X129000000Y-111300000D02*
X129100000Y-111400000D01*
X128860025Y-111930002D02*
X128400013Y-111469990D01*
X129354402Y-111930002D02*
X128860025Y-111930002D01*
X129630002Y-111654402D02*
X129354402Y-111930002D01*
X129450000Y-110965596D02*
X129630002Y-111145598D01*
X129450000Y-110400000D02*
X129450000Y-110965596D01*
X129630002Y-111145598D02*
X129630002Y-111654402D01*
X129990013Y-111790013D02*
X130400000Y-112200000D01*
X129990013Y-110996477D02*
X129990013Y-111790013D01*
X129900000Y-110400000D02*
X129900000Y-110906464D01*
X129900000Y-110906464D02*
X129990013Y-110996477D01*
X130350000Y-110400000D02*
X130350000Y-110864550D01*
X130350000Y-110864550D02*
X131064090Y-111578640D01*
X132400000Y-111800000D02*
X133800000Y-111800000D01*
X131000000Y-110400000D02*
X132400000Y-111800000D01*
X130800000Y-110400000D02*
X131000000Y-110400000D01*
X131400000Y-109800000D02*
X132870000Y-111270000D01*
X132870000Y-111270000D02*
X132930002Y-111270000D01*
M02*
