M48
; DRILL file {KiCad (5.1.9)-1} date 05/17/21 22:57:30
; FORMAT={-:-/ absolute / inch / decimal}
; #@! TF.CreationDate,2021-05-17T22:57:30+10:00
; #@! TF.GenerationSoftware,Kicad,Pcbnew,(5.1.9)-1
FMAT,2
INCH
T1C0.0118
T2C0.0157
T3C0.0197
T4C0.0256
T5C0.0315
T6C0.0394
T7C0.0300
%
G90
G05
T1
X1.1299Y-2.1772
X1.1299Y-2.9646
X1.1299Y-3.752
X1.1299Y-4.5394
X1.1299Y-5.3268
X1.2559Y-1.7957
X1.2559Y-2.0591
X1.2559Y-2.1299
X1.2559Y-2.5831
X1.2559Y-2.8465
X1.2559Y-2.9173
X1.2559Y-3.3705
X1.2559Y-3.6339
X1.2559Y-3.7047
X1.2559Y-4.1579
X1.2559Y-4.4213
X1.2559Y-4.4921
X1.2559Y-4.9453
X1.2559Y-5.2087
X1.2559Y-5.2795
X1.3524Y-2.2343
X1.3524Y-3.0217
X1.3524Y-3.8091
X1.3524Y-4.5965
X1.3524Y-5.3839
X1.4213Y-1.8307
X1.4213Y-2.6181
X1.4213Y-3.4055
X1.4213Y-4.1929
X1.4213Y-4.9803
X1.4291Y-1.8937
X1.4291Y-2.6811
X1.4291Y-3.4685
X1.4291Y-4.2559
X1.4291Y-5.0433
X1.4646Y-1.8327
X1.4646Y-2.6201
X1.4646Y-3.4075
X1.4646Y-4.1949
X1.4646Y-4.9823
X1.5079Y-2.1929
X1.5079Y-2.9803
X1.5079Y-3.7677
X1.5079Y-4.5551
X1.5079Y-5.3425
X1.5413Y-2.0807
X1.5413Y-2.8681
X1.5413Y-3.6555
X1.5413Y-4.4429
X1.5413Y-5.2303
X1.5591Y-2.0551
X1.5591Y-2.8425
X1.5591Y-3.6299
X1.5591Y-4.4173
X1.5591Y-5.2047
X1.5945Y-1.7047
X1.5945Y-2.4921
X1.5945Y-3.2795
X1.5945Y-4.0669
X1.5945Y-4.8543
X1.6454Y-1.8792
X1.6454Y-2.6666
X1.6454Y-3.454
X1.6454Y-4.2414
X1.6454Y-5.0288
X1.6496Y-2.0138
X1.6496Y-2.8012
X1.6496Y-3.5886
X1.6496Y-4.376
X1.6496Y-5.1634
X1.6535Y-1.9055
X1.6535Y-2.6929
X1.6535Y-3.4803
X1.6535Y-4.2677
X1.6535Y-5.0551
X1.7205Y-1.8091
X1.7205Y-2.5965
X1.7205Y-3.3839
X1.7205Y-4.1713
X1.7205Y-4.9587
X1.8346Y-2.0335
X1.8346Y-2.8209
X1.8346Y-3.6083
X1.8346Y-4.3957
X1.8346Y-5.1831
X1.8504Y-1.9803
X1.8504Y-2.7677
X1.8504Y-3.5551
X1.8504Y-4.3425
X1.8504Y-5.1299
X1.9134Y-1.9626
X1.9134Y-2.75
X1.9134Y-3.5374
X1.9134Y-4.3248
X1.9134Y-5.1122
X1.9301Y-2.0207
X1.9301Y-2.8081
X1.9301Y-3.5955
X1.9301Y-4.3829
X1.9301Y-5.1703
X2.0342Y-1.8624
X2.0342Y-2.6498
X2.0342Y-3.4372
X2.0342Y-4.2246
X2.0342Y-5.012
X2.0394Y-1.9528
X2.0394Y-2.7402
X2.0394Y-3.5276
X2.0394Y-4.315
X2.0394Y-5.1024
X2.0551Y-1.8445
X2.0551Y-2.6319
X2.0551Y-3.4193
X2.0551Y-4.2067
X2.0551Y-4.9941
X2.0649Y-1.9319
X2.0649Y-2.7193
X2.0649Y-3.5067
X2.0649Y-4.2941
X2.0649Y-5.0815
X2.0797Y-2.0856
X2.0797Y-2.873
X2.0797Y-3.6604
X2.0797Y-4.4478
X2.0797Y-5.2352
X2.0857Y-1.9978
X2.0857Y-2.7852
X2.0857Y-3.5726
X2.0857Y-4.36
X2.0857Y-5.1474
X2.0866Y-1.8937
X2.0866Y-2.6811
X2.0866Y-3.4685
X2.0866Y-4.2559
X2.0866Y-5.0433
X2.0925Y-2.11
X2.0925Y-2.8974
X2.0925Y-3.6848
X2.0925Y-4.4722
X2.0925Y-5.2596
X2.1047Y-1.6969
X2.1047Y-2.4843
X2.1047Y-3.2717
X2.1047Y-4.0591
X2.1047Y-4.8465
X2.1179Y-1.7217
X2.1179Y-2.5091
X2.1179Y-3.2965
X2.1179Y-4.0839
X2.1179Y-4.8713
X2.1228Y-1.9379
X2.1228Y-2.7253
X2.1228Y-3.5127
X2.1228Y-4.3001
X2.1228Y-5.0875
X2.1514Y-1.6939
X2.1514Y-2.4813
X2.1514Y-3.2687
X2.1514Y-4.0561
X2.1514Y-4.8435
X2.1803Y-2.0906
X2.1803Y-2.878
X2.1803Y-3.6654
X2.1803Y-4.4528
X2.1803Y-5.2402
X2.1969Y-1.7262
X2.1969Y-2.5136
X2.1969Y-3.301
X2.1969Y-4.0884
X2.1969Y-4.8758
X2.2082Y-2.1076
X2.2082Y-2.895
X2.2082Y-3.6824
X2.2082Y-4.4698
X2.2082Y-5.2572
X2.222Y-2.0838
X2.222Y-2.8712
X2.222Y-3.6586
X2.222Y-4.446
X2.222Y-5.2334
X2.236Y-2.1095
X2.236Y-2.8969
X2.236Y-3.6843
X2.236Y-4.4717
X2.236Y-5.2591
X2.2578Y-1.845
X2.2578Y-2.6324
X2.2578Y-3.4198
X2.2578Y-4.2072
X2.2578Y-4.9946
X2.2638Y-2.0846
X2.2638Y-2.872
X2.2638Y-3.6594
X2.2638Y-4.4469
X2.2638Y-5.2343
X2.2855Y-1.845
X2.2855Y-2.6324
X2.2855Y-3.4198
X2.2855Y-4.2072
X2.2855Y-4.9946
X2.2885Y-2.098
X2.2885Y-2.8854
X2.2885Y-3.6728
X2.2885Y-4.4602
X2.2885Y-5.2476
X2.3543Y-2.0657
X2.3543Y-2.8531
X2.3543Y-3.6406
X2.3543Y-4.428
X2.3543Y-5.2154
X2.3638Y-1.9606
X2.3638Y-2.748
X2.3638Y-3.5354
X2.3638Y-4.3228
X2.3638Y-5.1102
X2.3701Y-1.7244
X2.3701Y-2.5118
X2.3701Y-3.2992
X2.3701Y-4.0866
X2.3701Y-4.874
X2.378Y-1.937
X2.378Y-2.7244
X2.378Y-3.5118
X2.378Y-4.2992
X2.378Y-5.0866
X2.4094Y-2.0669
X2.4094Y-2.8543
X2.4094Y-3.6417
X2.4094Y-4.4291
X2.4094Y-5.2165
X2.4096Y-2.0317
X2.4096Y-2.8191
X2.4096Y-3.6065
X2.4096Y-4.3939
X2.4096Y-5.1813
X2.4441Y-1.8024
X2.4441Y-2.5898
X2.4441Y-3.3772
X2.4441Y-4.1646
X2.4441Y-4.952
X2.4514Y-1.8713
X2.4514Y-2.6587
X2.4514Y-3.4461
X2.4514Y-4.2335
X2.4514Y-5.0209
X2.4724Y-2.063
X2.4724Y-2.8504
X2.4724Y-3.6378
X2.4724Y-4.4252
X2.4724Y-5.2126
X2.4784Y-1.8657
X2.4784Y-2.6531
X2.4784Y-3.4405
X2.4784Y-4.2279
X2.4784Y-5.0153
X2.5827Y-2.2343
X2.5827Y-3.0217
X2.5827Y-3.8091
X2.5827Y-4.5965
X2.5827Y-5.3839
X2.6594Y-1.9528
X2.6594Y-2.7402
X2.6594Y-3.5276
X2.6594Y-4.315
X2.6594Y-5.1024
X3.0984Y-2.1772
X3.0984Y-2.9646
X3.0984Y-3.752
X3.0984Y-4.5394
X3.0984Y-5.3268
X3.2244Y-1.7957
X3.2244Y-2.0591
X3.2244Y-2.1299
X3.2244Y-2.5831
X3.2244Y-2.8465
X3.2244Y-2.9173
X3.2244Y-3.3705
X3.2244Y-3.6339
X3.2244Y-3.7047
X3.2244Y-4.1579
X3.2244Y-4.4213
X3.2244Y-4.4921
X3.2244Y-4.9453
X3.2244Y-5.2087
X3.2244Y-5.2795
X3.3209Y-2.2343
X3.3209Y-3.0217
X3.3209Y-3.8091
X3.3209Y-4.5965
X3.3209Y-5.3839
X3.3898Y-1.8307
X3.3898Y-2.6181
X3.3898Y-3.4055
X3.3898Y-4.1929
X3.3898Y-4.9803
X3.3976Y-1.8937
X3.3976Y-2.6811
X3.3976Y-3.4685
X3.3976Y-4.2559
X3.3976Y-5.0433
X3.4331Y-1.8327
X3.4331Y-2.6201
X3.4331Y-3.4075
X3.4331Y-4.1949
X3.4331Y-4.9823
X3.4764Y-2.1929
X3.4764Y-2.9803
X3.4764Y-3.7677
X3.4764Y-4.5551
X3.4764Y-5.3425
X3.5098Y-2.0807
X3.5098Y-2.8681
X3.5098Y-3.6555
X3.5098Y-4.4429
X3.5098Y-5.2303
X3.5276Y-2.0551
X3.5276Y-2.8425
X3.5276Y-3.6299
X3.5276Y-4.4173
X3.5276Y-5.2047
X3.563Y-1.7047
X3.563Y-2.4921
X3.563Y-3.2795
X3.563Y-4.0669
X3.563Y-4.8543
X3.6139Y-1.8792
X3.6139Y-2.6666
X3.6139Y-3.454
X3.6139Y-4.2414
X3.6139Y-5.0288
X3.6181Y-2.0138
X3.6181Y-2.8012
X3.6181Y-3.5886
X3.6181Y-4.376
X3.6181Y-5.1634
X3.622Y-1.9055
X3.622Y-2.6929
X3.622Y-3.4803
X3.622Y-4.2677
X3.622Y-5.0551
X3.689Y-1.8091
X3.689Y-2.5965
X3.689Y-3.3839
X3.689Y-4.1713
X3.689Y-4.9587
X3.8031Y-2.0335
X3.8031Y-2.8209
X3.8031Y-3.6083
X3.8031Y-4.3957
X3.8031Y-5.1831
X3.8189Y-1.9803
X3.8189Y-2.7677
X3.8189Y-3.5551
X3.8189Y-4.3425
X3.8189Y-5.1299
X3.8819Y-1.9626
X3.8819Y-2.75
X3.8819Y-3.5374
X3.8819Y-4.3248
X3.8819Y-5.1122
X3.8986Y-2.0207
X3.8986Y-2.8081
X3.8986Y-3.5955
X3.8986Y-4.3829
X3.8986Y-5.1703
X4.0027Y-1.8624
X4.0027Y-2.6498
X4.0027Y-3.4372
X4.0027Y-4.2246
X4.0027Y-5.012
X4.0079Y-1.9528
X4.0079Y-2.7402
X4.0079Y-3.5276
X4.0079Y-4.315
X4.0079Y-5.1024
X4.0236Y-1.8445
X4.0236Y-2.6319
X4.0236Y-3.4193
X4.0236Y-4.2067
X4.0236Y-4.9941
X4.0334Y-1.9319
X4.0334Y-2.7193
X4.0334Y-3.5067
X4.0334Y-4.2941
X4.0334Y-5.0815
X4.0482Y-2.0856
X4.0482Y-2.873
X4.0482Y-3.6604
X4.0482Y-4.4478
X4.0482Y-5.2352
X4.0542Y-1.9978
X4.0542Y-2.7852
X4.0542Y-3.5726
X4.0542Y-4.36
X4.0542Y-5.1474
X4.0551Y-1.8937
X4.0551Y-2.6811
X4.0551Y-3.4685
X4.0551Y-4.2559
X4.0551Y-5.0433
X4.061Y-2.11
X4.061Y-2.8974
X4.061Y-3.6848
X4.061Y-4.4722
X4.061Y-5.2596
X4.0732Y-1.6969
X4.0732Y-2.4843
X4.0732Y-3.2717
X4.0732Y-4.0591
X4.0732Y-4.8465
X4.0864Y-1.7217
X4.0864Y-2.5091
X4.0864Y-3.2965
X4.0864Y-4.0839
X4.0864Y-4.8713
X4.0913Y-1.9379
X4.0913Y-2.7253
X4.0913Y-3.5127
X4.0913Y-4.3001
X4.0913Y-5.0875
X4.1199Y-1.6939
X4.1199Y-2.4813
X4.1199Y-3.2687
X4.1199Y-4.0561
X4.1199Y-4.8435
X4.1488Y-2.0906
X4.1488Y-2.878
X4.1488Y-3.6654
X4.1488Y-4.4528
X4.1488Y-5.2402
X4.1654Y-1.7262
X4.1654Y-2.5136
X4.1654Y-3.301
X4.1654Y-4.0884
X4.1654Y-4.8758
X4.1767Y-2.1076
X4.1767Y-2.895
X4.1767Y-3.6824
X4.1767Y-4.4698
X4.1767Y-5.2572
X4.1906Y-2.0838
X4.1906Y-2.8712
X4.1906Y-3.6586
X4.1906Y-4.446
X4.1906Y-5.2334
X4.2045Y-2.1095
X4.2045Y-2.8969
X4.2045Y-3.6843
X4.2045Y-4.4717
X4.2045Y-5.2591
X4.2263Y-1.845
X4.2263Y-2.6324
X4.2263Y-3.4198
X4.2263Y-4.2072
X4.2263Y-4.9946
X4.2323Y-2.0846
X4.2323Y-2.872
X4.2323Y-3.6594
X4.2323Y-4.4469
X4.2323Y-5.2343
X4.254Y-1.845
X4.254Y-2.6324
X4.254Y-3.4198
X4.254Y-4.2072
X4.254Y-4.9946
X4.257Y-2.098
X4.257Y-2.8854
X4.257Y-3.6728
X4.257Y-4.4602
X4.257Y-5.2476
X4.3228Y-2.0657
X4.3228Y-2.8531
X4.3228Y-3.6406
X4.3228Y-4.428
X4.3228Y-5.2154
X4.3323Y-1.9606
X4.3323Y-2.748
X4.3323Y-3.5354
X4.3323Y-4.3228
X4.3323Y-5.1102
X4.3386Y-1.7244
X4.3386Y-2.5118
X4.3386Y-3.2992
X4.3386Y-4.0866
X4.3386Y-4.874
X4.3465Y-1.937
X4.3465Y-2.7244
X4.3465Y-3.5118
X4.3465Y-4.2992
X4.3465Y-5.0866
X4.378Y-2.0669
X4.378Y-2.8543
X4.378Y-3.6417
X4.378Y-4.4291
X4.378Y-5.2165
X4.3781Y-2.0317
X4.3781Y-2.8191
X4.3781Y-3.6065
X4.3781Y-4.3939
X4.3781Y-5.1813
X4.4126Y-1.8024
X4.4126Y-2.5898
X4.4126Y-3.3772
X4.4126Y-4.1646
X4.4126Y-4.952
X4.4199Y-1.8713
X4.4199Y-2.6587
X4.4199Y-3.4461
X4.4199Y-4.2335
X4.4199Y-5.0209
X4.4409Y-2.063
X4.4409Y-2.8504
X4.4409Y-3.6378
X4.4409Y-4.4252
X4.4409Y-5.2126
X4.4469Y-1.8657
X4.4469Y-2.6531
X4.4469Y-3.4405
X4.4469Y-4.2279
X4.4469Y-5.0153
X4.5512Y-2.2343
X4.5512Y-3.0217
X4.5512Y-3.8091
X4.5512Y-4.5965
X4.5512Y-5.3839
X4.628Y-1.9528
X4.628Y-2.7402
X4.628Y-3.5276
X4.628Y-4.315
X4.628Y-5.1024
T2
X1.2559Y-1.9882
X1.2559Y-2.7756
X1.2559Y-3.563
X1.2559Y-4.3504
X1.2559Y-5.1378
X1.2874Y-2.1929
X1.2874Y-2.9803
X1.2874Y-3.7677
X1.2874Y-4.5551
X1.2874Y-5.3425
X1.3268Y-1.7362
X1.3268Y-2.5236
X1.3268Y-3.311
X1.3268Y-4.0984
X1.3268Y-4.8858
X1.3928Y-2.0899
X1.3928Y-2.8773
X1.3928Y-3.6647
X1.3928Y-4.4521
X1.3928Y-5.2395
X1.4363Y-2.1302
X1.4363Y-2.9176
X1.4363Y-3.705
X1.4363Y-4.4924
X1.4363Y-5.2798
X1.5177Y-1.939
X1.5177Y-2.7264
X1.5177Y-3.5138
X1.5177Y-4.3012
X1.5177Y-5.0886
X1.5827Y-1.8555
X1.5827Y-2.6429
X1.5827Y-3.4303
X1.5827Y-4.2177
X1.5827Y-5.0051
X1.6489Y-2.1857
X1.6489Y-2.9731
X1.6489Y-3.7605
X1.6489Y-4.5479
X1.6489Y-5.3353
X1.7264Y-1.8406
X1.7264Y-2.628
X1.7264Y-3.4154
X1.7264Y-4.2028
X1.7264Y-4.9902
X1.9472Y-2.0732
X1.9472Y-2.8606
X1.9472Y-3.648
X1.9472Y-4.4354
X1.9472Y-5.2228
X2.0472Y-2.0748
X2.0472Y-2.8622
X2.0472Y-3.6496
X2.0472Y-4.437
X2.0472Y-5.2244
X2.0991Y-1.8425
X2.0991Y-2.6299
X2.0991Y-3.4173
X2.0991Y-4.2047
X2.0991Y-4.9921
X2.2461Y-1.939
X2.2461Y-2.7264
X2.2461Y-3.5138
X2.2461Y-4.3012
X2.2461Y-5.0886
X2.2717Y-1.8189
X2.2717Y-2.6063
X2.2717Y-3.3937
X2.2717Y-4.1811
X2.2717Y-4.9685
X2.2913Y-1.7311
X2.2913Y-2.5185
X2.2913Y-3.3059
X2.2913Y-4.0933
X2.2913Y-4.8807
X2.3031Y-1.815
X2.3031Y-2.6024
X2.3031Y-3.3898
X2.3031Y-4.1772
X2.3031Y-4.9646
X2.4043Y-1.9638
X2.4043Y-2.7512
X2.4043Y-3.5386
X2.4043Y-4.326
X2.4043Y-5.1134
X2.4232Y-1.7815
X2.4232Y-2.5689
X2.4232Y-3.3563
X2.4232Y-4.1437
X2.4232Y-4.9311
X2.5079Y-2.0354
X2.5079Y-2.8228
X2.5079Y-3.6102
X2.5079Y-4.3976
X2.5079Y-5.185
X2.5551Y-2.0354
X2.5551Y-2.8228
X2.5551Y-3.6102
X2.5551Y-4.3976
X2.5551Y-5.185
X3.2244Y-1.9882
X3.2244Y-2.7756
X3.2244Y-3.563
X3.2244Y-4.3504
X3.2244Y-5.1378
X3.2559Y-2.1929
X3.2559Y-2.9803
X3.2559Y-3.7677
X3.2559Y-4.5551
X3.2559Y-5.3425
X3.2953Y-1.7362
X3.2953Y-2.5236
X3.2953Y-3.311
X3.2953Y-4.0984
X3.2953Y-4.8858
X3.3613Y-2.0899
X3.3613Y-2.8773
X3.3613Y-3.6647
X3.3613Y-4.4521
X3.3613Y-5.2395
X3.4048Y-2.1302
X3.4048Y-2.9176
X3.4048Y-3.705
X3.4048Y-4.4924
X3.4048Y-5.2798
X3.4862Y-1.939
X3.4862Y-2.7264
X3.4862Y-3.5138
X3.4862Y-4.3012
X3.4862Y-5.0886
X3.5512Y-1.8555
X3.5512Y-2.6429
X3.5512Y-3.4303
X3.5512Y-4.2177
X3.5512Y-5.0051
X3.6174Y-2.1857
X3.6174Y-2.9731
X3.6174Y-3.7605
X3.6174Y-4.5479
X3.6174Y-5.3353
X3.6949Y-1.8406
X3.6949Y-2.628
X3.6949Y-3.4154
X3.6949Y-4.2028
X3.6949Y-4.9902
X3.9157Y-2.0732
X3.9157Y-2.8606
X3.9157Y-3.648
X3.9157Y-4.4354
X3.9157Y-5.2228
X4.0157Y-2.0748
X4.0157Y-2.8622
X4.0157Y-3.6496
X4.0157Y-4.437
X4.0157Y-5.2244
X4.0677Y-1.8425
X4.0677Y-2.6299
X4.0677Y-3.4173
X4.0677Y-4.2047
X4.0677Y-4.9921
X4.2146Y-1.939
X4.2146Y-2.7264
X4.2146Y-3.5138
X4.2146Y-4.3012
X4.2146Y-5.0886
X4.2402Y-1.8189
X4.2402Y-2.6063
X4.2402Y-3.3937
X4.2402Y-4.1811
X4.2402Y-4.9685
X4.2598Y-1.7311
X4.2598Y-2.5185
X4.2598Y-3.3059
X4.2598Y-4.0933
X4.2598Y-4.8807
X4.2717Y-1.815
X4.2717Y-2.6024
X4.2717Y-3.3898
X4.2717Y-4.1772
X4.2717Y-4.9646
X4.3728Y-1.9638
X4.3728Y-2.7512
X4.3728Y-3.5386
X4.3728Y-4.326
X4.3728Y-5.1134
X4.3917Y-1.7815
X4.3917Y-2.5689
X4.3917Y-3.3563
X4.3917Y-4.1437
X4.3917Y-4.9311
X4.4764Y-2.0354
X4.4764Y-2.8228
X4.4764Y-3.6102
X4.4764Y-4.3976
X4.4764Y-5.185
X4.5236Y-2.0354
X4.5236Y-2.8228
X4.5236Y-3.6102
X4.5236Y-4.3976
X4.5236Y-5.185
T4
X1.7791Y-2.126
X1.7791Y-2.9134
X1.7791Y-3.7008
X1.7791Y-4.4882
X1.7791Y-5.2756
X1.8291Y-2.126
X1.8291Y-2.9134
X1.8291Y-3.7008
X1.8291Y-4.4882
X1.8291Y-5.2756
X1.8791Y-2.126
X1.8791Y-2.9134
X1.8791Y-3.7008
X1.8791Y-4.4882
X1.8791Y-5.2756
X1.9291Y-2.126
X1.9291Y-2.9134
X1.9291Y-3.7008
X1.9291Y-4.4882
X1.9291Y-5.2756
X2.4701Y-1.7343
X2.4701Y-2.5217
X2.4701Y-3.3091
X2.4701Y-4.0965
X2.4701Y-4.8839
X2.4945Y-1.7992
X2.4945Y-2.5866
X2.4945Y-3.374
X2.4945Y-4.1614
X2.4945Y-4.9488
X2.5201Y-1.7343
X2.5201Y-2.5217
X2.5201Y-3.3091
X2.5201Y-4.0965
X2.5201Y-4.8839
X2.5445Y-1.7992
X2.5445Y-2.5866
X2.5445Y-3.374
X2.5445Y-4.1614
X2.5445Y-4.9488
X2.5701Y-1.7343
X2.5701Y-2.5217
X2.5701Y-3.3091
X2.5701Y-4.0965
X2.5701Y-4.8839
X2.5945Y-1.7992
X2.5945Y-2.5866
X2.5945Y-3.374
X2.5945Y-4.1614
X2.5945Y-4.9488
X2.6201Y-1.7343
X2.6201Y-2.5217
X2.6201Y-3.3091
X2.6201Y-4.0965
X2.6201Y-4.8839
X3.7476Y-2.126
X3.7476Y-2.9134
X3.7476Y-3.7008
X3.7476Y-4.4882
X3.7476Y-5.2756
X3.7976Y-2.126
X3.7976Y-2.9134
X3.7976Y-3.7008
X3.7976Y-4.4882
X3.7976Y-5.2756
X3.8476Y-2.126
X3.8476Y-2.9134
X3.8476Y-3.7008
X3.8476Y-4.4882
X3.8476Y-5.2756
X3.8976Y-2.126
X3.8976Y-2.9134
X3.8976Y-3.7008
X3.8976Y-4.4882
X3.8976Y-5.2756
X4.4386Y-1.7343
X4.4386Y-2.5217
X4.4386Y-3.3091
X4.4386Y-4.0965
X4.4386Y-4.8839
X4.463Y-1.7992
X4.463Y-2.5866
X4.463Y-3.374
X4.463Y-4.1614
X4.463Y-4.9488
X4.4886Y-1.7343
X4.4886Y-2.5217
X4.4886Y-3.3091
X4.4886Y-4.0965
X4.4886Y-4.8839
X4.513Y-1.7992
X4.513Y-2.5866
X4.513Y-3.374
X4.513Y-4.1614
X4.513Y-4.9488
X4.5386Y-1.7343
X4.5386Y-2.5217
X4.5386Y-3.3091
X4.5386Y-4.0965
X4.5386Y-4.8839
X4.563Y-1.7992
X4.563Y-2.5866
X4.563Y-3.374
X4.563Y-4.1614
X4.563Y-4.9488
X4.5886Y-1.7343
X4.5886Y-2.5217
X4.5886Y-3.3091
X4.5886Y-4.0965
X4.5886Y-4.8839
T5
X1.7717Y-2.2047
X1.7717Y-2.9921
X1.7717Y-3.7795
X1.7717Y-4.5669
X1.7717Y-5.3543
X1.8504Y-2.2047
X1.8504Y-2.9921
X1.8504Y-3.7795
X1.8504Y-4.5669
X1.8504Y-5.3543
X1.8976Y-1.7323
X1.8976Y-2.5197
X1.8976Y-3.3071
X1.8976Y-4.0945
X1.8976Y-4.8819
X1.9291Y-2.2047
X1.9291Y-2.9921
X1.9291Y-3.7795
X1.9291Y-4.5669
X1.9291Y-5.3543
X1.9764Y-1.7323
X1.9764Y-2.5197
X1.9764Y-3.3071
X1.9764Y-4.0945
X1.9764Y-4.8819
X2.0551Y-1.7323
X2.0551Y-2.5197
X2.0551Y-3.3071
X2.0551Y-4.0945
X2.0551Y-4.8819
X2.6969Y-1.7323
X2.6969Y-1.811
X2.6969Y-1.8898
X2.6969Y-2.5197
X2.6969Y-2.5984
X2.6969Y-2.6772
X2.6969Y-3.3071
X2.6969Y-3.3858
X2.6969Y-3.4646
X2.6969Y-4.0945
X2.6969Y-4.1732
X2.6969Y-4.252
X2.6969Y-4.8819
X2.6969Y-4.9606
X2.6969Y-5.0394
X2.7953Y-1.7323
X2.7953Y-1.811
X2.7953Y-1.8898
X2.7953Y-2.5197
X2.7953Y-2.5984
X2.7953Y-2.6772
X2.7953Y-3.3071
X2.7953Y-3.3858
X2.7953Y-3.4646
X2.7953Y-4.0945
X2.7953Y-4.1732
X2.7953Y-4.252
X2.7953Y-4.8819
X2.7953Y-4.9606
X2.7953Y-5.0394
X3.7402Y-2.2047
X3.7402Y-2.9921
X3.7402Y-3.7795
X3.7402Y-4.5669
X3.7402Y-5.3543
X3.8189Y-2.2047
X3.8189Y-2.9921
X3.8189Y-3.7795
X3.8189Y-4.5669
X3.8189Y-5.3543
X3.8661Y-1.7323
X3.8661Y-2.5197
X3.8661Y-3.3071
X3.8661Y-4.0945
X3.8661Y-4.8819
X3.8976Y-2.2047
X3.8976Y-2.9921
X3.8976Y-3.7795
X3.8976Y-4.5669
X3.8976Y-5.3543
X3.9449Y-1.7323
X3.9449Y-2.5197
X3.9449Y-3.3071
X3.9449Y-4.0945
X3.9449Y-4.8819
X4.0236Y-1.7323
X4.0236Y-2.5197
X4.0236Y-3.3071
X4.0236Y-4.0945
X4.0236Y-4.8819
X4.6654Y-1.7323
X4.6654Y-1.811
X4.6654Y-1.8898
X4.6654Y-2.5197
X4.6654Y-2.5984
X4.6654Y-2.6772
X4.6654Y-3.3071
X4.6654Y-3.3858
X4.6654Y-3.4646
X4.6654Y-4.0945
X4.6654Y-4.1732
X4.6654Y-4.252
X4.6654Y-4.8819
X4.6654Y-4.9606
X4.6654Y-5.0394
X4.7638Y-1.7323
X4.7638Y-1.811
X4.7638Y-1.8898
X4.7638Y-2.5197
X4.7638Y-2.5984
X4.7638Y-2.6772
X4.7638Y-3.3071
X4.7638Y-3.3858
X4.7638Y-3.4646
X4.7638Y-4.0945
X4.7638Y-4.1732
X4.7638Y-4.252
X4.7638Y-4.8819
X4.7638Y-4.9606
X4.7638Y-5.0394
T6
X1.1535Y-1.7441
X1.1535Y-1.8441
X1.1535Y-2.5315
X1.1535Y-2.6315
X1.1535Y-3.3189
X1.1535Y-3.4189
X1.1535Y-4.1063
X1.1535Y-4.2063
X1.1535Y-4.8937
X1.1535Y-4.9937
X1.6969Y-1.7421
X1.6969Y-2.5295
X1.6969Y-3.3169
X1.6969Y-4.1043
X1.6969Y-4.8917
X1.7969Y-1.7421
X1.7969Y-2.5295
X1.7969Y-3.3169
X1.7969Y-4.1043
X1.7969Y-4.8917
X2.0295Y-2.1929
X2.0295Y-2.9803
X2.0295Y-3.7677
X2.0295Y-4.5551
X2.0295Y-5.3425
X2.1295Y-2.1929
X2.1295Y-2.9803
X2.1295Y-3.7677
X2.1295Y-4.5551
X2.1295Y-5.3425
X2.2295Y-2.1929
X2.2295Y-2.9803
X2.2295Y-3.7677
X2.2295Y-4.5551
X2.2295Y-5.3425
X2.3295Y-2.1929
X2.3295Y-2.9803
X2.3295Y-3.7677
X2.3295Y-4.5551
X2.3295Y-5.3425
X2.6929Y-2.0551
X2.6929Y-2.1929
X2.6929Y-2.8425
X2.6929Y-2.9803
X2.6929Y-3.6299
X2.6929Y-3.7677
X2.6929Y-4.4173
X2.6929Y-4.5551
X2.6929Y-5.2047
X2.6929Y-5.3425
X2.7929Y-2.0551
X2.7929Y-2.1929
X2.7929Y-2.8425
X2.7929Y-2.9803
X2.7929Y-3.6299
X2.7929Y-3.7677
X2.7929Y-4.4173
X2.7929Y-4.5551
X2.7929Y-5.2047
X2.7929Y-5.3425
X3.122Y-1.7441
X3.122Y-1.8441
X3.122Y-2.5315
X3.122Y-2.6315
X3.122Y-3.3189
X3.122Y-3.4189
X3.122Y-4.1063
X3.122Y-4.2063
X3.122Y-4.8937
X3.122Y-4.9937
X3.6654Y-1.7421
X3.6654Y-2.5295
X3.6654Y-3.3169
X3.6654Y-4.1043
X3.6654Y-4.8917
X3.7654Y-1.7421
X3.7654Y-2.5295
X3.7654Y-3.3169
X3.7654Y-4.1043
X3.7654Y-4.8917
X3.998Y-2.1929
X3.998Y-2.9803
X3.998Y-3.7677
X3.998Y-4.5551
X3.998Y-5.3425
X4.098Y-2.1929
X4.098Y-2.9803
X4.098Y-3.7677
X4.098Y-4.5551
X4.098Y-5.3425
X4.198Y-2.1929
X4.198Y-2.9803
X4.198Y-3.7677
X4.198Y-4.5551
X4.198Y-5.3425
X4.298Y-2.1929
X4.298Y-2.9803
X4.298Y-3.7677
X4.298Y-4.5551
X4.298Y-5.3425
X4.6614Y-2.0551
X4.6614Y-2.1929
X4.6614Y-2.8425
X4.6614Y-2.9803
X4.6614Y-3.6299
X4.6614Y-3.7677
X4.6614Y-4.4173
X4.6614Y-4.5551
X4.6614Y-5.2047
X4.6614Y-5.3425
X4.7614Y-2.0551
X4.7614Y-2.1929
X4.7614Y-2.8425
X4.7614Y-2.9803
X4.7614Y-3.6299
X4.7614Y-3.7677
X4.7614Y-4.4173
X4.7614Y-4.5551
X4.7614Y-5.2047
X4.7614Y-5.3425
T7
X1.3169Y-1.7776
X1.3169Y-2.565
X1.3169Y-3.3524
X1.3169Y-4.1398
X1.3169Y-4.9272
X1.5335Y-1.7776
X1.5335Y-2.565
X1.5335Y-3.3524
X1.5335Y-4.1398
X1.5335Y-4.9272
X3.2854Y-1.7776
X3.2854Y-2.565
X3.2854Y-3.3524
X3.2854Y-4.1398
X3.2854Y-4.9272
X3.502Y-1.7776
X3.502Y-2.565
X3.502Y-3.3524
X3.502Y-4.1398
X3.502Y-4.9272
T3
G00X1.127Y-2.063
M15
G01X1.127Y-2.1063
M16
G05
G00X1.127Y-2.8504
M15
G01X1.127Y-2.8937
M16
G05
G00X1.127Y-3.6378
M15
G01X1.127Y-3.6811
M16
G05
G00X1.127Y-4.4252
M15
G01X1.127Y-4.4685
M16
G05
G00X1.127Y-5.2126
M15
G01X1.127Y-5.2559
M16
G05
G00X1.2116Y-1.9606
M15
G01X1.2116Y-1.9882
M16
G05
G00X1.2116Y-2.1811
M15
G01X1.2116Y-2.2087
M16
G05
G00X1.2116Y-2.748
M15
G01X1.2116Y-2.7756
M16
G05
G00X1.2116Y-2.9685
M15
G01X1.2116Y-2.9961
M16
G05
G00X1.2116Y-3.5354
M15
G01X1.2116Y-3.563
M16
G05
G00X1.2116Y-3.7559
M15
G01X1.2116Y-3.7835
M16
G05
G00X1.2116Y-4.3228
M15
G01X1.2116Y-4.3504
M16
G05
G00X1.2116Y-4.5433
M15
G01X1.2116Y-4.5709
M16
G05
G00X1.2116Y-5.1102
M15
G01X1.2116Y-5.1378
M16
G05
G00X1.2116Y-5.3307
M15
G01X1.2116Y-5.3583
M16
G05
G00X3.0955Y-2.063
M15
G01X3.0955Y-2.1063
M16
G05
G00X3.0955Y-2.8504
M15
G01X3.0955Y-2.8937
M16
G05
G00X3.0955Y-3.6378
M15
G01X3.0955Y-3.6811
M16
G05
G00X3.0955Y-4.4252
M15
G01X3.0955Y-4.4685
M16
G05
G00X3.0955Y-5.2126
M15
G01X3.0955Y-5.2559
M16
G05
G00X3.1801Y-1.9606
M15
G01X3.1801Y-1.9882
M16
G05
G00X3.1801Y-2.1811
M15
G01X3.1801Y-2.2087
M16
G05
G00X3.1801Y-2.748
M15
G01X3.1801Y-2.7756
M16
G05
G00X3.1801Y-2.9685
M15
G01X3.1801Y-2.9961
M16
G05
G00X3.1801Y-3.5354
M15
G01X3.1801Y-3.563
M16
G05
G00X3.1801Y-3.7559
M15
G01X3.1801Y-3.7835
M16
G05
G00X3.1801Y-4.3228
M15
G01X3.1801Y-4.3504
M16
G05
G00X3.1801Y-4.5433
M15
G01X3.1801Y-4.5709
M16
G05
G00X3.1801Y-5.1102
M15
G01X3.1801Y-5.1378
M16
G05
G00X3.1801Y-5.3307
M15
G01X3.1801Y-5.3583
M16
G05
T0
M30
