G04 #@! TF.GenerationSoftware,KiCad,Pcbnew,(5.1.9)-1*
G04 #@! TF.CreationDate,2021-05-04T20:43:57+10:00*
G04 #@! TF.ProjectId,microBoSL,6d696372-6f42-46f5-934c-2e6b69636164,0.2.0*
G04 #@! TF.SameCoordinates,Original*
G04 #@! TF.FileFunction,Soldermask,Bot*
G04 #@! TF.FilePolarity,Negative*
%FSLAX46Y46*%
G04 Gerber Fmt 4.6, Leading zero omitted, Abs format (unit mm)*
G04 Created by KiCad (PCBNEW (5.1.9)-1) date 2021-05-04 20:43:57*
%MOMM*%
%LPD*%
G01*
G04 APERTURE LIST*
%ADD10C,2.000000*%
%ADD11O,1.400000X1.400000*%
%ADD12C,1.250000*%
%ADD13O,2.100000X2.100000*%
%ADD14O,1.500000X2.600000*%
%ADD15O,1.500000X2.200000*%
G04 APERTURE END LIST*
D10*
X138800000Y-106000000D03*
X101300000Y-107500000D03*
X114300000Y-112200000D03*
D11*
X117390000Y-103600000D03*
X118660000Y-103600000D03*
G36*
G01*
X119430000Y-102900000D02*
X120430000Y-102900000D01*
G75*
G02*
X120630000Y-103100000I0J-200000D01*
G01*
X120630000Y-104100000D01*
G75*
G02*
X120430000Y-104300000I-200000J0D01*
G01*
X119430000Y-104300000D01*
G75*
G02*
X119230000Y-104100000I0J200000D01*
G01*
X119230000Y-103100000D01*
G75*
G02*
X119430000Y-102900000I200000J0D01*
G01*
G37*
X121210000Y-113200000D03*
X119940000Y-113200000D03*
X118670000Y-113200000D03*
G36*
G01*
X117900000Y-113900000D02*
X116900000Y-113900000D01*
G75*
G02*
X116700000Y-113700000I0J200000D01*
G01*
X116700000Y-112700000D01*
G75*
G02*
X116900000Y-112500000I200000J0D01*
G01*
X117900000Y-112500000D01*
G75*
G02*
X118100000Y-112700000I0J-200000D01*
G01*
X118100000Y-113700000D01*
G75*
G02*
X117900000Y-113900000I-200000J0D01*
G01*
G37*
X121130000Y-103600000D03*
X122400000Y-103600000D03*
X123670000Y-103600000D03*
G36*
G01*
X124440000Y-102900000D02*
X125440000Y-102900000D01*
G75*
G02*
X125640000Y-103100000I0J-200000D01*
G01*
X125640000Y-104100000D01*
G75*
G02*
X125440000Y-104300000I-200000J0D01*
G01*
X124440000Y-104300000D01*
G75*
G02*
X124240000Y-104100000I0J200000D01*
G01*
X124240000Y-103100000D01*
G75*
G02*
X124440000Y-102900000I200000J0D01*
G01*
G37*
G36*
G01*
X128890000Y-108600000D02*
X128890000Y-111000000D01*
G75*
G02*
X128690000Y-111200000I-200000J0D01*
G01*
X126690000Y-111200000D01*
G75*
G02*
X126490000Y-111000000I0J200000D01*
G01*
X126490000Y-108600000D01*
G75*
G02*
X126690000Y-108400000I200000J0D01*
G01*
X128690000Y-108400000D01*
G75*
G02*
X128890000Y-108600000I0J-200000D01*
G01*
G37*
G36*
G01*
X132590000Y-108600000D02*
X132590000Y-111000000D01*
G75*
G02*
X132390000Y-111200000I-200000J0D01*
G01*
X130390000Y-111200000D01*
G75*
G02*
X130190000Y-111000000I0J200000D01*
G01*
X130190000Y-108600000D01*
G75*
G02*
X130390000Y-108400000I200000J0D01*
G01*
X132390000Y-108400000D01*
G75*
G02*
X132590000Y-108600000I0J-200000D01*
G01*
G37*
G36*
G01*
X131100000Y-107155000D02*
X131100000Y-106655000D01*
G75*
G02*
X131350000Y-106405000I250000J0D01*
G01*
X133200000Y-106405000D01*
G75*
G02*
X133450000Y-106655000I0J-250000D01*
G01*
X133450000Y-107155000D01*
G75*
G02*
X133200000Y-107405000I-250000J0D01*
G01*
X131350000Y-107405000D01*
G75*
G02*
X131100000Y-107155000I0J250000D01*
G01*
G37*
G36*
G01*
X131100000Y-105885000D02*
X131100000Y-105385000D01*
G75*
G02*
X131350000Y-105135000I250000J0D01*
G01*
X133200000Y-105135000D01*
G75*
G02*
X133450000Y-105385000I0J-250000D01*
G01*
X133450000Y-105885000D01*
G75*
G02*
X133200000Y-106135000I-250000J0D01*
G01*
X131350000Y-106135000D01*
G75*
G02*
X131100000Y-105885000I0J250000D01*
G01*
G37*
G36*
G01*
X131100000Y-104615000D02*
X131100000Y-104115000D01*
G75*
G02*
X131350000Y-103865000I250000J0D01*
G01*
X133200000Y-103865000D01*
G75*
G02*
X133450000Y-104115000I0J-250000D01*
G01*
X133450000Y-104615000D01*
G75*
G02*
X133200000Y-104865000I-250000J0D01*
G01*
X131350000Y-104865000D01*
G75*
G02*
X131100000Y-104615000I0J250000D01*
G01*
G37*
G36*
G01*
X131100000Y-103345000D02*
X131100000Y-102845000D01*
G75*
G02*
X131350000Y-102595000I250000J0D01*
G01*
X133200000Y-102595000D01*
G75*
G02*
X133450000Y-102845000I0J-250000D01*
G01*
X133450000Y-103345000D01*
G75*
G02*
X133200000Y-103595000I-250000J0D01*
G01*
X131350000Y-103595000D01*
G75*
G02*
X131100000Y-103345000I0J250000D01*
G01*
G37*
G36*
G01*
X126150000Y-103345000D02*
X126150000Y-102845000D01*
G75*
G02*
X126400000Y-102595000I250000J0D01*
G01*
X128250000Y-102595000D01*
G75*
G02*
X128500000Y-102845000I0J-250000D01*
G01*
X128500000Y-103345000D01*
G75*
G02*
X128250000Y-103595000I-250000J0D01*
G01*
X126400000Y-103595000D01*
G75*
G02*
X126150000Y-103345000I0J250000D01*
G01*
G37*
G36*
G01*
X126150000Y-104615000D02*
X126150000Y-104115000D01*
G75*
G02*
X126400000Y-103865000I250000J0D01*
G01*
X128250000Y-103865000D01*
G75*
G02*
X128500000Y-104115000I0J-250000D01*
G01*
X128500000Y-104615000D01*
G75*
G02*
X128250000Y-104865000I-250000J0D01*
G01*
X126400000Y-104865000D01*
G75*
G02*
X126150000Y-104615000I0J250000D01*
G01*
G37*
G36*
G01*
X126150000Y-105885000D02*
X126150000Y-105385000D01*
G75*
G02*
X126400000Y-105135000I250000J0D01*
G01*
X128250000Y-105135000D01*
G75*
G02*
X128500000Y-105385000I0J-250000D01*
G01*
X128500000Y-105885000D01*
G75*
G02*
X128250000Y-106135000I-250000J0D01*
G01*
X126400000Y-106135000D01*
G75*
G02*
X126150000Y-105885000I0J250000D01*
G01*
G37*
G36*
G01*
X126150000Y-107155000D02*
X126150000Y-106655000D01*
G75*
G02*
X126400000Y-106405000I250000J0D01*
G01*
X128250000Y-106405000D01*
G75*
G02*
X128500000Y-106655000I0J-250000D01*
G01*
X128500000Y-107155000D01*
G75*
G02*
X128250000Y-107405000I-250000J0D01*
G01*
X126400000Y-107405000D01*
G75*
G02*
X126150000Y-107155000I0J250000D01*
G01*
G37*
G36*
G01*
X112275000Y-107472000D02*
X111625000Y-107472000D01*
G75*
G02*
X111425000Y-107272000I0J200000D01*
G01*
X111425000Y-106212000D01*
G75*
G02*
X111625000Y-106012000I200000J0D01*
G01*
X112275000Y-106012000D01*
G75*
G02*
X112475000Y-106212000I0J-200000D01*
G01*
X112475000Y-107272000D01*
G75*
G02*
X112275000Y-107472000I-200000J0D01*
G01*
G37*
G36*
G01*
X110375000Y-107472000D02*
X109725000Y-107472000D01*
G75*
G02*
X109525000Y-107272000I0J200000D01*
G01*
X109525000Y-106212000D01*
G75*
G02*
X109725000Y-106012000I200000J0D01*
G01*
X110375000Y-106012000D01*
G75*
G02*
X110575000Y-106212000I0J-200000D01*
G01*
X110575000Y-107272000D01*
G75*
G02*
X110375000Y-107472000I-200000J0D01*
G01*
G37*
G36*
G01*
X110375000Y-109672000D02*
X109725000Y-109672000D01*
G75*
G02*
X109525000Y-109472000I0J200000D01*
G01*
X109525000Y-108412000D01*
G75*
G02*
X109725000Y-108212000I200000J0D01*
G01*
X110375000Y-108212000D01*
G75*
G02*
X110575000Y-108412000I0J-200000D01*
G01*
X110575000Y-109472000D01*
G75*
G02*
X110375000Y-109672000I-200000J0D01*
G01*
G37*
G36*
G01*
X111325000Y-109672000D02*
X110675000Y-109672000D01*
G75*
G02*
X110475000Y-109472000I0J200000D01*
G01*
X110475000Y-108412000D01*
G75*
G02*
X110675000Y-108212000I200000J0D01*
G01*
X111325000Y-108212000D01*
G75*
G02*
X111525000Y-108412000I0J-200000D01*
G01*
X111525000Y-109472000D01*
G75*
G02*
X111325000Y-109672000I-200000J0D01*
G01*
G37*
G36*
G01*
X112275000Y-109672000D02*
X111625000Y-109672000D01*
G75*
G02*
X111425000Y-109472000I0J200000D01*
G01*
X111425000Y-108412000D01*
G75*
G02*
X111625000Y-108212000I200000J0D01*
G01*
X112275000Y-108212000D01*
G75*
G02*
X112475000Y-108412000I0J-200000D01*
G01*
X112475000Y-109472000D01*
G75*
G02*
X112275000Y-109672000I-200000J0D01*
G01*
G37*
G36*
G01*
X108075000Y-110830000D02*
X107425000Y-110830000D01*
G75*
G02*
X107225000Y-110630000I0J200000D01*
G01*
X107225000Y-109570000D01*
G75*
G02*
X107425000Y-109370000I200000J0D01*
G01*
X108075000Y-109370000D01*
G75*
G02*
X108275000Y-109570000I0J-200000D01*
G01*
X108275000Y-110630000D01*
G75*
G02*
X108075000Y-110830000I-200000J0D01*
G01*
G37*
G36*
G01*
X106175000Y-110830000D02*
X105525000Y-110830000D01*
G75*
G02*
X105325000Y-110630000I0J200000D01*
G01*
X105325000Y-109570000D01*
G75*
G02*
X105525000Y-109370000I200000J0D01*
G01*
X106175000Y-109370000D01*
G75*
G02*
X106375000Y-109570000I0J-200000D01*
G01*
X106375000Y-110630000D01*
G75*
G02*
X106175000Y-110830000I-200000J0D01*
G01*
G37*
G36*
G01*
X106175000Y-113030000D02*
X105525000Y-113030000D01*
G75*
G02*
X105325000Y-112830000I0J200000D01*
G01*
X105325000Y-111770000D01*
G75*
G02*
X105525000Y-111570000I200000J0D01*
G01*
X106175000Y-111570000D01*
G75*
G02*
X106375000Y-111770000I0J-200000D01*
G01*
X106375000Y-112830000D01*
G75*
G02*
X106175000Y-113030000I-200000J0D01*
G01*
G37*
G36*
G01*
X107125000Y-113030000D02*
X106475000Y-113030000D01*
G75*
G02*
X106275000Y-112830000I0J200000D01*
G01*
X106275000Y-111770000D01*
G75*
G02*
X106475000Y-111570000I200000J0D01*
G01*
X107125000Y-111570000D01*
G75*
G02*
X107325000Y-111770000I0J-200000D01*
G01*
X107325000Y-112830000D01*
G75*
G02*
X107125000Y-113030000I-200000J0D01*
G01*
G37*
G36*
G01*
X108075000Y-113030000D02*
X107425000Y-113030000D01*
G75*
G02*
X107225000Y-112830000I0J200000D01*
G01*
X107225000Y-111770000D01*
G75*
G02*
X107425000Y-111570000I200000J0D01*
G01*
X108075000Y-111570000D01*
G75*
G02*
X108275000Y-111770000I0J-200000D01*
G01*
X108275000Y-112830000D01*
G75*
G02*
X108075000Y-113030000I-200000J0D01*
G01*
G37*
D12*
X114150000Y-104600000D03*
X108650000Y-104600000D03*
G36*
G01*
X110470000Y-103600000D02*
X109930000Y-103600000D01*
G75*
G02*
X109690000Y-103360000I0J240000D01*
G01*
X109690000Y-102880000D01*
G75*
G02*
X109930000Y-102640000I240000J0D01*
G01*
X110470000Y-102640000D01*
G75*
G02*
X110710000Y-102880000I0J-240000D01*
G01*
X110710000Y-103360000D01*
G75*
G02*
X110470000Y-103600000I-240000J0D01*
G01*
G37*
G36*
G01*
X110470000Y-104560000D02*
X109930000Y-104560000D01*
G75*
G02*
X109690000Y-104320000I0J240000D01*
G01*
X109690000Y-103840000D01*
G75*
G02*
X109930000Y-103600000I240000J0D01*
G01*
X110470000Y-103600000D01*
G75*
G02*
X110710000Y-103840000I0J-240000D01*
G01*
X110710000Y-104320000D01*
G75*
G02*
X110470000Y-104560000I-240000J0D01*
G01*
G37*
G36*
G01*
X112330000Y-103600000D02*
X112870000Y-103600000D01*
G75*
G02*
X113110000Y-103840000I0J-240000D01*
G01*
X113110000Y-104320000D01*
G75*
G02*
X112870000Y-104560000I-240000J0D01*
G01*
X112330000Y-104560000D01*
G75*
G02*
X112090000Y-104320000I0J240000D01*
G01*
X112090000Y-103840000D01*
G75*
G02*
X112330000Y-103600000I240000J0D01*
G01*
G37*
G36*
G01*
X112330000Y-102640000D02*
X112870000Y-102640000D01*
G75*
G02*
X113110000Y-102880000I0J-240000D01*
G01*
X113110000Y-103360000D01*
G75*
G02*
X112870000Y-103600000I-240000J0D01*
G01*
X112330000Y-103600000D01*
G75*
G02*
X112090000Y-103360000I0J240000D01*
G01*
X112090000Y-102880000D01*
G75*
G02*
X112330000Y-102640000I240000J0D01*
G01*
G37*
G36*
G01*
X107485000Y-103560000D02*
X106915000Y-103560000D01*
G75*
G02*
X106680000Y-103325000I0J235000D01*
G01*
X106680000Y-102855000D01*
G75*
G02*
X106915000Y-102620000I235000J0D01*
G01*
X107485000Y-102620000D01*
G75*
G02*
X107720000Y-102855000I0J-235000D01*
G01*
X107720000Y-103325000D01*
G75*
G02*
X107485000Y-103560000I-235000J0D01*
G01*
G37*
G36*
G01*
X107485000Y-104580000D02*
X106915000Y-104580000D01*
G75*
G02*
X106680000Y-104345000I0J235000D01*
G01*
X106680000Y-103875000D01*
G75*
G02*
X106915000Y-103640000I235000J0D01*
G01*
X107485000Y-103640000D01*
G75*
G02*
X107720000Y-103875000I0J-235000D01*
G01*
X107720000Y-104345000D01*
G75*
G02*
X107485000Y-104580000I-235000J0D01*
G01*
G37*
G36*
G01*
X105250000Y-106775000D02*
X105950000Y-106775000D01*
G75*
G02*
X106150000Y-106975000I0J-200000D01*
G01*
X106150000Y-107425000D01*
G75*
G02*
X105950000Y-107625000I-200000J0D01*
G01*
X105250000Y-107625000D01*
G75*
G02*
X105050000Y-107425000I0J200000D01*
G01*
X105050000Y-106975000D01*
G75*
G02*
X105250000Y-106775000I200000J0D01*
G01*
G37*
G36*
G01*
X107250000Y-107425000D02*
X107950000Y-107425000D01*
G75*
G02*
X108150000Y-107625000I0J-200000D01*
G01*
X108150000Y-108075000D01*
G75*
G02*
X107950000Y-108275000I-200000J0D01*
G01*
X107250000Y-108275000D01*
G75*
G02*
X107050000Y-108075000I0J200000D01*
G01*
X107050000Y-107625000D01*
G75*
G02*
X107250000Y-107425000I200000J0D01*
G01*
G37*
G36*
G01*
X107250000Y-106125000D02*
X107950000Y-106125000D01*
G75*
G02*
X108150000Y-106325000I0J-200000D01*
G01*
X108150000Y-106775000D01*
G75*
G02*
X107950000Y-106975000I-200000J0D01*
G01*
X107250000Y-106975000D01*
G75*
G02*
X107050000Y-106775000I0J200000D01*
G01*
X107050000Y-106325000D01*
G75*
G02*
X107250000Y-106125000I200000J0D01*
G01*
G37*
G36*
G01*
X111670000Y-103600000D02*
X111130000Y-103600000D01*
G75*
G02*
X110890000Y-103360000I0J240000D01*
G01*
X110890000Y-102880000D01*
G75*
G02*
X111130000Y-102640000I240000J0D01*
G01*
X111670000Y-102640000D01*
G75*
G02*
X111910000Y-102880000I0J-240000D01*
G01*
X111910000Y-103360000D01*
G75*
G02*
X111670000Y-103600000I-240000J0D01*
G01*
G37*
G36*
G01*
X111670000Y-104560000D02*
X111130000Y-104560000D01*
G75*
G02*
X110890000Y-104320000I0J240000D01*
G01*
X110890000Y-103840000D01*
G75*
G02*
X111130000Y-103600000I240000J0D01*
G01*
X111670000Y-103600000D01*
G75*
G02*
X111910000Y-103840000I0J-240000D01*
G01*
X111910000Y-104320000D01*
G75*
G02*
X111670000Y-104560000I-240000J0D01*
G01*
G37*
G36*
G01*
X110750000Y-111625000D02*
X110750000Y-112775000D01*
G75*
G02*
X110400000Y-113125000I-350000J0D01*
G01*
X109700000Y-113125000D01*
G75*
G02*
X109350000Y-112775000I0J350000D01*
G01*
X109350000Y-111625000D01*
G75*
G02*
X109700000Y-111275000I350000J0D01*
G01*
X110400000Y-111275000D01*
G75*
G02*
X110750000Y-111625000I0J-350000D01*
G01*
G37*
G36*
G01*
X112650000Y-111625000D02*
X112650000Y-112775000D01*
G75*
G02*
X112300000Y-113125000I-350000J0D01*
G01*
X111600000Y-113125000D01*
G75*
G02*
X111250000Y-112775000I0J350000D01*
G01*
X111250000Y-111625000D01*
G75*
G02*
X111600000Y-111275000I350000J0D01*
G01*
X112300000Y-111275000D01*
G75*
G02*
X112650000Y-111625000I0J-350000D01*
G01*
G37*
G36*
G01*
X115872500Y-103725000D02*
X115327500Y-103725000D01*
G75*
G02*
X115080000Y-103477500I0J247500D01*
G01*
X115080000Y-102982500D01*
G75*
G02*
X115327500Y-102735000I247500J0D01*
G01*
X115872500Y-102735000D01*
G75*
G02*
X116120000Y-102982500I0J-247500D01*
G01*
X116120000Y-103477500D01*
G75*
G02*
X115872500Y-103725000I-247500J0D01*
G01*
G37*
G36*
G01*
X115872500Y-104695000D02*
X115327500Y-104695000D01*
G75*
G02*
X115080000Y-104447500I0J247500D01*
G01*
X115080000Y-103952500D01*
G75*
G02*
X115327500Y-103705000I247500J0D01*
G01*
X115872500Y-103705000D01*
G75*
G02*
X116120000Y-103952500I0J-247500D01*
G01*
X116120000Y-104447500D01*
G75*
G02*
X115872500Y-104695000I-247500J0D01*
G01*
G37*
G36*
G01*
X125748500Y-109738000D02*
X125203500Y-109738000D01*
G75*
G02*
X124956000Y-109490500I0J247500D01*
G01*
X124956000Y-108995500D01*
G75*
G02*
X125203500Y-108748000I247500J0D01*
G01*
X125748500Y-108748000D01*
G75*
G02*
X125996000Y-108995500I0J-247500D01*
G01*
X125996000Y-109490500D01*
G75*
G02*
X125748500Y-109738000I-247500J0D01*
G01*
G37*
G36*
G01*
X125748500Y-110708000D02*
X125203500Y-110708000D01*
G75*
G02*
X124956000Y-110460500I0J247500D01*
G01*
X124956000Y-109965500D01*
G75*
G02*
X125203500Y-109718000I247500J0D01*
G01*
X125748500Y-109718000D01*
G75*
G02*
X125996000Y-109965500I0J-247500D01*
G01*
X125996000Y-110460500D01*
G75*
G02*
X125748500Y-110708000I-247500J0D01*
G01*
G37*
G36*
G01*
X133327500Y-109718000D02*
X133872500Y-109718000D01*
G75*
G02*
X134120000Y-109965500I0J-247500D01*
G01*
X134120000Y-110460500D01*
G75*
G02*
X133872500Y-110708000I-247500J0D01*
G01*
X133327500Y-110708000D01*
G75*
G02*
X133080000Y-110460500I0J247500D01*
G01*
X133080000Y-109965500D01*
G75*
G02*
X133327500Y-109718000I247500J0D01*
G01*
G37*
G36*
G01*
X133327500Y-108748000D02*
X133872500Y-108748000D01*
G75*
G02*
X134120000Y-108995500I0J-247500D01*
G01*
X134120000Y-109490500D01*
G75*
G02*
X133872500Y-109738000I-247500J0D01*
G01*
X133327500Y-109738000D01*
G75*
G02*
X133080000Y-109490500I0J247500D01*
G01*
X133080000Y-108995500D01*
G75*
G02*
X133327500Y-108748000I247500J0D01*
G01*
G37*
D13*
X138140000Y-113080000D03*
X135600000Y-113080000D03*
X138140000Y-110540000D03*
X135600000Y-110540000D03*
X138140000Y-108000000D03*
G36*
G01*
X134550000Y-108850000D02*
X134550000Y-107150000D01*
G75*
G02*
X134750000Y-106950000I200000J0D01*
G01*
X136450000Y-106950000D01*
G75*
G02*
X136650000Y-107150000I0J-200000D01*
G01*
X136650000Y-108850000D01*
G75*
G02*
X136450000Y-109050000I-200000J0D01*
G01*
X134750000Y-109050000D01*
G75*
G02*
X134550000Y-108850000I0J200000D01*
G01*
G37*
G36*
G01*
X117775000Y-106425000D02*
X117775000Y-106875000D01*
G75*
G02*
X117575000Y-107075000I-200000J0D01*
G01*
X116125000Y-107075000D01*
G75*
G02*
X115925000Y-106875000I0J200000D01*
G01*
X115925000Y-106425000D01*
G75*
G02*
X116125000Y-106225000I200000J0D01*
G01*
X117575000Y-106225000D01*
G75*
G02*
X117775000Y-106425000I0J-200000D01*
G01*
G37*
G36*
G01*
X117775000Y-107075000D02*
X117775000Y-107525000D01*
G75*
G02*
X117575000Y-107725000I-200000J0D01*
G01*
X116125000Y-107725000D01*
G75*
G02*
X115925000Y-107525000I0J200000D01*
G01*
X115925000Y-107075000D01*
G75*
G02*
X116125000Y-106875000I200000J0D01*
G01*
X117575000Y-106875000D01*
G75*
G02*
X117775000Y-107075000I0J-200000D01*
G01*
G37*
G36*
G01*
X117775000Y-107725000D02*
X117775000Y-108175000D01*
G75*
G02*
X117575000Y-108375000I-200000J0D01*
G01*
X116125000Y-108375000D01*
G75*
G02*
X115925000Y-108175000I0J200000D01*
G01*
X115925000Y-107725000D01*
G75*
G02*
X116125000Y-107525000I200000J0D01*
G01*
X117575000Y-107525000D01*
G75*
G02*
X117775000Y-107725000I0J-200000D01*
G01*
G37*
G36*
G01*
X117775000Y-108375000D02*
X117775000Y-108825000D01*
G75*
G02*
X117575000Y-109025000I-200000J0D01*
G01*
X116125000Y-109025000D01*
G75*
G02*
X115925000Y-108825000I0J200000D01*
G01*
X115925000Y-108375000D01*
G75*
G02*
X116125000Y-108175000I200000J0D01*
G01*
X117575000Y-108175000D01*
G75*
G02*
X117775000Y-108375000I0J-200000D01*
G01*
G37*
G36*
G01*
X117775000Y-109025000D02*
X117775000Y-109475000D01*
G75*
G02*
X117575000Y-109675000I-200000J0D01*
G01*
X116125000Y-109675000D01*
G75*
G02*
X115925000Y-109475000I0J200000D01*
G01*
X115925000Y-109025000D01*
G75*
G02*
X116125000Y-108825000I200000J0D01*
G01*
X117575000Y-108825000D01*
G75*
G02*
X117775000Y-109025000I0J-200000D01*
G01*
G37*
G36*
G01*
X117775000Y-109675000D02*
X117775000Y-110125000D01*
G75*
G02*
X117575000Y-110325000I-200000J0D01*
G01*
X116125000Y-110325000D01*
G75*
G02*
X115925000Y-110125000I0J200000D01*
G01*
X115925000Y-109675000D01*
G75*
G02*
X116125000Y-109475000I200000J0D01*
G01*
X117575000Y-109475000D01*
G75*
G02*
X117775000Y-109675000I0J-200000D01*
G01*
G37*
G36*
G01*
X117775000Y-110325000D02*
X117775000Y-110775000D01*
G75*
G02*
X117575000Y-110975000I-200000J0D01*
G01*
X116125000Y-110975000D01*
G75*
G02*
X115925000Y-110775000I0J200000D01*
G01*
X115925000Y-110325000D01*
G75*
G02*
X116125000Y-110125000I200000J0D01*
G01*
X117575000Y-110125000D01*
G75*
G02*
X117775000Y-110325000I0J-200000D01*
G01*
G37*
G36*
G01*
X123675000Y-110325000D02*
X123675000Y-110775000D01*
G75*
G02*
X123475000Y-110975000I-200000J0D01*
G01*
X122025000Y-110975000D01*
G75*
G02*
X121825000Y-110775000I0J200000D01*
G01*
X121825000Y-110325000D01*
G75*
G02*
X122025000Y-110125000I200000J0D01*
G01*
X123475000Y-110125000D01*
G75*
G02*
X123675000Y-110325000I0J-200000D01*
G01*
G37*
G36*
G01*
X123675000Y-109675000D02*
X123675000Y-110125000D01*
G75*
G02*
X123475000Y-110325000I-200000J0D01*
G01*
X122025000Y-110325000D01*
G75*
G02*
X121825000Y-110125000I0J200000D01*
G01*
X121825000Y-109675000D01*
G75*
G02*
X122025000Y-109475000I200000J0D01*
G01*
X123475000Y-109475000D01*
G75*
G02*
X123675000Y-109675000I0J-200000D01*
G01*
G37*
G36*
G01*
X123675000Y-109025000D02*
X123675000Y-109475000D01*
G75*
G02*
X123475000Y-109675000I-200000J0D01*
G01*
X122025000Y-109675000D01*
G75*
G02*
X121825000Y-109475000I0J200000D01*
G01*
X121825000Y-109025000D01*
G75*
G02*
X122025000Y-108825000I200000J0D01*
G01*
X123475000Y-108825000D01*
G75*
G02*
X123675000Y-109025000I0J-200000D01*
G01*
G37*
G36*
G01*
X123675000Y-108375000D02*
X123675000Y-108825000D01*
G75*
G02*
X123475000Y-109025000I-200000J0D01*
G01*
X122025000Y-109025000D01*
G75*
G02*
X121825000Y-108825000I0J200000D01*
G01*
X121825000Y-108375000D01*
G75*
G02*
X122025000Y-108175000I200000J0D01*
G01*
X123475000Y-108175000D01*
G75*
G02*
X123675000Y-108375000I0J-200000D01*
G01*
G37*
G36*
G01*
X123675000Y-107725000D02*
X123675000Y-108175000D01*
G75*
G02*
X123475000Y-108375000I-200000J0D01*
G01*
X122025000Y-108375000D01*
G75*
G02*
X121825000Y-108175000I0J200000D01*
G01*
X121825000Y-107725000D01*
G75*
G02*
X122025000Y-107525000I200000J0D01*
G01*
X123475000Y-107525000D01*
G75*
G02*
X123675000Y-107725000I0J-200000D01*
G01*
G37*
G36*
G01*
X123675000Y-107075000D02*
X123675000Y-107525000D01*
G75*
G02*
X123475000Y-107725000I-200000J0D01*
G01*
X122025000Y-107725000D01*
G75*
G02*
X121825000Y-107525000I0J200000D01*
G01*
X121825000Y-107075000D01*
G75*
G02*
X122025000Y-106875000I200000J0D01*
G01*
X123475000Y-106875000D01*
G75*
G02*
X123675000Y-107075000I0J-200000D01*
G01*
G37*
G36*
G01*
X123675000Y-106425000D02*
X123675000Y-106875000D01*
G75*
G02*
X123475000Y-107075000I-200000J0D01*
G01*
X122025000Y-107075000D01*
G75*
G02*
X121825000Y-106875000I0J200000D01*
G01*
X121825000Y-106425000D01*
G75*
G02*
X122025000Y-106225000I200000J0D01*
G01*
X123475000Y-106225000D01*
G75*
G02*
X123675000Y-106425000I0J-200000D01*
G01*
G37*
D14*
X101125000Y-110400000D03*
D15*
X103275000Y-113200000D03*
X103275000Y-107600000D03*
D13*
X138140000Y-103900000D03*
G36*
G01*
X136450000Y-104950000D02*
X134750000Y-104950000D01*
G75*
G02*
X134550000Y-104750000I0J200000D01*
G01*
X134550000Y-103050000D01*
G75*
G02*
X134750000Y-102850000I200000J0D01*
G01*
X136450000Y-102850000D01*
G75*
G02*
X136650000Y-103050000I0J-200000D01*
G01*
X136650000Y-104750000D01*
G75*
G02*
X136450000Y-104950000I-200000J0D01*
G01*
G37*
X101900000Y-103900000D03*
G36*
G01*
X103590000Y-102850000D02*
X105290000Y-102850000D01*
G75*
G02*
X105490000Y-103050000I0J-200000D01*
G01*
X105490000Y-104750000D01*
G75*
G02*
X105290000Y-104950000I-200000J0D01*
G01*
X103590000Y-104950000D01*
G75*
G02*
X103390000Y-104750000I0J200000D01*
G01*
X103390000Y-103050000D01*
G75*
G02*
X103590000Y-102850000I200000J0D01*
G01*
G37*
G36*
G01*
X131050000Y-112150000D02*
X132750000Y-112150000D01*
G75*
G02*
X132950000Y-112350000I0J-200000D01*
G01*
X132950000Y-114050000D01*
G75*
G02*
X132750000Y-114250000I-200000J0D01*
G01*
X131050000Y-114250000D01*
G75*
G02*
X130850000Y-114050000I0J200000D01*
G01*
X130850000Y-112350000D01*
G75*
G02*
X131050000Y-112150000I200000J0D01*
G01*
G37*
X129360000Y-113200000D03*
X126820000Y-113200000D03*
X124280000Y-113200000D03*
M02*
