G04 #@! TF.GenerationSoftware,KiCad,Pcbnew,(5.1.9)-1*
G04 #@! TF.CreationDate,2021-05-17T22:57:24+10:00*
G04 #@! TF.ProjectId,microBoSL-panel,6d696372-6f42-46f5-934c-2d70616e656c,rev?*
G04 #@! TF.SameCoordinates,Original*
G04 #@! TF.FileFunction,Other,Comment*
%FSLAX46Y46*%
G04 Gerber Fmt 4.6, Leading zero omitted, Abs format (unit mm)*
G04 Created by KiCad (PCBNEW (5.1.9)-1) date 2021-05-17 22:57:24*
%MOMM*%
%LPD*%
G01*
G04 APERTURE LIST*
%ADD10C,0.400000*%
G04 APERTURE END LIST*
D10*
X121404761Y-36048520D02*
X123404761Y-35381854D01*
X121404761Y-34715187D01*
X122642857Y-34048520D02*
X122642857Y-32524711D01*
X123214285Y-30429473D02*
X123309523Y-30524711D01*
X123404761Y-30810425D01*
X123404761Y-31000901D01*
X123309523Y-31286616D01*
X123119047Y-31477092D01*
X122928571Y-31572330D01*
X122547619Y-31667568D01*
X122261904Y-31667568D01*
X121880952Y-31572330D01*
X121690476Y-31477092D01*
X121500000Y-31286616D01*
X121404761Y-31000901D01*
X121404761Y-30810425D01*
X121500000Y-30524711D01*
X121595238Y-30429473D01*
X121404761Y-29572330D02*
X123023809Y-29572330D01*
X123214285Y-29477092D01*
X123309523Y-29381854D01*
X123404761Y-29191377D01*
X123404761Y-28810425D01*
X123309523Y-28619949D01*
X123214285Y-28524711D01*
X123023809Y-28429473D01*
X121404761Y-28429473D01*
X121404761Y-27762806D02*
X121404761Y-26619949D01*
X123404761Y-27191377D02*
X121404761Y-27191377D01*
X122500000Y-39498997D02*
X122500000Y-140501033D01*
X76404761Y-36048520D02*
X78404761Y-35381854D01*
X76404761Y-34715187D01*
X77642857Y-34048520D02*
X77642857Y-32524711D01*
X78214285Y-30429473D02*
X78309523Y-30524711D01*
X78404761Y-30810425D01*
X78404761Y-31000901D01*
X78309523Y-31286616D01*
X78119047Y-31477092D01*
X77928571Y-31572330D01*
X77547619Y-31667568D01*
X77261904Y-31667568D01*
X76880952Y-31572330D01*
X76690476Y-31477092D01*
X76500000Y-31286616D01*
X76404761Y-31000901D01*
X76404761Y-30810425D01*
X76500000Y-30524711D01*
X76595238Y-30429473D01*
X76404761Y-29572330D02*
X78023809Y-29572330D01*
X78214285Y-29477092D01*
X78309523Y-29381854D01*
X78404761Y-29191377D01*
X78404761Y-28810425D01*
X78309523Y-28619949D01*
X78214285Y-28524711D01*
X78023809Y-28429473D01*
X76404761Y-28429473D01*
X76404761Y-27762806D02*
X76404761Y-26619949D01*
X78404761Y-27191377D02*
X76404761Y-27191377D01*
X77500000Y-39498997D02*
X77500000Y-140501033D01*
X71404761Y-36048520D02*
X73404761Y-35381854D01*
X71404761Y-34715187D01*
X72642857Y-34048520D02*
X72642857Y-32524711D01*
X73214285Y-30429473D02*
X73309523Y-30524711D01*
X73404761Y-30810425D01*
X73404761Y-31000901D01*
X73309523Y-31286616D01*
X73119047Y-31477092D01*
X72928571Y-31572330D01*
X72547619Y-31667568D01*
X72261904Y-31667568D01*
X71880952Y-31572330D01*
X71690476Y-31477092D01*
X71500000Y-31286616D01*
X71404761Y-31000901D01*
X71404761Y-30810425D01*
X71500000Y-30524711D01*
X71595238Y-30429473D01*
X71404761Y-29572330D02*
X73023809Y-29572330D01*
X73214285Y-29477092D01*
X73309523Y-29381854D01*
X73404761Y-29191377D01*
X73404761Y-28810425D01*
X73309523Y-28619949D01*
X73214285Y-28524711D01*
X73023809Y-28429473D01*
X71404761Y-28429473D01*
X71404761Y-27762806D02*
X71404761Y-26619949D01*
X73404761Y-27191377D02*
X71404761Y-27191377D01*
X72500000Y-39498997D02*
X72500000Y-140501033D01*
X26404761Y-36048520D02*
X28404761Y-35381854D01*
X26404761Y-34715187D01*
X27642857Y-34048520D02*
X27642857Y-32524711D01*
X28214285Y-30429473D02*
X28309523Y-30524711D01*
X28404761Y-30810425D01*
X28404761Y-31000901D01*
X28309523Y-31286616D01*
X28119047Y-31477092D01*
X27928571Y-31572330D01*
X27547619Y-31667568D01*
X27261904Y-31667568D01*
X26880952Y-31572330D01*
X26690476Y-31477092D01*
X26500000Y-31286616D01*
X26404761Y-31000901D01*
X26404761Y-30810425D01*
X26500000Y-30524711D01*
X26595238Y-30429473D01*
X26404761Y-29572330D02*
X28023809Y-29572330D01*
X28214285Y-29477092D01*
X28309523Y-29381854D01*
X28404761Y-29191377D01*
X28404761Y-28810425D01*
X28309523Y-28619949D01*
X28214285Y-28524711D01*
X28023809Y-28429473D01*
X26404761Y-28429473D01*
X26404761Y-27762806D02*
X26404761Y-26619949D01*
X28404761Y-27191377D02*
X26404761Y-27191377D01*
X27500000Y-39498997D02*
X27500000Y-140501033D01*
X138939481Y-121404761D02*
X139606147Y-123404761D01*
X140272814Y-121404761D01*
X140939481Y-122642857D02*
X142463290Y-122642857D01*
X144558528Y-123214285D02*
X144463290Y-123309523D01*
X144177576Y-123404761D01*
X143987100Y-123404761D01*
X143701385Y-123309523D01*
X143510909Y-123119047D01*
X143415671Y-122928571D01*
X143320433Y-122547619D01*
X143320433Y-122261904D01*
X143415671Y-121880952D01*
X143510909Y-121690476D01*
X143701385Y-121500000D01*
X143987100Y-121404761D01*
X144177576Y-121404761D01*
X144463290Y-121500000D01*
X144558528Y-121595238D01*
X145415671Y-121404761D02*
X145415671Y-123023809D01*
X145510909Y-123214285D01*
X145606147Y-123309523D01*
X145796624Y-123404761D01*
X146177576Y-123404761D01*
X146368052Y-123309523D01*
X146463290Y-123214285D01*
X146558528Y-123023809D01*
X146558528Y-121404761D01*
X147225195Y-121404761D02*
X148368052Y-121404761D01*
X147796624Y-123404761D02*
X147796624Y-121404761D01*
X14520997Y-122500000D02*
X135489005Y-122500000D01*
X138939481Y-116404761D02*
X139606147Y-118404761D01*
X140272814Y-116404761D01*
X140939481Y-117642857D02*
X142463290Y-117642857D01*
X144558528Y-118214285D02*
X144463290Y-118309523D01*
X144177576Y-118404761D01*
X143987100Y-118404761D01*
X143701385Y-118309523D01*
X143510909Y-118119047D01*
X143415671Y-117928571D01*
X143320433Y-117547619D01*
X143320433Y-117261904D01*
X143415671Y-116880952D01*
X143510909Y-116690476D01*
X143701385Y-116500000D01*
X143987100Y-116404761D01*
X144177576Y-116404761D01*
X144463290Y-116500000D01*
X144558528Y-116595238D01*
X145415671Y-116404761D02*
X145415671Y-118023809D01*
X145510909Y-118214285D01*
X145606147Y-118309523D01*
X145796624Y-118404761D01*
X146177576Y-118404761D01*
X146368052Y-118309523D01*
X146463290Y-118214285D01*
X146558528Y-118023809D01*
X146558528Y-116404761D01*
X147225195Y-116404761D02*
X148368052Y-116404761D01*
X147796624Y-118404761D02*
X147796624Y-116404761D01*
X14520997Y-117500000D02*
X135489005Y-117500000D01*
X138939481Y-101404761D02*
X139606147Y-103404761D01*
X140272814Y-101404761D01*
X140939481Y-102642857D02*
X142463290Y-102642857D01*
X144558528Y-103214285D02*
X144463290Y-103309523D01*
X144177576Y-103404761D01*
X143987100Y-103404761D01*
X143701385Y-103309523D01*
X143510909Y-103119047D01*
X143415671Y-102928571D01*
X143320433Y-102547619D01*
X143320433Y-102261904D01*
X143415671Y-101880952D01*
X143510909Y-101690476D01*
X143701385Y-101500000D01*
X143987100Y-101404761D01*
X144177576Y-101404761D01*
X144463290Y-101500000D01*
X144558528Y-101595238D01*
X145415671Y-101404761D02*
X145415671Y-103023809D01*
X145510909Y-103214285D01*
X145606147Y-103309523D01*
X145796624Y-103404761D01*
X146177576Y-103404761D01*
X146368052Y-103309523D01*
X146463290Y-103214285D01*
X146558528Y-103023809D01*
X146558528Y-101404761D01*
X147225195Y-101404761D02*
X148368052Y-101404761D01*
X147796624Y-103404761D02*
X147796624Y-101404761D01*
X14520997Y-102500000D02*
X135489005Y-102500000D01*
X138939481Y-61404761D02*
X139606147Y-63404761D01*
X140272814Y-61404761D01*
X140939481Y-62642857D02*
X142463290Y-62642857D01*
X144558528Y-63214285D02*
X144463290Y-63309523D01*
X144177576Y-63404761D01*
X143987100Y-63404761D01*
X143701385Y-63309523D01*
X143510909Y-63119047D01*
X143415671Y-62928571D01*
X143320433Y-62547619D01*
X143320433Y-62261904D01*
X143415671Y-61880952D01*
X143510909Y-61690476D01*
X143701385Y-61500000D01*
X143987100Y-61404761D01*
X144177576Y-61404761D01*
X144463290Y-61500000D01*
X144558528Y-61595238D01*
X145415671Y-61404761D02*
X145415671Y-63023809D01*
X145510909Y-63214285D01*
X145606147Y-63309523D01*
X145796624Y-63404761D01*
X146177576Y-63404761D01*
X146368052Y-63309523D01*
X146463290Y-63214285D01*
X146558528Y-63023809D01*
X146558528Y-61404761D01*
X147225195Y-61404761D02*
X148368052Y-61404761D01*
X147796624Y-63404761D02*
X147796624Y-61404761D01*
X14520997Y-62500000D02*
X135489005Y-62500000D01*
X138939481Y-81404761D02*
X139606147Y-83404761D01*
X140272814Y-81404761D01*
X140939481Y-82642857D02*
X142463290Y-82642857D01*
X144558528Y-83214285D02*
X144463290Y-83309523D01*
X144177576Y-83404761D01*
X143987100Y-83404761D01*
X143701385Y-83309523D01*
X143510909Y-83119047D01*
X143415671Y-82928571D01*
X143320433Y-82547619D01*
X143320433Y-82261904D01*
X143415671Y-81880952D01*
X143510909Y-81690476D01*
X143701385Y-81500000D01*
X143987100Y-81404761D01*
X144177576Y-81404761D01*
X144463290Y-81500000D01*
X144558528Y-81595238D01*
X145415671Y-81404761D02*
X145415671Y-83023809D01*
X145510909Y-83214285D01*
X145606147Y-83309523D01*
X145796624Y-83404761D01*
X146177576Y-83404761D01*
X146368052Y-83309523D01*
X146463290Y-83214285D01*
X146558528Y-83023809D01*
X146558528Y-81404761D01*
X147225195Y-81404761D02*
X148368052Y-81404761D01*
X147796624Y-83404761D02*
X147796624Y-81404761D01*
X14520997Y-82500000D02*
X135489005Y-82500000D01*
X138939481Y-76404761D02*
X139606147Y-78404761D01*
X140272814Y-76404761D01*
X140939481Y-77642857D02*
X142463290Y-77642857D01*
X144558528Y-78214285D02*
X144463290Y-78309523D01*
X144177576Y-78404761D01*
X143987100Y-78404761D01*
X143701385Y-78309523D01*
X143510909Y-78119047D01*
X143415671Y-77928571D01*
X143320433Y-77547619D01*
X143320433Y-77261904D01*
X143415671Y-76880952D01*
X143510909Y-76690476D01*
X143701385Y-76500000D01*
X143987100Y-76404761D01*
X144177576Y-76404761D01*
X144463290Y-76500000D01*
X144558528Y-76595238D01*
X145415671Y-76404761D02*
X145415671Y-78023809D01*
X145510909Y-78214285D01*
X145606147Y-78309523D01*
X145796624Y-78404761D01*
X146177576Y-78404761D01*
X146368052Y-78309523D01*
X146463290Y-78214285D01*
X146558528Y-78023809D01*
X146558528Y-76404761D01*
X147225195Y-76404761D02*
X148368052Y-76404761D01*
X147796624Y-78404761D02*
X147796624Y-76404761D01*
X14520997Y-77500000D02*
X135489005Y-77500000D01*
X138939481Y-96404761D02*
X139606147Y-98404761D01*
X140272814Y-96404761D01*
X140939481Y-97642857D02*
X142463290Y-97642857D01*
X144558528Y-98214285D02*
X144463290Y-98309523D01*
X144177576Y-98404761D01*
X143987100Y-98404761D01*
X143701385Y-98309523D01*
X143510909Y-98119047D01*
X143415671Y-97928571D01*
X143320433Y-97547619D01*
X143320433Y-97261904D01*
X143415671Y-96880952D01*
X143510909Y-96690476D01*
X143701385Y-96500000D01*
X143987100Y-96404761D01*
X144177576Y-96404761D01*
X144463290Y-96500000D01*
X144558528Y-96595238D01*
X145415671Y-96404761D02*
X145415671Y-98023809D01*
X145510909Y-98214285D01*
X145606147Y-98309523D01*
X145796624Y-98404761D01*
X146177576Y-98404761D01*
X146368052Y-98309523D01*
X146463290Y-98214285D01*
X146558528Y-98023809D01*
X146558528Y-96404761D01*
X147225195Y-96404761D02*
X148368052Y-96404761D01*
X147796624Y-98404761D02*
X147796624Y-96404761D01*
X14520997Y-97500000D02*
X135489005Y-97500000D01*
X138939481Y-56404761D02*
X139606147Y-58404761D01*
X140272814Y-56404761D01*
X140939481Y-57642857D02*
X142463290Y-57642857D01*
X144558528Y-58214285D02*
X144463290Y-58309523D01*
X144177576Y-58404761D01*
X143987100Y-58404761D01*
X143701385Y-58309523D01*
X143510909Y-58119047D01*
X143415671Y-57928571D01*
X143320433Y-57547619D01*
X143320433Y-57261904D01*
X143415671Y-56880952D01*
X143510909Y-56690476D01*
X143701385Y-56500000D01*
X143987100Y-56404761D01*
X144177576Y-56404761D01*
X144463290Y-56500000D01*
X144558528Y-56595238D01*
X145415671Y-56404761D02*
X145415671Y-58023809D01*
X145510909Y-58214285D01*
X145606147Y-58309523D01*
X145796624Y-58404761D01*
X146177576Y-58404761D01*
X146368052Y-58309523D01*
X146463290Y-58214285D01*
X146558528Y-58023809D01*
X146558528Y-56404761D01*
X147225195Y-56404761D02*
X148368052Y-56404761D01*
X147796624Y-58404761D02*
X147796624Y-56404761D01*
X14520997Y-57500000D02*
X135489005Y-57500000D01*
M02*
