G04 #@! TF.GenerationSoftware,KiCad,Pcbnew,(5.1.9)-1*
G04 #@! TF.CreationDate,2021-05-04T20:43:57+10:00*
G04 #@! TF.ProjectId,microBoSL,6d696372-6f42-46f5-934c-2e6b69636164,0.2.0*
G04 #@! TF.SameCoordinates,Original*
G04 #@! TF.FileFunction,Legend,Top*
G04 #@! TF.FilePolarity,Positive*
%FSLAX46Y46*%
G04 Gerber Fmt 4.6, Leading zero omitted, Abs format (unit mm)*
G04 Created by KiCad (PCBNEW (5.1.9)-1) date 2021-05-04 20:43:57*
%MOMM*%
%LPD*%
G01*
G04 APERTURE LIST*
%ADD10C,0.075000*%
%ADD11C,0.100000*%
%ADD12C,0.125000*%
%ADD13C,0.150000*%
%ADD14C,0.120000*%
G04 APERTURE END LIST*
D10*
X124442857Y-102552380D02*
X124485714Y-102576190D01*
X124557142Y-102576190D01*
X124585714Y-102552380D01*
X124600000Y-102528571D01*
X124614285Y-102480952D01*
X124614285Y-102433333D01*
X124600000Y-102385714D01*
X124585714Y-102361904D01*
X124557142Y-102338095D01*
X124500000Y-102314285D01*
X124471428Y-102290476D01*
X124457142Y-102266666D01*
X124442857Y-102219047D01*
X124442857Y-102171428D01*
X124457142Y-102123809D01*
X124471428Y-102100000D01*
X124500000Y-102076190D01*
X124571428Y-102076190D01*
X124614285Y-102100000D01*
X124914285Y-102528571D02*
X124900000Y-102552380D01*
X124857142Y-102576190D01*
X124828571Y-102576190D01*
X124785714Y-102552380D01*
X124757142Y-102504761D01*
X124742857Y-102457142D01*
X124728571Y-102361904D01*
X124728571Y-102290476D01*
X124742857Y-102195238D01*
X124757142Y-102147619D01*
X124785714Y-102100000D01*
X124828571Y-102076190D01*
X124857142Y-102076190D01*
X124900000Y-102100000D01*
X124914285Y-102123809D01*
X125185714Y-102576190D02*
X125042857Y-102576190D01*
X125042857Y-102076190D01*
X125285714Y-102576190D02*
X125285714Y-102076190D01*
X125457142Y-102576190D02*
X125328571Y-102290476D01*
X125457142Y-102076190D02*
X125285714Y-102361904D01*
X123228571Y-102576190D02*
X123228571Y-102076190D01*
X123328571Y-102433333D01*
X123428571Y-102076190D01*
X123428571Y-102576190D01*
X123571428Y-102576190D02*
X123571428Y-102076190D01*
X123700000Y-102552380D02*
X123742857Y-102576190D01*
X123814285Y-102576190D01*
X123842857Y-102552380D01*
X123857142Y-102528571D01*
X123871428Y-102480952D01*
X123871428Y-102433333D01*
X123857142Y-102385714D01*
X123842857Y-102361904D01*
X123814285Y-102338095D01*
X123757142Y-102314285D01*
X123728571Y-102290476D01*
X123714285Y-102266666D01*
X123700000Y-102219047D01*
X123700000Y-102171428D01*
X123714285Y-102123809D01*
X123728571Y-102100000D01*
X123757142Y-102076190D01*
X123828571Y-102076190D01*
X123871428Y-102100000D01*
X124057142Y-102076190D02*
X124114285Y-102076190D01*
X124142857Y-102100000D01*
X124171428Y-102147619D01*
X124185714Y-102242857D01*
X124185714Y-102409523D01*
X124171428Y-102504761D01*
X124142857Y-102552380D01*
X124114285Y-102576190D01*
X124057142Y-102576190D01*
X124028571Y-102552380D01*
X124000000Y-102504761D01*
X123985714Y-102409523D01*
X123985714Y-102242857D01*
X124000000Y-102147619D01*
X124028571Y-102100000D01*
X124057142Y-102076190D01*
X121928571Y-102576190D02*
X121928571Y-102076190D01*
X122028571Y-102433333D01*
X122128571Y-102076190D01*
X122128571Y-102576190D01*
X122328571Y-102076190D02*
X122385714Y-102076190D01*
X122414285Y-102100000D01*
X122442857Y-102147619D01*
X122457142Y-102242857D01*
X122457142Y-102409523D01*
X122442857Y-102504761D01*
X122414285Y-102552380D01*
X122385714Y-102576190D01*
X122328571Y-102576190D01*
X122300000Y-102552380D01*
X122271428Y-102504761D01*
X122257142Y-102409523D01*
X122257142Y-102242857D01*
X122271428Y-102147619D01*
X122300000Y-102100000D01*
X122328571Y-102076190D01*
X122571428Y-102552380D02*
X122614285Y-102576190D01*
X122685714Y-102576190D01*
X122714285Y-102552380D01*
X122728571Y-102528571D01*
X122742857Y-102480952D01*
X122742857Y-102433333D01*
X122728571Y-102385714D01*
X122714285Y-102361904D01*
X122685714Y-102338095D01*
X122628571Y-102314285D01*
X122600000Y-102290476D01*
X122585714Y-102266666D01*
X122571428Y-102219047D01*
X122571428Y-102171428D01*
X122585714Y-102123809D01*
X122600000Y-102100000D01*
X122628571Y-102076190D01*
X122700000Y-102076190D01*
X122742857Y-102100000D01*
X122871428Y-102576190D02*
X122871428Y-102076190D01*
D11*
X116923809Y-114811904D02*
X116980952Y-114830952D01*
X117076190Y-114830952D01*
X117114285Y-114811904D01*
X117133333Y-114792857D01*
X117152380Y-114754761D01*
X117152380Y-114716666D01*
X117133333Y-114678571D01*
X117114285Y-114659523D01*
X117076190Y-114640476D01*
X117000000Y-114621428D01*
X116961904Y-114602380D01*
X116942857Y-114583333D01*
X116923809Y-114545238D01*
X116923809Y-114507142D01*
X116942857Y-114469047D01*
X116961904Y-114450000D01*
X117000000Y-114430952D01*
X117095238Y-114430952D01*
X117152380Y-114450000D01*
X117552380Y-114792857D02*
X117533333Y-114811904D01*
X117476190Y-114830952D01*
X117438095Y-114830952D01*
X117380952Y-114811904D01*
X117342857Y-114773809D01*
X117323809Y-114735714D01*
X117304761Y-114659523D01*
X117304761Y-114602380D01*
X117323809Y-114526190D01*
X117342857Y-114488095D01*
X117380952Y-114450000D01*
X117438095Y-114430952D01*
X117476190Y-114430952D01*
X117533333Y-114450000D01*
X117552380Y-114469047D01*
X117914285Y-114830952D02*
X117723809Y-114830952D01*
X117723809Y-114430952D01*
X118164285Y-114811904D02*
X118221428Y-114830952D01*
X118316666Y-114830952D01*
X118354761Y-114811904D01*
X118373809Y-114792857D01*
X118392857Y-114754761D01*
X118392857Y-114716666D01*
X118373809Y-114678571D01*
X118354761Y-114659523D01*
X118316666Y-114640476D01*
X118240476Y-114621428D01*
X118202380Y-114602380D01*
X118183333Y-114583333D01*
X118164285Y-114545238D01*
X118164285Y-114507142D01*
X118183333Y-114469047D01*
X118202380Y-114450000D01*
X118240476Y-114430952D01*
X118335714Y-114430952D01*
X118392857Y-114450000D01*
X118564285Y-114830952D02*
X118564285Y-114430952D01*
X118659523Y-114430952D01*
X118716666Y-114450000D01*
X118754761Y-114488095D01*
X118773809Y-114526190D01*
X118792857Y-114602380D01*
X118792857Y-114659523D01*
X118773809Y-114735714D01*
X118754761Y-114773809D01*
X118716666Y-114811904D01*
X118659523Y-114830952D01*
X118564285Y-114830952D01*
X118945238Y-114716666D02*
X119135714Y-114716666D01*
X118907142Y-114830952D02*
X119040476Y-114430952D01*
X119173809Y-114830952D01*
X119645238Y-114450000D02*
X119607142Y-114430952D01*
X119550000Y-114430952D01*
X119492857Y-114450000D01*
X119454761Y-114488095D01*
X119435714Y-114526190D01*
X119416666Y-114602380D01*
X119416666Y-114659523D01*
X119435714Y-114735714D01*
X119454761Y-114773809D01*
X119492857Y-114811904D01*
X119550000Y-114830952D01*
X119588095Y-114830952D01*
X119645238Y-114811904D01*
X119664285Y-114792857D01*
X119664285Y-114659523D01*
X119588095Y-114659523D01*
X119835714Y-114830952D02*
X119835714Y-114430952D01*
X120064285Y-114830952D01*
X120064285Y-114430952D01*
X120254761Y-114830952D02*
X120254761Y-114430952D01*
X120350000Y-114430952D01*
X120407142Y-114450000D01*
X120445238Y-114488095D01*
X120464285Y-114526190D01*
X120483333Y-114602380D01*
X120483333Y-114659523D01*
X120464285Y-114735714D01*
X120445238Y-114773809D01*
X120407142Y-114811904D01*
X120350000Y-114830952D01*
X120254761Y-114830952D01*
X120704761Y-114380952D02*
X120952380Y-114380952D01*
X120819047Y-114533333D01*
X120876190Y-114533333D01*
X120914285Y-114552380D01*
X120933333Y-114571428D01*
X120952380Y-114609523D01*
X120952380Y-114704761D01*
X120933333Y-114742857D01*
X120914285Y-114761904D01*
X120876190Y-114780952D01*
X120761904Y-114780952D01*
X120723809Y-114761904D01*
X120704761Y-114742857D01*
X121066666Y-114380952D02*
X121200000Y-114780952D01*
X121333333Y-114380952D01*
X121428571Y-114380952D02*
X121676190Y-114380952D01*
X121542857Y-114533333D01*
X121600000Y-114533333D01*
X121638095Y-114552380D01*
X121657142Y-114571428D01*
X121676190Y-114609523D01*
X121676190Y-114704761D01*
X121657142Y-114742857D01*
X121638095Y-114761904D01*
X121600000Y-114780952D01*
X121485714Y-114780952D01*
X121447619Y-114761904D01*
X121428571Y-114742857D01*
D12*
X123580952Y-114326190D02*
X123890476Y-114326190D01*
X123723809Y-114516666D01*
X123795238Y-114516666D01*
X123842857Y-114540476D01*
X123866666Y-114564285D01*
X123890476Y-114611904D01*
X123890476Y-114730952D01*
X123866666Y-114778571D01*
X123842857Y-114802380D01*
X123795238Y-114826190D01*
X123652380Y-114826190D01*
X123604761Y-114802380D01*
X123580952Y-114778571D01*
X124033333Y-114326190D02*
X124200000Y-114826190D01*
X124366666Y-114326190D01*
X124485714Y-114326190D02*
X124795238Y-114326190D01*
X124628571Y-114516666D01*
X124700000Y-114516666D01*
X124747619Y-114540476D01*
X124771428Y-114564285D01*
X124795238Y-114611904D01*
X124795238Y-114730952D01*
X124771428Y-114778571D01*
X124747619Y-114802380D01*
X124700000Y-114826190D01*
X124557142Y-114826190D01*
X124509523Y-114802380D01*
X124485714Y-114778571D01*
X126419047Y-114350000D02*
X126371428Y-114326190D01*
X126300000Y-114326190D01*
X126228571Y-114350000D01*
X126180952Y-114397619D01*
X126157142Y-114445238D01*
X126133333Y-114540476D01*
X126133333Y-114611904D01*
X126157142Y-114707142D01*
X126180952Y-114754761D01*
X126228571Y-114802380D01*
X126300000Y-114826190D01*
X126347619Y-114826190D01*
X126419047Y-114802380D01*
X126442857Y-114778571D01*
X126442857Y-114611904D01*
X126347619Y-114611904D01*
X126657142Y-114826190D02*
X126657142Y-114326190D01*
X126942857Y-114826190D01*
X126942857Y-114326190D01*
X127180952Y-114826190D02*
X127180952Y-114326190D01*
X127300000Y-114326190D01*
X127371428Y-114350000D01*
X127419047Y-114397619D01*
X127442857Y-114445238D01*
X127466666Y-114540476D01*
X127466666Y-114611904D01*
X127442857Y-114707142D01*
X127419047Y-114754761D01*
X127371428Y-114802380D01*
X127300000Y-114826190D01*
X127180952Y-114826190D01*
X128923809Y-114226190D02*
X129090476Y-114726190D01*
X129257142Y-114226190D01*
X129423809Y-114535714D02*
X129804761Y-114535714D01*
X129614285Y-114726190D02*
X129614285Y-114345238D01*
X131519047Y-114250000D02*
X131471428Y-114226190D01*
X131400000Y-114226190D01*
X131328571Y-114250000D01*
X131280952Y-114297619D01*
X131257142Y-114345238D01*
X131233333Y-114440476D01*
X131233333Y-114511904D01*
X131257142Y-114607142D01*
X131280952Y-114654761D01*
X131328571Y-114702380D01*
X131400000Y-114726190D01*
X131447619Y-114726190D01*
X131519047Y-114702380D01*
X131542857Y-114678571D01*
X131542857Y-114511904D01*
X131447619Y-114511904D01*
X131757142Y-114726190D02*
X131757142Y-114226190D01*
X132042857Y-114726190D01*
X132042857Y-114226190D01*
X132280952Y-114726190D02*
X132280952Y-114226190D01*
X132400000Y-114226190D01*
X132471428Y-114250000D01*
X132519047Y-114297619D01*
X132542857Y-114345238D01*
X132566666Y-114440476D01*
X132566666Y-114511904D01*
X132542857Y-114607142D01*
X132519047Y-114654761D01*
X132471428Y-114702380D01*
X132400000Y-114726190D01*
X132280952Y-114726190D01*
X139569047Y-113226190D02*
X139569047Y-112726190D01*
X139759523Y-112726190D01*
X139807142Y-112750000D01*
X139830952Y-112773809D01*
X139854761Y-112821428D01*
X139854761Y-112892857D01*
X139830952Y-112940476D01*
X139807142Y-112964285D01*
X139759523Y-112988095D01*
X139569047Y-112988095D01*
X139550000Y-108380952D02*
X139526190Y-108428571D01*
X139526190Y-108500000D01*
X139550000Y-108571428D01*
X139597619Y-108619047D01*
X139645238Y-108642857D01*
X139740476Y-108666666D01*
X139811904Y-108666666D01*
X139907142Y-108642857D01*
X139954761Y-108619047D01*
X140002380Y-108571428D01*
X140026190Y-108500000D01*
X140026190Y-108452380D01*
X140002380Y-108380952D01*
X139978571Y-108357142D01*
X139811904Y-108357142D01*
X139811904Y-108452380D01*
X140026190Y-108142857D02*
X139526190Y-108142857D01*
X140026190Y-107857142D01*
X139526190Y-107857142D01*
X140026190Y-107619047D02*
X139526190Y-107619047D01*
X139526190Y-107500000D01*
X139550000Y-107428571D01*
X139597619Y-107380952D01*
X139645238Y-107357142D01*
X139740476Y-107333333D01*
X139811904Y-107333333D01*
X139907142Y-107357142D01*
X139954761Y-107380952D01*
X140002380Y-107428571D01*
X140026190Y-107500000D01*
X140026190Y-107619047D01*
X139557142Y-110602380D02*
X139628571Y-110626190D01*
X139747619Y-110626190D01*
X139795238Y-110602380D01*
X139819047Y-110578571D01*
X139842857Y-110530952D01*
X139842857Y-110483333D01*
X139819047Y-110435714D01*
X139795238Y-110411904D01*
X139747619Y-110388095D01*
X139652380Y-110364285D01*
X139604761Y-110340476D01*
X139580952Y-110316666D01*
X139557142Y-110269047D01*
X139557142Y-110221428D01*
X139580952Y-110173809D01*
X139604761Y-110150000D01*
X139652380Y-110126190D01*
X139771428Y-110126190D01*
X139842857Y-110150000D01*
X133657142Y-110702380D02*
X133728571Y-110726190D01*
X133847619Y-110726190D01*
X133895238Y-110702380D01*
X133919047Y-110678571D01*
X133942857Y-110630952D01*
X133942857Y-110583333D01*
X133919047Y-110535714D01*
X133895238Y-110511904D01*
X133847619Y-110488095D01*
X133752380Y-110464285D01*
X133704761Y-110440476D01*
X133680952Y-110416666D01*
X133657142Y-110369047D01*
X133657142Y-110321428D01*
X133680952Y-110273809D01*
X133704761Y-110250000D01*
X133752380Y-110226190D01*
X133871428Y-110226190D01*
X133942857Y-110250000D01*
X133769047Y-113326190D02*
X133769047Y-112826190D01*
X133959523Y-112826190D01*
X134007142Y-112850000D01*
X134030952Y-112873809D01*
X134054761Y-112921428D01*
X134054761Y-112992857D01*
X134030952Y-113040476D01*
X134007142Y-113064285D01*
X133959523Y-113088095D01*
X133769047Y-113088095D01*
X133600000Y-108430952D02*
X133576190Y-108478571D01*
X133576190Y-108550000D01*
X133600000Y-108621428D01*
X133647619Y-108669047D01*
X133695238Y-108692857D01*
X133790476Y-108716666D01*
X133861904Y-108716666D01*
X133957142Y-108692857D01*
X134004761Y-108669047D01*
X134052380Y-108621428D01*
X134076190Y-108550000D01*
X134076190Y-108502380D01*
X134052380Y-108430952D01*
X134028571Y-108407142D01*
X133861904Y-108407142D01*
X133861904Y-108502380D01*
X134076190Y-108192857D02*
X133576190Y-108192857D01*
X134076190Y-107907142D01*
X133576190Y-107907142D01*
X134076190Y-107669047D02*
X133576190Y-107669047D01*
X133576190Y-107550000D01*
X133600000Y-107478571D01*
X133647619Y-107430952D01*
X133695238Y-107407142D01*
X133790476Y-107383333D01*
X133861904Y-107383333D01*
X133957142Y-107407142D01*
X134004761Y-107430952D01*
X134052380Y-107478571D01*
X134076190Y-107550000D01*
X134076190Y-107669047D01*
X139878571Y-106297619D02*
X139902380Y-106321428D01*
X139926190Y-106392857D01*
X139926190Y-106440476D01*
X139902380Y-106511904D01*
X139854761Y-106559523D01*
X139807142Y-106583333D01*
X139711904Y-106607142D01*
X139640476Y-106607142D01*
X139545238Y-106583333D01*
X139497619Y-106559523D01*
X139450000Y-106511904D01*
X139426190Y-106440476D01*
X139426190Y-106392857D01*
X139450000Y-106321428D01*
X139473809Y-106297619D01*
X139926190Y-106083333D02*
X139426190Y-106083333D01*
X139926190Y-105797619D01*
X139426190Y-105797619D01*
X139426190Y-105630952D02*
X139426190Y-105345238D01*
X139926190Y-105488095D02*
X139426190Y-105488095D01*
X133576190Y-106790476D02*
X134076190Y-106671428D01*
X133719047Y-106576190D01*
X134076190Y-106480952D01*
X133576190Y-106361904D01*
X134076190Y-106171428D02*
X133576190Y-106171428D01*
X134076190Y-105885714D02*
X133790476Y-106100000D01*
X133576190Y-105885714D02*
X133861904Y-106171428D01*
X133814285Y-105671428D02*
X133814285Y-105504761D01*
X134076190Y-105433333D02*
X134076190Y-105671428D01*
X133576190Y-105671428D01*
X133576190Y-105433333D01*
D13*
X137338095Y-106361904D02*
X137338095Y-105561904D01*
X137604761Y-106133333D01*
X137871428Y-105561904D01*
X137871428Y-106361904D01*
X138252380Y-106057142D02*
X138861904Y-106057142D01*
X138557142Y-106361904D02*
X138557142Y-105752380D01*
X134838095Y-106361904D02*
X134838095Y-105561904D01*
X135104761Y-106133333D01*
X135371428Y-105561904D01*
X135371428Y-106361904D01*
X135752380Y-106057142D02*
X136361904Y-106057142D01*
D11*
X120845238Y-102552380D02*
X120902380Y-102576190D01*
X120997619Y-102576190D01*
X121035714Y-102552380D01*
X121054761Y-102528571D01*
X121073809Y-102480952D01*
X121073809Y-102433333D01*
X121054761Y-102385714D01*
X121035714Y-102361904D01*
X120997619Y-102338095D01*
X120921428Y-102314285D01*
X120883333Y-102290476D01*
X120864285Y-102266666D01*
X120845238Y-102219047D01*
X120845238Y-102171428D01*
X120864285Y-102123809D01*
X120883333Y-102100000D01*
X120921428Y-102076190D01*
X121016666Y-102076190D01*
X121073809Y-102100000D01*
X121226190Y-102552380D02*
X121283333Y-102576190D01*
X121378571Y-102576190D01*
X121416666Y-102552380D01*
X121435714Y-102528571D01*
X121454761Y-102480952D01*
X121454761Y-102433333D01*
X121435714Y-102385714D01*
X121416666Y-102361904D01*
X121378571Y-102338095D01*
X121302380Y-102314285D01*
X121264285Y-102290476D01*
X121245238Y-102266666D01*
X121226190Y-102219047D01*
X121226190Y-102171428D01*
X121245238Y-102123809D01*
X121264285Y-102100000D01*
X121302380Y-102076190D01*
X121397619Y-102076190D01*
X121454761Y-102100000D01*
X119530952Y-102626190D02*
X119397619Y-102388095D01*
X119302380Y-102626190D02*
X119302380Y-102126190D01*
X119454761Y-102126190D01*
X119492857Y-102150000D01*
X119511904Y-102173809D01*
X119530952Y-102221428D01*
X119530952Y-102292857D01*
X119511904Y-102340476D01*
X119492857Y-102364285D01*
X119454761Y-102388095D01*
X119302380Y-102388095D01*
X119683333Y-102602380D02*
X119740476Y-102626190D01*
X119835714Y-102626190D01*
X119873809Y-102602380D01*
X119892857Y-102578571D01*
X119911904Y-102530952D01*
X119911904Y-102483333D01*
X119892857Y-102435714D01*
X119873809Y-102411904D01*
X119835714Y-102388095D01*
X119759523Y-102364285D01*
X119721428Y-102340476D01*
X119702380Y-102316666D01*
X119683333Y-102269047D01*
X119683333Y-102221428D01*
X119702380Y-102173809D01*
X119721428Y-102150000D01*
X119759523Y-102126190D01*
X119854761Y-102126190D01*
X119911904Y-102150000D01*
X120026190Y-102126190D02*
X120254761Y-102126190D01*
X120140476Y-102626190D02*
X120140476Y-102126190D01*
D12*
X118466666Y-102626190D02*
X118300000Y-102388095D01*
X118180952Y-102626190D02*
X118180952Y-102126190D01*
X118371428Y-102126190D01*
X118419047Y-102150000D01*
X118442857Y-102173809D01*
X118466666Y-102221428D01*
X118466666Y-102292857D01*
X118442857Y-102340476D01*
X118419047Y-102364285D01*
X118371428Y-102388095D01*
X118180952Y-102388095D01*
X118633333Y-102126190D02*
X118966666Y-102626190D01*
X118966666Y-102126190D02*
X118633333Y-102626190D01*
X116869047Y-102126190D02*
X117154761Y-102126190D01*
X117011904Y-102626190D02*
X117011904Y-102126190D01*
X117273809Y-102126190D02*
X117607142Y-102626190D01*
X117607142Y-102126190D02*
X117273809Y-102626190D01*
D13*
X103790476Y-105400000D02*
X103714285Y-105361904D01*
X103600000Y-105361904D01*
X103485714Y-105400000D01*
X103409523Y-105476190D01*
X103371428Y-105552380D01*
X103333333Y-105704761D01*
X103333333Y-105819047D01*
X103371428Y-105971428D01*
X103409523Y-106047619D01*
X103485714Y-106123809D01*
X103600000Y-106161904D01*
X103676190Y-106161904D01*
X103790476Y-106123809D01*
X103828571Y-106085714D01*
X103828571Y-105819047D01*
X103676190Y-105819047D01*
X104171428Y-106161904D02*
X104171428Y-105361904D01*
X104628571Y-106161904D01*
X104628571Y-105361904D01*
X105009523Y-106161904D02*
X105009523Y-105361904D01*
X105200000Y-105361904D01*
X105314285Y-105400000D01*
X105390476Y-105476190D01*
X105428571Y-105552380D01*
X105466666Y-105704761D01*
X105466666Y-105819047D01*
X105428571Y-105971428D01*
X105390476Y-106047619D01*
X105314285Y-106123809D01*
X105200000Y-106161904D01*
X105009523Y-106161904D01*
X101338095Y-105361904D02*
X101604761Y-106161904D01*
X101871428Y-105361904D01*
X102138095Y-105857142D02*
X102747619Y-105857142D01*
X102442857Y-106161904D02*
X102442857Y-105552380D01*
X126033333Y-105866666D02*
X126500000Y-105866666D01*
X126433333Y-105866666D02*
X126466666Y-105900000D01*
X126500000Y-105966666D01*
X126500000Y-106066666D01*
X126466666Y-106133333D01*
X126400000Y-106166666D01*
X126033333Y-106166666D01*
X126400000Y-106166666D02*
X126466666Y-106200000D01*
X126500000Y-106266666D01*
X126500000Y-106366666D01*
X126466666Y-106433333D01*
X126400000Y-106466666D01*
X126033333Y-106466666D01*
X126033333Y-106800000D02*
X126500000Y-106800000D01*
X126733333Y-106800000D02*
X126700000Y-106766666D01*
X126666666Y-106800000D01*
X126700000Y-106833333D01*
X126733333Y-106800000D01*
X126666666Y-106800000D01*
X126066666Y-107433333D02*
X126033333Y-107366666D01*
X126033333Y-107233333D01*
X126066666Y-107166666D01*
X126100000Y-107133333D01*
X126166666Y-107100000D01*
X126366666Y-107100000D01*
X126433333Y-107133333D01*
X126466666Y-107166666D01*
X126500000Y-107233333D01*
X126500000Y-107366666D01*
X126466666Y-107433333D01*
X126033333Y-107733333D02*
X126500000Y-107733333D01*
X126366666Y-107733333D02*
X126433333Y-107766666D01*
X126466666Y-107800000D01*
X126500000Y-107866666D01*
X126500000Y-107933333D01*
X126033333Y-108266666D02*
X126066666Y-108200000D01*
X126100000Y-108166666D01*
X126166666Y-108133333D01*
X126366666Y-108133333D01*
X126433333Y-108166666D01*
X126466666Y-108200000D01*
X126500000Y-108266666D01*
X126500000Y-108366666D01*
X126466666Y-108433333D01*
X126433333Y-108466666D01*
X126366666Y-108500000D01*
X126166666Y-108500000D01*
X126100000Y-108466666D01*
X126066666Y-108433333D01*
X126033333Y-108366666D01*
X126033333Y-108266666D01*
X126400000Y-109033333D02*
X126366666Y-109133333D01*
X126333333Y-109166666D01*
X126266666Y-109200000D01*
X126166666Y-109200000D01*
X126100000Y-109166666D01*
X126066666Y-109133333D01*
X126033333Y-109066666D01*
X126033333Y-108800000D01*
X126733333Y-108800000D01*
X126733333Y-109033333D01*
X126700000Y-109100000D01*
X126666666Y-109133333D01*
X126600000Y-109166666D01*
X126533333Y-109166666D01*
X126466666Y-109133333D01*
X126433333Y-109100000D01*
X126400000Y-109033333D01*
X126400000Y-108800000D01*
X126033333Y-109600000D02*
X126066666Y-109533333D01*
X126100000Y-109500000D01*
X126166666Y-109466666D01*
X126366666Y-109466666D01*
X126433333Y-109500000D01*
X126466666Y-109533333D01*
X126500000Y-109600000D01*
X126500000Y-109700000D01*
X126466666Y-109766666D01*
X126433333Y-109800000D01*
X126366666Y-109833333D01*
X126166666Y-109833333D01*
X126100000Y-109800000D01*
X126066666Y-109766666D01*
X126033333Y-109700000D01*
X126033333Y-109600000D01*
X126066666Y-110100000D02*
X126033333Y-110200000D01*
X126033333Y-110366666D01*
X126066666Y-110433333D01*
X126100000Y-110466666D01*
X126166666Y-110500000D01*
X126233333Y-110500000D01*
X126300000Y-110466666D01*
X126333333Y-110433333D01*
X126366666Y-110366666D01*
X126400000Y-110233333D01*
X126433333Y-110166666D01*
X126466666Y-110133333D01*
X126533333Y-110100000D01*
X126600000Y-110100000D01*
X126666666Y-110133333D01*
X126700000Y-110166666D01*
X126733333Y-110233333D01*
X126733333Y-110400000D01*
X126700000Y-110500000D01*
X126033333Y-111133333D02*
X126033333Y-110800000D01*
X126733333Y-110800000D01*
X124833333Y-106233333D02*
X125300000Y-106233333D01*
X125166666Y-106233333D02*
X125233333Y-106266666D01*
X125266666Y-106300000D01*
X125300000Y-106366666D01*
X125300000Y-106433333D01*
X124866666Y-106933333D02*
X124833333Y-106866666D01*
X124833333Y-106733333D01*
X124866666Y-106666666D01*
X124933333Y-106633333D01*
X125200000Y-106633333D01*
X125266666Y-106666666D01*
X125300000Y-106733333D01*
X125300000Y-106866666D01*
X125266666Y-106933333D01*
X125200000Y-106966666D01*
X125133333Y-106966666D01*
X125066666Y-106633333D01*
X125300000Y-107200000D02*
X124833333Y-107366666D01*
X125300000Y-107533333D01*
X125533333Y-108466666D02*
X125533333Y-108533333D01*
X125500000Y-108600000D01*
X125466666Y-108633333D01*
X125400000Y-108666666D01*
X125266666Y-108700000D01*
X125100000Y-108700000D01*
X124966666Y-108666666D01*
X124900000Y-108633333D01*
X124866666Y-108600000D01*
X124833333Y-108533333D01*
X124833333Y-108466666D01*
X124866666Y-108400000D01*
X124900000Y-108366666D01*
X124966666Y-108333333D01*
X125100000Y-108300000D01*
X125266666Y-108300000D01*
X125400000Y-108333333D01*
X125466666Y-108366666D01*
X125500000Y-108400000D01*
X125533333Y-108466666D01*
X124900000Y-109000000D02*
X124866666Y-109033333D01*
X124833333Y-109000000D01*
X124866666Y-108966666D01*
X124900000Y-109000000D01*
X124833333Y-109000000D01*
X125466666Y-109300000D02*
X125500000Y-109333333D01*
X125533333Y-109400000D01*
X125533333Y-109566666D01*
X125500000Y-109633333D01*
X125466666Y-109666666D01*
X125400000Y-109700000D01*
X125333333Y-109700000D01*
X125233333Y-109666666D01*
X124833333Y-109266666D01*
X124833333Y-109700000D01*
X124900000Y-110000000D02*
X124866666Y-110033333D01*
X124833333Y-110000000D01*
X124866666Y-109966666D01*
X124900000Y-110000000D01*
X124833333Y-110000000D01*
X125533333Y-110466666D02*
X125533333Y-110533333D01*
X125500000Y-110600000D01*
X125466666Y-110633333D01*
X125400000Y-110666666D01*
X125266666Y-110700000D01*
X125100000Y-110700000D01*
X124966666Y-110666666D01*
X124900000Y-110633333D01*
X124866666Y-110600000D01*
X124833333Y-110533333D01*
X124833333Y-110466666D01*
X124866666Y-110400000D01*
X124900000Y-110366666D01*
X124966666Y-110333333D01*
X125100000Y-110300000D01*
X125266666Y-110300000D01*
X125400000Y-110333333D01*
X125466666Y-110366666D01*
X125500000Y-110400000D01*
X125533333Y-110466666D01*
D14*
X116695000Y-102490000D02*
X116695000Y-103292470D01*
X116695000Y-103907530D02*
X116695000Y-104710000D01*
X119170000Y-102490000D02*
X116695000Y-102490000D01*
X119170000Y-104710000D02*
X116695000Y-104710000D01*
X119170000Y-102490000D02*
X119170000Y-103036529D01*
X119170000Y-104163471D02*
X119170000Y-104710000D01*
X119930000Y-102490000D02*
X120690000Y-102490000D01*
X120690000Y-102490000D02*
X120690000Y-103600000D01*
X121905000Y-114310000D02*
X121905000Y-113507530D01*
X121905000Y-112892470D02*
X121905000Y-112090000D01*
X118160000Y-114310000D02*
X121905000Y-114310000D01*
X118160000Y-112090000D02*
X121905000Y-112090000D01*
X118160000Y-114310000D02*
X118160000Y-113763471D01*
X118160000Y-112636529D02*
X118160000Y-112090000D01*
X117400000Y-114310000D02*
X116640000Y-114310000D01*
X116640000Y-114310000D02*
X116640000Y-113200000D01*
X120435000Y-102490000D02*
X120435000Y-103292470D01*
X120435000Y-103907530D02*
X120435000Y-104710000D01*
X124180000Y-102490000D02*
X120435000Y-102490000D01*
X124180000Y-104710000D02*
X120435000Y-104710000D01*
X124180000Y-102490000D02*
X124180000Y-103036529D01*
X124180000Y-104163471D02*
X124180000Y-104710000D01*
X124940000Y-102490000D02*
X125700000Y-102490000D01*
X125700000Y-102490000D02*
X125700000Y-103600000D01*
X119800000Y-108750000D02*
X119800000Y-106350000D01*
X119800000Y-106350000D02*
X118200000Y-106350000D01*
X118200000Y-106350000D02*
X118200000Y-108750000D01*
X131185000Y-106340000D02*
X131560000Y-106340000D01*
X131560000Y-106340000D02*
X131560000Y-106715000D01*
X127715000Y-110560000D02*
X127340000Y-110560000D01*
X127340000Y-110560000D02*
X127340000Y-110185000D01*
X131185000Y-110560000D02*
X131560000Y-110560000D01*
X131560000Y-110560000D02*
X131560000Y-110185000D01*
X127715000Y-106340000D02*
X127340000Y-106340000D01*
X116300000Y-106100000D02*
X116300000Y-103100000D01*
X116300000Y-103100000D02*
X106500000Y-103100000D01*
X106500000Y-103100000D02*
X106500000Y-106100000D01*
X106500000Y-106100000D02*
X116300000Y-106100000D01*
X111400000Y-103100000D02*
X111400000Y-102100000D01*
X111400000Y-102100000D02*
X112900000Y-102100000D01*
X112900000Y-102100000D02*
X112900000Y-103100000D01*
X131550000Y-104100000D02*
G75*
G02*
X130850000Y-104800000I-700000J0D01*
G01*
X130850000Y-102800000D02*
G75*
G02*
X131550000Y-103500000I0J-700000D01*
G01*
X128750000Y-103500000D02*
G75*
G02*
X129450000Y-102800000I700000J0D01*
G01*
X129450000Y-104800000D02*
G75*
G02*
X128750000Y-104100000I0J700000D01*
G01*
X131550000Y-103500000D02*
X131550000Y-104100000D01*
X129450000Y-102800000D02*
X130850000Y-102800000D01*
X128750000Y-104100000D02*
X128750000Y-103500000D01*
X130850000Y-104800000D02*
X129450000Y-104800000D01*
X112160000Y-111292164D02*
X112160000Y-111507836D01*
X111440000Y-111292164D02*
X111440000Y-111507836D01*
X111440000Y-109327836D02*
X111440000Y-109112164D01*
X112160000Y-109327836D02*
X112160000Y-109112164D01*
X126440000Y-103907836D02*
X126440000Y-103692164D01*
X127160000Y-103907836D02*
X127160000Y-103692164D01*
X133260000Y-103692164D02*
X133260000Y-103907836D01*
X132540000Y-103692164D02*
X132540000Y-103907836D01*
D13*
X121475000Y-107725000D02*
X123625000Y-107725000D01*
X120650000Y-105475000D02*
X123625000Y-105475000D01*
D14*
X134270000Y-114410000D02*
X139470000Y-114410000D01*
X134270000Y-109270000D02*
X134270000Y-114410000D01*
X139470000Y-106670000D02*
X139470000Y-114410000D01*
X134270000Y-109270000D02*
X136870000Y-109270000D01*
X136870000Y-109270000D02*
X136870000Y-106670000D01*
X136870000Y-106670000D02*
X139470000Y-106670000D01*
X134270000Y-108000000D02*
X134270000Y-106670000D01*
X134270000Y-106670000D02*
X135600000Y-106670000D01*
X110572500Y-113435000D02*
X110572500Y-113910000D01*
X110572500Y-113910000D02*
X110097500Y-113910000D01*
X105352500Y-109165000D02*
X105352500Y-108690000D01*
X105352500Y-108690000D02*
X105827500Y-108690000D01*
X105352500Y-113435000D02*
X105352500Y-113910000D01*
X105352500Y-113910000D02*
X105827500Y-113910000D01*
X110572500Y-109165000D02*
X110572500Y-108690000D01*
X103275000Y-108700000D02*
X104025000Y-108700000D01*
X104025000Y-108700000D02*
X104025000Y-109300000D01*
X104025000Y-108400000D02*
X104025000Y-106250000D01*
X104025000Y-114550000D02*
X100475000Y-114550000D01*
X100475000Y-106250000D02*
X100475000Y-109150000D01*
X104025000Y-106250000D02*
X100475000Y-106250000D01*
X100475000Y-114550000D02*
X100475000Y-111650000D01*
X104025000Y-112400000D02*
X104025000Y-114550000D01*
X139470000Y-105230000D02*
X139470000Y-102570000D01*
X136870000Y-105230000D02*
X139470000Y-105230000D01*
X136870000Y-102570000D02*
X139470000Y-102570000D01*
X136870000Y-105230000D02*
X136870000Y-102570000D01*
X135600000Y-105230000D02*
X134270000Y-105230000D01*
X134270000Y-105230000D02*
X134270000Y-103900000D01*
X100570000Y-102570000D02*
X100570000Y-105230000D01*
X103170000Y-102570000D02*
X100570000Y-102570000D01*
X103170000Y-105230000D02*
X100570000Y-105230000D01*
X103170000Y-102570000D02*
X103170000Y-105230000D01*
X104440000Y-102570000D02*
X105770000Y-102570000D01*
X105770000Y-102570000D02*
X105770000Y-103900000D01*
X133230000Y-111870000D02*
X133230000Y-113200000D01*
X131900000Y-111870000D02*
X133230000Y-111870000D01*
X130630000Y-111870000D02*
X130630000Y-114530000D01*
X130630000Y-114530000D02*
X122950000Y-114530000D01*
X130630000Y-111870000D02*
X122950000Y-111870000D01*
X122950000Y-111870000D02*
X122950000Y-114530000D01*
X113600000Y-111335000D02*
X115885000Y-111335000D01*
X115885000Y-111335000D02*
X115885000Y-109865000D01*
X115885000Y-109865000D02*
X113600000Y-109865000D01*
X114273000Y-113830000D02*
X114273000Y-111545000D01*
X114273000Y-111545000D02*
X112803000Y-111545000D01*
X112803000Y-111545000D02*
X112803000Y-113830000D01*
X116051000Y-113830000D02*
X116051000Y-111545000D01*
X116051000Y-111545000D02*
X114581000Y-111545000D01*
X114581000Y-111545000D02*
X114581000Y-113830000D01*
D12*
X127019047Y-105226190D02*
X127019047Y-105630952D01*
X127042857Y-105678571D01*
X127066666Y-105702380D01*
X127114285Y-105726190D01*
X127209523Y-105726190D01*
X127257142Y-105702380D01*
X127280952Y-105678571D01*
X127304761Y-105630952D01*
X127304761Y-105226190D01*
X127495238Y-105226190D02*
X127804761Y-105226190D01*
X127638095Y-105416666D01*
X127709523Y-105416666D01*
X127757142Y-105440476D01*
X127780952Y-105464285D01*
X127804761Y-105511904D01*
X127804761Y-105630952D01*
X127780952Y-105678571D01*
X127757142Y-105702380D01*
X127709523Y-105726190D01*
X127566666Y-105726190D01*
X127519047Y-105702380D01*
X127495238Y-105678571D01*
D13*
X129666666Y-105716666D02*
X129433333Y-105383333D01*
X129266666Y-105716666D02*
X129266666Y-105016666D01*
X129533333Y-105016666D01*
X129600000Y-105050000D01*
X129633333Y-105083333D01*
X129666666Y-105150000D01*
X129666666Y-105250000D01*
X129633333Y-105316666D01*
X129600000Y-105350000D01*
X129533333Y-105383333D01*
X129266666Y-105383333D01*
X129933333Y-105683333D02*
X130033333Y-105716666D01*
X130200000Y-105716666D01*
X130266666Y-105683333D01*
X130300000Y-105650000D01*
X130333333Y-105583333D01*
X130333333Y-105516666D01*
X130300000Y-105450000D01*
X130266666Y-105416666D01*
X130200000Y-105383333D01*
X130066666Y-105350000D01*
X130000000Y-105316666D01*
X129966666Y-105283333D01*
X129933333Y-105216666D01*
X129933333Y-105150000D01*
X129966666Y-105083333D01*
X130000000Y-105050000D01*
X130066666Y-105016666D01*
X130233333Y-105016666D01*
X130333333Y-105050000D01*
X130533333Y-105016666D02*
X130933333Y-105016666D01*
X130733333Y-105716666D02*
X130733333Y-105016666D01*
D12*
X120719047Y-104826190D02*
X120719047Y-105230952D01*
X120742857Y-105278571D01*
X120766666Y-105302380D01*
X120814285Y-105326190D01*
X120909523Y-105326190D01*
X120957142Y-105302380D01*
X120980952Y-105278571D01*
X121004761Y-105230952D01*
X121004761Y-104826190D01*
X121457142Y-104826190D02*
X121361904Y-104826190D01*
X121314285Y-104850000D01*
X121290476Y-104873809D01*
X121242857Y-104945238D01*
X121219047Y-105040476D01*
X121219047Y-105230952D01*
X121242857Y-105278571D01*
X121266666Y-105302380D01*
X121314285Y-105326190D01*
X121409523Y-105326190D01*
X121457142Y-105302380D01*
X121480952Y-105278571D01*
X121504761Y-105230952D01*
X121504761Y-105111904D01*
X121480952Y-105064285D01*
X121457142Y-105040476D01*
X121409523Y-105016666D01*
X121314285Y-105016666D01*
X121266666Y-105040476D01*
X121242857Y-105064285D01*
X121219047Y-105111904D01*
X110119047Y-107526190D02*
X110119047Y-107930952D01*
X110142857Y-107978571D01*
X110166666Y-108002380D01*
X110214285Y-108026190D01*
X110309523Y-108026190D01*
X110357142Y-108002380D01*
X110380952Y-107978571D01*
X110404761Y-107930952D01*
X110404761Y-107526190D01*
X110595238Y-107526190D02*
X110928571Y-107526190D01*
X110714285Y-108026190D01*
M02*
