G04 #@! TF.GenerationSoftware,KiCad,Pcbnew,(5.1.9)-1*
G04 #@! TF.CreationDate,2021-05-17T22:57:24+10:00*
G04 #@! TF.ProjectId,microBoSL-panel,6d696372-6f42-46f5-934c-2d70616e656c,rev?*
G04 #@! TF.SameCoordinates,Original*
G04 #@! TF.FileFunction,Profile,NP*
%FSLAX46Y46*%
G04 Gerber Fmt 4.6, Leading zero omitted, Abs format (unit mm)*
G04 Created by KiCad (PCBNEW (5.1.9)-1) date 2021-05-17 22:57:24*
%MOMM*%
%LPD*%
G01*
G04 APERTURE LIST*
G04 #@! TA.AperFunction,Profile*
%ADD10C,0.100000*%
G04 #@! TD*
G04 APERTURE END LIST*
D10*
X22500000Y-66510000D02*
X22500000Y-53490000D01*
X22510000Y-66610000D02*
X22500000Y-66510000D01*
X22520000Y-66700000D02*
X22510000Y-66610000D01*
X22540000Y-66800000D02*
X22520000Y-66700000D01*
X22580000Y-66890000D02*
X22540000Y-66800000D01*
X22620000Y-66980000D02*
X22580000Y-66890000D01*
X22670000Y-67060000D02*
X22620000Y-66980000D01*
X22730000Y-67140000D02*
X22670000Y-67060000D01*
X22790000Y-67210000D02*
X22730000Y-67140000D01*
X22860000Y-67280000D02*
X22790000Y-67210000D01*
X22940000Y-67330000D02*
X22860000Y-67280000D01*
X23020000Y-67380000D02*
X22940000Y-67330000D01*
X23110000Y-67420000D02*
X23020000Y-67380000D01*
X23200000Y-67460000D02*
X23110000Y-67420000D01*
X23300000Y-67480000D02*
X23200000Y-67460000D01*
X23390000Y-67500000D02*
X23300000Y-67480000D01*
X23490000Y-67500000D02*
X23390000Y-67500000D01*
X26510000Y-67500000D02*
X23490000Y-67500000D01*
X26610000Y-67500000D02*
X26510000Y-67500000D01*
X26700000Y-67480000D02*
X26610000Y-67500000D01*
X26800000Y-67460000D02*
X26700000Y-67480000D01*
X26890000Y-67420000D02*
X26800000Y-67460000D01*
X26980000Y-67380000D02*
X26890000Y-67420000D01*
X27060000Y-67330000D02*
X26980000Y-67380000D01*
X27140000Y-67280000D02*
X27060000Y-67330000D01*
X27210000Y-67210000D02*
X27140000Y-67280000D01*
X27270000Y-67140000D02*
X27210000Y-67210000D01*
X27330000Y-67060000D02*
X27270000Y-67140000D01*
X27380000Y-66980000D02*
X27330000Y-67060000D01*
X27420000Y-66890000D02*
X27380000Y-66980000D01*
X27460000Y-66800000D02*
X27420000Y-66890000D01*
X27480000Y-66700000D02*
X27460000Y-66800000D01*
X27490000Y-66610000D02*
X27480000Y-66700000D01*
X27500000Y-66510000D02*
X27490000Y-66610000D01*
X27500000Y-63500000D02*
X27500000Y-66510000D01*
X27500000Y-63450000D02*
X27500000Y-63500000D01*
X27500000Y-63400000D02*
X27500000Y-63450000D01*
X27510000Y-63350000D02*
X27500000Y-63400000D01*
X27520000Y-63300000D02*
X27510000Y-63350000D01*
X27530000Y-63240000D02*
X27520000Y-63300000D01*
X27540000Y-63200000D02*
X27530000Y-63240000D01*
X27560000Y-63160000D02*
X27540000Y-63200000D01*
X27580000Y-63110000D02*
X27560000Y-63160000D01*
X27600000Y-63050000D02*
X27580000Y-63110000D01*
X27620000Y-63010000D02*
X27600000Y-63050000D01*
X27650000Y-62980000D02*
X27620000Y-63010000D01*
X27680000Y-62930000D02*
X27650000Y-62980000D01*
X27710000Y-62880000D02*
X27680000Y-62930000D01*
X27740000Y-62850000D02*
X27710000Y-62880000D01*
X27770000Y-62820000D02*
X27740000Y-62850000D01*
X27810000Y-62770000D02*
X27770000Y-62820000D01*
X27850000Y-62740000D02*
X27810000Y-62770000D01*
X27890000Y-62710000D02*
X27850000Y-62740000D01*
X27920000Y-62680000D02*
X27890000Y-62710000D01*
X27970000Y-62650000D02*
X27920000Y-62680000D01*
X28010000Y-62620000D02*
X27970000Y-62650000D01*
X28060000Y-62600000D02*
X28010000Y-62620000D01*
X28110000Y-62580000D02*
X28060000Y-62600000D01*
X28150000Y-62560000D02*
X28110000Y-62580000D01*
X28200000Y-62550000D02*
X28150000Y-62560000D01*
X28250000Y-62530000D02*
X28200000Y-62550000D01*
X28290000Y-62520000D02*
X28250000Y-62530000D01*
X28350000Y-62510000D02*
X28290000Y-62520000D01*
X28400000Y-62500000D02*
X28350000Y-62510000D01*
X28440000Y-62500000D02*
X28400000Y-62500000D01*
X28500000Y-62500000D02*
X28440000Y-62500000D01*
X39010000Y-62500000D02*
X28500000Y-62500000D01*
X39110000Y-62490000D02*
X39010000Y-62500000D01*
X39200000Y-62480000D02*
X39110000Y-62490000D01*
X39300000Y-62460000D02*
X39200000Y-62480000D01*
X39390000Y-62420000D02*
X39300000Y-62460000D01*
X39480000Y-62380000D02*
X39390000Y-62420000D01*
X39560000Y-62330000D02*
X39480000Y-62380000D01*
X39640000Y-62270000D02*
X39560000Y-62330000D01*
X39710000Y-62210000D02*
X39640000Y-62270000D01*
X39780000Y-62140000D02*
X39710000Y-62210000D01*
X39830000Y-62060000D02*
X39780000Y-62140000D01*
X39880000Y-61980000D02*
X39830000Y-62060000D01*
X39920000Y-61890000D02*
X39880000Y-61980000D01*
X39960000Y-61800000D02*
X39920000Y-61890000D01*
X39980000Y-61700000D02*
X39960000Y-61800000D01*
X40000000Y-61610000D02*
X39980000Y-61700000D01*
X40000000Y-61510000D02*
X40000000Y-61610000D01*
X40000000Y-58490000D02*
X40000000Y-61510000D01*
X40000000Y-58390000D02*
X40000000Y-58490000D01*
X39980000Y-58300000D02*
X40000000Y-58390000D01*
X39960000Y-58200000D02*
X39980000Y-58300000D01*
X39920000Y-58110000D02*
X39960000Y-58200000D01*
X39880000Y-58020000D02*
X39920000Y-58110000D01*
X39830000Y-57940000D02*
X39880000Y-58020000D01*
X39780000Y-57860000D02*
X39830000Y-57940000D01*
X39710000Y-57790000D02*
X39780000Y-57860000D01*
X39640000Y-57730000D02*
X39710000Y-57790000D01*
X39560000Y-57670000D02*
X39640000Y-57730000D01*
X39480000Y-57620000D02*
X39560000Y-57670000D01*
X39390000Y-57580000D02*
X39480000Y-57620000D01*
X39300000Y-57540000D02*
X39390000Y-57580000D01*
X39200000Y-57520000D02*
X39300000Y-57540000D01*
X39110000Y-57510000D02*
X39200000Y-57520000D01*
X39010000Y-57500000D02*
X39110000Y-57510000D01*
X28500000Y-57500000D02*
X39010000Y-57500000D01*
X28450000Y-57500000D02*
X28500000Y-57500000D01*
X28390000Y-57500000D02*
X28450000Y-57500000D01*
X28350000Y-57490000D02*
X28390000Y-57500000D01*
X28300000Y-57480000D02*
X28350000Y-57490000D01*
X28260000Y-57470000D02*
X28300000Y-57480000D01*
X28200000Y-57450000D02*
X28260000Y-57470000D01*
X28150000Y-57440000D02*
X28200000Y-57450000D01*
X28110000Y-57420000D02*
X28150000Y-57440000D01*
X28060000Y-57400000D02*
X28110000Y-57420000D01*
X28010000Y-57380000D02*
X28060000Y-57400000D01*
X27970000Y-57350000D02*
X28010000Y-57380000D01*
X27930000Y-57320000D02*
X27970000Y-57350000D01*
X27890000Y-57300000D02*
X27930000Y-57320000D01*
X27850000Y-57260000D02*
X27890000Y-57300000D01*
X27810000Y-57220000D02*
X27850000Y-57260000D01*
X27770000Y-57190000D02*
X27810000Y-57220000D01*
X27740000Y-57160000D02*
X27770000Y-57190000D01*
X27710000Y-57110000D02*
X27740000Y-57160000D01*
X27670000Y-57070000D02*
X27710000Y-57110000D01*
X27650000Y-57030000D02*
X27670000Y-57070000D01*
X27630000Y-56990000D02*
X27650000Y-57030000D01*
X27600000Y-56940000D02*
X27630000Y-56990000D01*
X27580000Y-56890000D02*
X27600000Y-56940000D01*
X27560000Y-56850000D02*
X27580000Y-56890000D01*
X27550000Y-56810000D02*
X27560000Y-56850000D01*
X27530000Y-56750000D02*
X27550000Y-56810000D01*
X27520000Y-56700000D02*
X27530000Y-56750000D01*
X27510000Y-56650000D02*
X27520000Y-56700000D01*
X27500000Y-56600000D02*
X27510000Y-56650000D01*
X27500000Y-56560000D02*
X27500000Y-56600000D01*
X27500000Y-56500000D02*
X27500000Y-56560000D01*
X27500000Y-53490000D02*
X27500000Y-56500000D01*
X27490000Y-53390000D02*
X27500000Y-53490000D01*
X27480000Y-53300000D02*
X27490000Y-53390000D01*
X27460000Y-53200000D02*
X27480000Y-53300000D01*
X27420000Y-53110000D02*
X27460000Y-53200000D01*
X27380000Y-53020000D02*
X27420000Y-53110000D01*
X27330000Y-52940000D02*
X27380000Y-53020000D01*
X27270000Y-52860000D02*
X27330000Y-52940000D01*
X27210000Y-52790000D02*
X27270000Y-52860000D01*
X27140000Y-52720000D02*
X27210000Y-52790000D01*
X27060000Y-52670000D02*
X27140000Y-52720000D01*
X26980000Y-52620000D02*
X27060000Y-52670000D01*
X26890000Y-52580000D02*
X26980000Y-52620000D01*
X26800000Y-52540000D02*
X26890000Y-52580000D01*
X26700000Y-52520000D02*
X26800000Y-52540000D01*
X26610000Y-52500000D02*
X26700000Y-52520000D01*
X26510000Y-52500000D02*
X26610000Y-52500000D01*
X23490000Y-52500000D02*
X26510000Y-52500000D01*
X23390000Y-52500000D02*
X23490000Y-52500000D01*
X23300000Y-52520000D02*
X23390000Y-52500000D01*
X23200000Y-52540000D02*
X23300000Y-52520000D01*
X23110000Y-52580000D02*
X23200000Y-52540000D01*
X23020000Y-52620000D02*
X23110000Y-52580000D01*
X22940000Y-52670000D02*
X23020000Y-52620000D01*
X22860000Y-52720000D02*
X22940000Y-52670000D01*
X22790000Y-52790000D02*
X22860000Y-52720000D01*
X22730000Y-52860000D02*
X22790000Y-52790000D01*
X22670000Y-52940000D02*
X22730000Y-52860000D01*
X22620000Y-53020000D02*
X22670000Y-52940000D01*
X22580000Y-53110000D02*
X22620000Y-53020000D01*
X22540000Y-53200000D02*
X22580000Y-53110000D01*
X22520000Y-53300000D02*
X22540000Y-53200000D01*
X22510000Y-53390000D02*
X22520000Y-53300000D01*
X22500000Y-53490000D02*
X22510000Y-53390000D01*
X22500000Y-86510000D02*
X22500000Y-73490000D01*
X22510000Y-86610000D02*
X22500000Y-86510000D01*
X22520000Y-86700000D02*
X22510000Y-86610000D01*
X22540000Y-86800000D02*
X22520000Y-86700000D01*
X22580000Y-86890000D02*
X22540000Y-86800000D01*
X22620000Y-86980000D02*
X22580000Y-86890000D01*
X22670000Y-87060000D02*
X22620000Y-86980000D01*
X22730000Y-87140000D02*
X22670000Y-87060000D01*
X22790000Y-87210000D02*
X22730000Y-87140000D01*
X22860000Y-87280000D02*
X22790000Y-87210000D01*
X22940000Y-87330000D02*
X22860000Y-87280000D01*
X23020000Y-87380000D02*
X22940000Y-87330000D01*
X23110000Y-87420000D02*
X23020000Y-87380000D01*
X23200000Y-87460000D02*
X23110000Y-87420000D01*
X23300000Y-87480000D02*
X23200000Y-87460000D01*
X23390000Y-87500000D02*
X23300000Y-87480000D01*
X23490000Y-87500000D02*
X23390000Y-87500000D01*
X26510000Y-87500000D02*
X23490000Y-87500000D01*
X26610000Y-87500000D02*
X26510000Y-87500000D01*
X26700000Y-87480000D02*
X26610000Y-87500000D01*
X26800000Y-87460000D02*
X26700000Y-87480000D01*
X26890000Y-87420000D02*
X26800000Y-87460000D01*
X26980000Y-87380000D02*
X26890000Y-87420000D01*
X27060000Y-87330000D02*
X26980000Y-87380000D01*
X27140000Y-87280000D02*
X27060000Y-87330000D01*
X27210000Y-87210000D02*
X27140000Y-87280000D01*
X27270000Y-87140000D02*
X27210000Y-87210000D01*
X27330000Y-87060000D02*
X27270000Y-87140000D01*
X27380000Y-86980000D02*
X27330000Y-87060000D01*
X27420000Y-86890000D02*
X27380000Y-86980000D01*
X27460000Y-86800000D02*
X27420000Y-86890000D01*
X27480000Y-86700000D02*
X27460000Y-86800000D01*
X27490000Y-86610000D02*
X27480000Y-86700000D01*
X27500000Y-86510000D02*
X27490000Y-86610000D01*
X27500000Y-83500000D02*
X27500000Y-86510000D01*
X27500000Y-83450000D02*
X27500000Y-83500000D01*
X27500000Y-83400000D02*
X27500000Y-83450000D01*
X27510000Y-83350000D02*
X27500000Y-83400000D01*
X27520000Y-83300000D02*
X27510000Y-83350000D01*
X27530000Y-83240000D02*
X27520000Y-83300000D01*
X27540000Y-83200000D02*
X27530000Y-83240000D01*
X27560000Y-83160000D02*
X27540000Y-83200000D01*
X27580000Y-83110000D02*
X27560000Y-83160000D01*
X27600000Y-83050000D02*
X27580000Y-83110000D01*
X27620000Y-83010000D02*
X27600000Y-83050000D01*
X27650000Y-82980000D02*
X27620000Y-83010000D01*
X27680000Y-82930000D02*
X27650000Y-82980000D01*
X27710000Y-82880000D02*
X27680000Y-82930000D01*
X27740000Y-82850000D02*
X27710000Y-82880000D01*
X27770000Y-82820000D02*
X27740000Y-82850000D01*
X27810000Y-82770000D02*
X27770000Y-82820000D01*
X27850000Y-82740000D02*
X27810000Y-82770000D01*
X27890000Y-82710000D02*
X27850000Y-82740000D01*
X27920000Y-82680000D02*
X27890000Y-82710000D01*
X27970000Y-82650000D02*
X27920000Y-82680000D01*
X28010000Y-82620000D02*
X27970000Y-82650000D01*
X28060000Y-82600000D02*
X28010000Y-82620000D01*
X28110000Y-82580000D02*
X28060000Y-82600000D01*
X28150000Y-82560000D02*
X28110000Y-82580000D01*
X28200000Y-82550000D02*
X28150000Y-82560000D01*
X28250000Y-82530000D02*
X28200000Y-82550000D01*
X28290000Y-82520000D02*
X28250000Y-82530000D01*
X28350000Y-82510000D02*
X28290000Y-82520000D01*
X28400000Y-82500000D02*
X28350000Y-82510000D01*
X28440000Y-82500000D02*
X28400000Y-82500000D01*
X28500000Y-82500000D02*
X28440000Y-82500000D01*
X39010000Y-82500000D02*
X28500000Y-82500000D01*
X39110000Y-82490000D02*
X39010000Y-82500000D01*
X39200000Y-82480000D02*
X39110000Y-82490000D01*
X39300000Y-82460000D02*
X39200000Y-82480000D01*
X39390000Y-82420000D02*
X39300000Y-82460000D01*
X39480000Y-82380000D02*
X39390000Y-82420000D01*
X39560000Y-82330000D02*
X39480000Y-82380000D01*
X39640000Y-82270000D02*
X39560000Y-82330000D01*
X39710000Y-82210000D02*
X39640000Y-82270000D01*
X39780000Y-82140000D02*
X39710000Y-82210000D01*
X39830000Y-82060000D02*
X39780000Y-82140000D01*
X39880000Y-81980000D02*
X39830000Y-82060000D01*
X39920000Y-81890000D02*
X39880000Y-81980000D01*
X39960000Y-81800000D02*
X39920000Y-81890000D01*
X39980000Y-81700000D02*
X39960000Y-81800000D01*
X40000000Y-81610000D02*
X39980000Y-81700000D01*
X40000000Y-81510000D02*
X40000000Y-81610000D01*
X40000000Y-78490000D02*
X40000000Y-81510000D01*
X40000000Y-78390000D02*
X40000000Y-78490000D01*
X39980000Y-78300000D02*
X40000000Y-78390000D01*
X39960000Y-78200000D02*
X39980000Y-78300000D01*
X39920000Y-78110000D02*
X39960000Y-78200000D01*
X39880000Y-78020000D02*
X39920000Y-78110000D01*
X39830000Y-77940000D02*
X39880000Y-78020000D01*
X39780000Y-77860000D02*
X39830000Y-77940000D01*
X39710000Y-77790000D02*
X39780000Y-77860000D01*
X39640000Y-77730000D02*
X39710000Y-77790000D01*
X39560000Y-77670000D02*
X39640000Y-77730000D01*
X39480000Y-77620000D02*
X39560000Y-77670000D01*
X39390000Y-77580000D02*
X39480000Y-77620000D01*
X39300000Y-77540000D02*
X39390000Y-77580000D01*
X39200000Y-77520000D02*
X39300000Y-77540000D01*
X39110000Y-77510000D02*
X39200000Y-77520000D01*
X39010000Y-77500000D02*
X39110000Y-77510000D01*
X28500000Y-77500000D02*
X39010000Y-77500000D01*
X28450000Y-77500000D02*
X28500000Y-77500000D01*
X28390000Y-77500000D02*
X28450000Y-77500000D01*
X28350000Y-77490000D02*
X28390000Y-77500000D01*
X28300000Y-77480000D02*
X28350000Y-77490000D01*
X28260000Y-77470000D02*
X28300000Y-77480000D01*
X28200000Y-77450000D02*
X28260000Y-77470000D01*
X28150000Y-77440000D02*
X28200000Y-77450000D01*
X28110000Y-77420000D02*
X28150000Y-77440000D01*
X28060000Y-77400000D02*
X28110000Y-77420000D01*
X28010000Y-77380000D02*
X28060000Y-77400000D01*
X27970000Y-77350000D02*
X28010000Y-77380000D01*
X27930000Y-77320000D02*
X27970000Y-77350000D01*
X27890000Y-77300000D02*
X27930000Y-77320000D01*
X27850000Y-77260000D02*
X27890000Y-77300000D01*
X27810000Y-77220000D02*
X27850000Y-77260000D01*
X27770000Y-77190000D02*
X27810000Y-77220000D01*
X27740000Y-77160000D02*
X27770000Y-77190000D01*
X27710000Y-77110000D02*
X27740000Y-77160000D01*
X27670000Y-77070000D02*
X27710000Y-77110000D01*
X27650000Y-77030000D02*
X27670000Y-77070000D01*
X27630000Y-76990000D02*
X27650000Y-77030000D01*
X27600000Y-76940000D02*
X27630000Y-76990000D01*
X27580000Y-76890000D02*
X27600000Y-76940000D01*
X27560000Y-76850000D02*
X27580000Y-76890000D01*
X27550000Y-76810000D02*
X27560000Y-76850000D01*
X27530000Y-76750000D02*
X27550000Y-76810000D01*
X27520000Y-76700000D02*
X27530000Y-76750000D01*
X27510000Y-76650000D02*
X27520000Y-76700000D01*
X27500000Y-76600000D02*
X27510000Y-76650000D01*
X27500000Y-76560000D02*
X27500000Y-76600000D01*
X27500000Y-76500000D02*
X27500000Y-76560000D01*
X27500000Y-73490000D02*
X27500000Y-76500000D01*
X27490000Y-73390000D02*
X27500000Y-73490000D01*
X27480000Y-73300000D02*
X27490000Y-73390000D01*
X27460000Y-73200000D02*
X27480000Y-73300000D01*
X27420000Y-73110000D02*
X27460000Y-73200000D01*
X27380000Y-73020000D02*
X27420000Y-73110000D01*
X27330000Y-72940000D02*
X27380000Y-73020000D01*
X27270000Y-72860000D02*
X27330000Y-72940000D01*
X27210000Y-72790000D02*
X27270000Y-72860000D01*
X27140000Y-72720000D02*
X27210000Y-72790000D01*
X27060000Y-72670000D02*
X27140000Y-72720000D01*
X26980000Y-72620000D02*
X27060000Y-72670000D01*
X26890000Y-72580000D02*
X26980000Y-72620000D01*
X26800000Y-72540000D02*
X26890000Y-72580000D01*
X26700000Y-72520000D02*
X26800000Y-72540000D01*
X26610000Y-72500000D02*
X26700000Y-72520000D01*
X26510000Y-72500000D02*
X26610000Y-72500000D01*
X23490000Y-72500000D02*
X26510000Y-72500000D01*
X23390000Y-72500000D02*
X23490000Y-72500000D01*
X23300000Y-72520000D02*
X23390000Y-72500000D01*
X23200000Y-72540000D02*
X23300000Y-72520000D01*
X23110000Y-72580000D02*
X23200000Y-72540000D01*
X23020000Y-72620000D02*
X23110000Y-72580000D01*
X22940000Y-72670000D02*
X23020000Y-72620000D01*
X22860000Y-72720000D02*
X22940000Y-72670000D01*
X22790000Y-72790000D02*
X22860000Y-72720000D01*
X22730000Y-72860000D02*
X22790000Y-72790000D01*
X22670000Y-72940000D02*
X22730000Y-72860000D01*
X22620000Y-73020000D02*
X22670000Y-72940000D01*
X22580000Y-73110000D02*
X22620000Y-73020000D01*
X22540000Y-73200000D02*
X22580000Y-73110000D01*
X22520000Y-73300000D02*
X22540000Y-73200000D01*
X22510000Y-73390000D02*
X22520000Y-73300000D01*
X22500000Y-73490000D02*
X22510000Y-73390000D01*
X22500000Y-106510000D02*
X22500000Y-93490000D01*
X22510000Y-106610000D02*
X22500000Y-106510000D01*
X22520000Y-106700000D02*
X22510000Y-106610000D01*
X22540000Y-106800000D02*
X22520000Y-106700000D01*
X22580000Y-106890000D02*
X22540000Y-106800000D01*
X22620000Y-106980000D02*
X22580000Y-106890000D01*
X22670000Y-107060000D02*
X22620000Y-106980000D01*
X22730000Y-107140000D02*
X22670000Y-107060000D01*
X22790000Y-107210000D02*
X22730000Y-107140000D01*
X22860000Y-107280000D02*
X22790000Y-107210000D01*
X22940000Y-107330000D02*
X22860000Y-107280000D01*
X23020000Y-107380000D02*
X22940000Y-107330000D01*
X23110000Y-107420000D02*
X23020000Y-107380000D01*
X23200000Y-107460000D02*
X23110000Y-107420000D01*
X23300000Y-107480000D02*
X23200000Y-107460000D01*
X23390000Y-107500000D02*
X23300000Y-107480000D01*
X23490000Y-107500000D02*
X23390000Y-107500000D01*
X26510000Y-107500000D02*
X23490000Y-107500000D01*
X26610000Y-107500000D02*
X26510000Y-107500000D01*
X26700000Y-107480000D02*
X26610000Y-107500000D01*
X26800000Y-107460000D02*
X26700000Y-107480000D01*
X26890000Y-107420000D02*
X26800000Y-107460000D01*
X26980000Y-107380000D02*
X26890000Y-107420000D01*
X27060000Y-107330000D02*
X26980000Y-107380000D01*
X27140000Y-107280000D02*
X27060000Y-107330000D01*
X27210000Y-107210000D02*
X27140000Y-107280000D01*
X27270000Y-107140000D02*
X27210000Y-107210000D01*
X27330000Y-107060000D02*
X27270000Y-107140000D01*
X27380000Y-106980000D02*
X27330000Y-107060000D01*
X27420000Y-106890000D02*
X27380000Y-106980000D01*
X27460000Y-106800000D02*
X27420000Y-106890000D01*
X27480000Y-106700000D02*
X27460000Y-106800000D01*
X27490000Y-106610000D02*
X27480000Y-106700000D01*
X27500000Y-106510000D02*
X27490000Y-106610000D01*
X27500000Y-103500000D02*
X27500000Y-106510000D01*
X27500000Y-103450000D02*
X27500000Y-103500000D01*
X27500000Y-103400000D02*
X27500000Y-103450000D01*
X27510000Y-103350000D02*
X27500000Y-103400000D01*
X27520000Y-103300000D02*
X27510000Y-103350000D01*
X27530000Y-103240000D02*
X27520000Y-103300000D01*
X27540000Y-103200000D02*
X27530000Y-103240000D01*
X27560000Y-103160000D02*
X27540000Y-103200000D01*
X27580000Y-103110000D02*
X27560000Y-103160000D01*
X27600000Y-103050000D02*
X27580000Y-103110000D01*
X27620000Y-103010000D02*
X27600000Y-103050000D01*
X27650000Y-102980000D02*
X27620000Y-103010000D01*
X27680000Y-102930000D02*
X27650000Y-102980000D01*
X27710000Y-102880000D02*
X27680000Y-102930000D01*
X27740000Y-102850000D02*
X27710000Y-102880000D01*
X27770000Y-102820000D02*
X27740000Y-102850000D01*
X27810000Y-102770000D02*
X27770000Y-102820000D01*
X27850000Y-102740000D02*
X27810000Y-102770000D01*
X27890000Y-102710000D02*
X27850000Y-102740000D01*
X27920000Y-102680000D02*
X27890000Y-102710000D01*
X27970000Y-102650000D02*
X27920000Y-102680000D01*
X28010000Y-102620000D02*
X27970000Y-102650000D01*
X28060000Y-102600000D02*
X28010000Y-102620000D01*
X28110000Y-102580000D02*
X28060000Y-102600000D01*
X28150000Y-102560000D02*
X28110000Y-102580000D01*
X28200000Y-102550000D02*
X28150000Y-102560000D01*
X28250000Y-102530000D02*
X28200000Y-102550000D01*
X28290000Y-102520000D02*
X28250000Y-102530000D01*
X28350000Y-102510000D02*
X28290000Y-102520000D01*
X28400000Y-102500000D02*
X28350000Y-102510000D01*
X28440000Y-102500000D02*
X28400000Y-102500000D01*
X28500000Y-102500000D02*
X28440000Y-102500000D01*
X39010000Y-102500000D02*
X28500000Y-102500000D01*
X39110000Y-102490000D02*
X39010000Y-102500000D01*
X39200000Y-102480000D02*
X39110000Y-102490000D01*
X39300000Y-102460000D02*
X39200000Y-102480000D01*
X39390000Y-102420000D02*
X39300000Y-102460000D01*
X39480000Y-102380000D02*
X39390000Y-102420000D01*
X39560000Y-102330000D02*
X39480000Y-102380000D01*
X39640000Y-102270000D02*
X39560000Y-102330000D01*
X39710000Y-102210000D02*
X39640000Y-102270000D01*
X39780000Y-102140000D02*
X39710000Y-102210000D01*
X39830000Y-102060000D02*
X39780000Y-102140000D01*
X39880000Y-101980000D02*
X39830000Y-102060000D01*
X39920000Y-101890000D02*
X39880000Y-101980000D01*
X39960000Y-101800000D02*
X39920000Y-101890000D01*
X39980000Y-101700000D02*
X39960000Y-101800000D01*
X40000000Y-101610000D02*
X39980000Y-101700000D01*
X40000000Y-101510000D02*
X40000000Y-101610000D01*
X40000000Y-98490000D02*
X40000000Y-101510000D01*
X40000000Y-98390000D02*
X40000000Y-98490000D01*
X39980000Y-98300000D02*
X40000000Y-98390000D01*
X39960000Y-98200000D02*
X39980000Y-98300000D01*
X39920000Y-98110000D02*
X39960000Y-98200000D01*
X39880000Y-98020000D02*
X39920000Y-98110000D01*
X39830000Y-97940000D02*
X39880000Y-98020000D01*
X39780000Y-97860000D02*
X39830000Y-97940000D01*
X39710000Y-97790000D02*
X39780000Y-97860000D01*
X39640000Y-97730000D02*
X39710000Y-97790000D01*
X39560000Y-97670000D02*
X39640000Y-97730000D01*
X39480000Y-97620000D02*
X39560000Y-97670000D01*
X39390000Y-97580000D02*
X39480000Y-97620000D01*
X39300000Y-97540000D02*
X39390000Y-97580000D01*
X39200000Y-97520000D02*
X39300000Y-97540000D01*
X39110000Y-97510000D02*
X39200000Y-97520000D01*
X39010000Y-97500000D02*
X39110000Y-97510000D01*
X28500000Y-97500000D02*
X39010000Y-97500000D01*
X28450000Y-97500000D02*
X28500000Y-97500000D01*
X28390000Y-97500000D02*
X28450000Y-97500000D01*
X28350000Y-97490000D02*
X28390000Y-97500000D01*
X28300000Y-97480000D02*
X28350000Y-97490000D01*
X28260000Y-97470000D02*
X28300000Y-97480000D01*
X28200000Y-97450000D02*
X28260000Y-97470000D01*
X28150000Y-97440000D02*
X28200000Y-97450000D01*
X28110000Y-97420000D02*
X28150000Y-97440000D01*
X28060000Y-97400000D02*
X28110000Y-97420000D01*
X28010000Y-97380000D02*
X28060000Y-97400000D01*
X27970000Y-97350000D02*
X28010000Y-97380000D01*
X27930000Y-97320000D02*
X27970000Y-97350000D01*
X27890000Y-97300000D02*
X27930000Y-97320000D01*
X27850000Y-97260000D02*
X27890000Y-97300000D01*
X27810000Y-97220000D02*
X27850000Y-97260000D01*
X27770000Y-97190000D02*
X27810000Y-97220000D01*
X27740000Y-97160000D02*
X27770000Y-97190000D01*
X27710000Y-97110000D02*
X27740000Y-97160000D01*
X27670000Y-97070000D02*
X27710000Y-97110000D01*
X27650000Y-97030000D02*
X27670000Y-97070000D01*
X27630000Y-96990000D02*
X27650000Y-97030000D01*
X27600000Y-96940000D02*
X27630000Y-96990000D01*
X27580000Y-96890000D02*
X27600000Y-96940000D01*
X27560000Y-96850000D02*
X27580000Y-96890000D01*
X27550000Y-96810000D02*
X27560000Y-96850000D01*
X27530000Y-96750000D02*
X27550000Y-96810000D01*
X27520000Y-96700000D02*
X27530000Y-96750000D01*
X27510000Y-96650000D02*
X27520000Y-96700000D01*
X27500000Y-96600000D02*
X27510000Y-96650000D01*
X27500000Y-96560000D02*
X27500000Y-96600000D01*
X27500000Y-96500000D02*
X27500000Y-96560000D01*
X27500000Y-93490000D02*
X27500000Y-96500000D01*
X27490000Y-93390000D02*
X27500000Y-93490000D01*
X27480000Y-93300000D02*
X27490000Y-93390000D01*
X27460000Y-93200000D02*
X27480000Y-93300000D01*
X27420000Y-93110000D02*
X27460000Y-93200000D01*
X27380000Y-93020000D02*
X27420000Y-93110000D01*
X27330000Y-92940000D02*
X27380000Y-93020000D01*
X27270000Y-92860000D02*
X27330000Y-92940000D01*
X27210000Y-92790000D02*
X27270000Y-92860000D01*
X27140000Y-92720000D02*
X27210000Y-92790000D01*
X27060000Y-92670000D02*
X27140000Y-92720000D01*
X26980000Y-92620000D02*
X27060000Y-92670000D01*
X26890000Y-92580000D02*
X26980000Y-92620000D01*
X26800000Y-92540000D02*
X26890000Y-92580000D01*
X26700000Y-92520000D02*
X26800000Y-92540000D01*
X26610000Y-92500000D02*
X26700000Y-92520000D01*
X26510000Y-92500000D02*
X26610000Y-92500000D01*
X23490000Y-92500000D02*
X26510000Y-92500000D01*
X23390000Y-92500000D02*
X23490000Y-92500000D01*
X23300000Y-92520000D02*
X23390000Y-92500000D01*
X23200000Y-92540000D02*
X23300000Y-92520000D01*
X23110000Y-92580000D02*
X23200000Y-92540000D01*
X23020000Y-92620000D02*
X23110000Y-92580000D01*
X22940000Y-92670000D02*
X23020000Y-92620000D01*
X22860000Y-92720000D02*
X22940000Y-92670000D01*
X22790000Y-92790000D02*
X22860000Y-92720000D01*
X22730000Y-92860000D02*
X22790000Y-92790000D01*
X22670000Y-92940000D02*
X22730000Y-92860000D01*
X22620000Y-93020000D02*
X22670000Y-92940000D01*
X22580000Y-93110000D02*
X22620000Y-93020000D01*
X22540000Y-93200000D02*
X22580000Y-93110000D01*
X22520000Y-93300000D02*
X22540000Y-93200000D01*
X22510000Y-93390000D02*
X22520000Y-93300000D01*
X22500000Y-93490000D02*
X22510000Y-93390000D01*
X22500000Y-126510000D02*
X22500000Y-113490000D01*
X22510000Y-126610000D02*
X22500000Y-126510000D01*
X22520000Y-126700000D02*
X22510000Y-126610000D01*
X22540000Y-126800000D02*
X22520000Y-126700000D01*
X22580000Y-126890000D02*
X22540000Y-126800000D01*
X22620000Y-126980000D02*
X22580000Y-126890000D01*
X22670000Y-127060000D02*
X22620000Y-126980000D01*
X22730000Y-127140000D02*
X22670000Y-127060000D01*
X22790000Y-127210000D02*
X22730000Y-127140000D01*
X22860000Y-127280000D02*
X22790000Y-127210000D01*
X22940000Y-127330000D02*
X22860000Y-127280000D01*
X23020000Y-127380000D02*
X22940000Y-127330000D01*
X23110000Y-127420000D02*
X23020000Y-127380000D01*
X23200000Y-127460000D02*
X23110000Y-127420000D01*
X23300000Y-127480000D02*
X23200000Y-127460000D01*
X23390000Y-127500000D02*
X23300000Y-127480000D01*
X23490000Y-127500000D02*
X23390000Y-127500000D01*
X26510000Y-127500000D02*
X23490000Y-127500000D01*
X26610000Y-127500000D02*
X26510000Y-127500000D01*
X26700000Y-127480000D02*
X26610000Y-127500000D01*
X26800000Y-127460000D02*
X26700000Y-127480000D01*
X26890000Y-127420000D02*
X26800000Y-127460000D01*
X26980000Y-127380000D02*
X26890000Y-127420000D01*
X27060000Y-127330000D02*
X26980000Y-127380000D01*
X27140000Y-127280000D02*
X27060000Y-127330000D01*
X27210000Y-127210000D02*
X27140000Y-127280000D01*
X27270000Y-127140000D02*
X27210000Y-127210000D01*
X27330000Y-127060000D02*
X27270000Y-127140000D01*
X27380000Y-126980000D02*
X27330000Y-127060000D01*
X27420000Y-126890000D02*
X27380000Y-126980000D01*
X27460000Y-126800000D02*
X27420000Y-126890000D01*
X27480000Y-126700000D02*
X27460000Y-126800000D01*
X27490000Y-126610000D02*
X27480000Y-126700000D01*
X27500000Y-126510000D02*
X27490000Y-126610000D01*
X27500000Y-123500000D02*
X27500000Y-126510000D01*
X27500000Y-123450000D02*
X27500000Y-123500000D01*
X27500000Y-123400000D02*
X27500000Y-123450000D01*
X27510000Y-123350000D02*
X27500000Y-123400000D01*
X27520000Y-123300000D02*
X27510000Y-123350000D01*
X27530000Y-123240000D02*
X27520000Y-123300000D01*
X27540000Y-123200000D02*
X27530000Y-123240000D01*
X27560000Y-123160000D02*
X27540000Y-123200000D01*
X27580000Y-123110000D02*
X27560000Y-123160000D01*
X27600000Y-123050000D02*
X27580000Y-123110000D01*
X27620000Y-123010000D02*
X27600000Y-123050000D01*
X27650000Y-122980000D02*
X27620000Y-123010000D01*
X27680000Y-122930000D02*
X27650000Y-122980000D01*
X27710000Y-122880000D02*
X27680000Y-122930000D01*
X27740000Y-122850000D02*
X27710000Y-122880000D01*
X27770000Y-122820000D02*
X27740000Y-122850000D01*
X27810000Y-122770000D02*
X27770000Y-122820000D01*
X27850000Y-122740000D02*
X27810000Y-122770000D01*
X27890000Y-122710000D02*
X27850000Y-122740000D01*
X27920000Y-122680000D02*
X27890000Y-122710000D01*
X27970000Y-122650000D02*
X27920000Y-122680000D01*
X28010000Y-122620000D02*
X27970000Y-122650000D01*
X28060000Y-122600000D02*
X28010000Y-122620000D01*
X28110000Y-122580000D02*
X28060000Y-122600000D01*
X28150000Y-122560000D02*
X28110000Y-122580000D01*
X28200000Y-122550000D02*
X28150000Y-122560000D01*
X28250000Y-122530000D02*
X28200000Y-122550000D01*
X28290000Y-122520000D02*
X28250000Y-122530000D01*
X28350000Y-122510000D02*
X28290000Y-122520000D01*
X28400000Y-122500000D02*
X28350000Y-122510000D01*
X28440000Y-122500000D02*
X28400000Y-122500000D01*
X28500000Y-122500000D02*
X28440000Y-122500000D01*
X39010000Y-122500000D02*
X28500000Y-122500000D01*
X39110000Y-122490000D02*
X39010000Y-122500000D01*
X39200000Y-122480000D02*
X39110000Y-122490000D01*
X39300000Y-122460000D02*
X39200000Y-122480000D01*
X39390000Y-122420000D02*
X39300000Y-122460000D01*
X39480000Y-122380000D02*
X39390000Y-122420000D01*
X39560000Y-122330000D02*
X39480000Y-122380000D01*
X39640000Y-122270000D02*
X39560000Y-122330000D01*
X39710000Y-122210000D02*
X39640000Y-122270000D01*
X39780000Y-122140000D02*
X39710000Y-122210000D01*
X39830000Y-122060000D02*
X39780000Y-122140000D01*
X39880000Y-121980000D02*
X39830000Y-122060000D01*
X39920000Y-121890000D02*
X39880000Y-121980000D01*
X39960000Y-121800000D02*
X39920000Y-121890000D01*
X39980000Y-121700000D02*
X39960000Y-121800000D01*
X40000000Y-121610000D02*
X39980000Y-121700000D01*
X40000000Y-121510000D02*
X40000000Y-121610000D01*
X40000000Y-118490000D02*
X40000000Y-121510000D01*
X40000000Y-118390000D02*
X40000000Y-118490000D01*
X39980000Y-118300000D02*
X40000000Y-118390000D01*
X39960000Y-118200000D02*
X39980000Y-118300000D01*
X39920000Y-118110000D02*
X39960000Y-118200000D01*
X39880000Y-118020000D02*
X39920000Y-118110000D01*
X39830000Y-117940000D02*
X39880000Y-118020000D01*
X39780000Y-117860000D02*
X39830000Y-117940000D01*
X39710000Y-117790000D02*
X39780000Y-117860000D01*
X39640000Y-117730000D02*
X39710000Y-117790000D01*
X39560000Y-117670000D02*
X39640000Y-117730000D01*
X39480000Y-117620000D02*
X39560000Y-117670000D01*
X39390000Y-117580000D02*
X39480000Y-117620000D01*
X39300000Y-117540000D02*
X39390000Y-117580000D01*
X39200000Y-117520000D02*
X39300000Y-117540000D01*
X39110000Y-117510000D02*
X39200000Y-117520000D01*
X39010000Y-117500000D02*
X39110000Y-117510000D01*
X28500000Y-117500000D02*
X39010000Y-117500000D01*
X28450000Y-117500000D02*
X28500000Y-117500000D01*
X28390000Y-117500000D02*
X28450000Y-117500000D01*
X28350000Y-117490000D02*
X28390000Y-117500000D01*
X28300000Y-117480000D02*
X28350000Y-117490000D01*
X28260000Y-117470000D02*
X28300000Y-117480000D01*
X28200000Y-117450000D02*
X28260000Y-117470000D01*
X28150000Y-117440000D02*
X28200000Y-117450000D01*
X28110000Y-117420000D02*
X28150000Y-117440000D01*
X28060000Y-117400000D02*
X28110000Y-117420000D01*
X28010000Y-117380000D02*
X28060000Y-117400000D01*
X27970000Y-117350000D02*
X28010000Y-117380000D01*
X27930000Y-117320000D02*
X27970000Y-117350000D01*
X27890000Y-117300000D02*
X27930000Y-117320000D01*
X27850000Y-117260000D02*
X27890000Y-117300000D01*
X27810000Y-117220000D02*
X27850000Y-117260000D01*
X27770000Y-117190000D02*
X27810000Y-117220000D01*
X27740000Y-117160000D02*
X27770000Y-117190000D01*
X27710000Y-117110000D02*
X27740000Y-117160000D01*
X27670000Y-117070000D02*
X27710000Y-117110000D01*
X27650000Y-117030000D02*
X27670000Y-117070000D01*
X27630000Y-116990000D02*
X27650000Y-117030000D01*
X27600000Y-116940000D02*
X27630000Y-116990000D01*
X27580000Y-116890000D02*
X27600000Y-116940000D01*
X27560000Y-116850000D02*
X27580000Y-116890000D01*
X27550000Y-116810000D02*
X27560000Y-116850000D01*
X27530000Y-116750000D02*
X27550000Y-116810000D01*
X27520000Y-116700000D02*
X27530000Y-116750000D01*
X27510000Y-116650000D02*
X27520000Y-116700000D01*
X27500000Y-116600000D02*
X27510000Y-116650000D01*
X27500000Y-116560000D02*
X27500000Y-116600000D01*
X27500000Y-116500000D02*
X27500000Y-116560000D01*
X27500000Y-113490000D02*
X27500000Y-116500000D01*
X27490000Y-113390000D02*
X27500000Y-113490000D01*
X27480000Y-113300000D02*
X27490000Y-113390000D01*
X27460000Y-113200000D02*
X27480000Y-113300000D01*
X27420000Y-113110000D02*
X27460000Y-113200000D01*
X27380000Y-113020000D02*
X27420000Y-113110000D01*
X27330000Y-112940000D02*
X27380000Y-113020000D01*
X27270000Y-112860000D02*
X27330000Y-112940000D01*
X27210000Y-112790000D02*
X27270000Y-112860000D01*
X27140000Y-112720000D02*
X27210000Y-112790000D01*
X27060000Y-112670000D02*
X27140000Y-112720000D01*
X26980000Y-112620000D02*
X27060000Y-112670000D01*
X26890000Y-112580000D02*
X26980000Y-112620000D01*
X26800000Y-112540000D02*
X26890000Y-112580000D01*
X26700000Y-112520000D02*
X26800000Y-112540000D01*
X26610000Y-112500000D02*
X26700000Y-112520000D01*
X26510000Y-112500000D02*
X26610000Y-112500000D01*
X23490000Y-112500000D02*
X26510000Y-112500000D01*
X23390000Y-112500000D02*
X23490000Y-112500000D01*
X23300000Y-112520000D02*
X23390000Y-112500000D01*
X23200000Y-112540000D02*
X23300000Y-112520000D01*
X23110000Y-112580000D02*
X23200000Y-112540000D01*
X23020000Y-112620000D02*
X23110000Y-112580000D01*
X22940000Y-112670000D02*
X23020000Y-112620000D01*
X22860000Y-112720000D02*
X22940000Y-112670000D01*
X22790000Y-112790000D02*
X22860000Y-112720000D01*
X22730000Y-112860000D02*
X22790000Y-112790000D01*
X22670000Y-112940000D02*
X22730000Y-112860000D01*
X22620000Y-113020000D02*
X22670000Y-112940000D01*
X22580000Y-113110000D02*
X22620000Y-113020000D01*
X22540000Y-113200000D02*
X22580000Y-113110000D01*
X22520000Y-113300000D02*
X22540000Y-113200000D01*
X22510000Y-113390000D02*
X22520000Y-113300000D01*
X22500000Y-113490000D02*
X22510000Y-113390000D01*
X45000000Y-101510000D02*
X45000000Y-98490000D01*
X45010000Y-101610000D02*
X45000000Y-101510000D01*
X45020000Y-101700000D02*
X45010000Y-101610000D01*
X45040000Y-101800000D02*
X45020000Y-101700000D01*
X45080000Y-101890000D02*
X45040000Y-101800000D01*
X45120000Y-101980000D02*
X45080000Y-101890000D01*
X45170000Y-102060000D02*
X45120000Y-101980000D01*
X45230000Y-102140000D02*
X45170000Y-102060000D01*
X45290000Y-102210000D02*
X45230000Y-102140000D01*
X45360000Y-102270000D02*
X45290000Y-102210000D01*
X45440000Y-102330000D02*
X45360000Y-102270000D01*
X45520000Y-102380000D02*
X45440000Y-102330000D01*
X45610000Y-102420000D02*
X45520000Y-102380000D01*
X45700000Y-102460000D02*
X45610000Y-102420000D01*
X45800000Y-102480000D02*
X45700000Y-102460000D01*
X45890000Y-102490000D02*
X45800000Y-102480000D01*
X45990000Y-102500000D02*
X45890000Y-102490000D01*
X54010000Y-102500000D02*
X45990000Y-102500000D01*
X54110000Y-102490000D02*
X54010000Y-102500000D01*
X54200000Y-102480000D02*
X54110000Y-102490000D01*
X54300000Y-102460000D02*
X54200000Y-102480000D01*
X54390000Y-102420000D02*
X54300000Y-102460000D01*
X54480000Y-102380000D02*
X54390000Y-102420000D01*
X54560000Y-102330000D02*
X54480000Y-102380000D01*
X54640000Y-102270000D02*
X54560000Y-102330000D01*
X54710000Y-102210000D02*
X54640000Y-102270000D01*
X54770000Y-102140000D02*
X54710000Y-102210000D01*
X54830000Y-102060000D02*
X54770000Y-102140000D01*
X54880000Y-101980000D02*
X54830000Y-102060000D01*
X54920000Y-101890000D02*
X54880000Y-101980000D01*
X54960000Y-101800000D02*
X54920000Y-101890000D01*
X54980000Y-101700000D02*
X54960000Y-101800000D01*
X54990000Y-101610000D02*
X54980000Y-101700000D01*
X55000000Y-101510000D02*
X54990000Y-101610000D01*
X55000000Y-98490000D02*
X55000000Y-101510000D01*
X54990000Y-98390000D02*
X55000000Y-98490000D01*
X54980000Y-98300000D02*
X54990000Y-98390000D01*
X54960000Y-98200000D02*
X54980000Y-98300000D01*
X54920000Y-98110000D02*
X54960000Y-98200000D01*
X54880000Y-98020000D02*
X54920000Y-98110000D01*
X54830000Y-97940000D02*
X54880000Y-98020000D01*
X54770000Y-97860000D02*
X54830000Y-97940000D01*
X54710000Y-97790000D02*
X54770000Y-97860000D01*
X54640000Y-97730000D02*
X54710000Y-97790000D01*
X54560000Y-97670000D02*
X54640000Y-97730000D01*
X54480000Y-97620000D02*
X54560000Y-97670000D01*
X54390000Y-97580000D02*
X54480000Y-97620000D01*
X54300000Y-97540000D02*
X54390000Y-97580000D01*
X54200000Y-97520000D02*
X54300000Y-97540000D01*
X54110000Y-97510000D02*
X54200000Y-97520000D01*
X54010000Y-97500000D02*
X54110000Y-97510000D01*
X45990000Y-97500000D02*
X54010000Y-97500000D01*
X45890000Y-97510000D02*
X45990000Y-97500000D01*
X45800000Y-97520000D02*
X45890000Y-97510000D01*
X45700000Y-97540000D02*
X45800000Y-97520000D01*
X45610000Y-97580000D02*
X45700000Y-97540000D01*
X45520000Y-97620000D02*
X45610000Y-97580000D01*
X45440000Y-97670000D02*
X45520000Y-97620000D01*
X45360000Y-97730000D02*
X45440000Y-97670000D01*
X45290000Y-97790000D02*
X45360000Y-97730000D01*
X45230000Y-97860000D02*
X45290000Y-97790000D01*
X45170000Y-97940000D02*
X45230000Y-97860000D01*
X45120000Y-98020000D02*
X45170000Y-97940000D01*
X45080000Y-98110000D02*
X45120000Y-98020000D01*
X45040000Y-98200000D02*
X45080000Y-98110000D01*
X45020000Y-98300000D02*
X45040000Y-98200000D01*
X45010000Y-98390000D02*
X45020000Y-98300000D01*
X45000000Y-98490000D02*
X45010000Y-98390000D01*
X45000000Y-121510000D02*
X45000000Y-118490000D01*
X45010000Y-121610000D02*
X45000000Y-121510000D01*
X45020000Y-121700000D02*
X45010000Y-121610000D01*
X45040000Y-121800000D02*
X45020000Y-121700000D01*
X45080000Y-121890000D02*
X45040000Y-121800000D01*
X45120000Y-121980000D02*
X45080000Y-121890000D01*
X45170000Y-122060000D02*
X45120000Y-121980000D01*
X45230000Y-122140000D02*
X45170000Y-122060000D01*
X45290000Y-122210000D02*
X45230000Y-122140000D01*
X45360000Y-122270000D02*
X45290000Y-122210000D01*
X45440000Y-122330000D02*
X45360000Y-122270000D01*
X45520000Y-122380000D02*
X45440000Y-122330000D01*
X45610000Y-122420000D02*
X45520000Y-122380000D01*
X45700000Y-122460000D02*
X45610000Y-122420000D01*
X45800000Y-122480000D02*
X45700000Y-122460000D01*
X45890000Y-122490000D02*
X45800000Y-122480000D01*
X45990000Y-122500000D02*
X45890000Y-122490000D01*
X54010000Y-122500000D02*
X45990000Y-122500000D01*
X54110000Y-122490000D02*
X54010000Y-122500000D01*
X54200000Y-122480000D02*
X54110000Y-122490000D01*
X54300000Y-122460000D02*
X54200000Y-122480000D01*
X54390000Y-122420000D02*
X54300000Y-122460000D01*
X54480000Y-122380000D02*
X54390000Y-122420000D01*
X54560000Y-122330000D02*
X54480000Y-122380000D01*
X54640000Y-122270000D02*
X54560000Y-122330000D01*
X54710000Y-122210000D02*
X54640000Y-122270000D01*
X54770000Y-122140000D02*
X54710000Y-122210000D01*
X54830000Y-122060000D02*
X54770000Y-122140000D01*
X54880000Y-121980000D02*
X54830000Y-122060000D01*
X54920000Y-121890000D02*
X54880000Y-121980000D01*
X54960000Y-121800000D02*
X54920000Y-121890000D01*
X54980000Y-121700000D02*
X54960000Y-121800000D01*
X54990000Y-121610000D02*
X54980000Y-121700000D01*
X55000000Y-121510000D02*
X54990000Y-121610000D01*
X55000000Y-118490000D02*
X55000000Y-121510000D01*
X54990000Y-118390000D02*
X55000000Y-118490000D01*
X54980000Y-118300000D02*
X54990000Y-118390000D01*
X54960000Y-118200000D02*
X54980000Y-118300000D01*
X54920000Y-118110000D02*
X54960000Y-118200000D01*
X54880000Y-118020000D02*
X54920000Y-118110000D01*
X54830000Y-117940000D02*
X54880000Y-118020000D01*
X54770000Y-117860000D02*
X54830000Y-117940000D01*
X54710000Y-117790000D02*
X54770000Y-117860000D01*
X54640000Y-117730000D02*
X54710000Y-117790000D01*
X54560000Y-117670000D02*
X54640000Y-117730000D01*
X54480000Y-117620000D02*
X54560000Y-117670000D01*
X54390000Y-117580000D02*
X54480000Y-117620000D01*
X54300000Y-117540000D02*
X54390000Y-117580000D01*
X54200000Y-117520000D02*
X54300000Y-117540000D01*
X54110000Y-117510000D02*
X54200000Y-117520000D01*
X54010000Y-117500000D02*
X54110000Y-117510000D01*
X45990000Y-117500000D02*
X54010000Y-117500000D01*
X45890000Y-117510000D02*
X45990000Y-117500000D01*
X45800000Y-117520000D02*
X45890000Y-117510000D01*
X45700000Y-117540000D02*
X45800000Y-117520000D01*
X45610000Y-117580000D02*
X45700000Y-117540000D01*
X45520000Y-117620000D02*
X45610000Y-117580000D01*
X45440000Y-117670000D02*
X45520000Y-117620000D01*
X45360000Y-117730000D02*
X45440000Y-117670000D01*
X45290000Y-117790000D02*
X45360000Y-117730000D01*
X45230000Y-117860000D02*
X45290000Y-117790000D01*
X45170000Y-117940000D02*
X45230000Y-117860000D01*
X45120000Y-118020000D02*
X45170000Y-117940000D01*
X45080000Y-118110000D02*
X45120000Y-118020000D01*
X45040000Y-118200000D02*
X45080000Y-118110000D01*
X45020000Y-118300000D02*
X45040000Y-118200000D01*
X45010000Y-118390000D02*
X45020000Y-118300000D01*
X45000000Y-118490000D02*
X45010000Y-118390000D01*
X54010000Y-82500000D02*
X45990000Y-82500000D01*
X54110000Y-82490000D02*
X54010000Y-82500000D01*
X54200000Y-82480000D02*
X54110000Y-82490000D01*
X54300000Y-82460000D02*
X54200000Y-82480000D01*
X54390000Y-82420000D02*
X54300000Y-82460000D01*
X54480000Y-82380000D02*
X54390000Y-82420000D01*
X54560000Y-82330000D02*
X54480000Y-82380000D01*
X54640000Y-82270000D02*
X54560000Y-82330000D01*
X54710000Y-82210000D02*
X54640000Y-82270000D01*
X54770000Y-82140000D02*
X54710000Y-82210000D01*
X54830000Y-82060000D02*
X54770000Y-82140000D01*
X54880000Y-81980000D02*
X54830000Y-82060000D01*
X54920000Y-81890000D02*
X54880000Y-81980000D01*
X54960000Y-81800000D02*
X54920000Y-81890000D01*
X54980000Y-81700000D02*
X54960000Y-81800000D01*
X54990000Y-81610000D02*
X54980000Y-81700000D01*
X55000000Y-81510000D02*
X54990000Y-81610000D01*
X55000000Y-78490000D02*
X55000000Y-81510000D01*
X54990000Y-78390000D02*
X55000000Y-78490000D01*
X54980000Y-78300000D02*
X54990000Y-78390000D01*
X54960000Y-78200000D02*
X54980000Y-78300000D01*
X54920000Y-78110000D02*
X54960000Y-78200000D01*
X54880000Y-78020000D02*
X54920000Y-78110000D01*
X54830000Y-77940000D02*
X54880000Y-78020000D01*
X54770000Y-77860000D02*
X54830000Y-77940000D01*
X54710000Y-77790000D02*
X54770000Y-77860000D01*
X54640000Y-77730000D02*
X54710000Y-77790000D01*
X54560000Y-77670000D02*
X54640000Y-77730000D01*
X54480000Y-77620000D02*
X54560000Y-77670000D01*
X54390000Y-77580000D02*
X54480000Y-77620000D01*
X54300000Y-77540000D02*
X54390000Y-77580000D01*
X54200000Y-77520000D02*
X54300000Y-77540000D01*
X54110000Y-77510000D02*
X54200000Y-77520000D01*
X54010000Y-77500000D02*
X54110000Y-77510000D01*
X45990000Y-77500000D02*
X54010000Y-77500000D01*
X45890000Y-77510000D02*
X45990000Y-77500000D01*
X45800000Y-77520000D02*
X45890000Y-77510000D01*
X45700000Y-77540000D02*
X45800000Y-77520000D01*
X45610000Y-77580000D02*
X45700000Y-77540000D01*
X45520000Y-77620000D02*
X45610000Y-77580000D01*
X45440000Y-77670000D02*
X45520000Y-77620000D01*
X45360000Y-77730000D02*
X45440000Y-77670000D01*
X45290000Y-77790000D02*
X45360000Y-77730000D01*
X45230000Y-77860000D02*
X45290000Y-77790000D01*
X45170000Y-77940000D02*
X45230000Y-77860000D01*
X45120000Y-78020000D02*
X45170000Y-77940000D01*
X45080000Y-78110000D02*
X45120000Y-78020000D01*
X45040000Y-78200000D02*
X45080000Y-78110000D01*
X45020000Y-78300000D02*
X45040000Y-78200000D01*
X45010000Y-78390000D02*
X45020000Y-78300000D01*
X45000000Y-78490000D02*
X45010000Y-78390000D01*
X45000000Y-81510000D02*
X45000000Y-78490000D01*
X45010000Y-81610000D02*
X45000000Y-81510000D01*
X45020000Y-81700000D02*
X45010000Y-81610000D01*
X45040000Y-81800000D02*
X45020000Y-81700000D01*
X45080000Y-81890000D02*
X45040000Y-81800000D01*
X45120000Y-81980000D02*
X45080000Y-81890000D01*
X45170000Y-82060000D02*
X45120000Y-81980000D01*
X45230000Y-82140000D02*
X45170000Y-82060000D01*
X45290000Y-82210000D02*
X45230000Y-82140000D01*
X45360000Y-82270000D02*
X45290000Y-82210000D01*
X45440000Y-82330000D02*
X45360000Y-82270000D01*
X45520000Y-82380000D02*
X45440000Y-82330000D01*
X45610000Y-82420000D02*
X45520000Y-82380000D01*
X45700000Y-82460000D02*
X45610000Y-82420000D01*
X45800000Y-82480000D02*
X45700000Y-82460000D01*
X45890000Y-82490000D02*
X45800000Y-82480000D01*
X45990000Y-82500000D02*
X45890000Y-82490000D01*
X54010000Y-62500000D02*
X45990000Y-62500000D01*
X54110000Y-62490000D02*
X54010000Y-62500000D01*
X54200000Y-62480000D02*
X54110000Y-62490000D01*
X54300000Y-62460000D02*
X54200000Y-62480000D01*
X54390000Y-62420000D02*
X54300000Y-62460000D01*
X54480000Y-62380000D02*
X54390000Y-62420000D01*
X54560000Y-62330000D02*
X54480000Y-62380000D01*
X54640000Y-62270000D02*
X54560000Y-62330000D01*
X54710000Y-62210000D02*
X54640000Y-62270000D01*
X54770000Y-62140000D02*
X54710000Y-62210000D01*
X54830000Y-62060000D02*
X54770000Y-62140000D01*
X54880000Y-61980000D02*
X54830000Y-62060000D01*
X54920000Y-61890000D02*
X54880000Y-61980000D01*
X54960000Y-61800000D02*
X54920000Y-61890000D01*
X54980000Y-61700000D02*
X54960000Y-61800000D01*
X54990000Y-61610000D02*
X54980000Y-61700000D01*
X55000000Y-61510000D02*
X54990000Y-61610000D01*
X55000000Y-58490000D02*
X55000000Y-61510000D01*
X54990000Y-58390000D02*
X55000000Y-58490000D01*
X54980000Y-58300000D02*
X54990000Y-58390000D01*
X54960000Y-58200000D02*
X54980000Y-58300000D01*
X54920000Y-58110000D02*
X54960000Y-58200000D01*
X54880000Y-58020000D02*
X54920000Y-58110000D01*
X54830000Y-57940000D02*
X54880000Y-58020000D01*
X54770000Y-57860000D02*
X54830000Y-57940000D01*
X54710000Y-57790000D02*
X54770000Y-57860000D01*
X54640000Y-57730000D02*
X54710000Y-57790000D01*
X54560000Y-57670000D02*
X54640000Y-57730000D01*
X54480000Y-57620000D02*
X54560000Y-57670000D01*
X54390000Y-57580000D02*
X54480000Y-57620000D01*
X54300000Y-57540000D02*
X54390000Y-57580000D01*
X54200000Y-57520000D02*
X54300000Y-57540000D01*
X54110000Y-57510000D02*
X54200000Y-57520000D01*
X54010000Y-57500000D02*
X54110000Y-57510000D01*
X45990000Y-57500000D02*
X54010000Y-57500000D01*
X45890000Y-57510000D02*
X45990000Y-57500000D01*
X45800000Y-57520000D02*
X45890000Y-57510000D01*
X45700000Y-57540000D02*
X45800000Y-57520000D01*
X45610000Y-57580000D02*
X45700000Y-57540000D01*
X45520000Y-57620000D02*
X45610000Y-57580000D01*
X45440000Y-57670000D02*
X45520000Y-57620000D01*
X45360000Y-57730000D02*
X45440000Y-57670000D01*
X45290000Y-57790000D02*
X45360000Y-57730000D01*
X45230000Y-57860000D02*
X45290000Y-57790000D01*
X45170000Y-57940000D02*
X45230000Y-57860000D01*
X45120000Y-58020000D02*
X45170000Y-57940000D01*
X45080000Y-58110000D02*
X45120000Y-58020000D01*
X45040000Y-58200000D02*
X45080000Y-58110000D01*
X45020000Y-58300000D02*
X45040000Y-58200000D01*
X45010000Y-58390000D02*
X45020000Y-58300000D01*
X45000000Y-58490000D02*
X45010000Y-58390000D01*
X45000000Y-61510000D02*
X45000000Y-58490000D01*
X45010000Y-61610000D02*
X45000000Y-61510000D01*
X45020000Y-61700000D02*
X45010000Y-61610000D01*
X45040000Y-61800000D02*
X45020000Y-61700000D01*
X45080000Y-61890000D02*
X45040000Y-61800000D01*
X45120000Y-61980000D02*
X45080000Y-61890000D01*
X45170000Y-62060000D02*
X45120000Y-61980000D01*
X45230000Y-62140000D02*
X45170000Y-62060000D01*
X45290000Y-62210000D02*
X45230000Y-62140000D01*
X45360000Y-62270000D02*
X45290000Y-62210000D01*
X45440000Y-62330000D02*
X45360000Y-62270000D01*
X45520000Y-62380000D02*
X45440000Y-62330000D01*
X45610000Y-62420000D02*
X45520000Y-62380000D01*
X45700000Y-62460000D02*
X45610000Y-62420000D01*
X45800000Y-62480000D02*
X45700000Y-62460000D01*
X45890000Y-62490000D02*
X45800000Y-62480000D01*
X45990000Y-62500000D02*
X45890000Y-62490000D01*
X60000000Y-101510000D02*
X60000000Y-98490000D01*
X60000000Y-101610000D02*
X60000000Y-101510000D01*
X60020000Y-101700000D02*
X60000000Y-101610000D01*
X60040000Y-101800000D02*
X60020000Y-101700000D01*
X60080000Y-101890000D02*
X60040000Y-101800000D01*
X60120000Y-101980000D02*
X60080000Y-101890000D01*
X60170000Y-102060000D02*
X60120000Y-101980000D01*
X60220000Y-102140000D02*
X60170000Y-102060000D01*
X60290000Y-102210000D02*
X60220000Y-102140000D01*
X60360000Y-102270000D02*
X60290000Y-102210000D01*
X60440000Y-102330000D02*
X60360000Y-102270000D01*
X60520000Y-102380000D02*
X60440000Y-102330000D01*
X60610000Y-102420000D02*
X60520000Y-102380000D01*
X60700000Y-102460000D02*
X60610000Y-102420000D01*
X60800000Y-102480000D02*
X60700000Y-102460000D01*
X60890000Y-102490000D02*
X60800000Y-102480000D01*
X60990000Y-102500000D02*
X60890000Y-102490000D01*
X71500000Y-102500000D02*
X60990000Y-102500000D01*
X71550000Y-102500000D02*
X71500000Y-102500000D01*
X71590000Y-102500000D02*
X71550000Y-102500000D01*
X71650000Y-102510000D02*
X71590000Y-102500000D01*
X71700000Y-102520000D02*
X71650000Y-102510000D01*
X71740000Y-102530000D02*
X71700000Y-102520000D01*
X71800000Y-102540000D02*
X71740000Y-102530000D01*
X71850000Y-102560000D02*
X71800000Y-102540000D01*
X71890000Y-102580000D02*
X71850000Y-102560000D01*
X71940000Y-102600000D02*
X71890000Y-102580000D01*
X71990000Y-102630000D02*
X71940000Y-102600000D01*
X72030000Y-102650000D02*
X71990000Y-102630000D01*
X72070000Y-102680000D02*
X72030000Y-102650000D01*
X72110000Y-102710000D02*
X72070000Y-102680000D01*
X72150000Y-102740000D02*
X72110000Y-102710000D01*
X72190000Y-102770000D02*
X72150000Y-102740000D01*
X72230000Y-102810000D02*
X72190000Y-102770000D01*
X72260000Y-102850000D02*
X72230000Y-102810000D01*
X72290000Y-102890000D02*
X72260000Y-102850000D01*
X72320000Y-102930000D02*
X72290000Y-102890000D01*
X72350000Y-102980000D02*
X72320000Y-102930000D01*
X72380000Y-103010000D02*
X72350000Y-102980000D01*
X72400000Y-103060000D02*
X72380000Y-103010000D01*
X72420000Y-103110000D02*
X72400000Y-103060000D01*
X72440000Y-103150000D02*
X72420000Y-103110000D01*
X72450000Y-103190000D02*
X72440000Y-103150000D01*
X72470000Y-103250000D02*
X72450000Y-103190000D01*
X72480000Y-103300000D02*
X72470000Y-103250000D01*
X72490000Y-103350000D02*
X72480000Y-103300000D01*
X72500000Y-103390000D02*
X72490000Y-103350000D01*
X72500000Y-103450000D02*
X72500000Y-103390000D01*
X72500000Y-103500000D02*
X72500000Y-103450000D01*
X72500000Y-106510000D02*
X72500000Y-103500000D01*
X72510000Y-106610000D02*
X72500000Y-106510000D01*
X72520000Y-106700000D02*
X72510000Y-106610000D01*
X72540000Y-106800000D02*
X72520000Y-106700000D01*
X72580000Y-106890000D02*
X72540000Y-106800000D01*
X72620000Y-106980000D02*
X72580000Y-106890000D01*
X72670000Y-107060000D02*
X72620000Y-106980000D01*
X72730000Y-107140000D02*
X72670000Y-107060000D01*
X72790000Y-107210000D02*
X72730000Y-107140000D01*
X72860000Y-107280000D02*
X72790000Y-107210000D01*
X72940000Y-107330000D02*
X72860000Y-107280000D01*
X73020000Y-107380000D02*
X72940000Y-107330000D01*
X73110000Y-107420000D02*
X73020000Y-107380000D01*
X73200000Y-107460000D02*
X73110000Y-107420000D01*
X73300000Y-107480000D02*
X73200000Y-107460000D01*
X73390000Y-107500000D02*
X73300000Y-107480000D01*
X73490000Y-107500000D02*
X73390000Y-107500000D01*
X76510000Y-107500000D02*
X73490000Y-107500000D01*
X76610000Y-107500000D02*
X76510000Y-107500000D01*
X76700000Y-107480000D02*
X76610000Y-107500000D01*
X76800000Y-107460000D02*
X76700000Y-107480000D01*
X76890000Y-107420000D02*
X76800000Y-107460000D01*
X76980000Y-107380000D02*
X76890000Y-107420000D01*
X77060000Y-107330000D02*
X76980000Y-107380000D01*
X77140000Y-107280000D02*
X77060000Y-107330000D01*
X77210000Y-107210000D02*
X77140000Y-107280000D01*
X77270000Y-107140000D02*
X77210000Y-107210000D01*
X77330000Y-107060000D02*
X77270000Y-107140000D01*
X77380000Y-106980000D02*
X77330000Y-107060000D01*
X77420000Y-106890000D02*
X77380000Y-106980000D01*
X77460000Y-106800000D02*
X77420000Y-106890000D01*
X77480000Y-106700000D02*
X77460000Y-106800000D01*
X77490000Y-106610000D02*
X77480000Y-106700000D01*
X77500000Y-106510000D02*
X77490000Y-106610000D01*
X77500000Y-103500000D02*
X77500000Y-106510000D01*
X77500000Y-103450000D02*
X77500000Y-103500000D01*
X77500000Y-103400000D02*
X77500000Y-103450000D01*
X77510000Y-103350000D02*
X77500000Y-103400000D01*
X77520000Y-103300000D02*
X77510000Y-103350000D01*
X77530000Y-103250000D02*
X77520000Y-103300000D01*
X77550000Y-103190000D02*
X77530000Y-103250000D01*
X77560000Y-103150000D02*
X77550000Y-103190000D01*
X77580000Y-103110000D02*
X77560000Y-103150000D01*
X77600000Y-103060000D02*
X77580000Y-103110000D01*
X77630000Y-103010000D02*
X77600000Y-103060000D01*
X77650000Y-102970000D02*
X77630000Y-103010000D01*
X77670000Y-102930000D02*
X77650000Y-102970000D01*
X77710000Y-102890000D02*
X77670000Y-102930000D01*
X77740000Y-102850000D02*
X77710000Y-102890000D01*
X77780000Y-102810000D02*
X77740000Y-102850000D01*
X77810000Y-102770000D02*
X77780000Y-102810000D01*
X77840000Y-102740000D02*
X77810000Y-102770000D01*
X77890000Y-102710000D02*
X77840000Y-102740000D01*
X77930000Y-102680000D02*
X77890000Y-102710000D01*
X77980000Y-102650000D02*
X77930000Y-102680000D01*
X78010000Y-102620000D02*
X77980000Y-102650000D01*
X78050000Y-102600000D02*
X78010000Y-102620000D01*
X78110000Y-102580000D02*
X78050000Y-102600000D01*
X78160000Y-102560000D02*
X78110000Y-102580000D01*
X78200000Y-102540000D02*
X78160000Y-102560000D01*
X78250000Y-102530000D02*
X78200000Y-102540000D01*
X78300000Y-102520000D02*
X78250000Y-102530000D01*
X78340000Y-102510000D02*
X78300000Y-102520000D01*
X78410000Y-102500000D02*
X78340000Y-102510000D01*
X78450000Y-102500000D02*
X78410000Y-102500000D01*
X78500000Y-102500000D02*
X78450000Y-102500000D01*
X89010000Y-102500000D02*
X78500000Y-102500000D01*
X89110000Y-102490000D02*
X89010000Y-102500000D01*
X89200000Y-102480000D02*
X89110000Y-102490000D01*
X89300000Y-102460000D02*
X89200000Y-102480000D01*
X89390000Y-102420000D02*
X89300000Y-102460000D01*
X89480000Y-102380000D02*
X89390000Y-102420000D01*
X89560000Y-102330000D02*
X89480000Y-102380000D01*
X89640000Y-102270000D02*
X89560000Y-102330000D01*
X89710000Y-102210000D02*
X89640000Y-102270000D01*
X89780000Y-102140000D02*
X89710000Y-102210000D01*
X89830000Y-102060000D02*
X89780000Y-102140000D01*
X89880000Y-101980000D02*
X89830000Y-102060000D01*
X89920000Y-101890000D02*
X89880000Y-101980000D01*
X89960000Y-101800000D02*
X89920000Y-101890000D01*
X89980000Y-101700000D02*
X89960000Y-101800000D01*
X90000000Y-101610000D02*
X89980000Y-101700000D01*
X90000000Y-101510000D02*
X90000000Y-101610000D01*
X90000000Y-98490000D02*
X90000000Y-101510000D01*
X90000000Y-98390000D02*
X90000000Y-98490000D01*
X89980000Y-98300000D02*
X90000000Y-98390000D01*
X89960000Y-98200000D02*
X89980000Y-98300000D01*
X89920000Y-98110000D02*
X89960000Y-98200000D01*
X89880000Y-98020000D02*
X89920000Y-98110000D01*
X89830000Y-97940000D02*
X89880000Y-98020000D01*
X89780000Y-97860000D02*
X89830000Y-97940000D01*
X89710000Y-97790000D02*
X89780000Y-97860000D01*
X89640000Y-97730000D02*
X89710000Y-97790000D01*
X89560000Y-97670000D02*
X89640000Y-97730000D01*
X89480000Y-97620000D02*
X89560000Y-97670000D01*
X89390000Y-97580000D02*
X89480000Y-97620000D01*
X89300000Y-97540000D02*
X89390000Y-97580000D01*
X89200000Y-97520000D02*
X89300000Y-97540000D01*
X89110000Y-97510000D02*
X89200000Y-97520000D01*
X89010000Y-97500000D02*
X89110000Y-97510000D01*
X78500000Y-97500000D02*
X89010000Y-97500000D01*
X78450000Y-97500000D02*
X78500000Y-97500000D01*
X78410000Y-97500000D02*
X78450000Y-97500000D01*
X78350000Y-97490000D02*
X78410000Y-97500000D01*
X78300000Y-97480000D02*
X78350000Y-97490000D01*
X78260000Y-97470000D02*
X78300000Y-97480000D01*
X78200000Y-97450000D02*
X78260000Y-97470000D01*
X78150000Y-97440000D02*
X78200000Y-97450000D01*
X78110000Y-97420000D02*
X78150000Y-97440000D01*
X78060000Y-97400000D02*
X78110000Y-97420000D01*
X78010000Y-97370000D02*
X78060000Y-97400000D01*
X77970000Y-97350000D02*
X78010000Y-97370000D01*
X77930000Y-97320000D02*
X77970000Y-97350000D01*
X77890000Y-97290000D02*
X77930000Y-97320000D01*
X77850000Y-97260000D02*
X77890000Y-97290000D01*
X77810000Y-97230000D02*
X77850000Y-97260000D01*
X77770000Y-97190000D02*
X77810000Y-97230000D01*
X77740000Y-97150000D02*
X77770000Y-97190000D01*
X77710000Y-97110000D02*
X77740000Y-97150000D01*
X77680000Y-97070000D02*
X77710000Y-97110000D01*
X77650000Y-97020000D02*
X77680000Y-97070000D01*
X77620000Y-96990000D02*
X77650000Y-97020000D01*
X77600000Y-96940000D02*
X77620000Y-96990000D01*
X77580000Y-96890000D02*
X77600000Y-96940000D01*
X77560000Y-96850000D02*
X77580000Y-96890000D01*
X77550000Y-96810000D02*
X77560000Y-96850000D01*
X77530000Y-96750000D02*
X77550000Y-96810000D01*
X77520000Y-96700000D02*
X77530000Y-96750000D01*
X77510000Y-96650000D02*
X77520000Y-96700000D01*
X77500000Y-96610000D02*
X77510000Y-96650000D01*
X77500000Y-96550000D02*
X77500000Y-96610000D01*
X77500000Y-96500000D02*
X77500000Y-96550000D01*
X77500000Y-93490000D02*
X77500000Y-96500000D01*
X77490000Y-93390000D02*
X77500000Y-93490000D01*
X77480000Y-93300000D02*
X77490000Y-93390000D01*
X77460000Y-93200000D02*
X77480000Y-93300000D01*
X77420000Y-93110000D02*
X77460000Y-93200000D01*
X77380000Y-93020000D02*
X77420000Y-93110000D01*
X77330000Y-92940000D02*
X77380000Y-93020000D01*
X77270000Y-92860000D02*
X77330000Y-92940000D01*
X77210000Y-92790000D02*
X77270000Y-92860000D01*
X77140000Y-92720000D02*
X77210000Y-92790000D01*
X77060000Y-92670000D02*
X77140000Y-92720000D01*
X76980000Y-92620000D02*
X77060000Y-92670000D01*
X76890000Y-92580000D02*
X76980000Y-92620000D01*
X76800000Y-92540000D02*
X76890000Y-92580000D01*
X76700000Y-92520000D02*
X76800000Y-92540000D01*
X76610000Y-92500000D02*
X76700000Y-92520000D01*
X76510000Y-92500000D02*
X76610000Y-92500000D01*
X73490000Y-92500000D02*
X76510000Y-92500000D01*
X73390000Y-92500000D02*
X73490000Y-92500000D01*
X73300000Y-92520000D02*
X73390000Y-92500000D01*
X73200000Y-92540000D02*
X73300000Y-92520000D01*
X73110000Y-92580000D02*
X73200000Y-92540000D01*
X73020000Y-92620000D02*
X73110000Y-92580000D01*
X72940000Y-92670000D02*
X73020000Y-92620000D01*
X72860000Y-92720000D02*
X72940000Y-92670000D01*
X72790000Y-92790000D02*
X72860000Y-92720000D01*
X72730000Y-92860000D02*
X72790000Y-92790000D01*
X72670000Y-92940000D02*
X72730000Y-92860000D01*
X72620000Y-93020000D02*
X72670000Y-92940000D01*
X72580000Y-93110000D02*
X72620000Y-93020000D01*
X72540000Y-93200000D02*
X72580000Y-93110000D01*
X72520000Y-93300000D02*
X72540000Y-93200000D01*
X72510000Y-93390000D02*
X72520000Y-93300000D01*
X72500000Y-93490000D02*
X72510000Y-93390000D01*
X72500000Y-96500000D02*
X72500000Y-93490000D01*
X72500000Y-96550000D02*
X72500000Y-96500000D01*
X72500000Y-96600000D02*
X72500000Y-96550000D01*
X72490000Y-96650000D02*
X72500000Y-96600000D01*
X72480000Y-96700000D02*
X72490000Y-96650000D01*
X72470000Y-96750000D02*
X72480000Y-96700000D01*
X72450000Y-96810000D02*
X72470000Y-96750000D01*
X72440000Y-96850000D02*
X72450000Y-96810000D01*
X72420000Y-96890000D02*
X72440000Y-96850000D01*
X72400000Y-96940000D02*
X72420000Y-96890000D01*
X72380000Y-96990000D02*
X72400000Y-96940000D01*
X72350000Y-97030000D02*
X72380000Y-96990000D01*
X72320000Y-97070000D02*
X72350000Y-97030000D01*
X72300000Y-97110000D02*
X72320000Y-97070000D01*
X72260000Y-97150000D02*
X72300000Y-97110000D01*
X72230000Y-97190000D02*
X72260000Y-97150000D01*
X72180000Y-97230000D02*
X72230000Y-97190000D01*
X72150000Y-97260000D02*
X72180000Y-97230000D01*
X72120000Y-97290000D02*
X72150000Y-97260000D01*
X72070000Y-97320000D02*
X72120000Y-97290000D01*
X72020000Y-97350000D02*
X72070000Y-97320000D01*
X71990000Y-97380000D02*
X72020000Y-97350000D01*
X71950000Y-97400000D02*
X71990000Y-97380000D01*
X71890000Y-97420000D02*
X71950000Y-97400000D01*
X71850000Y-97440000D02*
X71890000Y-97420000D01*
X71800000Y-97450000D02*
X71850000Y-97440000D01*
X71750000Y-97470000D02*
X71800000Y-97450000D01*
X71700000Y-97480000D02*
X71750000Y-97470000D01*
X71660000Y-97490000D02*
X71700000Y-97480000D01*
X71590000Y-97500000D02*
X71660000Y-97490000D01*
X71550000Y-97500000D02*
X71590000Y-97500000D01*
X71500000Y-97500000D02*
X71550000Y-97500000D01*
X60990000Y-97500000D02*
X71500000Y-97500000D01*
X60890000Y-97510000D02*
X60990000Y-97500000D01*
X60800000Y-97520000D02*
X60890000Y-97510000D01*
X60700000Y-97540000D02*
X60800000Y-97520000D01*
X60610000Y-97580000D02*
X60700000Y-97540000D01*
X60520000Y-97620000D02*
X60610000Y-97580000D01*
X60440000Y-97670000D02*
X60520000Y-97620000D01*
X60360000Y-97730000D02*
X60440000Y-97670000D01*
X60290000Y-97790000D02*
X60360000Y-97730000D01*
X60220000Y-97860000D02*
X60290000Y-97790000D01*
X60170000Y-97940000D02*
X60220000Y-97860000D01*
X60120000Y-98020000D02*
X60170000Y-97940000D01*
X60080000Y-98110000D02*
X60120000Y-98020000D01*
X60040000Y-98200000D02*
X60080000Y-98110000D01*
X60020000Y-98300000D02*
X60040000Y-98200000D01*
X60000000Y-98390000D02*
X60020000Y-98300000D01*
X60000000Y-98490000D02*
X60000000Y-98390000D01*
X71500000Y-57500000D02*
X71550000Y-57500000D01*
X60990000Y-57500000D02*
X71500000Y-57500000D01*
X60890000Y-57510000D02*
X60990000Y-57500000D01*
X60800000Y-57520000D02*
X60890000Y-57510000D01*
X60700000Y-57540000D02*
X60800000Y-57520000D01*
X60610000Y-57580000D02*
X60700000Y-57540000D01*
X60520000Y-57620000D02*
X60610000Y-57580000D01*
X60440000Y-57670000D02*
X60520000Y-57620000D01*
X60360000Y-57730000D02*
X60440000Y-57670000D01*
X60290000Y-57790000D02*
X60360000Y-57730000D01*
X60220000Y-57860000D02*
X60290000Y-57790000D01*
X60170000Y-57940000D02*
X60220000Y-57860000D01*
X60120000Y-58020000D02*
X60170000Y-57940000D01*
X60080000Y-58110000D02*
X60120000Y-58020000D01*
X60040000Y-58200000D02*
X60080000Y-58110000D01*
X60020000Y-58300000D02*
X60040000Y-58200000D01*
X60000000Y-58390000D02*
X60020000Y-58300000D01*
X60000000Y-58490000D02*
X60000000Y-58390000D01*
X60000000Y-61510000D02*
X60000000Y-58490000D01*
X60000000Y-61610000D02*
X60000000Y-61510000D01*
X60020000Y-61700000D02*
X60000000Y-61610000D01*
X60040000Y-61800000D02*
X60020000Y-61700000D01*
X60080000Y-61890000D02*
X60040000Y-61800000D01*
X60120000Y-61980000D02*
X60080000Y-61890000D01*
X60170000Y-62060000D02*
X60120000Y-61980000D01*
X60220000Y-62140000D02*
X60170000Y-62060000D01*
X60290000Y-62210000D02*
X60220000Y-62140000D01*
X60360000Y-62270000D02*
X60290000Y-62210000D01*
X60440000Y-62330000D02*
X60360000Y-62270000D01*
X60520000Y-62380000D02*
X60440000Y-62330000D01*
X60610000Y-62420000D02*
X60520000Y-62380000D01*
X60700000Y-62460000D02*
X60610000Y-62420000D01*
X60800000Y-62480000D02*
X60700000Y-62460000D01*
X60890000Y-62490000D02*
X60800000Y-62480000D01*
X60990000Y-62500000D02*
X60890000Y-62490000D01*
X71500000Y-62500000D02*
X60990000Y-62500000D01*
X71560000Y-62500000D02*
X71500000Y-62500000D01*
X71600000Y-62500000D02*
X71560000Y-62500000D01*
X71650000Y-62510000D02*
X71600000Y-62500000D01*
X71700000Y-62520000D02*
X71650000Y-62510000D01*
X71740000Y-62530000D02*
X71700000Y-62520000D01*
X71810000Y-62550000D02*
X71740000Y-62530000D01*
X71850000Y-62560000D02*
X71810000Y-62550000D01*
X71890000Y-62580000D02*
X71850000Y-62560000D01*
X71940000Y-62600000D02*
X71890000Y-62580000D01*
X71990000Y-62620000D02*
X71940000Y-62600000D01*
X72030000Y-62650000D02*
X71990000Y-62620000D01*
X72070000Y-62680000D02*
X72030000Y-62650000D01*
X72110000Y-62700000D02*
X72070000Y-62680000D01*
X72150000Y-62740000D02*
X72110000Y-62700000D01*
X72190000Y-62780000D02*
X72150000Y-62740000D01*
X72230000Y-62810000D02*
X72190000Y-62780000D01*
X72260000Y-62840000D02*
X72230000Y-62810000D01*
X72290000Y-62890000D02*
X72260000Y-62840000D01*
X72330000Y-62930000D02*
X72290000Y-62890000D01*
X72350000Y-62970000D02*
X72330000Y-62930000D01*
X72370000Y-63010000D02*
X72350000Y-62970000D01*
X72400000Y-63060000D02*
X72370000Y-63010000D01*
X72420000Y-63110000D02*
X72400000Y-63060000D01*
X72440000Y-63160000D02*
X72420000Y-63110000D01*
X72450000Y-63200000D02*
X72440000Y-63160000D01*
X72470000Y-63240000D02*
X72450000Y-63200000D01*
X72480000Y-63300000D02*
X72470000Y-63240000D01*
X72490000Y-63350000D02*
X72480000Y-63300000D01*
X72500000Y-63400000D02*
X72490000Y-63350000D01*
X72500000Y-63450000D02*
X72500000Y-63400000D01*
X72500000Y-63500000D02*
X72500000Y-63450000D01*
X72500000Y-66510000D02*
X72500000Y-63500000D01*
X72510000Y-66610000D02*
X72500000Y-66510000D01*
X72520000Y-66700000D02*
X72510000Y-66610000D01*
X72540000Y-66800000D02*
X72520000Y-66700000D01*
X72580000Y-66890000D02*
X72540000Y-66800000D01*
X72620000Y-66980000D02*
X72580000Y-66890000D01*
X72670000Y-67060000D02*
X72620000Y-66980000D01*
X72730000Y-67140000D02*
X72670000Y-67060000D01*
X72790000Y-67210000D02*
X72730000Y-67140000D01*
X72860000Y-67280000D02*
X72790000Y-67210000D01*
X72940000Y-67330000D02*
X72860000Y-67280000D01*
X73020000Y-67380000D02*
X72940000Y-67330000D01*
X73110000Y-67420000D02*
X73020000Y-67380000D01*
X73200000Y-67460000D02*
X73110000Y-67420000D01*
X73300000Y-67480000D02*
X73200000Y-67460000D01*
X73390000Y-67500000D02*
X73300000Y-67480000D01*
X73490000Y-67500000D02*
X73390000Y-67500000D01*
X76510000Y-67500000D02*
X73490000Y-67500000D01*
X76610000Y-67500000D02*
X76510000Y-67500000D01*
X76700000Y-67480000D02*
X76610000Y-67500000D01*
X76800000Y-67460000D02*
X76700000Y-67480000D01*
X76890000Y-67420000D02*
X76800000Y-67460000D01*
X76980000Y-67380000D02*
X76890000Y-67420000D01*
X77060000Y-67330000D02*
X76980000Y-67380000D01*
X77140000Y-67280000D02*
X77060000Y-67330000D01*
X77210000Y-67210000D02*
X77140000Y-67280000D01*
X77270000Y-67140000D02*
X77210000Y-67210000D01*
X77330000Y-67060000D02*
X77270000Y-67140000D01*
X77380000Y-66980000D02*
X77330000Y-67060000D01*
X77420000Y-66890000D02*
X77380000Y-66980000D01*
X77460000Y-66800000D02*
X77420000Y-66890000D01*
X77480000Y-66700000D02*
X77460000Y-66800000D01*
X77490000Y-66610000D02*
X77480000Y-66700000D01*
X77500000Y-66510000D02*
X77490000Y-66610000D01*
X77500000Y-63500000D02*
X77500000Y-66510000D01*
X77500000Y-63440000D02*
X77500000Y-63500000D01*
X77500000Y-63400000D02*
X77500000Y-63440000D01*
X77510000Y-63350000D02*
X77500000Y-63400000D01*
X77520000Y-63290000D02*
X77510000Y-63350000D01*
X77530000Y-63250000D02*
X77520000Y-63290000D01*
X77540000Y-63210000D02*
X77530000Y-63250000D01*
X77560000Y-63150000D02*
X77540000Y-63210000D01*
X77580000Y-63110000D02*
X77560000Y-63150000D01*
X77600000Y-63060000D02*
X77580000Y-63110000D01*
X77630000Y-63010000D02*
X77600000Y-63060000D01*
X77650000Y-62970000D02*
X77630000Y-63010000D01*
X77670000Y-62930000D02*
X77650000Y-62970000D01*
X77710000Y-62890000D02*
X77670000Y-62930000D01*
X77740000Y-62850000D02*
X77710000Y-62890000D01*
X77780000Y-62810000D02*
X77740000Y-62850000D01*
X77810000Y-62770000D02*
X77780000Y-62810000D01*
X77840000Y-62740000D02*
X77810000Y-62770000D01*
X77890000Y-62710000D02*
X77840000Y-62740000D01*
X77930000Y-62680000D02*
X77890000Y-62710000D01*
X77980000Y-62650000D02*
X77930000Y-62680000D01*
X78010000Y-62620000D02*
X77980000Y-62650000D01*
X78050000Y-62600000D02*
X78010000Y-62620000D01*
X78110000Y-62580000D02*
X78050000Y-62600000D01*
X78150000Y-62560000D02*
X78110000Y-62580000D01*
X78200000Y-62550000D02*
X78150000Y-62560000D01*
X78250000Y-62530000D02*
X78200000Y-62550000D01*
X78300000Y-62520000D02*
X78250000Y-62530000D01*
X78350000Y-62510000D02*
X78300000Y-62520000D01*
X78400000Y-62500000D02*
X78350000Y-62510000D01*
X78450000Y-62500000D02*
X78400000Y-62500000D01*
X78500000Y-62500000D02*
X78450000Y-62500000D01*
X89010000Y-62500000D02*
X78500000Y-62500000D01*
X89110000Y-62490000D02*
X89010000Y-62500000D01*
X89200000Y-62480000D02*
X89110000Y-62490000D01*
X89300000Y-62460000D02*
X89200000Y-62480000D01*
X89390000Y-62420000D02*
X89300000Y-62460000D01*
X89480000Y-62380000D02*
X89390000Y-62420000D01*
X89560000Y-62330000D02*
X89480000Y-62380000D01*
X89640000Y-62270000D02*
X89560000Y-62330000D01*
X89710000Y-62210000D02*
X89640000Y-62270000D01*
X89780000Y-62140000D02*
X89710000Y-62210000D01*
X89830000Y-62060000D02*
X89780000Y-62140000D01*
X89880000Y-61980000D02*
X89830000Y-62060000D01*
X89920000Y-61890000D02*
X89880000Y-61980000D01*
X89960000Y-61800000D02*
X89920000Y-61890000D01*
X89980000Y-61700000D02*
X89960000Y-61800000D01*
X90000000Y-61610000D02*
X89980000Y-61700000D01*
X90000000Y-61510000D02*
X90000000Y-61610000D01*
X90000000Y-58490000D02*
X90000000Y-61510000D01*
X90000000Y-58390000D02*
X90000000Y-58490000D01*
X89980000Y-58300000D02*
X90000000Y-58390000D01*
X89960000Y-58200000D02*
X89980000Y-58300000D01*
X89920000Y-58110000D02*
X89960000Y-58200000D01*
X89880000Y-58020000D02*
X89920000Y-58110000D01*
X89830000Y-57940000D02*
X89880000Y-58020000D01*
X89780000Y-57860000D02*
X89830000Y-57940000D01*
X89710000Y-57790000D02*
X89780000Y-57860000D01*
X89640000Y-57730000D02*
X89710000Y-57790000D01*
X89560000Y-57670000D02*
X89640000Y-57730000D01*
X89480000Y-57620000D02*
X89560000Y-57670000D01*
X89390000Y-57580000D02*
X89480000Y-57620000D01*
X89300000Y-57540000D02*
X89390000Y-57580000D01*
X89200000Y-57520000D02*
X89300000Y-57540000D01*
X89110000Y-57510000D02*
X89200000Y-57520000D01*
X89010000Y-57500000D02*
X89110000Y-57510000D01*
X78500000Y-57500000D02*
X89010000Y-57500000D01*
X78450000Y-57500000D02*
X78500000Y-57500000D01*
X78410000Y-57500000D02*
X78450000Y-57500000D01*
X78350000Y-57490000D02*
X78410000Y-57500000D01*
X78300000Y-57480000D02*
X78350000Y-57490000D01*
X78260000Y-57470000D02*
X78300000Y-57480000D01*
X78200000Y-57450000D02*
X78260000Y-57470000D01*
X78150000Y-57440000D02*
X78200000Y-57450000D01*
X78110000Y-57420000D02*
X78150000Y-57440000D01*
X78060000Y-57400000D02*
X78110000Y-57420000D01*
X78010000Y-57370000D02*
X78060000Y-57400000D01*
X77970000Y-57350000D02*
X78010000Y-57370000D01*
X77930000Y-57320000D02*
X77970000Y-57350000D01*
X77890000Y-57290000D02*
X77930000Y-57320000D01*
X77850000Y-57260000D02*
X77890000Y-57290000D01*
X77810000Y-57230000D02*
X77850000Y-57260000D01*
X77770000Y-57190000D02*
X77810000Y-57230000D01*
X77740000Y-57150000D02*
X77770000Y-57190000D01*
X77710000Y-57110000D02*
X77740000Y-57150000D01*
X77680000Y-57070000D02*
X77710000Y-57110000D01*
X77650000Y-57020000D02*
X77680000Y-57070000D01*
X77620000Y-56990000D02*
X77650000Y-57020000D01*
X77600000Y-56940000D02*
X77620000Y-56990000D01*
X77580000Y-56890000D02*
X77600000Y-56940000D01*
X77560000Y-56850000D02*
X77580000Y-56890000D01*
X77550000Y-56810000D02*
X77560000Y-56850000D01*
X77530000Y-56750000D02*
X77550000Y-56810000D01*
X77520000Y-56700000D02*
X77530000Y-56750000D01*
X77510000Y-56650000D02*
X77520000Y-56700000D01*
X77500000Y-56610000D02*
X77510000Y-56650000D01*
X77500000Y-56550000D02*
X77500000Y-56610000D01*
X77500000Y-56500000D02*
X77500000Y-56550000D01*
X77500000Y-53490000D02*
X77500000Y-56500000D01*
X77490000Y-53390000D02*
X77500000Y-53490000D01*
X77480000Y-53300000D02*
X77490000Y-53390000D01*
X77460000Y-53200000D02*
X77480000Y-53300000D01*
X77420000Y-53110000D02*
X77460000Y-53200000D01*
X77380000Y-53020000D02*
X77420000Y-53110000D01*
X77330000Y-52940000D02*
X77380000Y-53020000D01*
X77270000Y-52860000D02*
X77330000Y-52940000D01*
X77210000Y-52790000D02*
X77270000Y-52860000D01*
X77140000Y-52720000D02*
X77210000Y-52790000D01*
X77060000Y-52670000D02*
X77140000Y-52720000D01*
X76980000Y-52620000D02*
X77060000Y-52670000D01*
X76890000Y-52580000D02*
X76980000Y-52620000D01*
X76800000Y-52540000D02*
X76890000Y-52580000D01*
X76700000Y-52520000D02*
X76800000Y-52540000D01*
X76610000Y-52500000D02*
X76700000Y-52520000D01*
X76510000Y-52500000D02*
X76610000Y-52500000D01*
X73490000Y-52500000D02*
X76510000Y-52500000D01*
X73390000Y-52500000D02*
X73490000Y-52500000D01*
X73300000Y-52520000D02*
X73390000Y-52500000D01*
X73200000Y-52540000D02*
X73300000Y-52520000D01*
X73110000Y-52580000D02*
X73200000Y-52540000D01*
X73020000Y-52620000D02*
X73110000Y-52580000D01*
X72940000Y-52670000D02*
X73020000Y-52620000D01*
X72860000Y-52720000D02*
X72940000Y-52670000D01*
X72790000Y-52790000D02*
X72860000Y-52720000D01*
X72730000Y-52860000D02*
X72790000Y-52790000D01*
X72670000Y-52940000D02*
X72730000Y-52860000D01*
X72620000Y-53020000D02*
X72670000Y-52940000D01*
X72580000Y-53110000D02*
X72620000Y-53020000D01*
X72540000Y-53200000D02*
X72580000Y-53110000D01*
X72520000Y-53300000D02*
X72540000Y-53200000D01*
X72510000Y-53390000D02*
X72520000Y-53300000D01*
X72500000Y-53490000D02*
X72510000Y-53390000D01*
X72500000Y-56500000D02*
X72500000Y-53490000D01*
X72500000Y-56560000D02*
X72500000Y-56500000D01*
X72500000Y-56600000D02*
X72500000Y-56560000D01*
X72490000Y-56650000D02*
X72500000Y-56600000D01*
X72480000Y-56700000D02*
X72490000Y-56650000D01*
X72470000Y-56750000D02*
X72480000Y-56700000D01*
X72460000Y-56800000D02*
X72470000Y-56750000D01*
X72440000Y-56840000D02*
X72460000Y-56800000D01*
X72420000Y-56890000D02*
X72440000Y-56840000D01*
X72400000Y-56940000D02*
X72420000Y-56890000D01*
X72380000Y-56980000D02*
X72400000Y-56940000D01*
X72350000Y-57030000D02*
X72380000Y-56980000D01*
X72320000Y-57070000D02*
X72350000Y-57030000D01*
X72300000Y-57110000D02*
X72320000Y-57070000D01*
X72260000Y-57160000D02*
X72300000Y-57110000D01*
X72230000Y-57190000D02*
X72260000Y-57160000D01*
X72190000Y-57230000D02*
X72230000Y-57190000D01*
X72150000Y-57260000D02*
X72190000Y-57230000D01*
X72120000Y-57290000D02*
X72150000Y-57260000D01*
X72070000Y-57330000D02*
X72120000Y-57290000D01*
X72030000Y-57350000D02*
X72070000Y-57330000D01*
X71990000Y-57380000D02*
X72030000Y-57350000D01*
X71940000Y-57400000D02*
X71990000Y-57380000D01*
X71890000Y-57420000D02*
X71940000Y-57400000D01*
X71850000Y-57440000D02*
X71890000Y-57420000D01*
X71790000Y-57460000D02*
X71850000Y-57440000D01*
X71750000Y-57470000D02*
X71790000Y-57460000D01*
X71700000Y-57480000D02*
X71750000Y-57470000D01*
X71650000Y-57490000D02*
X71700000Y-57480000D01*
X71610000Y-57500000D02*
X71650000Y-57490000D01*
X71550000Y-57500000D02*
X71610000Y-57500000D01*
X77500000Y-83500000D02*
X77500000Y-86510000D01*
X77500000Y-83450000D02*
X77500000Y-83500000D01*
X77500000Y-83410000D02*
X77500000Y-83450000D01*
X77510000Y-83340000D02*
X77500000Y-83410000D01*
X77520000Y-83290000D02*
X77510000Y-83340000D01*
X77530000Y-83250000D02*
X77520000Y-83290000D01*
X77540000Y-83210000D02*
X77530000Y-83250000D01*
X77560000Y-83150000D02*
X77540000Y-83210000D01*
X77580000Y-83100000D02*
X77560000Y-83150000D01*
X77600000Y-83060000D02*
X77580000Y-83100000D01*
X77620000Y-83020000D02*
X77600000Y-83060000D01*
X77650000Y-82970000D02*
X77620000Y-83020000D01*
X77680000Y-82920000D02*
X77650000Y-82970000D01*
X77710000Y-82890000D02*
X77680000Y-82920000D01*
X77740000Y-82850000D02*
X77710000Y-82890000D01*
X77770000Y-82810000D02*
X77740000Y-82850000D01*
X77820000Y-82770000D02*
X77770000Y-82810000D01*
X77850000Y-82740000D02*
X77820000Y-82770000D01*
X77880000Y-82710000D02*
X77850000Y-82740000D01*
X77930000Y-82680000D02*
X77880000Y-82710000D01*
X77980000Y-82650000D02*
X77930000Y-82680000D01*
X78010000Y-82620000D02*
X77980000Y-82650000D01*
X78050000Y-82600000D02*
X78010000Y-82620000D01*
X78110000Y-82580000D02*
X78050000Y-82600000D01*
X78160000Y-82560000D02*
X78110000Y-82580000D01*
X78200000Y-82540000D02*
X78160000Y-82560000D01*
X78250000Y-82530000D02*
X78200000Y-82540000D01*
X78300000Y-82520000D02*
X78250000Y-82530000D01*
X78340000Y-82510000D02*
X78300000Y-82520000D01*
X78410000Y-82500000D02*
X78340000Y-82510000D01*
X78450000Y-82500000D02*
X78410000Y-82500000D01*
X78500000Y-82500000D02*
X78450000Y-82500000D01*
X89010000Y-82500000D02*
X78500000Y-82500000D01*
X89110000Y-82490000D02*
X89010000Y-82500000D01*
X89200000Y-82480000D02*
X89110000Y-82490000D01*
X89300000Y-82460000D02*
X89200000Y-82480000D01*
X89390000Y-82420000D02*
X89300000Y-82460000D01*
X89480000Y-82380000D02*
X89390000Y-82420000D01*
X89560000Y-82330000D02*
X89480000Y-82380000D01*
X89640000Y-82270000D02*
X89560000Y-82330000D01*
X89710000Y-82210000D02*
X89640000Y-82270000D01*
X89780000Y-82140000D02*
X89710000Y-82210000D01*
X89830000Y-82060000D02*
X89780000Y-82140000D01*
X89880000Y-81980000D02*
X89830000Y-82060000D01*
X89920000Y-81890000D02*
X89880000Y-81980000D01*
X89960000Y-81800000D02*
X89920000Y-81890000D01*
X89980000Y-81700000D02*
X89960000Y-81800000D01*
X90000000Y-81610000D02*
X89980000Y-81700000D01*
X90000000Y-81510000D02*
X90000000Y-81610000D01*
X90000000Y-78490000D02*
X90000000Y-81510000D01*
X90000000Y-78390000D02*
X90000000Y-78490000D01*
X89980000Y-78300000D02*
X90000000Y-78390000D01*
X89960000Y-78200000D02*
X89980000Y-78300000D01*
X89920000Y-78110000D02*
X89960000Y-78200000D01*
X89880000Y-78020000D02*
X89920000Y-78110000D01*
X89830000Y-77940000D02*
X89880000Y-78020000D01*
X89780000Y-77860000D02*
X89830000Y-77940000D01*
X89710000Y-77790000D02*
X89780000Y-77860000D01*
X89640000Y-77730000D02*
X89710000Y-77790000D01*
X89560000Y-77670000D02*
X89640000Y-77730000D01*
X89480000Y-77620000D02*
X89560000Y-77670000D01*
X89390000Y-77580000D02*
X89480000Y-77620000D01*
X89300000Y-77540000D02*
X89390000Y-77580000D01*
X89200000Y-77520000D02*
X89300000Y-77540000D01*
X89110000Y-77510000D02*
X89200000Y-77520000D01*
X89010000Y-77500000D02*
X89110000Y-77510000D01*
X78500000Y-77500000D02*
X89010000Y-77500000D01*
X78440000Y-77500000D02*
X78500000Y-77500000D01*
X78400000Y-77500000D02*
X78440000Y-77500000D01*
X78350000Y-77490000D02*
X78400000Y-77500000D01*
X78300000Y-77480000D02*
X78350000Y-77490000D01*
X78260000Y-77470000D02*
X78300000Y-77480000D01*
X78190000Y-77450000D02*
X78260000Y-77470000D01*
X78150000Y-77440000D02*
X78190000Y-77450000D01*
X78110000Y-77420000D02*
X78150000Y-77440000D01*
X78060000Y-77400000D02*
X78110000Y-77420000D01*
X78010000Y-77380000D02*
X78060000Y-77400000D01*
X77970000Y-77350000D02*
X78010000Y-77380000D01*
X77930000Y-77320000D02*
X77970000Y-77350000D01*
X77890000Y-77300000D02*
X77930000Y-77320000D01*
X77850000Y-77260000D02*
X77890000Y-77300000D01*
X77810000Y-77220000D02*
X77850000Y-77260000D01*
X77770000Y-77190000D02*
X77810000Y-77220000D01*
X77740000Y-77160000D02*
X77770000Y-77190000D01*
X77710000Y-77110000D02*
X77740000Y-77160000D01*
X77670000Y-77070000D02*
X77710000Y-77110000D01*
X77650000Y-77030000D02*
X77670000Y-77070000D01*
X77630000Y-76990000D02*
X77650000Y-77030000D01*
X77600000Y-76940000D02*
X77630000Y-76990000D01*
X77580000Y-76890000D02*
X77600000Y-76940000D01*
X77560000Y-76840000D02*
X77580000Y-76890000D01*
X77550000Y-76800000D02*
X77560000Y-76840000D01*
X77530000Y-76760000D02*
X77550000Y-76800000D01*
X77520000Y-76700000D02*
X77530000Y-76760000D01*
X77510000Y-76650000D02*
X77520000Y-76700000D01*
X77500000Y-76600000D02*
X77510000Y-76650000D01*
X77500000Y-76550000D02*
X77500000Y-76600000D01*
X77500000Y-76500000D02*
X77500000Y-76550000D01*
X77500000Y-73490000D02*
X77500000Y-76500000D01*
X77490000Y-73390000D02*
X77500000Y-73490000D01*
X77480000Y-73300000D02*
X77490000Y-73390000D01*
X77460000Y-73200000D02*
X77480000Y-73300000D01*
X77420000Y-73110000D02*
X77460000Y-73200000D01*
X77380000Y-73020000D02*
X77420000Y-73110000D01*
X77330000Y-72940000D02*
X77380000Y-73020000D01*
X77270000Y-72860000D02*
X77330000Y-72940000D01*
X77210000Y-72790000D02*
X77270000Y-72860000D01*
X77140000Y-72720000D02*
X77210000Y-72790000D01*
X77060000Y-72670000D02*
X77140000Y-72720000D01*
X76980000Y-72620000D02*
X77060000Y-72670000D01*
X76890000Y-72580000D02*
X76980000Y-72620000D01*
X76800000Y-72540000D02*
X76890000Y-72580000D01*
X76700000Y-72520000D02*
X76800000Y-72540000D01*
X76610000Y-72500000D02*
X76700000Y-72520000D01*
X76510000Y-72500000D02*
X76610000Y-72500000D01*
X73490000Y-72500000D02*
X76510000Y-72500000D01*
X73390000Y-72500000D02*
X73490000Y-72500000D01*
X73300000Y-72520000D02*
X73390000Y-72500000D01*
X73200000Y-72540000D02*
X73300000Y-72520000D01*
X73110000Y-72580000D02*
X73200000Y-72540000D01*
X73020000Y-72620000D02*
X73110000Y-72580000D01*
X72940000Y-72670000D02*
X73020000Y-72620000D01*
X72860000Y-72720000D02*
X72940000Y-72670000D01*
X72790000Y-72790000D02*
X72860000Y-72720000D01*
X72730000Y-72860000D02*
X72790000Y-72790000D01*
X72670000Y-72940000D02*
X72730000Y-72860000D01*
X72620000Y-73020000D02*
X72670000Y-72940000D01*
X72580000Y-73110000D02*
X72620000Y-73020000D01*
X72540000Y-73200000D02*
X72580000Y-73110000D01*
X72520000Y-73300000D02*
X72540000Y-73200000D01*
X72510000Y-73390000D02*
X72520000Y-73300000D01*
X72500000Y-73490000D02*
X72510000Y-73390000D01*
X72500000Y-76500000D02*
X72500000Y-73490000D01*
X72500000Y-76560000D02*
X72500000Y-76500000D01*
X72500000Y-76600000D02*
X72500000Y-76560000D01*
X72490000Y-76650000D02*
X72500000Y-76600000D01*
X72480000Y-76710000D02*
X72490000Y-76650000D01*
X72470000Y-76750000D02*
X72480000Y-76710000D01*
X72460000Y-76790000D02*
X72470000Y-76750000D01*
X72440000Y-76850000D02*
X72460000Y-76790000D01*
X72420000Y-76890000D02*
X72440000Y-76850000D01*
X72400000Y-76950000D02*
X72420000Y-76890000D01*
X72380000Y-76990000D02*
X72400000Y-76950000D01*
X72350000Y-77020000D02*
X72380000Y-76990000D01*
X72320000Y-77070000D02*
X72350000Y-77020000D01*
X72290000Y-77110000D02*
X72320000Y-77070000D01*
X72260000Y-77160000D02*
X72290000Y-77110000D01*
X72230000Y-77190000D02*
X72260000Y-77160000D01*
X72190000Y-77220000D02*
X72230000Y-77190000D01*
X72150000Y-77260000D02*
X72190000Y-77220000D01*
X72110000Y-77290000D02*
X72150000Y-77260000D01*
X72070000Y-77330000D02*
X72110000Y-77290000D01*
X72030000Y-77350000D02*
X72070000Y-77330000D01*
X71990000Y-77370000D02*
X72030000Y-77350000D01*
X71940000Y-77400000D02*
X71990000Y-77370000D01*
X71890000Y-77420000D02*
X71940000Y-77400000D01*
X71850000Y-77440000D02*
X71890000Y-77420000D01*
X71800000Y-77460000D02*
X71850000Y-77440000D01*
X71750000Y-77470000D02*
X71800000Y-77460000D01*
X71700000Y-77480000D02*
X71750000Y-77470000D01*
X71650000Y-77490000D02*
X71700000Y-77480000D01*
X71600000Y-77500000D02*
X71650000Y-77490000D01*
X71550000Y-77500000D02*
X71600000Y-77500000D01*
X71500000Y-77500000D02*
X71550000Y-77500000D01*
X60990000Y-77500000D02*
X71500000Y-77500000D01*
X60890000Y-77510000D02*
X60990000Y-77500000D01*
X60800000Y-77520000D02*
X60890000Y-77510000D01*
X60700000Y-77540000D02*
X60800000Y-77520000D01*
X60610000Y-77580000D02*
X60700000Y-77540000D01*
X60520000Y-77620000D02*
X60610000Y-77580000D01*
X60440000Y-77670000D02*
X60520000Y-77620000D01*
X60360000Y-77730000D02*
X60440000Y-77670000D01*
X60290000Y-77790000D02*
X60360000Y-77730000D01*
X60220000Y-77860000D02*
X60290000Y-77790000D01*
X60170000Y-77940000D02*
X60220000Y-77860000D01*
X60120000Y-78020000D02*
X60170000Y-77940000D01*
X60080000Y-78110000D02*
X60120000Y-78020000D01*
X60040000Y-78200000D02*
X60080000Y-78110000D01*
X60020000Y-78300000D02*
X60040000Y-78200000D01*
X60000000Y-78390000D02*
X60020000Y-78300000D01*
X60000000Y-78490000D02*
X60000000Y-78390000D01*
X60000000Y-81510000D02*
X60000000Y-78490000D01*
X60000000Y-81610000D02*
X60000000Y-81510000D01*
X60020000Y-81700000D02*
X60000000Y-81610000D01*
X60040000Y-81800000D02*
X60020000Y-81700000D01*
X60080000Y-81890000D02*
X60040000Y-81800000D01*
X60120000Y-81980000D02*
X60080000Y-81890000D01*
X60170000Y-82060000D02*
X60120000Y-81980000D01*
X60220000Y-82140000D02*
X60170000Y-82060000D01*
X60290000Y-82210000D02*
X60220000Y-82140000D01*
X60360000Y-82270000D02*
X60290000Y-82210000D01*
X60440000Y-82330000D02*
X60360000Y-82270000D01*
X60520000Y-82380000D02*
X60440000Y-82330000D01*
X60610000Y-82420000D02*
X60520000Y-82380000D01*
X60700000Y-82460000D02*
X60610000Y-82420000D01*
X60800000Y-82480000D02*
X60700000Y-82460000D01*
X60890000Y-82490000D02*
X60800000Y-82480000D01*
X60990000Y-82500000D02*
X60890000Y-82490000D01*
X71500000Y-82500000D02*
X60990000Y-82500000D01*
X71550000Y-82500000D02*
X71500000Y-82500000D01*
X71610000Y-82500000D02*
X71550000Y-82500000D01*
X71650000Y-82510000D02*
X71610000Y-82500000D01*
X71700000Y-82520000D02*
X71650000Y-82510000D01*
X71740000Y-82530000D02*
X71700000Y-82520000D01*
X71800000Y-82550000D02*
X71740000Y-82530000D01*
X71850000Y-82560000D02*
X71800000Y-82550000D01*
X71890000Y-82580000D02*
X71850000Y-82560000D01*
X71940000Y-82600000D02*
X71890000Y-82580000D01*
X71990000Y-82620000D02*
X71940000Y-82600000D01*
X72030000Y-82650000D02*
X71990000Y-82620000D01*
X72070000Y-82680000D02*
X72030000Y-82650000D01*
X72110000Y-82700000D02*
X72070000Y-82680000D01*
X72150000Y-82740000D02*
X72110000Y-82700000D01*
X72190000Y-82780000D02*
X72150000Y-82740000D01*
X72230000Y-82810000D02*
X72190000Y-82780000D01*
X72260000Y-82840000D02*
X72230000Y-82810000D01*
X72290000Y-82890000D02*
X72260000Y-82840000D01*
X72330000Y-82930000D02*
X72290000Y-82890000D01*
X72350000Y-82970000D02*
X72330000Y-82930000D01*
X72370000Y-83010000D02*
X72350000Y-82970000D01*
X72400000Y-83060000D02*
X72370000Y-83010000D01*
X72420000Y-83110000D02*
X72400000Y-83060000D01*
X72440000Y-83150000D02*
X72420000Y-83110000D01*
X72450000Y-83190000D02*
X72440000Y-83150000D01*
X72470000Y-83250000D02*
X72450000Y-83190000D01*
X72480000Y-83300000D02*
X72470000Y-83250000D01*
X72490000Y-83350000D02*
X72480000Y-83300000D01*
X72500000Y-83400000D02*
X72490000Y-83350000D01*
X72500000Y-83440000D02*
X72500000Y-83400000D01*
X72500000Y-83500000D02*
X72500000Y-83440000D01*
X72500000Y-86510000D02*
X72500000Y-83500000D01*
X72510000Y-86610000D02*
X72500000Y-86510000D01*
X72520000Y-86700000D02*
X72510000Y-86610000D01*
X72540000Y-86800000D02*
X72520000Y-86700000D01*
X72580000Y-86890000D02*
X72540000Y-86800000D01*
X72620000Y-86980000D02*
X72580000Y-86890000D01*
X72670000Y-87060000D02*
X72620000Y-86980000D01*
X72730000Y-87140000D02*
X72670000Y-87060000D01*
X72790000Y-87210000D02*
X72730000Y-87140000D01*
X72860000Y-87280000D02*
X72790000Y-87210000D01*
X72940000Y-87330000D02*
X72860000Y-87280000D01*
X73020000Y-87380000D02*
X72940000Y-87330000D01*
X73110000Y-87420000D02*
X73020000Y-87380000D01*
X73200000Y-87460000D02*
X73110000Y-87420000D01*
X73300000Y-87480000D02*
X73200000Y-87460000D01*
X73390000Y-87500000D02*
X73300000Y-87480000D01*
X73490000Y-87500000D02*
X73390000Y-87500000D01*
X76510000Y-87500000D02*
X73490000Y-87500000D01*
X76610000Y-87500000D02*
X76510000Y-87500000D01*
X76700000Y-87480000D02*
X76610000Y-87500000D01*
X76800000Y-87460000D02*
X76700000Y-87480000D01*
X76890000Y-87420000D02*
X76800000Y-87460000D01*
X76980000Y-87380000D02*
X76890000Y-87420000D01*
X77060000Y-87330000D02*
X76980000Y-87380000D01*
X77140000Y-87280000D02*
X77060000Y-87330000D01*
X77210000Y-87210000D02*
X77140000Y-87280000D01*
X77270000Y-87140000D02*
X77210000Y-87210000D01*
X77330000Y-87060000D02*
X77270000Y-87140000D01*
X77380000Y-86980000D02*
X77330000Y-87060000D01*
X77420000Y-86890000D02*
X77380000Y-86980000D01*
X77460000Y-86800000D02*
X77420000Y-86890000D01*
X77480000Y-86700000D02*
X77460000Y-86800000D01*
X77490000Y-86610000D02*
X77480000Y-86700000D01*
X77500000Y-86510000D02*
X77490000Y-86610000D01*
X60000000Y-121510000D02*
X60000000Y-118490000D01*
X60000000Y-121610000D02*
X60000000Y-121510000D01*
X60020000Y-121700000D02*
X60000000Y-121610000D01*
X60040000Y-121800000D02*
X60020000Y-121700000D01*
X60080000Y-121890000D02*
X60040000Y-121800000D01*
X60120000Y-121980000D02*
X60080000Y-121890000D01*
X60170000Y-122060000D02*
X60120000Y-121980000D01*
X60220000Y-122140000D02*
X60170000Y-122060000D01*
X60290000Y-122210000D02*
X60220000Y-122140000D01*
X60360000Y-122270000D02*
X60290000Y-122210000D01*
X60440000Y-122330000D02*
X60360000Y-122270000D01*
X60520000Y-122380000D02*
X60440000Y-122330000D01*
X60610000Y-122420000D02*
X60520000Y-122380000D01*
X60700000Y-122460000D02*
X60610000Y-122420000D01*
X60800000Y-122480000D02*
X60700000Y-122460000D01*
X60890000Y-122490000D02*
X60800000Y-122480000D01*
X60990000Y-122500000D02*
X60890000Y-122490000D01*
X71500000Y-122500000D02*
X60990000Y-122500000D01*
X71550000Y-122500000D02*
X71500000Y-122500000D01*
X71590000Y-122500000D02*
X71550000Y-122500000D01*
X71650000Y-122510000D02*
X71590000Y-122500000D01*
X71700000Y-122520000D02*
X71650000Y-122510000D01*
X71740000Y-122530000D02*
X71700000Y-122520000D01*
X71800000Y-122540000D02*
X71740000Y-122530000D01*
X71850000Y-122560000D02*
X71800000Y-122540000D01*
X71890000Y-122580000D02*
X71850000Y-122560000D01*
X71940000Y-122600000D02*
X71890000Y-122580000D01*
X71990000Y-122630000D02*
X71940000Y-122600000D01*
X72030000Y-122650000D02*
X71990000Y-122630000D01*
X72070000Y-122680000D02*
X72030000Y-122650000D01*
X72110000Y-122710000D02*
X72070000Y-122680000D01*
X72150000Y-122740000D02*
X72110000Y-122710000D01*
X72190000Y-122770000D02*
X72150000Y-122740000D01*
X72230000Y-122810000D02*
X72190000Y-122770000D01*
X72260000Y-122850000D02*
X72230000Y-122810000D01*
X72290000Y-122890000D02*
X72260000Y-122850000D01*
X72320000Y-122930000D02*
X72290000Y-122890000D01*
X72350000Y-122980000D02*
X72320000Y-122930000D01*
X72380000Y-123010000D02*
X72350000Y-122980000D01*
X72400000Y-123060000D02*
X72380000Y-123010000D01*
X72420000Y-123110000D02*
X72400000Y-123060000D01*
X72440000Y-123150000D02*
X72420000Y-123110000D01*
X72450000Y-123190000D02*
X72440000Y-123150000D01*
X72470000Y-123250000D02*
X72450000Y-123190000D01*
X72480000Y-123300000D02*
X72470000Y-123250000D01*
X72490000Y-123350000D02*
X72480000Y-123300000D01*
X72500000Y-123390000D02*
X72490000Y-123350000D01*
X72500000Y-123450000D02*
X72500000Y-123390000D01*
X72500000Y-123500000D02*
X72500000Y-123450000D01*
X72500000Y-126510000D02*
X72500000Y-123500000D01*
X72510000Y-126610000D02*
X72500000Y-126510000D01*
X72520000Y-126700000D02*
X72510000Y-126610000D01*
X72540000Y-126800000D02*
X72520000Y-126700000D01*
X72580000Y-126890000D02*
X72540000Y-126800000D01*
X72620000Y-126980000D02*
X72580000Y-126890000D01*
X72670000Y-127060000D02*
X72620000Y-126980000D01*
X72730000Y-127140000D02*
X72670000Y-127060000D01*
X72790000Y-127210000D02*
X72730000Y-127140000D01*
X72860000Y-127280000D02*
X72790000Y-127210000D01*
X72940000Y-127330000D02*
X72860000Y-127280000D01*
X73020000Y-127380000D02*
X72940000Y-127330000D01*
X73110000Y-127420000D02*
X73020000Y-127380000D01*
X73200000Y-127460000D02*
X73110000Y-127420000D01*
X73300000Y-127480000D02*
X73200000Y-127460000D01*
X73390000Y-127500000D02*
X73300000Y-127480000D01*
X73490000Y-127500000D02*
X73390000Y-127500000D01*
X76510000Y-127500000D02*
X73490000Y-127500000D01*
X76610000Y-127500000D02*
X76510000Y-127500000D01*
X76700000Y-127480000D02*
X76610000Y-127500000D01*
X76800000Y-127460000D02*
X76700000Y-127480000D01*
X76890000Y-127420000D02*
X76800000Y-127460000D01*
X76980000Y-127380000D02*
X76890000Y-127420000D01*
X77060000Y-127330000D02*
X76980000Y-127380000D01*
X77140000Y-127280000D02*
X77060000Y-127330000D01*
X77210000Y-127210000D02*
X77140000Y-127280000D01*
X77270000Y-127140000D02*
X77210000Y-127210000D01*
X77330000Y-127060000D02*
X77270000Y-127140000D01*
X77380000Y-126980000D02*
X77330000Y-127060000D01*
X77420000Y-126890000D02*
X77380000Y-126980000D01*
X77460000Y-126800000D02*
X77420000Y-126890000D01*
X77480000Y-126700000D02*
X77460000Y-126800000D01*
X77490000Y-126610000D02*
X77480000Y-126700000D01*
X77500000Y-126510000D02*
X77490000Y-126610000D01*
X77500000Y-123500000D02*
X77500000Y-126510000D01*
X77500000Y-123450000D02*
X77500000Y-123500000D01*
X77500000Y-123400000D02*
X77500000Y-123450000D01*
X77510000Y-123350000D02*
X77500000Y-123400000D01*
X77520000Y-123300000D02*
X77510000Y-123350000D01*
X77530000Y-123250000D02*
X77520000Y-123300000D01*
X77550000Y-123190000D02*
X77530000Y-123250000D01*
X77560000Y-123150000D02*
X77550000Y-123190000D01*
X77580000Y-123110000D02*
X77560000Y-123150000D01*
X77600000Y-123060000D02*
X77580000Y-123110000D01*
X77630000Y-123010000D02*
X77600000Y-123060000D01*
X77650000Y-122970000D02*
X77630000Y-123010000D01*
X77670000Y-122930000D02*
X77650000Y-122970000D01*
X77710000Y-122890000D02*
X77670000Y-122930000D01*
X77740000Y-122850000D02*
X77710000Y-122890000D01*
X77780000Y-122810000D02*
X77740000Y-122850000D01*
X77810000Y-122770000D02*
X77780000Y-122810000D01*
X77840000Y-122740000D02*
X77810000Y-122770000D01*
X77890000Y-122710000D02*
X77840000Y-122740000D01*
X77930000Y-122680000D02*
X77890000Y-122710000D01*
X77980000Y-122650000D02*
X77930000Y-122680000D01*
X78010000Y-122620000D02*
X77980000Y-122650000D01*
X78050000Y-122600000D02*
X78010000Y-122620000D01*
X78110000Y-122580000D02*
X78050000Y-122600000D01*
X78160000Y-122560000D02*
X78110000Y-122580000D01*
X78200000Y-122540000D02*
X78160000Y-122560000D01*
X78250000Y-122530000D02*
X78200000Y-122540000D01*
X78300000Y-122520000D02*
X78250000Y-122530000D01*
X78340000Y-122510000D02*
X78300000Y-122520000D01*
X78410000Y-122500000D02*
X78340000Y-122510000D01*
X78450000Y-122500000D02*
X78410000Y-122500000D01*
X78500000Y-122500000D02*
X78450000Y-122500000D01*
X89010000Y-122500000D02*
X78500000Y-122500000D01*
X89110000Y-122490000D02*
X89010000Y-122500000D01*
X89200000Y-122480000D02*
X89110000Y-122490000D01*
X89300000Y-122460000D02*
X89200000Y-122480000D01*
X89390000Y-122420000D02*
X89300000Y-122460000D01*
X89480000Y-122380000D02*
X89390000Y-122420000D01*
X89560000Y-122330000D02*
X89480000Y-122380000D01*
X89640000Y-122270000D02*
X89560000Y-122330000D01*
X89710000Y-122210000D02*
X89640000Y-122270000D01*
X89780000Y-122140000D02*
X89710000Y-122210000D01*
X89830000Y-122060000D02*
X89780000Y-122140000D01*
X89880000Y-121980000D02*
X89830000Y-122060000D01*
X89920000Y-121890000D02*
X89880000Y-121980000D01*
X89960000Y-121800000D02*
X89920000Y-121890000D01*
X89980000Y-121700000D02*
X89960000Y-121800000D01*
X90000000Y-121610000D02*
X89980000Y-121700000D01*
X90000000Y-121510000D02*
X90000000Y-121610000D01*
X90000000Y-118490000D02*
X90000000Y-121510000D01*
X90000000Y-118390000D02*
X90000000Y-118490000D01*
X89980000Y-118300000D02*
X90000000Y-118390000D01*
X89960000Y-118200000D02*
X89980000Y-118300000D01*
X89920000Y-118110000D02*
X89960000Y-118200000D01*
X89880000Y-118020000D02*
X89920000Y-118110000D01*
X89830000Y-117940000D02*
X89880000Y-118020000D01*
X89780000Y-117860000D02*
X89830000Y-117940000D01*
X89710000Y-117790000D02*
X89780000Y-117860000D01*
X89640000Y-117730000D02*
X89710000Y-117790000D01*
X89560000Y-117670000D02*
X89640000Y-117730000D01*
X89480000Y-117620000D02*
X89560000Y-117670000D01*
X89390000Y-117580000D02*
X89480000Y-117620000D01*
X89300000Y-117540000D02*
X89390000Y-117580000D01*
X89200000Y-117520000D02*
X89300000Y-117540000D01*
X89110000Y-117510000D02*
X89200000Y-117520000D01*
X89010000Y-117500000D02*
X89110000Y-117510000D01*
X78500000Y-117500000D02*
X89010000Y-117500000D01*
X78450000Y-117500000D02*
X78500000Y-117500000D01*
X78410000Y-117500000D02*
X78450000Y-117500000D01*
X78350000Y-117490000D02*
X78410000Y-117500000D01*
X78300000Y-117480000D02*
X78350000Y-117490000D01*
X78260000Y-117470000D02*
X78300000Y-117480000D01*
X78200000Y-117450000D02*
X78260000Y-117470000D01*
X78150000Y-117440000D02*
X78200000Y-117450000D01*
X78110000Y-117420000D02*
X78150000Y-117440000D01*
X78060000Y-117400000D02*
X78110000Y-117420000D01*
X78010000Y-117370000D02*
X78060000Y-117400000D01*
X77970000Y-117350000D02*
X78010000Y-117370000D01*
X77930000Y-117320000D02*
X77970000Y-117350000D01*
X77890000Y-117290000D02*
X77930000Y-117320000D01*
X77850000Y-117260000D02*
X77890000Y-117290000D01*
X77810000Y-117230000D02*
X77850000Y-117260000D01*
X77770000Y-117190000D02*
X77810000Y-117230000D01*
X77740000Y-117150000D02*
X77770000Y-117190000D01*
X77710000Y-117110000D02*
X77740000Y-117150000D01*
X77680000Y-117070000D02*
X77710000Y-117110000D01*
X77650000Y-117020000D02*
X77680000Y-117070000D01*
X77620000Y-116990000D02*
X77650000Y-117020000D01*
X77600000Y-116940000D02*
X77620000Y-116990000D01*
X77580000Y-116890000D02*
X77600000Y-116940000D01*
X77560000Y-116850000D02*
X77580000Y-116890000D01*
X77550000Y-116810000D02*
X77560000Y-116850000D01*
X77530000Y-116750000D02*
X77550000Y-116810000D01*
X77520000Y-116700000D02*
X77530000Y-116750000D01*
X77510000Y-116650000D02*
X77520000Y-116700000D01*
X77500000Y-116610000D02*
X77510000Y-116650000D01*
X77500000Y-116550000D02*
X77500000Y-116610000D01*
X77500000Y-116500000D02*
X77500000Y-116550000D01*
X77500000Y-113490000D02*
X77500000Y-116500000D01*
X77490000Y-113390000D02*
X77500000Y-113490000D01*
X77480000Y-113300000D02*
X77490000Y-113390000D01*
X77460000Y-113200000D02*
X77480000Y-113300000D01*
X77420000Y-113110000D02*
X77460000Y-113200000D01*
X77380000Y-113020000D02*
X77420000Y-113110000D01*
X77330000Y-112940000D02*
X77380000Y-113020000D01*
X77270000Y-112860000D02*
X77330000Y-112940000D01*
X77210000Y-112790000D02*
X77270000Y-112860000D01*
X77140000Y-112720000D02*
X77210000Y-112790000D01*
X77060000Y-112670000D02*
X77140000Y-112720000D01*
X76980000Y-112620000D02*
X77060000Y-112670000D01*
X76890000Y-112580000D02*
X76980000Y-112620000D01*
X76800000Y-112540000D02*
X76890000Y-112580000D01*
X76700000Y-112520000D02*
X76800000Y-112540000D01*
X76610000Y-112500000D02*
X76700000Y-112520000D01*
X76510000Y-112500000D02*
X76610000Y-112500000D01*
X73490000Y-112500000D02*
X76510000Y-112500000D01*
X73390000Y-112500000D02*
X73490000Y-112500000D01*
X73300000Y-112520000D02*
X73390000Y-112500000D01*
X73200000Y-112540000D02*
X73300000Y-112520000D01*
X73110000Y-112580000D02*
X73200000Y-112540000D01*
X73020000Y-112620000D02*
X73110000Y-112580000D01*
X72940000Y-112670000D02*
X73020000Y-112620000D01*
X72860000Y-112720000D02*
X72940000Y-112670000D01*
X72790000Y-112790000D02*
X72860000Y-112720000D01*
X72730000Y-112860000D02*
X72790000Y-112790000D01*
X72670000Y-112940000D02*
X72730000Y-112860000D01*
X72620000Y-113020000D02*
X72670000Y-112940000D01*
X72580000Y-113110000D02*
X72620000Y-113020000D01*
X72540000Y-113200000D02*
X72580000Y-113110000D01*
X72520000Y-113300000D02*
X72540000Y-113200000D01*
X72510000Y-113390000D02*
X72520000Y-113300000D01*
X72500000Y-113490000D02*
X72510000Y-113390000D01*
X72500000Y-116500000D02*
X72500000Y-113490000D01*
X72500000Y-116550000D02*
X72500000Y-116500000D01*
X72500000Y-116600000D02*
X72500000Y-116550000D01*
X72490000Y-116650000D02*
X72500000Y-116600000D01*
X72480000Y-116700000D02*
X72490000Y-116650000D01*
X72470000Y-116750000D02*
X72480000Y-116700000D01*
X72450000Y-116810000D02*
X72470000Y-116750000D01*
X72440000Y-116850000D02*
X72450000Y-116810000D01*
X72420000Y-116890000D02*
X72440000Y-116850000D01*
X72400000Y-116940000D02*
X72420000Y-116890000D01*
X72380000Y-116990000D02*
X72400000Y-116940000D01*
X72350000Y-117030000D02*
X72380000Y-116990000D01*
X72320000Y-117070000D02*
X72350000Y-117030000D01*
X72300000Y-117110000D02*
X72320000Y-117070000D01*
X72260000Y-117150000D02*
X72300000Y-117110000D01*
X72230000Y-117190000D02*
X72260000Y-117150000D01*
X72180000Y-117230000D02*
X72230000Y-117190000D01*
X72150000Y-117260000D02*
X72180000Y-117230000D01*
X72120000Y-117290000D02*
X72150000Y-117260000D01*
X72070000Y-117320000D02*
X72120000Y-117290000D01*
X72020000Y-117350000D02*
X72070000Y-117320000D01*
X71990000Y-117380000D02*
X72020000Y-117350000D01*
X71950000Y-117400000D02*
X71990000Y-117380000D01*
X71890000Y-117420000D02*
X71950000Y-117400000D01*
X71850000Y-117440000D02*
X71890000Y-117420000D01*
X71800000Y-117460000D02*
X71850000Y-117440000D01*
X71750000Y-117470000D02*
X71800000Y-117460000D01*
X71700000Y-117480000D02*
X71750000Y-117470000D01*
X71660000Y-117490000D02*
X71700000Y-117480000D01*
X71590000Y-117500000D02*
X71660000Y-117490000D01*
X71550000Y-117500000D02*
X71590000Y-117500000D01*
X71500000Y-117500000D02*
X71550000Y-117500000D01*
X60990000Y-117500000D02*
X71500000Y-117500000D01*
X60890000Y-117510000D02*
X60990000Y-117500000D01*
X60800000Y-117520000D02*
X60890000Y-117510000D01*
X60700000Y-117540000D02*
X60800000Y-117520000D01*
X60610000Y-117580000D02*
X60700000Y-117540000D01*
X60520000Y-117620000D02*
X60610000Y-117580000D01*
X60440000Y-117670000D02*
X60520000Y-117620000D01*
X60360000Y-117730000D02*
X60440000Y-117670000D01*
X60290000Y-117790000D02*
X60360000Y-117730000D01*
X60220000Y-117860000D02*
X60290000Y-117790000D01*
X60170000Y-117940000D02*
X60220000Y-117860000D01*
X60120000Y-118020000D02*
X60170000Y-117940000D01*
X60080000Y-118110000D02*
X60120000Y-118020000D01*
X60040000Y-118200000D02*
X60080000Y-118110000D01*
X60020000Y-118300000D02*
X60040000Y-118200000D01*
X60000000Y-118390000D02*
X60020000Y-118300000D01*
X60000000Y-118490000D02*
X60000000Y-118390000D01*
X95000000Y-101510000D02*
X95000000Y-98490000D01*
X95010000Y-101610000D02*
X95000000Y-101510000D01*
X95020000Y-101700000D02*
X95010000Y-101610000D01*
X95040000Y-101800000D02*
X95020000Y-101700000D01*
X95080000Y-101890000D02*
X95040000Y-101800000D01*
X95120000Y-101980000D02*
X95080000Y-101890000D01*
X95170000Y-102060000D02*
X95120000Y-101980000D01*
X95230000Y-102140000D02*
X95170000Y-102060000D01*
X95290000Y-102210000D02*
X95230000Y-102140000D01*
X95360000Y-102270000D02*
X95290000Y-102210000D01*
X95440000Y-102330000D02*
X95360000Y-102270000D01*
X95520000Y-102380000D02*
X95440000Y-102330000D01*
X95610000Y-102420000D02*
X95520000Y-102380000D01*
X95700000Y-102460000D02*
X95610000Y-102420000D01*
X95800000Y-102480000D02*
X95700000Y-102460000D01*
X95890000Y-102490000D02*
X95800000Y-102480000D01*
X95990000Y-102500000D02*
X95890000Y-102490000D01*
X104010000Y-102500000D02*
X95990000Y-102500000D01*
X104110000Y-102490000D02*
X104010000Y-102500000D01*
X104200000Y-102480000D02*
X104110000Y-102490000D01*
X104300000Y-102460000D02*
X104200000Y-102480000D01*
X104390000Y-102420000D02*
X104300000Y-102460000D01*
X104480000Y-102380000D02*
X104390000Y-102420000D01*
X104560000Y-102330000D02*
X104480000Y-102380000D01*
X104640000Y-102270000D02*
X104560000Y-102330000D01*
X104710000Y-102210000D02*
X104640000Y-102270000D01*
X104770000Y-102140000D02*
X104710000Y-102210000D01*
X104830000Y-102060000D02*
X104770000Y-102140000D01*
X104880000Y-101980000D02*
X104830000Y-102060000D01*
X104920000Y-101890000D02*
X104880000Y-101980000D01*
X104960000Y-101800000D02*
X104920000Y-101890000D01*
X104980000Y-101700000D02*
X104960000Y-101800000D01*
X104990000Y-101610000D02*
X104980000Y-101700000D01*
X105000000Y-101510000D02*
X104990000Y-101610000D01*
X105000000Y-98490000D02*
X105000000Y-101510000D01*
X104990000Y-98390000D02*
X105000000Y-98490000D01*
X104980000Y-98300000D02*
X104990000Y-98390000D01*
X104960000Y-98200000D02*
X104980000Y-98300000D01*
X104920000Y-98110000D02*
X104960000Y-98200000D01*
X104880000Y-98020000D02*
X104920000Y-98110000D01*
X104830000Y-97940000D02*
X104880000Y-98020000D01*
X104770000Y-97860000D02*
X104830000Y-97940000D01*
X104710000Y-97790000D02*
X104770000Y-97860000D01*
X104640000Y-97730000D02*
X104710000Y-97790000D01*
X104560000Y-97670000D02*
X104640000Y-97730000D01*
X104480000Y-97620000D02*
X104560000Y-97670000D01*
X104390000Y-97580000D02*
X104480000Y-97620000D01*
X104300000Y-97540000D02*
X104390000Y-97580000D01*
X104200000Y-97520000D02*
X104300000Y-97540000D01*
X104110000Y-97510000D02*
X104200000Y-97520000D01*
X104010000Y-97500000D02*
X104110000Y-97510000D01*
X95990000Y-97500000D02*
X104010000Y-97500000D01*
X95890000Y-97510000D02*
X95990000Y-97500000D01*
X95800000Y-97520000D02*
X95890000Y-97510000D01*
X95700000Y-97540000D02*
X95800000Y-97520000D01*
X95610000Y-97580000D02*
X95700000Y-97540000D01*
X95520000Y-97620000D02*
X95610000Y-97580000D01*
X95440000Y-97670000D02*
X95520000Y-97620000D01*
X95360000Y-97730000D02*
X95440000Y-97670000D01*
X95290000Y-97790000D02*
X95360000Y-97730000D01*
X95230000Y-97860000D02*
X95290000Y-97790000D01*
X95170000Y-97940000D02*
X95230000Y-97860000D01*
X95120000Y-98020000D02*
X95170000Y-97940000D01*
X95080000Y-98110000D02*
X95120000Y-98020000D01*
X95040000Y-98200000D02*
X95080000Y-98110000D01*
X95020000Y-98300000D02*
X95040000Y-98200000D01*
X95010000Y-98390000D02*
X95020000Y-98300000D01*
X95000000Y-98490000D02*
X95010000Y-98390000D01*
X95000000Y-121510000D02*
X95000000Y-118490000D01*
X95010000Y-121610000D02*
X95000000Y-121510000D01*
X95020000Y-121700000D02*
X95010000Y-121610000D01*
X95040000Y-121800000D02*
X95020000Y-121700000D01*
X95080000Y-121890000D02*
X95040000Y-121800000D01*
X95120000Y-121980000D02*
X95080000Y-121890000D01*
X95170000Y-122060000D02*
X95120000Y-121980000D01*
X95230000Y-122140000D02*
X95170000Y-122060000D01*
X95290000Y-122210000D02*
X95230000Y-122140000D01*
X95360000Y-122270000D02*
X95290000Y-122210000D01*
X95440000Y-122330000D02*
X95360000Y-122270000D01*
X95520000Y-122380000D02*
X95440000Y-122330000D01*
X95610000Y-122420000D02*
X95520000Y-122380000D01*
X95700000Y-122460000D02*
X95610000Y-122420000D01*
X95800000Y-122480000D02*
X95700000Y-122460000D01*
X95890000Y-122490000D02*
X95800000Y-122480000D01*
X95990000Y-122500000D02*
X95890000Y-122490000D01*
X104010000Y-122500000D02*
X95990000Y-122500000D01*
X104110000Y-122490000D02*
X104010000Y-122500000D01*
X104200000Y-122480000D02*
X104110000Y-122490000D01*
X104300000Y-122460000D02*
X104200000Y-122480000D01*
X104390000Y-122420000D02*
X104300000Y-122460000D01*
X104480000Y-122380000D02*
X104390000Y-122420000D01*
X104560000Y-122330000D02*
X104480000Y-122380000D01*
X104640000Y-122270000D02*
X104560000Y-122330000D01*
X104710000Y-122210000D02*
X104640000Y-122270000D01*
X104770000Y-122140000D02*
X104710000Y-122210000D01*
X104830000Y-122060000D02*
X104770000Y-122140000D01*
X104880000Y-121980000D02*
X104830000Y-122060000D01*
X104920000Y-121890000D02*
X104880000Y-121980000D01*
X104960000Y-121800000D02*
X104920000Y-121890000D01*
X104980000Y-121700000D02*
X104960000Y-121800000D01*
X104990000Y-121610000D02*
X104980000Y-121700000D01*
X105000000Y-121510000D02*
X104990000Y-121610000D01*
X105000000Y-118490000D02*
X105000000Y-121510000D01*
X104990000Y-118390000D02*
X105000000Y-118490000D01*
X104980000Y-118300000D02*
X104990000Y-118390000D01*
X104960000Y-118200000D02*
X104980000Y-118300000D01*
X104920000Y-118110000D02*
X104960000Y-118200000D01*
X104880000Y-118020000D02*
X104920000Y-118110000D01*
X104830000Y-117940000D02*
X104880000Y-118020000D01*
X104770000Y-117860000D02*
X104830000Y-117940000D01*
X104710000Y-117790000D02*
X104770000Y-117860000D01*
X104640000Y-117730000D02*
X104710000Y-117790000D01*
X104560000Y-117670000D02*
X104640000Y-117730000D01*
X104480000Y-117620000D02*
X104560000Y-117670000D01*
X104390000Y-117580000D02*
X104480000Y-117620000D01*
X104300000Y-117540000D02*
X104390000Y-117580000D01*
X104200000Y-117520000D02*
X104300000Y-117540000D01*
X104110000Y-117510000D02*
X104200000Y-117520000D01*
X104010000Y-117500000D02*
X104110000Y-117510000D01*
X95990000Y-117500000D02*
X104010000Y-117500000D01*
X95890000Y-117510000D02*
X95990000Y-117500000D01*
X95800000Y-117520000D02*
X95890000Y-117510000D01*
X95700000Y-117540000D02*
X95800000Y-117520000D01*
X95610000Y-117580000D02*
X95700000Y-117540000D01*
X95520000Y-117620000D02*
X95610000Y-117580000D01*
X95440000Y-117670000D02*
X95520000Y-117620000D01*
X95360000Y-117730000D02*
X95440000Y-117670000D01*
X95290000Y-117790000D02*
X95360000Y-117730000D01*
X95230000Y-117860000D02*
X95290000Y-117790000D01*
X95170000Y-117940000D02*
X95230000Y-117860000D01*
X95120000Y-118020000D02*
X95170000Y-117940000D01*
X95080000Y-118110000D02*
X95120000Y-118020000D01*
X95040000Y-118200000D02*
X95080000Y-118110000D01*
X95020000Y-118300000D02*
X95040000Y-118200000D01*
X95010000Y-118390000D02*
X95020000Y-118300000D01*
X95000000Y-118490000D02*
X95010000Y-118390000D01*
X104010000Y-82500000D02*
X95990000Y-82500000D01*
X104110000Y-82490000D02*
X104010000Y-82500000D01*
X104200000Y-82480000D02*
X104110000Y-82490000D01*
X104300000Y-82460000D02*
X104200000Y-82480000D01*
X104390000Y-82420000D02*
X104300000Y-82460000D01*
X104480000Y-82380000D02*
X104390000Y-82420000D01*
X104560000Y-82330000D02*
X104480000Y-82380000D01*
X104640000Y-82270000D02*
X104560000Y-82330000D01*
X104710000Y-82210000D02*
X104640000Y-82270000D01*
X104770000Y-82140000D02*
X104710000Y-82210000D01*
X104830000Y-82060000D02*
X104770000Y-82140000D01*
X104880000Y-81980000D02*
X104830000Y-82060000D01*
X104920000Y-81890000D02*
X104880000Y-81980000D01*
X104960000Y-81800000D02*
X104920000Y-81890000D01*
X104980000Y-81700000D02*
X104960000Y-81800000D01*
X104990000Y-81610000D02*
X104980000Y-81700000D01*
X105000000Y-81510000D02*
X104990000Y-81610000D01*
X105000000Y-78490000D02*
X105000000Y-81510000D01*
X104990000Y-78390000D02*
X105000000Y-78490000D01*
X104980000Y-78300000D02*
X104990000Y-78390000D01*
X104960000Y-78200000D02*
X104980000Y-78300000D01*
X104920000Y-78110000D02*
X104960000Y-78200000D01*
X104880000Y-78020000D02*
X104920000Y-78110000D01*
X104830000Y-77940000D02*
X104880000Y-78020000D01*
X104770000Y-77860000D02*
X104830000Y-77940000D01*
X104710000Y-77790000D02*
X104770000Y-77860000D01*
X104640000Y-77730000D02*
X104710000Y-77790000D01*
X104560000Y-77670000D02*
X104640000Y-77730000D01*
X104480000Y-77620000D02*
X104560000Y-77670000D01*
X104390000Y-77580000D02*
X104480000Y-77620000D01*
X104300000Y-77540000D02*
X104390000Y-77580000D01*
X104200000Y-77520000D02*
X104300000Y-77540000D01*
X104110000Y-77510000D02*
X104200000Y-77520000D01*
X104010000Y-77500000D02*
X104110000Y-77510000D01*
X95990000Y-77500000D02*
X104010000Y-77500000D01*
X95890000Y-77510000D02*
X95990000Y-77500000D01*
X95800000Y-77520000D02*
X95890000Y-77510000D01*
X95700000Y-77540000D02*
X95800000Y-77520000D01*
X95610000Y-77580000D02*
X95700000Y-77540000D01*
X95520000Y-77620000D02*
X95610000Y-77580000D01*
X95440000Y-77670000D02*
X95520000Y-77620000D01*
X95360000Y-77730000D02*
X95440000Y-77670000D01*
X95290000Y-77790000D02*
X95360000Y-77730000D01*
X95230000Y-77860000D02*
X95290000Y-77790000D01*
X95170000Y-77940000D02*
X95230000Y-77860000D01*
X95120000Y-78020000D02*
X95170000Y-77940000D01*
X95080000Y-78110000D02*
X95120000Y-78020000D01*
X95040000Y-78200000D02*
X95080000Y-78110000D01*
X95020000Y-78300000D02*
X95040000Y-78200000D01*
X95010000Y-78390000D02*
X95020000Y-78300000D01*
X95000000Y-78490000D02*
X95010000Y-78390000D01*
X95000000Y-81510000D02*
X95000000Y-78490000D01*
X95010000Y-81610000D02*
X95000000Y-81510000D01*
X95020000Y-81700000D02*
X95010000Y-81610000D01*
X95040000Y-81800000D02*
X95020000Y-81700000D01*
X95080000Y-81890000D02*
X95040000Y-81800000D01*
X95120000Y-81980000D02*
X95080000Y-81890000D01*
X95170000Y-82060000D02*
X95120000Y-81980000D01*
X95230000Y-82140000D02*
X95170000Y-82060000D01*
X95290000Y-82210000D02*
X95230000Y-82140000D01*
X95360000Y-82270000D02*
X95290000Y-82210000D01*
X95440000Y-82330000D02*
X95360000Y-82270000D01*
X95520000Y-82380000D02*
X95440000Y-82330000D01*
X95610000Y-82420000D02*
X95520000Y-82380000D01*
X95700000Y-82460000D02*
X95610000Y-82420000D01*
X95800000Y-82480000D02*
X95700000Y-82460000D01*
X95890000Y-82490000D02*
X95800000Y-82480000D01*
X95990000Y-82500000D02*
X95890000Y-82490000D01*
X104010000Y-62500000D02*
X95990000Y-62500000D01*
X104110000Y-62490000D02*
X104010000Y-62500000D01*
X104200000Y-62480000D02*
X104110000Y-62490000D01*
X104300000Y-62460000D02*
X104200000Y-62480000D01*
X104390000Y-62420000D02*
X104300000Y-62460000D01*
X104480000Y-62380000D02*
X104390000Y-62420000D01*
X104560000Y-62330000D02*
X104480000Y-62380000D01*
X104640000Y-62270000D02*
X104560000Y-62330000D01*
X104710000Y-62210000D02*
X104640000Y-62270000D01*
X104770000Y-62140000D02*
X104710000Y-62210000D01*
X104830000Y-62060000D02*
X104770000Y-62140000D01*
X104880000Y-61980000D02*
X104830000Y-62060000D01*
X104920000Y-61890000D02*
X104880000Y-61980000D01*
X104960000Y-61800000D02*
X104920000Y-61890000D01*
X104980000Y-61700000D02*
X104960000Y-61800000D01*
X104990000Y-61610000D02*
X104980000Y-61700000D01*
X105000000Y-61510000D02*
X104990000Y-61610000D01*
X105000000Y-58490000D02*
X105000000Y-61510000D01*
X104990000Y-58390000D02*
X105000000Y-58490000D01*
X104980000Y-58300000D02*
X104990000Y-58390000D01*
X104960000Y-58200000D02*
X104980000Y-58300000D01*
X104920000Y-58110000D02*
X104960000Y-58200000D01*
X104880000Y-58020000D02*
X104920000Y-58110000D01*
X104830000Y-57940000D02*
X104880000Y-58020000D01*
X104770000Y-57860000D02*
X104830000Y-57940000D01*
X104710000Y-57790000D02*
X104770000Y-57860000D01*
X104640000Y-57730000D02*
X104710000Y-57790000D01*
X104560000Y-57670000D02*
X104640000Y-57730000D01*
X104480000Y-57620000D02*
X104560000Y-57670000D01*
X104390000Y-57580000D02*
X104480000Y-57620000D01*
X104300000Y-57540000D02*
X104390000Y-57580000D01*
X104200000Y-57520000D02*
X104300000Y-57540000D01*
X104110000Y-57510000D02*
X104200000Y-57520000D01*
X104010000Y-57500000D02*
X104110000Y-57510000D01*
X95990000Y-57500000D02*
X104010000Y-57500000D01*
X95890000Y-57510000D02*
X95990000Y-57500000D01*
X95800000Y-57520000D02*
X95890000Y-57510000D01*
X95700000Y-57540000D02*
X95800000Y-57520000D01*
X95610000Y-57580000D02*
X95700000Y-57540000D01*
X95520000Y-57620000D02*
X95610000Y-57580000D01*
X95440000Y-57670000D02*
X95520000Y-57620000D01*
X95360000Y-57730000D02*
X95440000Y-57670000D01*
X95290000Y-57790000D02*
X95360000Y-57730000D01*
X95230000Y-57860000D02*
X95290000Y-57790000D01*
X95170000Y-57940000D02*
X95230000Y-57860000D01*
X95120000Y-58020000D02*
X95170000Y-57940000D01*
X95080000Y-58110000D02*
X95120000Y-58020000D01*
X95040000Y-58200000D02*
X95080000Y-58110000D01*
X95020000Y-58300000D02*
X95040000Y-58200000D01*
X95010000Y-58390000D02*
X95020000Y-58300000D01*
X95000000Y-58490000D02*
X95010000Y-58390000D01*
X95000000Y-61510000D02*
X95000000Y-58490000D01*
X95010000Y-61610000D02*
X95000000Y-61510000D01*
X95020000Y-61700000D02*
X95010000Y-61610000D01*
X95040000Y-61800000D02*
X95020000Y-61700000D01*
X95080000Y-61890000D02*
X95040000Y-61800000D01*
X95120000Y-61980000D02*
X95080000Y-61890000D01*
X95170000Y-62060000D02*
X95120000Y-61980000D01*
X95230000Y-62140000D02*
X95170000Y-62060000D01*
X95290000Y-62210000D02*
X95230000Y-62140000D01*
X95360000Y-62270000D02*
X95290000Y-62210000D01*
X95440000Y-62330000D02*
X95360000Y-62270000D01*
X95520000Y-62380000D02*
X95440000Y-62330000D01*
X95610000Y-62420000D02*
X95520000Y-62380000D01*
X95700000Y-62460000D02*
X95610000Y-62420000D01*
X95800000Y-62480000D02*
X95700000Y-62460000D01*
X95890000Y-62490000D02*
X95800000Y-62480000D01*
X95990000Y-62500000D02*
X95890000Y-62490000D01*
X127490000Y-53490000D02*
X127490000Y-66510000D01*
X127480000Y-53390000D02*
X127490000Y-53490000D01*
X127470000Y-53300000D02*
X127480000Y-53390000D01*
X127450000Y-53200000D02*
X127470000Y-53300000D01*
X127410000Y-53110000D02*
X127450000Y-53200000D01*
X127370000Y-53020000D02*
X127410000Y-53110000D01*
X127320000Y-52940000D02*
X127370000Y-53020000D01*
X127260000Y-52860000D02*
X127320000Y-52940000D01*
X127200000Y-52790000D02*
X127260000Y-52860000D01*
X127130000Y-52720000D02*
X127200000Y-52790000D01*
X127050000Y-52670000D02*
X127130000Y-52720000D01*
X126970000Y-52620000D02*
X127050000Y-52670000D01*
X126880000Y-52580000D02*
X126970000Y-52620000D01*
X126790000Y-52540000D02*
X126880000Y-52580000D01*
X126690000Y-52520000D02*
X126790000Y-52540000D01*
X126600000Y-52500000D02*
X126690000Y-52520000D01*
X126500000Y-52500000D02*
X126600000Y-52500000D01*
X123490000Y-52500000D02*
X126500000Y-52500000D01*
X123390000Y-52500000D02*
X123490000Y-52500000D01*
X123300000Y-52520000D02*
X123390000Y-52500000D01*
X123200000Y-52540000D02*
X123300000Y-52520000D01*
X123110000Y-52580000D02*
X123200000Y-52540000D01*
X123020000Y-52620000D02*
X123110000Y-52580000D01*
X122940000Y-52670000D02*
X123020000Y-52620000D01*
X122860000Y-52720000D02*
X122940000Y-52670000D01*
X122790000Y-52790000D02*
X122860000Y-52720000D01*
X122730000Y-52860000D02*
X122790000Y-52790000D01*
X122670000Y-52940000D02*
X122730000Y-52860000D01*
X122620000Y-53020000D02*
X122670000Y-52940000D01*
X122580000Y-53110000D02*
X122620000Y-53020000D01*
X122540000Y-53200000D02*
X122580000Y-53110000D01*
X122520000Y-53300000D02*
X122540000Y-53200000D01*
X122510000Y-53390000D02*
X122520000Y-53300000D01*
X122500000Y-53490000D02*
X122510000Y-53390000D01*
X122500000Y-56500000D02*
X122500000Y-53490000D01*
X122500000Y-56550000D02*
X122500000Y-56500000D01*
X122500000Y-56600000D02*
X122500000Y-56550000D01*
X122490000Y-56650000D02*
X122500000Y-56600000D01*
X122480000Y-56700000D02*
X122490000Y-56650000D01*
X122470000Y-56760000D02*
X122480000Y-56700000D01*
X122460000Y-56800000D02*
X122470000Y-56760000D01*
X122440000Y-56840000D02*
X122460000Y-56800000D01*
X122420000Y-56890000D02*
X122440000Y-56840000D01*
X122400000Y-56950000D02*
X122420000Y-56890000D01*
X122380000Y-56990000D02*
X122400000Y-56950000D01*
X122350000Y-57020000D02*
X122380000Y-56990000D01*
X122320000Y-57070000D02*
X122350000Y-57020000D01*
X122290000Y-57120000D02*
X122320000Y-57070000D01*
X122260000Y-57150000D02*
X122290000Y-57120000D01*
X122230000Y-57180000D02*
X122260000Y-57150000D01*
X122190000Y-57230000D02*
X122230000Y-57180000D01*
X122150000Y-57260000D02*
X122190000Y-57230000D01*
X122110000Y-57290000D02*
X122150000Y-57260000D01*
X122080000Y-57320000D02*
X122110000Y-57290000D01*
X122030000Y-57350000D02*
X122080000Y-57320000D01*
X121990000Y-57380000D02*
X122030000Y-57350000D01*
X121940000Y-57400000D02*
X121990000Y-57380000D01*
X121890000Y-57420000D02*
X121940000Y-57400000D01*
X121850000Y-57440000D02*
X121890000Y-57420000D01*
X121800000Y-57450000D02*
X121850000Y-57440000D01*
X121750000Y-57470000D02*
X121800000Y-57450000D01*
X121710000Y-57480000D02*
X121750000Y-57470000D01*
X121650000Y-57490000D02*
X121710000Y-57480000D01*
X121600000Y-57500000D02*
X121650000Y-57490000D01*
X121560000Y-57500000D02*
X121600000Y-57500000D01*
X121500000Y-57500000D02*
X121560000Y-57500000D01*
X110990000Y-57500000D02*
X121500000Y-57500000D01*
X110890000Y-57510000D02*
X110990000Y-57500000D01*
X110800000Y-57520000D02*
X110890000Y-57510000D01*
X110700000Y-57540000D02*
X110800000Y-57520000D01*
X110610000Y-57580000D02*
X110700000Y-57540000D01*
X110520000Y-57620000D02*
X110610000Y-57580000D01*
X110440000Y-57670000D02*
X110520000Y-57620000D01*
X110360000Y-57730000D02*
X110440000Y-57670000D01*
X110290000Y-57790000D02*
X110360000Y-57730000D01*
X110220000Y-57860000D02*
X110290000Y-57790000D01*
X110170000Y-57940000D02*
X110220000Y-57860000D01*
X110120000Y-58020000D02*
X110170000Y-57940000D01*
X110080000Y-58110000D02*
X110120000Y-58020000D01*
X110040000Y-58200000D02*
X110080000Y-58110000D01*
X110020000Y-58300000D02*
X110040000Y-58200000D01*
X110000000Y-58390000D02*
X110020000Y-58300000D01*
X110000000Y-58490000D02*
X110000000Y-58390000D01*
X110000000Y-61510000D02*
X110000000Y-58490000D01*
X110000000Y-61610000D02*
X110000000Y-61510000D01*
X110020000Y-61700000D02*
X110000000Y-61610000D01*
X110040000Y-61800000D02*
X110020000Y-61700000D01*
X110080000Y-61890000D02*
X110040000Y-61800000D01*
X110120000Y-61980000D02*
X110080000Y-61890000D01*
X110170000Y-62060000D02*
X110120000Y-61980000D01*
X110220000Y-62140000D02*
X110170000Y-62060000D01*
X110290000Y-62210000D02*
X110220000Y-62140000D01*
X110360000Y-62270000D02*
X110290000Y-62210000D01*
X110440000Y-62330000D02*
X110360000Y-62270000D01*
X110520000Y-62380000D02*
X110440000Y-62330000D01*
X110610000Y-62420000D02*
X110520000Y-62380000D01*
X110700000Y-62460000D02*
X110610000Y-62420000D01*
X110800000Y-62480000D02*
X110700000Y-62460000D01*
X110890000Y-62490000D02*
X110800000Y-62480000D01*
X110990000Y-62500000D02*
X110890000Y-62490000D01*
X121500000Y-62500000D02*
X110990000Y-62500000D01*
X121550000Y-62500000D02*
X121500000Y-62500000D01*
X121610000Y-62500000D02*
X121550000Y-62500000D01*
X121650000Y-62510000D02*
X121610000Y-62500000D01*
X121700000Y-62520000D02*
X121650000Y-62510000D01*
X121740000Y-62530000D02*
X121700000Y-62520000D01*
X121800000Y-62550000D02*
X121740000Y-62530000D01*
X121850000Y-62560000D02*
X121800000Y-62550000D01*
X121890000Y-62580000D02*
X121850000Y-62560000D01*
X121940000Y-62600000D02*
X121890000Y-62580000D01*
X121990000Y-62620000D02*
X121940000Y-62600000D01*
X122030000Y-62650000D02*
X121990000Y-62620000D01*
X122070000Y-62680000D02*
X122030000Y-62650000D01*
X122110000Y-62700000D02*
X122070000Y-62680000D01*
X122150000Y-62740000D02*
X122110000Y-62700000D01*
X122190000Y-62780000D02*
X122150000Y-62740000D01*
X122230000Y-62810000D02*
X122190000Y-62780000D01*
X122260000Y-62840000D02*
X122230000Y-62810000D01*
X122290000Y-62890000D02*
X122260000Y-62840000D01*
X122330000Y-62930000D02*
X122290000Y-62890000D01*
X122350000Y-62970000D02*
X122330000Y-62930000D01*
X122370000Y-63010000D02*
X122350000Y-62970000D01*
X122400000Y-63060000D02*
X122370000Y-63010000D01*
X122420000Y-63110000D02*
X122400000Y-63060000D01*
X122440000Y-63150000D02*
X122420000Y-63110000D01*
X122450000Y-63190000D02*
X122440000Y-63150000D01*
X122470000Y-63250000D02*
X122450000Y-63190000D01*
X122480000Y-63300000D02*
X122470000Y-63250000D01*
X122490000Y-63350000D02*
X122480000Y-63300000D01*
X122500000Y-63400000D02*
X122490000Y-63350000D01*
X122500000Y-63440000D02*
X122500000Y-63400000D01*
X122500000Y-63500000D02*
X122500000Y-63440000D01*
X122500000Y-66510000D02*
X122500000Y-63500000D01*
X122510000Y-66610000D02*
X122500000Y-66510000D01*
X122520000Y-66700000D02*
X122510000Y-66610000D01*
X122540000Y-66800000D02*
X122520000Y-66700000D01*
X122580000Y-66890000D02*
X122540000Y-66800000D01*
X122620000Y-66980000D02*
X122580000Y-66890000D01*
X122670000Y-67060000D02*
X122620000Y-66980000D01*
X122730000Y-67140000D02*
X122670000Y-67060000D01*
X122790000Y-67210000D02*
X122730000Y-67140000D01*
X122860000Y-67280000D02*
X122790000Y-67210000D01*
X122940000Y-67330000D02*
X122860000Y-67280000D01*
X123020000Y-67380000D02*
X122940000Y-67330000D01*
X123110000Y-67420000D02*
X123020000Y-67380000D01*
X123200000Y-67460000D02*
X123110000Y-67420000D01*
X123300000Y-67480000D02*
X123200000Y-67460000D01*
X123390000Y-67500000D02*
X123300000Y-67480000D01*
X123490000Y-67500000D02*
X123390000Y-67500000D01*
X126500000Y-67500000D02*
X123490000Y-67500000D01*
X126600000Y-67500000D02*
X126500000Y-67500000D01*
X126690000Y-67480000D02*
X126600000Y-67500000D01*
X126790000Y-67460000D02*
X126690000Y-67480000D01*
X126880000Y-67420000D02*
X126790000Y-67460000D01*
X126970000Y-67380000D02*
X126880000Y-67420000D01*
X127050000Y-67330000D02*
X126970000Y-67380000D01*
X127130000Y-67280000D02*
X127050000Y-67330000D01*
X127200000Y-67210000D02*
X127130000Y-67280000D01*
X127260000Y-67140000D02*
X127200000Y-67210000D01*
X127320000Y-67060000D02*
X127260000Y-67140000D01*
X127370000Y-66980000D02*
X127320000Y-67060000D01*
X127410000Y-66890000D02*
X127370000Y-66980000D01*
X127450000Y-66800000D02*
X127410000Y-66890000D01*
X127470000Y-66700000D02*
X127450000Y-66800000D01*
X127480000Y-66610000D02*
X127470000Y-66700000D01*
X127490000Y-66510000D02*
X127480000Y-66610000D01*
X127490000Y-73490000D02*
X127490000Y-86510000D01*
X127480000Y-73390000D02*
X127490000Y-73490000D01*
X127470000Y-73300000D02*
X127480000Y-73390000D01*
X127450000Y-73200000D02*
X127470000Y-73300000D01*
X127410000Y-73110000D02*
X127450000Y-73200000D01*
X127370000Y-73020000D02*
X127410000Y-73110000D01*
X127320000Y-72940000D02*
X127370000Y-73020000D01*
X127260000Y-72860000D02*
X127320000Y-72940000D01*
X127200000Y-72790000D02*
X127260000Y-72860000D01*
X127130000Y-72720000D02*
X127200000Y-72790000D01*
X127050000Y-72670000D02*
X127130000Y-72720000D01*
X126970000Y-72620000D02*
X127050000Y-72670000D01*
X126880000Y-72580000D02*
X126970000Y-72620000D01*
X126790000Y-72540000D02*
X126880000Y-72580000D01*
X126690000Y-72520000D02*
X126790000Y-72540000D01*
X126600000Y-72500000D02*
X126690000Y-72520000D01*
X126500000Y-72500000D02*
X126600000Y-72500000D01*
X123490000Y-72500000D02*
X126500000Y-72500000D01*
X123390000Y-72500000D02*
X123490000Y-72500000D01*
X123300000Y-72520000D02*
X123390000Y-72500000D01*
X123200000Y-72540000D02*
X123300000Y-72520000D01*
X123110000Y-72580000D02*
X123200000Y-72540000D01*
X123020000Y-72620000D02*
X123110000Y-72580000D01*
X122940000Y-72670000D02*
X123020000Y-72620000D01*
X122860000Y-72720000D02*
X122940000Y-72670000D01*
X122790000Y-72790000D02*
X122860000Y-72720000D01*
X122730000Y-72860000D02*
X122790000Y-72790000D01*
X122670000Y-72940000D02*
X122730000Y-72860000D01*
X122620000Y-73020000D02*
X122670000Y-72940000D01*
X122580000Y-73110000D02*
X122620000Y-73020000D01*
X122540000Y-73200000D02*
X122580000Y-73110000D01*
X122520000Y-73300000D02*
X122540000Y-73200000D01*
X122510000Y-73390000D02*
X122520000Y-73300000D01*
X122500000Y-73490000D02*
X122510000Y-73390000D01*
X122500000Y-76500000D02*
X122500000Y-73490000D01*
X122500000Y-76550000D02*
X122500000Y-76500000D01*
X122500000Y-76600000D02*
X122500000Y-76550000D01*
X122490000Y-76650000D02*
X122500000Y-76600000D01*
X122480000Y-76700000D02*
X122490000Y-76650000D01*
X122470000Y-76760000D02*
X122480000Y-76700000D01*
X122460000Y-76800000D02*
X122470000Y-76760000D01*
X122440000Y-76840000D02*
X122460000Y-76800000D01*
X122420000Y-76890000D02*
X122440000Y-76840000D01*
X122400000Y-76950000D02*
X122420000Y-76890000D01*
X122380000Y-76990000D02*
X122400000Y-76950000D01*
X122350000Y-77020000D02*
X122380000Y-76990000D01*
X122320000Y-77070000D02*
X122350000Y-77020000D01*
X122290000Y-77120000D02*
X122320000Y-77070000D01*
X122260000Y-77150000D02*
X122290000Y-77120000D01*
X122230000Y-77180000D02*
X122260000Y-77150000D01*
X122190000Y-77230000D02*
X122230000Y-77180000D01*
X122150000Y-77260000D02*
X122190000Y-77230000D01*
X122110000Y-77290000D02*
X122150000Y-77260000D01*
X122080000Y-77320000D02*
X122110000Y-77290000D01*
X122030000Y-77350000D02*
X122080000Y-77320000D01*
X121990000Y-77380000D02*
X122030000Y-77350000D01*
X121940000Y-77400000D02*
X121990000Y-77380000D01*
X121890000Y-77420000D02*
X121940000Y-77400000D01*
X121850000Y-77440000D02*
X121890000Y-77420000D01*
X121800000Y-77450000D02*
X121850000Y-77440000D01*
X121750000Y-77470000D02*
X121800000Y-77450000D01*
X121710000Y-77480000D02*
X121750000Y-77470000D01*
X121650000Y-77490000D02*
X121710000Y-77480000D01*
X121600000Y-77500000D02*
X121650000Y-77490000D01*
X121560000Y-77500000D02*
X121600000Y-77500000D01*
X121500000Y-77500000D02*
X121560000Y-77500000D01*
X110990000Y-77500000D02*
X121500000Y-77500000D01*
X110890000Y-77510000D02*
X110990000Y-77500000D01*
X110800000Y-77520000D02*
X110890000Y-77510000D01*
X110700000Y-77540000D02*
X110800000Y-77520000D01*
X110610000Y-77580000D02*
X110700000Y-77540000D01*
X110520000Y-77620000D02*
X110610000Y-77580000D01*
X110440000Y-77670000D02*
X110520000Y-77620000D01*
X110360000Y-77730000D02*
X110440000Y-77670000D01*
X110290000Y-77790000D02*
X110360000Y-77730000D01*
X110220000Y-77860000D02*
X110290000Y-77790000D01*
X110170000Y-77940000D02*
X110220000Y-77860000D01*
X110120000Y-78020000D02*
X110170000Y-77940000D01*
X110080000Y-78110000D02*
X110120000Y-78020000D01*
X110040000Y-78200000D02*
X110080000Y-78110000D01*
X110020000Y-78300000D02*
X110040000Y-78200000D01*
X110000000Y-78390000D02*
X110020000Y-78300000D01*
X110000000Y-78490000D02*
X110000000Y-78390000D01*
X110000000Y-81510000D02*
X110000000Y-78490000D01*
X110000000Y-81610000D02*
X110000000Y-81510000D01*
X110020000Y-81700000D02*
X110000000Y-81610000D01*
X110040000Y-81800000D02*
X110020000Y-81700000D01*
X110080000Y-81890000D02*
X110040000Y-81800000D01*
X110120000Y-81980000D02*
X110080000Y-81890000D01*
X110170000Y-82060000D02*
X110120000Y-81980000D01*
X110220000Y-82140000D02*
X110170000Y-82060000D01*
X110290000Y-82210000D02*
X110220000Y-82140000D01*
X110360000Y-82270000D02*
X110290000Y-82210000D01*
X110440000Y-82330000D02*
X110360000Y-82270000D01*
X110520000Y-82380000D02*
X110440000Y-82330000D01*
X110610000Y-82420000D02*
X110520000Y-82380000D01*
X110700000Y-82460000D02*
X110610000Y-82420000D01*
X110800000Y-82480000D02*
X110700000Y-82460000D01*
X110890000Y-82490000D02*
X110800000Y-82480000D01*
X110990000Y-82500000D02*
X110890000Y-82490000D01*
X121500000Y-82500000D02*
X110990000Y-82500000D01*
X121550000Y-82500000D02*
X121500000Y-82500000D01*
X121610000Y-82500000D02*
X121550000Y-82500000D01*
X121650000Y-82510000D02*
X121610000Y-82500000D01*
X121700000Y-82520000D02*
X121650000Y-82510000D01*
X121740000Y-82530000D02*
X121700000Y-82520000D01*
X121800000Y-82550000D02*
X121740000Y-82530000D01*
X121850000Y-82560000D02*
X121800000Y-82550000D01*
X121890000Y-82580000D02*
X121850000Y-82560000D01*
X121940000Y-82600000D02*
X121890000Y-82580000D01*
X121990000Y-82620000D02*
X121940000Y-82600000D01*
X122030000Y-82650000D02*
X121990000Y-82620000D01*
X122070000Y-82680000D02*
X122030000Y-82650000D01*
X122110000Y-82700000D02*
X122070000Y-82680000D01*
X122150000Y-82740000D02*
X122110000Y-82700000D01*
X122190000Y-82780000D02*
X122150000Y-82740000D01*
X122230000Y-82810000D02*
X122190000Y-82780000D01*
X122260000Y-82840000D02*
X122230000Y-82810000D01*
X122290000Y-82890000D02*
X122260000Y-82840000D01*
X122330000Y-82930000D02*
X122290000Y-82890000D01*
X122350000Y-82970000D02*
X122330000Y-82930000D01*
X122370000Y-83010000D02*
X122350000Y-82970000D01*
X122400000Y-83060000D02*
X122370000Y-83010000D01*
X122420000Y-83110000D02*
X122400000Y-83060000D01*
X122440000Y-83150000D02*
X122420000Y-83110000D01*
X122450000Y-83190000D02*
X122440000Y-83150000D01*
X122470000Y-83250000D02*
X122450000Y-83190000D01*
X122480000Y-83300000D02*
X122470000Y-83250000D01*
X122490000Y-83350000D02*
X122480000Y-83300000D01*
X122500000Y-83400000D02*
X122490000Y-83350000D01*
X122500000Y-83440000D02*
X122500000Y-83400000D01*
X122500000Y-83500000D02*
X122500000Y-83440000D01*
X122500000Y-86510000D02*
X122500000Y-83500000D01*
X122510000Y-86610000D02*
X122500000Y-86510000D01*
X122520000Y-86700000D02*
X122510000Y-86610000D01*
X122540000Y-86800000D02*
X122520000Y-86700000D01*
X122580000Y-86890000D02*
X122540000Y-86800000D01*
X122620000Y-86980000D02*
X122580000Y-86890000D01*
X122670000Y-87060000D02*
X122620000Y-86980000D01*
X122730000Y-87140000D02*
X122670000Y-87060000D01*
X122790000Y-87210000D02*
X122730000Y-87140000D01*
X122860000Y-87280000D02*
X122790000Y-87210000D01*
X122940000Y-87330000D02*
X122860000Y-87280000D01*
X123020000Y-87380000D02*
X122940000Y-87330000D01*
X123110000Y-87420000D02*
X123020000Y-87380000D01*
X123200000Y-87460000D02*
X123110000Y-87420000D01*
X123300000Y-87480000D02*
X123200000Y-87460000D01*
X123390000Y-87500000D02*
X123300000Y-87480000D01*
X123490000Y-87500000D02*
X123390000Y-87500000D01*
X126500000Y-87500000D02*
X123490000Y-87500000D01*
X126600000Y-87500000D02*
X126500000Y-87500000D01*
X126690000Y-87480000D02*
X126600000Y-87500000D01*
X126790000Y-87460000D02*
X126690000Y-87480000D01*
X126880000Y-87420000D02*
X126790000Y-87460000D01*
X126970000Y-87380000D02*
X126880000Y-87420000D01*
X127050000Y-87330000D02*
X126970000Y-87380000D01*
X127130000Y-87280000D02*
X127050000Y-87330000D01*
X127200000Y-87210000D02*
X127130000Y-87280000D01*
X127260000Y-87140000D02*
X127200000Y-87210000D01*
X127320000Y-87060000D02*
X127260000Y-87140000D01*
X127370000Y-86980000D02*
X127320000Y-87060000D01*
X127410000Y-86890000D02*
X127370000Y-86980000D01*
X127450000Y-86800000D02*
X127410000Y-86890000D01*
X127470000Y-86700000D02*
X127450000Y-86800000D01*
X127480000Y-86610000D02*
X127470000Y-86700000D01*
X127490000Y-86510000D02*
X127480000Y-86610000D01*
X127490000Y-93490000D02*
X127490000Y-106510000D01*
X127480000Y-93390000D02*
X127490000Y-93490000D01*
X127470000Y-93300000D02*
X127480000Y-93390000D01*
X127450000Y-93200000D02*
X127470000Y-93300000D01*
X127410000Y-93110000D02*
X127450000Y-93200000D01*
X127370000Y-93020000D02*
X127410000Y-93110000D01*
X127320000Y-92940000D02*
X127370000Y-93020000D01*
X127260000Y-92860000D02*
X127320000Y-92940000D01*
X127200000Y-92790000D02*
X127260000Y-92860000D01*
X127130000Y-92720000D02*
X127200000Y-92790000D01*
X127050000Y-92670000D02*
X127130000Y-92720000D01*
X126970000Y-92620000D02*
X127050000Y-92670000D01*
X126880000Y-92580000D02*
X126970000Y-92620000D01*
X126790000Y-92540000D02*
X126880000Y-92580000D01*
X126690000Y-92520000D02*
X126790000Y-92540000D01*
X126600000Y-92500000D02*
X126690000Y-92520000D01*
X126500000Y-92500000D02*
X126600000Y-92500000D01*
X123490000Y-92500000D02*
X126500000Y-92500000D01*
X123390000Y-92500000D02*
X123490000Y-92500000D01*
X123300000Y-92520000D02*
X123390000Y-92500000D01*
X123200000Y-92540000D02*
X123300000Y-92520000D01*
X123110000Y-92580000D02*
X123200000Y-92540000D01*
X123020000Y-92620000D02*
X123110000Y-92580000D01*
X122940000Y-92670000D02*
X123020000Y-92620000D01*
X122860000Y-92720000D02*
X122940000Y-92670000D01*
X122790000Y-92790000D02*
X122860000Y-92720000D01*
X122730000Y-92860000D02*
X122790000Y-92790000D01*
X122670000Y-92940000D02*
X122730000Y-92860000D01*
X122620000Y-93020000D02*
X122670000Y-92940000D01*
X122580000Y-93110000D02*
X122620000Y-93020000D01*
X122540000Y-93200000D02*
X122580000Y-93110000D01*
X122520000Y-93300000D02*
X122540000Y-93200000D01*
X122510000Y-93390000D02*
X122520000Y-93300000D01*
X122500000Y-93490000D02*
X122510000Y-93390000D01*
X122500000Y-96500000D02*
X122500000Y-93490000D01*
X122500000Y-96550000D02*
X122500000Y-96500000D01*
X122500000Y-96600000D02*
X122500000Y-96550000D01*
X122490000Y-96650000D02*
X122500000Y-96600000D01*
X122480000Y-96700000D02*
X122490000Y-96650000D01*
X122470000Y-96760000D02*
X122480000Y-96700000D01*
X122460000Y-96800000D02*
X122470000Y-96760000D01*
X122440000Y-96840000D02*
X122460000Y-96800000D01*
X122420000Y-96890000D02*
X122440000Y-96840000D01*
X122400000Y-96950000D02*
X122420000Y-96890000D01*
X122380000Y-96990000D02*
X122400000Y-96950000D01*
X122350000Y-97020000D02*
X122380000Y-96990000D01*
X122320000Y-97070000D02*
X122350000Y-97020000D01*
X122290000Y-97120000D02*
X122320000Y-97070000D01*
X122260000Y-97150000D02*
X122290000Y-97120000D01*
X122230000Y-97180000D02*
X122260000Y-97150000D01*
X122190000Y-97230000D02*
X122230000Y-97180000D01*
X122150000Y-97260000D02*
X122190000Y-97230000D01*
X122110000Y-97290000D02*
X122150000Y-97260000D01*
X122080000Y-97320000D02*
X122110000Y-97290000D01*
X122030000Y-97350000D02*
X122080000Y-97320000D01*
X121990000Y-97380000D02*
X122030000Y-97350000D01*
X121940000Y-97400000D02*
X121990000Y-97380000D01*
X121890000Y-97420000D02*
X121940000Y-97400000D01*
X121850000Y-97440000D02*
X121890000Y-97420000D01*
X121800000Y-97450000D02*
X121850000Y-97440000D01*
X121750000Y-97470000D02*
X121800000Y-97450000D01*
X121710000Y-97480000D02*
X121750000Y-97470000D01*
X121650000Y-97490000D02*
X121710000Y-97480000D01*
X121600000Y-97500000D02*
X121650000Y-97490000D01*
X121560000Y-97500000D02*
X121600000Y-97500000D01*
X121500000Y-97500000D02*
X121560000Y-97500000D01*
X110990000Y-97500000D02*
X121500000Y-97500000D01*
X110890000Y-97510000D02*
X110990000Y-97500000D01*
X110800000Y-97520000D02*
X110890000Y-97510000D01*
X110700000Y-97540000D02*
X110800000Y-97520000D01*
X110610000Y-97580000D02*
X110700000Y-97540000D01*
X110520000Y-97620000D02*
X110610000Y-97580000D01*
X110440000Y-97670000D02*
X110520000Y-97620000D01*
X110360000Y-97730000D02*
X110440000Y-97670000D01*
X110290000Y-97790000D02*
X110360000Y-97730000D01*
X110220000Y-97860000D02*
X110290000Y-97790000D01*
X110170000Y-97940000D02*
X110220000Y-97860000D01*
X110120000Y-98020000D02*
X110170000Y-97940000D01*
X110080000Y-98110000D02*
X110120000Y-98020000D01*
X110040000Y-98200000D02*
X110080000Y-98110000D01*
X110020000Y-98300000D02*
X110040000Y-98200000D01*
X110000000Y-98390000D02*
X110020000Y-98300000D01*
X110000000Y-98490000D02*
X110000000Y-98390000D01*
X110000000Y-101510000D02*
X110000000Y-98490000D01*
X110000000Y-101610000D02*
X110000000Y-101510000D01*
X110020000Y-101700000D02*
X110000000Y-101610000D01*
X110040000Y-101800000D02*
X110020000Y-101700000D01*
X110080000Y-101890000D02*
X110040000Y-101800000D01*
X110120000Y-101980000D02*
X110080000Y-101890000D01*
X110170000Y-102060000D02*
X110120000Y-101980000D01*
X110220000Y-102140000D02*
X110170000Y-102060000D01*
X110290000Y-102210000D02*
X110220000Y-102140000D01*
X110360000Y-102270000D02*
X110290000Y-102210000D01*
X110440000Y-102330000D02*
X110360000Y-102270000D01*
X110520000Y-102380000D02*
X110440000Y-102330000D01*
X110610000Y-102420000D02*
X110520000Y-102380000D01*
X110700000Y-102460000D02*
X110610000Y-102420000D01*
X110800000Y-102480000D02*
X110700000Y-102460000D01*
X110890000Y-102490000D02*
X110800000Y-102480000D01*
X110990000Y-102500000D02*
X110890000Y-102490000D01*
X121500000Y-102500000D02*
X110990000Y-102500000D01*
X121550000Y-102500000D02*
X121500000Y-102500000D01*
X121610000Y-102500000D02*
X121550000Y-102500000D01*
X121650000Y-102510000D02*
X121610000Y-102500000D01*
X121700000Y-102520000D02*
X121650000Y-102510000D01*
X121740000Y-102530000D02*
X121700000Y-102520000D01*
X121800000Y-102550000D02*
X121740000Y-102530000D01*
X121850000Y-102560000D02*
X121800000Y-102550000D01*
X121890000Y-102580000D02*
X121850000Y-102560000D01*
X121940000Y-102600000D02*
X121890000Y-102580000D01*
X121990000Y-102620000D02*
X121940000Y-102600000D01*
X122030000Y-102650000D02*
X121990000Y-102620000D01*
X122070000Y-102680000D02*
X122030000Y-102650000D01*
X122110000Y-102700000D02*
X122070000Y-102680000D01*
X122150000Y-102740000D02*
X122110000Y-102700000D01*
X122190000Y-102780000D02*
X122150000Y-102740000D01*
X122230000Y-102810000D02*
X122190000Y-102780000D01*
X122260000Y-102840000D02*
X122230000Y-102810000D01*
X122290000Y-102890000D02*
X122260000Y-102840000D01*
X122330000Y-102930000D02*
X122290000Y-102890000D01*
X122350000Y-102970000D02*
X122330000Y-102930000D01*
X122370000Y-103010000D02*
X122350000Y-102970000D01*
X122400000Y-103060000D02*
X122370000Y-103010000D01*
X122420000Y-103110000D02*
X122400000Y-103060000D01*
X122440000Y-103150000D02*
X122420000Y-103110000D01*
X122450000Y-103190000D02*
X122440000Y-103150000D01*
X122470000Y-103250000D02*
X122450000Y-103190000D01*
X122480000Y-103300000D02*
X122470000Y-103250000D01*
X122490000Y-103350000D02*
X122480000Y-103300000D01*
X122500000Y-103400000D02*
X122490000Y-103350000D01*
X122500000Y-103440000D02*
X122500000Y-103400000D01*
X122500000Y-103500000D02*
X122500000Y-103440000D01*
X122500000Y-106510000D02*
X122500000Y-103500000D01*
X122510000Y-106610000D02*
X122500000Y-106510000D01*
X122520000Y-106700000D02*
X122510000Y-106610000D01*
X122540000Y-106800000D02*
X122520000Y-106700000D01*
X122580000Y-106890000D02*
X122540000Y-106800000D01*
X122620000Y-106980000D02*
X122580000Y-106890000D01*
X122670000Y-107060000D02*
X122620000Y-106980000D01*
X122730000Y-107140000D02*
X122670000Y-107060000D01*
X122790000Y-107210000D02*
X122730000Y-107140000D01*
X122860000Y-107280000D02*
X122790000Y-107210000D01*
X122940000Y-107330000D02*
X122860000Y-107280000D01*
X123020000Y-107380000D02*
X122940000Y-107330000D01*
X123110000Y-107420000D02*
X123020000Y-107380000D01*
X123200000Y-107460000D02*
X123110000Y-107420000D01*
X123300000Y-107480000D02*
X123200000Y-107460000D01*
X123390000Y-107500000D02*
X123300000Y-107480000D01*
X123490000Y-107500000D02*
X123390000Y-107500000D01*
X126500000Y-107500000D02*
X123490000Y-107500000D01*
X126600000Y-107500000D02*
X126500000Y-107500000D01*
X126690000Y-107480000D02*
X126600000Y-107500000D01*
X126790000Y-107460000D02*
X126690000Y-107480000D01*
X126880000Y-107420000D02*
X126790000Y-107460000D01*
X126970000Y-107380000D02*
X126880000Y-107420000D01*
X127050000Y-107330000D02*
X126970000Y-107380000D01*
X127130000Y-107280000D02*
X127050000Y-107330000D01*
X127200000Y-107210000D02*
X127130000Y-107280000D01*
X127260000Y-107140000D02*
X127200000Y-107210000D01*
X127320000Y-107060000D02*
X127260000Y-107140000D01*
X127370000Y-106980000D02*
X127320000Y-107060000D01*
X127410000Y-106890000D02*
X127370000Y-106980000D01*
X127450000Y-106800000D02*
X127410000Y-106890000D01*
X127470000Y-106700000D02*
X127450000Y-106800000D01*
X127480000Y-106610000D02*
X127470000Y-106700000D01*
X127490000Y-106510000D02*
X127480000Y-106610000D01*
X127490000Y-113490000D02*
X127490000Y-126510000D01*
X127480000Y-113390000D02*
X127490000Y-113490000D01*
X127470000Y-113300000D02*
X127480000Y-113390000D01*
X127450000Y-113200000D02*
X127470000Y-113300000D01*
X127410000Y-113110000D02*
X127450000Y-113200000D01*
X127370000Y-113020000D02*
X127410000Y-113110000D01*
X127320000Y-112940000D02*
X127370000Y-113020000D01*
X127260000Y-112860000D02*
X127320000Y-112940000D01*
X127200000Y-112790000D02*
X127260000Y-112860000D01*
X127130000Y-112720000D02*
X127200000Y-112790000D01*
X127050000Y-112670000D02*
X127130000Y-112720000D01*
X126970000Y-112620000D02*
X127050000Y-112670000D01*
X126880000Y-112580000D02*
X126970000Y-112620000D01*
X126790000Y-112540000D02*
X126880000Y-112580000D01*
X126690000Y-112520000D02*
X126790000Y-112540000D01*
X126600000Y-112500000D02*
X126690000Y-112520000D01*
X126500000Y-112500000D02*
X126600000Y-112500000D01*
X123490000Y-112500000D02*
X126500000Y-112500000D01*
X123390000Y-112500000D02*
X123490000Y-112500000D01*
X123300000Y-112520000D02*
X123390000Y-112500000D01*
X123200000Y-112540000D02*
X123300000Y-112520000D01*
X123110000Y-112580000D02*
X123200000Y-112540000D01*
X123020000Y-112620000D02*
X123110000Y-112580000D01*
X122940000Y-112670000D02*
X123020000Y-112620000D01*
X122860000Y-112720000D02*
X122940000Y-112670000D01*
X122790000Y-112790000D02*
X122860000Y-112720000D01*
X122730000Y-112860000D02*
X122790000Y-112790000D01*
X122670000Y-112940000D02*
X122730000Y-112860000D01*
X122620000Y-113020000D02*
X122670000Y-112940000D01*
X122580000Y-113110000D02*
X122620000Y-113020000D01*
X122540000Y-113200000D02*
X122580000Y-113110000D01*
X122520000Y-113300000D02*
X122540000Y-113200000D01*
X122510000Y-113390000D02*
X122520000Y-113300000D01*
X122500000Y-113490000D02*
X122510000Y-113390000D01*
X122500000Y-116500000D02*
X122500000Y-113490000D01*
X122500000Y-116550000D02*
X122500000Y-116500000D01*
X122500000Y-116600000D02*
X122500000Y-116550000D01*
X122490000Y-116650000D02*
X122500000Y-116600000D01*
X122480000Y-116700000D02*
X122490000Y-116650000D01*
X122470000Y-116760000D02*
X122480000Y-116700000D01*
X122460000Y-116800000D02*
X122470000Y-116760000D01*
X122440000Y-116840000D02*
X122460000Y-116800000D01*
X122420000Y-116890000D02*
X122440000Y-116840000D01*
X122400000Y-116950000D02*
X122420000Y-116890000D01*
X122380000Y-116990000D02*
X122400000Y-116950000D01*
X122350000Y-117020000D02*
X122380000Y-116990000D01*
X122320000Y-117070000D02*
X122350000Y-117020000D01*
X122290000Y-117120000D02*
X122320000Y-117070000D01*
X122260000Y-117150000D02*
X122290000Y-117120000D01*
X122230000Y-117180000D02*
X122260000Y-117150000D01*
X122190000Y-117230000D02*
X122230000Y-117180000D01*
X122150000Y-117260000D02*
X122190000Y-117230000D01*
X122110000Y-117290000D02*
X122150000Y-117260000D01*
X122080000Y-117320000D02*
X122110000Y-117290000D01*
X122030000Y-117350000D02*
X122080000Y-117320000D01*
X121990000Y-117380000D02*
X122030000Y-117350000D01*
X121940000Y-117400000D02*
X121990000Y-117380000D01*
X121890000Y-117420000D02*
X121940000Y-117400000D01*
X121850000Y-117440000D02*
X121890000Y-117420000D01*
X121800000Y-117460000D02*
X121850000Y-117440000D01*
X121750000Y-117470000D02*
X121800000Y-117460000D01*
X121710000Y-117480000D02*
X121750000Y-117470000D01*
X121650000Y-117490000D02*
X121710000Y-117480000D01*
X121600000Y-117500000D02*
X121650000Y-117490000D01*
X121560000Y-117500000D02*
X121600000Y-117500000D01*
X121500000Y-117500000D02*
X121560000Y-117500000D01*
X110990000Y-117500000D02*
X121500000Y-117500000D01*
X110890000Y-117510000D02*
X110990000Y-117500000D01*
X110800000Y-117520000D02*
X110890000Y-117510000D01*
X110700000Y-117540000D02*
X110800000Y-117520000D01*
X110610000Y-117580000D02*
X110700000Y-117540000D01*
X110520000Y-117620000D02*
X110610000Y-117580000D01*
X110440000Y-117670000D02*
X110520000Y-117620000D01*
X110360000Y-117730000D02*
X110440000Y-117670000D01*
X110290000Y-117790000D02*
X110360000Y-117730000D01*
X110220000Y-117860000D02*
X110290000Y-117790000D01*
X110170000Y-117940000D02*
X110220000Y-117860000D01*
X110120000Y-118020000D02*
X110170000Y-117940000D01*
X110080000Y-118110000D02*
X110120000Y-118020000D01*
X110040000Y-118200000D02*
X110080000Y-118110000D01*
X110020000Y-118300000D02*
X110040000Y-118200000D01*
X110000000Y-118390000D02*
X110020000Y-118300000D01*
X110000000Y-118490000D02*
X110000000Y-118390000D01*
X110000000Y-121510000D02*
X110000000Y-118490000D01*
X110000000Y-121610000D02*
X110000000Y-121510000D01*
X110020000Y-121700000D02*
X110000000Y-121610000D01*
X110040000Y-121800000D02*
X110020000Y-121700000D01*
X110080000Y-121890000D02*
X110040000Y-121800000D01*
X110120000Y-121980000D02*
X110080000Y-121890000D01*
X110170000Y-122060000D02*
X110120000Y-121980000D01*
X110220000Y-122140000D02*
X110170000Y-122060000D01*
X110290000Y-122210000D02*
X110220000Y-122140000D01*
X110360000Y-122270000D02*
X110290000Y-122210000D01*
X110440000Y-122330000D02*
X110360000Y-122270000D01*
X110520000Y-122380000D02*
X110440000Y-122330000D01*
X110610000Y-122420000D02*
X110520000Y-122380000D01*
X110700000Y-122460000D02*
X110610000Y-122420000D01*
X110800000Y-122480000D02*
X110700000Y-122460000D01*
X110890000Y-122490000D02*
X110800000Y-122480000D01*
X110990000Y-122500000D02*
X110890000Y-122490000D01*
X121500000Y-122500000D02*
X110990000Y-122500000D01*
X121550000Y-122500000D02*
X121500000Y-122500000D01*
X121610000Y-122500000D02*
X121550000Y-122500000D01*
X121650000Y-122510000D02*
X121610000Y-122500000D01*
X121700000Y-122520000D02*
X121650000Y-122510000D01*
X121740000Y-122530000D02*
X121700000Y-122520000D01*
X121800000Y-122550000D02*
X121740000Y-122530000D01*
X121850000Y-122560000D02*
X121800000Y-122550000D01*
X121890000Y-122580000D02*
X121850000Y-122560000D01*
X121940000Y-122600000D02*
X121890000Y-122580000D01*
X121990000Y-122620000D02*
X121940000Y-122600000D01*
X122030000Y-122650000D02*
X121990000Y-122620000D01*
X122070000Y-122680000D02*
X122030000Y-122650000D01*
X122110000Y-122700000D02*
X122070000Y-122680000D01*
X122150000Y-122740000D02*
X122110000Y-122700000D01*
X122190000Y-122780000D02*
X122150000Y-122740000D01*
X122230000Y-122810000D02*
X122190000Y-122780000D01*
X122260000Y-122840000D02*
X122230000Y-122810000D01*
X122290000Y-122890000D02*
X122260000Y-122840000D01*
X122330000Y-122930000D02*
X122290000Y-122890000D01*
X122350000Y-122970000D02*
X122330000Y-122930000D01*
X122370000Y-123010000D02*
X122350000Y-122970000D01*
X122400000Y-123060000D02*
X122370000Y-123010000D01*
X122420000Y-123110000D02*
X122400000Y-123060000D01*
X122440000Y-123150000D02*
X122420000Y-123110000D01*
X122450000Y-123190000D02*
X122440000Y-123150000D01*
X122470000Y-123250000D02*
X122450000Y-123190000D01*
X122480000Y-123300000D02*
X122470000Y-123250000D01*
X122490000Y-123350000D02*
X122480000Y-123300000D01*
X122500000Y-123400000D02*
X122490000Y-123350000D01*
X122500000Y-123440000D02*
X122500000Y-123400000D01*
X122500000Y-123500000D02*
X122500000Y-123440000D01*
X122500000Y-126510000D02*
X122500000Y-123500000D01*
X122510000Y-126610000D02*
X122500000Y-126510000D01*
X122520000Y-126700000D02*
X122510000Y-126610000D01*
X122540000Y-126800000D02*
X122520000Y-126700000D01*
X122580000Y-126890000D02*
X122540000Y-126800000D01*
X122620000Y-126980000D02*
X122580000Y-126890000D01*
X122670000Y-127060000D02*
X122620000Y-126980000D01*
X122730000Y-127140000D02*
X122670000Y-127060000D01*
X122790000Y-127210000D02*
X122730000Y-127140000D01*
X122860000Y-127280000D02*
X122790000Y-127210000D01*
X122940000Y-127330000D02*
X122860000Y-127280000D01*
X123020000Y-127380000D02*
X122940000Y-127330000D01*
X123110000Y-127420000D02*
X123020000Y-127380000D01*
X123200000Y-127460000D02*
X123110000Y-127420000D01*
X123300000Y-127480000D02*
X123200000Y-127460000D01*
X123390000Y-127500000D02*
X123300000Y-127480000D01*
X123490000Y-127500000D02*
X123390000Y-127500000D01*
X126500000Y-127500000D02*
X123490000Y-127500000D01*
X126600000Y-127500000D02*
X126500000Y-127500000D01*
X126690000Y-127480000D02*
X126600000Y-127500000D01*
X126790000Y-127460000D02*
X126690000Y-127480000D01*
X126880000Y-127420000D02*
X126790000Y-127460000D01*
X126970000Y-127380000D02*
X126880000Y-127420000D01*
X127050000Y-127330000D02*
X126970000Y-127380000D01*
X127130000Y-127280000D02*
X127050000Y-127330000D01*
X127200000Y-127210000D02*
X127130000Y-127280000D01*
X127260000Y-127140000D02*
X127200000Y-127210000D01*
X127320000Y-127060000D02*
X127260000Y-127140000D01*
X127370000Y-126980000D02*
X127320000Y-127060000D01*
X127410000Y-126890000D02*
X127370000Y-126980000D01*
X127450000Y-126800000D02*
X127410000Y-126890000D01*
X127470000Y-126700000D02*
X127450000Y-126800000D01*
X127480000Y-126610000D02*
X127470000Y-126700000D01*
X127490000Y-126510000D02*
X127480000Y-126610000D01*
X22480000Y-42500000D02*
X17530000Y-42500000D01*
X22490000Y-42500000D02*
X22480000Y-42500000D01*
X22500000Y-42500000D02*
X22490000Y-42500000D01*
X22500000Y-42510000D02*
X22500000Y-42500000D01*
X22500000Y-42520000D02*
X22500000Y-42510000D01*
X22500000Y-46510000D02*
X22500000Y-42520000D01*
X22510000Y-46610000D02*
X22500000Y-46510000D01*
X22520000Y-46700000D02*
X22510000Y-46610000D01*
X22540000Y-46800000D02*
X22520000Y-46700000D01*
X22580000Y-46890000D02*
X22540000Y-46800000D01*
X22620000Y-46980000D02*
X22580000Y-46890000D01*
X22670000Y-47060000D02*
X22620000Y-46980000D01*
X22730000Y-47140000D02*
X22670000Y-47060000D01*
X22790000Y-47210000D02*
X22730000Y-47140000D01*
X22860000Y-47280000D02*
X22790000Y-47210000D01*
X22940000Y-47330000D02*
X22860000Y-47280000D01*
X23020000Y-47380000D02*
X22940000Y-47330000D01*
X23110000Y-47420000D02*
X23020000Y-47380000D01*
X23200000Y-47460000D02*
X23110000Y-47420000D01*
X23300000Y-47480000D02*
X23200000Y-47460000D01*
X23390000Y-47500000D02*
X23300000Y-47480000D01*
X23490000Y-47500000D02*
X23390000Y-47500000D01*
X26510000Y-47500000D02*
X23490000Y-47500000D01*
X26610000Y-47500000D02*
X26510000Y-47500000D01*
X26700000Y-47480000D02*
X26610000Y-47500000D01*
X26800000Y-47460000D02*
X26700000Y-47480000D01*
X26890000Y-47420000D02*
X26800000Y-47460000D01*
X26980000Y-47380000D02*
X26890000Y-47420000D01*
X27060000Y-47330000D02*
X26980000Y-47380000D01*
X27140000Y-47280000D02*
X27060000Y-47330000D01*
X27210000Y-47210000D02*
X27140000Y-47280000D01*
X27270000Y-47140000D02*
X27210000Y-47210000D01*
X27330000Y-47060000D02*
X27270000Y-47140000D01*
X27380000Y-46980000D02*
X27330000Y-47060000D01*
X27420000Y-46890000D02*
X27380000Y-46980000D01*
X27460000Y-46800000D02*
X27420000Y-46890000D01*
X27480000Y-46700000D02*
X27460000Y-46800000D01*
X27490000Y-46610000D02*
X27480000Y-46700000D01*
X27500000Y-46510000D02*
X27490000Y-46610000D01*
X27500000Y-43500000D02*
X27500000Y-46510000D01*
X27500000Y-43440000D02*
X27500000Y-43500000D01*
X27500000Y-43400000D02*
X27500000Y-43440000D01*
X27510000Y-43350000D02*
X27500000Y-43400000D01*
X27520000Y-43300000D02*
X27510000Y-43350000D01*
X27530000Y-43250000D02*
X27520000Y-43300000D01*
X27540000Y-43200000D02*
X27530000Y-43250000D01*
X27560000Y-43160000D02*
X27540000Y-43200000D01*
X27580000Y-43110000D02*
X27560000Y-43160000D01*
X27600000Y-43060000D02*
X27580000Y-43110000D01*
X27620000Y-43020000D02*
X27600000Y-43060000D01*
X27650000Y-42970000D02*
X27620000Y-43020000D01*
X27680000Y-42930000D02*
X27650000Y-42970000D01*
X27700000Y-42890000D02*
X27680000Y-42930000D01*
X27740000Y-42840000D02*
X27700000Y-42890000D01*
X27770000Y-42810000D02*
X27740000Y-42840000D01*
X27810000Y-42770000D02*
X27770000Y-42810000D01*
X27850000Y-42740000D02*
X27810000Y-42770000D01*
X27880000Y-42710000D02*
X27850000Y-42740000D01*
X27930000Y-42670000D02*
X27880000Y-42710000D01*
X27970000Y-42650000D02*
X27930000Y-42670000D01*
X28010000Y-42620000D02*
X27970000Y-42650000D01*
X28060000Y-42600000D02*
X28010000Y-42620000D01*
X28110000Y-42580000D02*
X28060000Y-42600000D01*
X28150000Y-42560000D02*
X28110000Y-42580000D01*
X28200000Y-42550000D02*
X28150000Y-42560000D01*
X28240000Y-42530000D02*
X28200000Y-42550000D01*
X28300000Y-42520000D02*
X28240000Y-42530000D01*
X28350000Y-42510000D02*
X28300000Y-42520000D01*
X28390000Y-42500000D02*
X28350000Y-42510000D01*
X28450000Y-42500000D02*
X28390000Y-42500000D01*
X28500000Y-42500000D02*
X28450000Y-42500000D01*
X71500000Y-42500000D02*
X28500000Y-42500000D01*
X71550000Y-42500000D02*
X71500000Y-42500000D01*
X71600000Y-42500000D02*
X71550000Y-42500000D01*
X71650000Y-42510000D02*
X71600000Y-42500000D01*
X71700000Y-42520000D02*
X71650000Y-42510000D01*
X71750000Y-42530000D02*
X71700000Y-42520000D01*
X71800000Y-42540000D02*
X71750000Y-42530000D01*
X71840000Y-42560000D02*
X71800000Y-42540000D01*
X71890000Y-42580000D02*
X71840000Y-42560000D01*
X71940000Y-42600000D02*
X71890000Y-42580000D01*
X71980000Y-42620000D02*
X71940000Y-42600000D01*
X72030000Y-42650000D02*
X71980000Y-42620000D01*
X72070000Y-42680000D02*
X72030000Y-42650000D01*
X72110000Y-42700000D02*
X72070000Y-42680000D01*
X72160000Y-42740000D02*
X72110000Y-42700000D01*
X72190000Y-42770000D02*
X72160000Y-42740000D01*
X72220000Y-42810000D02*
X72190000Y-42770000D01*
X72260000Y-42850000D02*
X72220000Y-42810000D01*
X72290000Y-42890000D02*
X72260000Y-42850000D01*
X72320000Y-42930000D02*
X72290000Y-42890000D01*
X72350000Y-42970000D02*
X72320000Y-42930000D01*
X72370000Y-43010000D02*
X72350000Y-42970000D01*
X72400000Y-43060000D02*
X72370000Y-43010000D01*
X72420000Y-43110000D02*
X72400000Y-43060000D01*
X72440000Y-43150000D02*
X72420000Y-43110000D01*
X72460000Y-43210000D02*
X72440000Y-43150000D01*
X72470000Y-43250000D02*
X72460000Y-43210000D01*
X72480000Y-43290000D02*
X72470000Y-43250000D01*
X72490000Y-43350000D02*
X72480000Y-43290000D01*
X72500000Y-43400000D02*
X72490000Y-43350000D01*
X72500000Y-43450000D02*
X72500000Y-43400000D01*
X72500000Y-43500000D02*
X72500000Y-43450000D01*
X72500000Y-46510000D02*
X72500000Y-43500000D01*
X72510000Y-46610000D02*
X72500000Y-46510000D01*
X72520000Y-46700000D02*
X72510000Y-46610000D01*
X72540000Y-46800000D02*
X72520000Y-46700000D01*
X72580000Y-46890000D02*
X72540000Y-46800000D01*
X72620000Y-46980000D02*
X72580000Y-46890000D01*
X72670000Y-47060000D02*
X72620000Y-46980000D01*
X72730000Y-47140000D02*
X72670000Y-47060000D01*
X72790000Y-47210000D02*
X72730000Y-47140000D01*
X72860000Y-47280000D02*
X72790000Y-47210000D01*
X72940000Y-47330000D02*
X72860000Y-47280000D01*
X73020000Y-47380000D02*
X72940000Y-47330000D01*
X73110000Y-47420000D02*
X73020000Y-47380000D01*
X73200000Y-47460000D02*
X73110000Y-47420000D01*
X73300000Y-47480000D02*
X73200000Y-47460000D01*
X73390000Y-47500000D02*
X73300000Y-47480000D01*
X73490000Y-47500000D02*
X73390000Y-47500000D01*
X76510000Y-47500000D02*
X73490000Y-47500000D01*
X76610000Y-47500000D02*
X76510000Y-47500000D01*
X76700000Y-47480000D02*
X76610000Y-47500000D01*
X76800000Y-47460000D02*
X76700000Y-47480000D01*
X76890000Y-47420000D02*
X76800000Y-47460000D01*
X76980000Y-47380000D02*
X76890000Y-47420000D01*
X77060000Y-47330000D02*
X76980000Y-47380000D01*
X77140000Y-47280000D02*
X77060000Y-47330000D01*
X77210000Y-47210000D02*
X77140000Y-47280000D01*
X77270000Y-47140000D02*
X77210000Y-47210000D01*
X77330000Y-47060000D02*
X77270000Y-47140000D01*
X77380000Y-46980000D02*
X77330000Y-47060000D01*
X77420000Y-46890000D02*
X77380000Y-46980000D01*
X77460000Y-46800000D02*
X77420000Y-46890000D01*
X77480000Y-46700000D02*
X77460000Y-46800000D01*
X77490000Y-46610000D02*
X77480000Y-46700000D01*
X77500000Y-46510000D02*
X77490000Y-46610000D01*
X77500000Y-43500000D02*
X77500000Y-46510000D01*
X77500000Y-43440000D02*
X77500000Y-43500000D01*
X77500000Y-43400000D02*
X77500000Y-43440000D01*
X77510000Y-43350000D02*
X77500000Y-43400000D01*
X77520000Y-43300000D02*
X77510000Y-43350000D01*
X77530000Y-43250000D02*
X77520000Y-43300000D01*
X77550000Y-43190000D02*
X77530000Y-43250000D01*
X77560000Y-43150000D02*
X77550000Y-43190000D01*
X77580000Y-43110000D02*
X77560000Y-43150000D01*
X77600000Y-43050000D02*
X77580000Y-43110000D01*
X77620000Y-43010000D02*
X77600000Y-43050000D01*
X77650000Y-42970000D02*
X77620000Y-43010000D01*
X77680000Y-42920000D02*
X77650000Y-42970000D01*
X77710000Y-42890000D02*
X77680000Y-42920000D01*
X77740000Y-42850000D02*
X77710000Y-42890000D01*
X77770000Y-42810000D02*
X77740000Y-42850000D01*
X77810000Y-42780000D02*
X77770000Y-42810000D01*
X77850000Y-42740000D02*
X77810000Y-42780000D01*
X77890000Y-42710000D02*
X77850000Y-42740000D01*
X77920000Y-42680000D02*
X77890000Y-42710000D01*
X77970000Y-42650000D02*
X77920000Y-42680000D01*
X78010000Y-42620000D02*
X77970000Y-42650000D01*
X78050000Y-42600000D02*
X78010000Y-42620000D01*
X78110000Y-42580000D02*
X78050000Y-42600000D01*
X78150000Y-42560000D02*
X78110000Y-42580000D01*
X78190000Y-42550000D02*
X78150000Y-42560000D01*
X78250000Y-42530000D02*
X78190000Y-42550000D01*
X78300000Y-42520000D02*
X78250000Y-42530000D01*
X78340000Y-42510000D02*
X78300000Y-42520000D01*
X78400000Y-42500000D02*
X78340000Y-42510000D01*
X78450000Y-42500000D02*
X78400000Y-42500000D01*
X78500000Y-42500000D02*
X78450000Y-42500000D01*
X121500000Y-42500000D02*
X78500000Y-42500000D01*
X121550000Y-42500000D02*
X121500000Y-42500000D01*
X121600000Y-42500000D02*
X121550000Y-42500000D01*
X121650000Y-42510000D02*
X121600000Y-42500000D01*
X121700000Y-42520000D02*
X121650000Y-42510000D01*
X121750000Y-42530000D02*
X121700000Y-42520000D01*
X121800000Y-42540000D02*
X121750000Y-42530000D01*
X121840000Y-42560000D02*
X121800000Y-42540000D01*
X121890000Y-42580000D02*
X121840000Y-42560000D01*
X121940000Y-42600000D02*
X121890000Y-42580000D01*
X121980000Y-42620000D02*
X121940000Y-42600000D01*
X122030000Y-42650000D02*
X121980000Y-42620000D01*
X122070000Y-42680000D02*
X122030000Y-42650000D01*
X122110000Y-42700000D02*
X122070000Y-42680000D01*
X122150000Y-42740000D02*
X122110000Y-42700000D01*
X122190000Y-42770000D02*
X122150000Y-42740000D01*
X122220000Y-42810000D02*
X122190000Y-42770000D01*
X122260000Y-42850000D02*
X122220000Y-42810000D01*
X122290000Y-42890000D02*
X122260000Y-42850000D01*
X122320000Y-42920000D02*
X122290000Y-42890000D01*
X122350000Y-42970000D02*
X122320000Y-42920000D01*
X122380000Y-43010000D02*
X122350000Y-42970000D01*
X122400000Y-43050000D02*
X122380000Y-43010000D01*
X122420000Y-43110000D02*
X122400000Y-43050000D01*
X122440000Y-43150000D02*
X122420000Y-43110000D01*
X122450000Y-43190000D02*
X122440000Y-43150000D01*
X122470000Y-43250000D02*
X122450000Y-43190000D01*
X122480000Y-43300000D02*
X122470000Y-43250000D01*
X122490000Y-43350000D02*
X122480000Y-43300000D01*
X122500000Y-43400000D02*
X122490000Y-43350000D01*
X122500000Y-43440000D02*
X122500000Y-43400000D01*
X122500000Y-43500000D02*
X122500000Y-43440000D01*
X122500000Y-46510000D02*
X122500000Y-43500000D01*
X122510000Y-46610000D02*
X122500000Y-46510000D01*
X122520000Y-46700000D02*
X122510000Y-46610000D01*
X122540000Y-46800000D02*
X122520000Y-46700000D01*
X122580000Y-46890000D02*
X122540000Y-46800000D01*
X122620000Y-46980000D02*
X122580000Y-46890000D01*
X122670000Y-47060000D02*
X122620000Y-46980000D01*
X122730000Y-47140000D02*
X122670000Y-47060000D01*
X122790000Y-47210000D02*
X122730000Y-47140000D01*
X122860000Y-47280000D02*
X122790000Y-47210000D01*
X122940000Y-47330000D02*
X122860000Y-47280000D01*
X123020000Y-47380000D02*
X122940000Y-47330000D01*
X123110000Y-47420000D02*
X123020000Y-47380000D01*
X123200000Y-47460000D02*
X123110000Y-47420000D01*
X123300000Y-47480000D02*
X123200000Y-47460000D01*
X123390000Y-47500000D02*
X123300000Y-47480000D01*
X123490000Y-47500000D02*
X123390000Y-47500000D01*
X126500000Y-47500000D02*
X123490000Y-47500000D01*
X126600000Y-47500000D02*
X126500000Y-47500000D01*
X126690000Y-47480000D02*
X126600000Y-47500000D01*
X126790000Y-47460000D02*
X126690000Y-47480000D01*
X126880000Y-47420000D02*
X126790000Y-47460000D01*
X126970000Y-47380000D02*
X126880000Y-47420000D01*
X127050000Y-47330000D02*
X126970000Y-47380000D01*
X127130000Y-47280000D02*
X127050000Y-47330000D01*
X127200000Y-47210000D02*
X127130000Y-47280000D01*
X127260000Y-47140000D02*
X127200000Y-47210000D01*
X127320000Y-47060000D02*
X127260000Y-47140000D01*
X127370000Y-46980000D02*
X127320000Y-47060000D01*
X127410000Y-46890000D02*
X127370000Y-46980000D01*
X127450000Y-46800000D02*
X127410000Y-46890000D01*
X127470000Y-46700000D02*
X127450000Y-46800000D01*
X127480000Y-46610000D02*
X127470000Y-46700000D01*
X127490000Y-46510000D02*
X127480000Y-46610000D01*
X127490000Y-42520000D02*
X127490000Y-46510000D01*
X127490000Y-42510000D02*
X127490000Y-42520000D01*
X127490000Y-42500000D02*
X127490000Y-42510000D01*
X127500000Y-42500000D02*
X127490000Y-42500000D01*
X127510000Y-42500000D02*
X127500000Y-42500000D01*
X132460000Y-42500000D02*
X127510000Y-42500000D01*
X132480000Y-42500000D02*
X132460000Y-42500000D01*
X132490000Y-42500000D02*
X132480000Y-42500000D01*
X132490000Y-42510000D02*
X132490000Y-42500000D01*
X132490000Y-42520000D02*
X132490000Y-42510000D01*
X132490000Y-137480000D02*
X132490000Y-42520000D01*
X132490000Y-137490000D02*
X132490000Y-137480000D01*
X132490000Y-137500000D02*
X132490000Y-137490000D01*
X132480000Y-137500000D02*
X132490000Y-137500000D01*
X132460000Y-137500000D02*
X132480000Y-137500000D01*
X127510000Y-137500000D02*
X132460000Y-137500000D01*
X127500000Y-137500000D02*
X127510000Y-137500000D01*
X127490000Y-137500000D02*
X127500000Y-137500000D01*
X127490000Y-137490000D02*
X127490000Y-137500000D01*
X127490000Y-137480000D02*
X127490000Y-137490000D01*
X127490000Y-133490000D02*
X127490000Y-137480000D01*
X127480000Y-133390000D02*
X127490000Y-133490000D01*
X127470000Y-133300000D02*
X127480000Y-133390000D01*
X127450000Y-133200000D02*
X127470000Y-133300000D01*
X127410000Y-133110000D02*
X127450000Y-133200000D01*
X127370000Y-133020000D02*
X127410000Y-133110000D01*
X127320000Y-132940000D02*
X127370000Y-133020000D01*
X127260000Y-132860000D02*
X127320000Y-132940000D01*
X127200000Y-132790000D02*
X127260000Y-132860000D01*
X127130000Y-132720000D02*
X127200000Y-132790000D01*
X127050000Y-132670000D02*
X127130000Y-132720000D01*
X126970000Y-132620000D02*
X127050000Y-132670000D01*
X126880000Y-132580000D02*
X126970000Y-132620000D01*
X126790000Y-132540000D02*
X126880000Y-132580000D01*
X126690000Y-132520000D02*
X126790000Y-132540000D01*
X126600000Y-132500000D02*
X126690000Y-132520000D01*
X126500000Y-132500000D02*
X126600000Y-132500000D01*
X123490000Y-132500000D02*
X126500000Y-132500000D01*
X123390000Y-132500000D02*
X123490000Y-132500000D01*
X123300000Y-132520000D02*
X123390000Y-132500000D01*
X123200000Y-132540000D02*
X123300000Y-132520000D01*
X123110000Y-132580000D02*
X123200000Y-132540000D01*
X123020000Y-132620000D02*
X123110000Y-132580000D01*
X122940000Y-132670000D02*
X123020000Y-132620000D01*
X122860000Y-132720000D02*
X122940000Y-132670000D01*
X122790000Y-132790000D02*
X122860000Y-132720000D01*
X122730000Y-132860000D02*
X122790000Y-132790000D01*
X122670000Y-132940000D02*
X122730000Y-132860000D01*
X122620000Y-133020000D02*
X122670000Y-132940000D01*
X122580000Y-133110000D02*
X122620000Y-133020000D01*
X122540000Y-133200000D02*
X122580000Y-133110000D01*
X122520000Y-133300000D02*
X122540000Y-133200000D01*
X122510000Y-133390000D02*
X122520000Y-133300000D01*
X122500000Y-133490000D02*
X122510000Y-133390000D01*
X122500000Y-136500000D02*
X122500000Y-133490000D01*
X122500000Y-136560000D02*
X122500000Y-136500000D01*
X122500000Y-136600000D02*
X122500000Y-136560000D01*
X122490000Y-136650000D02*
X122500000Y-136600000D01*
X122480000Y-136700000D02*
X122490000Y-136650000D01*
X122470000Y-136750000D02*
X122480000Y-136700000D01*
X122450000Y-136810000D02*
X122470000Y-136750000D01*
X122440000Y-136850000D02*
X122450000Y-136810000D01*
X122420000Y-136890000D02*
X122440000Y-136850000D01*
X122400000Y-136950000D02*
X122420000Y-136890000D01*
X122380000Y-136990000D02*
X122400000Y-136950000D01*
X122350000Y-137030000D02*
X122380000Y-136990000D01*
X122320000Y-137080000D02*
X122350000Y-137030000D01*
X122290000Y-137110000D02*
X122320000Y-137080000D01*
X122260000Y-137150000D02*
X122290000Y-137110000D01*
X122220000Y-137190000D02*
X122260000Y-137150000D01*
X122190000Y-137230000D02*
X122220000Y-137190000D01*
X122150000Y-137260000D02*
X122190000Y-137230000D01*
X122110000Y-137300000D02*
X122150000Y-137260000D01*
X122070000Y-137320000D02*
X122110000Y-137300000D01*
X122030000Y-137350000D02*
X122070000Y-137320000D01*
X121980000Y-137380000D02*
X122030000Y-137350000D01*
X121940000Y-137400000D02*
X121980000Y-137380000D01*
X121890000Y-137420000D02*
X121940000Y-137400000D01*
X121840000Y-137440000D02*
X121890000Y-137420000D01*
X121800000Y-137460000D02*
X121840000Y-137440000D01*
X121750000Y-137470000D02*
X121800000Y-137460000D01*
X121700000Y-137480000D02*
X121750000Y-137470000D01*
X121650000Y-137490000D02*
X121700000Y-137480000D01*
X121600000Y-137500000D02*
X121650000Y-137490000D01*
X121550000Y-137500000D02*
X121600000Y-137500000D01*
X121500000Y-137500000D02*
X121550000Y-137500000D01*
X78500000Y-137500000D02*
X121500000Y-137500000D01*
X78450000Y-137500000D02*
X78500000Y-137500000D01*
X78400000Y-137500000D02*
X78450000Y-137500000D01*
X78340000Y-137490000D02*
X78400000Y-137500000D01*
X78300000Y-137480000D02*
X78340000Y-137490000D01*
X78250000Y-137470000D02*
X78300000Y-137480000D01*
X78190000Y-137450000D02*
X78250000Y-137470000D01*
X78150000Y-137440000D02*
X78190000Y-137450000D01*
X78110000Y-137420000D02*
X78150000Y-137440000D01*
X78050000Y-137400000D02*
X78110000Y-137420000D01*
X78010000Y-137380000D02*
X78050000Y-137400000D01*
X77970000Y-137350000D02*
X78010000Y-137380000D01*
X77920000Y-137320000D02*
X77970000Y-137350000D01*
X77890000Y-137290000D02*
X77920000Y-137320000D01*
X77850000Y-137260000D02*
X77890000Y-137290000D01*
X77810000Y-137220000D02*
X77850000Y-137260000D01*
X77770000Y-137190000D02*
X77810000Y-137220000D01*
X77740000Y-137150000D02*
X77770000Y-137190000D01*
X77700000Y-137110000D02*
X77740000Y-137150000D01*
X77680000Y-137070000D02*
X77700000Y-137110000D01*
X77650000Y-137030000D02*
X77680000Y-137070000D01*
X77620000Y-136980000D02*
X77650000Y-137030000D01*
X77600000Y-136940000D02*
X77620000Y-136980000D01*
X77580000Y-136890000D02*
X77600000Y-136940000D01*
X77560000Y-136850000D02*
X77580000Y-136890000D01*
X77550000Y-136810000D02*
X77560000Y-136850000D01*
X77530000Y-136750000D02*
X77550000Y-136810000D01*
X77520000Y-136700000D02*
X77530000Y-136750000D01*
X77510000Y-136650000D02*
X77520000Y-136700000D01*
X77500000Y-136600000D02*
X77510000Y-136650000D01*
X77500000Y-136560000D02*
X77500000Y-136600000D01*
X77500000Y-136500000D02*
X77500000Y-136560000D01*
X77500000Y-133490000D02*
X77500000Y-136500000D01*
X77490000Y-133390000D02*
X77500000Y-133490000D01*
X77480000Y-133300000D02*
X77490000Y-133390000D01*
X77460000Y-133200000D02*
X77480000Y-133300000D01*
X77420000Y-133110000D02*
X77460000Y-133200000D01*
X77380000Y-133020000D02*
X77420000Y-133110000D01*
X77330000Y-132940000D02*
X77380000Y-133020000D01*
X77270000Y-132860000D02*
X77330000Y-132940000D01*
X77210000Y-132790000D02*
X77270000Y-132860000D01*
X77140000Y-132720000D02*
X77210000Y-132790000D01*
X77060000Y-132670000D02*
X77140000Y-132720000D01*
X76980000Y-132620000D02*
X77060000Y-132670000D01*
X76890000Y-132580000D02*
X76980000Y-132620000D01*
X76800000Y-132540000D02*
X76890000Y-132580000D01*
X76700000Y-132520000D02*
X76800000Y-132540000D01*
X76610000Y-132500000D02*
X76700000Y-132520000D01*
X76510000Y-132500000D02*
X76610000Y-132500000D01*
X73490000Y-132500000D02*
X76510000Y-132500000D01*
X73390000Y-132500000D02*
X73490000Y-132500000D01*
X73300000Y-132520000D02*
X73390000Y-132500000D01*
X73200000Y-132540000D02*
X73300000Y-132520000D01*
X73110000Y-132580000D02*
X73200000Y-132540000D01*
X73020000Y-132620000D02*
X73110000Y-132580000D01*
X72940000Y-132670000D02*
X73020000Y-132620000D01*
X72860000Y-132720000D02*
X72940000Y-132670000D01*
X72790000Y-132790000D02*
X72860000Y-132720000D01*
X72730000Y-132860000D02*
X72790000Y-132790000D01*
X72670000Y-132940000D02*
X72730000Y-132860000D01*
X72620000Y-133020000D02*
X72670000Y-132940000D01*
X72580000Y-133110000D02*
X72620000Y-133020000D01*
X72540000Y-133200000D02*
X72580000Y-133110000D01*
X72520000Y-133300000D02*
X72540000Y-133200000D01*
X72510000Y-133390000D02*
X72520000Y-133300000D01*
X72500000Y-133490000D02*
X72510000Y-133390000D01*
X72500000Y-136500000D02*
X72500000Y-133490000D01*
X72500000Y-136550000D02*
X72500000Y-136500000D01*
X72500000Y-136600000D02*
X72500000Y-136550000D01*
X72490000Y-136650000D02*
X72500000Y-136600000D01*
X72480000Y-136710000D02*
X72490000Y-136650000D01*
X72470000Y-136750000D02*
X72480000Y-136710000D01*
X72460000Y-136790000D02*
X72470000Y-136750000D01*
X72440000Y-136850000D02*
X72460000Y-136790000D01*
X72420000Y-136890000D02*
X72440000Y-136850000D01*
X72400000Y-136940000D02*
X72420000Y-136890000D01*
X72370000Y-136990000D02*
X72400000Y-136940000D01*
X72350000Y-137030000D02*
X72370000Y-136990000D01*
X72330000Y-137070000D02*
X72350000Y-137030000D01*
X72290000Y-137120000D02*
X72330000Y-137070000D01*
X72260000Y-137150000D02*
X72290000Y-137120000D01*
X72230000Y-137190000D02*
X72260000Y-137150000D01*
X72190000Y-137230000D02*
X72230000Y-137190000D01*
X72160000Y-137260000D02*
X72190000Y-137230000D01*
X72110000Y-137300000D02*
X72160000Y-137260000D01*
X72070000Y-137320000D02*
X72110000Y-137300000D01*
X72030000Y-137350000D02*
X72070000Y-137320000D01*
X71980000Y-137380000D02*
X72030000Y-137350000D01*
X71940000Y-137400000D02*
X71980000Y-137380000D01*
X71890000Y-137420000D02*
X71940000Y-137400000D01*
X71840000Y-137440000D02*
X71890000Y-137420000D01*
X71800000Y-137460000D02*
X71840000Y-137440000D01*
X71750000Y-137470000D02*
X71800000Y-137460000D01*
X71700000Y-137480000D02*
X71750000Y-137470000D01*
X71650000Y-137490000D02*
X71700000Y-137480000D01*
X71600000Y-137500000D02*
X71650000Y-137490000D01*
X71550000Y-137500000D02*
X71600000Y-137500000D01*
X71500000Y-137500000D02*
X71550000Y-137500000D01*
X28500000Y-137500000D02*
X71500000Y-137500000D01*
X28450000Y-137500000D02*
X28500000Y-137500000D01*
X28390000Y-137500000D02*
X28450000Y-137500000D01*
X28350000Y-137490000D02*
X28390000Y-137500000D01*
X28300000Y-137480000D02*
X28350000Y-137490000D01*
X28250000Y-137470000D02*
X28300000Y-137480000D01*
X28210000Y-137460000D02*
X28250000Y-137470000D01*
X28150000Y-137440000D02*
X28210000Y-137460000D01*
X28110000Y-137420000D02*
X28150000Y-137440000D01*
X28060000Y-137400000D02*
X28110000Y-137420000D01*
X28010000Y-137380000D02*
X28060000Y-137400000D01*
X27970000Y-137350000D02*
X28010000Y-137380000D01*
X27930000Y-137330000D02*
X27970000Y-137350000D01*
X27880000Y-137290000D02*
X27930000Y-137330000D01*
X27850000Y-137260000D02*
X27880000Y-137290000D01*
X27810000Y-137230000D02*
X27850000Y-137260000D01*
X27770000Y-137180000D02*
X27810000Y-137230000D01*
X27740000Y-137150000D02*
X27770000Y-137180000D01*
X27710000Y-137110000D02*
X27740000Y-137150000D01*
X27680000Y-137070000D02*
X27710000Y-137110000D01*
X27650000Y-137030000D02*
X27680000Y-137070000D01*
X27620000Y-136980000D02*
X27650000Y-137030000D01*
X27600000Y-136940000D02*
X27620000Y-136980000D01*
X27580000Y-136890000D02*
X27600000Y-136940000D01*
X27560000Y-136840000D02*
X27580000Y-136890000D01*
X27540000Y-136800000D02*
X27560000Y-136840000D01*
X27530000Y-136750000D02*
X27540000Y-136800000D01*
X27520000Y-136700000D02*
X27530000Y-136750000D01*
X27510000Y-136650000D02*
X27520000Y-136700000D01*
X27500000Y-136600000D02*
X27510000Y-136650000D01*
X27500000Y-136560000D02*
X27500000Y-136600000D01*
X27500000Y-136500000D02*
X27500000Y-136560000D01*
X27500000Y-133490000D02*
X27500000Y-136500000D01*
X27490000Y-133390000D02*
X27500000Y-133490000D01*
X27480000Y-133300000D02*
X27490000Y-133390000D01*
X27460000Y-133200000D02*
X27480000Y-133300000D01*
X27420000Y-133110000D02*
X27460000Y-133200000D01*
X27380000Y-133020000D02*
X27420000Y-133110000D01*
X27330000Y-132940000D02*
X27380000Y-133020000D01*
X27270000Y-132860000D02*
X27330000Y-132940000D01*
X27210000Y-132790000D02*
X27270000Y-132860000D01*
X27140000Y-132720000D02*
X27210000Y-132790000D01*
X27060000Y-132670000D02*
X27140000Y-132720000D01*
X26980000Y-132620000D02*
X27060000Y-132670000D01*
X26890000Y-132580000D02*
X26980000Y-132620000D01*
X26800000Y-132540000D02*
X26890000Y-132580000D01*
X26700000Y-132520000D02*
X26800000Y-132540000D01*
X26610000Y-132500000D02*
X26700000Y-132520000D01*
X26510000Y-132500000D02*
X26610000Y-132500000D01*
X23490000Y-132500000D02*
X26510000Y-132500000D01*
X23390000Y-132500000D02*
X23490000Y-132500000D01*
X23300000Y-132520000D02*
X23390000Y-132500000D01*
X23200000Y-132540000D02*
X23300000Y-132520000D01*
X23110000Y-132580000D02*
X23200000Y-132540000D01*
X23020000Y-132620000D02*
X23110000Y-132580000D01*
X22940000Y-132670000D02*
X23020000Y-132620000D01*
X22860000Y-132720000D02*
X22940000Y-132670000D01*
X22790000Y-132790000D02*
X22860000Y-132720000D01*
X22730000Y-132860000D02*
X22790000Y-132790000D01*
X22670000Y-132940000D02*
X22730000Y-132860000D01*
X22620000Y-133020000D02*
X22670000Y-132940000D01*
X22580000Y-133110000D02*
X22620000Y-133020000D01*
X22540000Y-133200000D02*
X22580000Y-133110000D01*
X22520000Y-133300000D02*
X22540000Y-133200000D01*
X22510000Y-133390000D02*
X22520000Y-133300000D01*
X22500000Y-133490000D02*
X22510000Y-133390000D01*
X22500000Y-137480000D02*
X22500000Y-133490000D01*
X22500000Y-137490000D02*
X22500000Y-137480000D01*
X22500000Y-137500000D02*
X22500000Y-137490000D01*
X22490000Y-137500000D02*
X22500000Y-137500000D01*
X22480000Y-137500000D02*
X22490000Y-137500000D01*
X17550000Y-137500000D02*
X22480000Y-137500000D01*
X17530000Y-137500000D02*
X17550000Y-137500000D01*
X17520000Y-137500000D02*
X17530000Y-137500000D01*
X17520000Y-137490000D02*
X17520000Y-137500000D01*
X17520000Y-137480000D02*
X17520000Y-137490000D01*
X17520000Y-42520000D02*
X17520000Y-137480000D01*
X17520000Y-42510000D02*
X17520000Y-42520000D01*
X17530000Y-42500000D02*
X17520000Y-42510000D01*
X17530000Y-42500000D02*
X17530000Y-42500000D01*
M02*
