G04 #@! TF.GenerationSoftware,KiCad,Pcbnew,(5.1.9)-1*
G04 #@! TF.CreationDate,2021-05-04T20:43:57+10:00*
G04 #@! TF.ProjectId,microBoSL,6d696372-6f42-46f5-934c-2e6b69636164,0.2.0*
G04 #@! TF.SameCoordinates,Original*
G04 #@! TF.FileFunction,Copper,L3,Inr*
G04 #@! TF.FilePolarity,Positive*
%FSLAX46Y46*%
G04 Gerber Fmt 4.6, Leading zero omitted, Abs format (unit mm)*
G04 Created by KiCad (PCBNEW (5.1.9)-1) date 2021-05-04 20:43:57*
%MOMM*%
%LPD*%
G01*
G04 APERTURE LIST*
G04 #@! TA.AperFunction,ComponentPad*
%ADD10O,1.000000X1.000000*%
G04 #@! TD*
G04 #@! TA.AperFunction,ComponentPad*
%ADD11R,1.000000X1.000000*%
G04 #@! TD*
G04 #@! TA.AperFunction,WasherPad*
%ADD12C,0.850000*%
G04 #@! TD*
G04 #@! TA.AperFunction,ComponentPad*
%ADD13O,1.700000X1.700000*%
G04 #@! TD*
G04 #@! TA.AperFunction,ComponentPad*
%ADD14R,1.700000X1.700000*%
G04 #@! TD*
G04 #@! TA.AperFunction,ComponentPad*
%ADD15O,1.100000X2.200000*%
G04 #@! TD*
G04 #@! TA.AperFunction,ComponentPad*
%ADD16O,1.100000X1.800000*%
G04 #@! TD*
G04 #@! TA.AperFunction,ViaPad*
%ADD17C,0.500000*%
G04 #@! TD*
G04 #@! TA.AperFunction,ViaPad*
%ADD18C,0.600000*%
G04 #@! TD*
G04 #@! TA.AperFunction,Conductor*
%ADD19C,0.160000*%
G04 #@! TD*
G04 #@! TA.AperFunction,Conductor*
%ADD20C,0.400000*%
G04 #@! TD*
G04 #@! TA.AperFunction,Conductor*
%ADD21C,0.250000*%
G04 #@! TD*
G04 #@! TA.AperFunction,Conductor*
%ADD22C,0.254000*%
G04 #@! TD*
G04 #@! TA.AperFunction,Conductor*
%ADD23C,0.100000*%
G04 #@! TD*
G04 APERTURE END LIST*
D10*
X117390000Y-103600000D03*
X118660000Y-103600000D03*
D11*
X119930000Y-103600000D03*
D10*
X121210000Y-113200000D03*
X119940000Y-113200000D03*
X118670000Y-113200000D03*
D11*
X117400000Y-113200000D03*
D10*
X121130000Y-103600000D03*
X122400000Y-103600000D03*
X123670000Y-103600000D03*
D11*
X124940000Y-103600000D03*
D12*
X114150000Y-104600000D03*
X108650000Y-104600000D03*
D13*
X138140000Y-113080000D03*
X135600000Y-113080000D03*
X138140000Y-110540000D03*
X135600000Y-110540000D03*
X138140000Y-108000000D03*
D14*
X135600000Y-108000000D03*
D15*
X101125000Y-110400000D03*
D16*
X103275000Y-113200000D03*
X103275000Y-107600000D03*
D13*
X138140000Y-103900000D03*
D14*
X135600000Y-103900000D03*
D13*
X101900000Y-103900000D03*
D14*
X104440000Y-103900000D03*
X131900000Y-113200000D03*
D13*
X129360000Y-113200000D03*
X126820000Y-113200000D03*
X124280000Y-113200000D03*
D17*
X130800000Y-103400000D03*
D18*
X107876276Y-111183774D03*
X109000000Y-112200000D03*
X109100000Y-110300000D03*
X101600000Y-112600000D03*
X109200000Y-103200000D03*
D17*
X114800000Y-107200000D03*
X118700000Y-110400000D03*
X120200000Y-104800000D03*
X121800000Y-104800000D03*
X124600000Y-110900000D03*
D18*
X129680000Y-109200000D03*
X129549823Y-107749871D03*
D17*
X121200000Y-108500000D03*
D18*
X127619990Y-104316848D03*
X125600000Y-106600000D03*
D17*
X125011013Y-105470000D03*
D18*
X133619016Y-108241570D03*
D17*
X132935000Y-104365000D03*
X129325233Y-103325233D03*
X111859620Y-110859620D03*
X114459620Y-103459620D03*
D18*
X104400000Y-109000000D03*
X104400000Y-114000000D03*
D17*
X117800000Y-105200000D03*
X114600000Y-106200000D03*
X130680003Y-105200000D03*
X124883575Y-107890262D03*
X129980000Y-105200000D03*
X125000000Y-107200000D03*
X121524767Y-109824767D03*
X104600000Y-111800000D03*
X104270000Y-110325233D03*
X110800000Y-113800000D03*
X115400000Y-109600000D03*
X109200000Y-107800000D03*
X114200000Y-109600000D03*
X116990233Y-105939767D03*
D18*
X105200000Y-113800000D03*
X114382500Y-113617500D03*
D17*
X125476000Y-109243000D03*
X127700000Y-111469990D03*
X136799994Y-106600000D03*
D18*
X125840001Y-105125001D03*
D17*
X133600000Y-110213000D03*
X125325221Y-111474770D03*
X112600000Y-105200000D03*
X108800000Y-106600000D03*
X107200000Y-104110000D03*
X108200000Y-114475000D03*
X112400000Y-113800001D03*
X130800000Y-102600000D03*
X129100000Y-111400000D03*
X128800000Y-102525000D03*
X128400013Y-111469990D03*
X130400000Y-112200000D03*
X131064090Y-111578640D03*
X126420685Y-111854727D03*
X133800000Y-111800000D03*
X133499989Y-106286108D03*
X132930002Y-111270000D03*
X133889024Y-105429720D03*
D19*
X120930000Y-102600000D02*
X119930000Y-103600000D01*
X125649532Y-102600000D02*
X120930000Y-102600000D01*
X126374765Y-103325233D02*
X125649532Y-102600000D01*
X129325233Y-103325233D02*
X126374765Y-103325233D01*
X128226516Y-107890262D02*
X124883575Y-107890262D01*
X130680003Y-105436775D02*
X128226516Y-107890262D01*
X130680003Y-105200000D02*
X130680003Y-105436775D01*
X127980000Y-107200000D02*
X125000000Y-107200000D01*
X129980000Y-105200000D02*
X127980000Y-107200000D01*
X124581353Y-107200000D02*
X125000000Y-107200000D01*
X121956586Y-109824767D02*
X124581353Y-107200000D01*
X121524767Y-109824767D02*
X121956586Y-109824767D01*
X111200000Y-113800000D02*
X115400000Y-109600000D01*
X110800000Y-113800000D02*
X111200000Y-113800000D01*
X111000000Y-109600000D02*
X114200000Y-109600000D01*
X109200000Y-107800000D02*
X111000000Y-109600000D01*
D20*
X113549999Y-114450001D02*
X114382500Y-113617500D01*
X110487999Y-114450001D02*
X113549999Y-114450001D01*
X109837998Y-113800000D02*
X110487999Y-114450001D01*
X105200000Y-113800000D02*
X109837998Y-113800000D01*
D21*
X126586991Y-110213000D02*
X125325221Y-111474770D01*
X133600000Y-110213000D02*
X126586991Y-110213000D01*
D19*
X127254727Y-111854727D02*
X126420685Y-111854727D01*
X127400000Y-112000000D02*
X127254727Y-111854727D01*
X129284402Y-112000000D02*
X127400000Y-112000000D01*
X129705762Y-111578640D02*
X129284402Y-112000000D01*
X131064090Y-111578640D02*
X129705762Y-111578640D01*
X128995598Y-105400000D02*
X129725599Y-104669999D01*
X123670000Y-103600000D02*
X123670000Y-104307106D01*
X132711907Y-106286108D02*
X133499989Y-106286108D01*
X127000000Y-105400000D02*
X128995598Y-105400000D01*
X123907894Y-104545000D02*
X126145000Y-104545000D01*
X129725599Y-104669999D02*
X131095798Y-104669999D01*
X131095798Y-104669999D02*
X132711907Y-106286108D01*
X126145000Y-104545000D02*
X127000000Y-105400000D01*
X123670000Y-104307106D02*
X123907894Y-104545000D01*
X131361587Y-104309989D02*
X132481318Y-105429720D01*
X127400000Y-105000000D02*
X128886468Y-105000000D01*
X132481318Y-105429720D02*
X133889024Y-105429720D01*
X128886468Y-105000000D02*
X129576478Y-104309989D01*
X126000000Y-103600000D02*
X127400000Y-105000000D01*
X124940000Y-103600000D02*
X126000000Y-103600000D01*
X129576478Y-104309989D02*
X131361587Y-104309989D01*
D22*
X103138815Y-102598815D02*
X103059463Y-102695506D01*
X103000498Y-102805820D01*
X102964188Y-102925518D01*
X102951928Y-103050000D01*
X102952124Y-103086079D01*
X102930748Y-103054087D01*
X102745913Y-102869252D01*
X102528570Y-102724028D01*
X102287072Y-102623996D01*
X102030698Y-102573000D01*
X101769302Y-102573000D01*
X101512928Y-102623996D01*
X101271430Y-102724028D01*
X101054087Y-102869252D01*
X100869252Y-103054087D01*
X100724028Y-103271430D01*
X100623996Y-103512928D01*
X100573000Y-103769302D01*
X100573000Y-104030698D01*
X100623996Y-104287072D01*
X100724028Y-104528570D01*
X100869252Y-104745913D01*
X101054087Y-104930748D01*
X101271430Y-105075972D01*
X101512928Y-105176004D01*
X101769302Y-105227000D01*
X102030698Y-105227000D01*
X102287072Y-105176004D01*
X102528570Y-105075972D01*
X102745913Y-104930748D01*
X102930748Y-104745913D01*
X102952124Y-104713921D01*
X102951928Y-104750000D01*
X102964188Y-104874482D01*
X103000498Y-104994180D01*
X103059463Y-105104494D01*
X103138815Y-105201185D01*
X103235506Y-105280537D01*
X103345820Y-105339502D01*
X103465518Y-105375812D01*
X103590000Y-105388072D01*
X104154250Y-105385000D01*
X104313000Y-105226250D01*
X104313000Y-104027000D01*
X104567000Y-104027000D01*
X104567000Y-105226250D01*
X104725750Y-105385000D01*
X105290000Y-105388072D01*
X105414482Y-105375812D01*
X105534180Y-105339502D01*
X105644494Y-105280537D01*
X105741185Y-105201185D01*
X105820537Y-105104494D01*
X105879502Y-104994180D01*
X105915812Y-104874482D01*
X105928072Y-104750000D01*
X105925000Y-104185750D01*
X105777647Y-104038397D01*
X106473000Y-104038397D01*
X106473000Y-104181603D01*
X106500938Y-104322058D01*
X106555741Y-104454364D01*
X106635302Y-104573436D01*
X106736564Y-104674698D01*
X106855636Y-104754259D01*
X106987942Y-104809062D01*
X107128397Y-104837000D01*
X107271603Y-104837000D01*
X107412058Y-104809062D01*
X107544364Y-104754259D01*
X107663436Y-104674698D01*
X107748000Y-104590134D01*
X107748000Y-104688839D01*
X107782664Y-104863104D01*
X107850658Y-105027257D01*
X107949371Y-105174991D01*
X108075009Y-105300629D01*
X108222743Y-105399342D01*
X108386896Y-105467336D01*
X108561161Y-105502000D01*
X108738839Y-105502000D01*
X108913104Y-105467336D01*
X109077257Y-105399342D01*
X109224991Y-105300629D01*
X109350629Y-105174991D01*
X109381762Y-105128397D01*
X111873000Y-105128397D01*
X111873000Y-105271603D01*
X111900938Y-105412058D01*
X111955741Y-105544364D01*
X112035302Y-105663436D01*
X112136564Y-105764698D01*
X112255636Y-105844259D01*
X112387942Y-105899062D01*
X112528397Y-105927000D01*
X112671603Y-105927000D01*
X112812058Y-105899062D01*
X112944364Y-105844259D01*
X113063436Y-105764698D01*
X113164698Y-105663436D01*
X113244259Y-105544364D01*
X113299062Y-105412058D01*
X113327000Y-105271603D01*
X113327000Y-105128397D01*
X113299062Y-104987942D01*
X113244259Y-104855636D01*
X113164698Y-104736564D01*
X113063436Y-104635302D01*
X112944364Y-104555741D01*
X112836739Y-104511161D01*
X113248000Y-104511161D01*
X113248000Y-104688839D01*
X113282664Y-104863104D01*
X113350658Y-105027257D01*
X113449371Y-105174991D01*
X113575009Y-105300629D01*
X113722743Y-105399342D01*
X113886896Y-105467336D01*
X114061161Y-105502000D01*
X114238839Y-105502000D01*
X114413104Y-105467336D01*
X114577257Y-105399342D01*
X114724991Y-105300629D01*
X114850629Y-105174991D01*
X114949342Y-105027257D01*
X115017336Y-104863104D01*
X115052000Y-104688839D01*
X115052000Y-104511161D01*
X115017336Y-104336896D01*
X114949342Y-104172743D01*
X114872665Y-104057988D01*
X114923056Y-104024318D01*
X115024318Y-103923056D01*
X115103879Y-103803984D01*
X115158682Y-103671678D01*
X115186620Y-103531223D01*
X115186620Y-103388017D01*
X115158682Y-103247562D01*
X115103879Y-103115256D01*
X115024318Y-102996184D01*
X114923056Y-102894922D01*
X114803984Y-102815361D01*
X114671678Y-102760558D01*
X114531223Y-102732620D01*
X114388017Y-102732620D01*
X114247562Y-102760558D01*
X114115256Y-102815361D01*
X113996184Y-102894922D01*
X113894922Y-102996184D01*
X113815361Y-103115256D01*
X113760558Y-103247562D01*
X113732620Y-103388017D01*
X113732620Y-103531223D01*
X113760558Y-103671678D01*
X113800622Y-103768400D01*
X113722743Y-103800658D01*
X113575009Y-103899371D01*
X113449371Y-104025009D01*
X113350658Y-104172743D01*
X113282664Y-104336896D01*
X113248000Y-104511161D01*
X112836739Y-104511161D01*
X112812058Y-104500938D01*
X112671603Y-104473000D01*
X112528397Y-104473000D01*
X112387942Y-104500938D01*
X112255636Y-104555741D01*
X112136564Y-104635302D01*
X112035302Y-104736564D01*
X111955741Y-104855636D01*
X111900938Y-104987942D01*
X111873000Y-105128397D01*
X109381762Y-105128397D01*
X109449342Y-105027257D01*
X109517336Y-104863104D01*
X109552000Y-104688839D01*
X109552000Y-104511161D01*
X109517336Y-104336896D01*
X109449342Y-104172743D01*
X109350629Y-104025009D01*
X109224991Y-103899371D01*
X109077257Y-103800658D01*
X108913104Y-103732664D01*
X108738839Y-103698000D01*
X108561161Y-103698000D01*
X108386896Y-103732664D01*
X108222743Y-103800658D01*
X108075009Y-103899371D01*
X107949371Y-104025009D01*
X107927000Y-104058489D01*
X107927000Y-104038397D01*
X107899062Y-103897942D01*
X107844259Y-103765636D01*
X107764698Y-103646564D01*
X107663436Y-103545302D01*
X107544364Y-103465741D01*
X107412058Y-103410938D01*
X107271603Y-103383000D01*
X107128397Y-103383000D01*
X106987942Y-103410938D01*
X106855636Y-103465741D01*
X106736564Y-103545302D01*
X106635302Y-103646564D01*
X106555741Y-103765636D01*
X106500938Y-103897942D01*
X106473000Y-104038397D01*
X105777647Y-104038397D01*
X105766250Y-104027000D01*
X104567000Y-104027000D01*
X104313000Y-104027000D01*
X104293000Y-104027000D01*
X104293000Y-103773000D01*
X104313000Y-103773000D01*
X104313000Y-103753000D01*
X104567000Y-103753000D01*
X104567000Y-103773000D01*
X105766250Y-103773000D01*
X105925000Y-103614250D01*
X105928072Y-103050000D01*
X105915812Y-102925518D01*
X105879502Y-102805820D01*
X105820537Y-102695506D01*
X105741185Y-102598815D01*
X105684141Y-102552000D01*
X120190283Y-102552000D01*
X120121590Y-102620693D01*
X119430000Y-102620693D01*
X119336492Y-102629903D01*
X119246577Y-102657178D01*
X119163711Y-102701471D01*
X119123365Y-102734583D01*
X119122783Y-102734194D01*
X118944980Y-102660546D01*
X118756226Y-102623000D01*
X118563774Y-102623000D01*
X118375020Y-102660546D01*
X118197217Y-102734194D01*
X118037199Y-102841115D01*
X118025000Y-102853314D01*
X118012801Y-102841115D01*
X117852783Y-102734194D01*
X117674980Y-102660546D01*
X117486226Y-102623000D01*
X117293774Y-102623000D01*
X117105020Y-102660546D01*
X116927217Y-102734194D01*
X116767199Y-102841115D01*
X116631115Y-102977199D01*
X116524194Y-103137217D01*
X116450546Y-103315020D01*
X116413000Y-103503774D01*
X116413000Y-103696226D01*
X116450546Y-103884980D01*
X116524194Y-104062783D01*
X116631115Y-104222801D01*
X116767199Y-104358885D01*
X116927217Y-104465806D01*
X117105020Y-104539454D01*
X117293774Y-104577000D01*
X117423820Y-104577000D01*
X117336564Y-104635302D01*
X117235302Y-104736564D01*
X117155741Y-104855636D01*
X117100938Y-104987942D01*
X117073000Y-105128397D01*
X117073000Y-105214988D01*
X117061836Y-105212767D01*
X116918630Y-105212767D01*
X116778175Y-105240705D01*
X116645869Y-105295508D01*
X116526797Y-105375069D01*
X116425535Y-105476331D01*
X116345974Y-105595403D01*
X116291171Y-105727709D01*
X116263233Y-105868164D01*
X116263233Y-106011370D01*
X116291171Y-106151825D01*
X116345974Y-106284131D01*
X116425535Y-106403203D01*
X116526797Y-106504465D01*
X116645869Y-106584026D01*
X116778175Y-106638829D01*
X116918630Y-106666767D01*
X117061836Y-106666767D01*
X117202291Y-106638829D01*
X117334597Y-106584026D01*
X117453669Y-106504465D01*
X117554931Y-106403203D01*
X117634492Y-106284131D01*
X117689295Y-106151825D01*
X117717233Y-106011370D01*
X117717233Y-105924779D01*
X117728397Y-105927000D01*
X117871603Y-105927000D01*
X118012058Y-105899062D01*
X118144364Y-105844259D01*
X118263436Y-105764698D01*
X118364698Y-105663436D01*
X118444259Y-105544364D01*
X118499062Y-105412058D01*
X118527000Y-105271603D01*
X118527000Y-105128397D01*
X118499062Y-104987942D01*
X118444259Y-104855636D01*
X118364698Y-104736564D01*
X118263436Y-104635302D01*
X118144364Y-104555741D01*
X118012058Y-104500938D01*
X117871603Y-104473000D01*
X117835415Y-104473000D01*
X117852783Y-104465806D01*
X118012801Y-104358885D01*
X118025000Y-104346686D01*
X118037199Y-104358885D01*
X118197217Y-104465806D01*
X118375020Y-104539454D01*
X118563774Y-104577000D01*
X118756226Y-104577000D01*
X118944980Y-104539454D01*
X119122783Y-104465806D01*
X119123365Y-104465417D01*
X119163711Y-104498529D01*
X119246577Y-104542822D01*
X119336492Y-104570097D01*
X119430000Y-104579307D01*
X120430000Y-104579307D01*
X120523508Y-104570097D01*
X120613423Y-104542822D01*
X120696289Y-104498529D01*
X120713036Y-104484785D01*
X120845020Y-104539454D01*
X121033774Y-104577000D01*
X121226226Y-104577000D01*
X121414980Y-104539454D01*
X121592783Y-104465806D01*
X121752801Y-104358885D01*
X121765000Y-104346686D01*
X121777199Y-104358885D01*
X121937217Y-104465806D01*
X122115020Y-104539454D01*
X122303774Y-104577000D01*
X122496226Y-104577000D01*
X122684980Y-104539454D01*
X122862783Y-104465806D01*
X123022801Y-104358885D01*
X123035000Y-104346686D01*
X123047199Y-104358885D01*
X123120209Y-104407669D01*
X123121059Y-104416297D01*
X123149837Y-104511161D01*
X123152910Y-104521292D01*
X123204631Y-104618056D01*
X123256793Y-104681615D01*
X123274237Y-104702870D01*
X123295489Y-104720311D01*
X123494684Y-104919506D01*
X123512130Y-104940764D01*
X123596944Y-105010369D01*
X123693708Y-105062091D01*
X123798703Y-105093941D01*
X123880530Y-105102000D01*
X123880540Y-105102000D01*
X123907894Y-105104694D01*
X123935247Y-105102000D01*
X124382547Y-105102000D01*
X124366754Y-105125636D01*
X124311951Y-105257942D01*
X124284013Y-105398397D01*
X124284013Y-105541603D01*
X124311951Y-105682058D01*
X124366754Y-105814364D01*
X124446315Y-105933436D01*
X124547577Y-106034698D01*
X124666649Y-106114259D01*
X124798955Y-106169062D01*
X124935328Y-106196188D01*
X124911431Y-106231952D01*
X124852859Y-106373357D01*
X124829111Y-106492749D01*
X124787942Y-106500938D01*
X124655636Y-106555741D01*
X124536564Y-106635302D01*
X124526121Y-106645745D01*
X124472162Y-106651059D01*
X124367167Y-106682909D01*
X124336474Y-106699315D01*
X124270402Y-106734631D01*
X124233766Y-106764698D01*
X124185589Y-106804236D01*
X124168148Y-106825488D01*
X121829532Y-109164105D01*
X121736825Y-109125705D01*
X121596370Y-109097767D01*
X121453164Y-109097767D01*
X121312709Y-109125705D01*
X121180403Y-109180508D01*
X121061331Y-109260069D01*
X120960069Y-109361331D01*
X120880508Y-109480403D01*
X120825705Y-109612709D01*
X120797767Y-109753164D01*
X120797767Y-109896370D01*
X120825705Y-110036825D01*
X120880508Y-110169131D01*
X120960069Y-110288203D01*
X121061331Y-110389465D01*
X121180403Y-110469026D01*
X121312709Y-110523829D01*
X121453164Y-110551767D01*
X121596370Y-110551767D01*
X121736825Y-110523829D01*
X121869131Y-110469026D01*
X121988203Y-110389465D01*
X121997207Y-110380461D01*
X122065777Y-110373708D01*
X122170772Y-110341858D01*
X122267536Y-110290136D01*
X122352350Y-110220531D01*
X122369796Y-110199273D01*
X123397672Y-109171397D01*
X124749000Y-109171397D01*
X124749000Y-109314603D01*
X124776938Y-109455058D01*
X124831741Y-109587364D01*
X124911302Y-109706436D01*
X125012564Y-109807698D01*
X125131636Y-109887259D01*
X125263942Y-109942062D01*
X125404397Y-109970000D01*
X125547603Y-109970000D01*
X125688058Y-109942062D01*
X125820364Y-109887259D01*
X125939436Y-109807698D01*
X126040698Y-109706436D01*
X126120259Y-109587364D01*
X126175062Y-109455058D01*
X126203000Y-109314603D01*
X126203000Y-109171397D01*
X126175062Y-109030942D01*
X126120259Y-108898636D01*
X126040698Y-108779564D01*
X125939436Y-108678302D01*
X125820364Y-108598741D01*
X125688058Y-108543938D01*
X125547603Y-108516000D01*
X125404397Y-108516000D01*
X125263942Y-108543938D01*
X125131636Y-108598741D01*
X125012564Y-108678302D01*
X124911302Y-108779564D01*
X124831741Y-108898636D01*
X124776938Y-109030942D01*
X124749000Y-109171397D01*
X123397672Y-109171397D01*
X124277419Y-108291651D01*
X124318877Y-108353698D01*
X124420139Y-108454960D01*
X124539211Y-108534521D01*
X124671517Y-108589324D01*
X124811972Y-108617262D01*
X124955178Y-108617262D01*
X125095633Y-108589324D01*
X125227939Y-108534521D01*
X125347011Y-108454960D01*
X125354709Y-108447262D01*
X128199163Y-108447262D01*
X128226516Y-108449956D01*
X128253869Y-108447262D01*
X128253880Y-108447262D01*
X128335707Y-108439203D01*
X128440702Y-108407353D01*
X128537466Y-108355631D01*
X128622280Y-108286026D01*
X128639726Y-108264768D01*
X131054515Y-105849980D01*
X131075767Y-105832539D01*
X131105948Y-105795764D01*
X131116878Y-105782445D01*
X131143439Y-105764698D01*
X131244701Y-105663436D01*
X131267459Y-105629376D01*
X132298702Y-106660620D01*
X132316143Y-106681872D01*
X132337395Y-106699313D01*
X132337397Y-106699315D01*
X132400956Y-106751477D01*
X132425691Y-106764698D01*
X132497721Y-106803199D01*
X132602716Y-106835049D01*
X132684543Y-106843108D01*
X132684553Y-106843108D01*
X132711906Y-106845802D01*
X132739260Y-106843108D01*
X133028855Y-106843108D01*
X133036553Y-106850806D01*
X133155625Y-106930367D01*
X133287931Y-106985170D01*
X133428386Y-107013108D01*
X133571592Y-107013108D01*
X133712047Y-106985170D01*
X133844353Y-106930367D01*
X133963425Y-106850806D01*
X134064687Y-106749544D01*
X134144248Y-106630472D01*
X134199051Y-106498166D01*
X134226989Y-106357711D01*
X134226989Y-106214505D01*
X134201652Y-106087125D01*
X134233388Y-106073979D01*
X134352460Y-105994418D01*
X134453722Y-105893156D01*
X134533283Y-105774084D01*
X134588086Y-105641778D01*
X134616024Y-105501323D01*
X134616024Y-105358117D01*
X134588086Y-105217662D01*
X134579409Y-105196715D01*
X134656492Y-105220097D01*
X134750000Y-105229307D01*
X136450000Y-105229307D01*
X136543508Y-105220097D01*
X136633423Y-105192822D01*
X136716289Y-105148529D01*
X136788921Y-105088921D01*
X136848529Y-105016289D01*
X136892822Y-104933423D01*
X136920097Y-104843508D01*
X136929307Y-104750000D01*
X136929307Y-104444746D01*
X136964028Y-104528570D01*
X137109252Y-104745913D01*
X137294087Y-104930748D01*
X137511430Y-105075972D01*
X137752928Y-105176004D01*
X138009302Y-105227000D01*
X138270698Y-105227000D01*
X138527072Y-105176004D01*
X138768570Y-105075972D01*
X138985913Y-104930748D01*
X139170748Y-104745913D01*
X139315972Y-104528570D01*
X139416004Y-104287072D01*
X139448001Y-104126213D01*
X139448001Y-107309416D01*
X139411641Y-107233080D01*
X139237588Y-106999731D01*
X139021355Y-106804822D01*
X138771252Y-106655843D01*
X138496891Y-106558519D01*
X138267000Y-106679186D01*
X138267000Y-107873000D01*
X138287000Y-107873000D01*
X138287000Y-108127000D01*
X138267000Y-108127000D01*
X138267000Y-108147000D01*
X138013000Y-108147000D01*
X138013000Y-108127000D01*
X135727000Y-108127000D01*
X135727000Y-108147000D01*
X135473000Y-108147000D01*
X135473000Y-108127000D01*
X135453000Y-108127000D01*
X135453000Y-107873000D01*
X135473000Y-107873000D01*
X135473000Y-106673750D01*
X135727000Y-106673750D01*
X135727000Y-107873000D01*
X138013000Y-107873000D01*
X138013000Y-106679186D01*
X137783109Y-106558519D01*
X137526994Y-106649371D01*
X137526994Y-106528397D01*
X137499056Y-106387942D01*
X137444253Y-106255636D01*
X137364692Y-106136564D01*
X137263430Y-106035302D01*
X137144358Y-105955741D01*
X137012052Y-105900938D01*
X136871597Y-105873000D01*
X136728391Y-105873000D01*
X136587936Y-105900938D01*
X136455630Y-105955741D01*
X136336558Y-106035302D01*
X136235296Y-106136564D01*
X136155735Y-106255636D01*
X136100932Y-106387942D01*
X136075865Y-106513965D01*
X135885750Y-106515000D01*
X135727000Y-106673750D01*
X135473000Y-106673750D01*
X135314250Y-106515000D01*
X134750000Y-106511928D01*
X134625518Y-106524188D01*
X134505820Y-106560498D01*
X134395506Y-106619463D01*
X134298815Y-106698815D01*
X134219463Y-106795506D01*
X134160498Y-106905820D01*
X134124188Y-107025518D01*
X134111928Y-107150000D01*
X134114586Y-107638295D01*
X134114325Y-107638034D01*
X133987064Y-107553001D01*
X133845659Y-107494429D01*
X133695544Y-107464570D01*
X133542488Y-107464570D01*
X133392373Y-107494429D01*
X133250968Y-107553001D01*
X133123707Y-107638034D01*
X133015480Y-107746261D01*
X132930447Y-107873522D01*
X132871875Y-108014927D01*
X132842016Y-108165042D01*
X132842016Y-108318098D01*
X132871875Y-108468213D01*
X132930447Y-108609618D01*
X133015480Y-108736879D01*
X133123707Y-108845106D01*
X133250968Y-108930139D01*
X133392373Y-108988711D01*
X133542488Y-109018570D01*
X133695544Y-109018570D01*
X133845659Y-108988711D01*
X133987064Y-108930139D01*
X134111946Y-108846696D01*
X134111928Y-108850000D01*
X134124188Y-108974482D01*
X134160498Y-109094180D01*
X134219463Y-109204494D01*
X134298815Y-109301185D01*
X134395506Y-109380537D01*
X134505820Y-109439502D01*
X134625518Y-109475812D01*
X134750000Y-109488072D01*
X134786079Y-109487876D01*
X134754087Y-109509252D01*
X134569252Y-109694087D01*
X134424028Y-109911430D01*
X134327000Y-110145676D01*
X134327000Y-110141397D01*
X134299062Y-110000942D01*
X134244259Y-109868636D01*
X134164698Y-109749564D01*
X134063436Y-109648302D01*
X133944364Y-109568741D01*
X133812058Y-109513938D01*
X133671603Y-109486000D01*
X133528397Y-109486000D01*
X133387942Y-109513938D01*
X133255636Y-109568741D01*
X133192391Y-109611000D01*
X126616547Y-109611000D01*
X126586990Y-109608089D01*
X126557434Y-109611000D01*
X126557425Y-109611000D01*
X126468979Y-109619711D01*
X126355501Y-109654134D01*
X126250920Y-109710034D01*
X126250918Y-109710035D01*
X126250919Y-109710035D01*
X126182218Y-109766416D01*
X126182214Y-109766420D01*
X126159254Y-109785263D01*
X126140411Y-109808223D01*
X125187767Y-110760868D01*
X125113163Y-110775708D01*
X124980857Y-110830511D01*
X124861785Y-110910072D01*
X124760523Y-111011334D01*
X124680962Y-111130406D01*
X124626159Y-111262712D01*
X124598221Y-111403167D01*
X124598221Y-111546373D01*
X124626159Y-111686828D01*
X124680962Y-111819134D01*
X124760523Y-111938206D01*
X124802345Y-111980028D01*
X124667072Y-111923996D01*
X124410698Y-111873000D01*
X124149302Y-111873000D01*
X123892928Y-111923996D01*
X123651430Y-112024028D01*
X123434087Y-112169252D01*
X123249252Y-112354087D01*
X123104028Y-112571430D01*
X123003996Y-112812928D01*
X122953000Y-113069302D01*
X122953000Y-113330698D01*
X123003996Y-113587072D01*
X123104028Y-113828570D01*
X123249252Y-114045913D01*
X123434087Y-114230748D01*
X123651430Y-114375972D01*
X123825321Y-114448000D01*
X114509422Y-114448000D01*
X114588718Y-114368704D01*
X114609143Y-114364641D01*
X114750548Y-114306069D01*
X114877809Y-114221036D01*
X114986036Y-114112809D01*
X115071069Y-113985548D01*
X115129641Y-113844143D01*
X115159500Y-113694028D01*
X115159500Y-113540972D01*
X115129641Y-113390857D01*
X115071069Y-113249452D01*
X114986036Y-113122191D01*
X114877809Y-113013964D01*
X114750548Y-112928931D01*
X114609143Y-112870359D01*
X114459028Y-112840500D01*
X114305972Y-112840500D01*
X114155857Y-112870359D01*
X114014452Y-112928931D01*
X113887191Y-113013964D01*
X113778964Y-113122191D01*
X113693931Y-113249452D01*
X113635359Y-113390857D01*
X113631296Y-113411282D01*
X113269577Y-113773001D01*
X113127000Y-113773001D01*
X113127000Y-113728398D01*
X113099062Y-113587943D01*
X113044259Y-113455637D01*
X112964698Y-113336565D01*
X112863436Y-113235303D01*
X112744364Y-113155742D01*
X112664892Y-113122824D01*
X113087716Y-112700000D01*
X116420693Y-112700000D01*
X116420693Y-113700000D01*
X116429903Y-113793508D01*
X116457178Y-113883423D01*
X116501471Y-113966289D01*
X116561079Y-114038921D01*
X116633711Y-114098529D01*
X116716577Y-114142822D01*
X116806492Y-114170097D01*
X116900000Y-114179307D01*
X117900000Y-114179307D01*
X117993508Y-114170097D01*
X118083423Y-114142822D01*
X118166289Y-114098529D01*
X118206635Y-114065417D01*
X118207217Y-114065806D01*
X118385020Y-114139454D01*
X118573774Y-114177000D01*
X118766226Y-114177000D01*
X118954980Y-114139454D01*
X119132783Y-114065806D01*
X119176690Y-114036468D01*
X119197980Y-114058865D01*
X119379794Y-114187123D01*
X119583136Y-114277446D01*
X119638126Y-114294119D01*
X119813000Y-114167954D01*
X119813000Y-113327000D01*
X119793000Y-113327000D01*
X119793000Y-113073000D01*
X119813000Y-113073000D01*
X119813000Y-112232046D01*
X120067000Y-112232046D01*
X120067000Y-113073000D01*
X120087000Y-113073000D01*
X120087000Y-113327000D01*
X120067000Y-113327000D01*
X120067000Y-114167954D01*
X120241874Y-114294119D01*
X120296864Y-114277446D01*
X120500206Y-114187123D01*
X120682020Y-114058865D01*
X120703310Y-114036468D01*
X120747217Y-114065806D01*
X120925020Y-114139454D01*
X121113774Y-114177000D01*
X121306226Y-114177000D01*
X121494980Y-114139454D01*
X121672783Y-114065806D01*
X121832801Y-113958885D01*
X121968885Y-113822801D01*
X122075806Y-113662783D01*
X122149454Y-113484980D01*
X122187000Y-113296226D01*
X122187000Y-113103774D01*
X122149454Y-112915020D01*
X122075806Y-112737217D01*
X121968885Y-112577199D01*
X121832801Y-112441115D01*
X121672783Y-112334194D01*
X121494980Y-112260546D01*
X121306226Y-112223000D01*
X121113774Y-112223000D01*
X120925020Y-112260546D01*
X120747217Y-112334194D01*
X120703310Y-112363532D01*
X120682020Y-112341135D01*
X120500206Y-112212877D01*
X120296864Y-112122554D01*
X120241874Y-112105881D01*
X120067000Y-112232046D01*
X119813000Y-112232046D01*
X119638126Y-112105881D01*
X119583136Y-112122554D01*
X119379794Y-112212877D01*
X119197980Y-112341135D01*
X119176690Y-112363532D01*
X119132783Y-112334194D01*
X118954980Y-112260546D01*
X118766226Y-112223000D01*
X118573774Y-112223000D01*
X118385020Y-112260546D01*
X118207217Y-112334194D01*
X118206635Y-112334583D01*
X118166289Y-112301471D01*
X118083423Y-112257178D01*
X117993508Y-112229903D01*
X117900000Y-112220693D01*
X116900000Y-112220693D01*
X116806492Y-112229903D01*
X116716577Y-112257178D01*
X116633711Y-112301471D01*
X116561079Y-112361079D01*
X116501471Y-112433711D01*
X116457178Y-112516577D01*
X116429903Y-112606492D01*
X116420693Y-112700000D01*
X113087716Y-112700000D01*
X115460717Y-110327000D01*
X115471603Y-110327000D01*
X115612058Y-110299062D01*
X115744364Y-110244259D01*
X115863436Y-110164698D01*
X115964698Y-110063436D01*
X116044259Y-109944364D01*
X116099062Y-109812058D01*
X116127000Y-109671603D01*
X116127000Y-109528397D01*
X116099062Y-109387942D01*
X116044259Y-109255636D01*
X115964698Y-109136564D01*
X115863436Y-109035302D01*
X115744364Y-108955741D01*
X115612058Y-108900938D01*
X115471603Y-108873000D01*
X115328397Y-108873000D01*
X115187942Y-108900938D01*
X115055636Y-108955741D01*
X114936564Y-109035302D01*
X114835302Y-109136564D01*
X114800000Y-109189397D01*
X114764698Y-109136564D01*
X114663436Y-109035302D01*
X114544364Y-108955741D01*
X114412058Y-108900938D01*
X114271603Y-108873000D01*
X114128397Y-108873000D01*
X113987942Y-108900938D01*
X113855636Y-108955741D01*
X113736564Y-109035302D01*
X113728866Y-109043000D01*
X111230717Y-109043000D01*
X109927000Y-107739284D01*
X109927000Y-107728397D01*
X109899062Y-107587942D01*
X109844259Y-107455636D01*
X109764698Y-107336564D01*
X109663436Y-107235302D01*
X109544364Y-107155741D01*
X109412058Y-107100938D01*
X109341275Y-107086859D01*
X109364698Y-107063436D01*
X109444259Y-106944364D01*
X109499062Y-106812058D01*
X109527000Y-106671603D01*
X109527000Y-106528397D01*
X109499062Y-106387942D01*
X109444259Y-106255636D01*
X109364698Y-106136564D01*
X109356531Y-106128397D01*
X113873000Y-106128397D01*
X113873000Y-106271603D01*
X113900938Y-106412058D01*
X113955741Y-106544364D01*
X114035302Y-106663436D01*
X114136564Y-106764698D01*
X114255636Y-106844259D01*
X114387942Y-106899062D01*
X114528397Y-106927000D01*
X114671603Y-106927000D01*
X114812058Y-106899062D01*
X114944364Y-106844259D01*
X115063436Y-106764698D01*
X115164698Y-106663436D01*
X115244259Y-106544364D01*
X115299062Y-106412058D01*
X115327000Y-106271603D01*
X115327000Y-106128397D01*
X115299062Y-105987942D01*
X115244259Y-105855636D01*
X115164698Y-105736564D01*
X115063436Y-105635302D01*
X114944364Y-105555741D01*
X114812058Y-105500938D01*
X114671603Y-105473000D01*
X114528397Y-105473000D01*
X114387942Y-105500938D01*
X114255636Y-105555741D01*
X114136564Y-105635302D01*
X114035302Y-105736564D01*
X113955741Y-105855636D01*
X113900938Y-105987942D01*
X113873000Y-106128397D01*
X109356531Y-106128397D01*
X109263436Y-106035302D01*
X109144364Y-105955741D01*
X109012058Y-105900938D01*
X108871603Y-105873000D01*
X108728397Y-105873000D01*
X108587942Y-105900938D01*
X108455636Y-105955741D01*
X108336564Y-106035302D01*
X108235302Y-106136564D01*
X108155741Y-106255636D01*
X108100938Y-106387942D01*
X108073000Y-106528397D01*
X108073000Y-106671603D01*
X108100938Y-106812058D01*
X108155741Y-106944364D01*
X108235302Y-107063436D01*
X108336564Y-107164698D01*
X108455636Y-107244259D01*
X108587942Y-107299062D01*
X108658725Y-107313141D01*
X108635302Y-107336564D01*
X108555741Y-107455636D01*
X108500938Y-107587942D01*
X108473000Y-107728397D01*
X108473000Y-107871603D01*
X108500938Y-108012058D01*
X108555741Y-108144364D01*
X108635302Y-108263436D01*
X108736564Y-108364698D01*
X108855636Y-108444259D01*
X108987942Y-108499062D01*
X109128397Y-108527000D01*
X109139284Y-108527000D01*
X110586793Y-109974510D01*
X110604236Y-109995764D01*
X110625488Y-110013205D01*
X110625490Y-110013207D01*
X110689049Y-110065369D01*
X110740771Y-110093015D01*
X110785814Y-110117091D01*
X110890809Y-110148941D01*
X110972636Y-110157000D01*
X110972645Y-110157000D01*
X110999999Y-110159694D01*
X111027353Y-110157000D01*
X111665449Y-110157000D01*
X111647562Y-110160558D01*
X111515256Y-110215361D01*
X111396184Y-110294922D01*
X111294922Y-110396184D01*
X111215361Y-110515256D01*
X111160558Y-110647562D01*
X111132620Y-110788017D01*
X111132620Y-110931223D01*
X111160558Y-111071678D01*
X111215361Y-111203984D01*
X111294922Y-111323056D01*
X111396184Y-111424318D01*
X111515256Y-111503879D01*
X111647562Y-111558682D01*
X111788017Y-111586620D01*
X111931223Y-111586620D01*
X112071678Y-111558682D01*
X112203984Y-111503879D01*
X112323056Y-111424318D01*
X112424318Y-111323056D01*
X112503879Y-111203984D01*
X112558682Y-111071678D01*
X112586620Y-110931223D01*
X112586620Y-110788017D01*
X112558682Y-110647562D01*
X112503879Y-110515256D01*
X112424318Y-110396184D01*
X112323056Y-110294922D01*
X112203984Y-110215361D01*
X112071678Y-110160558D01*
X112053791Y-110157000D01*
X113728866Y-110157000D01*
X113736564Y-110164698D01*
X113855636Y-110244259D01*
X113935106Y-110277177D01*
X111082265Y-113130019D01*
X111012058Y-113100938D01*
X110871603Y-113073000D01*
X110728397Y-113073000D01*
X110587942Y-113100938D01*
X110455636Y-113155741D01*
X110336564Y-113235302D01*
X110282702Y-113289164D01*
X110215939Y-113234372D01*
X110098328Y-113171508D01*
X109970713Y-113132796D01*
X109871250Y-113123000D01*
X109871243Y-113123000D01*
X109837998Y-113119726D01*
X109804753Y-113123000D01*
X105585362Y-113123000D01*
X105568048Y-113111431D01*
X105426643Y-113052859D01*
X105276528Y-113023000D01*
X105123472Y-113023000D01*
X104973357Y-113052859D01*
X104831952Y-113111431D01*
X104704691Y-113196464D01*
X104641954Y-113259201D01*
X104626643Y-113252859D01*
X104476528Y-113223000D01*
X104323472Y-113223000D01*
X104302000Y-113227271D01*
X104302000Y-112799550D01*
X104287140Y-112648674D01*
X104228415Y-112455083D01*
X104204292Y-112409952D01*
X104255636Y-112444259D01*
X104387942Y-112499062D01*
X104528397Y-112527000D01*
X104671603Y-112527000D01*
X104812058Y-112499062D01*
X104944364Y-112444259D01*
X105063436Y-112364698D01*
X105164698Y-112263436D01*
X105244259Y-112144364D01*
X105299062Y-112012058D01*
X105327000Y-111871603D01*
X105327000Y-111728397D01*
X105299062Y-111587942D01*
X105244259Y-111455636D01*
X105164698Y-111336564D01*
X105063436Y-111235302D01*
X104944364Y-111155741D01*
X104812058Y-111100938D01*
X104671603Y-111073000D01*
X104528397Y-111073000D01*
X104387942Y-111100938D01*
X104255636Y-111155741D01*
X104136564Y-111235302D01*
X104035302Y-111336564D01*
X103955741Y-111455636D01*
X103900938Y-111587942D01*
X103873000Y-111728397D01*
X103873000Y-111871603D01*
X103900938Y-112012058D01*
X103915412Y-112047001D01*
X103848331Y-111991949D01*
X103669917Y-111896585D01*
X103476327Y-111837860D01*
X103275000Y-111818031D01*
X103073674Y-111837860D01*
X102880084Y-111896585D01*
X102701670Y-111991949D01*
X102545289Y-112120288D01*
X102416950Y-112276669D01*
X102321586Y-112455083D01*
X102262860Y-112648673D01*
X102248000Y-112799549D01*
X102248000Y-113600450D01*
X102262860Y-113751326D01*
X102321585Y-113944916D01*
X102416949Y-114123331D01*
X102545288Y-114279712D01*
X102701669Y-114408051D01*
X102776409Y-114448000D01*
X101027001Y-114448000D01*
X100913497Y-114436871D01*
X100830290Y-114411750D01*
X100753544Y-114370943D01*
X100686189Y-114316010D01*
X100630784Y-114249036D01*
X100589447Y-114172584D01*
X100563744Y-114089550D01*
X100552000Y-113977822D01*
X100552000Y-111808228D01*
X100730083Y-111903415D01*
X100923673Y-111962140D01*
X101125000Y-111981969D01*
X101326326Y-111962140D01*
X101519916Y-111903415D01*
X101698331Y-111808051D01*
X101854712Y-111679712D01*
X101983051Y-111523331D01*
X102078415Y-111344917D01*
X102137140Y-111151327D01*
X102152000Y-111000451D01*
X102152000Y-109799549D01*
X102137140Y-109648673D01*
X102078415Y-109455083D01*
X101983051Y-109276669D01*
X101854712Y-109120288D01*
X101698331Y-108991949D01*
X101519917Y-108896585D01*
X101326327Y-108837860D01*
X101125000Y-108818031D01*
X100923674Y-108837860D01*
X100730084Y-108896585D01*
X100552000Y-108991773D01*
X100552000Y-107199549D01*
X102248000Y-107199549D01*
X102248000Y-108000450D01*
X102262860Y-108151326D01*
X102321585Y-108344916D01*
X102416949Y-108523331D01*
X102545288Y-108679712D01*
X102701669Y-108808051D01*
X102880083Y-108903415D01*
X103073673Y-108962140D01*
X103275000Y-108981969D01*
X103476326Y-108962140D01*
X103624233Y-108917273D01*
X103623000Y-108923472D01*
X103623000Y-109076528D01*
X103652859Y-109226643D01*
X103711431Y-109368048D01*
X103796464Y-109495309D01*
X103904691Y-109603536D01*
X103984250Y-109656695D01*
X103925636Y-109680974D01*
X103806564Y-109760535D01*
X103705302Y-109861797D01*
X103625741Y-109980869D01*
X103570938Y-110113175D01*
X103543000Y-110253630D01*
X103543000Y-110396836D01*
X103570938Y-110537291D01*
X103625741Y-110669597D01*
X103705302Y-110788669D01*
X103806564Y-110889931D01*
X103925636Y-110969492D01*
X104057942Y-111024295D01*
X104198397Y-111052233D01*
X104341603Y-111052233D01*
X104482058Y-111024295D01*
X104614364Y-110969492D01*
X104733436Y-110889931D01*
X104834698Y-110788669D01*
X104914259Y-110669597D01*
X104969062Y-110537291D01*
X104997000Y-110396836D01*
X104997000Y-110253630D01*
X104969062Y-110113175D01*
X104914259Y-109980869D01*
X104834698Y-109861797D01*
X104733436Y-109760535D01*
X104680193Y-109724960D01*
X104768048Y-109688569D01*
X104895309Y-109603536D01*
X105003536Y-109495309D01*
X105088569Y-109368048D01*
X105147141Y-109226643D01*
X105177000Y-109076528D01*
X105177000Y-108923472D01*
X105147141Y-108773357D01*
X105088569Y-108631952D01*
X105003536Y-108504691D01*
X104895309Y-108396464D01*
X104768048Y-108311431D01*
X104626643Y-108252859D01*
X104476528Y-108223000D01*
X104323472Y-108223000D01*
X104261669Y-108235293D01*
X104287140Y-108151327D01*
X104302000Y-108000451D01*
X104302000Y-107199550D01*
X104287140Y-107048674D01*
X104228415Y-106855083D01*
X104133051Y-106676669D01*
X104004712Y-106520288D01*
X103848331Y-106391949D01*
X103669917Y-106296585D01*
X103476327Y-106237860D01*
X103275000Y-106218031D01*
X103073674Y-106237860D01*
X102880084Y-106296585D01*
X102701670Y-106391949D01*
X102545289Y-106520288D01*
X102416950Y-106676669D01*
X102321586Y-106855083D01*
X102262860Y-107048673D01*
X102248000Y-107199549D01*
X100552000Y-107199549D01*
X100552000Y-103026993D01*
X100563128Y-102913498D01*
X100588252Y-102830288D01*
X100629058Y-102753543D01*
X100683988Y-102686192D01*
X100750964Y-102630784D01*
X100827417Y-102589446D01*
X100910450Y-102563743D01*
X101022178Y-102552000D01*
X103195859Y-102552000D01*
X103138815Y-102598815D01*
G04 #@! TA.AperFunction,Conductor*
D23*
G36*
X103138815Y-102598815D02*
G01*
X103059463Y-102695506D01*
X103000498Y-102805820D01*
X102964188Y-102925518D01*
X102951928Y-103050000D01*
X102952124Y-103086079D01*
X102930748Y-103054087D01*
X102745913Y-102869252D01*
X102528570Y-102724028D01*
X102287072Y-102623996D01*
X102030698Y-102573000D01*
X101769302Y-102573000D01*
X101512928Y-102623996D01*
X101271430Y-102724028D01*
X101054087Y-102869252D01*
X100869252Y-103054087D01*
X100724028Y-103271430D01*
X100623996Y-103512928D01*
X100573000Y-103769302D01*
X100573000Y-104030698D01*
X100623996Y-104287072D01*
X100724028Y-104528570D01*
X100869252Y-104745913D01*
X101054087Y-104930748D01*
X101271430Y-105075972D01*
X101512928Y-105176004D01*
X101769302Y-105227000D01*
X102030698Y-105227000D01*
X102287072Y-105176004D01*
X102528570Y-105075972D01*
X102745913Y-104930748D01*
X102930748Y-104745913D01*
X102952124Y-104713921D01*
X102951928Y-104750000D01*
X102964188Y-104874482D01*
X103000498Y-104994180D01*
X103059463Y-105104494D01*
X103138815Y-105201185D01*
X103235506Y-105280537D01*
X103345820Y-105339502D01*
X103465518Y-105375812D01*
X103590000Y-105388072D01*
X104154250Y-105385000D01*
X104313000Y-105226250D01*
X104313000Y-104027000D01*
X104567000Y-104027000D01*
X104567000Y-105226250D01*
X104725750Y-105385000D01*
X105290000Y-105388072D01*
X105414482Y-105375812D01*
X105534180Y-105339502D01*
X105644494Y-105280537D01*
X105741185Y-105201185D01*
X105820537Y-105104494D01*
X105879502Y-104994180D01*
X105915812Y-104874482D01*
X105928072Y-104750000D01*
X105925000Y-104185750D01*
X105777647Y-104038397D01*
X106473000Y-104038397D01*
X106473000Y-104181603D01*
X106500938Y-104322058D01*
X106555741Y-104454364D01*
X106635302Y-104573436D01*
X106736564Y-104674698D01*
X106855636Y-104754259D01*
X106987942Y-104809062D01*
X107128397Y-104837000D01*
X107271603Y-104837000D01*
X107412058Y-104809062D01*
X107544364Y-104754259D01*
X107663436Y-104674698D01*
X107748000Y-104590134D01*
X107748000Y-104688839D01*
X107782664Y-104863104D01*
X107850658Y-105027257D01*
X107949371Y-105174991D01*
X108075009Y-105300629D01*
X108222743Y-105399342D01*
X108386896Y-105467336D01*
X108561161Y-105502000D01*
X108738839Y-105502000D01*
X108913104Y-105467336D01*
X109077257Y-105399342D01*
X109224991Y-105300629D01*
X109350629Y-105174991D01*
X109381762Y-105128397D01*
X111873000Y-105128397D01*
X111873000Y-105271603D01*
X111900938Y-105412058D01*
X111955741Y-105544364D01*
X112035302Y-105663436D01*
X112136564Y-105764698D01*
X112255636Y-105844259D01*
X112387942Y-105899062D01*
X112528397Y-105927000D01*
X112671603Y-105927000D01*
X112812058Y-105899062D01*
X112944364Y-105844259D01*
X113063436Y-105764698D01*
X113164698Y-105663436D01*
X113244259Y-105544364D01*
X113299062Y-105412058D01*
X113327000Y-105271603D01*
X113327000Y-105128397D01*
X113299062Y-104987942D01*
X113244259Y-104855636D01*
X113164698Y-104736564D01*
X113063436Y-104635302D01*
X112944364Y-104555741D01*
X112836739Y-104511161D01*
X113248000Y-104511161D01*
X113248000Y-104688839D01*
X113282664Y-104863104D01*
X113350658Y-105027257D01*
X113449371Y-105174991D01*
X113575009Y-105300629D01*
X113722743Y-105399342D01*
X113886896Y-105467336D01*
X114061161Y-105502000D01*
X114238839Y-105502000D01*
X114413104Y-105467336D01*
X114577257Y-105399342D01*
X114724991Y-105300629D01*
X114850629Y-105174991D01*
X114949342Y-105027257D01*
X115017336Y-104863104D01*
X115052000Y-104688839D01*
X115052000Y-104511161D01*
X115017336Y-104336896D01*
X114949342Y-104172743D01*
X114872665Y-104057988D01*
X114923056Y-104024318D01*
X115024318Y-103923056D01*
X115103879Y-103803984D01*
X115158682Y-103671678D01*
X115186620Y-103531223D01*
X115186620Y-103388017D01*
X115158682Y-103247562D01*
X115103879Y-103115256D01*
X115024318Y-102996184D01*
X114923056Y-102894922D01*
X114803984Y-102815361D01*
X114671678Y-102760558D01*
X114531223Y-102732620D01*
X114388017Y-102732620D01*
X114247562Y-102760558D01*
X114115256Y-102815361D01*
X113996184Y-102894922D01*
X113894922Y-102996184D01*
X113815361Y-103115256D01*
X113760558Y-103247562D01*
X113732620Y-103388017D01*
X113732620Y-103531223D01*
X113760558Y-103671678D01*
X113800622Y-103768400D01*
X113722743Y-103800658D01*
X113575009Y-103899371D01*
X113449371Y-104025009D01*
X113350658Y-104172743D01*
X113282664Y-104336896D01*
X113248000Y-104511161D01*
X112836739Y-104511161D01*
X112812058Y-104500938D01*
X112671603Y-104473000D01*
X112528397Y-104473000D01*
X112387942Y-104500938D01*
X112255636Y-104555741D01*
X112136564Y-104635302D01*
X112035302Y-104736564D01*
X111955741Y-104855636D01*
X111900938Y-104987942D01*
X111873000Y-105128397D01*
X109381762Y-105128397D01*
X109449342Y-105027257D01*
X109517336Y-104863104D01*
X109552000Y-104688839D01*
X109552000Y-104511161D01*
X109517336Y-104336896D01*
X109449342Y-104172743D01*
X109350629Y-104025009D01*
X109224991Y-103899371D01*
X109077257Y-103800658D01*
X108913104Y-103732664D01*
X108738839Y-103698000D01*
X108561161Y-103698000D01*
X108386896Y-103732664D01*
X108222743Y-103800658D01*
X108075009Y-103899371D01*
X107949371Y-104025009D01*
X107927000Y-104058489D01*
X107927000Y-104038397D01*
X107899062Y-103897942D01*
X107844259Y-103765636D01*
X107764698Y-103646564D01*
X107663436Y-103545302D01*
X107544364Y-103465741D01*
X107412058Y-103410938D01*
X107271603Y-103383000D01*
X107128397Y-103383000D01*
X106987942Y-103410938D01*
X106855636Y-103465741D01*
X106736564Y-103545302D01*
X106635302Y-103646564D01*
X106555741Y-103765636D01*
X106500938Y-103897942D01*
X106473000Y-104038397D01*
X105777647Y-104038397D01*
X105766250Y-104027000D01*
X104567000Y-104027000D01*
X104313000Y-104027000D01*
X104293000Y-104027000D01*
X104293000Y-103773000D01*
X104313000Y-103773000D01*
X104313000Y-103753000D01*
X104567000Y-103753000D01*
X104567000Y-103773000D01*
X105766250Y-103773000D01*
X105925000Y-103614250D01*
X105928072Y-103050000D01*
X105915812Y-102925518D01*
X105879502Y-102805820D01*
X105820537Y-102695506D01*
X105741185Y-102598815D01*
X105684141Y-102552000D01*
X120190283Y-102552000D01*
X120121590Y-102620693D01*
X119430000Y-102620693D01*
X119336492Y-102629903D01*
X119246577Y-102657178D01*
X119163711Y-102701471D01*
X119123365Y-102734583D01*
X119122783Y-102734194D01*
X118944980Y-102660546D01*
X118756226Y-102623000D01*
X118563774Y-102623000D01*
X118375020Y-102660546D01*
X118197217Y-102734194D01*
X118037199Y-102841115D01*
X118025000Y-102853314D01*
X118012801Y-102841115D01*
X117852783Y-102734194D01*
X117674980Y-102660546D01*
X117486226Y-102623000D01*
X117293774Y-102623000D01*
X117105020Y-102660546D01*
X116927217Y-102734194D01*
X116767199Y-102841115D01*
X116631115Y-102977199D01*
X116524194Y-103137217D01*
X116450546Y-103315020D01*
X116413000Y-103503774D01*
X116413000Y-103696226D01*
X116450546Y-103884980D01*
X116524194Y-104062783D01*
X116631115Y-104222801D01*
X116767199Y-104358885D01*
X116927217Y-104465806D01*
X117105020Y-104539454D01*
X117293774Y-104577000D01*
X117423820Y-104577000D01*
X117336564Y-104635302D01*
X117235302Y-104736564D01*
X117155741Y-104855636D01*
X117100938Y-104987942D01*
X117073000Y-105128397D01*
X117073000Y-105214988D01*
X117061836Y-105212767D01*
X116918630Y-105212767D01*
X116778175Y-105240705D01*
X116645869Y-105295508D01*
X116526797Y-105375069D01*
X116425535Y-105476331D01*
X116345974Y-105595403D01*
X116291171Y-105727709D01*
X116263233Y-105868164D01*
X116263233Y-106011370D01*
X116291171Y-106151825D01*
X116345974Y-106284131D01*
X116425535Y-106403203D01*
X116526797Y-106504465D01*
X116645869Y-106584026D01*
X116778175Y-106638829D01*
X116918630Y-106666767D01*
X117061836Y-106666767D01*
X117202291Y-106638829D01*
X117334597Y-106584026D01*
X117453669Y-106504465D01*
X117554931Y-106403203D01*
X117634492Y-106284131D01*
X117689295Y-106151825D01*
X117717233Y-106011370D01*
X117717233Y-105924779D01*
X117728397Y-105927000D01*
X117871603Y-105927000D01*
X118012058Y-105899062D01*
X118144364Y-105844259D01*
X118263436Y-105764698D01*
X118364698Y-105663436D01*
X118444259Y-105544364D01*
X118499062Y-105412058D01*
X118527000Y-105271603D01*
X118527000Y-105128397D01*
X118499062Y-104987942D01*
X118444259Y-104855636D01*
X118364698Y-104736564D01*
X118263436Y-104635302D01*
X118144364Y-104555741D01*
X118012058Y-104500938D01*
X117871603Y-104473000D01*
X117835415Y-104473000D01*
X117852783Y-104465806D01*
X118012801Y-104358885D01*
X118025000Y-104346686D01*
X118037199Y-104358885D01*
X118197217Y-104465806D01*
X118375020Y-104539454D01*
X118563774Y-104577000D01*
X118756226Y-104577000D01*
X118944980Y-104539454D01*
X119122783Y-104465806D01*
X119123365Y-104465417D01*
X119163711Y-104498529D01*
X119246577Y-104542822D01*
X119336492Y-104570097D01*
X119430000Y-104579307D01*
X120430000Y-104579307D01*
X120523508Y-104570097D01*
X120613423Y-104542822D01*
X120696289Y-104498529D01*
X120713036Y-104484785D01*
X120845020Y-104539454D01*
X121033774Y-104577000D01*
X121226226Y-104577000D01*
X121414980Y-104539454D01*
X121592783Y-104465806D01*
X121752801Y-104358885D01*
X121765000Y-104346686D01*
X121777199Y-104358885D01*
X121937217Y-104465806D01*
X122115020Y-104539454D01*
X122303774Y-104577000D01*
X122496226Y-104577000D01*
X122684980Y-104539454D01*
X122862783Y-104465806D01*
X123022801Y-104358885D01*
X123035000Y-104346686D01*
X123047199Y-104358885D01*
X123120209Y-104407669D01*
X123121059Y-104416297D01*
X123149837Y-104511161D01*
X123152910Y-104521292D01*
X123204631Y-104618056D01*
X123256793Y-104681615D01*
X123274237Y-104702870D01*
X123295489Y-104720311D01*
X123494684Y-104919506D01*
X123512130Y-104940764D01*
X123596944Y-105010369D01*
X123693708Y-105062091D01*
X123798703Y-105093941D01*
X123880530Y-105102000D01*
X123880540Y-105102000D01*
X123907894Y-105104694D01*
X123935247Y-105102000D01*
X124382547Y-105102000D01*
X124366754Y-105125636D01*
X124311951Y-105257942D01*
X124284013Y-105398397D01*
X124284013Y-105541603D01*
X124311951Y-105682058D01*
X124366754Y-105814364D01*
X124446315Y-105933436D01*
X124547577Y-106034698D01*
X124666649Y-106114259D01*
X124798955Y-106169062D01*
X124935328Y-106196188D01*
X124911431Y-106231952D01*
X124852859Y-106373357D01*
X124829111Y-106492749D01*
X124787942Y-106500938D01*
X124655636Y-106555741D01*
X124536564Y-106635302D01*
X124526121Y-106645745D01*
X124472162Y-106651059D01*
X124367167Y-106682909D01*
X124336474Y-106699315D01*
X124270402Y-106734631D01*
X124233766Y-106764698D01*
X124185589Y-106804236D01*
X124168148Y-106825488D01*
X121829532Y-109164105D01*
X121736825Y-109125705D01*
X121596370Y-109097767D01*
X121453164Y-109097767D01*
X121312709Y-109125705D01*
X121180403Y-109180508D01*
X121061331Y-109260069D01*
X120960069Y-109361331D01*
X120880508Y-109480403D01*
X120825705Y-109612709D01*
X120797767Y-109753164D01*
X120797767Y-109896370D01*
X120825705Y-110036825D01*
X120880508Y-110169131D01*
X120960069Y-110288203D01*
X121061331Y-110389465D01*
X121180403Y-110469026D01*
X121312709Y-110523829D01*
X121453164Y-110551767D01*
X121596370Y-110551767D01*
X121736825Y-110523829D01*
X121869131Y-110469026D01*
X121988203Y-110389465D01*
X121997207Y-110380461D01*
X122065777Y-110373708D01*
X122170772Y-110341858D01*
X122267536Y-110290136D01*
X122352350Y-110220531D01*
X122369796Y-110199273D01*
X123397672Y-109171397D01*
X124749000Y-109171397D01*
X124749000Y-109314603D01*
X124776938Y-109455058D01*
X124831741Y-109587364D01*
X124911302Y-109706436D01*
X125012564Y-109807698D01*
X125131636Y-109887259D01*
X125263942Y-109942062D01*
X125404397Y-109970000D01*
X125547603Y-109970000D01*
X125688058Y-109942062D01*
X125820364Y-109887259D01*
X125939436Y-109807698D01*
X126040698Y-109706436D01*
X126120259Y-109587364D01*
X126175062Y-109455058D01*
X126203000Y-109314603D01*
X126203000Y-109171397D01*
X126175062Y-109030942D01*
X126120259Y-108898636D01*
X126040698Y-108779564D01*
X125939436Y-108678302D01*
X125820364Y-108598741D01*
X125688058Y-108543938D01*
X125547603Y-108516000D01*
X125404397Y-108516000D01*
X125263942Y-108543938D01*
X125131636Y-108598741D01*
X125012564Y-108678302D01*
X124911302Y-108779564D01*
X124831741Y-108898636D01*
X124776938Y-109030942D01*
X124749000Y-109171397D01*
X123397672Y-109171397D01*
X124277419Y-108291651D01*
X124318877Y-108353698D01*
X124420139Y-108454960D01*
X124539211Y-108534521D01*
X124671517Y-108589324D01*
X124811972Y-108617262D01*
X124955178Y-108617262D01*
X125095633Y-108589324D01*
X125227939Y-108534521D01*
X125347011Y-108454960D01*
X125354709Y-108447262D01*
X128199163Y-108447262D01*
X128226516Y-108449956D01*
X128253869Y-108447262D01*
X128253880Y-108447262D01*
X128335707Y-108439203D01*
X128440702Y-108407353D01*
X128537466Y-108355631D01*
X128622280Y-108286026D01*
X128639726Y-108264768D01*
X131054515Y-105849980D01*
X131075767Y-105832539D01*
X131105948Y-105795764D01*
X131116878Y-105782445D01*
X131143439Y-105764698D01*
X131244701Y-105663436D01*
X131267459Y-105629376D01*
X132298702Y-106660620D01*
X132316143Y-106681872D01*
X132337395Y-106699313D01*
X132337397Y-106699315D01*
X132400956Y-106751477D01*
X132425691Y-106764698D01*
X132497721Y-106803199D01*
X132602716Y-106835049D01*
X132684543Y-106843108D01*
X132684553Y-106843108D01*
X132711906Y-106845802D01*
X132739260Y-106843108D01*
X133028855Y-106843108D01*
X133036553Y-106850806D01*
X133155625Y-106930367D01*
X133287931Y-106985170D01*
X133428386Y-107013108D01*
X133571592Y-107013108D01*
X133712047Y-106985170D01*
X133844353Y-106930367D01*
X133963425Y-106850806D01*
X134064687Y-106749544D01*
X134144248Y-106630472D01*
X134199051Y-106498166D01*
X134226989Y-106357711D01*
X134226989Y-106214505D01*
X134201652Y-106087125D01*
X134233388Y-106073979D01*
X134352460Y-105994418D01*
X134453722Y-105893156D01*
X134533283Y-105774084D01*
X134588086Y-105641778D01*
X134616024Y-105501323D01*
X134616024Y-105358117D01*
X134588086Y-105217662D01*
X134579409Y-105196715D01*
X134656492Y-105220097D01*
X134750000Y-105229307D01*
X136450000Y-105229307D01*
X136543508Y-105220097D01*
X136633423Y-105192822D01*
X136716289Y-105148529D01*
X136788921Y-105088921D01*
X136848529Y-105016289D01*
X136892822Y-104933423D01*
X136920097Y-104843508D01*
X136929307Y-104750000D01*
X136929307Y-104444746D01*
X136964028Y-104528570D01*
X137109252Y-104745913D01*
X137294087Y-104930748D01*
X137511430Y-105075972D01*
X137752928Y-105176004D01*
X138009302Y-105227000D01*
X138270698Y-105227000D01*
X138527072Y-105176004D01*
X138768570Y-105075972D01*
X138985913Y-104930748D01*
X139170748Y-104745913D01*
X139315972Y-104528570D01*
X139416004Y-104287072D01*
X139448001Y-104126213D01*
X139448001Y-107309416D01*
X139411641Y-107233080D01*
X139237588Y-106999731D01*
X139021355Y-106804822D01*
X138771252Y-106655843D01*
X138496891Y-106558519D01*
X138267000Y-106679186D01*
X138267000Y-107873000D01*
X138287000Y-107873000D01*
X138287000Y-108127000D01*
X138267000Y-108127000D01*
X138267000Y-108147000D01*
X138013000Y-108147000D01*
X138013000Y-108127000D01*
X135727000Y-108127000D01*
X135727000Y-108147000D01*
X135473000Y-108147000D01*
X135473000Y-108127000D01*
X135453000Y-108127000D01*
X135453000Y-107873000D01*
X135473000Y-107873000D01*
X135473000Y-106673750D01*
X135727000Y-106673750D01*
X135727000Y-107873000D01*
X138013000Y-107873000D01*
X138013000Y-106679186D01*
X137783109Y-106558519D01*
X137526994Y-106649371D01*
X137526994Y-106528397D01*
X137499056Y-106387942D01*
X137444253Y-106255636D01*
X137364692Y-106136564D01*
X137263430Y-106035302D01*
X137144358Y-105955741D01*
X137012052Y-105900938D01*
X136871597Y-105873000D01*
X136728391Y-105873000D01*
X136587936Y-105900938D01*
X136455630Y-105955741D01*
X136336558Y-106035302D01*
X136235296Y-106136564D01*
X136155735Y-106255636D01*
X136100932Y-106387942D01*
X136075865Y-106513965D01*
X135885750Y-106515000D01*
X135727000Y-106673750D01*
X135473000Y-106673750D01*
X135314250Y-106515000D01*
X134750000Y-106511928D01*
X134625518Y-106524188D01*
X134505820Y-106560498D01*
X134395506Y-106619463D01*
X134298815Y-106698815D01*
X134219463Y-106795506D01*
X134160498Y-106905820D01*
X134124188Y-107025518D01*
X134111928Y-107150000D01*
X134114586Y-107638295D01*
X134114325Y-107638034D01*
X133987064Y-107553001D01*
X133845659Y-107494429D01*
X133695544Y-107464570D01*
X133542488Y-107464570D01*
X133392373Y-107494429D01*
X133250968Y-107553001D01*
X133123707Y-107638034D01*
X133015480Y-107746261D01*
X132930447Y-107873522D01*
X132871875Y-108014927D01*
X132842016Y-108165042D01*
X132842016Y-108318098D01*
X132871875Y-108468213D01*
X132930447Y-108609618D01*
X133015480Y-108736879D01*
X133123707Y-108845106D01*
X133250968Y-108930139D01*
X133392373Y-108988711D01*
X133542488Y-109018570D01*
X133695544Y-109018570D01*
X133845659Y-108988711D01*
X133987064Y-108930139D01*
X134111946Y-108846696D01*
X134111928Y-108850000D01*
X134124188Y-108974482D01*
X134160498Y-109094180D01*
X134219463Y-109204494D01*
X134298815Y-109301185D01*
X134395506Y-109380537D01*
X134505820Y-109439502D01*
X134625518Y-109475812D01*
X134750000Y-109488072D01*
X134786079Y-109487876D01*
X134754087Y-109509252D01*
X134569252Y-109694087D01*
X134424028Y-109911430D01*
X134327000Y-110145676D01*
X134327000Y-110141397D01*
X134299062Y-110000942D01*
X134244259Y-109868636D01*
X134164698Y-109749564D01*
X134063436Y-109648302D01*
X133944364Y-109568741D01*
X133812058Y-109513938D01*
X133671603Y-109486000D01*
X133528397Y-109486000D01*
X133387942Y-109513938D01*
X133255636Y-109568741D01*
X133192391Y-109611000D01*
X126616547Y-109611000D01*
X126586990Y-109608089D01*
X126557434Y-109611000D01*
X126557425Y-109611000D01*
X126468979Y-109619711D01*
X126355501Y-109654134D01*
X126250920Y-109710034D01*
X126250918Y-109710035D01*
X126250919Y-109710035D01*
X126182218Y-109766416D01*
X126182214Y-109766420D01*
X126159254Y-109785263D01*
X126140411Y-109808223D01*
X125187767Y-110760868D01*
X125113163Y-110775708D01*
X124980857Y-110830511D01*
X124861785Y-110910072D01*
X124760523Y-111011334D01*
X124680962Y-111130406D01*
X124626159Y-111262712D01*
X124598221Y-111403167D01*
X124598221Y-111546373D01*
X124626159Y-111686828D01*
X124680962Y-111819134D01*
X124760523Y-111938206D01*
X124802345Y-111980028D01*
X124667072Y-111923996D01*
X124410698Y-111873000D01*
X124149302Y-111873000D01*
X123892928Y-111923996D01*
X123651430Y-112024028D01*
X123434087Y-112169252D01*
X123249252Y-112354087D01*
X123104028Y-112571430D01*
X123003996Y-112812928D01*
X122953000Y-113069302D01*
X122953000Y-113330698D01*
X123003996Y-113587072D01*
X123104028Y-113828570D01*
X123249252Y-114045913D01*
X123434087Y-114230748D01*
X123651430Y-114375972D01*
X123825321Y-114448000D01*
X114509422Y-114448000D01*
X114588718Y-114368704D01*
X114609143Y-114364641D01*
X114750548Y-114306069D01*
X114877809Y-114221036D01*
X114986036Y-114112809D01*
X115071069Y-113985548D01*
X115129641Y-113844143D01*
X115159500Y-113694028D01*
X115159500Y-113540972D01*
X115129641Y-113390857D01*
X115071069Y-113249452D01*
X114986036Y-113122191D01*
X114877809Y-113013964D01*
X114750548Y-112928931D01*
X114609143Y-112870359D01*
X114459028Y-112840500D01*
X114305972Y-112840500D01*
X114155857Y-112870359D01*
X114014452Y-112928931D01*
X113887191Y-113013964D01*
X113778964Y-113122191D01*
X113693931Y-113249452D01*
X113635359Y-113390857D01*
X113631296Y-113411282D01*
X113269577Y-113773001D01*
X113127000Y-113773001D01*
X113127000Y-113728398D01*
X113099062Y-113587943D01*
X113044259Y-113455637D01*
X112964698Y-113336565D01*
X112863436Y-113235303D01*
X112744364Y-113155742D01*
X112664892Y-113122824D01*
X113087716Y-112700000D01*
X116420693Y-112700000D01*
X116420693Y-113700000D01*
X116429903Y-113793508D01*
X116457178Y-113883423D01*
X116501471Y-113966289D01*
X116561079Y-114038921D01*
X116633711Y-114098529D01*
X116716577Y-114142822D01*
X116806492Y-114170097D01*
X116900000Y-114179307D01*
X117900000Y-114179307D01*
X117993508Y-114170097D01*
X118083423Y-114142822D01*
X118166289Y-114098529D01*
X118206635Y-114065417D01*
X118207217Y-114065806D01*
X118385020Y-114139454D01*
X118573774Y-114177000D01*
X118766226Y-114177000D01*
X118954980Y-114139454D01*
X119132783Y-114065806D01*
X119176690Y-114036468D01*
X119197980Y-114058865D01*
X119379794Y-114187123D01*
X119583136Y-114277446D01*
X119638126Y-114294119D01*
X119813000Y-114167954D01*
X119813000Y-113327000D01*
X119793000Y-113327000D01*
X119793000Y-113073000D01*
X119813000Y-113073000D01*
X119813000Y-112232046D01*
X120067000Y-112232046D01*
X120067000Y-113073000D01*
X120087000Y-113073000D01*
X120087000Y-113327000D01*
X120067000Y-113327000D01*
X120067000Y-114167954D01*
X120241874Y-114294119D01*
X120296864Y-114277446D01*
X120500206Y-114187123D01*
X120682020Y-114058865D01*
X120703310Y-114036468D01*
X120747217Y-114065806D01*
X120925020Y-114139454D01*
X121113774Y-114177000D01*
X121306226Y-114177000D01*
X121494980Y-114139454D01*
X121672783Y-114065806D01*
X121832801Y-113958885D01*
X121968885Y-113822801D01*
X122075806Y-113662783D01*
X122149454Y-113484980D01*
X122187000Y-113296226D01*
X122187000Y-113103774D01*
X122149454Y-112915020D01*
X122075806Y-112737217D01*
X121968885Y-112577199D01*
X121832801Y-112441115D01*
X121672783Y-112334194D01*
X121494980Y-112260546D01*
X121306226Y-112223000D01*
X121113774Y-112223000D01*
X120925020Y-112260546D01*
X120747217Y-112334194D01*
X120703310Y-112363532D01*
X120682020Y-112341135D01*
X120500206Y-112212877D01*
X120296864Y-112122554D01*
X120241874Y-112105881D01*
X120067000Y-112232046D01*
X119813000Y-112232046D01*
X119638126Y-112105881D01*
X119583136Y-112122554D01*
X119379794Y-112212877D01*
X119197980Y-112341135D01*
X119176690Y-112363532D01*
X119132783Y-112334194D01*
X118954980Y-112260546D01*
X118766226Y-112223000D01*
X118573774Y-112223000D01*
X118385020Y-112260546D01*
X118207217Y-112334194D01*
X118206635Y-112334583D01*
X118166289Y-112301471D01*
X118083423Y-112257178D01*
X117993508Y-112229903D01*
X117900000Y-112220693D01*
X116900000Y-112220693D01*
X116806492Y-112229903D01*
X116716577Y-112257178D01*
X116633711Y-112301471D01*
X116561079Y-112361079D01*
X116501471Y-112433711D01*
X116457178Y-112516577D01*
X116429903Y-112606492D01*
X116420693Y-112700000D01*
X113087716Y-112700000D01*
X115460717Y-110327000D01*
X115471603Y-110327000D01*
X115612058Y-110299062D01*
X115744364Y-110244259D01*
X115863436Y-110164698D01*
X115964698Y-110063436D01*
X116044259Y-109944364D01*
X116099062Y-109812058D01*
X116127000Y-109671603D01*
X116127000Y-109528397D01*
X116099062Y-109387942D01*
X116044259Y-109255636D01*
X115964698Y-109136564D01*
X115863436Y-109035302D01*
X115744364Y-108955741D01*
X115612058Y-108900938D01*
X115471603Y-108873000D01*
X115328397Y-108873000D01*
X115187942Y-108900938D01*
X115055636Y-108955741D01*
X114936564Y-109035302D01*
X114835302Y-109136564D01*
X114800000Y-109189397D01*
X114764698Y-109136564D01*
X114663436Y-109035302D01*
X114544364Y-108955741D01*
X114412058Y-108900938D01*
X114271603Y-108873000D01*
X114128397Y-108873000D01*
X113987942Y-108900938D01*
X113855636Y-108955741D01*
X113736564Y-109035302D01*
X113728866Y-109043000D01*
X111230717Y-109043000D01*
X109927000Y-107739284D01*
X109927000Y-107728397D01*
X109899062Y-107587942D01*
X109844259Y-107455636D01*
X109764698Y-107336564D01*
X109663436Y-107235302D01*
X109544364Y-107155741D01*
X109412058Y-107100938D01*
X109341275Y-107086859D01*
X109364698Y-107063436D01*
X109444259Y-106944364D01*
X109499062Y-106812058D01*
X109527000Y-106671603D01*
X109527000Y-106528397D01*
X109499062Y-106387942D01*
X109444259Y-106255636D01*
X109364698Y-106136564D01*
X109356531Y-106128397D01*
X113873000Y-106128397D01*
X113873000Y-106271603D01*
X113900938Y-106412058D01*
X113955741Y-106544364D01*
X114035302Y-106663436D01*
X114136564Y-106764698D01*
X114255636Y-106844259D01*
X114387942Y-106899062D01*
X114528397Y-106927000D01*
X114671603Y-106927000D01*
X114812058Y-106899062D01*
X114944364Y-106844259D01*
X115063436Y-106764698D01*
X115164698Y-106663436D01*
X115244259Y-106544364D01*
X115299062Y-106412058D01*
X115327000Y-106271603D01*
X115327000Y-106128397D01*
X115299062Y-105987942D01*
X115244259Y-105855636D01*
X115164698Y-105736564D01*
X115063436Y-105635302D01*
X114944364Y-105555741D01*
X114812058Y-105500938D01*
X114671603Y-105473000D01*
X114528397Y-105473000D01*
X114387942Y-105500938D01*
X114255636Y-105555741D01*
X114136564Y-105635302D01*
X114035302Y-105736564D01*
X113955741Y-105855636D01*
X113900938Y-105987942D01*
X113873000Y-106128397D01*
X109356531Y-106128397D01*
X109263436Y-106035302D01*
X109144364Y-105955741D01*
X109012058Y-105900938D01*
X108871603Y-105873000D01*
X108728397Y-105873000D01*
X108587942Y-105900938D01*
X108455636Y-105955741D01*
X108336564Y-106035302D01*
X108235302Y-106136564D01*
X108155741Y-106255636D01*
X108100938Y-106387942D01*
X108073000Y-106528397D01*
X108073000Y-106671603D01*
X108100938Y-106812058D01*
X108155741Y-106944364D01*
X108235302Y-107063436D01*
X108336564Y-107164698D01*
X108455636Y-107244259D01*
X108587942Y-107299062D01*
X108658725Y-107313141D01*
X108635302Y-107336564D01*
X108555741Y-107455636D01*
X108500938Y-107587942D01*
X108473000Y-107728397D01*
X108473000Y-107871603D01*
X108500938Y-108012058D01*
X108555741Y-108144364D01*
X108635302Y-108263436D01*
X108736564Y-108364698D01*
X108855636Y-108444259D01*
X108987942Y-108499062D01*
X109128397Y-108527000D01*
X109139284Y-108527000D01*
X110586793Y-109974510D01*
X110604236Y-109995764D01*
X110625488Y-110013205D01*
X110625490Y-110013207D01*
X110689049Y-110065369D01*
X110740771Y-110093015D01*
X110785814Y-110117091D01*
X110890809Y-110148941D01*
X110972636Y-110157000D01*
X110972645Y-110157000D01*
X110999999Y-110159694D01*
X111027353Y-110157000D01*
X111665449Y-110157000D01*
X111647562Y-110160558D01*
X111515256Y-110215361D01*
X111396184Y-110294922D01*
X111294922Y-110396184D01*
X111215361Y-110515256D01*
X111160558Y-110647562D01*
X111132620Y-110788017D01*
X111132620Y-110931223D01*
X111160558Y-111071678D01*
X111215361Y-111203984D01*
X111294922Y-111323056D01*
X111396184Y-111424318D01*
X111515256Y-111503879D01*
X111647562Y-111558682D01*
X111788017Y-111586620D01*
X111931223Y-111586620D01*
X112071678Y-111558682D01*
X112203984Y-111503879D01*
X112323056Y-111424318D01*
X112424318Y-111323056D01*
X112503879Y-111203984D01*
X112558682Y-111071678D01*
X112586620Y-110931223D01*
X112586620Y-110788017D01*
X112558682Y-110647562D01*
X112503879Y-110515256D01*
X112424318Y-110396184D01*
X112323056Y-110294922D01*
X112203984Y-110215361D01*
X112071678Y-110160558D01*
X112053791Y-110157000D01*
X113728866Y-110157000D01*
X113736564Y-110164698D01*
X113855636Y-110244259D01*
X113935106Y-110277177D01*
X111082265Y-113130019D01*
X111012058Y-113100938D01*
X110871603Y-113073000D01*
X110728397Y-113073000D01*
X110587942Y-113100938D01*
X110455636Y-113155741D01*
X110336564Y-113235302D01*
X110282702Y-113289164D01*
X110215939Y-113234372D01*
X110098328Y-113171508D01*
X109970713Y-113132796D01*
X109871250Y-113123000D01*
X109871243Y-113123000D01*
X109837998Y-113119726D01*
X109804753Y-113123000D01*
X105585362Y-113123000D01*
X105568048Y-113111431D01*
X105426643Y-113052859D01*
X105276528Y-113023000D01*
X105123472Y-113023000D01*
X104973357Y-113052859D01*
X104831952Y-113111431D01*
X104704691Y-113196464D01*
X104641954Y-113259201D01*
X104626643Y-113252859D01*
X104476528Y-113223000D01*
X104323472Y-113223000D01*
X104302000Y-113227271D01*
X104302000Y-112799550D01*
X104287140Y-112648674D01*
X104228415Y-112455083D01*
X104204292Y-112409952D01*
X104255636Y-112444259D01*
X104387942Y-112499062D01*
X104528397Y-112527000D01*
X104671603Y-112527000D01*
X104812058Y-112499062D01*
X104944364Y-112444259D01*
X105063436Y-112364698D01*
X105164698Y-112263436D01*
X105244259Y-112144364D01*
X105299062Y-112012058D01*
X105327000Y-111871603D01*
X105327000Y-111728397D01*
X105299062Y-111587942D01*
X105244259Y-111455636D01*
X105164698Y-111336564D01*
X105063436Y-111235302D01*
X104944364Y-111155741D01*
X104812058Y-111100938D01*
X104671603Y-111073000D01*
X104528397Y-111073000D01*
X104387942Y-111100938D01*
X104255636Y-111155741D01*
X104136564Y-111235302D01*
X104035302Y-111336564D01*
X103955741Y-111455636D01*
X103900938Y-111587942D01*
X103873000Y-111728397D01*
X103873000Y-111871603D01*
X103900938Y-112012058D01*
X103915412Y-112047001D01*
X103848331Y-111991949D01*
X103669917Y-111896585D01*
X103476327Y-111837860D01*
X103275000Y-111818031D01*
X103073674Y-111837860D01*
X102880084Y-111896585D01*
X102701670Y-111991949D01*
X102545289Y-112120288D01*
X102416950Y-112276669D01*
X102321586Y-112455083D01*
X102262860Y-112648673D01*
X102248000Y-112799549D01*
X102248000Y-113600450D01*
X102262860Y-113751326D01*
X102321585Y-113944916D01*
X102416949Y-114123331D01*
X102545288Y-114279712D01*
X102701669Y-114408051D01*
X102776409Y-114448000D01*
X101027001Y-114448000D01*
X100913497Y-114436871D01*
X100830290Y-114411750D01*
X100753544Y-114370943D01*
X100686189Y-114316010D01*
X100630784Y-114249036D01*
X100589447Y-114172584D01*
X100563744Y-114089550D01*
X100552000Y-113977822D01*
X100552000Y-111808228D01*
X100730083Y-111903415D01*
X100923673Y-111962140D01*
X101125000Y-111981969D01*
X101326326Y-111962140D01*
X101519916Y-111903415D01*
X101698331Y-111808051D01*
X101854712Y-111679712D01*
X101983051Y-111523331D01*
X102078415Y-111344917D01*
X102137140Y-111151327D01*
X102152000Y-111000451D01*
X102152000Y-109799549D01*
X102137140Y-109648673D01*
X102078415Y-109455083D01*
X101983051Y-109276669D01*
X101854712Y-109120288D01*
X101698331Y-108991949D01*
X101519917Y-108896585D01*
X101326327Y-108837860D01*
X101125000Y-108818031D01*
X100923674Y-108837860D01*
X100730084Y-108896585D01*
X100552000Y-108991773D01*
X100552000Y-107199549D01*
X102248000Y-107199549D01*
X102248000Y-108000450D01*
X102262860Y-108151326D01*
X102321585Y-108344916D01*
X102416949Y-108523331D01*
X102545288Y-108679712D01*
X102701669Y-108808051D01*
X102880083Y-108903415D01*
X103073673Y-108962140D01*
X103275000Y-108981969D01*
X103476326Y-108962140D01*
X103624233Y-108917273D01*
X103623000Y-108923472D01*
X103623000Y-109076528D01*
X103652859Y-109226643D01*
X103711431Y-109368048D01*
X103796464Y-109495309D01*
X103904691Y-109603536D01*
X103984250Y-109656695D01*
X103925636Y-109680974D01*
X103806564Y-109760535D01*
X103705302Y-109861797D01*
X103625741Y-109980869D01*
X103570938Y-110113175D01*
X103543000Y-110253630D01*
X103543000Y-110396836D01*
X103570938Y-110537291D01*
X103625741Y-110669597D01*
X103705302Y-110788669D01*
X103806564Y-110889931D01*
X103925636Y-110969492D01*
X104057942Y-111024295D01*
X104198397Y-111052233D01*
X104341603Y-111052233D01*
X104482058Y-111024295D01*
X104614364Y-110969492D01*
X104733436Y-110889931D01*
X104834698Y-110788669D01*
X104914259Y-110669597D01*
X104969062Y-110537291D01*
X104997000Y-110396836D01*
X104997000Y-110253630D01*
X104969062Y-110113175D01*
X104914259Y-109980869D01*
X104834698Y-109861797D01*
X104733436Y-109760535D01*
X104680193Y-109724960D01*
X104768048Y-109688569D01*
X104895309Y-109603536D01*
X105003536Y-109495309D01*
X105088569Y-109368048D01*
X105147141Y-109226643D01*
X105177000Y-109076528D01*
X105177000Y-108923472D01*
X105147141Y-108773357D01*
X105088569Y-108631952D01*
X105003536Y-108504691D01*
X104895309Y-108396464D01*
X104768048Y-108311431D01*
X104626643Y-108252859D01*
X104476528Y-108223000D01*
X104323472Y-108223000D01*
X104261669Y-108235293D01*
X104287140Y-108151327D01*
X104302000Y-108000451D01*
X104302000Y-107199550D01*
X104287140Y-107048674D01*
X104228415Y-106855083D01*
X104133051Y-106676669D01*
X104004712Y-106520288D01*
X103848331Y-106391949D01*
X103669917Y-106296585D01*
X103476327Y-106237860D01*
X103275000Y-106218031D01*
X103073674Y-106237860D01*
X102880084Y-106296585D01*
X102701670Y-106391949D01*
X102545289Y-106520288D01*
X102416950Y-106676669D01*
X102321586Y-106855083D01*
X102262860Y-107048673D01*
X102248000Y-107199549D01*
X100552000Y-107199549D01*
X100552000Y-103026993D01*
X100563128Y-102913498D01*
X100588252Y-102830288D01*
X100629058Y-102753543D01*
X100683988Y-102686192D01*
X100750964Y-102630784D01*
X100827417Y-102589446D01*
X100910450Y-102563743D01*
X101022178Y-102552000D01*
X103195859Y-102552000D01*
X103138815Y-102598815D01*
G37*
G04 #@! TD.AperFunction*
D22*
X134273000Y-110670698D02*
X134323996Y-110927072D01*
X134424028Y-111168570D01*
X134569252Y-111385913D01*
X134754087Y-111570748D01*
X134971430Y-111715972D01*
X135198433Y-111810000D01*
X134971430Y-111904028D01*
X134754087Y-112049252D01*
X134569252Y-112234087D01*
X134424028Y-112451430D01*
X134323996Y-112692928D01*
X134273000Y-112949302D01*
X134273000Y-113210698D01*
X134323996Y-113467072D01*
X134424028Y-113708570D01*
X134569252Y-113925913D01*
X134754087Y-114110748D01*
X134971430Y-114255972D01*
X135212928Y-114356004D01*
X135469302Y-114407000D01*
X135730698Y-114407000D01*
X135987072Y-114356004D01*
X136228570Y-114255972D01*
X136445913Y-114110748D01*
X136630748Y-113925913D01*
X136775972Y-113708570D01*
X136870000Y-113481567D01*
X136964028Y-113708570D01*
X137109252Y-113925913D01*
X137294087Y-114110748D01*
X137511430Y-114255972D01*
X137752928Y-114356004D01*
X138009302Y-114407000D01*
X138270698Y-114407000D01*
X138527072Y-114356004D01*
X138768570Y-114255972D01*
X138985913Y-114110748D01*
X139170748Y-113925913D01*
X139315972Y-113708570D01*
X139416004Y-113467072D01*
X139448000Y-113306217D01*
X139448000Y-113972999D01*
X139436871Y-114086503D01*
X139411750Y-114169710D01*
X139370943Y-114246456D01*
X139316010Y-114313811D01*
X139249036Y-114369216D01*
X139172584Y-114410553D01*
X139089550Y-114436256D01*
X138977822Y-114448000D01*
X133244833Y-114448000D01*
X133280537Y-114404494D01*
X133339502Y-114294180D01*
X133375812Y-114174482D01*
X133388072Y-114050000D01*
X133385000Y-113485750D01*
X133226250Y-113327000D01*
X132027000Y-113327000D01*
X132027000Y-113347000D01*
X131773000Y-113347000D01*
X131773000Y-113327000D01*
X131753000Y-113327000D01*
X131753000Y-113073000D01*
X131773000Y-113073000D01*
X131773000Y-111873750D01*
X131741711Y-111842461D01*
X131763152Y-111790698D01*
X131791090Y-111650243D01*
X131791090Y-111507037D01*
X131763152Y-111366582D01*
X131708349Y-111234276D01*
X131628788Y-111115204D01*
X131527526Y-111013942D01*
X131408454Y-110934381D01*
X131276148Y-110879578D01*
X131135693Y-110851640D01*
X130992487Y-110851640D01*
X130852032Y-110879578D01*
X130719726Y-110934381D01*
X130600654Y-111013942D01*
X130592956Y-111021640D01*
X129733115Y-111021640D01*
X129720729Y-111020420D01*
X129664698Y-110936564D01*
X129563436Y-110835302D01*
X129533052Y-110815000D01*
X132359667Y-110815000D01*
X132285743Y-110925636D01*
X132230940Y-111057942D01*
X132203002Y-111198397D01*
X132203002Y-111341603D01*
X132230940Y-111482058D01*
X132285743Y-111614364D01*
X132352379Y-111714093D01*
X132185750Y-111715000D01*
X132027000Y-111873750D01*
X132027000Y-113073000D01*
X133226250Y-113073000D01*
X133385000Y-112914250D01*
X133387806Y-112398936D01*
X133455636Y-112444259D01*
X133587942Y-112499062D01*
X133728397Y-112527000D01*
X133871603Y-112527000D01*
X134012058Y-112499062D01*
X134144364Y-112444259D01*
X134263436Y-112364698D01*
X134364698Y-112263436D01*
X134444259Y-112144364D01*
X134499062Y-112012058D01*
X134527000Y-111871603D01*
X134527000Y-111728397D01*
X134499062Y-111587942D01*
X134444259Y-111455636D01*
X134364698Y-111336564D01*
X134263436Y-111235302D01*
X134144364Y-111155741D01*
X134012058Y-111100938D01*
X133871603Y-111073000D01*
X133728397Y-111073000D01*
X133635726Y-111091433D01*
X133629064Y-111057942D01*
X133580211Y-110940000D01*
X133671603Y-110940000D01*
X133812058Y-110912062D01*
X133944364Y-110857259D01*
X134063436Y-110777698D01*
X134164698Y-110676436D01*
X134244259Y-110557364D01*
X134273000Y-110487977D01*
X134273000Y-110670698D01*
G04 #@! TA.AperFunction,Conductor*
D23*
G36*
X134273000Y-110670698D02*
G01*
X134323996Y-110927072D01*
X134424028Y-111168570D01*
X134569252Y-111385913D01*
X134754087Y-111570748D01*
X134971430Y-111715972D01*
X135198433Y-111810000D01*
X134971430Y-111904028D01*
X134754087Y-112049252D01*
X134569252Y-112234087D01*
X134424028Y-112451430D01*
X134323996Y-112692928D01*
X134273000Y-112949302D01*
X134273000Y-113210698D01*
X134323996Y-113467072D01*
X134424028Y-113708570D01*
X134569252Y-113925913D01*
X134754087Y-114110748D01*
X134971430Y-114255972D01*
X135212928Y-114356004D01*
X135469302Y-114407000D01*
X135730698Y-114407000D01*
X135987072Y-114356004D01*
X136228570Y-114255972D01*
X136445913Y-114110748D01*
X136630748Y-113925913D01*
X136775972Y-113708570D01*
X136870000Y-113481567D01*
X136964028Y-113708570D01*
X137109252Y-113925913D01*
X137294087Y-114110748D01*
X137511430Y-114255972D01*
X137752928Y-114356004D01*
X138009302Y-114407000D01*
X138270698Y-114407000D01*
X138527072Y-114356004D01*
X138768570Y-114255972D01*
X138985913Y-114110748D01*
X139170748Y-113925913D01*
X139315972Y-113708570D01*
X139416004Y-113467072D01*
X139448000Y-113306217D01*
X139448000Y-113972999D01*
X139436871Y-114086503D01*
X139411750Y-114169710D01*
X139370943Y-114246456D01*
X139316010Y-114313811D01*
X139249036Y-114369216D01*
X139172584Y-114410553D01*
X139089550Y-114436256D01*
X138977822Y-114448000D01*
X133244833Y-114448000D01*
X133280537Y-114404494D01*
X133339502Y-114294180D01*
X133375812Y-114174482D01*
X133388072Y-114050000D01*
X133385000Y-113485750D01*
X133226250Y-113327000D01*
X132027000Y-113327000D01*
X132027000Y-113347000D01*
X131773000Y-113347000D01*
X131773000Y-113327000D01*
X131753000Y-113327000D01*
X131753000Y-113073000D01*
X131773000Y-113073000D01*
X131773000Y-111873750D01*
X131741711Y-111842461D01*
X131763152Y-111790698D01*
X131791090Y-111650243D01*
X131791090Y-111507037D01*
X131763152Y-111366582D01*
X131708349Y-111234276D01*
X131628788Y-111115204D01*
X131527526Y-111013942D01*
X131408454Y-110934381D01*
X131276148Y-110879578D01*
X131135693Y-110851640D01*
X130992487Y-110851640D01*
X130852032Y-110879578D01*
X130719726Y-110934381D01*
X130600654Y-111013942D01*
X130592956Y-111021640D01*
X129733115Y-111021640D01*
X129720729Y-111020420D01*
X129664698Y-110936564D01*
X129563436Y-110835302D01*
X129533052Y-110815000D01*
X132359667Y-110815000D01*
X132285743Y-110925636D01*
X132230940Y-111057942D01*
X132203002Y-111198397D01*
X132203002Y-111341603D01*
X132230940Y-111482058D01*
X132285743Y-111614364D01*
X132352379Y-111714093D01*
X132185750Y-111715000D01*
X132027000Y-111873750D01*
X132027000Y-113073000D01*
X133226250Y-113073000D01*
X133385000Y-112914250D01*
X133387806Y-112398936D01*
X133455636Y-112444259D01*
X133587942Y-112499062D01*
X133728397Y-112527000D01*
X133871603Y-112527000D01*
X134012058Y-112499062D01*
X134144364Y-112444259D01*
X134263436Y-112364698D01*
X134364698Y-112263436D01*
X134444259Y-112144364D01*
X134499062Y-112012058D01*
X134527000Y-111871603D01*
X134527000Y-111728397D01*
X134499062Y-111587942D01*
X134444259Y-111455636D01*
X134364698Y-111336564D01*
X134263436Y-111235302D01*
X134144364Y-111155741D01*
X134012058Y-111100938D01*
X133871603Y-111073000D01*
X133728397Y-111073000D01*
X133635726Y-111091433D01*
X133629064Y-111057942D01*
X133580211Y-110940000D01*
X133671603Y-110940000D01*
X133812058Y-110912062D01*
X133944364Y-110857259D01*
X134063436Y-110777698D01*
X134164698Y-110676436D01*
X134244259Y-110557364D01*
X134273000Y-110487977D01*
X134273000Y-110670698D01*
G37*
G04 #@! TD.AperFunction*
D22*
X126947000Y-113073000D02*
X126967000Y-113073000D01*
X126967000Y-113327000D01*
X126947000Y-113327000D01*
X126947000Y-113347000D01*
X126693000Y-113347000D01*
X126693000Y-113327000D01*
X126673000Y-113327000D01*
X126673000Y-113073000D01*
X126693000Y-113073000D01*
X126693000Y-113053000D01*
X126947000Y-113053000D01*
X126947000Y-113073000D01*
G04 #@! TA.AperFunction,Conductor*
D23*
G36*
X126947000Y-113073000D02*
G01*
X126967000Y-113073000D01*
X126967000Y-113327000D01*
X126947000Y-113327000D01*
X126947000Y-113347000D01*
X126693000Y-113347000D01*
X126693000Y-113327000D01*
X126673000Y-113327000D01*
X126673000Y-113073000D01*
X126693000Y-113073000D01*
X126693000Y-113053000D01*
X126947000Y-113053000D01*
X126947000Y-113073000D01*
G37*
G04 #@! TD.AperFunction*
D22*
X130073000Y-102671603D02*
X130100938Y-102812058D01*
X130155741Y-102944364D01*
X130235302Y-103063436D01*
X130336564Y-103164698D01*
X130455636Y-103244259D01*
X130587942Y-103299062D01*
X130728397Y-103327000D01*
X130871603Y-103327000D01*
X131012058Y-103299062D01*
X131144364Y-103244259D01*
X131263436Y-103164698D01*
X131364698Y-103063436D01*
X131444259Y-102944364D01*
X131499062Y-102812058D01*
X131527000Y-102671603D01*
X131527000Y-102552000D01*
X138973007Y-102552000D01*
X139086502Y-102563128D01*
X139169712Y-102588252D01*
X139246457Y-102629058D01*
X139313808Y-102683988D01*
X139369216Y-102750964D01*
X139410554Y-102827417D01*
X139436257Y-102910450D01*
X139448001Y-103022187D01*
X139448001Y-103673787D01*
X139416004Y-103512928D01*
X139315972Y-103271430D01*
X139170748Y-103054087D01*
X138985913Y-102869252D01*
X138768570Y-102724028D01*
X138527072Y-102623996D01*
X138270698Y-102573000D01*
X138009302Y-102573000D01*
X137752928Y-102623996D01*
X137511430Y-102724028D01*
X137294087Y-102869252D01*
X137109252Y-103054087D01*
X136964028Y-103271430D01*
X136929307Y-103355254D01*
X136929307Y-103050000D01*
X136920097Y-102956492D01*
X136892822Y-102866577D01*
X136848529Y-102783711D01*
X136788921Y-102711079D01*
X136716289Y-102651471D01*
X136633423Y-102607178D01*
X136543508Y-102579903D01*
X136450000Y-102570693D01*
X134750000Y-102570693D01*
X134656492Y-102579903D01*
X134566577Y-102607178D01*
X134483711Y-102651471D01*
X134411079Y-102711079D01*
X134351471Y-102783711D01*
X134307178Y-102866577D01*
X134279903Y-102956492D01*
X134270693Y-103050000D01*
X134270693Y-104750000D01*
X134277060Y-104814641D01*
X134233388Y-104785461D01*
X134101082Y-104730658D01*
X133960627Y-104702720D01*
X133817421Y-104702720D01*
X133676966Y-104730658D01*
X133544660Y-104785461D01*
X133515309Y-104805073D01*
X133579259Y-104709364D01*
X133634062Y-104577058D01*
X133662000Y-104436603D01*
X133662000Y-104293397D01*
X133634062Y-104152942D01*
X133579259Y-104020636D01*
X133499698Y-103901564D01*
X133398436Y-103800302D01*
X133279364Y-103720741D01*
X133147058Y-103665938D01*
X133006603Y-103638000D01*
X132863397Y-103638000D01*
X132722942Y-103665938D01*
X132590636Y-103720741D01*
X132471564Y-103800302D01*
X132370302Y-103901564D01*
X132290741Y-104020636D01*
X132235938Y-104152942D01*
X132208000Y-104293397D01*
X132208000Y-104368686D01*
X131774797Y-103935483D01*
X131757351Y-103914225D01*
X131672537Y-103844620D01*
X131575773Y-103792898D01*
X131470778Y-103761048D01*
X131388951Y-103752989D01*
X131388940Y-103752989D01*
X131361587Y-103750295D01*
X131334234Y-103752989D01*
X129913772Y-103752989D01*
X129969492Y-103669597D01*
X130024295Y-103537291D01*
X130052233Y-103396836D01*
X130052233Y-103253630D01*
X130024295Y-103113175D01*
X129969492Y-102980869D01*
X129889931Y-102861797D01*
X129788669Y-102760535D01*
X129669597Y-102680974D01*
X129537291Y-102626171D01*
X129521734Y-102623077D01*
X129527000Y-102596603D01*
X129527000Y-102552000D01*
X130073000Y-102552000D01*
X130073000Y-102671603D01*
G04 #@! TA.AperFunction,Conductor*
D23*
G36*
X130073000Y-102671603D02*
G01*
X130100938Y-102812058D01*
X130155741Y-102944364D01*
X130235302Y-103063436D01*
X130336564Y-103164698D01*
X130455636Y-103244259D01*
X130587942Y-103299062D01*
X130728397Y-103327000D01*
X130871603Y-103327000D01*
X131012058Y-103299062D01*
X131144364Y-103244259D01*
X131263436Y-103164698D01*
X131364698Y-103063436D01*
X131444259Y-102944364D01*
X131499062Y-102812058D01*
X131527000Y-102671603D01*
X131527000Y-102552000D01*
X138973007Y-102552000D01*
X139086502Y-102563128D01*
X139169712Y-102588252D01*
X139246457Y-102629058D01*
X139313808Y-102683988D01*
X139369216Y-102750964D01*
X139410554Y-102827417D01*
X139436257Y-102910450D01*
X139448001Y-103022187D01*
X139448001Y-103673787D01*
X139416004Y-103512928D01*
X139315972Y-103271430D01*
X139170748Y-103054087D01*
X138985913Y-102869252D01*
X138768570Y-102724028D01*
X138527072Y-102623996D01*
X138270698Y-102573000D01*
X138009302Y-102573000D01*
X137752928Y-102623996D01*
X137511430Y-102724028D01*
X137294087Y-102869252D01*
X137109252Y-103054087D01*
X136964028Y-103271430D01*
X136929307Y-103355254D01*
X136929307Y-103050000D01*
X136920097Y-102956492D01*
X136892822Y-102866577D01*
X136848529Y-102783711D01*
X136788921Y-102711079D01*
X136716289Y-102651471D01*
X136633423Y-102607178D01*
X136543508Y-102579903D01*
X136450000Y-102570693D01*
X134750000Y-102570693D01*
X134656492Y-102579903D01*
X134566577Y-102607178D01*
X134483711Y-102651471D01*
X134411079Y-102711079D01*
X134351471Y-102783711D01*
X134307178Y-102866577D01*
X134279903Y-102956492D01*
X134270693Y-103050000D01*
X134270693Y-104750000D01*
X134277060Y-104814641D01*
X134233388Y-104785461D01*
X134101082Y-104730658D01*
X133960627Y-104702720D01*
X133817421Y-104702720D01*
X133676966Y-104730658D01*
X133544660Y-104785461D01*
X133515309Y-104805073D01*
X133579259Y-104709364D01*
X133634062Y-104577058D01*
X133662000Y-104436603D01*
X133662000Y-104293397D01*
X133634062Y-104152942D01*
X133579259Y-104020636D01*
X133499698Y-103901564D01*
X133398436Y-103800302D01*
X133279364Y-103720741D01*
X133147058Y-103665938D01*
X133006603Y-103638000D01*
X132863397Y-103638000D01*
X132722942Y-103665938D01*
X132590636Y-103720741D01*
X132471564Y-103800302D01*
X132370302Y-103901564D01*
X132290741Y-104020636D01*
X132235938Y-104152942D01*
X132208000Y-104293397D01*
X132208000Y-104368686D01*
X131774797Y-103935483D01*
X131757351Y-103914225D01*
X131672537Y-103844620D01*
X131575773Y-103792898D01*
X131470778Y-103761048D01*
X131388951Y-103752989D01*
X131388940Y-103752989D01*
X131361587Y-103750295D01*
X131334234Y-103752989D01*
X129913772Y-103752989D01*
X129969492Y-103669597D01*
X130024295Y-103537291D01*
X130052233Y-103396836D01*
X130052233Y-103253630D01*
X130024295Y-103113175D01*
X129969492Y-102980869D01*
X129889931Y-102861797D01*
X129788669Y-102760535D01*
X129669597Y-102680974D01*
X129537291Y-102626171D01*
X129521734Y-102623077D01*
X129527000Y-102596603D01*
X129527000Y-102552000D01*
X130073000Y-102552000D01*
X130073000Y-102671603D01*
G37*
G04 #@! TD.AperFunction*
M02*
