M48
; DRILL file {KiCad (5.1.9)-1} date 05/04/21 20:44:04
; FORMAT={-:-/ absolute / inch / decimal}
; #@! TF.CreationDate,2021-05-04T20:44:04+10:00
; #@! TF.GenerationSoftware,Kicad,Pcbnew,(5.1.9)-1
FMAT,2
INCH
T1C0.0118
T2C0.0157
T3C0.0197
T4C0.0256
T5C0.0394
T6C0.0300
%
G90
G05
T1
X4.1051Y-4.3435
X4.1181Y-4.4016
X4.2205Y-4.0988
X4.2598Y-4.5069
X4.2835Y-4.1969
X4.2992Y-4.2441
X4.3622Y-4.4803
X4.4039Y-4.3646
X4.4252Y-4.4803
X4.4331Y-4.1417
X4.4961Y-4.315
X4.5063Y-4.0732
X4.5118Y-4.1811
X4.5197Y-4.2205
X4.5433Y-4.315
X4.6059Y-4.1709
X4.6378Y-4.1417
X4.6732Y-4.3465
X4.7323Y-4.126
X4.7717Y-4.2717
X4.7844Y-4.3238
X4.7953Y-4.126
X4.9055Y-4.3661
X4.9167Y-4.2476
X4.9213Y-4.2205
X4.9217Y-4.1524
X4.9341Y-4.3888
X4.94Y-4.3009
X4.9772Y-4.4037
X5.0276Y-4.3886
X5.0551Y-4.3886
X5.0709Y-4.0364
X5.0827Y-4.3858
X5.0915Y-4.0679
X5.1173Y-4.1417
X5.1339Y-4.4173
X5.1449Y-4.1417
X5.1496Y-4.0394
X5.1496Y-4.0709
X5.16Y-4.3929
X5.2335Y-4.3807
X5.2337Y-4.1089
X5.2559Y-4.1845
X5.2598Y-4.3391
X5.2677Y-4.4016
X5.2712Y-4.1508
X5.3858Y-4.1969
T2
X4.0Y-4.4331
X4.1102Y-4.2913
X4.1102Y-4.4882
X4.1417Y-4.4803
X4.2471Y-4.3773
X4.2913Y-4.4173
X4.2953Y-4.3425
X4.2992Y-4.063
X4.5032Y-4.4731
X4.9449Y-4.1969
X4.9543Y-4.1388
X5.0244Y-4.107
X5.1004Y-4.2421
X5.1055Y-4.2992
X5.2606Y-4.2615
T4
X4.6217Y-4.0787
X4.622Y-4.4567
X4.6717Y-4.0787
X4.672Y-4.4567
X4.7217Y-4.0787
X4.722Y-4.4567
X4.7689Y-4.0787
X4.772Y-4.4567
X4.8189Y-4.0787
X4.8689Y-4.0787
X4.9189Y-4.0787
T5
X4.0118Y-4.0906
X4.1118Y-4.0906
X4.8929Y-4.4567
X4.9929Y-4.4567
X5.0929Y-4.4567
X5.1929Y-4.4567
X5.3386Y-4.0906
X5.3386Y-4.252
X5.3386Y-4.352
X5.3386Y-4.452
X5.4386Y-4.0906
X5.4386Y-4.252
X5.4386Y-4.352
X5.4386Y-4.452
T6
X4.2776Y-4.1181
X4.4941Y-4.1181
T3
G00X3.9813Y-4.3248
M15
G01X3.9813Y-4.3681
M16
G05
G00X4.0659Y-4.2224
M15
G01X4.0659Y-4.25
M16
G05
G00X4.0659Y-4.4429
M15
G01X4.0659Y-4.4705
M16
G05
T0
M30
