G04 #@! TF.GenerationSoftware,KiCad,Pcbnew,(5.1.9)-1*
G04 #@! TF.CreationDate,2021-02-01T18:23:16+11:00*
G04 #@! TF.ProjectId,BoSLnano,426f534c-6e61-46e6-9f2e-6b696361645f,0.4.2*
G04 #@! TF.SameCoordinates,Original*
G04 #@! TF.FileFunction,Copper,L1,Top*
G04 #@! TF.FilePolarity,Positive*
%FSLAX46Y46*%
G04 Gerber Fmt 4.6, Leading zero omitted, Abs format (unit mm)*
G04 Created by KiCad (PCBNEW (5.1.9)-1) date 2021-02-01 18:23:16*
%MOMM*%
%LPD*%
G01*
G04 APERTURE LIST*
G04 #@! TA.AperFunction,ComponentPad*
%ADD10O,2.200000X1.100000*%
G04 #@! TD*
G04 #@! TA.AperFunction,ComponentPad*
%ADD11O,1.800000X1.100000*%
G04 #@! TD*
G04 #@! TA.AperFunction,SMDPad,CuDef*
%ADD12R,0.450000X1.500000*%
G04 #@! TD*
G04 #@! TA.AperFunction,ComponentPad*
%ADD13O,1.000000X1.000000*%
G04 #@! TD*
G04 #@! TA.AperFunction,ComponentPad*
%ADD14R,1.000000X1.000000*%
G04 #@! TD*
G04 #@! TA.AperFunction,ComponentPad*
%ADD15O,1.700000X1.700000*%
G04 #@! TD*
G04 #@! TA.AperFunction,ComponentPad*
%ADD16R,1.700000X1.700000*%
G04 #@! TD*
G04 #@! TA.AperFunction,SMDPad,CuDef*
%ADD17C,0.787000*%
G04 #@! TD*
G04 #@! TA.AperFunction,SMDPad,CuDef*
%ADD18R,0.300000X0.300000*%
G04 #@! TD*
G04 #@! TA.AperFunction,SMDPad,CuDef*
%ADD19R,0.800000X0.800000*%
G04 #@! TD*
G04 #@! TA.AperFunction,SMDPad,CuDef*
%ADD20R,0.250000X0.250000*%
G04 #@! TD*
G04 #@! TA.AperFunction,SMDPad,CuDef*
%ADD21R,0.900000X0.800000*%
G04 #@! TD*
G04 #@! TA.AperFunction,SMDPad,CuDef*
%ADD22R,0.500000X0.250000*%
G04 #@! TD*
G04 #@! TA.AperFunction,SMDPad,CuDef*
%ADD23R,1.000000X1.000000*%
G04 #@! TD*
G04 #@! TA.AperFunction,SMDPad,CuDef*
%ADD24R,2.200000X1.050000*%
G04 #@! TD*
G04 #@! TA.AperFunction,ComponentPad*
%ADD25R,3.000000X2.000000*%
G04 #@! TD*
G04 #@! TA.AperFunction,ViaPad*
%ADD26C,0.500000*%
G04 #@! TD*
G04 #@! TA.AperFunction,ViaPad*
%ADD27C,0.600000*%
G04 #@! TD*
G04 #@! TA.AperFunction,Conductor*
%ADD28C,0.160000*%
G04 #@! TD*
G04 #@! TA.AperFunction,Conductor*
%ADD29C,0.800000*%
G04 #@! TD*
G04 #@! TA.AperFunction,Conductor*
%ADD30C,0.250000*%
G04 #@! TD*
G04 #@! TA.AperFunction,Conductor*
%ADD31C,0.400000*%
G04 #@! TD*
G04 #@! TA.AperFunction,Conductor*
%ADD32C,0.560000*%
G04 #@! TD*
G04 #@! TA.AperFunction,Conductor*
%ADD33C,0.600000*%
G04 #@! TD*
G04 #@! TA.AperFunction,Conductor*
%ADD34C,0.220000*%
G04 #@! TD*
G04 #@! TA.AperFunction,Conductor*
%ADD35C,0.200000*%
G04 #@! TD*
G04 #@! TA.AperFunction,Conductor*
%ADD36C,0.100000*%
G04 #@! TD*
G04 APERTURE END LIST*
G04 #@! TA.AperFunction,SMDPad,CuDef*
G36*
G01*
X148010000Y-113922500D02*
X148010000Y-113577500D01*
G75*
G02*
X148157500Y-113430000I147500J0D01*
G01*
X148452500Y-113430000D01*
G75*
G02*
X148600000Y-113577500I0J-147500D01*
G01*
X148600000Y-113922500D01*
G75*
G02*
X148452500Y-114070000I-147500J0D01*
G01*
X148157500Y-114070000D01*
G75*
G02*
X148010000Y-113922500I0J147500D01*
G01*
G37*
G04 #@! TD.AperFunction*
G04 #@! TA.AperFunction,SMDPad,CuDef*
G36*
G01*
X147040000Y-113922500D02*
X147040000Y-113577500D01*
G75*
G02*
X147187500Y-113430000I147500J0D01*
G01*
X147482500Y-113430000D01*
G75*
G02*
X147630000Y-113577500I0J-147500D01*
G01*
X147630000Y-113922500D01*
G75*
G02*
X147482500Y-114070000I-147500J0D01*
G01*
X147187500Y-114070000D01*
G75*
G02*
X147040000Y-113922500I0J147500D01*
G01*
G37*
G04 #@! TD.AperFunction*
D10*
X117200000Y-101325000D03*
D11*
X114400000Y-103475000D03*
X120000000Y-103475000D03*
D12*
X118500000Y-103225000D03*
X115900000Y-103225000D03*
X117850000Y-103225000D03*
X116550000Y-103225000D03*
X117200000Y-103225000D03*
D13*
X122200000Y-109390000D03*
X123470000Y-109390000D03*
X124740000Y-109390000D03*
X126010000Y-109390000D03*
X127280000Y-109390000D03*
X128550000Y-109390000D03*
X129820000Y-109390000D03*
X131090000Y-109390000D03*
D14*
X132360000Y-109390000D03*
D15*
X135445500Y-113030000D03*
X132905500Y-113030000D03*
X130365500Y-113030000D03*
X127825500Y-113030000D03*
X125285500Y-113030000D03*
X122745500Y-113030000D03*
D16*
X120205500Y-113030000D03*
D15*
X132220000Y-105800000D03*
X129680000Y-105800000D03*
X127140000Y-105800000D03*
D16*
X124600000Y-105800000D03*
X124600000Y-102200000D03*
D15*
X127140000Y-102200000D03*
X129680000Y-102200000D03*
X132220000Y-102200000D03*
G04 #@! TA.AperFunction,SMDPad,CuDef*
G36*
G01*
X138560000Y-110315000D02*
X138560000Y-110685000D01*
G75*
G02*
X138425000Y-110820000I-135000J0D01*
G01*
X138155000Y-110820000D01*
G75*
G02*
X138020000Y-110685000I0J135000D01*
G01*
X138020000Y-110315000D01*
G75*
G02*
X138155000Y-110180000I135000J0D01*
G01*
X138425000Y-110180000D01*
G75*
G02*
X138560000Y-110315000I0J-135000D01*
G01*
G37*
G04 #@! TD.AperFunction*
G04 #@! TA.AperFunction,SMDPad,CuDef*
G36*
G01*
X139580000Y-110315000D02*
X139580000Y-110685000D01*
G75*
G02*
X139445000Y-110820000I-135000J0D01*
G01*
X139175000Y-110820000D01*
G75*
G02*
X139040000Y-110685000I0J135000D01*
G01*
X139040000Y-110315000D01*
G75*
G02*
X139175000Y-110180000I135000J0D01*
G01*
X139445000Y-110180000D01*
G75*
G02*
X139580000Y-110315000I0J-135000D01*
G01*
G37*
G04 #@! TD.AperFunction*
G04 #@! TA.AperFunction,SMDPad,CuDef*
G36*
G01*
X139040000Y-108285000D02*
X139040000Y-107915000D01*
G75*
G02*
X139175000Y-107780000I135000J0D01*
G01*
X139445000Y-107780000D01*
G75*
G02*
X139580000Y-107915000I0J-135000D01*
G01*
X139580000Y-108285000D01*
G75*
G02*
X139445000Y-108420000I-135000J0D01*
G01*
X139175000Y-108420000D01*
G75*
G02*
X139040000Y-108285000I0J135000D01*
G01*
G37*
G04 #@! TD.AperFunction*
G04 #@! TA.AperFunction,SMDPad,CuDef*
G36*
G01*
X138020000Y-108285000D02*
X138020000Y-107915000D01*
G75*
G02*
X138155000Y-107780000I135000J0D01*
G01*
X138425000Y-107780000D01*
G75*
G02*
X138560000Y-107915000I0J-135000D01*
G01*
X138560000Y-108285000D01*
G75*
G02*
X138425000Y-108420000I-135000J0D01*
G01*
X138155000Y-108420000D01*
G75*
G02*
X138020000Y-108285000I0J135000D01*
G01*
G37*
G04 #@! TD.AperFunction*
G04 #@! TA.AperFunction,SMDPad,CuDef*
G36*
G01*
X112656250Y-110747500D02*
X112143750Y-110747500D01*
G75*
G02*
X111925000Y-110528750I0J218750D01*
G01*
X111925000Y-110091250D01*
G75*
G02*
X112143750Y-109872500I218750J0D01*
G01*
X112656250Y-109872500D01*
G75*
G02*
X112875000Y-110091250I0J-218750D01*
G01*
X112875000Y-110528750D01*
G75*
G02*
X112656250Y-110747500I-218750J0D01*
G01*
G37*
G04 #@! TD.AperFunction*
G04 #@! TA.AperFunction,SMDPad,CuDef*
G36*
G01*
X112656250Y-112322500D02*
X112143750Y-112322500D01*
G75*
G02*
X111925000Y-112103750I0J218750D01*
G01*
X111925000Y-111666250D01*
G75*
G02*
X112143750Y-111447500I218750J0D01*
G01*
X112656250Y-111447500D01*
G75*
G02*
X112875000Y-111666250I0J-218750D01*
G01*
X112875000Y-112103750D01*
G75*
G02*
X112656250Y-112322500I-218750J0D01*
G01*
G37*
G04 #@! TD.AperFunction*
G04 #@! TA.AperFunction,SMDPad,CuDef*
G36*
G01*
X138980000Y-109470000D02*
X138980000Y-109130000D01*
G75*
G02*
X139120000Y-108990000I140000J0D01*
G01*
X139400000Y-108990000D01*
G75*
G02*
X139540000Y-109130000I0J-140000D01*
G01*
X139540000Y-109470000D01*
G75*
G02*
X139400000Y-109610000I-140000J0D01*
G01*
X139120000Y-109610000D01*
G75*
G02*
X138980000Y-109470000I0J140000D01*
G01*
G37*
G04 #@! TD.AperFunction*
G04 #@! TA.AperFunction,SMDPad,CuDef*
G36*
G01*
X138020000Y-109470000D02*
X138020000Y-109130000D01*
G75*
G02*
X138160000Y-108990000I140000J0D01*
G01*
X138440000Y-108990000D01*
G75*
G02*
X138580000Y-109130000I0J-140000D01*
G01*
X138580000Y-109470000D01*
G75*
G02*
X138440000Y-109610000I-140000J0D01*
G01*
X138160000Y-109610000D01*
G75*
G02*
X138020000Y-109470000I0J140000D01*
G01*
G37*
G04 #@! TD.AperFunction*
D17*
X139300000Y-106200000D03*
X138030000Y-106200000D03*
X139300000Y-104930000D03*
X138030000Y-104930000D03*
X139300000Y-103660000D03*
D18*
X145750000Y-111550000D03*
X151750000Y-111550000D03*
X150750000Y-111550000D03*
X150250000Y-111550000D03*
X146750000Y-111550000D03*
X155750000Y-111550000D03*
X155250000Y-111550000D03*
X154750000Y-111550000D03*
X145250000Y-111550000D03*
X154250000Y-111550000D03*
X151250000Y-111550000D03*
X146250000Y-111550000D03*
X154250000Y-102850000D03*
X155250000Y-102850000D03*
X155750000Y-102850000D03*
X154750000Y-102850000D03*
X150750000Y-102850000D03*
X151750000Y-102850000D03*
X151250000Y-102850000D03*
X150250000Y-102850000D03*
X145750000Y-102850000D03*
X146750000Y-102850000D03*
X146250000Y-102850000D03*
X145250000Y-102850000D03*
X157750000Y-112200000D03*
X157250000Y-112200000D03*
X156750000Y-112200000D03*
X156250000Y-112200000D03*
X155750000Y-112200000D03*
X155250000Y-112200000D03*
X154750000Y-112200000D03*
X154250000Y-112200000D03*
X153750000Y-112200000D03*
X153250000Y-112200000D03*
X152750000Y-112200000D03*
X152250000Y-112200000D03*
X151750000Y-112200000D03*
X151250000Y-112200000D03*
X150750000Y-112200000D03*
X150250000Y-112200000D03*
X149750000Y-112200000D03*
X149250000Y-112200000D03*
X148750000Y-112200000D03*
X148250000Y-112200000D03*
X147750000Y-112200000D03*
X147250000Y-112200000D03*
X146750000Y-112200000D03*
X146250000Y-112200000D03*
X145750000Y-112200000D03*
X145250000Y-112200000D03*
X144750000Y-112200000D03*
X144250000Y-112200000D03*
X143750000Y-112200000D03*
X143250000Y-112200000D03*
X142750000Y-112200000D03*
X157750000Y-111700000D03*
X157750000Y-111200000D03*
X157750000Y-110700000D03*
X157750000Y-110200000D03*
X157750000Y-109700000D03*
X157750000Y-109200000D03*
X157750000Y-108700000D03*
X157750000Y-108200000D03*
X157750000Y-107700000D03*
X157750000Y-107200000D03*
X157750000Y-106700000D03*
X157750000Y-106200000D03*
X157750000Y-105700000D03*
X157750000Y-105200000D03*
X157750000Y-104700000D03*
X157750000Y-104200000D03*
X157750000Y-103700000D03*
X157750000Y-103200000D03*
X157750000Y-102700000D03*
X142250000Y-112200000D03*
X142250000Y-111700000D03*
X142250000Y-111200000D03*
X142250000Y-110700000D03*
X142250000Y-110200000D03*
X142250000Y-109700000D03*
X142250000Y-109200000D03*
X142250000Y-108700000D03*
X142250000Y-108200000D03*
X142250000Y-107700000D03*
X142250000Y-107200000D03*
X142250000Y-106700000D03*
X142250000Y-106200000D03*
X142250000Y-105700000D03*
X142250000Y-105200000D03*
X142250000Y-104700000D03*
X142250000Y-104200000D03*
X142250000Y-103700000D03*
X142250000Y-103200000D03*
X142250000Y-102700000D03*
X157750000Y-102200000D03*
X157250000Y-102200000D03*
X156750000Y-102200000D03*
X156250000Y-102200000D03*
X155750000Y-102200000D03*
X155250000Y-102200000D03*
X154750000Y-102200000D03*
X154250000Y-102200000D03*
X153750000Y-102200000D03*
X153250000Y-102200000D03*
X152750000Y-102200000D03*
X152250000Y-102200000D03*
X151750000Y-102200000D03*
X151250000Y-102200000D03*
X150750000Y-102200000D03*
X150250000Y-102200000D03*
X149750000Y-102200000D03*
X149250000Y-102200000D03*
X148750000Y-102200000D03*
X148250000Y-102200000D03*
X147750000Y-102200000D03*
X147250000Y-102200000D03*
X146750000Y-102200000D03*
X146250000Y-102200000D03*
X145750000Y-102200000D03*
X145250000Y-102200000D03*
X144750000Y-102200000D03*
X144250000Y-102200000D03*
X143750000Y-102200000D03*
X143250000Y-102200000D03*
X142750000Y-102200000D03*
X142250000Y-102200000D03*
D19*
X156000000Y-110400000D03*
X154000000Y-110400000D03*
X152000000Y-110400000D03*
X150000000Y-110400000D03*
X148000000Y-110400000D03*
X146000000Y-110400000D03*
X144000000Y-110400000D03*
X156000000Y-108800000D03*
X154000000Y-108800000D03*
X152000000Y-108800000D03*
X150000000Y-108800000D03*
X148000000Y-108800000D03*
X146000000Y-108800000D03*
X144000000Y-108800000D03*
X156000000Y-107200000D03*
X154000000Y-107200000D03*
X152000000Y-107200000D03*
X150000000Y-107200000D03*
X148000000Y-107200000D03*
X146000000Y-107200000D03*
X144000000Y-107200000D03*
X156000000Y-105600000D03*
X154000000Y-105600000D03*
X152000000Y-105600000D03*
X150000000Y-105600000D03*
X148000000Y-105600000D03*
X146000000Y-105600000D03*
X144000000Y-105600000D03*
X156000000Y-104000000D03*
X154000000Y-104000000D03*
X152000000Y-104000000D03*
X150000000Y-104000000D03*
X148000000Y-104000000D03*
X146000000Y-104000000D03*
X144000000Y-104000000D03*
G04 #@! TA.AperFunction,SMDPad,CuDef*
G36*
G01*
X101050000Y-107400000D02*
X103950000Y-107400000D01*
G75*
G02*
X104200000Y-107650000I0J-250000D01*
G01*
X104200000Y-108650000D01*
G75*
G02*
X103950000Y-108900000I-250000J0D01*
G01*
X101050000Y-108900000D01*
G75*
G02*
X100800000Y-108650000I0J250000D01*
G01*
X100800000Y-107650000D01*
G75*
G02*
X101050000Y-107400000I250000J0D01*
G01*
G37*
G04 #@! TD.AperFunction*
G04 #@! TA.AperFunction,SMDPad,CuDef*
G36*
G01*
X101050000Y-100700000D02*
X103950000Y-100700000D01*
G75*
G02*
X104200000Y-100950000I0J-250000D01*
G01*
X104200000Y-101950000D01*
G75*
G02*
X103950000Y-102200000I-250000J0D01*
G01*
X101050000Y-102200000D01*
G75*
G02*
X100800000Y-101950000I0J250000D01*
G01*
X100800000Y-100950000D01*
G75*
G02*
X101050000Y-100700000I250000J0D01*
G01*
G37*
G04 #@! TD.AperFunction*
G04 #@! TA.AperFunction,SMDPad,CuDef*
G36*
G01*
X106750000Y-105300000D02*
X109750000Y-105300000D01*
G75*
G02*
X110000000Y-105550000I0J-250000D01*
G01*
X110000000Y-106050000D01*
G75*
G02*
X109750000Y-106300000I-250000J0D01*
G01*
X106750000Y-106300000D01*
G75*
G02*
X106500000Y-106050000I0J250000D01*
G01*
X106500000Y-105550000D01*
G75*
G02*
X106750000Y-105300000I250000J0D01*
G01*
G37*
G04 #@! TD.AperFunction*
G04 #@! TA.AperFunction,SMDPad,CuDef*
G36*
G01*
X106750000Y-103300000D02*
X109750000Y-103300000D01*
G75*
G02*
X110000000Y-103550000I0J-250000D01*
G01*
X110000000Y-104050000D01*
G75*
G02*
X109750000Y-104300000I-250000J0D01*
G01*
X106750000Y-104300000D01*
G75*
G02*
X106500000Y-104050000I0J250000D01*
G01*
X106500000Y-103550000D01*
G75*
G02*
X106750000Y-103300000I250000J0D01*
G01*
G37*
G04 #@! TD.AperFunction*
D17*
X161950000Y-114000000D03*
X160680000Y-114000000D03*
X161950000Y-112730000D03*
X160680000Y-112730000D03*
X161950000Y-111460000D03*
X160680000Y-111460000D03*
D20*
X159850000Y-104750000D03*
X159450000Y-104750000D03*
X159850000Y-104350000D03*
X159450000Y-104350000D03*
X159850000Y-103950000D03*
X159450000Y-103950000D03*
D21*
X117400000Y-113000000D03*
X115400000Y-113950000D03*
X115400000Y-112050000D03*
G04 #@! TA.AperFunction,SMDPad,CuDef*
G36*
G01*
X101300000Y-113000000D02*
X101300000Y-111400000D01*
G75*
G02*
X101500000Y-111200000I200000J0D01*
G01*
X101900000Y-111200000D01*
G75*
G02*
X102100000Y-111400000I0J-200000D01*
G01*
X102100000Y-113000000D01*
G75*
G02*
X101900000Y-113200000I-200000J0D01*
G01*
X101500000Y-113200000D01*
G75*
G02*
X101300000Y-113000000I0J200000D01*
G01*
G37*
G04 #@! TD.AperFunction*
G04 #@! TA.AperFunction,SMDPad,CuDef*
G36*
G01*
X105500000Y-113000000D02*
X105500000Y-111400000D01*
G75*
G02*
X105700000Y-111200000I200000J0D01*
G01*
X106100000Y-111200000D01*
G75*
G02*
X106300000Y-111400000I0J-200000D01*
G01*
X106300000Y-113000000D01*
G75*
G02*
X106100000Y-113200000I-200000J0D01*
G01*
X105700000Y-113200000D01*
G75*
G02*
X105500000Y-113000000I0J200000D01*
G01*
G37*
G04 #@! TD.AperFunction*
G04 #@! TA.AperFunction,SMDPad,CuDef*
G36*
G01*
X152310000Y-113627500D02*
X152310000Y-113972500D01*
G75*
G02*
X152162500Y-114120000I-147500J0D01*
G01*
X151867500Y-114120000D01*
G75*
G02*
X151720000Y-113972500I0J147500D01*
G01*
X151720000Y-113627500D01*
G75*
G02*
X151867500Y-113480000I147500J0D01*
G01*
X152162500Y-113480000D01*
G75*
G02*
X152310000Y-113627500I0J-147500D01*
G01*
G37*
G04 #@! TD.AperFunction*
G04 #@! TA.AperFunction,SMDPad,CuDef*
G36*
G01*
X153280000Y-113627500D02*
X153280000Y-113972500D01*
G75*
G02*
X153132500Y-114120000I-147500J0D01*
G01*
X152837500Y-114120000D01*
G75*
G02*
X152690000Y-113972500I0J147500D01*
G01*
X152690000Y-113627500D01*
G75*
G02*
X152837500Y-113480000I147500J0D01*
G01*
X153132500Y-113480000D01*
G75*
G02*
X153280000Y-113627500I0J-147500D01*
G01*
G37*
G04 #@! TD.AperFunction*
G04 #@! TA.AperFunction,SMDPad,CuDef*
G36*
G01*
X153590000Y-100972500D02*
X153590000Y-100627500D01*
G75*
G02*
X153737500Y-100480000I147500J0D01*
G01*
X154032500Y-100480000D01*
G75*
G02*
X154180000Y-100627500I0J-147500D01*
G01*
X154180000Y-100972500D01*
G75*
G02*
X154032500Y-101120000I-147500J0D01*
G01*
X153737500Y-101120000D01*
G75*
G02*
X153590000Y-100972500I0J147500D01*
G01*
G37*
G04 #@! TD.AperFunction*
G04 #@! TA.AperFunction,SMDPad,CuDef*
G36*
G01*
X152620000Y-100972500D02*
X152620000Y-100627500D01*
G75*
G02*
X152767500Y-100480000I147500J0D01*
G01*
X153062500Y-100480000D01*
G75*
G02*
X153210000Y-100627500I0J-147500D01*
G01*
X153210000Y-100972500D01*
G75*
G02*
X153062500Y-101120000I-147500J0D01*
G01*
X152767500Y-101120000D01*
G75*
G02*
X152620000Y-100972500I0J147500D01*
G01*
G37*
G04 #@! TD.AperFunction*
G04 #@! TA.AperFunction,SMDPad,CuDef*
G36*
G01*
X150925000Y-100627500D02*
X150925000Y-100972500D01*
G75*
G02*
X150777500Y-101120000I-147500J0D01*
G01*
X150482500Y-101120000D01*
G75*
G02*
X150335000Y-100972500I0J147500D01*
G01*
X150335000Y-100627500D01*
G75*
G02*
X150482500Y-100480000I147500J0D01*
G01*
X150777500Y-100480000D01*
G75*
G02*
X150925000Y-100627500I0J-147500D01*
G01*
G37*
G04 #@! TD.AperFunction*
G04 #@! TA.AperFunction,SMDPad,CuDef*
G36*
G01*
X151895000Y-100627500D02*
X151895000Y-100972500D01*
G75*
G02*
X151747500Y-101120000I-147500J0D01*
G01*
X151452500Y-101120000D01*
G75*
G02*
X151305000Y-100972500I0J147500D01*
G01*
X151305000Y-100627500D01*
G75*
G02*
X151452500Y-100480000I147500J0D01*
G01*
X151747500Y-100480000D01*
G75*
G02*
X151895000Y-100627500I0J-147500D01*
G01*
G37*
G04 #@! TD.AperFunction*
G04 #@! TA.AperFunction,SMDPad,CuDef*
G36*
G01*
X111427500Y-108190000D02*
X111772500Y-108190000D01*
G75*
G02*
X111920000Y-108337500I0J-147500D01*
G01*
X111920000Y-108632500D01*
G75*
G02*
X111772500Y-108780000I-147500J0D01*
G01*
X111427500Y-108780000D01*
G75*
G02*
X111280000Y-108632500I0J147500D01*
G01*
X111280000Y-108337500D01*
G75*
G02*
X111427500Y-108190000I147500J0D01*
G01*
G37*
G04 #@! TD.AperFunction*
G04 #@! TA.AperFunction,SMDPad,CuDef*
G36*
G01*
X111427500Y-107220000D02*
X111772500Y-107220000D01*
G75*
G02*
X111920000Y-107367500I0J-147500D01*
G01*
X111920000Y-107662500D01*
G75*
G02*
X111772500Y-107810000I-147500J0D01*
G01*
X111427500Y-107810000D01*
G75*
G02*
X111280000Y-107662500I0J147500D01*
G01*
X111280000Y-107367500D01*
G75*
G02*
X111427500Y-107220000I147500J0D01*
G01*
G37*
G04 #@! TD.AperFunction*
G04 #@! TA.AperFunction,SMDPad,CuDef*
G36*
G01*
X111590000Y-114372500D02*
X111590000Y-114027500D01*
G75*
G02*
X111737500Y-113880000I147500J0D01*
G01*
X112032500Y-113880000D01*
G75*
G02*
X112180000Y-114027500I0J-147500D01*
G01*
X112180000Y-114372500D01*
G75*
G02*
X112032500Y-114520000I-147500J0D01*
G01*
X111737500Y-114520000D01*
G75*
G02*
X111590000Y-114372500I0J147500D01*
G01*
G37*
G04 #@! TD.AperFunction*
G04 #@! TA.AperFunction,SMDPad,CuDef*
G36*
G01*
X110620000Y-114372500D02*
X110620000Y-114027500D01*
G75*
G02*
X110767500Y-113880000I147500J0D01*
G01*
X111062500Y-113880000D01*
G75*
G02*
X111210000Y-114027500I0J-147500D01*
G01*
X111210000Y-114372500D01*
G75*
G02*
X111062500Y-114520000I-147500J0D01*
G01*
X110767500Y-114520000D01*
G75*
G02*
X110620000Y-114372500I0J147500D01*
G01*
G37*
G04 #@! TD.AperFunction*
G04 #@! TA.AperFunction,SMDPad,CuDef*
G36*
G01*
X163872500Y-113060000D02*
X163527500Y-113060000D01*
G75*
G02*
X163380000Y-112912500I0J147500D01*
G01*
X163380000Y-112617500D01*
G75*
G02*
X163527500Y-112470000I147500J0D01*
G01*
X163872500Y-112470000D01*
G75*
G02*
X164020000Y-112617500I0J-147500D01*
G01*
X164020000Y-112912500D01*
G75*
G02*
X163872500Y-113060000I-147500J0D01*
G01*
G37*
G04 #@! TD.AperFunction*
G04 #@! TA.AperFunction,SMDPad,CuDef*
G36*
G01*
X163872500Y-114030000D02*
X163527500Y-114030000D01*
G75*
G02*
X163380000Y-113882500I0J147500D01*
G01*
X163380000Y-113587500D01*
G75*
G02*
X163527500Y-113440000I147500J0D01*
G01*
X163872500Y-113440000D01*
G75*
G02*
X164020000Y-113587500I0J-147500D01*
G01*
X164020000Y-113882500D01*
G75*
G02*
X163872500Y-114030000I-147500J0D01*
G01*
G37*
G04 #@! TD.AperFunction*
G04 #@! TA.AperFunction,SMDPad,CuDef*
G36*
G01*
X140427500Y-104590000D02*
X140772500Y-104590000D01*
G75*
G02*
X140920000Y-104737500I0J-147500D01*
G01*
X140920000Y-105032500D01*
G75*
G02*
X140772500Y-105180000I-147500J0D01*
G01*
X140427500Y-105180000D01*
G75*
G02*
X140280000Y-105032500I0J147500D01*
G01*
X140280000Y-104737500D01*
G75*
G02*
X140427500Y-104590000I147500J0D01*
G01*
G37*
G04 #@! TD.AperFunction*
G04 #@! TA.AperFunction,SMDPad,CuDef*
G36*
G01*
X140427500Y-103620000D02*
X140772500Y-103620000D01*
G75*
G02*
X140920000Y-103767500I0J-147500D01*
G01*
X140920000Y-104062500D01*
G75*
G02*
X140772500Y-104210000I-147500J0D01*
G01*
X140427500Y-104210000D01*
G75*
G02*
X140280000Y-104062500I0J147500D01*
G01*
X140280000Y-103767500D01*
G75*
G02*
X140427500Y-103620000I147500J0D01*
G01*
G37*
G04 #@! TD.AperFunction*
G04 #@! TA.AperFunction,SMDPad,CuDef*
G36*
G01*
X159027500Y-111955000D02*
X159372500Y-111955000D01*
G75*
G02*
X159520000Y-112102500I0J-147500D01*
G01*
X159520000Y-112397500D01*
G75*
G02*
X159372500Y-112545000I-147500J0D01*
G01*
X159027500Y-112545000D01*
G75*
G02*
X158880000Y-112397500I0J147500D01*
G01*
X158880000Y-112102500D01*
G75*
G02*
X159027500Y-111955000I147500J0D01*
G01*
G37*
G04 #@! TD.AperFunction*
G04 #@! TA.AperFunction,SMDPad,CuDef*
G36*
G01*
X159027500Y-110985000D02*
X159372500Y-110985000D01*
G75*
G02*
X159520000Y-111132500I0J-147500D01*
G01*
X159520000Y-111427500D01*
G75*
G02*
X159372500Y-111575000I-147500J0D01*
G01*
X159027500Y-111575000D01*
G75*
G02*
X158880000Y-111427500I0J147500D01*
G01*
X158880000Y-111132500D01*
G75*
G02*
X159027500Y-110985000I147500J0D01*
G01*
G37*
G04 #@! TD.AperFunction*
G04 #@! TA.AperFunction,SMDPad,CuDef*
G36*
G01*
X136872500Y-105295000D02*
X136527500Y-105295000D01*
G75*
G02*
X136380000Y-105147500I0J147500D01*
G01*
X136380000Y-104852500D01*
G75*
G02*
X136527500Y-104705000I147500J0D01*
G01*
X136872500Y-104705000D01*
G75*
G02*
X137020000Y-104852500I0J-147500D01*
G01*
X137020000Y-105147500D01*
G75*
G02*
X136872500Y-105295000I-147500J0D01*
G01*
G37*
G04 #@! TD.AperFunction*
G04 #@! TA.AperFunction,SMDPad,CuDef*
G36*
G01*
X136872500Y-106265000D02*
X136527500Y-106265000D01*
G75*
G02*
X136380000Y-106117500I0J147500D01*
G01*
X136380000Y-105822500D01*
G75*
G02*
X136527500Y-105675000I147500J0D01*
G01*
X136872500Y-105675000D01*
G75*
G02*
X137020000Y-105822500I0J-147500D01*
G01*
X137020000Y-106117500D01*
G75*
G02*
X136872500Y-106265000I-147500J0D01*
G01*
G37*
G04 #@! TD.AperFunction*
G04 #@! TA.AperFunction,SMDPad,CuDef*
G36*
G01*
X150155000Y-113922500D02*
X150155000Y-113577500D01*
G75*
G02*
X150302500Y-113430000I147500J0D01*
G01*
X150597500Y-113430000D01*
G75*
G02*
X150745000Y-113577500I0J-147500D01*
G01*
X150745000Y-113922500D01*
G75*
G02*
X150597500Y-114070000I-147500J0D01*
G01*
X150302500Y-114070000D01*
G75*
G02*
X150155000Y-113922500I0J147500D01*
G01*
G37*
G04 #@! TD.AperFunction*
G04 #@! TA.AperFunction,SMDPad,CuDef*
G36*
G01*
X149185000Y-113922500D02*
X149185000Y-113577500D01*
G75*
G02*
X149332500Y-113430000I147500J0D01*
G01*
X149627500Y-113430000D01*
G75*
G02*
X149775000Y-113577500I0J-147500D01*
G01*
X149775000Y-113922500D01*
G75*
G02*
X149627500Y-114070000I-147500J0D01*
G01*
X149332500Y-114070000D01*
G75*
G02*
X149185000Y-113922500I0J147500D01*
G01*
G37*
G04 #@! TD.AperFunction*
G04 #@! TA.AperFunction,SMDPad,CuDef*
G36*
G01*
X161193750Y-103812500D02*
X161706250Y-103812500D01*
G75*
G02*
X161925000Y-104031250I0J-218750D01*
G01*
X161925000Y-104468750D01*
G75*
G02*
X161706250Y-104687500I-218750J0D01*
G01*
X161193750Y-104687500D01*
G75*
G02*
X160975000Y-104468750I0J218750D01*
G01*
X160975000Y-104031250D01*
G75*
G02*
X161193750Y-103812500I218750J0D01*
G01*
G37*
G04 #@! TD.AperFunction*
G04 #@! TA.AperFunction,SMDPad,CuDef*
G36*
G01*
X161193750Y-102237500D02*
X161706250Y-102237500D01*
G75*
G02*
X161925000Y-102456250I0J-218750D01*
G01*
X161925000Y-102893750D01*
G75*
G02*
X161706250Y-103112500I-218750J0D01*
G01*
X161193750Y-103112500D01*
G75*
G02*
X160975000Y-102893750I0J218750D01*
G01*
X160975000Y-102456250D01*
G75*
G02*
X161193750Y-102237500I218750J0D01*
G01*
G37*
G04 #@! TD.AperFunction*
G04 #@! TA.AperFunction,SMDPad,CuDef*
G36*
G01*
X109456250Y-110762500D02*
X108943750Y-110762500D01*
G75*
G02*
X108725000Y-110543750I0J218750D01*
G01*
X108725000Y-110106250D01*
G75*
G02*
X108943750Y-109887500I218750J0D01*
G01*
X109456250Y-109887500D01*
G75*
G02*
X109675000Y-110106250I0J-218750D01*
G01*
X109675000Y-110543750D01*
G75*
G02*
X109456250Y-110762500I-218750J0D01*
G01*
G37*
G04 #@! TD.AperFunction*
G04 #@! TA.AperFunction,SMDPad,CuDef*
G36*
G01*
X109456250Y-112337500D02*
X108943750Y-112337500D01*
G75*
G02*
X108725000Y-112118750I0J218750D01*
G01*
X108725000Y-111681250D01*
G75*
G02*
X108943750Y-111462500I218750J0D01*
G01*
X109456250Y-111462500D01*
G75*
G02*
X109675000Y-111681250I0J-218750D01*
G01*
X109675000Y-112118750D01*
G75*
G02*
X109456250Y-112337500I-218750J0D01*
G01*
G37*
G04 #@! TD.AperFunction*
G04 #@! TA.AperFunction,SMDPad,CuDef*
G36*
G01*
X107856250Y-110762500D02*
X107343750Y-110762500D01*
G75*
G02*
X107125000Y-110543750I0J218750D01*
G01*
X107125000Y-110106250D01*
G75*
G02*
X107343750Y-109887500I218750J0D01*
G01*
X107856250Y-109887500D01*
G75*
G02*
X108075000Y-110106250I0J-218750D01*
G01*
X108075000Y-110543750D01*
G75*
G02*
X107856250Y-110762500I-218750J0D01*
G01*
G37*
G04 #@! TD.AperFunction*
G04 #@! TA.AperFunction,SMDPad,CuDef*
G36*
G01*
X107856250Y-112337500D02*
X107343750Y-112337500D01*
G75*
G02*
X107125000Y-112118750I0J218750D01*
G01*
X107125000Y-111681250D01*
G75*
G02*
X107343750Y-111462500I218750J0D01*
G01*
X107856250Y-111462500D01*
G75*
G02*
X108075000Y-111681250I0J-218750D01*
G01*
X108075000Y-112118750D01*
G75*
G02*
X107856250Y-112337500I-218750J0D01*
G01*
G37*
G04 #@! TD.AperFunction*
G04 #@! TA.AperFunction,SMDPad,CuDef*
G36*
G01*
X111056250Y-110762500D02*
X110543750Y-110762500D01*
G75*
G02*
X110325000Y-110543750I0J218750D01*
G01*
X110325000Y-110106250D01*
G75*
G02*
X110543750Y-109887500I218750J0D01*
G01*
X111056250Y-109887500D01*
G75*
G02*
X111275000Y-110106250I0J-218750D01*
G01*
X111275000Y-110543750D01*
G75*
G02*
X111056250Y-110762500I-218750J0D01*
G01*
G37*
G04 #@! TD.AperFunction*
G04 #@! TA.AperFunction,SMDPad,CuDef*
G36*
G01*
X111056250Y-112337500D02*
X110543750Y-112337500D01*
G75*
G02*
X110325000Y-112118750I0J218750D01*
G01*
X110325000Y-111681250D01*
G75*
G02*
X110543750Y-111462500I218750J0D01*
G01*
X111056250Y-111462500D01*
G75*
G02*
X111275000Y-111681250I0J-218750D01*
G01*
X111275000Y-112118750D01*
G75*
G02*
X111056250Y-112337500I-218750J0D01*
G01*
G37*
G04 #@! TD.AperFunction*
D22*
X121200000Y-106250000D03*
X121200000Y-105600000D03*
G04 #@! TA.AperFunction,SMDPad,CuDef*
G36*
G01*
X163245000Y-102577500D02*
X163245000Y-102922500D01*
G75*
G02*
X163097500Y-103070000I-147500J0D01*
G01*
X162802500Y-103070000D01*
G75*
G02*
X162655000Y-102922500I0J147500D01*
G01*
X162655000Y-102577500D01*
G75*
G02*
X162802500Y-102430000I147500J0D01*
G01*
X163097500Y-102430000D01*
G75*
G02*
X163245000Y-102577500I0J-147500D01*
G01*
G37*
G04 #@! TD.AperFunction*
G04 #@! TA.AperFunction,SMDPad,CuDef*
G36*
G01*
X164215000Y-102577500D02*
X164215000Y-102922500D01*
G75*
G02*
X164067500Y-103070000I-147500J0D01*
G01*
X163772500Y-103070000D01*
G75*
G02*
X163625000Y-102922500I0J147500D01*
G01*
X163625000Y-102577500D01*
G75*
G02*
X163772500Y-102430000I147500J0D01*
G01*
X164067500Y-102430000D01*
G75*
G02*
X164215000Y-102577500I0J-147500D01*
G01*
G37*
G04 #@! TD.AperFunction*
G04 #@! TA.AperFunction,SMDPad,CuDef*
G36*
G01*
X159260000Y-102367500D02*
X159260000Y-102712500D01*
G75*
G02*
X159112500Y-102860000I-147500J0D01*
G01*
X158817500Y-102860000D01*
G75*
G02*
X158670000Y-102712500I0J147500D01*
G01*
X158670000Y-102367500D01*
G75*
G02*
X158817500Y-102220000I147500J0D01*
G01*
X159112500Y-102220000D01*
G75*
G02*
X159260000Y-102367500I0J-147500D01*
G01*
G37*
G04 #@! TD.AperFunction*
G04 #@! TA.AperFunction,SMDPad,CuDef*
G36*
G01*
X160230000Y-102367500D02*
X160230000Y-102712500D01*
G75*
G02*
X160082500Y-102860000I-147500J0D01*
G01*
X159787500Y-102860000D01*
G75*
G02*
X159640000Y-102712500I0J147500D01*
G01*
X159640000Y-102367500D01*
G75*
G02*
X159787500Y-102220000I147500J0D01*
G01*
X160082500Y-102220000D01*
G75*
G02*
X160230000Y-102367500I0J-147500D01*
G01*
G37*
G04 #@! TD.AperFunction*
G04 #@! TA.AperFunction,SMDPad,CuDef*
G36*
G01*
X144510000Y-100627500D02*
X144510000Y-100972500D01*
G75*
G02*
X144362500Y-101120000I-147500J0D01*
G01*
X144067500Y-101120000D01*
G75*
G02*
X143920000Y-100972500I0J147500D01*
G01*
X143920000Y-100627500D01*
G75*
G02*
X144067500Y-100480000I147500J0D01*
G01*
X144362500Y-100480000D01*
G75*
G02*
X144510000Y-100627500I0J-147500D01*
G01*
G37*
G04 #@! TD.AperFunction*
G04 #@! TA.AperFunction,SMDPad,CuDef*
G36*
G01*
X145480000Y-100627500D02*
X145480000Y-100972500D01*
G75*
G02*
X145332500Y-101120000I-147500J0D01*
G01*
X145037500Y-101120000D01*
G75*
G02*
X144890000Y-100972500I0J147500D01*
G01*
X144890000Y-100627500D01*
G75*
G02*
X145037500Y-100480000I147500J0D01*
G01*
X145332500Y-100480000D01*
G75*
G02*
X145480000Y-100627500I0J-147500D01*
G01*
G37*
G04 #@! TD.AperFunction*
G04 #@! TA.AperFunction,SMDPad,CuDef*
G36*
G01*
X142640000Y-101342500D02*
X142640000Y-100997500D01*
G75*
G02*
X142787500Y-100850000I147500J0D01*
G01*
X143082500Y-100850000D01*
G75*
G02*
X143230000Y-100997500I0J-147500D01*
G01*
X143230000Y-101342500D01*
G75*
G02*
X143082500Y-101490000I-147500J0D01*
G01*
X142787500Y-101490000D01*
G75*
G02*
X142640000Y-101342500I0J147500D01*
G01*
G37*
G04 #@! TD.AperFunction*
G04 #@! TA.AperFunction,SMDPad,CuDef*
G36*
G01*
X141670000Y-101342500D02*
X141670000Y-100997500D01*
G75*
G02*
X141817500Y-100850000I147500J0D01*
G01*
X142112500Y-100850000D01*
G75*
G02*
X142260000Y-100997500I0J-147500D01*
G01*
X142260000Y-101342500D01*
G75*
G02*
X142112500Y-101490000I-147500J0D01*
G01*
X141817500Y-101490000D01*
G75*
G02*
X141670000Y-101342500I0J147500D01*
G01*
G37*
G04 #@! TD.AperFunction*
G04 #@! TA.AperFunction,SMDPad,CuDef*
G36*
G01*
X140772500Y-108695000D02*
X140427500Y-108695000D01*
G75*
G02*
X140280000Y-108547500I0J147500D01*
G01*
X140280000Y-108252500D01*
G75*
G02*
X140427500Y-108105000I147500J0D01*
G01*
X140772500Y-108105000D01*
G75*
G02*
X140920000Y-108252500I0J-147500D01*
G01*
X140920000Y-108547500D01*
G75*
G02*
X140772500Y-108695000I-147500J0D01*
G01*
G37*
G04 #@! TD.AperFunction*
G04 #@! TA.AperFunction,SMDPad,CuDef*
G36*
G01*
X140772500Y-109665000D02*
X140427500Y-109665000D01*
G75*
G02*
X140280000Y-109517500I0J147500D01*
G01*
X140280000Y-109222500D01*
G75*
G02*
X140427500Y-109075000I147500J0D01*
G01*
X140772500Y-109075000D01*
G75*
G02*
X140920000Y-109222500I0J-147500D01*
G01*
X140920000Y-109517500D01*
G75*
G02*
X140772500Y-109665000I-147500J0D01*
G01*
G37*
G04 #@! TD.AperFunction*
G04 #@! TA.AperFunction,SMDPad,CuDef*
G36*
G01*
X144890000Y-113972500D02*
X144890000Y-113627500D01*
G75*
G02*
X145037500Y-113480000I147500J0D01*
G01*
X145332500Y-113480000D01*
G75*
G02*
X145480000Y-113627500I0J-147500D01*
G01*
X145480000Y-113972500D01*
G75*
G02*
X145332500Y-114120000I-147500J0D01*
G01*
X145037500Y-114120000D01*
G75*
G02*
X144890000Y-113972500I0J147500D01*
G01*
G37*
G04 #@! TD.AperFunction*
G04 #@! TA.AperFunction,SMDPad,CuDef*
G36*
G01*
X143920000Y-113972500D02*
X143920000Y-113627500D01*
G75*
G02*
X144067500Y-113480000I147500J0D01*
G01*
X144362500Y-113480000D01*
G75*
G02*
X144510000Y-113627500I0J-147500D01*
G01*
X144510000Y-113972500D01*
G75*
G02*
X144362500Y-114120000I-147500J0D01*
G01*
X144067500Y-114120000D01*
G75*
G02*
X143920000Y-113972500I0J147500D01*
G01*
G37*
G04 #@! TD.AperFunction*
G04 #@! TA.AperFunction,SMDPad,CuDef*
G36*
G01*
X142260000Y-113627500D02*
X142260000Y-113972500D01*
G75*
G02*
X142112500Y-114120000I-147500J0D01*
G01*
X141817500Y-114120000D01*
G75*
G02*
X141670000Y-113972500I0J147500D01*
G01*
X141670000Y-113627500D01*
G75*
G02*
X141817500Y-113480000I147500J0D01*
G01*
X142112500Y-113480000D01*
G75*
G02*
X142260000Y-113627500I0J-147500D01*
G01*
G37*
G04 #@! TD.AperFunction*
G04 #@! TA.AperFunction,SMDPad,CuDef*
G36*
G01*
X143230000Y-113627500D02*
X143230000Y-113972500D01*
G75*
G02*
X143082500Y-114120000I-147500J0D01*
G01*
X142787500Y-114120000D01*
G75*
G02*
X142640000Y-113972500I0J147500D01*
G01*
X142640000Y-113627500D01*
G75*
G02*
X142787500Y-113480000I147500J0D01*
G01*
X143082500Y-113480000D01*
G75*
G02*
X143230000Y-113627500I0J-147500D01*
G01*
G37*
G04 #@! TD.AperFunction*
G04 #@! TA.AperFunction,SMDPad,CuDef*
G36*
G01*
X140772500Y-106525000D02*
X140427500Y-106525000D01*
G75*
G02*
X140280000Y-106377500I0J147500D01*
G01*
X140280000Y-106082500D01*
G75*
G02*
X140427500Y-105935000I147500J0D01*
G01*
X140772500Y-105935000D01*
G75*
G02*
X140920000Y-106082500I0J-147500D01*
G01*
X140920000Y-106377500D01*
G75*
G02*
X140772500Y-106525000I-147500J0D01*
G01*
G37*
G04 #@! TD.AperFunction*
G04 #@! TA.AperFunction,SMDPad,CuDef*
G36*
G01*
X140772500Y-107495000D02*
X140427500Y-107495000D01*
G75*
G02*
X140280000Y-107347500I0J147500D01*
G01*
X140280000Y-107052500D01*
G75*
G02*
X140427500Y-106905000I147500J0D01*
G01*
X140772500Y-106905000D01*
G75*
G02*
X140920000Y-107052500I0J-147500D01*
G01*
X140920000Y-107347500D01*
G75*
G02*
X140772500Y-107495000I-147500J0D01*
G01*
G37*
G04 #@! TD.AperFunction*
G04 #@! TA.AperFunction,SMDPad,CuDef*
G36*
G01*
X109105000Y-114372500D02*
X109105000Y-114027500D01*
G75*
G02*
X109252500Y-113880000I147500J0D01*
G01*
X109547500Y-113880000D01*
G75*
G02*
X109695000Y-114027500I0J-147500D01*
G01*
X109695000Y-114372500D01*
G75*
G02*
X109547500Y-114520000I-147500J0D01*
G01*
X109252500Y-114520000D01*
G75*
G02*
X109105000Y-114372500I0J147500D01*
G01*
G37*
G04 #@! TD.AperFunction*
G04 #@! TA.AperFunction,SMDPad,CuDef*
G36*
G01*
X108135000Y-114372500D02*
X108135000Y-114027500D01*
G75*
G02*
X108282500Y-113880000I147500J0D01*
G01*
X108577500Y-113880000D01*
G75*
G02*
X108725000Y-114027500I0J-147500D01*
G01*
X108725000Y-114372500D01*
G75*
G02*
X108577500Y-114520000I-147500J0D01*
G01*
X108282500Y-114520000D01*
G75*
G02*
X108135000Y-114372500I0J147500D01*
G01*
G37*
G04 #@! TD.AperFunction*
G04 #@! TA.AperFunction,SMDPad,CuDef*
G36*
G01*
X114052500Y-112810000D02*
X113707500Y-112810000D01*
G75*
G02*
X113560000Y-112662500I0J147500D01*
G01*
X113560000Y-112367500D01*
G75*
G02*
X113707500Y-112220000I147500J0D01*
G01*
X114052500Y-112220000D01*
G75*
G02*
X114200000Y-112367500I0J-147500D01*
G01*
X114200000Y-112662500D01*
G75*
G02*
X114052500Y-112810000I-147500J0D01*
G01*
G37*
G04 #@! TD.AperFunction*
G04 #@! TA.AperFunction,SMDPad,CuDef*
G36*
G01*
X114052500Y-113780000D02*
X113707500Y-113780000D01*
G75*
G02*
X113560000Y-113632500I0J147500D01*
G01*
X113560000Y-113337500D01*
G75*
G02*
X113707500Y-113190000I147500J0D01*
G01*
X114052500Y-113190000D01*
G75*
G02*
X114200000Y-113337500I0J-147500D01*
G01*
X114200000Y-113632500D01*
G75*
G02*
X114052500Y-113780000I-147500J0D01*
G01*
G37*
G04 #@! TD.AperFunction*
G04 #@! TA.AperFunction,SMDPad,CuDef*
G36*
G01*
X116100000Y-107650000D02*
X116100000Y-108750000D01*
G75*
G02*
X115850000Y-109000000I-250000J0D01*
G01*
X113350000Y-109000000D01*
G75*
G02*
X113100000Y-108750000I0J250000D01*
G01*
X113100000Y-107650000D01*
G75*
G02*
X113350000Y-107400000I250000J0D01*
G01*
X115850000Y-107400000D01*
G75*
G02*
X116100000Y-107650000I0J-250000D01*
G01*
G37*
G04 #@! TD.AperFunction*
G04 #@! TA.AperFunction,SMDPad,CuDef*
G36*
G01*
X120500000Y-107650000D02*
X120500000Y-108750000D01*
G75*
G02*
X120250000Y-109000000I-250000J0D01*
G01*
X117750000Y-109000000D01*
G75*
G02*
X117500000Y-108750000I0J250000D01*
G01*
X117500000Y-107650000D01*
G75*
G02*
X117750000Y-107400000I250000J0D01*
G01*
X120250000Y-107400000D01*
G75*
G02*
X120500000Y-107650000I0J-250000D01*
G01*
G37*
G04 #@! TD.AperFunction*
D23*
X165700000Y-102750000D03*
X168700000Y-102750000D03*
D24*
X167200000Y-104225000D03*
X167200000Y-101275000D03*
D23*
X159700000Y-107710000D03*
X162700000Y-107710000D03*
D24*
X161200000Y-109185000D03*
X161200000Y-106235000D03*
D25*
X167950000Y-113250000D03*
X167950000Y-110750000D03*
D26*
X161940000Y-114030000D03*
D27*
X143000000Y-106600000D03*
X141500000Y-106200000D03*
D26*
X138450000Y-101700000D03*
X115400000Y-113950000D03*
D27*
X105500000Y-108000000D03*
X137215655Y-110580000D03*
X143070000Y-104110000D03*
D26*
X143195557Y-109932717D03*
D27*
X148900000Y-113750000D03*
X158969990Y-102540000D03*
X117810000Y-106570000D03*
X117150000Y-106570000D03*
D26*
X134093503Y-107764080D03*
X105310000Y-110539988D03*
X122049990Y-105370000D03*
X134350000Y-104390010D03*
X125210000Y-107839978D03*
D27*
X119000000Y-105600000D03*
D26*
X111000000Y-106800000D03*
X134730000Y-108380000D03*
X104810000Y-105760000D03*
X134876393Y-109023571D03*
X104280000Y-106760000D03*
X140890036Y-112907052D03*
X137800000Y-101500000D03*
X141550000Y-112914936D03*
X139850000Y-101445046D03*
X135440376Y-108609256D03*
X103999990Y-109690000D03*
X144990000Y-110370000D03*
X145070243Y-105305036D03*
X145010000Y-106570000D03*
X135940000Y-103720000D03*
X162730000Y-110660000D03*
X133003961Y-108449080D03*
X139122765Y-112141767D03*
X163010000Y-111760000D03*
X133470653Y-107982389D03*
X138335382Y-111889933D03*
X117830000Y-104970000D03*
X117230000Y-104480000D03*
X161000000Y-110600000D03*
X136790000Y-103150000D03*
X144779979Y-109628477D03*
X159930000Y-110450000D03*
D27*
X105130000Y-102370000D03*
D26*
X141180553Y-100899447D03*
X156537865Y-111465409D03*
X145020000Y-104000000D03*
X134440039Y-105920000D03*
X145210000Y-104660000D03*
X134800000Y-106600000D03*
X148770000Y-111360000D03*
X156711031Y-113811936D03*
X136150000Y-102960000D03*
X156820000Y-107970000D03*
X155760000Y-112850000D03*
X144200000Y-102970000D03*
X136790000Y-102470000D03*
X158700000Y-113100000D03*
X149428676Y-111401820D03*
X146960006Y-110560006D03*
X146078517Y-101441483D03*
D27*
X115000000Y-106400000D03*
X114200000Y-106400000D03*
D26*
X136010000Y-110480000D03*
X131860000Y-107180000D03*
X120969999Y-109440000D03*
D27*
X109410000Y-114210000D03*
X112400000Y-105400000D03*
X113600000Y-108650000D03*
X113600000Y-107760000D03*
X115400000Y-108200000D03*
X107000000Y-105800000D03*
X108200000Y-105800000D03*
X109200000Y-105800000D03*
X158700000Y-107100000D03*
X158700000Y-108325000D03*
X159420000Y-108930000D03*
X159420000Y-106510000D03*
X165420000Y-101600000D03*
X165410000Y-104000000D03*
X164680000Y-103440000D03*
X164660000Y-102050000D03*
X158700000Y-105320000D03*
X115970000Y-105540000D03*
X119850000Y-106570000D03*
X103280000Y-112220000D03*
X102980000Y-103500000D03*
X102940000Y-110150000D03*
X112400000Y-111885000D03*
D26*
X155000000Y-104000000D03*
D27*
X153000000Y-104000000D03*
X151000000Y-104000000D03*
X155000000Y-105600000D03*
X153000000Y-105600000D03*
X151000000Y-105600000D03*
X149000000Y-104000000D03*
X153000000Y-108800000D03*
X155000000Y-108800000D03*
X155000000Y-107200000D03*
X153000000Y-107200000D03*
X151000000Y-107200000D03*
X149000000Y-105600000D03*
X149000000Y-108800000D03*
X164600000Y-111600000D03*
X145185000Y-113800000D03*
X151300000Y-113100000D03*
X157700000Y-113000000D03*
D26*
X139790000Y-104200000D03*
D27*
X148133162Y-101406838D03*
X149743154Y-101540000D03*
X114345000Y-112050000D03*
X165240000Y-107460000D03*
X167870000Y-107440000D03*
X163220000Y-106180000D03*
X169240000Y-104300000D03*
X169250000Y-101220000D03*
X115400000Y-112050000D03*
X139310000Y-108100000D03*
X153750000Y-112840002D03*
D26*
X112870000Y-113160000D03*
X149400000Y-100500000D03*
X107300000Y-109200000D03*
X155000000Y-100800000D03*
X108800000Y-108800000D03*
X137732429Y-112250032D03*
X156800000Y-109750000D03*
X154650000Y-112900000D03*
X155040000Y-109510000D03*
X153200000Y-111450000D03*
X136950000Y-114430000D03*
X118550000Y-112490000D03*
X152540000Y-111430000D03*
X120180000Y-111440000D03*
X137770000Y-114510088D03*
X160400000Y-103400000D03*
X147600000Y-103000000D03*
D28*
X140600000Y-107200000D02*
X139830000Y-107200000D01*
X139300000Y-106670000D02*
X139300000Y-106200000D01*
X139830000Y-107200000D02*
X139300000Y-106670000D01*
D29*
X113880000Y-113485000D02*
X113880000Y-113690000D01*
X114140000Y-113950000D02*
X115400000Y-113950000D01*
X113880000Y-113690000D02*
X114140000Y-113950000D01*
D28*
X158965000Y-104147002D02*
X158965000Y-102540000D01*
X159167998Y-104350000D02*
X158965000Y-104147002D01*
X159450000Y-104350000D02*
X159167998Y-104350000D01*
D30*
X111885000Y-114200000D02*
X112790000Y-114200000D01*
X113505000Y-113485000D02*
X113880000Y-113485000D01*
X112790000Y-114200000D02*
X113505000Y-113485000D01*
D29*
X115400000Y-113950000D02*
X115400000Y-113950000D01*
D31*
X138326354Y-102177199D02*
X137400001Y-102177199D01*
X137400001Y-102177199D02*
X136782802Y-101560000D01*
X138450000Y-102053553D02*
X138326354Y-102177199D01*
X138450000Y-101700000D02*
X138450000Y-102053553D01*
X136782802Y-101560000D02*
X136540000Y-101560000D01*
D32*
X136540000Y-101560000D02*
X135610000Y-101560000D01*
X135610000Y-101560000D02*
X133100000Y-104070000D01*
X126470000Y-104070000D02*
X124600000Y-102200000D01*
X133100000Y-104070000D02*
X126470000Y-104070000D01*
D33*
X137215655Y-107844345D02*
X137215655Y-110580000D01*
X137800000Y-107260000D02*
X137215655Y-107844345D01*
X139300000Y-106960000D02*
X139000000Y-107260000D01*
X139000000Y-107260000D02*
X137800000Y-107260000D01*
X139300000Y-106200000D02*
X139300000Y-106960000D01*
D28*
X138666499Y-105566499D02*
X139300000Y-106200000D01*
X137103501Y-105566499D02*
X138666499Y-105566499D01*
X136700000Y-105970000D02*
X137103501Y-105566499D01*
D30*
X141530000Y-107700000D02*
X141030000Y-107200000D01*
X142250000Y-107700000D02*
X141530000Y-107700000D01*
X141030000Y-107200000D02*
X140600000Y-107200000D01*
X142630000Y-107700000D02*
X142250000Y-107700000D01*
X142930000Y-108000000D02*
X142630000Y-107700000D01*
X142930000Y-109610000D02*
X142930000Y-108000000D01*
X143195557Y-109875557D02*
X142930000Y-109610000D01*
X143195557Y-109932717D02*
X143195557Y-109875557D01*
D28*
X148305000Y-113750000D02*
X148900000Y-113750000D01*
X148900000Y-113750000D02*
X149480000Y-113750000D01*
X158965000Y-102540000D02*
X158969990Y-102540000D01*
D29*
X117400000Y-113000000D02*
X117400000Y-112210000D01*
X119000000Y-110610000D02*
X119000000Y-108200000D01*
X117400000Y-112210000D02*
X119000000Y-110610000D01*
X117150000Y-106570000D02*
X117810000Y-106570000D01*
X117810000Y-107010000D02*
X119000000Y-108200000D01*
X117810000Y-106570000D02*
X117810000Y-107010000D01*
D34*
X142780012Y-112230012D02*
X142750000Y-112200000D01*
X142935000Y-113800000D02*
X142780012Y-113645012D01*
D29*
X127140000Y-100850000D02*
X126930000Y-100640000D01*
X127140000Y-102200000D02*
X127140000Y-100850000D01*
X126930000Y-100640000D02*
X138940000Y-100640000D01*
D28*
X142750000Y-102200000D02*
X142750000Y-101860000D01*
X142935000Y-101675000D02*
X142935000Y-101170000D01*
X142750000Y-101860000D02*
X142935000Y-101675000D01*
D30*
X142935000Y-101170000D02*
X143340000Y-101170000D01*
X143710000Y-100800000D02*
X144215000Y-100800000D01*
X143340000Y-101170000D02*
X143710000Y-100800000D01*
X142935000Y-100850000D02*
X142445010Y-100360010D01*
X142935000Y-101170000D02*
X142935000Y-100850000D01*
X142445010Y-100360010D02*
X140760000Y-100360010D01*
D29*
X139456244Y-100640000D02*
X139461234Y-100635010D01*
X138940000Y-100640000D02*
X139456244Y-100640000D01*
X139461234Y-100635010D02*
X140370552Y-100635010D01*
D31*
X140485000Y-100635010D02*
X140685000Y-100435010D01*
X140685000Y-100435010D02*
X140760000Y-100435010D01*
X140370552Y-100635010D02*
X140485000Y-100635010D01*
D30*
X142750000Y-112200000D02*
X142750000Y-112780000D01*
X142935000Y-112965000D02*
X142935000Y-113800000D01*
X142750000Y-112780000D02*
X142935000Y-112965000D01*
X142935000Y-113800000D02*
X144215000Y-113800000D01*
D31*
X142935000Y-114135000D02*
X142505010Y-114564990D01*
X142935000Y-113800000D02*
X142935000Y-114135000D01*
X142505010Y-114564990D02*
X141692260Y-114564990D01*
X141692260Y-114564990D02*
X141130000Y-114564990D01*
D32*
X139826192Y-114484990D02*
X141130000Y-114484990D01*
X139031202Y-113690000D02*
X139826192Y-114484990D01*
X136694702Y-113690000D02*
X139031202Y-113690000D01*
X136064701Y-114320001D02*
X136694702Y-113690000D01*
X118290001Y-114320001D02*
X136064701Y-114320001D01*
X117400000Y-113430000D02*
X118290001Y-114320001D01*
X117400000Y-113000000D02*
X117400000Y-113430000D01*
D29*
X122860000Y-100640000D02*
X126930000Y-100640000D01*
X121220000Y-108200000D02*
X122860000Y-106560000D01*
X119000000Y-108200000D02*
X121220000Y-108200000D01*
X122860000Y-106560000D02*
X122860000Y-100640000D01*
D28*
X121200000Y-106250000D02*
X121610000Y-106250000D01*
X122049990Y-105810010D02*
X122049990Y-105370000D01*
X121610000Y-106250000D02*
X122049990Y-105810010D01*
X131960022Y-107839978D02*
X125210000Y-107839978D01*
X133310018Y-106489982D02*
X131960022Y-107839978D01*
X133310018Y-105076439D02*
X133310018Y-106489982D01*
X134350000Y-104390010D02*
X133996447Y-104390010D01*
X133996447Y-104390010D02*
X133310018Y-105076439D01*
D31*
X118500000Y-103225000D02*
X118500000Y-104900000D01*
X118500000Y-105100000D02*
X119000000Y-105600000D01*
X118500000Y-104900000D02*
X118500000Y-105100000D01*
D28*
X111600000Y-107400000D02*
X111000000Y-106800000D01*
X111600000Y-107515000D02*
X111600000Y-107400000D01*
X141776000Y-110700000D02*
X140890036Y-111585964D01*
X140890036Y-111585964D02*
X140890036Y-112907052D01*
X142250000Y-110700000D02*
X141776000Y-110700000D01*
X142250000Y-111200000D02*
X141940000Y-111200000D01*
X141940000Y-111200000D02*
X141550000Y-111590000D01*
X141550000Y-111590000D02*
X141550000Y-112914936D01*
X132077840Y-108649999D02*
X124210001Y-108649999D01*
X134204838Y-105429999D02*
X133950039Y-105684798D01*
X133950039Y-106777800D02*
X132077840Y-108649999D01*
X124210001Y-108649999D02*
X123470000Y-109390000D01*
X134477478Y-105429999D02*
X134204838Y-105429999D01*
X133950039Y-105684798D02*
X133950039Y-106777800D01*
X135940000Y-103967477D02*
X134477478Y-105429999D01*
X135940000Y-103720000D02*
X135940000Y-103967477D01*
X133003961Y-108449080D02*
X133253960Y-108699079D01*
X137117481Y-113060044D02*
X138204488Y-113060044D01*
X138204488Y-113060044D02*
X139122765Y-112141767D01*
X133253960Y-109196523D02*
X137117481Y-113060044D01*
X133253960Y-108699079D02*
X133253960Y-109196523D01*
X138335382Y-112352281D02*
X138335382Y-111889933D01*
X137947630Y-112740033D02*
X138335382Y-112352281D01*
X137497228Y-112740033D02*
X137947630Y-112740033D01*
X133720652Y-108963457D02*
X137497228Y-112740033D01*
X133720652Y-108232388D02*
X133720652Y-108963457D01*
X133470653Y-107982389D02*
X133720652Y-108232388D01*
X117850000Y-104950000D02*
X117830000Y-104970000D01*
X117850000Y-103225000D02*
X117850000Y-104950000D01*
X117230000Y-103255000D02*
X117200000Y-103225000D01*
X117230000Y-104480000D02*
X117230000Y-103255000D01*
D34*
X165700000Y-102750000D02*
X163920000Y-102750000D01*
D28*
X129820000Y-109777320D02*
X129820000Y-109390000D01*
D34*
X157760000Y-107710000D02*
X157750000Y-107700000D01*
X159700000Y-107710000D02*
X157760000Y-107710000D01*
D28*
X105900000Y-112200000D02*
X107770000Y-114070000D01*
X107900000Y-114200000D02*
X107770000Y-114070000D01*
X108430000Y-114200000D02*
X107900000Y-114200000D01*
X110915000Y-114200000D02*
X110915000Y-113475000D01*
X110915000Y-113475000D02*
X110540000Y-113100000D01*
X110540000Y-113100000D02*
X108730000Y-113100000D01*
X108430000Y-113400000D02*
X108430000Y-114200000D01*
X108730000Y-113100000D02*
X108430000Y-113400000D01*
X105900000Y-103140000D02*
X105130000Y-102370000D01*
X140600000Y-103915000D02*
X140600000Y-101480000D01*
X140600000Y-101480000D02*
X141180553Y-100899447D01*
X105900000Y-103140000D02*
X105900000Y-103150000D01*
X105900000Y-103150000D02*
X106250000Y-103500000D01*
X106250000Y-103500000D02*
X106250000Y-110750000D01*
X105900000Y-111100000D02*
X105900000Y-112200000D01*
X106250000Y-110750000D02*
X105900000Y-111100000D01*
D30*
X142250000Y-108200000D02*
X141560000Y-108200000D01*
X141360000Y-108400000D02*
X140600000Y-108400000D01*
X141560000Y-108200000D02*
X141360000Y-108400000D01*
D28*
X156250000Y-112200000D02*
X156250000Y-111753274D01*
X156250000Y-111753274D02*
X156537865Y-111465409D01*
D34*
X161525000Y-102750000D02*
X161450000Y-102675000D01*
X162950000Y-102750000D02*
X161525000Y-102750000D01*
D28*
X120430000Y-102130000D02*
X116735000Y-102130000D01*
X121300000Y-103000000D02*
X120430000Y-102130000D01*
X116550000Y-102315000D02*
X116550000Y-103225000D01*
X121300000Y-105500000D02*
X121300000Y-103000000D01*
X116735000Y-102130000D02*
X116550000Y-102315000D01*
X121200000Y-105600000D02*
X121300000Y-105500000D01*
D34*
X151750000Y-101490000D02*
X151750000Y-102200000D01*
X151600000Y-101340000D02*
X151750000Y-101490000D01*
X151600000Y-100800000D02*
X151600000Y-101340000D01*
X152250000Y-102200000D02*
X152250000Y-101480000D01*
X152915000Y-100815000D02*
X152915000Y-100800000D01*
X152250000Y-101480000D02*
X152915000Y-100815000D01*
D28*
X137960000Y-105000000D02*
X138030000Y-104930000D01*
X136700000Y-105000000D02*
X137960000Y-105000000D01*
X135360039Y-105000000D02*
X134440039Y-105920000D01*
X136700000Y-105000000D02*
X135360039Y-105000000D01*
X140555000Y-104930000D02*
X140600000Y-104885000D01*
X139300000Y-104930000D02*
X140555000Y-104930000D01*
X138030000Y-106200000D02*
X137630000Y-106600000D01*
X137630000Y-106600000D02*
X134800000Y-106600000D01*
X159380000Y-111460000D02*
X159200000Y-111280000D01*
X160680000Y-111460000D02*
X159380000Y-111460000D01*
X160680000Y-112730000D02*
X160330001Y-113079999D01*
D34*
X148250000Y-112740000D02*
X148250000Y-112200000D01*
X148510000Y-113000000D02*
X148250000Y-112740000D01*
X150290000Y-113000000D02*
X148510000Y-113000000D01*
X150450000Y-113160000D02*
X150290000Y-113000000D01*
X150450000Y-113750000D02*
X150450000Y-113160000D01*
D28*
X151064979Y-114364979D02*
X150450000Y-113750000D01*
X155885021Y-114364979D02*
X151064979Y-114364979D01*
X156200000Y-114050000D02*
X155885021Y-114364979D01*
X156200000Y-113396276D02*
X156200000Y-114050000D01*
X157211491Y-113311491D02*
X156979999Y-113079999D01*
X156979999Y-113079999D02*
X156516277Y-113079999D01*
X157211491Y-113611491D02*
X157211491Y-113311491D01*
X157400000Y-113800000D02*
X157211491Y-113611491D01*
X156516277Y-113079999D02*
X156200000Y-113396276D01*
X159610000Y-113800000D02*
X157400000Y-113800000D01*
X160680000Y-112730000D02*
X159610000Y-113800000D01*
X163665000Y-112730000D02*
X163700000Y-112765000D01*
X161950000Y-112730000D02*
X163665000Y-112730000D01*
X148770000Y-111360000D02*
X148770000Y-111460000D01*
X148750000Y-111480000D02*
X148750000Y-112200000D01*
X148770000Y-111460000D02*
X148750000Y-111480000D01*
X157019106Y-114120011D02*
X156711031Y-113811936D01*
X160680000Y-114000000D02*
X160559989Y-114120011D01*
X160559989Y-114120011D02*
X157019106Y-114120011D01*
X133630028Y-106645248D02*
X133630028Y-105552246D01*
X122200000Y-109390000D02*
X123260012Y-108329988D01*
X123260012Y-108329988D02*
X131945288Y-108329988D01*
X131945288Y-108329988D02*
X133630028Y-106645248D01*
X135430000Y-104024915D02*
X135430000Y-103326447D01*
X133630028Y-105552246D02*
X134072286Y-105109988D01*
X135796447Y-102960000D02*
X136150000Y-102960000D01*
X135430000Y-103326447D02*
X135796447Y-102960000D01*
X134344926Y-105109988D02*
X135430000Y-104024915D01*
X134072286Y-105109988D02*
X134344926Y-105109988D01*
X127280000Y-109766730D02*
X127280000Y-109390000D01*
X155750000Y-112200000D02*
X155750000Y-112840000D01*
X155750000Y-112840000D02*
X155760000Y-112850000D01*
D34*
X161350000Y-104350000D02*
X159850000Y-104350000D01*
X161450000Y-104250000D02*
X161350000Y-104350000D01*
D28*
X144200000Y-102970000D02*
X143370000Y-102970000D01*
X143250000Y-102850000D02*
X143250000Y-102200000D01*
X143370000Y-102970000D02*
X143250000Y-102850000D01*
X159200000Y-112600000D02*
X158700000Y-113100000D01*
X159200000Y-112250000D02*
X159200000Y-112600000D01*
X158700000Y-113100000D02*
X158700000Y-113100000D01*
X147750000Y-111350000D02*
X146960006Y-110560006D01*
X147750000Y-112200000D02*
X147750000Y-111350000D01*
X147750000Y-112200000D02*
X147750000Y-112830000D01*
X147335000Y-113245000D02*
X147335000Y-113750000D01*
X147750000Y-112830000D02*
X147335000Y-113245000D01*
X163700000Y-114030000D02*
X163700000Y-113735000D01*
X163045010Y-114684990D02*
X163700000Y-114030000D01*
X147949990Y-114684990D02*
X163045010Y-114684990D01*
X147335000Y-114070000D02*
X147949990Y-114684990D01*
X147335000Y-113750000D02*
X147335000Y-114070000D01*
X149250000Y-101760000D02*
X149250000Y-102200000D01*
X148320000Y-100830000D02*
X149250000Y-101760000D01*
X146690000Y-100830000D02*
X148320000Y-100830000D01*
X146078517Y-101441483D02*
X146690000Y-100830000D01*
D29*
X109527198Y-103800000D02*
X112127198Y-106400000D01*
X108250000Y-103800000D02*
X109527198Y-103800000D01*
X112127198Y-106400000D02*
X114200000Y-106400000D01*
X115000000Y-106400000D02*
X115000000Y-106400000D01*
D28*
X136010000Y-110740000D02*
X136010000Y-110480000D01*
X137710000Y-111290000D02*
X136560000Y-111290000D01*
X138290000Y-110710000D02*
X137710000Y-111290000D01*
X136560000Y-111290000D02*
X136010000Y-110740000D01*
X138290000Y-110500000D02*
X138290000Y-110710000D01*
X120969999Y-109355111D02*
X120969999Y-109440000D01*
X123145110Y-107180000D02*
X120969999Y-109355111D01*
X131860000Y-107180000D02*
X123145110Y-107180000D01*
D34*
X152015000Y-113800000D02*
X152015000Y-113085000D01*
X152250000Y-112850000D02*
X152250000Y-112200000D01*
X152015000Y-113085000D02*
X152250000Y-112850000D01*
X145185000Y-113800000D02*
X145185000Y-113800000D01*
X145185000Y-100800000D02*
X145185000Y-101175000D01*
X144750000Y-101610000D02*
X144750000Y-102200000D01*
X145185000Y-101175000D02*
X144750000Y-101610000D01*
D29*
X114345000Y-112050000D02*
X114345000Y-112050000D01*
X115400000Y-112050000D02*
X115400000Y-112050000D01*
D31*
X101720000Y-112220000D02*
X101700000Y-112200000D01*
X103280000Y-112220000D02*
X101720000Y-112220000D01*
X112385000Y-111900000D02*
X112400000Y-111885000D01*
X107600000Y-111900000D02*
X112385000Y-111900000D01*
D32*
X154000000Y-104000000D02*
X155000000Y-104000000D01*
X152000000Y-104000000D02*
X153000000Y-104000000D01*
X150000000Y-104000000D02*
X151000000Y-104000000D01*
X148000000Y-104000000D02*
X149000000Y-104000000D01*
X146000000Y-104000000D02*
X148000000Y-104000000D01*
X144000000Y-104000000D02*
X144000000Y-105600000D01*
X144000000Y-105600000D02*
X144000000Y-107200000D01*
X146000000Y-105600000D02*
X148000000Y-105600000D01*
X148000000Y-105600000D02*
X149000000Y-105600000D01*
X150000000Y-105600000D02*
X151000000Y-105600000D01*
X152000000Y-105600000D02*
X153000000Y-105600000D01*
X154000000Y-105600000D02*
X155000000Y-105600000D01*
X154000000Y-107200000D02*
X155000000Y-107200000D01*
X154000000Y-108800000D02*
X156000000Y-108800000D01*
X154000000Y-110400000D02*
X156000000Y-110400000D01*
X152000000Y-108800000D02*
X154000000Y-108800000D01*
X152000000Y-107200000D02*
X153000000Y-107200000D01*
X150000000Y-107200000D02*
X151000000Y-107200000D01*
X148000000Y-107200000D02*
X150000000Y-107200000D01*
X146000000Y-107200000D02*
X148000000Y-107200000D01*
X144000000Y-108800000D02*
X146000000Y-108800000D01*
X144000000Y-107200000D02*
X144000000Y-108800000D01*
X146000000Y-107200000D02*
X146000000Y-108800000D01*
X146000000Y-108800000D02*
X149000000Y-108800000D01*
X146000000Y-104000000D02*
X146000000Y-110400000D01*
X148000000Y-104000000D02*
X148000000Y-110400000D01*
X150000000Y-110400000D02*
X150000000Y-104000000D01*
X152000000Y-104000000D02*
X152000000Y-110400000D01*
X154000000Y-110400000D02*
X154000000Y-104000000D01*
X156000000Y-104000000D02*
X156000000Y-110400000D01*
X154000000Y-110400000D02*
X148000000Y-110400000D01*
X144000000Y-110400000D02*
X144000000Y-108800000D01*
X155000000Y-104000000D02*
X156000000Y-104000000D01*
X153000000Y-104000000D02*
X154000000Y-104000000D01*
X151000000Y-104000000D02*
X152000000Y-104000000D01*
X155000000Y-105600000D02*
X156000000Y-105600000D01*
X153000000Y-105600000D02*
X154000000Y-105600000D01*
X151000000Y-105600000D02*
X152000000Y-105600000D01*
X149000000Y-104000000D02*
X150000000Y-104000000D01*
X153000000Y-108800000D02*
X155000000Y-108800000D01*
X155000000Y-108800000D02*
X156000000Y-108800000D01*
X155000000Y-107200000D02*
X156000000Y-107200000D01*
X153000000Y-107200000D02*
X154000000Y-107200000D01*
X151000000Y-107200000D02*
X152000000Y-107200000D01*
X149000000Y-105600000D02*
X150000000Y-105600000D01*
X149000000Y-108800000D02*
X153000000Y-108800000D01*
D28*
X159450000Y-103550000D02*
X159450000Y-103950000D01*
X159935000Y-103065000D02*
X159450000Y-103550000D01*
X159935000Y-102540000D02*
X159935000Y-103065000D01*
D31*
X144000000Y-107200000D02*
X146000000Y-107200000D01*
X144777442Y-105915037D02*
X145684963Y-105915037D01*
X145684963Y-105915037D02*
X146000000Y-105600000D01*
X144462405Y-105600000D02*
X144777442Y-105915037D01*
X144000000Y-105600000D02*
X144462405Y-105600000D01*
D30*
X157750000Y-110200000D02*
X158300000Y-110200000D01*
X158650000Y-108200000D02*
X158700000Y-108250000D01*
X157750000Y-108200000D02*
X158650000Y-108200000D01*
X158690000Y-107200000D02*
X158710000Y-107180000D01*
X157750000Y-107200000D02*
X158690000Y-107200000D01*
X158580000Y-105200000D02*
X158700000Y-105320000D01*
X157750000Y-105200000D02*
X158580000Y-105200000D01*
X158320000Y-105700000D02*
X158700000Y-105320000D01*
X157750000Y-105700000D02*
X158320000Y-105700000D01*
X157750000Y-106700000D02*
X158800000Y-106700000D01*
X158990000Y-106510000D02*
X159420000Y-106510000D01*
X158800000Y-106700000D02*
X158990000Y-106510000D01*
X157750000Y-102200000D02*
X157750000Y-101350000D01*
X156750000Y-102200000D02*
X156750000Y-101350000D01*
X156250000Y-102200000D02*
X156250000Y-101650000D01*
X155750000Y-102200000D02*
X155750000Y-101150000D01*
X152750000Y-102200000D02*
X152750000Y-101650000D01*
X155250000Y-102200000D02*
X155250000Y-101650000D01*
X154750000Y-102200000D02*
X154750000Y-101650000D01*
X154750000Y-101650000D02*
X155250000Y-101650000D01*
X154250000Y-102200000D02*
X154250000Y-101650000D01*
X154250000Y-101650000D02*
X154750000Y-101650000D01*
X153750000Y-102200000D02*
X153750000Y-101650000D01*
X153750000Y-101650000D02*
X154250000Y-101650000D01*
X153250000Y-102200000D02*
X153250000Y-101650000D01*
X153250000Y-101650000D02*
X153750000Y-101650000D01*
X152750000Y-101650000D02*
X153250000Y-101650000D01*
D31*
X155052802Y-101650000D02*
X152750000Y-101650000D01*
X155452802Y-101250000D02*
X155052802Y-101650000D01*
X155650000Y-101250000D02*
X155452802Y-101250000D01*
D30*
X155250000Y-101650000D02*
X155650000Y-101250000D01*
X155650000Y-101250000D02*
X155900000Y-101000000D01*
D31*
X155052802Y-101650000D02*
X155052802Y-101647198D01*
D28*
X159850000Y-104750000D02*
X160100000Y-105000000D01*
X160100000Y-105000000D02*
X160200000Y-105100000D01*
X160200000Y-105100000D02*
X160800000Y-105100000D01*
X158644990Y-104200000D02*
X158644990Y-103300000D01*
X158644990Y-103300000D02*
X158644990Y-103088012D01*
X158429990Y-102873012D02*
X158429990Y-101870010D01*
X158644990Y-103088012D02*
X158429990Y-102873012D01*
X158429990Y-101870010D02*
X158500000Y-101800000D01*
D30*
X157750000Y-103700000D02*
X158500000Y-103700000D01*
X157750000Y-104200000D02*
X158400000Y-104200000D01*
D28*
X158400000Y-104200000D02*
X158644990Y-104200000D01*
D30*
X162986801Y-111195001D02*
X164100000Y-110081802D01*
X162804999Y-111195001D02*
X162986801Y-111195001D01*
X162540000Y-111460000D02*
X162804999Y-111195001D01*
X161950000Y-111460000D02*
X162540000Y-111460000D01*
X158063002Y-112200000D02*
X158500000Y-111763002D01*
X157750000Y-112200000D02*
X158063002Y-112200000D01*
X158500000Y-111763002D02*
X158500000Y-110400000D01*
X158500000Y-110400000D02*
X158800000Y-110100000D01*
X152000000Y-113800000D02*
X151300000Y-113100000D01*
X152015000Y-113800000D02*
X152000000Y-113800000D01*
D28*
X150849990Y-112649990D02*
X151300000Y-113100000D01*
X149967988Y-112649990D02*
X150849990Y-112649990D01*
X149750000Y-112432002D02*
X149967988Y-112649990D01*
X149750000Y-112200000D02*
X149750000Y-112432002D01*
D30*
X144000000Y-107200000D02*
X142250000Y-107200000D01*
X141470000Y-106230000D02*
X141500000Y-106200000D01*
X140600000Y-106230000D02*
X141470000Y-106230000D01*
X141936998Y-107200000D02*
X142250000Y-107200000D01*
X141500000Y-106763002D02*
X141936998Y-107200000D01*
X141500000Y-106200000D02*
X141500000Y-106763002D01*
X142250000Y-106200000D02*
X141500000Y-106200000D01*
X142600000Y-106200000D02*
X142250000Y-106200000D01*
X143000000Y-106600000D02*
X142600000Y-106200000D01*
X143000000Y-106600000D02*
X143000000Y-106100000D01*
X143500000Y-105600000D02*
X144000000Y-105600000D01*
X143000000Y-106100000D02*
X143500000Y-105600000D01*
X142250000Y-104200000D02*
X141700000Y-104200000D01*
X141700000Y-104200000D02*
X141500000Y-104400000D01*
X142250000Y-104700000D02*
X141500000Y-104700000D01*
X141500000Y-104400000D02*
X141500000Y-104700000D01*
X142250000Y-105200000D02*
X141500000Y-105200000D01*
X141500000Y-104700000D02*
X141500000Y-105200000D01*
X139330000Y-109370000D02*
X139260000Y-109300000D01*
X140600000Y-109370000D02*
X139330000Y-109370000D01*
X139260000Y-108150000D02*
X139310000Y-108100000D01*
X139260000Y-109300000D02*
X139260000Y-108150000D01*
X141130000Y-109370000D02*
X140600000Y-109370000D01*
X141800000Y-108700000D02*
X141130000Y-109370000D01*
X142250000Y-108700000D02*
X141800000Y-108700000D01*
D28*
X139300000Y-103710000D02*
X139790000Y-104200000D01*
X139300000Y-103660000D02*
X139300000Y-103710000D01*
D30*
X146750000Y-101800000D02*
X147198517Y-101351483D01*
X146750000Y-102200000D02*
X146750000Y-101800000D01*
X151250000Y-101800000D02*
X150989999Y-101539999D01*
X151250000Y-102200000D02*
X151250000Y-101800000D01*
X148077807Y-101351483D02*
X148133162Y-101406838D01*
X147198517Y-101351483D02*
X148077807Y-101351483D01*
X148269840Y-101406838D02*
X148133162Y-101406838D01*
X148750000Y-101886998D02*
X148269840Y-101406838D01*
X148750000Y-102200000D02*
X148750000Y-101886998D01*
X149743155Y-101539999D02*
X149743154Y-101540000D01*
X150989999Y-101539999D02*
X149743155Y-101539999D01*
X144750000Y-103250000D02*
X144000000Y-104000000D01*
X144750000Y-102200000D02*
X144750000Y-103250000D01*
X141545563Y-104354437D02*
X141500000Y-104400000D01*
X141545563Y-102504437D02*
X141545563Y-104354437D01*
X141850000Y-102200000D02*
X141545563Y-102504437D01*
X142250000Y-102200000D02*
X141850000Y-102200000D01*
X142250000Y-102200000D02*
X142250000Y-101870000D01*
X141965000Y-101585000D02*
X141965000Y-101170000D01*
X142250000Y-101870000D02*
X141965000Y-101585000D01*
D29*
X114345000Y-112050000D02*
X113880000Y-112515000D01*
D34*
X142250000Y-113010000D02*
X142250000Y-112200000D01*
X141960000Y-113300000D02*
X142250000Y-113010000D01*
X141960000Y-113795000D02*
X141960000Y-113300000D01*
X141965000Y-113800000D02*
X141960000Y-113795000D01*
D32*
X140200035Y-113238253D02*
X140200035Y-110869965D01*
X140558835Y-113597053D02*
X140200035Y-113238253D01*
X141260310Y-113597053D02*
X140558835Y-113597053D01*
X141463257Y-113800000D02*
X141260310Y-113597053D01*
X141965000Y-113800000D02*
X141463257Y-113800000D01*
X140600000Y-110470000D02*
X140600000Y-109370000D01*
X140200035Y-110869965D02*
X140600000Y-110470000D01*
D31*
X115900000Y-105470000D02*
X115970000Y-105540000D01*
X115900000Y-103225000D02*
X115900000Y-105470000D01*
D29*
X115400000Y-112050000D02*
X114345000Y-112050000D01*
D30*
X142671038Y-110200000D02*
X142938756Y-110467718D01*
X142250000Y-110200000D02*
X142671038Y-110200000D01*
X143932282Y-110467718D02*
X144000000Y-110400000D01*
X142938756Y-110467718D02*
X143932282Y-110467718D01*
X140870000Y-110200000D02*
X140600000Y-110470000D01*
X142250000Y-110200000D02*
X140870000Y-110200000D01*
X141510000Y-105700000D02*
X141500000Y-105690000D01*
X142250000Y-105700000D02*
X141510000Y-105700000D01*
X141500000Y-105690000D02*
X141500000Y-106200000D01*
X141500000Y-105200000D02*
X141500000Y-105690000D01*
D34*
X145250000Y-112955000D02*
X145250000Y-112200000D01*
X145185000Y-113020000D02*
X145250000Y-112955000D01*
X145185000Y-113800000D02*
X145185000Y-113020000D01*
D30*
X145985000Y-113000000D02*
X145185000Y-113800000D01*
X146970000Y-113000000D02*
X145985000Y-113000000D01*
X147250000Y-112720000D02*
X146970000Y-113000000D01*
X147250000Y-112200000D02*
X147250000Y-112720000D01*
X157410000Y-112710000D02*
X157700000Y-113000000D01*
X156920000Y-112710000D02*
X157410000Y-112710000D01*
X156750000Y-112540000D02*
X156920000Y-112710000D01*
X156750000Y-112200000D02*
X156750000Y-112540000D01*
D28*
X154969999Y-113390001D02*
X154299999Y-113390001D01*
D30*
X153750000Y-112200000D02*
X153750000Y-112840002D01*
D28*
X155250000Y-112200000D02*
X155250000Y-113110000D01*
X155250000Y-113110000D02*
X154969999Y-113390001D01*
X154299999Y-113390001D02*
X153750000Y-112840002D01*
X113119999Y-111029999D02*
X113119999Y-112910001D01*
X112400000Y-110310000D02*
X113119999Y-111029999D01*
X113119999Y-112910001D02*
X112870000Y-113160000D01*
X110800000Y-110325000D02*
X110800000Y-109800000D01*
X111600000Y-109000000D02*
X111600000Y-108485000D01*
X110800000Y-109800000D02*
X111600000Y-109000000D01*
X150630000Y-100800000D02*
X149700000Y-100800000D01*
X149700000Y-100800000D02*
X149400000Y-100500000D01*
X107600000Y-109500000D02*
X107300000Y-109200000D01*
X107600000Y-110325000D02*
X107600000Y-109500000D01*
X153885000Y-100800000D02*
X155000000Y-100800000D01*
X109200000Y-110325000D02*
X109200000Y-109200000D01*
X109200000Y-109200000D02*
X108800000Y-108800000D01*
X138290000Y-109290000D02*
X138300000Y-109300000D01*
X138290000Y-108100000D02*
X138290000Y-109290000D01*
X139310000Y-110470000D02*
X139310000Y-110500000D01*
X138300000Y-109460000D02*
X139310000Y-110470000D01*
X138300000Y-109300000D02*
X138300000Y-109460000D01*
X139310000Y-110500000D02*
X138410069Y-111399931D01*
X137732429Y-111797684D02*
X137732429Y-112250032D01*
X138130182Y-111399931D02*
X137732429Y-111797684D01*
X138410069Y-111399931D02*
X138130182Y-111399931D01*
X154750000Y-112200000D02*
X154750000Y-112800000D01*
X154750000Y-112800000D02*
X154650000Y-112900000D01*
X153250000Y-111500000D02*
X153200000Y-111450000D01*
X153250000Y-112200000D02*
X153250000Y-111500000D01*
D34*
X152985000Y-113800000D02*
X152985000Y-113205000D01*
X152750000Y-112970000D02*
X152750000Y-112200000D01*
X152985000Y-113205000D02*
X152750000Y-112970000D01*
D28*
X152750000Y-111890000D02*
X152540000Y-111680000D01*
X152540000Y-111680000D02*
X152540000Y-111430000D01*
X152750000Y-112200000D02*
X152750000Y-111890000D01*
D34*
X157750000Y-104700000D02*
X158660000Y-104700000D01*
X158710000Y-104750000D02*
X159450000Y-104750000D01*
X158660000Y-104700000D02*
X158710000Y-104750000D01*
D28*
X159850000Y-103950000D02*
X160400000Y-103400000D01*
X147250000Y-102650000D02*
X147250000Y-102200000D01*
X147600000Y-103000000D02*
X147250000Y-102650000D01*
D35*
X165592020Y-100410579D02*
X165535563Y-100516203D01*
X165500797Y-100630811D01*
X165489058Y-100750000D01*
X165492000Y-100969000D01*
X165644000Y-101121000D01*
X167046000Y-101121000D01*
X167046000Y-101101000D01*
X167354000Y-101101000D01*
X167354000Y-101121000D01*
X168756000Y-101121000D01*
X168908000Y-100969000D01*
X168910942Y-100750000D01*
X168901126Y-100650334D01*
X169143764Y-100848225D01*
X169345695Y-101092316D01*
X169496370Y-101370985D01*
X169590047Y-101673606D01*
X169602696Y-101793949D01*
X169539421Y-101742020D01*
X169433797Y-101685563D01*
X169319189Y-101650797D01*
X169200000Y-101639058D01*
X169006000Y-101642000D01*
X168910108Y-101737892D01*
X168908000Y-101581000D01*
X168756000Y-101429000D01*
X167354000Y-101429000D01*
X167354000Y-102256000D01*
X167506000Y-102408000D01*
X167591459Y-102408317D01*
X167592000Y-102444000D01*
X167744000Y-102596000D01*
X168546000Y-102596000D01*
X168546000Y-102576000D01*
X168854000Y-102576000D01*
X168854000Y-102596000D01*
X168874000Y-102596000D01*
X168874000Y-102904000D01*
X168854000Y-102904000D01*
X168854000Y-102924000D01*
X168546000Y-102924000D01*
X168546000Y-102904000D01*
X167744000Y-102904000D01*
X167592000Y-103056000D01*
X167591459Y-103091683D01*
X167506000Y-103092000D01*
X167354000Y-103244000D01*
X167354000Y-104071000D01*
X168756000Y-104071000D01*
X168908000Y-103919000D01*
X168910108Y-103762108D01*
X169006000Y-103858000D01*
X169200000Y-103860942D01*
X169319189Y-103849203D01*
X169433797Y-103814437D01*
X169539421Y-103757980D01*
X169625000Y-103687746D01*
X169625001Y-109400000D01*
X166500000Y-109400000D01*
X166480491Y-109401921D01*
X166461732Y-109407612D01*
X166444443Y-109416853D01*
X166429289Y-109429289D01*
X166416853Y-109444443D01*
X166412695Y-109452223D01*
X166391190Y-109454341D01*
X166334640Y-109471496D01*
X166282523Y-109499353D01*
X166236842Y-109536842D01*
X166199353Y-109582523D01*
X166171496Y-109634640D01*
X166154341Y-109691190D01*
X166148549Y-109750000D01*
X166148549Y-110400000D01*
X163217620Y-110400000D01*
X163217403Y-110399477D01*
X163157213Y-110309396D01*
X163080604Y-110232787D01*
X162990523Y-110172597D01*
X162890429Y-110131136D01*
X162784170Y-110110000D01*
X162758264Y-110110000D01*
X162807980Y-110049421D01*
X162864437Y-109943797D01*
X162899203Y-109829189D01*
X162910942Y-109710000D01*
X162908000Y-109491000D01*
X162756000Y-109339000D01*
X161354000Y-109339000D01*
X161354000Y-109359000D01*
X161046000Y-109359000D01*
X161046000Y-109339000D01*
X159644000Y-109339000D01*
X159492000Y-109491000D01*
X159489058Y-109710000D01*
X159500797Y-109829189D01*
X159535563Y-109943797D01*
X159578345Y-110023838D01*
X159502787Y-110099396D01*
X159442597Y-110189477D01*
X159401136Y-110289571D01*
X159380000Y-110395830D01*
X159380000Y-110400000D01*
X158506000Y-110400000D01*
X158356000Y-110250000D01*
X158100000Y-110250000D01*
X158100000Y-110150000D01*
X158356000Y-110150000D01*
X158508000Y-109998000D01*
X158505037Y-109965266D01*
X158476881Y-109848857D01*
X158426555Y-109740178D01*
X158355994Y-109643405D01*
X158267910Y-109562258D01*
X158198484Y-109519876D01*
X158195659Y-109491190D01*
X158183164Y-109450000D01*
X158195659Y-109408810D01*
X158201451Y-109350000D01*
X158201451Y-109050000D01*
X158195659Y-108991190D01*
X158183164Y-108950000D01*
X158195659Y-108908810D01*
X158198484Y-108880124D01*
X158267910Y-108837742D01*
X158355994Y-108756595D01*
X158426555Y-108659822D01*
X158476881Y-108551143D01*
X158505037Y-108434734D01*
X158508000Y-108402000D01*
X158356000Y-108250000D01*
X158100000Y-108250000D01*
X158100000Y-108150000D01*
X158356000Y-108150000D01*
X158386000Y-108120000D01*
X158898549Y-108120000D01*
X158898549Y-108210000D01*
X158904341Y-108268810D01*
X158921496Y-108325360D01*
X158949353Y-108377477D01*
X158986842Y-108423158D01*
X159032523Y-108460647D01*
X159084640Y-108488504D01*
X159141190Y-108505659D01*
X159200000Y-108511451D01*
X159509703Y-108511451D01*
X159500797Y-108540811D01*
X159489058Y-108660000D01*
X159492000Y-108879000D01*
X159644000Y-109031000D01*
X161046000Y-109031000D01*
X161046000Y-108204000D01*
X161354000Y-108204000D01*
X161354000Y-109031000D01*
X162756000Y-109031000D01*
X162908000Y-108879000D01*
X162910108Y-108722108D01*
X163006000Y-108818000D01*
X163200000Y-108820942D01*
X163319189Y-108809203D01*
X163433797Y-108774437D01*
X163539421Y-108717980D01*
X163632001Y-108642001D01*
X163707980Y-108549421D01*
X163764437Y-108443797D01*
X163799203Y-108329189D01*
X163810942Y-108210000D01*
X163808000Y-108016000D01*
X163656000Y-107864000D01*
X162854000Y-107864000D01*
X162854000Y-107884000D01*
X162546000Y-107884000D01*
X162546000Y-107864000D01*
X161744000Y-107864000D01*
X161592000Y-108016000D01*
X161591459Y-108051683D01*
X161506000Y-108052000D01*
X161354000Y-108204000D01*
X161046000Y-108204000D01*
X160894000Y-108052000D01*
X160501451Y-108050545D01*
X160501451Y-107369455D01*
X160894000Y-107368000D01*
X161046000Y-107216000D01*
X161046000Y-106389000D01*
X161354000Y-106389000D01*
X161354000Y-107216000D01*
X161506000Y-107368000D01*
X161591459Y-107368317D01*
X161592000Y-107404000D01*
X161744000Y-107556000D01*
X162546000Y-107556000D01*
X162546000Y-107536000D01*
X162854000Y-107536000D01*
X162854000Y-107556000D01*
X163656000Y-107556000D01*
X163808000Y-107404000D01*
X163810942Y-107210000D01*
X163799203Y-107090811D01*
X163764437Y-106976203D01*
X163707980Y-106870579D01*
X163632001Y-106777999D01*
X163539421Y-106702020D01*
X163433797Y-106645563D01*
X163319189Y-106610797D01*
X163200000Y-106599058D01*
X163006000Y-106602000D01*
X162910108Y-106697892D01*
X162908000Y-106541000D01*
X162756000Y-106389000D01*
X161354000Y-106389000D01*
X161046000Y-106389000D01*
X159644000Y-106389000D01*
X159492000Y-106541000D01*
X159489058Y-106760000D01*
X159500797Y-106879189D01*
X159509703Y-106908549D01*
X159200000Y-106908549D01*
X159141190Y-106914341D01*
X159084640Y-106931496D01*
X159032523Y-106959353D01*
X158986842Y-106996842D01*
X158949353Y-107042523D01*
X158921496Y-107094640D01*
X158904341Y-107151190D01*
X158898549Y-107210000D01*
X158898549Y-107300000D01*
X158406000Y-107300000D01*
X158358777Y-107252777D01*
X158426555Y-107159822D01*
X158476881Y-107051143D01*
X158483907Y-107022093D01*
X158508000Y-106998000D01*
X158505037Y-106965266D01*
X158501345Y-106950000D01*
X158505037Y-106934734D01*
X158508000Y-106902000D01*
X158483907Y-106877907D01*
X158476881Y-106848857D01*
X158426555Y-106740178D01*
X158358777Y-106647223D01*
X158508000Y-106498000D01*
X158505037Y-106465266D01*
X158476881Y-106348857D01*
X158426555Y-106240178D01*
X158397260Y-106200000D01*
X158426555Y-106159822D01*
X158476881Y-106051143D01*
X158505037Y-105934734D01*
X158508000Y-105902000D01*
X158358777Y-105752777D01*
X158426555Y-105659822D01*
X158476881Y-105551143D01*
X158483907Y-105522093D01*
X158508000Y-105498000D01*
X158505037Y-105465266D01*
X158501345Y-105450000D01*
X158505037Y-105434734D01*
X158508000Y-105402000D01*
X158483907Y-105377907D01*
X158476881Y-105348857D01*
X158426555Y-105240178D01*
X158358777Y-105147223D01*
X158396000Y-105110000D01*
X158513759Y-105110000D01*
X158552341Y-105130623D01*
X158629626Y-105154067D01*
X158689866Y-105160000D01*
X158689869Y-105160000D01*
X158710000Y-105161983D01*
X158730132Y-105160000D01*
X159186827Y-105160000D01*
X159197417Y-105183069D01*
X159267656Y-105280076D01*
X159355470Y-105361516D01*
X159457485Y-105424259D01*
X159545821Y-105457011D01*
X159535563Y-105476203D01*
X159500797Y-105590811D01*
X159489058Y-105710000D01*
X159492000Y-105929000D01*
X159644000Y-106081000D01*
X161046000Y-106081000D01*
X161046000Y-105254000D01*
X161354000Y-105254000D01*
X161354000Y-106081000D01*
X162756000Y-106081000D01*
X162908000Y-105929000D01*
X162910942Y-105710000D01*
X162899203Y-105590811D01*
X162864437Y-105476203D01*
X162807980Y-105370579D01*
X162732001Y-105277999D01*
X162639421Y-105202020D01*
X162533797Y-105145563D01*
X162419189Y-105110797D01*
X162300000Y-105099058D01*
X161506000Y-105102000D01*
X161354000Y-105254000D01*
X161046000Y-105254000D01*
X160894000Y-105102000D01*
X160540398Y-105100690D01*
X160552547Y-105074224D01*
X160580316Y-104957722D01*
X160583000Y-104927000D01*
X160560002Y-104904002D01*
X160583000Y-104904002D01*
X160583000Y-104760000D01*
X160763059Y-104760000D01*
X160825912Y-104836588D01*
X160904742Y-104901281D01*
X160994678Y-104949353D01*
X161092264Y-104978955D01*
X161193750Y-104988951D01*
X161706250Y-104988951D01*
X161807736Y-104978955D01*
X161905322Y-104949353D01*
X161995258Y-104901281D01*
X162074088Y-104836588D01*
X162138781Y-104757758D01*
X162142927Y-104750000D01*
X165489058Y-104750000D01*
X165500797Y-104869189D01*
X165535563Y-104983797D01*
X165592020Y-105089421D01*
X165667999Y-105182001D01*
X165760579Y-105257980D01*
X165866203Y-105314437D01*
X165980811Y-105349203D01*
X166100000Y-105360942D01*
X166894000Y-105358000D01*
X167046000Y-105206000D01*
X167046000Y-104379000D01*
X167354000Y-104379000D01*
X167354000Y-105206000D01*
X167506000Y-105358000D01*
X168300000Y-105360942D01*
X168419189Y-105349203D01*
X168533797Y-105314437D01*
X168639421Y-105257980D01*
X168732001Y-105182001D01*
X168807980Y-105089421D01*
X168864437Y-104983797D01*
X168899203Y-104869189D01*
X168910942Y-104750000D01*
X168908000Y-104531000D01*
X168756000Y-104379000D01*
X167354000Y-104379000D01*
X167046000Y-104379000D01*
X165644000Y-104379000D01*
X165492000Y-104531000D01*
X165489058Y-104750000D01*
X162142927Y-104750000D01*
X162186853Y-104667822D01*
X162216455Y-104570236D01*
X162226451Y-104468750D01*
X162226451Y-104031250D01*
X162216455Y-103929764D01*
X162186853Y-103832178D01*
X162138781Y-103742242D01*
X162074088Y-103663412D01*
X161995258Y-103598719D01*
X161905322Y-103550647D01*
X161807736Y-103521045D01*
X161706250Y-103511049D01*
X161193750Y-103511049D01*
X161092264Y-103521045D01*
X160994678Y-103550647D01*
X160915353Y-103593047D01*
X160928864Y-103560429D01*
X160950000Y-103454170D01*
X160950000Y-103350472D01*
X160994678Y-103374353D01*
X161092264Y-103403955D01*
X161193750Y-103413951D01*
X161706250Y-103413951D01*
X161807736Y-103403955D01*
X161905322Y-103374353D01*
X161995258Y-103326281D01*
X162074088Y-103261588D01*
X162138781Y-103182758D01*
X162150945Y-103160000D01*
X162422837Y-103160000D01*
X162429211Y-103171924D01*
X162485044Y-103239956D01*
X162553076Y-103295789D01*
X162630694Y-103337277D01*
X162714914Y-103362825D01*
X162802500Y-103371451D01*
X163097500Y-103371451D01*
X163185086Y-103362825D01*
X163269306Y-103337277D01*
X163346924Y-103295789D01*
X163414956Y-103239956D01*
X163435000Y-103215533D01*
X163455044Y-103239956D01*
X163523076Y-103295789D01*
X163600694Y-103337277D01*
X163684914Y-103362825D01*
X163772500Y-103371451D01*
X164067500Y-103371451D01*
X164155086Y-103362825D01*
X164239306Y-103337277D01*
X164316924Y-103295789D01*
X164384956Y-103239956D01*
X164440789Y-103171924D01*
X164447163Y-103160000D01*
X164898549Y-103160000D01*
X164898549Y-103250000D01*
X164904341Y-103308810D01*
X164921496Y-103365360D01*
X164949353Y-103417477D01*
X164986842Y-103463158D01*
X165032523Y-103500647D01*
X165084640Y-103528504D01*
X165141190Y-103545659D01*
X165200000Y-103551451D01*
X165509703Y-103551451D01*
X165500797Y-103580811D01*
X165489058Y-103700000D01*
X165492000Y-103919000D01*
X165644000Y-104071000D01*
X167046000Y-104071000D01*
X167046000Y-103244000D01*
X166894000Y-103092000D01*
X166501451Y-103090545D01*
X166501451Y-102409455D01*
X166894000Y-102408000D01*
X167046000Y-102256000D01*
X167046000Y-101429000D01*
X165644000Y-101429000D01*
X165492000Y-101581000D01*
X165489058Y-101800000D01*
X165500797Y-101919189D01*
X165509703Y-101948549D01*
X165200000Y-101948549D01*
X165141190Y-101954341D01*
X165084640Y-101971496D01*
X165032523Y-101999353D01*
X164986842Y-102036842D01*
X164949353Y-102082523D01*
X164921496Y-102134640D01*
X164904341Y-102191190D01*
X164898549Y-102250000D01*
X164898549Y-102340000D01*
X164447163Y-102340000D01*
X164440789Y-102328076D01*
X164384956Y-102260044D01*
X164316924Y-102204211D01*
X164239306Y-102162723D01*
X164155086Y-102137175D01*
X164067500Y-102128549D01*
X163772500Y-102128549D01*
X163684914Y-102137175D01*
X163600694Y-102162723D01*
X163523076Y-102204211D01*
X163455044Y-102260044D01*
X163435000Y-102284467D01*
X163414956Y-102260044D01*
X163346924Y-102204211D01*
X163269306Y-102162723D01*
X163185086Y-102137175D01*
X163097500Y-102128549D01*
X162802500Y-102128549D01*
X162714914Y-102137175D01*
X162630694Y-102162723D01*
X162553076Y-102204211D01*
X162485044Y-102260044D01*
X162429211Y-102328076D01*
X162422837Y-102340000D01*
X162211976Y-102340000D01*
X162186853Y-102257178D01*
X162138781Y-102167242D01*
X162074088Y-102088412D01*
X161995258Y-102023719D01*
X161905322Y-101975647D01*
X161807736Y-101946045D01*
X161706250Y-101936049D01*
X161193750Y-101936049D01*
X161092264Y-101946045D01*
X160994678Y-101975647D01*
X160904742Y-102023719D01*
X160825912Y-102088412D01*
X160825266Y-102089199D01*
X160796476Y-101991187D01*
X160740952Y-101885069D01*
X160665792Y-101791823D01*
X160573885Y-101715032D01*
X160468763Y-101657646D01*
X160354465Y-101621871D01*
X160241000Y-101612000D01*
X160089000Y-101764000D01*
X160089000Y-102386000D01*
X160109000Y-102386000D01*
X160109000Y-102694000D01*
X160089000Y-102694000D01*
X160089000Y-102714000D01*
X159781000Y-102714000D01*
X159781000Y-102694000D01*
X159761000Y-102694000D01*
X159761000Y-102386000D01*
X159781000Y-102386000D01*
X159781000Y-101764000D01*
X159629000Y-101612000D01*
X159515535Y-101621871D01*
X159401237Y-101657646D01*
X159296115Y-101715032D01*
X159204208Y-101791823D01*
X159129048Y-101885069D01*
X159111530Y-101918549D01*
X158817500Y-101918549D01*
X158729914Y-101927175D01*
X158645694Y-101952723D01*
X158568076Y-101994211D01*
X158504974Y-102045998D01*
X158460002Y-102045998D01*
X158508000Y-101998000D01*
X158505037Y-101965266D01*
X158476881Y-101848857D01*
X158426555Y-101740178D01*
X158355994Y-101643405D01*
X158267910Y-101562258D01*
X158165687Y-101499854D01*
X158053253Y-101458592D01*
X157952000Y-101442000D01*
X157800000Y-101594000D01*
X157800000Y-101900000D01*
X157700000Y-101900000D01*
X157700000Y-101594000D01*
X157548000Y-101442000D01*
X157446747Y-101458592D01*
X157334313Y-101499854D01*
X157250000Y-101551324D01*
X157165687Y-101499854D01*
X157053253Y-101458592D01*
X156952000Y-101442000D01*
X156801134Y-101592866D01*
X156767910Y-101562258D01*
X156665687Y-101499854D01*
X156571166Y-101465166D01*
X156548000Y-101442000D01*
X156500000Y-101449866D01*
X156452000Y-101442000D01*
X156428834Y-101465166D01*
X156334313Y-101499854D01*
X156250000Y-101551324D01*
X156165687Y-101499854D01*
X156071166Y-101465166D01*
X156048000Y-101442000D01*
X156000000Y-101449866D01*
X155952000Y-101442000D01*
X155928834Y-101465166D01*
X155834313Y-101499854D01*
X155750000Y-101551324D01*
X155665687Y-101499854D01*
X155600000Y-101475748D01*
X155600000Y-100375000D01*
X165621219Y-100375000D01*
X165592020Y-100410579D01*
G04 #@! TA.AperFunction,Conductor*
D36*
G36*
X165592020Y-100410579D02*
G01*
X165535563Y-100516203D01*
X165500797Y-100630811D01*
X165489058Y-100750000D01*
X165492000Y-100969000D01*
X165644000Y-101121000D01*
X167046000Y-101121000D01*
X167046000Y-101101000D01*
X167354000Y-101101000D01*
X167354000Y-101121000D01*
X168756000Y-101121000D01*
X168908000Y-100969000D01*
X168910942Y-100750000D01*
X168901126Y-100650334D01*
X169143764Y-100848225D01*
X169345695Y-101092316D01*
X169496370Y-101370985D01*
X169590047Y-101673606D01*
X169602696Y-101793949D01*
X169539421Y-101742020D01*
X169433797Y-101685563D01*
X169319189Y-101650797D01*
X169200000Y-101639058D01*
X169006000Y-101642000D01*
X168910108Y-101737892D01*
X168908000Y-101581000D01*
X168756000Y-101429000D01*
X167354000Y-101429000D01*
X167354000Y-102256000D01*
X167506000Y-102408000D01*
X167591459Y-102408317D01*
X167592000Y-102444000D01*
X167744000Y-102596000D01*
X168546000Y-102596000D01*
X168546000Y-102576000D01*
X168854000Y-102576000D01*
X168854000Y-102596000D01*
X168874000Y-102596000D01*
X168874000Y-102904000D01*
X168854000Y-102904000D01*
X168854000Y-102924000D01*
X168546000Y-102924000D01*
X168546000Y-102904000D01*
X167744000Y-102904000D01*
X167592000Y-103056000D01*
X167591459Y-103091683D01*
X167506000Y-103092000D01*
X167354000Y-103244000D01*
X167354000Y-104071000D01*
X168756000Y-104071000D01*
X168908000Y-103919000D01*
X168910108Y-103762108D01*
X169006000Y-103858000D01*
X169200000Y-103860942D01*
X169319189Y-103849203D01*
X169433797Y-103814437D01*
X169539421Y-103757980D01*
X169625000Y-103687746D01*
X169625001Y-109400000D01*
X166500000Y-109400000D01*
X166480491Y-109401921D01*
X166461732Y-109407612D01*
X166444443Y-109416853D01*
X166429289Y-109429289D01*
X166416853Y-109444443D01*
X166412695Y-109452223D01*
X166391190Y-109454341D01*
X166334640Y-109471496D01*
X166282523Y-109499353D01*
X166236842Y-109536842D01*
X166199353Y-109582523D01*
X166171496Y-109634640D01*
X166154341Y-109691190D01*
X166148549Y-109750000D01*
X166148549Y-110400000D01*
X163217620Y-110400000D01*
X163217403Y-110399477D01*
X163157213Y-110309396D01*
X163080604Y-110232787D01*
X162990523Y-110172597D01*
X162890429Y-110131136D01*
X162784170Y-110110000D01*
X162758264Y-110110000D01*
X162807980Y-110049421D01*
X162864437Y-109943797D01*
X162899203Y-109829189D01*
X162910942Y-109710000D01*
X162908000Y-109491000D01*
X162756000Y-109339000D01*
X161354000Y-109339000D01*
X161354000Y-109359000D01*
X161046000Y-109359000D01*
X161046000Y-109339000D01*
X159644000Y-109339000D01*
X159492000Y-109491000D01*
X159489058Y-109710000D01*
X159500797Y-109829189D01*
X159535563Y-109943797D01*
X159578345Y-110023838D01*
X159502787Y-110099396D01*
X159442597Y-110189477D01*
X159401136Y-110289571D01*
X159380000Y-110395830D01*
X159380000Y-110400000D01*
X158506000Y-110400000D01*
X158356000Y-110250000D01*
X158100000Y-110250000D01*
X158100000Y-110150000D01*
X158356000Y-110150000D01*
X158508000Y-109998000D01*
X158505037Y-109965266D01*
X158476881Y-109848857D01*
X158426555Y-109740178D01*
X158355994Y-109643405D01*
X158267910Y-109562258D01*
X158198484Y-109519876D01*
X158195659Y-109491190D01*
X158183164Y-109450000D01*
X158195659Y-109408810D01*
X158201451Y-109350000D01*
X158201451Y-109050000D01*
X158195659Y-108991190D01*
X158183164Y-108950000D01*
X158195659Y-108908810D01*
X158198484Y-108880124D01*
X158267910Y-108837742D01*
X158355994Y-108756595D01*
X158426555Y-108659822D01*
X158476881Y-108551143D01*
X158505037Y-108434734D01*
X158508000Y-108402000D01*
X158356000Y-108250000D01*
X158100000Y-108250000D01*
X158100000Y-108150000D01*
X158356000Y-108150000D01*
X158386000Y-108120000D01*
X158898549Y-108120000D01*
X158898549Y-108210000D01*
X158904341Y-108268810D01*
X158921496Y-108325360D01*
X158949353Y-108377477D01*
X158986842Y-108423158D01*
X159032523Y-108460647D01*
X159084640Y-108488504D01*
X159141190Y-108505659D01*
X159200000Y-108511451D01*
X159509703Y-108511451D01*
X159500797Y-108540811D01*
X159489058Y-108660000D01*
X159492000Y-108879000D01*
X159644000Y-109031000D01*
X161046000Y-109031000D01*
X161046000Y-108204000D01*
X161354000Y-108204000D01*
X161354000Y-109031000D01*
X162756000Y-109031000D01*
X162908000Y-108879000D01*
X162910108Y-108722108D01*
X163006000Y-108818000D01*
X163200000Y-108820942D01*
X163319189Y-108809203D01*
X163433797Y-108774437D01*
X163539421Y-108717980D01*
X163632001Y-108642001D01*
X163707980Y-108549421D01*
X163764437Y-108443797D01*
X163799203Y-108329189D01*
X163810942Y-108210000D01*
X163808000Y-108016000D01*
X163656000Y-107864000D01*
X162854000Y-107864000D01*
X162854000Y-107884000D01*
X162546000Y-107884000D01*
X162546000Y-107864000D01*
X161744000Y-107864000D01*
X161592000Y-108016000D01*
X161591459Y-108051683D01*
X161506000Y-108052000D01*
X161354000Y-108204000D01*
X161046000Y-108204000D01*
X160894000Y-108052000D01*
X160501451Y-108050545D01*
X160501451Y-107369455D01*
X160894000Y-107368000D01*
X161046000Y-107216000D01*
X161046000Y-106389000D01*
X161354000Y-106389000D01*
X161354000Y-107216000D01*
X161506000Y-107368000D01*
X161591459Y-107368317D01*
X161592000Y-107404000D01*
X161744000Y-107556000D01*
X162546000Y-107556000D01*
X162546000Y-107536000D01*
X162854000Y-107536000D01*
X162854000Y-107556000D01*
X163656000Y-107556000D01*
X163808000Y-107404000D01*
X163810942Y-107210000D01*
X163799203Y-107090811D01*
X163764437Y-106976203D01*
X163707980Y-106870579D01*
X163632001Y-106777999D01*
X163539421Y-106702020D01*
X163433797Y-106645563D01*
X163319189Y-106610797D01*
X163200000Y-106599058D01*
X163006000Y-106602000D01*
X162910108Y-106697892D01*
X162908000Y-106541000D01*
X162756000Y-106389000D01*
X161354000Y-106389000D01*
X161046000Y-106389000D01*
X159644000Y-106389000D01*
X159492000Y-106541000D01*
X159489058Y-106760000D01*
X159500797Y-106879189D01*
X159509703Y-106908549D01*
X159200000Y-106908549D01*
X159141190Y-106914341D01*
X159084640Y-106931496D01*
X159032523Y-106959353D01*
X158986842Y-106996842D01*
X158949353Y-107042523D01*
X158921496Y-107094640D01*
X158904341Y-107151190D01*
X158898549Y-107210000D01*
X158898549Y-107300000D01*
X158406000Y-107300000D01*
X158358777Y-107252777D01*
X158426555Y-107159822D01*
X158476881Y-107051143D01*
X158483907Y-107022093D01*
X158508000Y-106998000D01*
X158505037Y-106965266D01*
X158501345Y-106950000D01*
X158505037Y-106934734D01*
X158508000Y-106902000D01*
X158483907Y-106877907D01*
X158476881Y-106848857D01*
X158426555Y-106740178D01*
X158358777Y-106647223D01*
X158508000Y-106498000D01*
X158505037Y-106465266D01*
X158476881Y-106348857D01*
X158426555Y-106240178D01*
X158397260Y-106200000D01*
X158426555Y-106159822D01*
X158476881Y-106051143D01*
X158505037Y-105934734D01*
X158508000Y-105902000D01*
X158358777Y-105752777D01*
X158426555Y-105659822D01*
X158476881Y-105551143D01*
X158483907Y-105522093D01*
X158508000Y-105498000D01*
X158505037Y-105465266D01*
X158501345Y-105450000D01*
X158505037Y-105434734D01*
X158508000Y-105402000D01*
X158483907Y-105377907D01*
X158476881Y-105348857D01*
X158426555Y-105240178D01*
X158358777Y-105147223D01*
X158396000Y-105110000D01*
X158513759Y-105110000D01*
X158552341Y-105130623D01*
X158629626Y-105154067D01*
X158689866Y-105160000D01*
X158689869Y-105160000D01*
X158710000Y-105161983D01*
X158730132Y-105160000D01*
X159186827Y-105160000D01*
X159197417Y-105183069D01*
X159267656Y-105280076D01*
X159355470Y-105361516D01*
X159457485Y-105424259D01*
X159545821Y-105457011D01*
X159535563Y-105476203D01*
X159500797Y-105590811D01*
X159489058Y-105710000D01*
X159492000Y-105929000D01*
X159644000Y-106081000D01*
X161046000Y-106081000D01*
X161046000Y-105254000D01*
X161354000Y-105254000D01*
X161354000Y-106081000D01*
X162756000Y-106081000D01*
X162908000Y-105929000D01*
X162910942Y-105710000D01*
X162899203Y-105590811D01*
X162864437Y-105476203D01*
X162807980Y-105370579D01*
X162732001Y-105277999D01*
X162639421Y-105202020D01*
X162533797Y-105145563D01*
X162419189Y-105110797D01*
X162300000Y-105099058D01*
X161506000Y-105102000D01*
X161354000Y-105254000D01*
X161046000Y-105254000D01*
X160894000Y-105102000D01*
X160540398Y-105100690D01*
X160552547Y-105074224D01*
X160580316Y-104957722D01*
X160583000Y-104927000D01*
X160560002Y-104904002D01*
X160583000Y-104904002D01*
X160583000Y-104760000D01*
X160763059Y-104760000D01*
X160825912Y-104836588D01*
X160904742Y-104901281D01*
X160994678Y-104949353D01*
X161092264Y-104978955D01*
X161193750Y-104988951D01*
X161706250Y-104988951D01*
X161807736Y-104978955D01*
X161905322Y-104949353D01*
X161995258Y-104901281D01*
X162074088Y-104836588D01*
X162138781Y-104757758D01*
X162142927Y-104750000D01*
X165489058Y-104750000D01*
X165500797Y-104869189D01*
X165535563Y-104983797D01*
X165592020Y-105089421D01*
X165667999Y-105182001D01*
X165760579Y-105257980D01*
X165866203Y-105314437D01*
X165980811Y-105349203D01*
X166100000Y-105360942D01*
X166894000Y-105358000D01*
X167046000Y-105206000D01*
X167046000Y-104379000D01*
X167354000Y-104379000D01*
X167354000Y-105206000D01*
X167506000Y-105358000D01*
X168300000Y-105360942D01*
X168419189Y-105349203D01*
X168533797Y-105314437D01*
X168639421Y-105257980D01*
X168732001Y-105182001D01*
X168807980Y-105089421D01*
X168864437Y-104983797D01*
X168899203Y-104869189D01*
X168910942Y-104750000D01*
X168908000Y-104531000D01*
X168756000Y-104379000D01*
X167354000Y-104379000D01*
X167046000Y-104379000D01*
X165644000Y-104379000D01*
X165492000Y-104531000D01*
X165489058Y-104750000D01*
X162142927Y-104750000D01*
X162186853Y-104667822D01*
X162216455Y-104570236D01*
X162226451Y-104468750D01*
X162226451Y-104031250D01*
X162216455Y-103929764D01*
X162186853Y-103832178D01*
X162138781Y-103742242D01*
X162074088Y-103663412D01*
X161995258Y-103598719D01*
X161905322Y-103550647D01*
X161807736Y-103521045D01*
X161706250Y-103511049D01*
X161193750Y-103511049D01*
X161092264Y-103521045D01*
X160994678Y-103550647D01*
X160915353Y-103593047D01*
X160928864Y-103560429D01*
X160950000Y-103454170D01*
X160950000Y-103350472D01*
X160994678Y-103374353D01*
X161092264Y-103403955D01*
X161193750Y-103413951D01*
X161706250Y-103413951D01*
X161807736Y-103403955D01*
X161905322Y-103374353D01*
X161995258Y-103326281D01*
X162074088Y-103261588D01*
X162138781Y-103182758D01*
X162150945Y-103160000D01*
X162422837Y-103160000D01*
X162429211Y-103171924D01*
X162485044Y-103239956D01*
X162553076Y-103295789D01*
X162630694Y-103337277D01*
X162714914Y-103362825D01*
X162802500Y-103371451D01*
X163097500Y-103371451D01*
X163185086Y-103362825D01*
X163269306Y-103337277D01*
X163346924Y-103295789D01*
X163414956Y-103239956D01*
X163435000Y-103215533D01*
X163455044Y-103239956D01*
X163523076Y-103295789D01*
X163600694Y-103337277D01*
X163684914Y-103362825D01*
X163772500Y-103371451D01*
X164067500Y-103371451D01*
X164155086Y-103362825D01*
X164239306Y-103337277D01*
X164316924Y-103295789D01*
X164384956Y-103239956D01*
X164440789Y-103171924D01*
X164447163Y-103160000D01*
X164898549Y-103160000D01*
X164898549Y-103250000D01*
X164904341Y-103308810D01*
X164921496Y-103365360D01*
X164949353Y-103417477D01*
X164986842Y-103463158D01*
X165032523Y-103500647D01*
X165084640Y-103528504D01*
X165141190Y-103545659D01*
X165200000Y-103551451D01*
X165509703Y-103551451D01*
X165500797Y-103580811D01*
X165489058Y-103700000D01*
X165492000Y-103919000D01*
X165644000Y-104071000D01*
X167046000Y-104071000D01*
X167046000Y-103244000D01*
X166894000Y-103092000D01*
X166501451Y-103090545D01*
X166501451Y-102409455D01*
X166894000Y-102408000D01*
X167046000Y-102256000D01*
X167046000Y-101429000D01*
X165644000Y-101429000D01*
X165492000Y-101581000D01*
X165489058Y-101800000D01*
X165500797Y-101919189D01*
X165509703Y-101948549D01*
X165200000Y-101948549D01*
X165141190Y-101954341D01*
X165084640Y-101971496D01*
X165032523Y-101999353D01*
X164986842Y-102036842D01*
X164949353Y-102082523D01*
X164921496Y-102134640D01*
X164904341Y-102191190D01*
X164898549Y-102250000D01*
X164898549Y-102340000D01*
X164447163Y-102340000D01*
X164440789Y-102328076D01*
X164384956Y-102260044D01*
X164316924Y-102204211D01*
X164239306Y-102162723D01*
X164155086Y-102137175D01*
X164067500Y-102128549D01*
X163772500Y-102128549D01*
X163684914Y-102137175D01*
X163600694Y-102162723D01*
X163523076Y-102204211D01*
X163455044Y-102260044D01*
X163435000Y-102284467D01*
X163414956Y-102260044D01*
X163346924Y-102204211D01*
X163269306Y-102162723D01*
X163185086Y-102137175D01*
X163097500Y-102128549D01*
X162802500Y-102128549D01*
X162714914Y-102137175D01*
X162630694Y-102162723D01*
X162553076Y-102204211D01*
X162485044Y-102260044D01*
X162429211Y-102328076D01*
X162422837Y-102340000D01*
X162211976Y-102340000D01*
X162186853Y-102257178D01*
X162138781Y-102167242D01*
X162074088Y-102088412D01*
X161995258Y-102023719D01*
X161905322Y-101975647D01*
X161807736Y-101946045D01*
X161706250Y-101936049D01*
X161193750Y-101936049D01*
X161092264Y-101946045D01*
X160994678Y-101975647D01*
X160904742Y-102023719D01*
X160825912Y-102088412D01*
X160825266Y-102089199D01*
X160796476Y-101991187D01*
X160740952Y-101885069D01*
X160665792Y-101791823D01*
X160573885Y-101715032D01*
X160468763Y-101657646D01*
X160354465Y-101621871D01*
X160241000Y-101612000D01*
X160089000Y-101764000D01*
X160089000Y-102386000D01*
X160109000Y-102386000D01*
X160109000Y-102694000D01*
X160089000Y-102694000D01*
X160089000Y-102714000D01*
X159781000Y-102714000D01*
X159781000Y-102694000D01*
X159761000Y-102694000D01*
X159761000Y-102386000D01*
X159781000Y-102386000D01*
X159781000Y-101764000D01*
X159629000Y-101612000D01*
X159515535Y-101621871D01*
X159401237Y-101657646D01*
X159296115Y-101715032D01*
X159204208Y-101791823D01*
X159129048Y-101885069D01*
X159111530Y-101918549D01*
X158817500Y-101918549D01*
X158729914Y-101927175D01*
X158645694Y-101952723D01*
X158568076Y-101994211D01*
X158504974Y-102045998D01*
X158460002Y-102045998D01*
X158508000Y-101998000D01*
X158505037Y-101965266D01*
X158476881Y-101848857D01*
X158426555Y-101740178D01*
X158355994Y-101643405D01*
X158267910Y-101562258D01*
X158165687Y-101499854D01*
X158053253Y-101458592D01*
X157952000Y-101442000D01*
X157800000Y-101594000D01*
X157800000Y-101900000D01*
X157700000Y-101900000D01*
X157700000Y-101594000D01*
X157548000Y-101442000D01*
X157446747Y-101458592D01*
X157334313Y-101499854D01*
X157250000Y-101551324D01*
X157165687Y-101499854D01*
X157053253Y-101458592D01*
X156952000Y-101442000D01*
X156801134Y-101592866D01*
X156767910Y-101562258D01*
X156665687Y-101499854D01*
X156571166Y-101465166D01*
X156548000Y-101442000D01*
X156500000Y-101449866D01*
X156452000Y-101442000D01*
X156428834Y-101465166D01*
X156334313Y-101499854D01*
X156250000Y-101551324D01*
X156165687Y-101499854D01*
X156071166Y-101465166D01*
X156048000Y-101442000D01*
X156000000Y-101449866D01*
X155952000Y-101442000D01*
X155928834Y-101465166D01*
X155834313Y-101499854D01*
X155750000Y-101551324D01*
X155665687Y-101499854D01*
X155600000Y-101475748D01*
X155600000Y-100375000D01*
X165621219Y-100375000D01*
X165592020Y-100410579D01*
G37*
G04 #@! TD.AperFunction*
D35*
X158377175Y-102800086D02*
X158402723Y-102884306D01*
X158444211Y-102961924D01*
X158500044Y-103029956D01*
X158568076Y-103085789D01*
X158585001Y-103094835D01*
X158585000Y-104128348D01*
X158583163Y-104147002D01*
X158585000Y-104165655D01*
X158585000Y-104165662D01*
X158590499Y-104221494D01*
X158611280Y-104290000D01*
X158396000Y-104290000D01*
X158358777Y-104252777D01*
X158426555Y-104159822D01*
X158476881Y-104051143D01*
X158483907Y-104022093D01*
X158508000Y-103998000D01*
X158505037Y-103965266D01*
X158501345Y-103950000D01*
X158505037Y-103934734D01*
X158508000Y-103902000D01*
X158483907Y-103877907D01*
X158476881Y-103848857D01*
X158426555Y-103740178D01*
X158358777Y-103647223D01*
X158508000Y-103498000D01*
X158505037Y-103465266D01*
X158476881Y-103348857D01*
X158426555Y-103240178D01*
X158355994Y-103143405D01*
X158267910Y-103062258D01*
X158198484Y-103019876D01*
X158195659Y-102991190D01*
X158183164Y-102950000D01*
X158195659Y-102908810D01*
X158198484Y-102880124D01*
X158267910Y-102837742D01*
X158355994Y-102756595D01*
X158370881Y-102736178D01*
X158377175Y-102800086D01*
G04 #@! TA.AperFunction,Conductor*
D36*
G36*
X158377175Y-102800086D02*
G01*
X158402723Y-102884306D01*
X158444211Y-102961924D01*
X158500044Y-103029956D01*
X158568076Y-103085789D01*
X158585001Y-103094835D01*
X158585000Y-104128348D01*
X158583163Y-104147002D01*
X158585000Y-104165655D01*
X158585000Y-104165662D01*
X158590499Y-104221494D01*
X158611280Y-104290000D01*
X158396000Y-104290000D01*
X158358777Y-104252777D01*
X158426555Y-104159822D01*
X158476881Y-104051143D01*
X158483907Y-104022093D01*
X158508000Y-103998000D01*
X158505037Y-103965266D01*
X158501345Y-103950000D01*
X158505037Y-103934734D01*
X158508000Y-103902000D01*
X158483907Y-103877907D01*
X158476881Y-103848857D01*
X158426555Y-103740178D01*
X158358777Y-103647223D01*
X158508000Y-103498000D01*
X158505037Y-103465266D01*
X158476881Y-103348857D01*
X158426555Y-103240178D01*
X158355994Y-103143405D01*
X158267910Y-103062258D01*
X158198484Y-103019876D01*
X158195659Y-102991190D01*
X158183164Y-102950000D01*
X158195659Y-102908810D01*
X158198484Y-102880124D01*
X158267910Y-102837742D01*
X158355994Y-102756595D01*
X158370881Y-102736178D01*
X158377175Y-102800086D01*
G37*
G04 #@! TD.AperFunction*
M02*
