G04 #@! TF.GenerationSoftware,KiCad,Pcbnew,(5.1.9)-1*
G04 #@! TF.CreationDate,2021-02-01T18:23:16+11:00*
G04 #@! TF.ProjectId,BoSLnano,426f534c-6e61-46e6-9f2e-6b696361645f,0.4.2*
G04 #@! TF.SameCoordinates,Original*
G04 #@! TF.FileFunction,Soldermask,Top*
G04 #@! TF.FilePolarity,Negative*
%FSLAX46Y46*%
G04 Gerber Fmt 4.6, Leading zero omitted, Abs format (unit mm)*
G04 Created by KiCad (PCBNEW (5.1.9)-1) date 2021-02-01 18:23:16*
%MOMM*%
%LPD*%
G01*
G04 APERTURE LIST*
%ADD10O,2.600000X1.500000*%
%ADD11O,2.200000X1.500000*%
%ADD12O,1.400000X1.400000*%
%ADD13O,2.100000X2.100000*%
%ADD14C,1.187000*%
G04 APERTURE END LIST*
G36*
G01*
X147810000Y-114022500D02*
X147810000Y-113477500D01*
G75*
G02*
X148057500Y-113230000I247500J0D01*
G01*
X148552500Y-113230000D01*
G75*
G02*
X148800000Y-113477500I0J-247500D01*
G01*
X148800000Y-114022500D01*
G75*
G02*
X148552500Y-114270000I-247500J0D01*
G01*
X148057500Y-114270000D01*
G75*
G02*
X147810000Y-114022500I0J247500D01*
G01*
G37*
G36*
G01*
X146840000Y-114022500D02*
X146840000Y-113477500D01*
G75*
G02*
X147087500Y-113230000I247500J0D01*
G01*
X147582500Y-113230000D01*
G75*
G02*
X147830000Y-113477500I0J-247500D01*
G01*
X147830000Y-114022500D01*
G75*
G02*
X147582500Y-114270000I-247500J0D01*
G01*
X147087500Y-114270000D01*
G75*
G02*
X146840000Y-114022500I0J247500D01*
G01*
G37*
D10*
X117200000Y-101325000D03*
D11*
X114400000Y-103475000D03*
X120000000Y-103475000D03*
G36*
G01*
X118925000Y-102475000D02*
X118925000Y-103975000D01*
G75*
G02*
X118725000Y-104175000I-200000J0D01*
G01*
X118275000Y-104175000D01*
G75*
G02*
X118075000Y-103975000I0J200000D01*
G01*
X118075000Y-102475000D01*
G75*
G02*
X118275000Y-102275000I200000J0D01*
G01*
X118725000Y-102275000D01*
G75*
G02*
X118925000Y-102475000I0J-200000D01*
G01*
G37*
G36*
G01*
X116325000Y-102475000D02*
X116325000Y-103975000D01*
G75*
G02*
X116125000Y-104175000I-200000J0D01*
G01*
X115675000Y-104175000D01*
G75*
G02*
X115475000Y-103975000I0J200000D01*
G01*
X115475000Y-102475000D01*
G75*
G02*
X115675000Y-102275000I200000J0D01*
G01*
X116125000Y-102275000D01*
G75*
G02*
X116325000Y-102475000I0J-200000D01*
G01*
G37*
G36*
G01*
X118275000Y-102475000D02*
X118275000Y-103975000D01*
G75*
G02*
X118075000Y-104175000I-200000J0D01*
G01*
X117625000Y-104175000D01*
G75*
G02*
X117425000Y-103975000I0J200000D01*
G01*
X117425000Y-102475000D01*
G75*
G02*
X117625000Y-102275000I200000J0D01*
G01*
X118075000Y-102275000D01*
G75*
G02*
X118275000Y-102475000I0J-200000D01*
G01*
G37*
G36*
G01*
X116975000Y-102475000D02*
X116975000Y-103975000D01*
G75*
G02*
X116775000Y-104175000I-200000J0D01*
G01*
X116325000Y-104175000D01*
G75*
G02*
X116125000Y-103975000I0J200000D01*
G01*
X116125000Y-102475000D01*
G75*
G02*
X116325000Y-102275000I200000J0D01*
G01*
X116775000Y-102275000D01*
G75*
G02*
X116975000Y-102475000I0J-200000D01*
G01*
G37*
G36*
G01*
X117625000Y-102475000D02*
X117625000Y-103975000D01*
G75*
G02*
X117425000Y-104175000I-200000J0D01*
G01*
X116975000Y-104175000D01*
G75*
G02*
X116775000Y-103975000I0J200000D01*
G01*
X116775000Y-102475000D01*
G75*
G02*
X116975000Y-102275000I200000J0D01*
G01*
X117425000Y-102275000D01*
G75*
G02*
X117625000Y-102475000I0J-200000D01*
G01*
G37*
D12*
X122200000Y-109390000D03*
X123470000Y-109390000D03*
X124740000Y-109390000D03*
X126010000Y-109390000D03*
X127280000Y-109390000D03*
X128550000Y-109390000D03*
X129820000Y-109390000D03*
X131090000Y-109390000D03*
G36*
G01*
X131860000Y-108690000D02*
X132860000Y-108690000D01*
G75*
G02*
X133060000Y-108890000I0J-200000D01*
G01*
X133060000Y-109890000D01*
G75*
G02*
X132860000Y-110090000I-200000J0D01*
G01*
X131860000Y-110090000D01*
G75*
G02*
X131660000Y-109890000I0J200000D01*
G01*
X131660000Y-108890000D01*
G75*
G02*
X131860000Y-108690000I200000J0D01*
G01*
G37*
D13*
X135445500Y-113030000D03*
X132905500Y-113030000D03*
X130365500Y-113030000D03*
X127825500Y-113030000D03*
X125285500Y-113030000D03*
X122745500Y-113030000D03*
G36*
G01*
X121055500Y-114080000D02*
X119355500Y-114080000D01*
G75*
G02*
X119155500Y-113880000I0J200000D01*
G01*
X119155500Y-112180000D01*
G75*
G02*
X119355500Y-111980000I200000J0D01*
G01*
X121055500Y-111980000D01*
G75*
G02*
X121255500Y-112180000I0J-200000D01*
G01*
X121255500Y-113880000D01*
G75*
G02*
X121055500Y-114080000I-200000J0D01*
G01*
G37*
X132220000Y-105800000D03*
X129680000Y-105800000D03*
X127140000Y-105800000D03*
G36*
G01*
X125450000Y-106850000D02*
X123750000Y-106850000D01*
G75*
G02*
X123550000Y-106650000I0J200000D01*
G01*
X123550000Y-104950000D01*
G75*
G02*
X123750000Y-104750000I200000J0D01*
G01*
X125450000Y-104750000D01*
G75*
G02*
X125650000Y-104950000I0J-200000D01*
G01*
X125650000Y-106650000D01*
G75*
G02*
X125450000Y-106850000I-200000J0D01*
G01*
G37*
G36*
G01*
X125450000Y-103250000D02*
X123750000Y-103250000D01*
G75*
G02*
X123550000Y-103050000I0J200000D01*
G01*
X123550000Y-101350000D01*
G75*
G02*
X123750000Y-101150000I200000J0D01*
G01*
X125450000Y-101150000D01*
G75*
G02*
X125650000Y-101350000I0J-200000D01*
G01*
X125650000Y-103050000D01*
G75*
G02*
X125450000Y-103250000I-200000J0D01*
G01*
G37*
X127140000Y-102200000D03*
X129680000Y-102200000D03*
X132220000Y-102200000D03*
G36*
G01*
X138760000Y-110215000D02*
X138760000Y-110785000D01*
G75*
G02*
X138525000Y-111020000I-235000J0D01*
G01*
X138055000Y-111020000D01*
G75*
G02*
X137820000Y-110785000I0J235000D01*
G01*
X137820000Y-110215000D01*
G75*
G02*
X138055000Y-109980000I235000J0D01*
G01*
X138525000Y-109980000D01*
G75*
G02*
X138760000Y-110215000I0J-235000D01*
G01*
G37*
G36*
G01*
X139780000Y-110215000D02*
X139780000Y-110785000D01*
G75*
G02*
X139545000Y-111020000I-235000J0D01*
G01*
X139075000Y-111020000D01*
G75*
G02*
X138840000Y-110785000I0J235000D01*
G01*
X138840000Y-110215000D01*
G75*
G02*
X139075000Y-109980000I235000J0D01*
G01*
X139545000Y-109980000D01*
G75*
G02*
X139780000Y-110215000I0J-235000D01*
G01*
G37*
G36*
G01*
X138840000Y-108385000D02*
X138840000Y-107815000D01*
G75*
G02*
X139075000Y-107580000I235000J0D01*
G01*
X139545000Y-107580000D01*
G75*
G02*
X139780000Y-107815000I0J-235000D01*
G01*
X139780000Y-108385000D01*
G75*
G02*
X139545000Y-108620000I-235000J0D01*
G01*
X139075000Y-108620000D01*
G75*
G02*
X138840000Y-108385000I0J235000D01*
G01*
G37*
G36*
G01*
X137820000Y-108385000D02*
X137820000Y-107815000D01*
G75*
G02*
X138055000Y-107580000I235000J0D01*
G01*
X138525000Y-107580000D01*
G75*
G02*
X138760000Y-107815000I0J-235000D01*
G01*
X138760000Y-108385000D01*
G75*
G02*
X138525000Y-108620000I-235000J0D01*
G01*
X138055000Y-108620000D01*
G75*
G02*
X137820000Y-108385000I0J235000D01*
G01*
G37*
G36*
G01*
X112756250Y-110947500D02*
X112043750Y-110947500D01*
G75*
G02*
X111725000Y-110628750I0J318750D01*
G01*
X111725000Y-109991250D01*
G75*
G02*
X112043750Y-109672500I318750J0D01*
G01*
X112756250Y-109672500D01*
G75*
G02*
X113075000Y-109991250I0J-318750D01*
G01*
X113075000Y-110628750D01*
G75*
G02*
X112756250Y-110947500I-318750J0D01*
G01*
G37*
G36*
G01*
X112756250Y-112522500D02*
X112043750Y-112522500D01*
G75*
G02*
X111725000Y-112203750I0J318750D01*
G01*
X111725000Y-111566250D01*
G75*
G02*
X112043750Y-111247500I318750J0D01*
G01*
X112756250Y-111247500D01*
G75*
G02*
X113075000Y-111566250I0J-318750D01*
G01*
X113075000Y-112203750D01*
G75*
G02*
X112756250Y-112522500I-318750J0D01*
G01*
G37*
G36*
G01*
X138780000Y-109570000D02*
X138780000Y-109030000D01*
G75*
G02*
X139020000Y-108790000I240000J0D01*
G01*
X139500000Y-108790000D01*
G75*
G02*
X139740000Y-109030000I0J-240000D01*
G01*
X139740000Y-109570000D01*
G75*
G02*
X139500000Y-109810000I-240000J0D01*
G01*
X139020000Y-109810000D01*
G75*
G02*
X138780000Y-109570000I0J240000D01*
G01*
G37*
G36*
G01*
X137820000Y-109570000D02*
X137820000Y-109030000D01*
G75*
G02*
X138060000Y-108790000I240000J0D01*
G01*
X138540000Y-108790000D01*
G75*
G02*
X138780000Y-109030000I0J-240000D01*
G01*
X138780000Y-109570000D01*
G75*
G02*
X138540000Y-109810000I-240000J0D01*
G01*
X138060000Y-109810000D01*
G75*
G02*
X137820000Y-109570000I0J240000D01*
G01*
G37*
D14*
X139300000Y-106200000D03*
X138030000Y-106200000D03*
X139300000Y-104930000D03*
X138030000Y-104930000D03*
X139300000Y-103660000D03*
G36*
G01*
X145400000Y-111700000D02*
X145400000Y-111400000D01*
G75*
G02*
X145600000Y-111200000I200000J0D01*
G01*
X145900000Y-111200000D01*
G75*
G02*
X146100000Y-111400000I0J-200000D01*
G01*
X146100000Y-111700000D01*
G75*
G02*
X145900000Y-111900000I-200000J0D01*
G01*
X145600000Y-111900000D01*
G75*
G02*
X145400000Y-111700000I0J200000D01*
G01*
G37*
G36*
G01*
X151400000Y-111700000D02*
X151400000Y-111400000D01*
G75*
G02*
X151600000Y-111200000I200000J0D01*
G01*
X151900000Y-111200000D01*
G75*
G02*
X152100000Y-111400000I0J-200000D01*
G01*
X152100000Y-111700000D01*
G75*
G02*
X151900000Y-111900000I-200000J0D01*
G01*
X151600000Y-111900000D01*
G75*
G02*
X151400000Y-111700000I0J200000D01*
G01*
G37*
G36*
G01*
X150400000Y-111700000D02*
X150400000Y-111400000D01*
G75*
G02*
X150600000Y-111200000I200000J0D01*
G01*
X150900000Y-111200000D01*
G75*
G02*
X151100000Y-111400000I0J-200000D01*
G01*
X151100000Y-111700000D01*
G75*
G02*
X150900000Y-111900000I-200000J0D01*
G01*
X150600000Y-111900000D01*
G75*
G02*
X150400000Y-111700000I0J200000D01*
G01*
G37*
G36*
G01*
X149900000Y-111700000D02*
X149900000Y-111400000D01*
G75*
G02*
X150100000Y-111200000I200000J0D01*
G01*
X150400000Y-111200000D01*
G75*
G02*
X150600000Y-111400000I0J-200000D01*
G01*
X150600000Y-111700000D01*
G75*
G02*
X150400000Y-111900000I-200000J0D01*
G01*
X150100000Y-111900000D01*
G75*
G02*
X149900000Y-111700000I0J200000D01*
G01*
G37*
G36*
G01*
X146400000Y-111700000D02*
X146400000Y-111400000D01*
G75*
G02*
X146600000Y-111200000I200000J0D01*
G01*
X146900000Y-111200000D01*
G75*
G02*
X147100000Y-111400000I0J-200000D01*
G01*
X147100000Y-111700000D01*
G75*
G02*
X146900000Y-111900000I-200000J0D01*
G01*
X146600000Y-111900000D01*
G75*
G02*
X146400000Y-111700000I0J200000D01*
G01*
G37*
G36*
G01*
X155400000Y-111700000D02*
X155400000Y-111400000D01*
G75*
G02*
X155600000Y-111200000I200000J0D01*
G01*
X155900000Y-111200000D01*
G75*
G02*
X156100000Y-111400000I0J-200000D01*
G01*
X156100000Y-111700000D01*
G75*
G02*
X155900000Y-111900000I-200000J0D01*
G01*
X155600000Y-111900000D01*
G75*
G02*
X155400000Y-111700000I0J200000D01*
G01*
G37*
G36*
G01*
X154900000Y-111700000D02*
X154900000Y-111400000D01*
G75*
G02*
X155100000Y-111200000I200000J0D01*
G01*
X155400000Y-111200000D01*
G75*
G02*
X155600000Y-111400000I0J-200000D01*
G01*
X155600000Y-111700000D01*
G75*
G02*
X155400000Y-111900000I-200000J0D01*
G01*
X155100000Y-111900000D01*
G75*
G02*
X154900000Y-111700000I0J200000D01*
G01*
G37*
G36*
G01*
X154400000Y-111700000D02*
X154400000Y-111400000D01*
G75*
G02*
X154600000Y-111200000I200000J0D01*
G01*
X154900000Y-111200000D01*
G75*
G02*
X155100000Y-111400000I0J-200000D01*
G01*
X155100000Y-111700000D01*
G75*
G02*
X154900000Y-111900000I-200000J0D01*
G01*
X154600000Y-111900000D01*
G75*
G02*
X154400000Y-111700000I0J200000D01*
G01*
G37*
G36*
G01*
X144900000Y-111700000D02*
X144900000Y-111400000D01*
G75*
G02*
X145100000Y-111200000I200000J0D01*
G01*
X145400000Y-111200000D01*
G75*
G02*
X145600000Y-111400000I0J-200000D01*
G01*
X145600000Y-111700000D01*
G75*
G02*
X145400000Y-111900000I-200000J0D01*
G01*
X145100000Y-111900000D01*
G75*
G02*
X144900000Y-111700000I0J200000D01*
G01*
G37*
G36*
G01*
X153900000Y-111700000D02*
X153900000Y-111400000D01*
G75*
G02*
X154100000Y-111200000I200000J0D01*
G01*
X154400000Y-111200000D01*
G75*
G02*
X154600000Y-111400000I0J-200000D01*
G01*
X154600000Y-111700000D01*
G75*
G02*
X154400000Y-111900000I-200000J0D01*
G01*
X154100000Y-111900000D01*
G75*
G02*
X153900000Y-111700000I0J200000D01*
G01*
G37*
G36*
G01*
X150900000Y-111700000D02*
X150900000Y-111400000D01*
G75*
G02*
X151100000Y-111200000I200000J0D01*
G01*
X151400000Y-111200000D01*
G75*
G02*
X151600000Y-111400000I0J-200000D01*
G01*
X151600000Y-111700000D01*
G75*
G02*
X151400000Y-111900000I-200000J0D01*
G01*
X151100000Y-111900000D01*
G75*
G02*
X150900000Y-111700000I0J200000D01*
G01*
G37*
G36*
G01*
X145900000Y-111700000D02*
X145900000Y-111400000D01*
G75*
G02*
X146100000Y-111200000I200000J0D01*
G01*
X146400000Y-111200000D01*
G75*
G02*
X146600000Y-111400000I0J-200000D01*
G01*
X146600000Y-111700000D01*
G75*
G02*
X146400000Y-111900000I-200000J0D01*
G01*
X146100000Y-111900000D01*
G75*
G02*
X145900000Y-111700000I0J200000D01*
G01*
G37*
G36*
G01*
X153900000Y-103000000D02*
X153900000Y-102700000D01*
G75*
G02*
X154100000Y-102500000I200000J0D01*
G01*
X154400000Y-102500000D01*
G75*
G02*
X154600000Y-102700000I0J-200000D01*
G01*
X154600000Y-103000000D01*
G75*
G02*
X154400000Y-103200000I-200000J0D01*
G01*
X154100000Y-103200000D01*
G75*
G02*
X153900000Y-103000000I0J200000D01*
G01*
G37*
G36*
G01*
X154900000Y-103000000D02*
X154900000Y-102700000D01*
G75*
G02*
X155100000Y-102500000I200000J0D01*
G01*
X155400000Y-102500000D01*
G75*
G02*
X155600000Y-102700000I0J-200000D01*
G01*
X155600000Y-103000000D01*
G75*
G02*
X155400000Y-103200000I-200000J0D01*
G01*
X155100000Y-103200000D01*
G75*
G02*
X154900000Y-103000000I0J200000D01*
G01*
G37*
G36*
G01*
X155400000Y-103000000D02*
X155400000Y-102700000D01*
G75*
G02*
X155600000Y-102500000I200000J0D01*
G01*
X155900000Y-102500000D01*
G75*
G02*
X156100000Y-102700000I0J-200000D01*
G01*
X156100000Y-103000000D01*
G75*
G02*
X155900000Y-103200000I-200000J0D01*
G01*
X155600000Y-103200000D01*
G75*
G02*
X155400000Y-103000000I0J200000D01*
G01*
G37*
G36*
G01*
X154400000Y-103000000D02*
X154400000Y-102700000D01*
G75*
G02*
X154600000Y-102500000I200000J0D01*
G01*
X154900000Y-102500000D01*
G75*
G02*
X155100000Y-102700000I0J-200000D01*
G01*
X155100000Y-103000000D01*
G75*
G02*
X154900000Y-103200000I-200000J0D01*
G01*
X154600000Y-103200000D01*
G75*
G02*
X154400000Y-103000000I0J200000D01*
G01*
G37*
G36*
G01*
X150400000Y-103000000D02*
X150400000Y-102700000D01*
G75*
G02*
X150600000Y-102500000I200000J0D01*
G01*
X150900000Y-102500000D01*
G75*
G02*
X151100000Y-102700000I0J-200000D01*
G01*
X151100000Y-103000000D01*
G75*
G02*
X150900000Y-103200000I-200000J0D01*
G01*
X150600000Y-103200000D01*
G75*
G02*
X150400000Y-103000000I0J200000D01*
G01*
G37*
G36*
G01*
X151400000Y-103000000D02*
X151400000Y-102700000D01*
G75*
G02*
X151600000Y-102500000I200000J0D01*
G01*
X151900000Y-102500000D01*
G75*
G02*
X152100000Y-102700000I0J-200000D01*
G01*
X152100000Y-103000000D01*
G75*
G02*
X151900000Y-103200000I-200000J0D01*
G01*
X151600000Y-103200000D01*
G75*
G02*
X151400000Y-103000000I0J200000D01*
G01*
G37*
G36*
G01*
X150900000Y-103000000D02*
X150900000Y-102700000D01*
G75*
G02*
X151100000Y-102500000I200000J0D01*
G01*
X151400000Y-102500000D01*
G75*
G02*
X151600000Y-102700000I0J-200000D01*
G01*
X151600000Y-103000000D01*
G75*
G02*
X151400000Y-103200000I-200000J0D01*
G01*
X151100000Y-103200000D01*
G75*
G02*
X150900000Y-103000000I0J200000D01*
G01*
G37*
G36*
G01*
X149900000Y-103000000D02*
X149900000Y-102700000D01*
G75*
G02*
X150100000Y-102500000I200000J0D01*
G01*
X150400000Y-102500000D01*
G75*
G02*
X150600000Y-102700000I0J-200000D01*
G01*
X150600000Y-103000000D01*
G75*
G02*
X150400000Y-103200000I-200000J0D01*
G01*
X150100000Y-103200000D01*
G75*
G02*
X149900000Y-103000000I0J200000D01*
G01*
G37*
G36*
G01*
X145400000Y-103000000D02*
X145400000Y-102700000D01*
G75*
G02*
X145600000Y-102500000I200000J0D01*
G01*
X145900000Y-102500000D01*
G75*
G02*
X146100000Y-102700000I0J-200000D01*
G01*
X146100000Y-103000000D01*
G75*
G02*
X145900000Y-103200000I-200000J0D01*
G01*
X145600000Y-103200000D01*
G75*
G02*
X145400000Y-103000000I0J200000D01*
G01*
G37*
G36*
G01*
X146400000Y-103000000D02*
X146400000Y-102700000D01*
G75*
G02*
X146600000Y-102500000I200000J0D01*
G01*
X146900000Y-102500000D01*
G75*
G02*
X147100000Y-102700000I0J-200000D01*
G01*
X147100000Y-103000000D01*
G75*
G02*
X146900000Y-103200000I-200000J0D01*
G01*
X146600000Y-103200000D01*
G75*
G02*
X146400000Y-103000000I0J200000D01*
G01*
G37*
G36*
G01*
X145900000Y-103000000D02*
X145900000Y-102700000D01*
G75*
G02*
X146100000Y-102500000I200000J0D01*
G01*
X146400000Y-102500000D01*
G75*
G02*
X146600000Y-102700000I0J-200000D01*
G01*
X146600000Y-103000000D01*
G75*
G02*
X146400000Y-103200000I-200000J0D01*
G01*
X146100000Y-103200000D01*
G75*
G02*
X145900000Y-103000000I0J200000D01*
G01*
G37*
G36*
G01*
X144900000Y-103000000D02*
X144900000Y-102700000D01*
G75*
G02*
X145100000Y-102500000I200000J0D01*
G01*
X145400000Y-102500000D01*
G75*
G02*
X145600000Y-102700000I0J-200000D01*
G01*
X145600000Y-103000000D01*
G75*
G02*
X145400000Y-103200000I-200000J0D01*
G01*
X145100000Y-103200000D01*
G75*
G02*
X144900000Y-103000000I0J200000D01*
G01*
G37*
G36*
G01*
X157400000Y-112350000D02*
X157400000Y-112050000D01*
G75*
G02*
X157600000Y-111850000I200000J0D01*
G01*
X157900000Y-111850000D01*
G75*
G02*
X158100000Y-112050000I0J-200000D01*
G01*
X158100000Y-112350000D01*
G75*
G02*
X157900000Y-112550000I-200000J0D01*
G01*
X157600000Y-112550000D01*
G75*
G02*
X157400000Y-112350000I0J200000D01*
G01*
G37*
G36*
G01*
X156900000Y-112350000D02*
X156900000Y-112050000D01*
G75*
G02*
X157100000Y-111850000I200000J0D01*
G01*
X157400000Y-111850000D01*
G75*
G02*
X157600000Y-112050000I0J-200000D01*
G01*
X157600000Y-112350000D01*
G75*
G02*
X157400000Y-112550000I-200000J0D01*
G01*
X157100000Y-112550000D01*
G75*
G02*
X156900000Y-112350000I0J200000D01*
G01*
G37*
G36*
G01*
X156400000Y-112350000D02*
X156400000Y-112050000D01*
G75*
G02*
X156600000Y-111850000I200000J0D01*
G01*
X156900000Y-111850000D01*
G75*
G02*
X157100000Y-112050000I0J-200000D01*
G01*
X157100000Y-112350000D01*
G75*
G02*
X156900000Y-112550000I-200000J0D01*
G01*
X156600000Y-112550000D01*
G75*
G02*
X156400000Y-112350000I0J200000D01*
G01*
G37*
G36*
G01*
X155900000Y-112350000D02*
X155900000Y-112050000D01*
G75*
G02*
X156100000Y-111850000I200000J0D01*
G01*
X156400000Y-111850000D01*
G75*
G02*
X156600000Y-112050000I0J-200000D01*
G01*
X156600000Y-112350000D01*
G75*
G02*
X156400000Y-112550000I-200000J0D01*
G01*
X156100000Y-112550000D01*
G75*
G02*
X155900000Y-112350000I0J200000D01*
G01*
G37*
G36*
G01*
X155400000Y-112350000D02*
X155400000Y-112050000D01*
G75*
G02*
X155600000Y-111850000I200000J0D01*
G01*
X155900000Y-111850000D01*
G75*
G02*
X156100000Y-112050000I0J-200000D01*
G01*
X156100000Y-112350000D01*
G75*
G02*
X155900000Y-112550000I-200000J0D01*
G01*
X155600000Y-112550000D01*
G75*
G02*
X155400000Y-112350000I0J200000D01*
G01*
G37*
G36*
G01*
X154900000Y-112350000D02*
X154900000Y-112050000D01*
G75*
G02*
X155100000Y-111850000I200000J0D01*
G01*
X155400000Y-111850000D01*
G75*
G02*
X155600000Y-112050000I0J-200000D01*
G01*
X155600000Y-112350000D01*
G75*
G02*
X155400000Y-112550000I-200000J0D01*
G01*
X155100000Y-112550000D01*
G75*
G02*
X154900000Y-112350000I0J200000D01*
G01*
G37*
G36*
G01*
X154400000Y-112350000D02*
X154400000Y-112050000D01*
G75*
G02*
X154600000Y-111850000I200000J0D01*
G01*
X154900000Y-111850000D01*
G75*
G02*
X155100000Y-112050000I0J-200000D01*
G01*
X155100000Y-112350000D01*
G75*
G02*
X154900000Y-112550000I-200000J0D01*
G01*
X154600000Y-112550000D01*
G75*
G02*
X154400000Y-112350000I0J200000D01*
G01*
G37*
G36*
G01*
X153900000Y-112350000D02*
X153900000Y-112050000D01*
G75*
G02*
X154100000Y-111850000I200000J0D01*
G01*
X154400000Y-111850000D01*
G75*
G02*
X154600000Y-112050000I0J-200000D01*
G01*
X154600000Y-112350000D01*
G75*
G02*
X154400000Y-112550000I-200000J0D01*
G01*
X154100000Y-112550000D01*
G75*
G02*
X153900000Y-112350000I0J200000D01*
G01*
G37*
G36*
G01*
X153400000Y-112350000D02*
X153400000Y-112050000D01*
G75*
G02*
X153600000Y-111850000I200000J0D01*
G01*
X153900000Y-111850000D01*
G75*
G02*
X154100000Y-112050000I0J-200000D01*
G01*
X154100000Y-112350000D01*
G75*
G02*
X153900000Y-112550000I-200000J0D01*
G01*
X153600000Y-112550000D01*
G75*
G02*
X153400000Y-112350000I0J200000D01*
G01*
G37*
G36*
G01*
X152900000Y-112350000D02*
X152900000Y-112050000D01*
G75*
G02*
X153100000Y-111850000I200000J0D01*
G01*
X153400000Y-111850000D01*
G75*
G02*
X153600000Y-112050000I0J-200000D01*
G01*
X153600000Y-112350000D01*
G75*
G02*
X153400000Y-112550000I-200000J0D01*
G01*
X153100000Y-112550000D01*
G75*
G02*
X152900000Y-112350000I0J200000D01*
G01*
G37*
G36*
G01*
X152400000Y-112350000D02*
X152400000Y-112050000D01*
G75*
G02*
X152600000Y-111850000I200000J0D01*
G01*
X152900000Y-111850000D01*
G75*
G02*
X153100000Y-112050000I0J-200000D01*
G01*
X153100000Y-112350000D01*
G75*
G02*
X152900000Y-112550000I-200000J0D01*
G01*
X152600000Y-112550000D01*
G75*
G02*
X152400000Y-112350000I0J200000D01*
G01*
G37*
G36*
G01*
X151900000Y-112350000D02*
X151900000Y-112050000D01*
G75*
G02*
X152100000Y-111850000I200000J0D01*
G01*
X152400000Y-111850000D01*
G75*
G02*
X152600000Y-112050000I0J-200000D01*
G01*
X152600000Y-112350000D01*
G75*
G02*
X152400000Y-112550000I-200000J0D01*
G01*
X152100000Y-112550000D01*
G75*
G02*
X151900000Y-112350000I0J200000D01*
G01*
G37*
G36*
G01*
X151400000Y-112350000D02*
X151400000Y-112050000D01*
G75*
G02*
X151600000Y-111850000I200000J0D01*
G01*
X151900000Y-111850000D01*
G75*
G02*
X152100000Y-112050000I0J-200000D01*
G01*
X152100000Y-112350000D01*
G75*
G02*
X151900000Y-112550000I-200000J0D01*
G01*
X151600000Y-112550000D01*
G75*
G02*
X151400000Y-112350000I0J200000D01*
G01*
G37*
G36*
G01*
X150900000Y-112350000D02*
X150900000Y-112050000D01*
G75*
G02*
X151100000Y-111850000I200000J0D01*
G01*
X151400000Y-111850000D01*
G75*
G02*
X151600000Y-112050000I0J-200000D01*
G01*
X151600000Y-112350000D01*
G75*
G02*
X151400000Y-112550000I-200000J0D01*
G01*
X151100000Y-112550000D01*
G75*
G02*
X150900000Y-112350000I0J200000D01*
G01*
G37*
G36*
G01*
X150400000Y-112350000D02*
X150400000Y-112050000D01*
G75*
G02*
X150600000Y-111850000I200000J0D01*
G01*
X150900000Y-111850000D01*
G75*
G02*
X151100000Y-112050000I0J-200000D01*
G01*
X151100000Y-112350000D01*
G75*
G02*
X150900000Y-112550000I-200000J0D01*
G01*
X150600000Y-112550000D01*
G75*
G02*
X150400000Y-112350000I0J200000D01*
G01*
G37*
G36*
G01*
X149900000Y-112350000D02*
X149900000Y-112050000D01*
G75*
G02*
X150100000Y-111850000I200000J0D01*
G01*
X150400000Y-111850000D01*
G75*
G02*
X150600000Y-112050000I0J-200000D01*
G01*
X150600000Y-112350000D01*
G75*
G02*
X150400000Y-112550000I-200000J0D01*
G01*
X150100000Y-112550000D01*
G75*
G02*
X149900000Y-112350000I0J200000D01*
G01*
G37*
G36*
G01*
X149400000Y-112350000D02*
X149400000Y-112050000D01*
G75*
G02*
X149600000Y-111850000I200000J0D01*
G01*
X149900000Y-111850000D01*
G75*
G02*
X150100000Y-112050000I0J-200000D01*
G01*
X150100000Y-112350000D01*
G75*
G02*
X149900000Y-112550000I-200000J0D01*
G01*
X149600000Y-112550000D01*
G75*
G02*
X149400000Y-112350000I0J200000D01*
G01*
G37*
G36*
G01*
X148900000Y-112350000D02*
X148900000Y-112050000D01*
G75*
G02*
X149100000Y-111850000I200000J0D01*
G01*
X149400000Y-111850000D01*
G75*
G02*
X149600000Y-112050000I0J-200000D01*
G01*
X149600000Y-112350000D01*
G75*
G02*
X149400000Y-112550000I-200000J0D01*
G01*
X149100000Y-112550000D01*
G75*
G02*
X148900000Y-112350000I0J200000D01*
G01*
G37*
G36*
G01*
X148400000Y-112350000D02*
X148400000Y-112050000D01*
G75*
G02*
X148600000Y-111850000I200000J0D01*
G01*
X148900000Y-111850000D01*
G75*
G02*
X149100000Y-112050000I0J-200000D01*
G01*
X149100000Y-112350000D01*
G75*
G02*
X148900000Y-112550000I-200000J0D01*
G01*
X148600000Y-112550000D01*
G75*
G02*
X148400000Y-112350000I0J200000D01*
G01*
G37*
G36*
G01*
X147900000Y-112350000D02*
X147900000Y-112050000D01*
G75*
G02*
X148100000Y-111850000I200000J0D01*
G01*
X148400000Y-111850000D01*
G75*
G02*
X148600000Y-112050000I0J-200000D01*
G01*
X148600000Y-112350000D01*
G75*
G02*
X148400000Y-112550000I-200000J0D01*
G01*
X148100000Y-112550000D01*
G75*
G02*
X147900000Y-112350000I0J200000D01*
G01*
G37*
G36*
G01*
X147400000Y-112350000D02*
X147400000Y-112050000D01*
G75*
G02*
X147600000Y-111850000I200000J0D01*
G01*
X147900000Y-111850000D01*
G75*
G02*
X148100000Y-112050000I0J-200000D01*
G01*
X148100000Y-112350000D01*
G75*
G02*
X147900000Y-112550000I-200000J0D01*
G01*
X147600000Y-112550000D01*
G75*
G02*
X147400000Y-112350000I0J200000D01*
G01*
G37*
G36*
G01*
X146900000Y-112350000D02*
X146900000Y-112050000D01*
G75*
G02*
X147100000Y-111850000I200000J0D01*
G01*
X147400000Y-111850000D01*
G75*
G02*
X147600000Y-112050000I0J-200000D01*
G01*
X147600000Y-112350000D01*
G75*
G02*
X147400000Y-112550000I-200000J0D01*
G01*
X147100000Y-112550000D01*
G75*
G02*
X146900000Y-112350000I0J200000D01*
G01*
G37*
G36*
G01*
X146400000Y-112350000D02*
X146400000Y-112050000D01*
G75*
G02*
X146600000Y-111850000I200000J0D01*
G01*
X146900000Y-111850000D01*
G75*
G02*
X147100000Y-112050000I0J-200000D01*
G01*
X147100000Y-112350000D01*
G75*
G02*
X146900000Y-112550000I-200000J0D01*
G01*
X146600000Y-112550000D01*
G75*
G02*
X146400000Y-112350000I0J200000D01*
G01*
G37*
G36*
G01*
X145900000Y-112350000D02*
X145900000Y-112050000D01*
G75*
G02*
X146100000Y-111850000I200000J0D01*
G01*
X146400000Y-111850000D01*
G75*
G02*
X146600000Y-112050000I0J-200000D01*
G01*
X146600000Y-112350000D01*
G75*
G02*
X146400000Y-112550000I-200000J0D01*
G01*
X146100000Y-112550000D01*
G75*
G02*
X145900000Y-112350000I0J200000D01*
G01*
G37*
G36*
G01*
X145400000Y-112350000D02*
X145400000Y-112050000D01*
G75*
G02*
X145600000Y-111850000I200000J0D01*
G01*
X145900000Y-111850000D01*
G75*
G02*
X146100000Y-112050000I0J-200000D01*
G01*
X146100000Y-112350000D01*
G75*
G02*
X145900000Y-112550000I-200000J0D01*
G01*
X145600000Y-112550000D01*
G75*
G02*
X145400000Y-112350000I0J200000D01*
G01*
G37*
G36*
G01*
X144900000Y-112350000D02*
X144900000Y-112050000D01*
G75*
G02*
X145100000Y-111850000I200000J0D01*
G01*
X145400000Y-111850000D01*
G75*
G02*
X145600000Y-112050000I0J-200000D01*
G01*
X145600000Y-112350000D01*
G75*
G02*
X145400000Y-112550000I-200000J0D01*
G01*
X145100000Y-112550000D01*
G75*
G02*
X144900000Y-112350000I0J200000D01*
G01*
G37*
G36*
G01*
X144400000Y-112350000D02*
X144400000Y-112050000D01*
G75*
G02*
X144600000Y-111850000I200000J0D01*
G01*
X144900000Y-111850000D01*
G75*
G02*
X145100000Y-112050000I0J-200000D01*
G01*
X145100000Y-112350000D01*
G75*
G02*
X144900000Y-112550000I-200000J0D01*
G01*
X144600000Y-112550000D01*
G75*
G02*
X144400000Y-112350000I0J200000D01*
G01*
G37*
G36*
G01*
X143900000Y-112350000D02*
X143900000Y-112050000D01*
G75*
G02*
X144100000Y-111850000I200000J0D01*
G01*
X144400000Y-111850000D01*
G75*
G02*
X144600000Y-112050000I0J-200000D01*
G01*
X144600000Y-112350000D01*
G75*
G02*
X144400000Y-112550000I-200000J0D01*
G01*
X144100000Y-112550000D01*
G75*
G02*
X143900000Y-112350000I0J200000D01*
G01*
G37*
G36*
G01*
X143400000Y-112350000D02*
X143400000Y-112050000D01*
G75*
G02*
X143600000Y-111850000I200000J0D01*
G01*
X143900000Y-111850000D01*
G75*
G02*
X144100000Y-112050000I0J-200000D01*
G01*
X144100000Y-112350000D01*
G75*
G02*
X143900000Y-112550000I-200000J0D01*
G01*
X143600000Y-112550000D01*
G75*
G02*
X143400000Y-112350000I0J200000D01*
G01*
G37*
G36*
G01*
X142900000Y-112350000D02*
X142900000Y-112050000D01*
G75*
G02*
X143100000Y-111850000I200000J0D01*
G01*
X143400000Y-111850000D01*
G75*
G02*
X143600000Y-112050000I0J-200000D01*
G01*
X143600000Y-112350000D01*
G75*
G02*
X143400000Y-112550000I-200000J0D01*
G01*
X143100000Y-112550000D01*
G75*
G02*
X142900000Y-112350000I0J200000D01*
G01*
G37*
G36*
G01*
X142400000Y-112350000D02*
X142400000Y-112050000D01*
G75*
G02*
X142600000Y-111850000I200000J0D01*
G01*
X142900000Y-111850000D01*
G75*
G02*
X143100000Y-112050000I0J-200000D01*
G01*
X143100000Y-112350000D01*
G75*
G02*
X142900000Y-112550000I-200000J0D01*
G01*
X142600000Y-112550000D01*
G75*
G02*
X142400000Y-112350000I0J200000D01*
G01*
G37*
G36*
G01*
X157400000Y-111850000D02*
X157400000Y-111550000D01*
G75*
G02*
X157600000Y-111350000I200000J0D01*
G01*
X157900000Y-111350000D01*
G75*
G02*
X158100000Y-111550000I0J-200000D01*
G01*
X158100000Y-111850000D01*
G75*
G02*
X157900000Y-112050000I-200000J0D01*
G01*
X157600000Y-112050000D01*
G75*
G02*
X157400000Y-111850000I0J200000D01*
G01*
G37*
G36*
G01*
X157400000Y-111350000D02*
X157400000Y-111050000D01*
G75*
G02*
X157600000Y-110850000I200000J0D01*
G01*
X157900000Y-110850000D01*
G75*
G02*
X158100000Y-111050000I0J-200000D01*
G01*
X158100000Y-111350000D01*
G75*
G02*
X157900000Y-111550000I-200000J0D01*
G01*
X157600000Y-111550000D01*
G75*
G02*
X157400000Y-111350000I0J200000D01*
G01*
G37*
G36*
G01*
X157400000Y-110850000D02*
X157400000Y-110550000D01*
G75*
G02*
X157600000Y-110350000I200000J0D01*
G01*
X157900000Y-110350000D01*
G75*
G02*
X158100000Y-110550000I0J-200000D01*
G01*
X158100000Y-110850000D01*
G75*
G02*
X157900000Y-111050000I-200000J0D01*
G01*
X157600000Y-111050000D01*
G75*
G02*
X157400000Y-110850000I0J200000D01*
G01*
G37*
G36*
G01*
X157400000Y-110350000D02*
X157400000Y-110050000D01*
G75*
G02*
X157600000Y-109850000I200000J0D01*
G01*
X157900000Y-109850000D01*
G75*
G02*
X158100000Y-110050000I0J-200000D01*
G01*
X158100000Y-110350000D01*
G75*
G02*
X157900000Y-110550000I-200000J0D01*
G01*
X157600000Y-110550000D01*
G75*
G02*
X157400000Y-110350000I0J200000D01*
G01*
G37*
G36*
G01*
X157400000Y-109850000D02*
X157400000Y-109550000D01*
G75*
G02*
X157600000Y-109350000I200000J0D01*
G01*
X157900000Y-109350000D01*
G75*
G02*
X158100000Y-109550000I0J-200000D01*
G01*
X158100000Y-109850000D01*
G75*
G02*
X157900000Y-110050000I-200000J0D01*
G01*
X157600000Y-110050000D01*
G75*
G02*
X157400000Y-109850000I0J200000D01*
G01*
G37*
G36*
G01*
X157400000Y-109350000D02*
X157400000Y-109050000D01*
G75*
G02*
X157600000Y-108850000I200000J0D01*
G01*
X157900000Y-108850000D01*
G75*
G02*
X158100000Y-109050000I0J-200000D01*
G01*
X158100000Y-109350000D01*
G75*
G02*
X157900000Y-109550000I-200000J0D01*
G01*
X157600000Y-109550000D01*
G75*
G02*
X157400000Y-109350000I0J200000D01*
G01*
G37*
G36*
G01*
X157400000Y-108850000D02*
X157400000Y-108550000D01*
G75*
G02*
X157600000Y-108350000I200000J0D01*
G01*
X157900000Y-108350000D01*
G75*
G02*
X158100000Y-108550000I0J-200000D01*
G01*
X158100000Y-108850000D01*
G75*
G02*
X157900000Y-109050000I-200000J0D01*
G01*
X157600000Y-109050000D01*
G75*
G02*
X157400000Y-108850000I0J200000D01*
G01*
G37*
G36*
G01*
X157400000Y-108350000D02*
X157400000Y-108050000D01*
G75*
G02*
X157600000Y-107850000I200000J0D01*
G01*
X157900000Y-107850000D01*
G75*
G02*
X158100000Y-108050000I0J-200000D01*
G01*
X158100000Y-108350000D01*
G75*
G02*
X157900000Y-108550000I-200000J0D01*
G01*
X157600000Y-108550000D01*
G75*
G02*
X157400000Y-108350000I0J200000D01*
G01*
G37*
G36*
G01*
X157400000Y-107850000D02*
X157400000Y-107550000D01*
G75*
G02*
X157600000Y-107350000I200000J0D01*
G01*
X157900000Y-107350000D01*
G75*
G02*
X158100000Y-107550000I0J-200000D01*
G01*
X158100000Y-107850000D01*
G75*
G02*
X157900000Y-108050000I-200000J0D01*
G01*
X157600000Y-108050000D01*
G75*
G02*
X157400000Y-107850000I0J200000D01*
G01*
G37*
G36*
G01*
X157400000Y-107350000D02*
X157400000Y-107050000D01*
G75*
G02*
X157600000Y-106850000I200000J0D01*
G01*
X157900000Y-106850000D01*
G75*
G02*
X158100000Y-107050000I0J-200000D01*
G01*
X158100000Y-107350000D01*
G75*
G02*
X157900000Y-107550000I-200000J0D01*
G01*
X157600000Y-107550000D01*
G75*
G02*
X157400000Y-107350000I0J200000D01*
G01*
G37*
G36*
G01*
X157400000Y-106850000D02*
X157400000Y-106550000D01*
G75*
G02*
X157600000Y-106350000I200000J0D01*
G01*
X157900000Y-106350000D01*
G75*
G02*
X158100000Y-106550000I0J-200000D01*
G01*
X158100000Y-106850000D01*
G75*
G02*
X157900000Y-107050000I-200000J0D01*
G01*
X157600000Y-107050000D01*
G75*
G02*
X157400000Y-106850000I0J200000D01*
G01*
G37*
G36*
G01*
X157400000Y-106350000D02*
X157400000Y-106050000D01*
G75*
G02*
X157600000Y-105850000I200000J0D01*
G01*
X157900000Y-105850000D01*
G75*
G02*
X158100000Y-106050000I0J-200000D01*
G01*
X158100000Y-106350000D01*
G75*
G02*
X157900000Y-106550000I-200000J0D01*
G01*
X157600000Y-106550000D01*
G75*
G02*
X157400000Y-106350000I0J200000D01*
G01*
G37*
G36*
G01*
X157400000Y-105850000D02*
X157400000Y-105550000D01*
G75*
G02*
X157600000Y-105350000I200000J0D01*
G01*
X157900000Y-105350000D01*
G75*
G02*
X158100000Y-105550000I0J-200000D01*
G01*
X158100000Y-105850000D01*
G75*
G02*
X157900000Y-106050000I-200000J0D01*
G01*
X157600000Y-106050000D01*
G75*
G02*
X157400000Y-105850000I0J200000D01*
G01*
G37*
G36*
G01*
X157400000Y-105350000D02*
X157400000Y-105050000D01*
G75*
G02*
X157600000Y-104850000I200000J0D01*
G01*
X157900000Y-104850000D01*
G75*
G02*
X158100000Y-105050000I0J-200000D01*
G01*
X158100000Y-105350000D01*
G75*
G02*
X157900000Y-105550000I-200000J0D01*
G01*
X157600000Y-105550000D01*
G75*
G02*
X157400000Y-105350000I0J200000D01*
G01*
G37*
G36*
G01*
X157400000Y-104850000D02*
X157400000Y-104550000D01*
G75*
G02*
X157600000Y-104350000I200000J0D01*
G01*
X157900000Y-104350000D01*
G75*
G02*
X158100000Y-104550000I0J-200000D01*
G01*
X158100000Y-104850000D01*
G75*
G02*
X157900000Y-105050000I-200000J0D01*
G01*
X157600000Y-105050000D01*
G75*
G02*
X157400000Y-104850000I0J200000D01*
G01*
G37*
G36*
G01*
X157400000Y-104350000D02*
X157400000Y-104050000D01*
G75*
G02*
X157600000Y-103850000I200000J0D01*
G01*
X157900000Y-103850000D01*
G75*
G02*
X158100000Y-104050000I0J-200000D01*
G01*
X158100000Y-104350000D01*
G75*
G02*
X157900000Y-104550000I-200000J0D01*
G01*
X157600000Y-104550000D01*
G75*
G02*
X157400000Y-104350000I0J200000D01*
G01*
G37*
G36*
G01*
X157400000Y-103850000D02*
X157400000Y-103550000D01*
G75*
G02*
X157600000Y-103350000I200000J0D01*
G01*
X157900000Y-103350000D01*
G75*
G02*
X158100000Y-103550000I0J-200000D01*
G01*
X158100000Y-103850000D01*
G75*
G02*
X157900000Y-104050000I-200000J0D01*
G01*
X157600000Y-104050000D01*
G75*
G02*
X157400000Y-103850000I0J200000D01*
G01*
G37*
G36*
G01*
X157400000Y-103350000D02*
X157400000Y-103050000D01*
G75*
G02*
X157600000Y-102850000I200000J0D01*
G01*
X157900000Y-102850000D01*
G75*
G02*
X158100000Y-103050000I0J-200000D01*
G01*
X158100000Y-103350000D01*
G75*
G02*
X157900000Y-103550000I-200000J0D01*
G01*
X157600000Y-103550000D01*
G75*
G02*
X157400000Y-103350000I0J200000D01*
G01*
G37*
G36*
G01*
X157400000Y-102850000D02*
X157400000Y-102550000D01*
G75*
G02*
X157600000Y-102350000I200000J0D01*
G01*
X157900000Y-102350000D01*
G75*
G02*
X158100000Y-102550000I0J-200000D01*
G01*
X158100000Y-102850000D01*
G75*
G02*
X157900000Y-103050000I-200000J0D01*
G01*
X157600000Y-103050000D01*
G75*
G02*
X157400000Y-102850000I0J200000D01*
G01*
G37*
G36*
G01*
X141900000Y-112350000D02*
X141900000Y-112050000D01*
G75*
G02*
X142100000Y-111850000I200000J0D01*
G01*
X142400000Y-111850000D01*
G75*
G02*
X142600000Y-112050000I0J-200000D01*
G01*
X142600000Y-112350000D01*
G75*
G02*
X142400000Y-112550000I-200000J0D01*
G01*
X142100000Y-112550000D01*
G75*
G02*
X141900000Y-112350000I0J200000D01*
G01*
G37*
G36*
G01*
X141900000Y-111850000D02*
X141900000Y-111550000D01*
G75*
G02*
X142100000Y-111350000I200000J0D01*
G01*
X142400000Y-111350000D01*
G75*
G02*
X142600000Y-111550000I0J-200000D01*
G01*
X142600000Y-111850000D01*
G75*
G02*
X142400000Y-112050000I-200000J0D01*
G01*
X142100000Y-112050000D01*
G75*
G02*
X141900000Y-111850000I0J200000D01*
G01*
G37*
G36*
G01*
X141900000Y-111350000D02*
X141900000Y-111050000D01*
G75*
G02*
X142100000Y-110850000I200000J0D01*
G01*
X142400000Y-110850000D01*
G75*
G02*
X142600000Y-111050000I0J-200000D01*
G01*
X142600000Y-111350000D01*
G75*
G02*
X142400000Y-111550000I-200000J0D01*
G01*
X142100000Y-111550000D01*
G75*
G02*
X141900000Y-111350000I0J200000D01*
G01*
G37*
G36*
G01*
X141900000Y-110850000D02*
X141900000Y-110550000D01*
G75*
G02*
X142100000Y-110350000I200000J0D01*
G01*
X142400000Y-110350000D01*
G75*
G02*
X142600000Y-110550000I0J-200000D01*
G01*
X142600000Y-110850000D01*
G75*
G02*
X142400000Y-111050000I-200000J0D01*
G01*
X142100000Y-111050000D01*
G75*
G02*
X141900000Y-110850000I0J200000D01*
G01*
G37*
G36*
G01*
X141900000Y-110350000D02*
X141900000Y-110050000D01*
G75*
G02*
X142100000Y-109850000I200000J0D01*
G01*
X142400000Y-109850000D01*
G75*
G02*
X142600000Y-110050000I0J-200000D01*
G01*
X142600000Y-110350000D01*
G75*
G02*
X142400000Y-110550000I-200000J0D01*
G01*
X142100000Y-110550000D01*
G75*
G02*
X141900000Y-110350000I0J200000D01*
G01*
G37*
G36*
G01*
X141900000Y-109850000D02*
X141900000Y-109550000D01*
G75*
G02*
X142100000Y-109350000I200000J0D01*
G01*
X142400000Y-109350000D01*
G75*
G02*
X142600000Y-109550000I0J-200000D01*
G01*
X142600000Y-109850000D01*
G75*
G02*
X142400000Y-110050000I-200000J0D01*
G01*
X142100000Y-110050000D01*
G75*
G02*
X141900000Y-109850000I0J200000D01*
G01*
G37*
G36*
G01*
X141900000Y-109350000D02*
X141900000Y-109050000D01*
G75*
G02*
X142100000Y-108850000I200000J0D01*
G01*
X142400000Y-108850000D01*
G75*
G02*
X142600000Y-109050000I0J-200000D01*
G01*
X142600000Y-109350000D01*
G75*
G02*
X142400000Y-109550000I-200000J0D01*
G01*
X142100000Y-109550000D01*
G75*
G02*
X141900000Y-109350000I0J200000D01*
G01*
G37*
G36*
G01*
X141900000Y-108850000D02*
X141900000Y-108550000D01*
G75*
G02*
X142100000Y-108350000I200000J0D01*
G01*
X142400000Y-108350000D01*
G75*
G02*
X142600000Y-108550000I0J-200000D01*
G01*
X142600000Y-108850000D01*
G75*
G02*
X142400000Y-109050000I-200000J0D01*
G01*
X142100000Y-109050000D01*
G75*
G02*
X141900000Y-108850000I0J200000D01*
G01*
G37*
G36*
G01*
X141900000Y-108350000D02*
X141900000Y-108050000D01*
G75*
G02*
X142100000Y-107850000I200000J0D01*
G01*
X142400000Y-107850000D01*
G75*
G02*
X142600000Y-108050000I0J-200000D01*
G01*
X142600000Y-108350000D01*
G75*
G02*
X142400000Y-108550000I-200000J0D01*
G01*
X142100000Y-108550000D01*
G75*
G02*
X141900000Y-108350000I0J200000D01*
G01*
G37*
G36*
G01*
X141900000Y-107850000D02*
X141900000Y-107550000D01*
G75*
G02*
X142100000Y-107350000I200000J0D01*
G01*
X142400000Y-107350000D01*
G75*
G02*
X142600000Y-107550000I0J-200000D01*
G01*
X142600000Y-107850000D01*
G75*
G02*
X142400000Y-108050000I-200000J0D01*
G01*
X142100000Y-108050000D01*
G75*
G02*
X141900000Y-107850000I0J200000D01*
G01*
G37*
G36*
G01*
X141900000Y-107350000D02*
X141900000Y-107050000D01*
G75*
G02*
X142100000Y-106850000I200000J0D01*
G01*
X142400000Y-106850000D01*
G75*
G02*
X142600000Y-107050000I0J-200000D01*
G01*
X142600000Y-107350000D01*
G75*
G02*
X142400000Y-107550000I-200000J0D01*
G01*
X142100000Y-107550000D01*
G75*
G02*
X141900000Y-107350000I0J200000D01*
G01*
G37*
G36*
G01*
X141900000Y-106850000D02*
X141900000Y-106550000D01*
G75*
G02*
X142100000Y-106350000I200000J0D01*
G01*
X142400000Y-106350000D01*
G75*
G02*
X142600000Y-106550000I0J-200000D01*
G01*
X142600000Y-106850000D01*
G75*
G02*
X142400000Y-107050000I-200000J0D01*
G01*
X142100000Y-107050000D01*
G75*
G02*
X141900000Y-106850000I0J200000D01*
G01*
G37*
G36*
G01*
X141900000Y-106350000D02*
X141900000Y-106050000D01*
G75*
G02*
X142100000Y-105850000I200000J0D01*
G01*
X142400000Y-105850000D01*
G75*
G02*
X142600000Y-106050000I0J-200000D01*
G01*
X142600000Y-106350000D01*
G75*
G02*
X142400000Y-106550000I-200000J0D01*
G01*
X142100000Y-106550000D01*
G75*
G02*
X141900000Y-106350000I0J200000D01*
G01*
G37*
G36*
G01*
X141900000Y-105850000D02*
X141900000Y-105550000D01*
G75*
G02*
X142100000Y-105350000I200000J0D01*
G01*
X142400000Y-105350000D01*
G75*
G02*
X142600000Y-105550000I0J-200000D01*
G01*
X142600000Y-105850000D01*
G75*
G02*
X142400000Y-106050000I-200000J0D01*
G01*
X142100000Y-106050000D01*
G75*
G02*
X141900000Y-105850000I0J200000D01*
G01*
G37*
G36*
G01*
X141900000Y-105350000D02*
X141900000Y-105050000D01*
G75*
G02*
X142100000Y-104850000I200000J0D01*
G01*
X142400000Y-104850000D01*
G75*
G02*
X142600000Y-105050000I0J-200000D01*
G01*
X142600000Y-105350000D01*
G75*
G02*
X142400000Y-105550000I-200000J0D01*
G01*
X142100000Y-105550000D01*
G75*
G02*
X141900000Y-105350000I0J200000D01*
G01*
G37*
G36*
G01*
X141900000Y-104850000D02*
X141900000Y-104550000D01*
G75*
G02*
X142100000Y-104350000I200000J0D01*
G01*
X142400000Y-104350000D01*
G75*
G02*
X142600000Y-104550000I0J-200000D01*
G01*
X142600000Y-104850000D01*
G75*
G02*
X142400000Y-105050000I-200000J0D01*
G01*
X142100000Y-105050000D01*
G75*
G02*
X141900000Y-104850000I0J200000D01*
G01*
G37*
G36*
G01*
X141900000Y-104350000D02*
X141900000Y-104050000D01*
G75*
G02*
X142100000Y-103850000I200000J0D01*
G01*
X142400000Y-103850000D01*
G75*
G02*
X142600000Y-104050000I0J-200000D01*
G01*
X142600000Y-104350000D01*
G75*
G02*
X142400000Y-104550000I-200000J0D01*
G01*
X142100000Y-104550000D01*
G75*
G02*
X141900000Y-104350000I0J200000D01*
G01*
G37*
G36*
G01*
X141900000Y-103850000D02*
X141900000Y-103550000D01*
G75*
G02*
X142100000Y-103350000I200000J0D01*
G01*
X142400000Y-103350000D01*
G75*
G02*
X142600000Y-103550000I0J-200000D01*
G01*
X142600000Y-103850000D01*
G75*
G02*
X142400000Y-104050000I-200000J0D01*
G01*
X142100000Y-104050000D01*
G75*
G02*
X141900000Y-103850000I0J200000D01*
G01*
G37*
G36*
G01*
X141900000Y-103350000D02*
X141900000Y-103050000D01*
G75*
G02*
X142100000Y-102850000I200000J0D01*
G01*
X142400000Y-102850000D01*
G75*
G02*
X142600000Y-103050000I0J-200000D01*
G01*
X142600000Y-103350000D01*
G75*
G02*
X142400000Y-103550000I-200000J0D01*
G01*
X142100000Y-103550000D01*
G75*
G02*
X141900000Y-103350000I0J200000D01*
G01*
G37*
G36*
G01*
X141900000Y-102850000D02*
X141900000Y-102550000D01*
G75*
G02*
X142100000Y-102350000I200000J0D01*
G01*
X142400000Y-102350000D01*
G75*
G02*
X142600000Y-102550000I0J-200000D01*
G01*
X142600000Y-102850000D01*
G75*
G02*
X142400000Y-103050000I-200000J0D01*
G01*
X142100000Y-103050000D01*
G75*
G02*
X141900000Y-102850000I0J200000D01*
G01*
G37*
G36*
G01*
X157400000Y-102350000D02*
X157400000Y-102050000D01*
G75*
G02*
X157600000Y-101850000I200000J0D01*
G01*
X157900000Y-101850000D01*
G75*
G02*
X158100000Y-102050000I0J-200000D01*
G01*
X158100000Y-102350000D01*
G75*
G02*
X157900000Y-102550000I-200000J0D01*
G01*
X157600000Y-102550000D01*
G75*
G02*
X157400000Y-102350000I0J200000D01*
G01*
G37*
G36*
G01*
X156900000Y-102350000D02*
X156900000Y-102050000D01*
G75*
G02*
X157100000Y-101850000I200000J0D01*
G01*
X157400000Y-101850000D01*
G75*
G02*
X157600000Y-102050000I0J-200000D01*
G01*
X157600000Y-102350000D01*
G75*
G02*
X157400000Y-102550000I-200000J0D01*
G01*
X157100000Y-102550000D01*
G75*
G02*
X156900000Y-102350000I0J200000D01*
G01*
G37*
G36*
G01*
X156400000Y-102350000D02*
X156400000Y-102050000D01*
G75*
G02*
X156600000Y-101850000I200000J0D01*
G01*
X156900000Y-101850000D01*
G75*
G02*
X157100000Y-102050000I0J-200000D01*
G01*
X157100000Y-102350000D01*
G75*
G02*
X156900000Y-102550000I-200000J0D01*
G01*
X156600000Y-102550000D01*
G75*
G02*
X156400000Y-102350000I0J200000D01*
G01*
G37*
G36*
G01*
X155900000Y-102350000D02*
X155900000Y-102050000D01*
G75*
G02*
X156100000Y-101850000I200000J0D01*
G01*
X156400000Y-101850000D01*
G75*
G02*
X156600000Y-102050000I0J-200000D01*
G01*
X156600000Y-102350000D01*
G75*
G02*
X156400000Y-102550000I-200000J0D01*
G01*
X156100000Y-102550000D01*
G75*
G02*
X155900000Y-102350000I0J200000D01*
G01*
G37*
G36*
G01*
X155400000Y-102350000D02*
X155400000Y-102050000D01*
G75*
G02*
X155600000Y-101850000I200000J0D01*
G01*
X155900000Y-101850000D01*
G75*
G02*
X156100000Y-102050000I0J-200000D01*
G01*
X156100000Y-102350000D01*
G75*
G02*
X155900000Y-102550000I-200000J0D01*
G01*
X155600000Y-102550000D01*
G75*
G02*
X155400000Y-102350000I0J200000D01*
G01*
G37*
G36*
G01*
X154900000Y-102350000D02*
X154900000Y-102050000D01*
G75*
G02*
X155100000Y-101850000I200000J0D01*
G01*
X155400000Y-101850000D01*
G75*
G02*
X155600000Y-102050000I0J-200000D01*
G01*
X155600000Y-102350000D01*
G75*
G02*
X155400000Y-102550000I-200000J0D01*
G01*
X155100000Y-102550000D01*
G75*
G02*
X154900000Y-102350000I0J200000D01*
G01*
G37*
G36*
G01*
X154400000Y-102350000D02*
X154400000Y-102050000D01*
G75*
G02*
X154600000Y-101850000I200000J0D01*
G01*
X154900000Y-101850000D01*
G75*
G02*
X155100000Y-102050000I0J-200000D01*
G01*
X155100000Y-102350000D01*
G75*
G02*
X154900000Y-102550000I-200000J0D01*
G01*
X154600000Y-102550000D01*
G75*
G02*
X154400000Y-102350000I0J200000D01*
G01*
G37*
G36*
G01*
X153900000Y-102350000D02*
X153900000Y-102050000D01*
G75*
G02*
X154100000Y-101850000I200000J0D01*
G01*
X154400000Y-101850000D01*
G75*
G02*
X154600000Y-102050000I0J-200000D01*
G01*
X154600000Y-102350000D01*
G75*
G02*
X154400000Y-102550000I-200000J0D01*
G01*
X154100000Y-102550000D01*
G75*
G02*
X153900000Y-102350000I0J200000D01*
G01*
G37*
G36*
G01*
X153400000Y-102350000D02*
X153400000Y-102050000D01*
G75*
G02*
X153600000Y-101850000I200000J0D01*
G01*
X153900000Y-101850000D01*
G75*
G02*
X154100000Y-102050000I0J-200000D01*
G01*
X154100000Y-102350000D01*
G75*
G02*
X153900000Y-102550000I-200000J0D01*
G01*
X153600000Y-102550000D01*
G75*
G02*
X153400000Y-102350000I0J200000D01*
G01*
G37*
G36*
G01*
X152900000Y-102350000D02*
X152900000Y-102050000D01*
G75*
G02*
X153100000Y-101850000I200000J0D01*
G01*
X153400000Y-101850000D01*
G75*
G02*
X153600000Y-102050000I0J-200000D01*
G01*
X153600000Y-102350000D01*
G75*
G02*
X153400000Y-102550000I-200000J0D01*
G01*
X153100000Y-102550000D01*
G75*
G02*
X152900000Y-102350000I0J200000D01*
G01*
G37*
G36*
G01*
X152400000Y-102350000D02*
X152400000Y-102050000D01*
G75*
G02*
X152600000Y-101850000I200000J0D01*
G01*
X152900000Y-101850000D01*
G75*
G02*
X153100000Y-102050000I0J-200000D01*
G01*
X153100000Y-102350000D01*
G75*
G02*
X152900000Y-102550000I-200000J0D01*
G01*
X152600000Y-102550000D01*
G75*
G02*
X152400000Y-102350000I0J200000D01*
G01*
G37*
G36*
G01*
X151900000Y-102350000D02*
X151900000Y-102050000D01*
G75*
G02*
X152100000Y-101850000I200000J0D01*
G01*
X152400000Y-101850000D01*
G75*
G02*
X152600000Y-102050000I0J-200000D01*
G01*
X152600000Y-102350000D01*
G75*
G02*
X152400000Y-102550000I-200000J0D01*
G01*
X152100000Y-102550000D01*
G75*
G02*
X151900000Y-102350000I0J200000D01*
G01*
G37*
G36*
G01*
X151400000Y-102350000D02*
X151400000Y-102050000D01*
G75*
G02*
X151600000Y-101850000I200000J0D01*
G01*
X151900000Y-101850000D01*
G75*
G02*
X152100000Y-102050000I0J-200000D01*
G01*
X152100000Y-102350000D01*
G75*
G02*
X151900000Y-102550000I-200000J0D01*
G01*
X151600000Y-102550000D01*
G75*
G02*
X151400000Y-102350000I0J200000D01*
G01*
G37*
G36*
G01*
X150900000Y-102350000D02*
X150900000Y-102050000D01*
G75*
G02*
X151100000Y-101850000I200000J0D01*
G01*
X151400000Y-101850000D01*
G75*
G02*
X151600000Y-102050000I0J-200000D01*
G01*
X151600000Y-102350000D01*
G75*
G02*
X151400000Y-102550000I-200000J0D01*
G01*
X151100000Y-102550000D01*
G75*
G02*
X150900000Y-102350000I0J200000D01*
G01*
G37*
G36*
G01*
X150400000Y-102350000D02*
X150400000Y-102050000D01*
G75*
G02*
X150600000Y-101850000I200000J0D01*
G01*
X150900000Y-101850000D01*
G75*
G02*
X151100000Y-102050000I0J-200000D01*
G01*
X151100000Y-102350000D01*
G75*
G02*
X150900000Y-102550000I-200000J0D01*
G01*
X150600000Y-102550000D01*
G75*
G02*
X150400000Y-102350000I0J200000D01*
G01*
G37*
G36*
G01*
X149900000Y-102350000D02*
X149900000Y-102050000D01*
G75*
G02*
X150100000Y-101850000I200000J0D01*
G01*
X150400000Y-101850000D01*
G75*
G02*
X150600000Y-102050000I0J-200000D01*
G01*
X150600000Y-102350000D01*
G75*
G02*
X150400000Y-102550000I-200000J0D01*
G01*
X150100000Y-102550000D01*
G75*
G02*
X149900000Y-102350000I0J200000D01*
G01*
G37*
G36*
G01*
X149400000Y-102350000D02*
X149400000Y-102050000D01*
G75*
G02*
X149600000Y-101850000I200000J0D01*
G01*
X149900000Y-101850000D01*
G75*
G02*
X150100000Y-102050000I0J-200000D01*
G01*
X150100000Y-102350000D01*
G75*
G02*
X149900000Y-102550000I-200000J0D01*
G01*
X149600000Y-102550000D01*
G75*
G02*
X149400000Y-102350000I0J200000D01*
G01*
G37*
G36*
G01*
X148900000Y-102350000D02*
X148900000Y-102050000D01*
G75*
G02*
X149100000Y-101850000I200000J0D01*
G01*
X149400000Y-101850000D01*
G75*
G02*
X149600000Y-102050000I0J-200000D01*
G01*
X149600000Y-102350000D01*
G75*
G02*
X149400000Y-102550000I-200000J0D01*
G01*
X149100000Y-102550000D01*
G75*
G02*
X148900000Y-102350000I0J200000D01*
G01*
G37*
G36*
G01*
X148400000Y-102350000D02*
X148400000Y-102050000D01*
G75*
G02*
X148600000Y-101850000I200000J0D01*
G01*
X148900000Y-101850000D01*
G75*
G02*
X149100000Y-102050000I0J-200000D01*
G01*
X149100000Y-102350000D01*
G75*
G02*
X148900000Y-102550000I-200000J0D01*
G01*
X148600000Y-102550000D01*
G75*
G02*
X148400000Y-102350000I0J200000D01*
G01*
G37*
G36*
G01*
X147900000Y-102350000D02*
X147900000Y-102050000D01*
G75*
G02*
X148100000Y-101850000I200000J0D01*
G01*
X148400000Y-101850000D01*
G75*
G02*
X148600000Y-102050000I0J-200000D01*
G01*
X148600000Y-102350000D01*
G75*
G02*
X148400000Y-102550000I-200000J0D01*
G01*
X148100000Y-102550000D01*
G75*
G02*
X147900000Y-102350000I0J200000D01*
G01*
G37*
G36*
G01*
X147400000Y-102350000D02*
X147400000Y-102050000D01*
G75*
G02*
X147600000Y-101850000I200000J0D01*
G01*
X147900000Y-101850000D01*
G75*
G02*
X148100000Y-102050000I0J-200000D01*
G01*
X148100000Y-102350000D01*
G75*
G02*
X147900000Y-102550000I-200000J0D01*
G01*
X147600000Y-102550000D01*
G75*
G02*
X147400000Y-102350000I0J200000D01*
G01*
G37*
G36*
G01*
X146900000Y-102350000D02*
X146900000Y-102050000D01*
G75*
G02*
X147100000Y-101850000I200000J0D01*
G01*
X147400000Y-101850000D01*
G75*
G02*
X147600000Y-102050000I0J-200000D01*
G01*
X147600000Y-102350000D01*
G75*
G02*
X147400000Y-102550000I-200000J0D01*
G01*
X147100000Y-102550000D01*
G75*
G02*
X146900000Y-102350000I0J200000D01*
G01*
G37*
G36*
G01*
X146400000Y-102350000D02*
X146400000Y-102050000D01*
G75*
G02*
X146600000Y-101850000I200000J0D01*
G01*
X146900000Y-101850000D01*
G75*
G02*
X147100000Y-102050000I0J-200000D01*
G01*
X147100000Y-102350000D01*
G75*
G02*
X146900000Y-102550000I-200000J0D01*
G01*
X146600000Y-102550000D01*
G75*
G02*
X146400000Y-102350000I0J200000D01*
G01*
G37*
G36*
G01*
X146400000Y-102550000D02*
X146100000Y-102550000D01*
G75*
G02*
X145900000Y-102350000I0J200000D01*
G01*
X145900000Y-102050000D01*
G75*
G02*
X146100000Y-101850000I200000J0D01*
G01*
X146400000Y-101850000D01*
G75*
G02*
X146600000Y-102050000I0J-200000D01*
G01*
X146600000Y-102350000D01*
G75*
G02*
X146400000Y-102550000I-200000J0D01*
G01*
G37*
G36*
G01*
X145400000Y-102350000D02*
X145400000Y-102050000D01*
G75*
G02*
X145600000Y-101850000I200000J0D01*
G01*
X145900000Y-101850000D01*
G75*
G02*
X146100000Y-102050000I0J-200000D01*
G01*
X146100000Y-102350000D01*
G75*
G02*
X145900000Y-102550000I-200000J0D01*
G01*
X145600000Y-102550000D01*
G75*
G02*
X145400000Y-102350000I0J200000D01*
G01*
G37*
G36*
G01*
X144900000Y-102350000D02*
X144900000Y-102050000D01*
G75*
G02*
X145100000Y-101850000I200000J0D01*
G01*
X145400000Y-101850000D01*
G75*
G02*
X145600000Y-102050000I0J-200000D01*
G01*
X145600000Y-102350000D01*
G75*
G02*
X145400000Y-102550000I-200000J0D01*
G01*
X145100000Y-102550000D01*
G75*
G02*
X144900000Y-102350000I0J200000D01*
G01*
G37*
G36*
G01*
X144400000Y-102350000D02*
X144400000Y-102050000D01*
G75*
G02*
X144600000Y-101850000I200000J0D01*
G01*
X144900000Y-101850000D01*
G75*
G02*
X145100000Y-102050000I0J-200000D01*
G01*
X145100000Y-102350000D01*
G75*
G02*
X144900000Y-102550000I-200000J0D01*
G01*
X144600000Y-102550000D01*
G75*
G02*
X144400000Y-102350000I0J200000D01*
G01*
G37*
G36*
G01*
X143900000Y-102350000D02*
X143900000Y-102050000D01*
G75*
G02*
X144100000Y-101850000I200000J0D01*
G01*
X144400000Y-101850000D01*
G75*
G02*
X144600000Y-102050000I0J-200000D01*
G01*
X144600000Y-102350000D01*
G75*
G02*
X144400000Y-102550000I-200000J0D01*
G01*
X144100000Y-102550000D01*
G75*
G02*
X143900000Y-102350000I0J200000D01*
G01*
G37*
G36*
G01*
X143400000Y-102350000D02*
X143400000Y-102050000D01*
G75*
G02*
X143600000Y-101850000I200000J0D01*
G01*
X143900000Y-101850000D01*
G75*
G02*
X144100000Y-102050000I0J-200000D01*
G01*
X144100000Y-102350000D01*
G75*
G02*
X143900000Y-102550000I-200000J0D01*
G01*
X143600000Y-102550000D01*
G75*
G02*
X143400000Y-102350000I0J200000D01*
G01*
G37*
G36*
G01*
X142900000Y-102350000D02*
X142900000Y-102050000D01*
G75*
G02*
X143100000Y-101850000I200000J0D01*
G01*
X143400000Y-101850000D01*
G75*
G02*
X143600000Y-102050000I0J-200000D01*
G01*
X143600000Y-102350000D01*
G75*
G02*
X143400000Y-102550000I-200000J0D01*
G01*
X143100000Y-102550000D01*
G75*
G02*
X142900000Y-102350000I0J200000D01*
G01*
G37*
G36*
G01*
X142400000Y-102350000D02*
X142400000Y-102050000D01*
G75*
G02*
X142600000Y-101850000I200000J0D01*
G01*
X142900000Y-101850000D01*
G75*
G02*
X143100000Y-102050000I0J-200000D01*
G01*
X143100000Y-102350000D01*
G75*
G02*
X142900000Y-102550000I-200000J0D01*
G01*
X142600000Y-102550000D01*
G75*
G02*
X142400000Y-102350000I0J200000D01*
G01*
G37*
G36*
G01*
X141900000Y-102350000D02*
X141900000Y-102050000D01*
G75*
G02*
X142100000Y-101850000I200000J0D01*
G01*
X142400000Y-101850000D01*
G75*
G02*
X142600000Y-102050000I0J-200000D01*
G01*
X142600000Y-102350000D01*
G75*
G02*
X142400000Y-102550000I-200000J0D01*
G01*
X142100000Y-102550000D01*
G75*
G02*
X141900000Y-102350000I0J200000D01*
G01*
G37*
G36*
G01*
X155400000Y-110800000D02*
X155400000Y-110000000D01*
G75*
G02*
X155600000Y-109800000I200000J0D01*
G01*
X156400000Y-109800000D01*
G75*
G02*
X156600000Y-110000000I0J-200000D01*
G01*
X156600000Y-110800000D01*
G75*
G02*
X156400000Y-111000000I-200000J0D01*
G01*
X155600000Y-111000000D01*
G75*
G02*
X155400000Y-110800000I0J200000D01*
G01*
G37*
G36*
G01*
X153400000Y-110800000D02*
X153400000Y-110000000D01*
G75*
G02*
X153600000Y-109800000I200000J0D01*
G01*
X154400000Y-109800000D01*
G75*
G02*
X154600000Y-110000000I0J-200000D01*
G01*
X154600000Y-110800000D01*
G75*
G02*
X154400000Y-111000000I-200000J0D01*
G01*
X153600000Y-111000000D01*
G75*
G02*
X153400000Y-110800000I0J200000D01*
G01*
G37*
G36*
G01*
X151400000Y-110800000D02*
X151400000Y-110000000D01*
G75*
G02*
X151600000Y-109800000I200000J0D01*
G01*
X152400000Y-109800000D01*
G75*
G02*
X152600000Y-110000000I0J-200000D01*
G01*
X152600000Y-110800000D01*
G75*
G02*
X152400000Y-111000000I-200000J0D01*
G01*
X151600000Y-111000000D01*
G75*
G02*
X151400000Y-110800000I0J200000D01*
G01*
G37*
G36*
G01*
X149400000Y-110800000D02*
X149400000Y-110000000D01*
G75*
G02*
X149600000Y-109800000I200000J0D01*
G01*
X150400000Y-109800000D01*
G75*
G02*
X150600000Y-110000000I0J-200000D01*
G01*
X150600000Y-110800000D01*
G75*
G02*
X150400000Y-111000000I-200000J0D01*
G01*
X149600000Y-111000000D01*
G75*
G02*
X149400000Y-110800000I0J200000D01*
G01*
G37*
G36*
G01*
X147400000Y-110800000D02*
X147400000Y-110000000D01*
G75*
G02*
X147600000Y-109800000I200000J0D01*
G01*
X148400000Y-109800000D01*
G75*
G02*
X148600000Y-110000000I0J-200000D01*
G01*
X148600000Y-110800000D01*
G75*
G02*
X148400000Y-111000000I-200000J0D01*
G01*
X147600000Y-111000000D01*
G75*
G02*
X147400000Y-110800000I0J200000D01*
G01*
G37*
G36*
G01*
X145400000Y-110800000D02*
X145400000Y-110000000D01*
G75*
G02*
X145600000Y-109800000I200000J0D01*
G01*
X146400000Y-109800000D01*
G75*
G02*
X146600000Y-110000000I0J-200000D01*
G01*
X146600000Y-110800000D01*
G75*
G02*
X146400000Y-111000000I-200000J0D01*
G01*
X145600000Y-111000000D01*
G75*
G02*
X145400000Y-110800000I0J200000D01*
G01*
G37*
G36*
G01*
X143400000Y-110800000D02*
X143400000Y-110000000D01*
G75*
G02*
X143600000Y-109800000I200000J0D01*
G01*
X144400000Y-109800000D01*
G75*
G02*
X144600000Y-110000000I0J-200000D01*
G01*
X144600000Y-110800000D01*
G75*
G02*
X144400000Y-111000000I-200000J0D01*
G01*
X143600000Y-111000000D01*
G75*
G02*
X143400000Y-110800000I0J200000D01*
G01*
G37*
G36*
G01*
X155400000Y-109200000D02*
X155400000Y-108400000D01*
G75*
G02*
X155600000Y-108200000I200000J0D01*
G01*
X156400000Y-108200000D01*
G75*
G02*
X156600000Y-108400000I0J-200000D01*
G01*
X156600000Y-109200000D01*
G75*
G02*
X156400000Y-109400000I-200000J0D01*
G01*
X155600000Y-109400000D01*
G75*
G02*
X155400000Y-109200000I0J200000D01*
G01*
G37*
G36*
G01*
X153400000Y-109200000D02*
X153400000Y-108400000D01*
G75*
G02*
X153600000Y-108200000I200000J0D01*
G01*
X154400000Y-108200000D01*
G75*
G02*
X154600000Y-108400000I0J-200000D01*
G01*
X154600000Y-109200000D01*
G75*
G02*
X154400000Y-109400000I-200000J0D01*
G01*
X153600000Y-109400000D01*
G75*
G02*
X153400000Y-109200000I0J200000D01*
G01*
G37*
G36*
G01*
X151400000Y-109200000D02*
X151400000Y-108400000D01*
G75*
G02*
X151600000Y-108200000I200000J0D01*
G01*
X152400000Y-108200000D01*
G75*
G02*
X152600000Y-108400000I0J-200000D01*
G01*
X152600000Y-109200000D01*
G75*
G02*
X152400000Y-109400000I-200000J0D01*
G01*
X151600000Y-109400000D01*
G75*
G02*
X151400000Y-109200000I0J200000D01*
G01*
G37*
G36*
G01*
X149400000Y-109200000D02*
X149400000Y-108400000D01*
G75*
G02*
X149600000Y-108200000I200000J0D01*
G01*
X150400000Y-108200000D01*
G75*
G02*
X150600000Y-108400000I0J-200000D01*
G01*
X150600000Y-109200000D01*
G75*
G02*
X150400000Y-109400000I-200000J0D01*
G01*
X149600000Y-109400000D01*
G75*
G02*
X149400000Y-109200000I0J200000D01*
G01*
G37*
G36*
G01*
X147400000Y-109200000D02*
X147400000Y-108400000D01*
G75*
G02*
X147600000Y-108200000I200000J0D01*
G01*
X148400000Y-108200000D01*
G75*
G02*
X148600000Y-108400000I0J-200000D01*
G01*
X148600000Y-109200000D01*
G75*
G02*
X148400000Y-109400000I-200000J0D01*
G01*
X147600000Y-109400000D01*
G75*
G02*
X147400000Y-109200000I0J200000D01*
G01*
G37*
G36*
G01*
X145400000Y-109200000D02*
X145400000Y-108400000D01*
G75*
G02*
X145600000Y-108200000I200000J0D01*
G01*
X146400000Y-108200000D01*
G75*
G02*
X146600000Y-108400000I0J-200000D01*
G01*
X146600000Y-109200000D01*
G75*
G02*
X146400000Y-109400000I-200000J0D01*
G01*
X145600000Y-109400000D01*
G75*
G02*
X145400000Y-109200000I0J200000D01*
G01*
G37*
G36*
G01*
X143400000Y-109200000D02*
X143400000Y-108400000D01*
G75*
G02*
X143600000Y-108200000I200000J0D01*
G01*
X144400000Y-108200000D01*
G75*
G02*
X144600000Y-108400000I0J-200000D01*
G01*
X144600000Y-109200000D01*
G75*
G02*
X144400000Y-109400000I-200000J0D01*
G01*
X143600000Y-109400000D01*
G75*
G02*
X143400000Y-109200000I0J200000D01*
G01*
G37*
G36*
G01*
X155400000Y-107600000D02*
X155400000Y-106800000D01*
G75*
G02*
X155600000Y-106600000I200000J0D01*
G01*
X156400000Y-106600000D01*
G75*
G02*
X156600000Y-106800000I0J-200000D01*
G01*
X156600000Y-107600000D01*
G75*
G02*
X156400000Y-107800000I-200000J0D01*
G01*
X155600000Y-107800000D01*
G75*
G02*
X155400000Y-107600000I0J200000D01*
G01*
G37*
G36*
G01*
X153400000Y-107600000D02*
X153400000Y-106800000D01*
G75*
G02*
X153600000Y-106600000I200000J0D01*
G01*
X154400000Y-106600000D01*
G75*
G02*
X154600000Y-106800000I0J-200000D01*
G01*
X154600000Y-107600000D01*
G75*
G02*
X154400000Y-107800000I-200000J0D01*
G01*
X153600000Y-107800000D01*
G75*
G02*
X153400000Y-107600000I0J200000D01*
G01*
G37*
G36*
G01*
X151400000Y-107600000D02*
X151400000Y-106800000D01*
G75*
G02*
X151600000Y-106600000I200000J0D01*
G01*
X152400000Y-106600000D01*
G75*
G02*
X152600000Y-106800000I0J-200000D01*
G01*
X152600000Y-107600000D01*
G75*
G02*
X152400000Y-107800000I-200000J0D01*
G01*
X151600000Y-107800000D01*
G75*
G02*
X151400000Y-107600000I0J200000D01*
G01*
G37*
G36*
G01*
X149400000Y-107600000D02*
X149400000Y-106800000D01*
G75*
G02*
X149600000Y-106600000I200000J0D01*
G01*
X150400000Y-106600000D01*
G75*
G02*
X150600000Y-106800000I0J-200000D01*
G01*
X150600000Y-107600000D01*
G75*
G02*
X150400000Y-107800000I-200000J0D01*
G01*
X149600000Y-107800000D01*
G75*
G02*
X149400000Y-107600000I0J200000D01*
G01*
G37*
G36*
G01*
X147400000Y-107600000D02*
X147400000Y-106800000D01*
G75*
G02*
X147600000Y-106600000I200000J0D01*
G01*
X148400000Y-106600000D01*
G75*
G02*
X148600000Y-106800000I0J-200000D01*
G01*
X148600000Y-107600000D01*
G75*
G02*
X148400000Y-107800000I-200000J0D01*
G01*
X147600000Y-107800000D01*
G75*
G02*
X147400000Y-107600000I0J200000D01*
G01*
G37*
G36*
G01*
X145400000Y-107600000D02*
X145400000Y-106800000D01*
G75*
G02*
X145600000Y-106600000I200000J0D01*
G01*
X146400000Y-106600000D01*
G75*
G02*
X146600000Y-106800000I0J-200000D01*
G01*
X146600000Y-107600000D01*
G75*
G02*
X146400000Y-107800000I-200000J0D01*
G01*
X145600000Y-107800000D01*
G75*
G02*
X145400000Y-107600000I0J200000D01*
G01*
G37*
G36*
G01*
X143400000Y-107600000D02*
X143400000Y-106800000D01*
G75*
G02*
X143600000Y-106600000I200000J0D01*
G01*
X144400000Y-106600000D01*
G75*
G02*
X144600000Y-106800000I0J-200000D01*
G01*
X144600000Y-107600000D01*
G75*
G02*
X144400000Y-107800000I-200000J0D01*
G01*
X143600000Y-107800000D01*
G75*
G02*
X143400000Y-107600000I0J200000D01*
G01*
G37*
G36*
G01*
X155400000Y-106000000D02*
X155400000Y-105200000D01*
G75*
G02*
X155600000Y-105000000I200000J0D01*
G01*
X156400000Y-105000000D01*
G75*
G02*
X156600000Y-105200000I0J-200000D01*
G01*
X156600000Y-106000000D01*
G75*
G02*
X156400000Y-106200000I-200000J0D01*
G01*
X155600000Y-106200000D01*
G75*
G02*
X155400000Y-106000000I0J200000D01*
G01*
G37*
G36*
G01*
X153400000Y-106000000D02*
X153400000Y-105200000D01*
G75*
G02*
X153600000Y-105000000I200000J0D01*
G01*
X154400000Y-105000000D01*
G75*
G02*
X154600000Y-105200000I0J-200000D01*
G01*
X154600000Y-106000000D01*
G75*
G02*
X154400000Y-106200000I-200000J0D01*
G01*
X153600000Y-106200000D01*
G75*
G02*
X153400000Y-106000000I0J200000D01*
G01*
G37*
G36*
G01*
X151400000Y-106000000D02*
X151400000Y-105200000D01*
G75*
G02*
X151600000Y-105000000I200000J0D01*
G01*
X152400000Y-105000000D01*
G75*
G02*
X152600000Y-105200000I0J-200000D01*
G01*
X152600000Y-106000000D01*
G75*
G02*
X152400000Y-106200000I-200000J0D01*
G01*
X151600000Y-106200000D01*
G75*
G02*
X151400000Y-106000000I0J200000D01*
G01*
G37*
G36*
G01*
X149400000Y-106000000D02*
X149400000Y-105200000D01*
G75*
G02*
X149600000Y-105000000I200000J0D01*
G01*
X150400000Y-105000000D01*
G75*
G02*
X150600000Y-105200000I0J-200000D01*
G01*
X150600000Y-106000000D01*
G75*
G02*
X150400000Y-106200000I-200000J0D01*
G01*
X149600000Y-106200000D01*
G75*
G02*
X149400000Y-106000000I0J200000D01*
G01*
G37*
G36*
G01*
X147400000Y-106000000D02*
X147400000Y-105200000D01*
G75*
G02*
X147600000Y-105000000I200000J0D01*
G01*
X148400000Y-105000000D01*
G75*
G02*
X148600000Y-105200000I0J-200000D01*
G01*
X148600000Y-106000000D01*
G75*
G02*
X148400000Y-106200000I-200000J0D01*
G01*
X147600000Y-106200000D01*
G75*
G02*
X147400000Y-106000000I0J200000D01*
G01*
G37*
G36*
G01*
X145400000Y-106000000D02*
X145400000Y-105200000D01*
G75*
G02*
X145600000Y-105000000I200000J0D01*
G01*
X146400000Y-105000000D01*
G75*
G02*
X146600000Y-105200000I0J-200000D01*
G01*
X146600000Y-106000000D01*
G75*
G02*
X146400000Y-106200000I-200000J0D01*
G01*
X145600000Y-106200000D01*
G75*
G02*
X145400000Y-106000000I0J200000D01*
G01*
G37*
G36*
G01*
X143400000Y-106000000D02*
X143400000Y-105200000D01*
G75*
G02*
X143600000Y-105000000I200000J0D01*
G01*
X144400000Y-105000000D01*
G75*
G02*
X144600000Y-105200000I0J-200000D01*
G01*
X144600000Y-106000000D01*
G75*
G02*
X144400000Y-106200000I-200000J0D01*
G01*
X143600000Y-106200000D01*
G75*
G02*
X143400000Y-106000000I0J200000D01*
G01*
G37*
G36*
G01*
X155400000Y-104400000D02*
X155400000Y-103600000D01*
G75*
G02*
X155600000Y-103400000I200000J0D01*
G01*
X156400000Y-103400000D01*
G75*
G02*
X156600000Y-103600000I0J-200000D01*
G01*
X156600000Y-104400000D01*
G75*
G02*
X156400000Y-104600000I-200000J0D01*
G01*
X155600000Y-104600000D01*
G75*
G02*
X155400000Y-104400000I0J200000D01*
G01*
G37*
G36*
G01*
X153400000Y-104400000D02*
X153400000Y-103600000D01*
G75*
G02*
X153600000Y-103400000I200000J0D01*
G01*
X154400000Y-103400000D01*
G75*
G02*
X154600000Y-103600000I0J-200000D01*
G01*
X154600000Y-104400000D01*
G75*
G02*
X154400000Y-104600000I-200000J0D01*
G01*
X153600000Y-104600000D01*
G75*
G02*
X153400000Y-104400000I0J200000D01*
G01*
G37*
G36*
G01*
X151400000Y-104400000D02*
X151400000Y-103600000D01*
G75*
G02*
X151600000Y-103400000I200000J0D01*
G01*
X152400000Y-103400000D01*
G75*
G02*
X152600000Y-103600000I0J-200000D01*
G01*
X152600000Y-104400000D01*
G75*
G02*
X152400000Y-104600000I-200000J0D01*
G01*
X151600000Y-104600000D01*
G75*
G02*
X151400000Y-104400000I0J200000D01*
G01*
G37*
G36*
G01*
X149400000Y-104400000D02*
X149400000Y-103600000D01*
G75*
G02*
X149600000Y-103400000I200000J0D01*
G01*
X150400000Y-103400000D01*
G75*
G02*
X150600000Y-103600000I0J-200000D01*
G01*
X150600000Y-104400000D01*
G75*
G02*
X150400000Y-104600000I-200000J0D01*
G01*
X149600000Y-104600000D01*
G75*
G02*
X149400000Y-104400000I0J200000D01*
G01*
G37*
G36*
G01*
X147400000Y-104400000D02*
X147400000Y-103600000D01*
G75*
G02*
X147600000Y-103400000I200000J0D01*
G01*
X148400000Y-103400000D01*
G75*
G02*
X148600000Y-103600000I0J-200000D01*
G01*
X148600000Y-104400000D01*
G75*
G02*
X148400000Y-104600000I-200000J0D01*
G01*
X147600000Y-104600000D01*
G75*
G02*
X147400000Y-104400000I0J200000D01*
G01*
G37*
G36*
G01*
X145400000Y-104400000D02*
X145400000Y-103600000D01*
G75*
G02*
X145600000Y-103400000I200000J0D01*
G01*
X146400000Y-103400000D01*
G75*
G02*
X146600000Y-103600000I0J-200000D01*
G01*
X146600000Y-104400000D01*
G75*
G02*
X146400000Y-104600000I-200000J0D01*
G01*
X145600000Y-104600000D01*
G75*
G02*
X145400000Y-104400000I0J200000D01*
G01*
G37*
G36*
G01*
X143400000Y-104400000D02*
X143400000Y-103600000D01*
G75*
G02*
X143600000Y-103400000I200000J0D01*
G01*
X144400000Y-103400000D01*
G75*
G02*
X144600000Y-103600000I0J-200000D01*
G01*
X144600000Y-104400000D01*
G75*
G02*
X144400000Y-104600000I-200000J0D01*
G01*
X143600000Y-104600000D01*
G75*
G02*
X143400000Y-104400000I0J200000D01*
G01*
G37*
G36*
G01*
X100916666Y-107200000D02*
X104083334Y-107200000D01*
G75*
G02*
X104400000Y-107516666I0J-316666D01*
G01*
X104400000Y-108783334D01*
G75*
G02*
X104083334Y-109100000I-316666J0D01*
G01*
X100916666Y-109100000D01*
G75*
G02*
X100600000Y-108783334I0J316666D01*
G01*
X100600000Y-107516666D01*
G75*
G02*
X100916666Y-107200000I316666J0D01*
G01*
G37*
G36*
G01*
X100916666Y-100500000D02*
X104083334Y-100500000D01*
G75*
G02*
X104400000Y-100816666I0J-316666D01*
G01*
X104400000Y-102083334D01*
G75*
G02*
X104083334Y-102400000I-316666J0D01*
G01*
X100916666Y-102400000D01*
G75*
G02*
X100600000Y-102083334I0J316666D01*
G01*
X100600000Y-100816666D01*
G75*
G02*
X100916666Y-100500000I316666J0D01*
G01*
G37*
G36*
G01*
X106650000Y-105100000D02*
X109850000Y-105100000D01*
G75*
G02*
X110200000Y-105450000I0J-350000D01*
G01*
X110200000Y-106150000D01*
G75*
G02*
X109850000Y-106500000I-350000J0D01*
G01*
X106650000Y-106500000D01*
G75*
G02*
X106300000Y-106150000I0J350000D01*
G01*
X106300000Y-105450000D01*
G75*
G02*
X106650000Y-105100000I350000J0D01*
G01*
G37*
G36*
G01*
X106650000Y-103100000D02*
X109850000Y-103100000D01*
G75*
G02*
X110200000Y-103450000I0J-350000D01*
G01*
X110200000Y-104150000D01*
G75*
G02*
X109850000Y-104500000I-350000J0D01*
G01*
X106650000Y-104500000D01*
G75*
G02*
X106300000Y-104150000I0J350000D01*
G01*
X106300000Y-103450000D01*
G75*
G02*
X106650000Y-103100000I350000J0D01*
G01*
G37*
X161950000Y-114000000D03*
X160680000Y-114000000D03*
X161950000Y-112730000D03*
X160680000Y-112730000D03*
X161950000Y-111460000D03*
X160680000Y-111460000D03*
G36*
G01*
X159525000Y-104875000D02*
X159525000Y-104625000D01*
G75*
G02*
X159725000Y-104425000I200000J0D01*
G01*
X159975000Y-104425000D01*
G75*
G02*
X160175000Y-104625000I0J-200000D01*
G01*
X160175000Y-104875000D01*
G75*
G02*
X159975000Y-105075000I-200000J0D01*
G01*
X159725000Y-105075000D01*
G75*
G02*
X159525000Y-104875000I0J200000D01*
G01*
G37*
G36*
G01*
X159125000Y-104875000D02*
X159125000Y-104625000D01*
G75*
G02*
X159325000Y-104425000I200000J0D01*
G01*
X159575000Y-104425000D01*
G75*
G02*
X159775000Y-104625000I0J-200000D01*
G01*
X159775000Y-104875000D01*
G75*
G02*
X159575000Y-105075000I-200000J0D01*
G01*
X159325000Y-105075000D01*
G75*
G02*
X159125000Y-104875000I0J200000D01*
G01*
G37*
G36*
G01*
X159525000Y-104475000D02*
X159525000Y-104225000D01*
G75*
G02*
X159725000Y-104025000I200000J0D01*
G01*
X159975000Y-104025000D01*
G75*
G02*
X160175000Y-104225000I0J-200000D01*
G01*
X160175000Y-104475000D01*
G75*
G02*
X159975000Y-104675000I-200000J0D01*
G01*
X159725000Y-104675000D01*
G75*
G02*
X159525000Y-104475000I0J200000D01*
G01*
G37*
G36*
G01*
X159125000Y-104475000D02*
X159125000Y-104225000D01*
G75*
G02*
X159325000Y-104025000I200000J0D01*
G01*
X159575000Y-104025000D01*
G75*
G02*
X159775000Y-104225000I0J-200000D01*
G01*
X159775000Y-104475000D01*
G75*
G02*
X159575000Y-104675000I-200000J0D01*
G01*
X159325000Y-104675000D01*
G75*
G02*
X159125000Y-104475000I0J200000D01*
G01*
G37*
G36*
G01*
X159975000Y-104275000D02*
X159725000Y-104275000D01*
G75*
G02*
X159525000Y-104075000I0J200000D01*
G01*
X159525000Y-103825000D01*
G75*
G02*
X159725000Y-103625000I200000J0D01*
G01*
X159975000Y-103625000D01*
G75*
G02*
X160175000Y-103825000I0J-200000D01*
G01*
X160175000Y-104075000D01*
G75*
G02*
X159975000Y-104275000I-200000J0D01*
G01*
G37*
G36*
G01*
X159125000Y-104075000D02*
X159125000Y-103825000D01*
G75*
G02*
X159325000Y-103625000I200000J0D01*
G01*
X159575000Y-103625000D01*
G75*
G02*
X159775000Y-103825000I0J-200000D01*
G01*
X159775000Y-104075000D01*
G75*
G02*
X159575000Y-104275000I-200000J0D01*
G01*
X159325000Y-104275000D01*
G75*
G02*
X159125000Y-104075000I0J200000D01*
G01*
G37*
G36*
G01*
X116750000Y-113400000D02*
X116750000Y-112600000D01*
G75*
G02*
X116950000Y-112400000I200000J0D01*
G01*
X117850000Y-112400000D01*
G75*
G02*
X118050000Y-112600000I0J-200000D01*
G01*
X118050000Y-113400000D01*
G75*
G02*
X117850000Y-113600000I-200000J0D01*
G01*
X116950000Y-113600000D01*
G75*
G02*
X116750000Y-113400000I0J200000D01*
G01*
G37*
G36*
G01*
X114750000Y-114350000D02*
X114750000Y-113550000D01*
G75*
G02*
X114950000Y-113350000I200000J0D01*
G01*
X115850000Y-113350000D01*
G75*
G02*
X116050000Y-113550000I0J-200000D01*
G01*
X116050000Y-114350000D01*
G75*
G02*
X115850000Y-114550000I-200000J0D01*
G01*
X114950000Y-114550000D01*
G75*
G02*
X114750000Y-114350000I0J200000D01*
G01*
G37*
G36*
G01*
X114750000Y-112450000D02*
X114750000Y-111650000D01*
G75*
G02*
X114950000Y-111450000I200000J0D01*
G01*
X115850000Y-111450000D01*
G75*
G02*
X116050000Y-111650000I0J-200000D01*
G01*
X116050000Y-112450000D01*
G75*
G02*
X115850000Y-112650000I-200000J0D01*
G01*
X114950000Y-112650000D01*
G75*
G02*
X114750000Y-112450000I0J200000D01*
G01*
G37*
G36*
G01*
X101100000Y-113100000D02*
X101100000Y-111300000D01*
G75*
G02*
X101400000Y-111000000I300000J0D01*
G01*
X102000000Y-111000000D01*
G75*
G02*
X102300000Y-111300000I0J-300000D01*
G01*
X102300000Y-113100000D01*
G75*
G02*
X102000000Y-113400000I-300000J0D01*
G01*
X101400000Y-113400000D01*
G75*
G02*
X101100000Y-113100000I0J300000D01*
G01*
G37*
G36*
G01*
X105300000Y-113100000D02*
X105300000Y-111300000D01*
G75*
G02*
X105600000Y-111000000I300000J0D01*
G01*
X106200000Y-111000000D01*
G75*
G02*
X106500000Y-111300000I0J-300000D01*
G01*
X106500000Y-113100000D01*
G75*
G02*
X106200000Y-113400000I-300000J0D01*
G01*
X105600000Y-113400000D01*
G75*
G02*
X105300000Y-113100000I0J300000D01*
G01*
G37*
G36*
G01*
X152510000Y-113527500D02*
X152510000Y-114072500D01*
G75*
G02*
X152262500Y-114320000I-247500J0D01*
G01*
X151767500Y-114320000D01*
G75*
G02*
X151520000Y-114072500I0J247500D01*
G01*
X151520000Y-113527500D01*
G75*
G02*
X151767500Y-113280000I247500J0D01*
G01*
X152262500Y-113280000D01*
G75*
G02*
X152510000Y-113527500I0J-247500D01*
G01*
G37*
G36*
G01*
X153480000Y-113527500D02*
X153480000Y-114072500D01*
G75*
G02*
X153232500Y-114320000I-247500J0D01*
G01*
X152737500Y-114320000D01*
G75*
G02*
X152490000Y-114072500I0J247500D01*
G01*
X152490000Y-113527500D01*
G75*
G02*
X152737500Y-113280000I247500J0D01*
G01*
X153232500Y-113280000D01*
G75*
G02*
X153480000Y-113527500I0J-247500D01*
G01*
G37*
G36*
G01*
X153390000Y-101072500D02*
X153390000Y-100527500D01*
G75*
G02*
X153637500Y-100280000I247500J0D01*
G01*
X154132500Y-100280000D01*
G75*
G02*
X154380000Y-100527500I0J-247500D01*
G01*
X154380000Y-101072500D01*
G75*
G02*
X154132500Y-101320000I-247500J0D01*
G01*
X153637500Y-101320000D01*
G75*
G02*
X153390000Y-101072500I0J247500D01*
G01*
G37*
G36*
G01*
X152420000Y-101072500D02*
X152420000Y-100527500D01*
G75*
G02*
X152667500Y-100280000I247500J0D01*
G01*
X153162500Y-100280000D01*
G75*
G02*
X153410000Y-100527500I0J-247500D01*
G01*
X153410000Y-101072500D01*
G75*
G02*
X153162500Y-101320000I-247500J0D01*
G01*
X152667500Y-101320000D01*
G75*
G02*
X152420000Y-101072500I0J247500D01*
G01*
G37*
G36*
G01*
X151125000Y-100527500D02*
X151125000Y-101072500D01*
G75*
G02*
X150877500Y-101320000I-247500J0D01*
G01*
X150382500Y-101320000D01*
G75*
G02*
X150135000Y-101072500I0J247500D01*
G01*
X150135000Y-100527500D01*
G75*
G02*
X150382500Y-100280000I247500J0D01*
G01*
X150877500Y-100280000D01*
G75*
G02*
X151125000Y-100527500I0J-247500D01*
G01*
G37*
G36*
G01*
X152095000Y-100527500D02*
X152095000Y-101072500D01*
G75*
G02*
X151847500Y-101320000I-247500J0D01*
G01*
X151352500Y-101320000D01*
G75*
G02*
X151105000Y-101072500I0J247500D01*
G01*
X151105000Y-100527500D01*
G75*
G02*
X151352500Y-100280000I247500J0D01*
G01*
X151847500Y-100280000D01*
G75*
G02*
X152095000Y-100527500I0J-247500D01*
G01*
G37*
G36*
G01*
X111327500Y-107990000D02*
X111872500Y-107990000D01*
G75*
G02*
X112120000Y-108237500I0J-247500D01*
G01*
X112120000Y-108732500D01*
G75*
G02*
X111872500Y-108980000I-247500J0D01*
G01*
X111327500Y-108980000D01*
G75*
G02*
X111080000Y-108732500I0J247500D01*
G01*
X111080000Y-108237500D01*
G75*
G02*
X111327500Y-107990000I247500J0D01*
G01*
G37*
G36*
G01*
X111327500Y-107020000D02*
X111872500Y-107020000D01*
G75*
G02*
X112120000Y-107267500I0J-247500D01*
G01*
X112120000Y-107762500D01*
G75*
G02*
X111872500Y-108010000I-247500J0D01*
G01*
X111327500Y-108010000D01*
G75*
G02*
X111080000Y-107762500I0J247500D01*
G01*
X111080000Y-107267500D01*
G75*
G02*
X111327500Y-107020000I247500J0D01*
G01*
G37*
G36*
G01*
X111390000Y-114472500D02*
X111390000Y-113927500D01*
G75*
G02*
X111637500Y-113680000I247500J0D01*
G01*
X112132500Y-113680000D01*
G75*
G02*
X112380000Y-113927500I0J-247500D01*
G01*
X112380000Y-114472500D01*
G75*
G02*
X112132500Y-114720000I-247500J0D01*
G01*
X111637500Y-114720000D01*
G75*
G02*
X111390000Y-114472500I0J247500D01*
G01*
G37*
G36*
G01*
X110420000Y-114472500D02*
X110420000Y-113927500D01*
G75*
G02*
X110667500Y-113680000I247500J0D01*
G01*
X111162500Y-113680000D01*
G75*
G02*
X111410000Y-113927500I0J-247500D01*
G01*
X111410000Y-114472500D01*
G75*
G02*
X111162500Y-114720000I-247500J0D01*
G01*
X110667500Y-114720000D01*
G75*
G02*
X110420000Y-114472500I0J247500D01*
G01*
G37*
G36*
G01*
X163972500Y-113260000D02*
X163427500Y-113260000D01*
G75*
G02*
X163180000Y-113012500I0J247500D01*
G01*
X163180000Y-112517500D01*
G75*
G02*
X163427500Y-112270000I247500J0D01*
G01*
X163972500Y-112270000D01*
G75*
G02*
X164220000Y-112517500I0J-247500D01*
G01*
X164220000Y-113012500D01*
G75*
G02*
X163972500Y-113260000I-247500J0D01*
G01*
G37*
G36*
G01*
X163972500Y-114230000D02*
X163427500Y-114230000D01*
G75*
G02*
X163180000Y-113982500I0J247500D01*
G01*
X163180000Y-113487500D01*
G75*
G02*
X163427500Y-113240000I247500J0D01*
G01*
X163972500Y-113240000D01*
G75*
G02*
X164220000Y-113487500I0J-247500D01*
G01*
X164220000Y-113982500D01*
G75*
G02*
X163972500Y-114230000I-247500J0D01*
G01*
G37*
G36*
G01*
X140327500Y-104390000D02*
X140872500Y-104390000D01*
G75*
G02*
X141120000Y-104637500I0J-247500D01*
G01*
X141120000Y-105132500D01*
G75*
G02*
X140872500Y-105380000I-247500J0D01*
G01*
X140327500Y-105380000D01*
G75*
G02*
X140080000Y-105132500I0J247500D01*
G01*
X140080000Y-104637500D01*
G75*
G02*
X140327500Y-104390000I247500J0D01*
G01*
G37*
G36*
G01*
X140327500Y-103420000D02*
X140872500Y-103420000D01*
G75*
G02*
X141120000Y-103667500I0J-247500D01*
G01*
X141120000Y-104162500D01*
G75*
G02*
X140872500Y-104410000I-247500J0D01*
G01*
X140327500Y-104410000D01*
G75*
G02*
X140080000Y-104162500I0J247500D01*
G01*
X140080000Y-103667500D01*
G75*
G02*
X140327500Y-103420000I247500J0D01*
G01*
G37*
G36*
G01*
X158927500Y-111755000D02*
X159472500Y-111755000D01*
G75*
G02*
X159720000Y-112002500I0J-247500D01*
G01*
X159720000Y-112497500D01*
G75*
G02*
X159472500Y-112745000I-247500J0D01*
G01*
X158927500Y-112745000D01*
G75*
G02*
X158680000Y-112497500I0J247500D01*
G01*
X158680000Y-112002500D01*
G75*
G02*
X158927500Y-111755000I247500J0D01*
G01*
G37*
G36*
G01*
X158927500Y-110785000D02*
X159472500Y-110785000D01*
G75*
G02*
X159720000Y-111032500I0J-247500D01*
G01*
X159720000Y-111527500D01*
G75*
G02*
X159472500Y-111775000I-247500J0D01*
G01*
X158927500Y-111775000D01*
G75*
G02*
X158680000Y-111527500I0J247500D01*
G01*
X158680000Y-111032500D01*
G75*
G02*
X158927500Y-110785000I247500J0D01*
G01*
G37*
G36*
G01*
X136972500Y-105495000D02*
X136427500Y-105495000D01*
G75*
G02*
X136180000Y-105247500I0J247500D01*
G01*
X136180000Y-104752500D01*
G75*
G02*
X136427500Y-104505000I247500J0D01*
G01*
X136972500Y-104505000D01*
G75*
G02*
X137220000Y-104752500I0J-247500D01*
G01*
X137220000Y-105247500D01*
G75*
G02*
X136972500Y-105495000I-247500J0D01*
G01*
G37*
G36*
G01*
X136972500Y-106465000D02*
X136427500Y-106465000D01*
G75*
G02*
X136180000Y-106217500I0J247500D01*
G01*
X136180000Y-105722500D01*
G75*
G02*
X136427500Y-105475000I247500J0D01*
G01*
X136972500Y-105475000D01*
G75*
G02*
X137220000Y-105722500I0J-247500D01*
G01*
X137220000Y-106217500D01*
G75*
G02*
X136972500Y-106465000I-247500J0D01*
G01*
G37*
G36*
G01*
X149955000Y-114022500D02*
X149955000Y-113477500D01*
G75*
G02*
X150202500Y-113230000I247500J0D01*
G01*
X150697500Y-113230000D01*
G75*
G02*
X150945000Y-113477500I0J-247500D01*
G01*
X150945000Y-114022500D01*
G75*
G02*
X150697500Y-114270000I-247500J0D01*
G01*
X150202500Y-114270000D01*
G75*
G02*
X149955000Y-114022500I0J247500D01*
G01*
G37*
G36*
G01*
X148985000Y-114022500D02*
X148985000Y-113477500D01*
G75*
G02*
X149232500Y-113230000I247500J0D01*
G01*
X149727500Y-113230000D01*
G75*
G02*
X149975000Y-113477500I0J-247500D01*
G01*
X149975000Y-114022500D01*
G75*
G02*
X149727500Y-114270000I-247500J0D01*
G01*
X149232500Y-114270000D01*
G75*
G02*
X148985000Y-114022500I0J247500D01*
G01*
G37*
G36*
G01*
X161093750Y-103612500D02*
X161806250Y-103612500D01*
G75*
G02*
X162125000Y-103931250I0J-318750D01*
G01*
X162125000Y-104568750D01*
G75*
G02*
X161806250Y-104887500I-318750J0D01*
G01*
X161093750Y-104887500D01*
G75*
G02*
X160775000Y-104568750I0J318750D01*
G01*
X160775000Y-103931250D01*
G75*
G02*
X161093750Y-103612500I318750J0D01*
G01*
G37*
G36*
G01*
X161093750Y-102037500D02*
X161806250Y-102037500D01*
G75*
G02*
X162125000Y-102356250I0J-318750D01*
G01*
X162125000Y-102993750D01*
G75*
G02*
X161806250Y-103312500I-318750J0D01*
G01*
X161093750Y-103312500D01*
G75*
G02*
X160775000Y-102993750I0J318750D01*
G01*
X160775000Y-102356250D01*
G75*
G02*
X161093750Y-102037500I318750J0D01*
G01*
G37*
G36*
G01*
X109556250Y-110962500D02*
X108843750Y-110962500D01*
G75*
G02*
X108525000Y-110643750I0J318750D01*
G01*
X108525000Y-110006250D01*
G75*
G02*
X108843750Y-109687500I318750J0D01*
G01*
X109556250Y-109687500D01*
G75*
G02*
X109875000Y-110006250I0J-318750D01*
G01*
X109875000Y-110643750D01*
G75*
G02*
X109556250Y-110962500I-318750J0D01*
G01*
G37*
G36*
G01*
X109556250Y-112537500D02*
X108843750Y-112537500D01*
G75*
G02*
X108525000Y-112218750I0J318750D01*
G01*
X108525000Y-111581250D01*
G75*
G02*
X108843750Y-111262500I318750J0D01*
G01*
X109556250Y-111262500D01*
G75*
G02*
X109875000Y-111581250I0J-318750D01*
G01*
X109875000Y-112218750D01*
G75*
G02*
X109556250Y-112537500I-318750J0D01*
G01*
G37*
G36*
G01*
X107956250Y-110962500D02*
X107243750Y-110962500D01*
G75*
G02*
X106925000Y-110643750I0J318750D01*
G01*
X106925000Y-110006250D01*
G75*
G02*
X107243750Y-109687500I318750J0D01*
G01*
X107956250Y-109687500D01*
G75*
G02*
X108275000Y-110006250I0J-318750D01*
G01*
X108275000Y-110643750D01*
G75*
G02*
X107956250Y-110962500I-318750J0D01*
G01*
G37*
G36*
G01*
X107956250Y-112537500D02*
X107243750Y-112537500D01*
G75*
G02*
X106925000Y-112218750I0J318750D01*
G01*
X106925000Y-111581250D01*
G75*
G02*
X107243750Y-111262500I318750J0D01*
G01*
X107956250Y-111262500D01*
G75*
G02*
X108275000Y-111581250I0J-318750D01*
G01*
X108275000Y-112218750D01*
G75*
G02*
X107956250Y-112537500I-318750J0D01*
G01*
G37*
G36*
G01*
X111156250Y-110962500D02*
X110443750Y-110962500D01*
G75*
G02*
X110125000Y-110643750I0J318750D01*
G01*
X110125000Y-110006250D01*
G75*
G02*
X110443750Y-109687500I318750J0D01*
G01*
X111156250Y-109687500D01*
G75*
G02*
X111475000Y-110006250I0J-318750D01*
G01*
X111475000Y-110643750D01*
G75*
G02*
X111156250Y-110962500I-318750J0D01*
G01*
G37*
G36*
G01*
X111156250Y-112537500D02*
X110443750Y-112537500D01*
G75*
G02*
X110125000Y-112218750I0J318750D01*
G01*
X110125000Y-111581250D01*
G75*
G02*
X110443750Y-111262500I318750J0D01*
G01*
X111156250Y-111262500D01*
G75*
G02*
X111475000Y-111581250I0J-318750D01*
G01*
X111475000Y-112218750D01*
G75*
G02*
X111156250Y-112537500I-318750J0D01*
G01*
G37*
G36*
G01*
X120950000Y-105925000D02*
X121450000Y-105925000D01*
G75*
G02*
X121650000Y-106125000I0J-200000D01*
G01*
X121650000Y-106375000D01*
G75*
G02*
X121450000Y-106575000I-200000J0D01*
G01*
X120950000Y-106575000D01*
G75*
G02*
X120750000Y-106375000I0J200000D01*
G01*
X120750000Y-106125000D01*
G75*
G02*
X120950000Y-105925000I200000J0D01*
G01*
G37*
G36*
G01*
X120950000Y-105275000D02*
X121450000Y-105275000D01*
G75*
G02*
X121650000Y-105475000I0J-200000D01*
G01*
X121650000Y-105725000D01*
G75*
G02*
X121450000Y-105925000I-200000J0D01*
G01*
X120950000Y-105925000D01*
G75*
G02*
X120750000Y-105725000I0J200000D01*
G01*
X120750000Y-105475000D01*
G75*
G02*
X120950000Y-105275000I200000J0D01*
G01*
G37*
G36*
G01*
X163445000Y-102477500D02*
X163445000Y-103022500D01*
G75*
G02*
X163197500Y-103270000I-247500J0D01*
G01*
X162702500Y-103270000D01*
G75*
G02*
X162455000Y-103022500I0J247500D01*
G01*
X162455000Y-102477500D01*
G75*
G02*
X162702500Y-102230000I247500J0D01*
G01*
X163197500Y-102230000D01*
G75*
G02*
X163445000Y-102477500I0J-247500D01*
G01*
G37*
G36*
G01*
X164415000Y-102477500D02*
X164415000Y-103022500D01*
G75*
G02*
X164167500Y-103270000I-247500J0D01*
G01*
X163672500Y-103270000D01*
G75*
G02*
X163425000Y-103022500I0J247500D01*
G01*
X163425000Y-102477500D01*
G75*
G02*
X163672500Y-102230000I247500J0D01*
G01*
X164167500Y-102230000D01*
G75*
G02*
X164415000Y-102477500I0J-247500D01*
G01*
G37*
G36*
G01*
X159460000Y-102267500D02*
X159460000Y-102812500D01*
G75*
G02*
X159212500Y-103060000I-247500J0D01*
G01*
X158717500Y-103060000D01*
G75*
G02*
X158470000Y-102812500I0J247500D01*
G01*
X158470000Y-102267500D01*
G75*
G02*
X158717500Y-102020000I247500J0D01*
G01*
X159212500Y-102020000D01*
G75*
G02*
X159460000Y-102267500I0J-247500D01*
G01*
G37*
G36*
G01*
X160430000Y-102267500D02*
X160430000Y-102812500D01*
G75*
G02*
X160182500Y-103060000I-247500J0D01*
G01*
X159687500Y-103060000D01*
G75*
G02*
X159440000Y-102812500I0J247500D01*
G01*
X159440000Y-102267500D01*
G75*
G02*
X159687500Y-102020000I247500J0D01*
G01*
X160182500Y-102020000D01*
G75*
G02*
X160430000Y-102267500I0J-247500D01*
G01*
G37*
G36*
G01*
X144710000Y-100527500D02*
X144710000Y-101072500D01*
G75*
G02*
X144462500Y-101320000I-247500J0D01*
G01*
X143967500Y-101320000D01*
G75*
G02*
X143720000Y-101072500I0J247500D01*
G01*
X143720000Y-100527500D01*
G75*
G02*
X143967500Y-100280000I247500J0D01*
G01*
X144462500Y-100280000D01*
G75*
G02*
X144710000Y-100527500I0J-247500D01*
G01*
G37*
G36*
G01*
X145680000Y-100527500D02*
X145680000Y-101072500D01*
G75*
G02*
X145432500Y-101320000I-247500J0D01*
G01*
X144937500Y-101320000D01*
G75*
G02*
X144690000Y-101072500I0J247500D01*
G01*
X144690000Y-100527500D01*
G75*
G02*
X144937500Y-100280000I247500J0D01*
G01*
X145432500Y-100280000D01*
G75*
G02*
X145680000Y-100527500I0J-247500D01*
G01*
G37*
G36*
G01*
X142440000Y-101442500D02*
X142440000Y-100897500D01*
G75*
G02*
X142687500Y-100650000I247500J0D01*
G01*
X143182500Y-100650000D01*
G75*
G02*
X143430000Y-100897500I0J-247500D01*
G01*
X143430000Y-101442500D01*
G75*
G02*
X143182500Y-101690000I-247500J0D01*
G01*
X142687500Y-101690000D01*
G75*
G02*
X142440000Y-101442500I0J247500D01*
G01*
G37*
G36*
G01*
X141470000Y-101442500D02*
X141470000Y-100897500D01*
G75*
G02*
X141717500Y-100650000I247500J0D01*
G01*
X142212500Y-100650000D01*
G75*
G02*
X142460000Y-100897500I0J-247500D01*
G01*
X142460000Y-101442500D01*
G75*
G02*
X142212500Y-101690000I-247500J0D01*
G01*
X141717500Y-101690000D01*
G75*
G02*
X141470000Y-101442500I0J247500D01*
G01*
G37*
G36*
G01*
X140872500Y-108895000D02*
X140327500Y-108895000D01*
G75*
G02*
X140080000Y-108647500I0J247500D01*
G01*
X140080000Y-108152500D01*
G75*
G02*
X140327500Y-107905000I247500J0D01*
G01*
X140872500Y-107905000D01*
G75*
G02*
X141120000Y-108152500I0J-247500D01*
G01*
X141120000Y-108647500D01*
G75*
G02*
X140872500Y-108895000I-247500J0D01*
G01*
G37*
G36*
G01*
X140872500Y-109865000D02*
X140327500Y-109865000D01*
G75*
G02*
X140080000Y-109617500I0J247500D01*
G01*
X140080000Y-109122500D01*
G75*
G02*
X140327500Y-108875000I247500J0D01*
G01*
X140872500Y-108875000D01*
G75*
G02*
X141120000Y-109122500I0J-247500D01*
G01*
X141120000Y-109617500D01*
G75*
G02*
X140872500Y-109865000I-247500J0D01*
G01*
G37*
G36*
G01*
X144690000Y-114072500D02*
X144690000Y-113527500D01*
G75*
G02*
X144937500Y-113280000I247500J0D01*
G01*
X145432500Y-113280000D01*
G75*
G02*
X145680000Y-113527500I0J-247500D01*
G01*
X145680000Y-114072500D01*
G75*
G02*
X145432500Y-114320000I-247500J0D01*
G01*
X144937500Y-114320000D01*
G75*
G02*
X144690000Y-114072500I0J247500D01*
G01*
G37*
G36*
G01*
X143720000Y-114072500D02*
X143720000Y-113527500D01*
G75*
G02*
X143967500Y-113280000I247500J0D01*
G01*
X144462500Y-113280000D01*
G75*
G02*
X144710000Y-113527500I0J-247500D01*
G01*
X144710000Y-114072500D01*
G75*
G02*
X144462500Y-114320000I-247500J0D01*
G01*
X143967500Y-114320000D01*
G75*
G02*
X143720000Y-114072500I0J247500D01*
G01*
G37*
G36*
G01*
X142460000Y-113527500D02*
X142460000Y-114072500D01*
G75*
G02*
X142212500Y-114320000I-247500J0D01*
G01*
X141717500Y-114320000D01*
G75*
G02*
X141470000Y-114072500I0J247500D01*
G01*
X141470000Y-113527500D01*
G75*
G02*
X141717500Y-113280000I247500J0D01*
G01*
X142212500Y-113280000D01*
G75*
G02*
X142460000Y-113527500I0J-247500D01*
G01*
G37*
G36*
G01*
X143430000Y-113527500D02*
X143430000Y-114072500D01*
G75*
G02*
X143182500Y-114320000I-247500J0D01*
G01*
X142687500Y-114320000D01*
G75*
G02*
X142440000Y-114072500I0J247500D01*
G01*
X142440000Y-113527500D01*
G75*
G02*
X142687500Y-113280000I247500J0D01*
G01*
X143182500Y-113280000D01*
G75*
G02*
X143430000Y-113527500I0J-247500D01*
G01*
G37*
G36*
G01*
X140872500Y-106725000D02*
X140327500Y-106725000D01*
G75*
G02*
X140080000Y-106477500I0J247500D01*
G01*
X140080000Y-105982500D01*
G75*
G02*
X140327500Y-105735000I247500J0D01*
G01*
X140872500Y-105735000D01*
G75*
G02*
X141120000Y-105982500I0J-247500D01*
G01*
X141120000Y-106477500D01*
G75*
G02*
X140872500Y-106725000I-247500J0D01*
G01*
G37*
G36*
G01*
X140872500Y-107695000D02*
X140327500Y-107695000D01*
G75*
G02*
X140080000Y-107447500I0J247500D01*
G01*
X140080000Y-106952500D01*
G75*
G02*
X140327500Y-106705000I247500J0D01*
G01*
X140872500Y-106705000D01*
G75*
G02*
X141120000Y-106952500I0J-247500D01*
G01*
X141120000Y-107447500D01*
G75*
G02*
X140872500Y-107695000I-247500J0D01*
G01*
G37*
G36*
G01*
X108905000Y-114472500D02*
X108905000Y-113927500D01*
G75*
G02*
X109152500Y-113680000I247500J0D01*
G01*
X109647500Y-113680000D01*
G75*
G02*
X109895000Y-113927500I0J-247500D01*
G01*
X109895000Y-114472500D01*
G75*
G02*
X109647500Y-114720000I-247500J0D01*
G01*
X109152500Y-114720000D01*
G75*
G02*
X108905000Y-114472500I0J247500D01*
G01*
G37*
G36*
G01*
X107935000Y-114472500D02*
X107935000Y-113927500D01*
G75*
G02*
X108182500Y-113680000I247500J0D01*
G01*
X108677500Y-113680000D01*
G75*
G02*
X108925000Y-113927500I0J-247500D01*
G01*
X108925000Y-114472500D01*
G75*
G02*
X108677500Y-114720000I-247500J0D01*
G01*
X108182500Y-114720000D01*
G75*
G02*
X107935000Y-114472500I0J247500D01*
G01*
G37*
G36*
G01*
X114152500Y-113010000D02*
X113607500Y-113010000D01*
G75*
G02*
X113360000Y-112762500I0J247500D01*
G01*
X113360000Y-112267500D01*
G75*
G02*
X113607500Y-112020000I247500J0D01*
G01*
X114152500Y-112020000D01*
G75*
G02*
X114400000Y-112267500I0J-247500D01*
G01*
X114400000Y-112762500D01*
G75*
G02*
X114152500Y-113010000I-247500J0D01*
G01*
G37*
G36*
G01*
X114152500Y-113980000D02*
X113607500Y-113980000D01*
G75*
G02*
X113360000Y-113732500I0J247500D01*
G01*
X113360000Y-113237500D01*
G75*
G02*
X113607500Y-112990000I247500J0D01*
G01*
X114152500Y-112990000D01*
G75*
G02*
X114400000Y-113237500I0J-247500D01*
G01*
X114400000Y-113732500D01*
G75*
G02*
X114152500Y-113980000I-247500J0D01*
G01*
G37*
G36*
G01*
X116300000Y-107512500D02*
X116300000Y-108887500D01*
G75*
G02*
X115987500Y-109200000I-312500J0D01*
G01*
X113212500Y-109200000D01*
G75*
G02*
X112900000Y-108887500I0J312500D01*
G01*
X112900000Y-107512500D01*
G75*
G02*
X113212500Y-107200000I312500J0D01*
G01*
X115987500Y-107200000D01*
G75*
G02*
X116300000Y-107512500I0J-312500D01*
G01*
G37*
G36*
G01*
X120700000Y-107512500D02*
X120700000Y-108887500D01*
G75*
G02*
X120387500Y-109200000I-312500J0D01*
G01*
X117612500Y-109200000D01*
G75*
G02*
X117300000Y-108887500I0J312500D01*
G01*
X117300000Y-107512500D01*
G75*
G02*
X117612500Y-107200000I312500J0D01*
G01*
X120387500Y-107200000D01*
G75*
G02*
X120700000Y-107512500I0J-312500D01*
G01*
G37*
G36*
G01*
X165200000Y-102050000D02*
X166200000Y-102050000D01*
G75*
G02*
X166400000Y-102250000I0J-200000D01*
G01*
X166400000Y-103250000D01*
G75*
G02*
X166200000Y-103450000I-200000J0D01*
G01*
X165200000Y-103450000D01*
G75*
G02*
X165000000Y-103250000I0J200000D01*
G01*
X165000000Y-102250000D01*
G75*
G02*
X165200000Y-102050000I200000J0D01*
G01*
G37*
G36*
G01*
X168200000Y-102050000D02*
X169200000Y-102050000D01*
G75*
G02*
X169400000Y-102250000I0J-200000D01*
G01*
X169400000Y-103250000D01*
G75*
G02*
X169200000Y-103450000I-200000J0D01*
G01*
X168200000Y-103450000D01*
G75*
G02*
X168000000Y-103250000I0J200000D01*
G01*
X168000000Y-102250000D01*
G75*
G02*
X168200000Y-102050000I200000J0D01*
G01*
G37*
G36*
G01*
X166100000Y-103500000D02*
X168300000Y-103500000D01*
G75*
G02*
X168500000Y-103700000I0J-200000D01*
G01*
X168500000Y-104750000D01*
G75*
G02*
X168300000Y-104950000I-200000J0D01*
G01*
X166100000Y-104950000D01*
G75*
G02*
X165900000Y-104750000I0J200000D01*
G01*
X165900000Y-103700000D01*
G75*
G02*
X166100000Y-103500000I200000J0D01*
G01*
G37*
G36*
G01*
X166100000Y-100550000D02*
X168300000Y-100550000D01*
G75*
G02*
X168500000Y-100750000I0J-200000D01*
G01*
X168500000Y-101800000D01*
G75*
G02*
X168300000Y-102000000I-200000J0D01*
G01*
X166100000Y-102000000D01*
G75*
G02*
X165900000Y-101800000I0J200000D01*
G01*
X165900000Y-100750000D01*
G75*
G02*
X166100000Y-100550000I200000J0D01*
G01*
G37*
G36*
G01*
X159200000Y-107010000D02*
X160200000Y-107010000D01*
G75*
G02*
X160400000Y-107210000I0J-200000D01*
G01*
X160400000Y-108210000D01*
G75*
G02*
X160200000Y-108410000I-200000J0D01*
G01*
X159200000Y-108410000D01*
G75*
G02*
X159000000Y-108210000I0J200000D01*
G01*
X159000000Y-107210000D01*
G75*
G02*
X159200000Y-107010000I200000J0D01*
G01*
G37*
G36*
G01*
X162200000Y-107010000D02*
X163200000Y-107010000D01*
G75*
G02*
X163400000Y-107210000I0J-200000D01*
G01*
X163400000Y-108210000D01*
G75*
G02*
X163200000Y-108410000I-200000J0D01*
G01*
X162200000Y-108410000D01*
G75*
G02*
X162000000Y-108210000I0J200000D01*
G01*
X162000000Y-107210000D01*
G75*
G02*
X162200000Y-107010000I200000J0D01*
G01*
G37*
G36*
G01*
X160100000Y-108460000D02*
X162300000Y-108460000D01*
G75*
G02*
X162500000Y-108660000I0J-200000D01*
G01*
X162500000Y-109710000D01*
G75*
G02*
X162300000Y-109910000I-200000J0D01*
G01*
X160100000Y-109910000D01*
G75*
G02*
X159900000Y-109710000I0J200000D01*
G01*
X159900000Y-108660000D01*
G75*
G02*
X160100000Y-108460000I200000J0D01*
G01*
G37*
G36*
G01*
X160100000Y-105510000D02*
X162300000Y-105510000D01*
G75*
G02*
X162500000Y-105710000I0J-200000D01*
G01*
X162500000Y-106760000D01*
G75*
G02*
X162300000Y-106960000I-200000J0D01*
G01*
X160100000Y-106960000D01*
G75*
G02*
X159900000Y-106760000I0J200000D01*
G01*
X159900000Y-105710000D01*
G75*
G02*
X160100000Y-105510000I200000J0D01*
G01*
G37*
G36*
G01*
X169450000Y-114450000D02*
X166450000Y-114450000D01*
G75*
G02*
X166250000Y-114250000I0J200000D01*
G01*
X166250000Y-112250000D01*
G75*
G02*
X166450000Y-112050000I200000J0D01*
G01*
X169450000Y-112050000D01*
G75*
G02*
X169650000Y-112250000I0J-200000D01*
G01*
X169650000Y-114250000D01*
G75*
G02*
X169450000Y-114450000I-200000J0D01*
G01*
G37*
G36*
G01*
X169450000Y-111950000D02*
X166450000Y-111950000D01*
G75*
G02*
X166250000Y-111750000I0J200000D01*
G01*
X166250000Y-109750000D01*
G75*
G02*
X166450000Y-109550000I200000J0D01*
G01*
X169450000Y-109550000D01*
G75*
G02*
X169650000Y-109750000I0J-200000D01*
G01*
X169650000Y-111750000D01*
G75*
G02*
X169450000Y-111950000I-200000J0D01*
G01*
G37*
M02*
