G04 #@! TF.GenerationSoftware,KiCad,Pcbnew,(5.1.9)-1*
G04 #@! TF.CreationDate,2021-02-01T18:23:16+11:00*
G04 #@! TF.ProjectId,BoSLnano,426f534c-6e61-46e6-9f2e-6b696361645f,0.4.2*
G04 #@! TF.SameCoordinates,Original*
G04 #@! TF.FileFunction,Copper,L2,Inr*
G04 #@! TF.FilePolarity,Positive*
%FSLAX46Y46*%
G04 Gerber Fmt 4.6, Leading zero omitted, Abs format (unit mm)*
G04 Created by KiCad (PCBNEW (5.1.9)-1) date 2021-02-01 18:23:16*
%MOMM*%
%LPD*%
G01*
G04 APERTURE LIST*
G04 #@! TA.AperFunction,ComponentPad*
%ADD10O,2.200000X1.100000*%
G04 #@! TD*
G04 #@! TA.AperFunction,ComponentPad*
%ADD11O,1.800000X1.100000*%
G04 #@! TD*
G04 #@! TA.AperFunction,ComponentPad*
%ADD12O,1.000000X1.000000*%
G04 #@! TD*
G04 #@! TA.AperFunction,ComponentPad*
%ADD13R,1.000000X1.000000*%
G04 #@! TD*
G04 #@! TA.AperFunction,ComponentPad*
%ADD14O,1.700000X1.700000*%
G04 #@! TD*
G04 #@! TA.AperFunction,ComponentPad*
%ADD15R,1.700000X1.700000*%
G04 #@! TD*
G04 #@! TA.AperFunction,ComponentPad*
%ADD16R,3.000000X2.000000*%
G04 #@! TD*
G04 #@! TA.AperFunction,ViaPad*
%ADD17C,0.500000*%
G04 #@! TD*
G04 #@! TA.AperFunction,ViaPad*
%ADD18C,0.600000*%
G04 #@! TD*
G04 #@! TA.AperFunction,Conductor*
%ADD19C,0.400000*%
G04 #@! TD*
G04 #@! TA.AperFunction,Conductor*
%ADD20C,0.800000*%
G04 #@! TD*
G04 #@! TA.AperFunction,Conductor*
%ADD21C,0.600000*%
G04 #@! TD*
G04 #@! TA.AperFunction,Conductor*
%ADD22C,0.160000*%
G04 #@! TD*
G04 #@! TA.AperFunction,Conductor*
%ADD23C,0.254000*%
G04 #@! TD*
G04 #@! TA.AperFunction,Conductor*
%ADD24C,0.100000*%
G04 #@! TD*
G04 APERTURE END LIST*
D10*
X117200000Y-101325000D03*
D11*
X114400000Y-103475000D03*
X120000000Y-103475000D03*
D12*
X122200000Y-109390000D03*
X123470000Y-109390000D03*
X124740000Y-109390000D03*
X126010000Y-109390000D03*
X127280000Y-109390000D03*
X128550000Y-109390000D03*
X129820000Y-109390000D03*
X131090000Y-109390000D03*
D13*
X132360000Y-109390000D03*
D14*
X135445500Y-113030000D03*
X132905500Y-113030000D03*
X130365500Y-113030000D03*
X127825500Y-113030000D03*
X125285500Y-113030000D03*
X122745500Y-113030000D03*
D15*
X120205500Y-113030000D03*
D14*
X132220000Y-105800000D03*
X129680000Y-105800000D03*
X127140000Y-105800000D03*
D15*
X124600000Y-105800000D03*
X124600000Y-102200000D03*
D14*
X127140000Y-102200000D03*
X129680000Y-102200000D03*
X132220000Y-102200000D03*
D16*
X167950000Y-113250000D03*
X167950000Y-110750000D03*
D17*
X161940000Y-114030000D03*
D18*
X143000000Y-106600000D03*
X141500000Y-106200000D03*
D17*
X138450000Y-101700000D03*
X115400000Y-113950000D03*
D18*
X105500000Y-108000000D03*
X137215655Y-110580000D03*
X143070000Y-104110000D03*
D17*
X143195557Y-109932717D03*
D18*
X148900000Y-113750000D03*
X158969990Y-102540000D03*
X117810000Y-106570000D03*
X117150000Y-106570000D03*
D17*
X134093503Y-107764080D03*
X105310000Y-110539988D03*
X122049990Y-105370000D03*
X134350000Y-104390010D03*
X125210000Y-107839978D03*
D18*
X119000000Y-105600000D03*
D17*
X111000000Y-106800000D03*
X134730000Y-108380000D03*
X104810000Y-105760000D03*
X134876393Y-109023571D03*
X104280000Y-106760000D03*
X140890036Y-112907052D03*
X137800000Y-101500000D03*
X141550000Y-112914936D03*
X139850000Y-101445046D03*
X135440376Y-108609256D03*
X103999990Y-109690000D03*
X144990000Y-110370000D03*
X145070243Y-105305036D03*
X145010000Y-106570000D03*
X135940000Y-103720000D03*
X162730000Y-110660000D03*
X133003961Y-108449080D03*
X139122765Y-112141767D03*
X163010000Y-111760000D03*
X133470653Y-107982389D03*
X138335382Y-111889933D03*
X117830000Y-104970000D03*
X117230000Y-104480000D03*
X161000000Y-110600000D03*
X136790000Y-103150000D03*
X144779979Y-109628477D03*
X159930000Y-110450000D03*
D18*
X105130000Y-102370000D03*
D17*
X141180553Y-100899447D03*
X156537865Y-111465409D03*
X145020000Y-104000000D03*
X134440039Y-105920000D03*
X145210000Y-104660000D03*
X134800000Y-106600000D03*
X148770000Y-111360000D03*
X156711031Y-113811936D03*
X136150000Y-102960000D03*
X156820000Y-107970000D03*
X155760000Y-112850000D03*
X144200000Y-102970000D03*
X136790000Y-102470000D03*
X158700000Y-113100000D03*
X149428676Y-111401820D03*
X146960006Y-110560006D03*
X146078517Y-101441483D03*
D18*
X115000000Y-106400000D03*
X114200000Y-106400000D03*
D17*
X136010000Y-110480000D03*
X131860000Y-107180000D03*
X120969999Y-109440000D03*
D18*
X109410000Y-114210000D03*
X112400000Y-105400000D03*
X113600000Y-108650000D03*
X113600000Y-107760000D03*
X115400000Y-108200000D03*
X107000000Y-105800000D03*
X108200000Y-105800000D03*
X109200000Y-105800000D03*
X158700000Y-107100000D03*
X158700000Y-108325000D03*
X159420000Y-108930000D03*
X159420000Y-106510000D03*
X165420000Y-101600000D03*
X165410000Y-104000000D03*
X164680000Y-103440000D03*
X164660000Y-102050000D03*
X158700000Y-105320000D03*
X115970000Y-105540000D03*
X119850000Y-106570000D03*
X103280000Y-112220000D03*
X102980000Y-103500000D03*
X102940000Y-110150000D03*
X112400000Y-111885000D03*
D17*
X155000000Y-104000000D03*
D18*
X153000000Y-104000000D03*
X151000000Y-104000000D03*
X155000000Y-105600000D03*
X153000000Y-105600000D03*
X151000000Y-105600000D03*
X149000000Y-104000000D03*
X153000000Y-108800000D03*
X155000000Y-108800000D03*
X155000000Y-107200000D03*
X153000000Y-107200000D03*
X151000000Y-107200000D03*
X149000000Y-105600000D03*
X149000000Y-108800000D03*
X164600000Y-111600000D03*
X145185000Y-113800000D03*
X151300000Y-113100000D03*
X157700000Y-113000000D03*
D17*
X139790000Y-104200000D03*
D18*
X148133162Y-101406838D03*
X149743154Y-101540000D03*
X114345000Y-112050000D03*
X165240000Y-107460000D03*
X167870000Y-107440000D03*
X163220000Y-106180000D03*
X169240000Y-104300000D03*
X169250000Y-101220000D03*
X115400000Y-112050000D03*
X139310000Y-108100000D03*
X153750000Y-112840002D03*
D17*
X112870000Y-113160000D03*
X149400000Y-100500000D03*
X107300000Y-109200000D03*
X155000000Y-100800000D03*
X108800000Y-108800000D03*
X137732429Y-112250032D03*
X156800000Y-109750000D03*
X154650000Y-112900000D03*
X155040000Y-109510000D03*
X153200000Y-111450000D03*
X136950000Y-114430000D03*
X118550000Y-112490000D03*
X152540000Y-111430000D03*
X120180000Y-111440000D03*
X137770000Y-114510088D03*
X160400000Y-103400000D03*
X147600000Y-103000000D03*
D19*
X138110000Y-102800000D02*
X136720000Y-101410000D01*
D20*
X137215655Y-107496814D02*
X134828840Y-105109999D01*
X137215655Y-110580000D02*
X137215655Y-107496814D01*
D21*
X134019187Y-105109999D02*
X133200000Y-104290812D01*
X134828840Y-105109999D02*
X134019187Y-105109999D01*
D20*
X126690812Y-104290812D02*
X124600000Y-102200000D01*
X133200000Y-104290812D02*
X126690812Y-104290812D01*
D19*
X140860000Y-104110000D02*
X143070000Y-104110000D01*
X138450000Y-101700000D02*
X140860000Y-104110000D01*
X147012840Y-113750000D02*
X148900000Y-113750000D01*
X143195557Y-109932717D02*
X147012840Y-113750000D01*
X158759990Y-102330000D02*
X158969990Y-102540000D01*
X143790000Y-102330000D02*
X158759990Y-102330000D01*
X143070000Y-103050000D02*
X143790000Y-102330000D01*
X143070000Y-104110000D02*
X143070000Y-103050000D01*
D22*
X134736322Y-107180000D02*
X131860000Y-107180000D01*
X136010000Y-108453678D02*
X134736322Y-107180000D01*
X136010000Y-110480000D02*
X136010000Y-108453678D01*
D23*
X115928341Y-100603341D02*
X115801419Y-100757996D01*
X115707107Y-100934441D01*
X115649030Y-101125895D01*
X115629420Y-101325000D01*
X115649030Y-101524105D01*
X115707107Y-101715559D01*
X115801419Y-101892004D01*
X115928341Y-102046659D01*
X116082996Y-102173581D01*
X116259441Y-102267893D01*
X116450895Y-102325970D01*
X116600107Y-102340666D01*
X117799893Y-102340666D01*
X117949105Y-102325970D01*
X118140559Y-102267893D01*
X118317004Y-102173581D01*
X118471659Y-102046659D01*
X118598581Y-101892004D01*
X118692893Y-101715559D01*
X118750970Y-101524105D01*
X118770580Y-101325000D01*
X118750970Y-101125895D01*
X118692893Y-100934441D01*
X118598581Y-100757996D01*
X118471659Y-100603341D01*
X118395289Y-100540666D01*
X140559559Y-100540666D01*
X140546338Y-100560452D01*
X140492389Y-100690695D01*
X140464887Y-100828960D01*
X140464887Y-100969934D01*
X140492389Y-101108199D01*
X140546338Y-101238442D01*
X140624659Y-101355658D01*
X140724342Y-101455341D01*
X140841558Y-101533662D01*
X140971801Y-101587611D01*
X141110066Y-101615113D01*
X141251040Y-101615113D01*
X141389305Y-101587611D01*
X141519548Y-101533662D01*
X141636764Y-101455341D01*
X141736447Y-101355658D01*
X141814768Y-101238442D01*
X141868717Y-101108199D01*
X141896219Y-100969934D01*
X141896219Y-100828960D01*
X141868717Y-100690695D01*
X141814768Y-100560452D01*
X141801547Y-100540666D01*
X148684334Y-100540666D01*
X148684334Y-100570487D01*
X148711836Y-100708752D01*
X148765785Y-100838995D01*
X148844106Y-100956211D01*
X148943789Y-101055894D01*
X149061005Y-101134215D01*
X149191248Y-101188164D01*
X149329513Y-101215666D01*
X149470487Y-101215666D01*
X149608752Y-101188164D01*
X149738995Y-101134215D01*
X149856211Y-101055894D01*
X149955894Y-100956211D01*
X150034215Y-100838995D01*
X150088164Y-100708752D01*
X150115666Y-100570487D01*
X150115666Y-100540666D01*
X154332788Y-100540666D01*
X154311836Y-100591248D01*
X154284334Y-100729513D01*
X154284334Y-100870487D01*
X154311836Y-101008752D01*
X154365785Y-101138995D01*
X154444106Y-101256211D01*
X154543789Y-101355894D01*
X154661005Y-101434215D01*
X154791248Y-101488164D01*
X154929513Y-101515666D01*
X155070487Y-101515666D01*
X155208752Y-101488164D01*
X155338995Y-101434215D01*
X155456211Y-101355894D01*
X155555894Y-101256211D01*
X155634215Y-101138995D01*
X155688164Y-101008752D01*
X155715666Y-100870487D01*
X155715666Y-100729513D01*
X155688164Y-100591248D01*
X155667212Y-100540666D01*
X167973553Y-100540666D01*
X168282953Y-100571003D01*
X168555122Y-100653176D01*
X168806146Y-100786648D01*
X169026469Y-100966340D01*
X169207695Y-101185403D01*
X169342915Y-101435488D01*
X169426988Y-101707084D01*
X169459334Y-102014837D01*
X169459335Y-109283000D01*
X169450000Y-109282081D01*
X166450000Y-109282081D01*
X166358714Y-109291072D01*
X166270935Y-109317699D01*
X166190038Y-109360940D01*
X166119131Y-109419131D01*
X166060940Y-109490038D01*
X166017699Y-109570935D01*
X165991072Y-109658714D01*
X165982081Y-109750000D01*
X165982081Y-111750000D01*
X165991072Y-111841286D01*
X166017699Y-111929065D01*
X166055615Y-112000000D01*
X166017699Y-112070935D01*
X165991072Y-112158714D01*
X165982081Y-112250000D01*
X165982081Y-114250000D01*
X165991072Y-114341286D01*
X166017699Y-114429065D01*
X166033878Y-114459334D01*
X162513853Y-114459334D01*
X162574215Y-114368995D01*
X162628164Y-114238752D01*
X162655666Y-114100487D01*
X162655666Y-113959513D01*
X162628164Y-113821248D01*
X162574215Y-113691005D01*
X162495894Y-113573789D01*
X162396211Y-113474106D01*
X162278995Y-113395785D01*
X162148752Y-113341836D01*
X162010487Y-113314334D01*
X161869513Y-113314334D01*
X161731248Y-113341836D01*
X161601005Y-113395785D01*
X161483789Y-113474106D01*
X161384106Y-113573789D01*
X161305785Y-113691005D01*
X161251836Y-113821248D01*
X161224334Y-113959513D01*
X161224334Y-114100487D01*
X161251836Y-114238752D01*
X161305785Y-114368995D01*
X161366147Y-114459334D01*
X157018200Y-114459334D01*
X157050026Y-114446151D01*
X157167242Y-114367830D01*
X157266925Y-114268147D01*
X157345246Y-114150931D01*
X157399195Y-114020688D01*
X157426697Y-113882423D01*
X157426697Y-113741449D01*
X157399195Y-113603184D01*
X157345246Y-113472941D01*
X157266925Y-113355725D01*
X157167242Y-113256042D01*
X157050026Y-113177721D01*
X156919783Y-113123772D01*
X156781518Y-113096270D01*
X156640544Y-113096270D01*
X156502279Y-113123772D01*
X156404446Y-113164296D01*
X156448164Y-113058752D01*
X156453979Y-113029513D01*
X157984334Y-113029513D01*
X157984334Y-113170487D01*
X158011836Y-113308752D01*
X158065785Y-113438995D01*
X158144106Y-113556211D01*
X158243789Y-113655894D01*
X158361005Y-113734215D01*
X158491248Y-113788164D01*
X158629513Y-113815666D01*
X158770487Y-113815666D01*
X158908752Y-113788164D01*
X159038995Y-113734215D01*
X159156211Y-113655894D01*
X159255894Y-113556211D01*
X159334215Y-113438995D01*
X159388164Y-113308752D01*
X159415666Y-113170487D01*
X159415666Y-113029513D01*
X159388164Y-112891248D01*
X159334215Y-112761005D01*
X159255894Y-112643789D01*
X159156211Y-112544106D01*
X159038995Y-112465785D01*
X158908752Y-112411836D01*
X158770487Y-112384334D01*
X158629513Y-112384334D01*
X158491248Y-112411836D01*
X158361005Y-112465785D01*
X158243789Y-112544106D01*
X158144106Y-112643789D01*
X158065785Y-112761005D01*
X158011836Y-112891248D01*
X157984334Y-113029513D01*
X156453979Y-113029513D01*
X156475666Y-112920487D01*
X156475666Y-112779513D01*
X156448164Y-112641248D01*
X156394215Y-112511005D01*
X156315894Y-112393789D01*
X156216211Y-112294106D01*
X156098995Y-112215785D01*
X155968752Y-112161836D01*
X155830487Y-112134334D01*
X155689513Y-112134334D01*
X155551248Y-112161836D01*
X155421005Y-112215785D01*
X155303789Y-112294106D01*
X155204106Y-112393789D01*
X155184795Y-112422690D01*
X155106211Y-112344106D01*
X154988995Y-112265785D01*
X154858752Y-112211836D01*
X154720487Y-112184334D01*
X154579513Y-112184334D01*
X154441248Y-112211836D01*
X154311005Y-112265785D01*
X154193789Y-112344106D01*
X154094106Y-112443789D01*
X154015785Y-112561005D01*
X153961836Y-112691248D01*
X153934334Y-112829513D01*
X153934334Y-112970487D01*
X153961836Y-113108752D01*
X154015785Y-113238995D01*
X154094106Y-113356211D01*
X154193789Y-113455894D01*
X154311005Y-113534215D01*
X154441248Y-113588164D01*
X154579513Y-113615666D01*
X154720487Y-113615666D01*
X154858752Y-113588164D01*
X154988995Y-113534215D01*
X155106211Y-113455894D01*
X155205894Y-113356211D01*
X155225205Y-113327310D01*
X155303789Y-113405894D01*
X155421005Y-113484215D01*
X155551248Y-113538164D01*
X155689513Y-113565666D01*
X155830487Y-113565666D01*
X155968752Y-113538164D01*
X156066585Y-113497640D01*
X156022867Y-113603184D01*
X155995365Y-113741449D01*
X155995365Y-113882423D01*
X156022867Y-114020688D01*
X156076816Y-114150931D01*
X156155137Y-114268147D01*
X156254820Y-114367830D01*
X156372036Y-114446151D01*
X156403862Y-114459334D01*
X149188299Y-114459334D01*
X149262679Y-114428525D01*
X149388084Y-114344732D01*
X149494732Y-114238084D01*
X149578525Y-114112679D01*
X149636242Y-113973337D01*
X149665666Y-113825412D01*
X149665666Y-113674588D01*
X149636242Y-113526663D01*
X149578525Y-113387321D01*
X149494732Y-113261916D01*
X149388084Y-113155268D01*
X149262679Y-113071475D01*
X149123337Y-113013758D01*
X148975412Y-112984334D01*
X148824588Y-112984334D01*
X148676663Y-113013758D01*
X148537321Y-113071475D01*
X148518076Y-113084334D01*
X147288568Y-113084334D01*
X145493747Y-111289513D01*
X148054334Y-111289513D01*
X148054334Y-111430487D01*
X148081836Y-111568752D01*
X148135785Y-111698995D01*
X148214106Y-111816211D01*
X148313789Y-111915894D01*
X148431005Y-111994215D01*
X148561248Y-112048164D01*
X148699513Y-112075666D01*
X148840487Y-112075666D01*
X148978752Y-112048164D01*
X149058436Y-112015158D01*
X149089681Y-112036035D01*
X149219924Y-112089984D01*
X149358189Y-112117486D01*
X149499163Y-112117486D01*
X149637428Y-112089984D01*
X149767671Y-112036035D01*
X149884887Y-111957714D01*
X149984570Y-111858031D01*
X150062891Y-111740815D01*
X150116840Y-111610572D01*
X150144342Y-111472307D01*
X150144342Y-111359513D01*
X151824334Y-111359513D01*
X151824334Y-111500487D01*
X151851836Y-111638752D01*
X151905785Y-111768995D01*
X151984106Y-111886211D01*
X152083789Y-111985894D01*
X152201005Y-112064215D01*
X152331248Y-112118164D01*
X152469513Y-112145666D01*
X152610487Y-112145666D01*
X152748752Y-112118164D01*
X152849412Y-112076469D01*
X152861005Y-112084215D01*
X152991248Y-112138164D01*
X153129513Y-112165666D01*
X153270487Y-112165666D01*
X153408752Y-112138164D01*
X153538995Y-112084215D01*
X153656211Y-112005894D01*
X153755894Y-111906211D01*
X153834215Y-111788995D01*
X153888164Y-111658752D01*
X153915666Y-111520487D01*
X153915666Y-111394922D01*
X155822199Y-111394922D01*
X155822199Y-111535896D01*
X155849701Y-111674161D01*
X155903650Y-111804404D01*
X155981971Y-111921620D01*
X156081654Y-112021303D01*
X156198870Y-112099624D01*
X156329113Y-112153573D01*
X156467378Y-112181075D01*
X156608352Y-112181075D01*
X156746617Y-112153573D01*
X156876860Y-112099624D01*
X156994076Y-112021303D01*
X157093759Y-111921620D01*
X157172080Y-111804404D01*
X157226029Y-111674161D01*
X157253531Y-111535896D01*
X157253531Y-111394922D01*
X157226029Y-111256657D01*
X157172080Y-111126414D01*
X157093759Y-111009198D01*
X156994076Y-110909515D01*
X156876860Y-110831194D01*
X156746617Y-110777245D01*
X156608352Y-110749743D01*
X156467378Y-110749743D01*
X156329113Y-110777245D01*
X156198870Y-110831194D01*
X156081654Y-110909515D01*
X155981971Y-111009198D01*
X155903650Y-111126414D01*
X155849701Y-111256657D01*
X155822199Y-111394922D01*
X153915666Y-111394922D01*
X153915666Y-111379513D01*
X153888164Y-111241248D01*
X153834215Y-111111005D01*
X153755894Y-110993789D01*
X153656211Y-110894106D01*
X153538995Y-110815785D01*
X153408752Y-110761836D01*
X153270487Y-110734334D01*
X153129513Y-110734334D01*
X152991248Y-110761836D01*
X152890588Y-110803531D01*
X152878995Y-110795785D01*
X152748752Y-110741836D01*
X152610487Y-110714334D01*
X152469513Y-110714334D01*
X152331248Y-110741836D01*
X152201005Y-110795785D01*
X152083789Y-110874106D01*
X151984106Y-110973789D01*
X151905785Y-111091005D01*
X151851836Y-111221248D01*
X151824334Y-111359513D01*
X150144342Y-111359513D01*
X150144342Y-111331333D01*
X150116840Y-111193068D01*
X150062891Y-111062825D01*
X149984570Y-110945609D01*
X149884887Y-110845926D01*
X149767671Y-110767605D01*
X149637428Y-110713656D01*
X149499163Y-110686154D01*
X149358189Y-110686154D01*
X149219924Y-110713656D01*
X149140240Y-110746662D01*
X149108995Y-110725785D01*
X148978752Y-110671836D01*
X148840487Y-110644334D01*
X148699513Y-110644334D01*
X148561248Y-110671836D01*
X148431005Y-110725785D01*
X148313789Y-110804106D01*
X148214106Y-110903789D01*
X148135785Y-111021005D01*
X148081836Y-111151248D01*
X148054334Y-111289513D01*
X145493747Y-111289513D01*
X145243756Y-111039523D01*
X145328995Y-111004215D01*
X145446211Y-110925894D01*
X145545894Y-110826211D01*
X145624215Y-110708995D01*
X145678164Y-110578752D01*
X145695913Y-110489519D01*
X146244340Y-110489519D01*
X146244340Y-110630493D01*
X146271842Y-110768758D01*
X146325791Y-110899001D01*
X146404112Y-111016217D01*
X146503795Y-111115900D01*
X146621011Y-111194221D01*
X146751254Y-111248170D01*
X146889519Y-111275672D01*
X147030493Y-111275672D01*
X147168758Y-111248170D01*
X147299001Y-111194221D01*
X147416217Y-111115900D01*
X147515900Y-111016217D01*
X147594221Y-110899001D01*
X147648170Y-110768758D01*
X147675672Y-110630493D01*
X147675672Y-110489519D01*
X147648170Y-110351254D01*
X147594221Y-110221011D01*
X147515900Y-110103795D01*
X147416217Y-110004112D01*
X147299001Y-109925791D01*
X147168758Y-109871842D01*
X147030493Y-109844340D01*
X146889519Y-109844340D01*
X146751254Y-109871842D01*
X146621011Y-109925791D01*
X146503795Y-110004112D01*
X146404112Y-110103795D01*
X146325791Y-110221011D01*
X146271842Y-110351254D01*
X146244340Y-110489519D01*
X145695913Y-110489519D01*
X145705666Y-110440487D01*
X145705666Y-110299513D01*
X145678164Y-110161248D01*
X145624215Y-110031005D01*
X145545894Y-109913789D01*
X145468341Y-109836236D01*
X145495645Y-109698964D01*
X145495645Y-109557990D01*
X145472079Y-109439513D01*
X154324334Y-109439513D01*
X154324334Y-109580487D01*
X154351836Y-109718752D01*
X154405785Y-109848995D01*
X154484106Y-109966211D01*
X154583789Y-110065894D01*
X154701005Y-110144215D01*
X154831248Y-110198164D01*
X154969513Y-110225666D01*
X155110487Y-110225666D01*
X155248752Y-110198164D01*
X155378995Y-110144215D01*
X155496211Y-110065894D01*
X155595894Y-109966211D01*
X155674215Y-109848995D01*
X155728164Y-109718752D01*
X155735968Y-109679513D01*
X156084334Y-109679513D01*
X156084334Y-109820487D01*
X156111836Y-109958752D01*
X156165785Y-110088995D01*
X156244106Y-110206211D01*
X156343789Y-110305894D01*
X156461005Y-110384215D01*
X156591248Y-110438164D01*
X156729513Y-110465666D01*
X156870487Y-110465666D01*
X157008752Y-110438164D01*
X157138995Y-110384215D01*
X157146032Y-110379513D01*
X159214334Y-110379513D01*
X159214334Y-110520487D01*
X159241836Y-110658752D01*
X159295785Y-110788995D01*
X159374106Y-110906211D01*
X159473789Y-111005894D01*
X159591005Y-111084215D01*
X159721248Y-111138164D01*
X159859513Y-111165666D01*
X160000487Y-111165666D01*
X160138752Y-111138164D01*
X160268995Y-111084215D01*
X160386211Y-111005894D01*
X160400762Y-110991343D01*
X160444106Y-111056211D01*
X160543789Y-111155894D01*
X160661005Y-111234215D01*
X160791248Y-111288164D01*
X160929513Y-111315666D01*
X161070487Y-111315666D01*
X161208752Y-111288164D01*
X161338995Y-111234215D01*
X161456211Y-111155894D01*
X161555894Y-111056211D01*
X161634215Y-110938995D01*
X161688164Y-110808752D01*
X161715666Y-110670487D01*
X161715666Y-110589513D01*
X162014334Y-110589513D01*
X162014334Y-110730487D01*
X162041836Y-110868752D01*
X162095785Y-110998995D01*
X162174106Y-111116211D01*
X162273789Y-111215894D01*
X162391005Y-111294215D01*
X162445438Y-111316762D01*
X162375785Y-111421005D01*
X162321836Y-111551248D01*
X162294334Y-111689513D01*
X162294334Y-111830487D01*
X162321836Y-111968752D01*
X162375785Y-112098995D01*
X162454106Y-112216211D01*
X162553789Y-112315894D01*
X162671005Y-112394215D01*
X162801248Y-112448164D01*
X162939513Y-112475666D01*
X163080487Y-112475666D01*
X163218752Y-112448164D01*
X163348995Y-112394215D01*
X163466211Y-112315894D01*
X163565894Y-112216211D01*
X163644215Y-112098995D01*
X163698164Y-111968752D01*
X163725666Y-111830487D01*
X163725666Y-111689513D01*
X163698164Y-111551248D01*
X163644215Y-111421005D01*
X163565894Y-111303789D01*
X163466211Y-111204106D01*
X163348995Y-111125785D01*
X163294562Y-111103238D01*
X163364215Y-110998995D01*
X163418164Y-110868752D01*
X163445666Y-110730487D01*
X163445666Y-110589513D01*
X163418164Y-110451248D01*
X163364215Y-110321005D01*
X163285894Y-110203789D01*
X163186211Y-110104106D01*
X163068995Y-110025785D01*
X162938752Y-109971836D01*
X162800487Y-109944334D01*
X162659513Y-109944334D01*
X162521248Y-109971836D01*
X162391005Y-110025785D01*
X162273789Y-110104106D01*
X162174106Y-110203789D01*
X162095785Y-110321005D01*
X162041836Y-110451248D01*
X162014334Y-110589513D01*
X161715666Y-110589513D01*
X161715666Y-110529513D01*
X161688164Y-110391248D01*
X161634215Y-110261005D01*
X161555894Y-110143789D01*
X161456211Y-110044106D01*
X161338995Y-109965785D01*
X161208752Y-109911836D01*
X161070487Y-109884334D01*
X160929513Y-109884334D01*
X160791248Y-109911836D01*
X160661005Y-109965785D01*
X160543789Y-110044106D01*
X160529238Y-110058657D01*
X160485894Y-109993789D01*
X160386211Y-109894106D01*
X160268995Y-109815785D01*
X160138752Y-109761836D01*
X160000487Y-109734334D01*
X159859513Y-109734334D01*
X159721248Y-109761836D01*
X159591005Y-109815785D01*
X159473789Y-109894106D01*
X159374106Y-109993789D01*
X159295785Y-110111005D01*
X159241836Y-110241248D01*
X159214334Y-110379513D01*
X157146032Y-110379513D01*
X157256211Y-110305894D01*
X157355894Y-110206211D01*
X157434215Y-110088995D01*
X157488164Y-109958752D01*
X157515666Y-109820487D01*
X157515666Y-109679513D01*
X157488164Y-109541248D01*
X157434215Y-109411005D01*
X157355894Y-109293789D01*
X157256211Y-109194106D01*
X157138995Y-109115785D01*
X157008752Y-109061836D01*
X156870487Y-109034334D01*
X156729513Y-109034334D01*
X156591248Y-109061836D01*
X156461005Y-109115785D01*
X156343789Y-109194106D01*
X156244106Y-109293789D01*
X156165785Y-109411005D01*
X156111836Y-109541248D01*
X156084334Y-109679513D01*
X155735968Y-109679513D01*
X155755666Y-109580487D01*
X155755666Y-109439513D01*
X155728164Y-109301248D01*
X155674215Y-109171005D01*
X155595894Y-109053789D01*
X155496211Y-108954106D01*
X155378995Y-108875785D01*
X155248752Y-108821836D01*
X155110487Y-108794334D01*
X154969513Y-108794334D01*
X154831248Y-108821836D01*
X154701005Y-108875785D01*
X154583789Y-108954106D01*
X154484106Y-109053789D01*
X154405785Y-109171005D01*
X154351836Y-109301248D01*
X154324334Y-109439513D01*
X145472079Y-109439513D01*
X145468143Y-109419725D01*
X145414194Y-109289482D01*
X145335873Y-109172266D01*
X145236190Y-109072583D01*
X145118974Y-108994262D01*
X144988731Y-108940313D01*
X144850466Y-108912811D01*
X144709492Y-108912811D01*
X144571227Y-108940313D01*
X144440984Y-108994262D01*
X144323768Y-109072583D01*
X144224085Y-109172266D01*
X144145764Y-109289482D01*
X144091815Y-109419725D01*
X144064313Y-109557990D01*
X144064313Y-109698964D01*
X144091815Y-109837229D01*
X144127421Y-109923187D01*
X143852270Y-109648037D01*
X143829772Y-109593722D01*
X143751451Y-109476506D01*
X143651768Y-109376823D01*
X143534552Y-109298502D01*
X143404309Y-109244553D01*
X143266044Y-109217051D01*
X143125070Y-109217051D01*
X142986805Y-109244553D01*
X142856562Y-109298502D01*
X142739346Y-109376823D01*
X142639663Y-109476506D01*
X142561342Y-109593722D01*
X142507393Y-109723965D01*
X142479891Y-109862230D01*
X142479891Y-110003204D01*
X142507393Y-110141469D01*
X142561342Y-110271712D01*
X142639663Y-110388928D01*
X142739346Y-110488611D01*
X142856562Y-110566932D01*
X142910877Y-110589430D01*
X146519025Y-114197579D01*
X146539866Y-114222974D01*
X146565260Y-114243814D01*
X146641226Y-114306158D01*
X146723058Y-114349898D01*
X146756868Y-114367970D01*
X146882347Y-114406034D01*
X146980146Y-114415666D01*
X146980157Y-114415666D01*
X147012839Y-114418885D01*
X147045521Y-114415666D01*
X148518076Y-114415666D01*
X148537321Y-114428525D01*
X148611701Y-114459334D01*
X138485666Y-114459334D01*
X138485666Y-114439601D01*
X138458164Y-114301336D01*
X138404215Y-114171093D01*
X138325894Y-114053877D01*
X138226211Y-113954194D01*
X138108995Y-113875873D01*
X137978752Y-113821924D01*
X137840487Y-113794422D01*
X137699513Y-113794422D01*
X137561248Y-113821924D01*
X137431005Y-113875873D01*
X137417201Y-113885096D01*
X137406211Y-113874106D01*
X137288995Y-113795785D01*
X137158752Y-113741836D01*
X137020487Y-113714334D01*
X136879513Y-113714334D01*
X136741248Y-113741836D01*
X136611005Y-113795785D01*
X136493789Y-113874106D01*
X136394106Y-113973789D01*
X136315785Y-114091005D01*
X136261836Y-114221248D01*
X136234334Y-114359513D01*
X136234334Y-114459334D01*
X115902771Y-114459334D01*
X115955894Y-114406211D01*
X116034215Y-114288995D01*
X116088164Y-114158752D01*
X116115666Y-114020487D01*
X116115666Y-113879513D01*
X116088164Y-113741248D01*
X116034215Y-113611005D01*
X115955894Y-113493789D01*
X115856211Y-113394106D01*
X115738995Y-113315785D01*
X115608752Y-113261836D01*
X115470487Y-113234334D01*
X115329513Y-113234334D01*
X115191248Y-113261836D01*
X115061005Y-113315785D01*
X114943789Y-113394106D01*
X114844106Y-113493789D01*
X114765785Y-113611005D01*
X114711836Y-113741248D01*
X114684334Y-113879513D01*
X114684334Y-114020487D01*
X114711836Y-114158752D01*
X114765785Y-114288995D01*
X114844106Y-114406211D01*
X114897229Y-114459334D01*
X102026447Y-114459334D01*
X101717047Y-114428997D01*
X101444882Y-114346826D01*
X101193853Y-114213351D01*
X100973531Y-114033660D01*
X100792305Y-113814597D01*
X100657086Y-113564514D01*
X100573012Y-113292916D01*
X100551634Y-113089513D01*
X112154334Y-113089513D01*
X112154334Y-113230487D01*
X112181836Y-113368752D01*
X112235785Y-113498995D01*
X112314106Y-113616211D01*
X112413789Y-113715894D01*
X112531005Y-113794215D01*
X112661248Y-113848164D01*
X112799513Y-113875666D01*
X112940487Y-113875666D01*
X113078752Y-113848164D01*
X113208995Y-113794215D01*
X113326211Y-113715894D01*
X113425894Y-113616211D01*
X113504215Y-113498995D01*
X113558164Y-113368752D01*
X113585666Y-113230487D01*
X113585666Y-113089513D01*
X113558164Y-112951248D01*
X113504215Y-112821005D01*
X113425894Y-112703789D01*
X113326211Y-112604106D01*
X113208995Y-112525785D01*
X113078752Y-112471836D01*
X112940487Y-112444334D01*
X112799513Y-112444334D01*
X112661248Y-112471836D01*
X112531005Y-112525785D01*
X112413789Y-112604106D01*
X112314106Y-112703789D01*
X112235785Y-112821005D01*
X112181836Y-112951248D01*
X112154334Y-113089513D01*
X100551634Y-113089513D01*
X100540666Y-112985163D01*
X100540666Y-112419513D01*
X117834334Y-112419513D01*
X117834334Y-112560487D01*
X117861836Y-112698752D01*
X117915785Y-112828995D01*
X117994106Y-112946211D01*
X118093789Y-113045894D01*
X118211005Y-113124215D01*
X118341248Y-113178164D01*
X118479513Y-113205666D01*
X118620487Y-113205666D01*
X118758752Y-113178164D01*
X118887581Y-113124801D01*
X118887581Y-113880000D01*
X118896572Y-113971286D01*
X118923199Y-114059065D01*
X118966440Y-114139962D01*
X119024631Y-114210869D01*
X119095538Y-114269060D01*
X119176435Y-114312301D01*
X119264214Y-114338928D01*
X119355500Y-114347919D01*
X121055500Y-114347919D01*
X121146786Y-114338928D01*
X121234565Y-114312301D01*
X121315462Y-114269060D01*
X121386369Y-114210869D01*
X121444560Y-114139962D01*
X121487801Y-114059065D01*
X121514428Y-113971286D01*
X121523419Y-113880000D01*
X121523419Y-113517637D01*
X121579572Y-113653202D01*
X121723555Y-113868688D01*
X121906812Y-114051945D01*
X122122298Y-114195928D01*
X122361734Y-114295106D01*
X122615918Y-114345666D01*
X122875082Y-114345666D01*
X123129266Y-114295106D01*
X123368702Y-114195928D01*
X123584188Y-114051945D01*
X123767445Y-113868688D01*
X123911428Y-113653202D01*
X124010606Y-113413766D01*
X124015500Y-113389162D01*
X124020394Y-113413766D01*
X124119572Y-113653202D01*
X124263555Y-113868688D01*
X124446812Y-114051945D01*
X124662298Y-114195928D01*
X124901734Y-114295106D01*
X125155918Y-114345666D01*
X125415082Y-114345666D01*
X125669266Y-114295106D01*
X125908702Y-114195928D01*
X126124188Y-114051945D01*
X126307445Y-113868688D01*
X126451428Y-113653202D01*
X126550606Y-113413766D01*
X126555500Y-113389162D01*
X126560394Y-113413766D01*
X126659572Y-113653202D01*
X126803555Y-113868688D01*
X126986812Y-114051945D01*
X127202298Y-114195928D01*
X127441734Y-114295106D01*
X127695918Y-114345666D01*
X127955082Y-114345666D01*
X128209266Y-114295106D01*
X128448702Y-114195928D01*
X128664188Y-114051945D01*
X128847445Y-113868688D01*
X128991428Y-113653202D01*
X129090606Y-113413766D01*
X129095500Y-113389162D01*
X129100394Y-113413766D01*
X129199572Y-113653202D01*
X129343555Y-113868688D01*
X129526812Y-114051945D01*
X129742298Y-114195928D01*
X129981734Y-114295106D01*
X130235918Y-114345666D01*
X130495082Y-114345666D01*
X130749266Y-114295106D01*
X130988702Y-114195928D01*
X131204188Y-114051945D01*
X131387445Y-113868688D01*
X131531428Y-113653202D01*
X131630606Y-113413766D01*
X131635500Y-113389162D01*
X131640394Y-113413766D01*
X131739572Y-113653202D01*
X131883555Y-113868688D01*
X132066812Y-114051945D01*
X132282298Y-114195928D01*
X132521734Y-114295106D01*
X132775918Y-114345666D01*
X133035082Y-114345666D01*
X133289266Y-114295106D01*
X133528702Y-114195928D01*
X133744188Y-114051945D01*
X133927445Y-113868688D01*
X134071428Y-113653202D01*
X134170606Y-113413766D01*
X134175500Y-113389162D01*
X134180394Y-113413766D01*
X134279572Y-113653202D01*
X134423555Y-113868688D01*
X134606812Y-114051945D01*
X134822298Y-114195928D01*
X135061734Y-114295106D01*
X135315918Y-114345666D01*
X135575082Y-114345666D01*
X135829266Y-114295106D01*
X136068702Y-114195928D01*
X136284188Y-114051945D01*
X136467445Y-113868688D01*
X136611428Y-113653202D01*
X136710606Y-113413766D01*
X136761166Y-113159582D01*
X136761166Y-112900418D01*
X136710606Y-112646234D01*
X136611428Y-112406798D01*
X136467445Y-112191312D01*
X136455678Y-112179545D01*
X137016763Y-112179545D01*
X137016763Y-112320519D01*
X137044265Y-112458784D01*
X137098214Y-112589027D01*
X137176535Y-112706243D01*
X137276218Y-112805926D01*
X137393434Y-112884247D01*
X137523677Y-112938196D01*
X137661942Y-112965698D01*
X137802916Y-112965698D01*
X137941181Y-112938196D01*
X138071424Y-112884247D01*
X138188640Y-112805926D01*
X138288323Y-112706243D01*
X138355571Y-112605599D01*
X138405869Y-112605599D01*
X138544134Y-112578097D01*
X138551538Y-112575030D01*
X138566871Y-112597978D01*
X138666554Y-112697661D01*
X138783770Y-112775982D01*
X138914013Y-112829931D01*
X139052278Y-112857433D01*
X139193252Y-112857433D01*
X139298164Y-112836565D01*
X140174370Y-112836565D01*
X140174370Y-112977539D01*
X140201872Y-113115804D01*
X140255821Y-113246047D01*
X140334142Y-113363263D01*
X140433825Y-113462946D01*
X140551041Y-113541267D01*
X140681284Y-113595216D01*
X140819549Y-113622718D01*
X140960523Y-113622718D01*
X141098788Y-113595216D01*
X141210619Y-113548893D01*
X141211005Y-113549151D01*
X141341248Y-113603100D01*
X141479513Y-113630602D01*
X141620487Y-113630602D01*
X141758752Y-113603100D01*
X141888995Y-113549151D01*
X142006211Y-113470830D01*
X142105894Y-113371147D01*
X142184215Y-113253931D01*
X142238164Y-113123688D01*
X142265666Y-112985423D01*
X142265666Y-112844449D01*
X142238164Y-112706184D01*
X142184215Y-112575941D01*
X142105894Y-112458725D01*
X142006211Y-112359042D01*
X141888995Y-112280721D01*
X141758752Y-112226772D01*
X141620487Y-112199270D01*
X141479513Y-112199270D01*
X141341248Y-112226772D01*
X141229417Y-112273095D01*
X141229031Y-112272837D01*
X141098788Y-112218888D01*
X140960523Y-112191386D01*
X140819549Y-112191386D01*
X140681284Y-112218888D01*
X140551041Y-112272837D01*
X140433825Y-112351158D01*
X140334142Y-112450841D01*
X140255821Y-112568057D01*
X140201872Y-112698300D01*
X140174370Y-112836565D01*
X139298164Y-112836565D01*
X139331517Y-112829931D01*
X139461760Y-112775982D01*
X139578976Y-112697661D01*
X139678659Y-112597978D01*
X139756980Y-112480762D01*
X139810929Y-112350519D01*
X139838431Y-112212254D01*
X139838431Y-112071280D01*
X139810929Y-111933015D01*
X139756980Y-111802772D01*
X139678659Y-111685556D01*
X139578976Y-111585873D01*
X139461760Y-111507552D01*
X139331517Y-111453603D01*
X139193252Y-111426101D01*
X139052278Y-111426101D01*
X138914013Y-111453603D01*
X138906609Y-111456670D01*
X138891276Y-111433722D01*
X138791593Y-111334039D01*
X138674377Y-111255718D01*
X138544134Y-111201769D01*
X138405869Y-111174267D01*
X138264895Y-111174267D01*
X138126630Y-111201769D01*
X137996387Y-111255718D01*
X137879171Y-111334039D01*
X137779488Y-111433722D01*
X137712240Y-111534366D01*
X137661942Y-111534366D01*
X137523677Y-111561868D01*
X137393434Y-111615817D01*
X137276218Y-111694138D01*
X137176535Y-111793821D01*
X137098214Y-111911037D01*
X137044265Y-112041280D01*
X137016763Y-112179545D01*
X136455678Y-112179545D01*
X136284188Y-112008055D01*
X136068702Y-111864072D01*
X135829266Y-111764894D01*
X135575082Y-111714334D01*
X135315918Y-111714334D01*
X135061734Y-111764894D01*
X134822298Y-111864072D01*
X134606812Y-112008055D01*
X134423555Y-112191312D01*
X134279572Y-112406798D01*
X134180394Y-112646234D01*
X134175500Y-112670838D01*
X134170606Y-112646234D01*
X134071428Y-112406798D01*
X133927445Y-112191312D01*
X133744188Y-112008055D01*
X133528702Y-111864072D01*
X133289266Y-111764894D01*
X133035082Y-111714334D01*
X132775918Y-111714334D01*
X132521734Y-111764894D01*
X132282298Y-111864072D01*
X132066812Y-112008055D01*
X131883555Y-112191312D01*
X131739572Y-112406798D01*
X131640394Y-112646234D01*
X131635500Y-112670838D01*
X131630606Y-112646234D01*
X131531428Y-112406798D01*
X131387445Y-112191312D01*
X131204188Y-112008055D01*
X130988702Y-111864072D01*
X130749266Y-111764894D01*
X130495082Y-111714334D01*
X130235918Y-111714334D01*
X129981734Y-111764894D01*
X129742298Y-111864072D01*
X129526812Y-112008055D01*
X129343555Y-112191312D01*
X129199572Y-112406798D01*
X129100394Y-112646234D01*
X129095500Y-112670838D01*
X129090606Y-112646234D01*
X128991428Y-112406798D01*
X128847445Y-112191312D01*
X128664188Y-112008055D01*
X128448702Y-111864072D01*
X128209266Y-111764894D01*
X127955082Y-111714334D01*
X127695918Y-111714334D01*
X127441734Y-111764894D01*
X127202298Y-111864072D01*
X126986812Y-112008055D01*
X126803555Y-112191312D01*
X126659572Y-112406798D01*
X126560394Y-112646234D01*
X126555500Y-112670838D01*
X126550606Y-112646234D01*
X126451428Y-112406798D01*
X126307445Y-112191312D01*
X126124188Y-112008055D01*
X125908702Y-111864072D01*
X125669266Y-111764894D01*
X125415082Y-111714334D01*
X125155918Y-111714334D01*
X124901734Y-111764894D01*
X124662298Y-111864072D01*
X124446812Y-112008055D01*
X124263555Y-112191312D01*
X124119572Y-112406798D01*
X124020394Y-112646234D01*
X124015500Y-112670838D01*
X124010606Y-112646234D01*
X123911428Y-112406798D01*
X123767445Y-112191312D01*
X123584188Y-112008055D01*
X123368702Y-111864072D01*
X123129266Y-111764894D01*
X122875082Y-111714334D01*
X122615918Y-111714334D01*
X122361734Y-111764894D01*
X122122298Y-111864072D01*
X121906812Y-112008055D01*
X121723555Y-112191312D01*
X121579572Y-112406798D01*
X121523419Y-112542363D01*
X121523419Y-112180000D01*
X121514428Y-112088714D01*
X121487801Y-112000935D01*
X121444560Y-111920038D01*
X121386369Y-111849131D01*
X121315462Y-111790940D01*
X121234565Y-111747699D01*
X121146786Y-111721072D01*
X121055500Y-111712081D01*
X120841932Y-111712081D01*
X120868164Y-111648752D01*
X120895666Y-111510487D01*
X120895666Y-111369513D01*
X120868164Y-111231248D01*
X120814215Y-111101005D01*
X120735894Y-110983789D01*
X120636211Y-110884106D01*
X120518995Y-110805785D01*
X120388752Y-110751836D01*
X120250487Y-110724334D01*
X120109513Y-110724334D01*
X119971248Y-110751836D01*
X119841005Y-110805785D01*
X119723789Y-110884106D01*
X119624106Y-110983789D01*
X119545785Y-111101005D01*
X119491836Y-111231248D01*
X119464334Y-111369513D01*
X119464334Y-111510487D01*
X119491836Y-111648752D01*
X119518068Y-111712081D01*
X119355500Y-111712081D01*
X119264214Y-111721072D01*
X119176435Y-111747699D01*
X119095538Y-111790940D01*
X119024631Y-111849131D01*
X118973069Y-111911961D01*
X118888995Y-111855785D01*
X118758752Y-111801836D01*
X118620487Y-111774334D01*
X118479513Y-111774334D01*
X118341248Y-111801836D01*
X118211005Y-111855785D01*
X118093789Y-111934106D01*
X117994106Y-112033789D01*
X117915785Y-112151005D01*
X117861836Y-112281248D01*
X117834334Y-112419513D01*
X100540666Y-112419513D01*
X100540666Y-110469501D01*
X104594334Y-110469501D01*
X104594334Y-110610475D01*
X104621836Y-110748740D01*
X104675785Y-110878983D01*
X104754106Y-110996199D01*
X104853789Y-111095882D01*
X104971005Y-111174203D01*
X105101248Y-111228152D01*
X105239513Y-111255654D01*
X105380487Y-111255654D01*
X105518752Y-111228152D01*
X105648995Y-111174203D01*
X105766211Y-111095882D01*
X105865894Y-110996199D01*
X105944215Y-110878983D01*
X105998164Y-110748740D01*
X106025666Y-110610475D01*
X106025666Y-110469501D01*
X105998164Y-110331236D01*
X105944215Y-110200993D01*
X105865894Y-110083777D01*
X105766211Y-109984094D01*
X105648995Y-109905773D01*
X105518752Y-109851824D01*
X105380487Y-109824322D01*
X105239513Y-109824322D01*
X105101248Y-109851824D01*
X104971005Y-109905773D01*
X104853789Y-109984094D01*
X104754106Y-110083777D01*
X104675785Y-110200993D01*
X104621836Y-110331236D01*
X104594334Y-110469501D01*
X100540666Y-110469501D01*
X100540666Y-109619513D01*
X103284324Y-109619513D01*
X103284324Y-109760487D01*
X103311826Y-109898752D01*
X103365775Y-110028995D01*
X103444096Y-110146211D01*
X103543779Y-110245894D01*
X103660995Y-110324215D01*
X103791238Y-110378164D01*
X103929503Y-110405666D01*
X104070477Y-110405666D01*
X104208742Y-110378164D01*
X104338985Y-110324215D01*
X104456201Y-110245894D01*
X104555884Y-110146211D01*
X104634205Y-110028995D01*
X104688154Y-109898752D01*
X104715656Y-109760487D01*
X104715656Y-109619513D01*
X104688154Y-109481248D01*
X104634205Y-109351005D01*
X104555884Y-109233789D01*
X104456201Y-109134106D01*
X104449328Y-109129513D01*
X106584334Y-109129513D01*
X106584334Y-109270487D01*
X106611836Y-109408752D01*
X106665785Y-109538995D01*
X106744106Y-109656211D01*
X106843789Y-109755894D01*
X106961005Y-109834215D01*
X107091248Y-109888164D01*
X107229513Y-109915666D01*
X107370487Y-109915666D01*
X107508752Y-109888164D01*
X107638995Y-109834215D01*
X107756211Y-109755894D01*
X107855894Y-109656211D01*
X107934215Y-109538995D01*
X107988164Y-109408752D01*
X108015666Y-109270487D01*
X108015666Y-109129513D01*
X107988164Y-108991248D01*
X107934215Y-108861005D01*
X107855894Y-108743789D01*
X107841618Y-108729513D01*
X108084334Y-108729513D01*
X108084334Y-108870487D01*
X108111836Y-109008752D01*
X108165785Y-109138995D01*
X108244106Y-109256211D01*
X108343789Y-109355894D01*
X108461005Y-109434215D01*
X108591248Y-109488164D01*
X108729513Y-109515666D01*
X108870487Y-109515666D01*
X109008752Y-109488164D01*
X109138995Y-109434215D01*
X109235828Y-109369513D01*
X120254333Y-109369513D01*
X120254333Y-109510487D01*
X120281835Y-109648752D01*
X120335784Y-109778995D01*
X120414105Y-109896211D01*
X120513788Y-109995894D01*
X120631004Y-110074215D01*
X120761247Y-110128164D01*
X120899512Y-110155666D01*
X121040486Y-110155666D01*
X121178751Y-110128164D01*
X121308994Y-110074215D01*
X121426210Y-109995894D01*
X121436544Y-109985560D01*
X121449919Y-110005576D01*
X121584424Y-110140081D01*
X121742586Y-110245762D01*
X121918326Y-110318556D01*
X122104890Y-110355666D01*
X122295110Y-110355666D01*
X122481674Y-110318556D01*
X122657414Y-110245762D01*
X122815576Y-110140081D01*
X122835000Y-110120657D01*
X122854424Y-110140081D01*
X123012586Y-110245762D01*
X123188326Y-110318556D01*
X123374890Y-110355666D01*
X123565110Y-110355666D01*
X123751674Y-110318556D01*
X123927414Y-110245762D01*
X124085576Y-110140081D01*
X124105000Y-110120657D01*
X124124424Y-110140081D01*
X124282586Y-110245762D01*
X124458326Y-110318556D01*
X124644890Y-110355666D01*
X124835110Y-110355666D01*
X125021674Y-110318556D01*
X125197414Y-110245762D01*
X125355576Y-110140081D01*
X125375000Y-110120657D01*
X125394424Y-110140081D01*
X125552586Y-110245762D01*
X125728326Y-110318556D01*
X125914890Y-110355666D01*
X126105110Y-110355666D01*
X126291674Y-110318556D01*
X126467414Y-110245762D01*
X126625576Y-110140081D01*
X126645000Y-110120657D01*
X126664424Y-110140081D01*
X126822586Y-110245762D01*
X126998326Y-110318556D01*
X127184890Y-110355666D01*
X127375110Y-110355666D01*
X127561674Y-110318556D01*
X127737414Y-110245762D01*
X127895576Y-110140081D01*
X127915000Y-110120657D01*
X127934424Y-110140081D01*
X128092586Y-110245762D01*
X128268326Y-110318556D01*
X128454890Y-110355666D01*
X128645110Y-110355666D01*
X128831674Y-110318556D01*
X129007414Y-110245762D01*
X129165576Y-110140081D01*
X129185000Y-110120657D01*
X129204424Y-110140081D01*
X129362586Y-110245762D01*
X129538326Y-110318556D01*
X129724890Y-110355666D01*
X129915110Y-110355666D01*
X130101674Y-110318556D01*
X130277414Y-110245762D01*
X130435576Y-110140081D01*
X130455000Y-110120657D01*
X130474424Y-110140081D01*
X130632586Y-110245762D01*
X130808326Y-110318556D01*
X130994890Y-110355666D01*
X131185110Y-110355666D01*
X131371674Y-110318556D01*
X131547414Y-110245762D01*
X131554056Y-110241324D01*
X131600038Y-110279060D01*
X131680935Y-110322301D01*
X131768714Y-110348928D01*
X131860000Y-110357919D01*
X132860000Y-110357919D01*
X132951286Y-110348928D01*
X133039065Y-110322301D01*
X133119962Y-110279060D01*
X133190869Y-110220869D01*
X133249060Y-110149962D01*
X133292301Y-110069065D01*
X133318928Y-109981286D01*
X133327919Y-109890000D01*
X133327919Y-109089524D01*
X133342956Y-109083295D01*
X133460172Y-109004974D01*
X133559855Y-108905291D01*
X133638176Y-108788075D01*
X133688399Y-108666828D01*
X133809648Y-108616604D01*
X133926864Y-108538283D01*
X133991642Y-108473505D01*
X134020036Y-108479153D01*
X134041836Y-108588752D01*
X134095785Y-108718995D01*
X134174106Y-108836211D01*
X134182337Y-108844442D01*
X134160727Y-108953084D01*
X134160727Y-109094058D01*
X134188229Y-109232323D01*
X134242178Y-109362566D01*
X134320499Y-109479782D01*
X134420182Y-109579465D01*
X134537398Y-109657786D01*
X134667641Y-109711735D01*
X134805906Y-109739237D01*
X134946880Y-109739237D01*
X135085145Y-109711735D01*
X135215388Y-109657786D01*
X135332604Y-109579465D01*
X135432287Y-109479782D01*
X135464335Y-109431819D01*
X135464334Y-110013561D01*
X135454106Y-110023789D01*
X135375785Y-110141005D01*
X135321836Y-110271248D01*
X135294334Y-110409513D01*
X135294334Y-110550487D01*
X135321836Y-110688752D01*
X135375785Y-110818995D01*
X135454106Y-110936211D01*
X135553789Y-111035894D01*
X135671005Y-111114215D01*
X135801248Y-111168164D01*
X135939513Y-111195666D01*
X136080487Y-111195666D01*
X136218752Y-111168164D01*
X136348995Y-111114215D01*
X136466211Y-111035894D01*
X136473743Y-111028362D01*
X136492398Y-111063264D01*
X136600575Y-111195080D01*
X136732390Y-111303257D01*
X136882776Y-111383640D01*
X137045955Y-111433140D01*
X137215655Y-111449854D01*
X137385354Y-111433140D01*
X137548533Y-111383640D01*
X137698919Y-111303257D01*
X137830735Y-111195080D01*
X137938912Y-111063265D01*
X138019295Y-110912879D01*
X138068795Y-110749700D01*
X138081321Y-110622521D01*
X138081321Y-107899513D01*
X156104334Y-107899513D01*
X156104334Y-108040487D01*
X156131836Y-108178752D01*
X156185785Y-108308995D01*
X156264106Y-108426211D01*
X156363789Y-108525894D01*
X156481005Y-108604215D01*
X156611248Y-108658164D01*
X156749513Y-108685666D01*
X156890487Y-108685666D01*
X157028752Y-108658164D01*
X157158995Y-108604215D01*
X157276211Y-108525894D01*
X157375894Y-108426211D01*
X157454215Y-108308995D01*
X157508164Y-108178752D01*
X157535666Y-108040487D01*
X157535666Y-107899513D01*
X157508164Y-107761248D01*
X157454215Y-107631005D01*
X157375894Y-107513789D01*
X157276211Y-107414106D01*
X157158995Y-107335785D01*
X157028752Y-107281836D01*
X156890487Y-107254334D01*
X156749513Y-107254334D01*
X156611248Y-107281836D01*
X156481005Y-107335785D01*
X156363789Y-107414106D01*
X156264106Y-107513789D01*
X156185785Y-107631005D01*
X156131836Y-107761248D01*
X156104334Y-107899513D01*
X138081321Y-107899513D01*
X138081321Y-107539332D01*
X138085509Y-107496813D01*
X138076492Y-107405268D01*
X138068795Y-107327114D01*
X138019295Y-107163935D01*
X137938912Y-107013549D01*
X137830735Y-106881734D01*
X137797706Y-106854628D01*
X135410891Y-104467814D01*
X135312105Y-104386742D01*
X135161718Y-104306359D01*
X135056712Y-104274506D01*
X135038164Y-104181258D01*
X134984215Y-104051015D01*
X134905894Y-103933799D01*
X134806211Y-103834116D01*
X134688995Y-103755795D01*
X134558752Y-103701846D01*
X134420487Y-103674344D01*
X134279513Y-103674344D01*
X134141248Y-103701846D01*
X134011005Y-103755795D01*
X133925966Y-103812616D01*
X133923257Y-103807547D01*
X133815080Y-103675732D01*
X133783132Y-103649513D01*
X135224334Y-103649513D01*
X135224334Y-103790487D01*
X135251836Y-103928752D01*
X135305785Y-104058995D01*
X135384106Y-104176211D01*
X135483789Y-104275894D01*
X135601005Y-104354215D01*
X135731248Y-104408164D01*
X135869513Y-104435666D01*
X136010487Y-104435666D01*
X136148752Y-104408164D01*
X136278995Y-104354215D01*
X136396211Y-104275894D01*
X136495894Y-104176211D01*
X136574215Y-104058995D01*
X136628164Y-103928752D01*
X136643711Y-103850588D01*
X136719513Y-103865666D01*
X136860487Y-103865666D01*
X136998752Y-103838164D01*
X137128995Y-103784215D01*
X137246211Y-103705894D01*
X137345894Y-103606211D01*
X137424215Y-103488995D01*
X137478164Y-103358752D01*
X137505666Y-103220487D01*
X137505666Y-103079513D01*
X137478164Y-102941248D01*
X137424215Y-102811005D01*
X137423543Y-102810000D01*
X137424215Y-102808995D01*
X137478164Y-102678752D01*
X137505666Y-102540487D01*
X137505666Y-102399513D01*
X137478164Y-102261248D01*
X137424215Y-102131005D01*
X137398417Y-102092395D01*
X137461005Y-102134215D01*
X137591248Y-102188164D01*
X137729513Y-102215666D01*
X137870487Y-102215666D01*
X137939778Y-102201883D01*
X137993789Y-102255894D01*
X138111005Y-102334215D01*
X138165320Y-102356713D01*
X140366185Y-104557579D01*
X140387026Y-104582974D01*
X140412421Y-104603815D01*
X140488386Y-104666158D01*
X140604028Y-104727970D01*
X140729507Y-104766034D01*
X140827306Y-104775666D01*
X140827308Y-104775666D01*
X140860000Y-104778886D01*
X140892692Y-104775666D01*
X142688076Y-104775666D01*
X142707321Y-104788525D01*
X142846663Y-104846242D01*
X142994588Y-104875666D01*
X143145412Y-104875666D01*
X143293337Y-104846242D01*
X143432679Y-104788525D01*
X143558084Y-104704732D01*
X143664732Y-104598084D01*
X143748525Y-104472679D01*
X143806242Y-104333337D01*
X143835666Y-104185412D01*
X143835666Y-104034588D01*
X143806242Y-103886663D01*
X143748525Y-103747321D01*
X143735666Y-103728076D01*
X143735666Y-103517771D01*
X143743789Y-103525894D01*
X143861005Y-103604215D01*
X143991248Y-103658164D01*
X144129513Y-103685666D01*
X144270487Y-103685666D01*
X144385005Y-103662887D01*
X144331836Y-103791248D01*
X144304334Y-103929513D01*
X144304334Y-104070487D01*
X144331836Y-104208752D01*
X144385785Y-104338995D01*
X144464106Y-104456211D01*
X144511435Y-104503540D01*
X144494334Y-104589513D01*
X144494334Y-104730487D01*
X144517288Y-104845886D01*
X144514349Y-104848825D01*
X144436028Y-104966041D01*
X144382079Y-105096284D01*
X144354577Y-105234549D01*
X144354577Y-105375523D01*
X144382079Y-105513788D01*
X144436028Y-105644031D01*
X144514349Y-105761247D01*
X144614032Y-105860930D01*
X144704992Y-105921707D01*
X144671005Y-105935785D01*
X144553789Y-106014106D01*
X144454106Y-106113789D01*
X144375785Y-106231005D01*
X144321836Y-106361248D01*
X144294334Y-106499513D01*
X144294334Y-106640487D01*
X144321836Y-106778752D01*
X144375785Y-106908995D01*
X144454106Y-107026211D01*
X144553789Y-107125894D01*
X144671005Y-107204215D01*
X144801248Y-107258164D01*
X144939513Y-107285666D01*
X145080487Y-107285666D01*
X145218752Y-107258164D01*
X145348995Y-107204215D01*
X145466211Y-107125894D01*
X145492105Y-107100000D01*
X158973000Y-107100000D01*
X158973000Y-108300000D01*
X158975440Y-108324776D01*
X158982667Y-108348601D01*
X158994403Y-108370557D01*
X159010197Y-108389803D01*
X159029443Y-108405597D01*
X159051399Y-108417333D01*
X159075224Y-108424560D01*
X159100000Y-108427000D01*
X160300000Y-108427000D01*
X160324776Y-108424560D01*
X160348601Y-108417333D01*
X160370557Y-108405597D01*
X160389803Y-108389803D01*
X160405597Y-108370557D01*
X160417333Y-108348601D01*
X160424560Y-108324776D01*
X160427000Y-108300000D01*
X160427000Y-107100000D01*
X160424560Y-107075224D01*
X160417333Y-107051399D01*
X160405597Y-107029443D01*
X160389803Y-107010197D01*
X160370557Y-106994403D01*
X160348601Y-106982667D01*
X160324776Y-106975440D01*
X160300000Y-106973000D01*
X159100000Y-106973000D01*
X159075224Y-106975440D01*
X159051399Y-106982667D01*
X159029443Y-106994403D01*
X159010197Y-107010197D01*
X158994403Y-107029443D01*
X158982667Y-107051399D01*
X158975440Y-107075224D01*
X158973000Y-107100000D01*
X145492105Y-107100000D01*
X145565894Y-107026211D01*
X145644215Y-106908995D01*
X145698164Y-106778752D01*
X145725666Y-106640487D01*
X145725666Y-106499513D01*
X145698164Y-106361248D01*
X145644215Y-106231005D01*
X145565894Y-106113789D01*
X145466211Y-106014106D01*
X145375251Y-105953329D01*
X145409238Y-105939251D01*
X145526454Y-105860930D01*
X145626137Y-105761247D01*
X145704458Y-105644031D01*
X145758407Y-105513788D01*
X145785909Y-105375523D01*
X145785909Y-105234549D01*
X145762955Y-105119150D01*
X145765894Y-105116211D01*
X145844215Y-104998995D01*
X145898164Y-104868752D01*
X145925666Y-104730487D01*
X145925666Y-104589513D01*
X145898164Y-104451248D01*
X145844215Y-104321005D01*
X145765894Y-104203789D01*
X145718565Y-104156460D01*
X145735666Y-104070487D01*
X145735666Y-103929513D01*
X145709905Y-103800000D01*
X159173000Y-103800000D01*
X159173000Y-104900000D01*
X159175440Y-104924776D01*
X159182667Y-104948601D01*
X159194403Y-104970557D01*
X159210197Y-104989803D01*
X159229443Y-105005597D01*
X159251399Y-105017333D01*
X159275224Y-105024560D01*
X159300000Y-105027000D01*
X160000000Y-105027000D01*
X160024776Y-105024560D01*
X160048601Y-105017333D01*
X160070557Y-105005597D01*
X160089803Y-104989803D01*
X160105597Y-104970557D01*
X160117333Y-104948601D01*
X160124560Y-104924776D01*
X160127000Y-104900000D01*
X160127000Y-104061551D01*
X160191248Y-104088164D01*
X160329513Y-104115666D01*
X160470487Y-104115666D01*
X160608752Y-104088164D01*
X160738995Y-104034215D01*
X160773000Y-104011494D01*
X160773000Y-104700000D01*
X160775440Y-104724776D01*
X160782667Y-104748601D01*
X160794403Y-104770557D01*
X160810197Y-104789803D01*
X160829443Y-104805597D01*
X160851399Y-104817333D01*
X160875224Y-104824560D01*
X160900000Y-104827000D01*
X162000000Y-104827000D01*
X162024776Y-104824560D01*
X162048601Y-104817333D01*
X162070557Y-104805597D01*
X162089803Y-104789803D01*
X162105597Y-104770557D01*
X162117333Y-104748601D01*
X162124560Y-104724776D01*
X162127000Y-104700000D01*
X162127000Y-102400000D01*
X162473000Y-102400000D01*
X162473000Y-103100000D01*
X162475440Y-103124776D01*
X162482667Y-103148601D01*
X162494403Y-103170557D01*
X162510197Y-103189803D01*
X162529443Y-103205597D01*
X162551399Y-103217333D01*
X162575224Y-103224560D01*
X162600000Y-103227000D01*
X164300000Y-103227000D01*
X164324776Y-103224560D01*
X164348601Y-103217333D01*
X164370557Y-103205597D01*
X164389803Y-103189803D01*
X164405597Y-103170557D01*
X164417333Y-103148601D01*
X164424560Y-103124776D01*
X164427000Y-103100000D01*
X164427000Y-102400000D01*
X164424560Y-102375224D01*
X164417333Y-102351399D01*
X164405597Y-102329443D01*
X164389803Y-102310197D01*
X164370557Y-102294403D01*
X164348601Y-102282667D01*
X164324776Y-102275440D01*
X164300000Y-102273000D01*
X162600000Y-102273000D01*
X162575224Y-102275440D01*
X162551399Y-102282667D01*
X162529443Y-102294403D01*
X162510197Y-102310197D01*
X162494403Y-102329443D01*
X162482667Y-102351399D01*
X162475440Y-102375224D01*
X162473000Y-102400000D01*
X162127000Y-102400000D01*
X162127000Y-102200000D01*
X164973000Y-102200000D01*
X164973000Y-103300000D01*
X164975440Y-103324776D01*
X164982667Y-103348601D01*
X164994403Y-103370557D01*
X165010197Y-103389803D01*
X165029443Y-103405597D01*
X165051399Y-103417333D01*
X165075224Y-103424560D01*
X165100000Y-103427000D01*
X166300000Y-103427000D01*
X166324776Y-103424560D01*
X166348601Y-103417333D01*
X166370557Y-103405597D01*
X166389803Y-103389803D01*
X166405597Y-103370557D01*
X166417333Y-103348601D01*
X166424560Y-103324776D01*
X166427000Y-103300000D01*
X166427000Y-102200000D01*
X166424560Y-102175224D01*
X166417333Y-102151399D01*
X166405597Y-102129443D01*
X166389803Y-102110197D01*
X166370557Y-102094403D01*
X166348601Y-102082667D01*
X166324776Y-102075440D01*
X166300000Y-102073000D01*
X165100000Y-102073000D01*
X165075224Y-102075440D01*
X165051399Y-102082667D01*
X165029443Y-102094403D01*
X165010197Y-102110197D01*
X164994403Y-102129443D01*
X164982667Y-102151399D01*
X164975440Y-102175224D01*
X164973000Y-102200000D01*
X162127000Y-102200000D01*
X162124560Y-102175224D01*
X162117333Y-102151399D01*
X162105597Y-102129443D01*
X162089803Y-102110197D01*
X162070557Y-102094403D01*
X162048601Y-102082667D01*
X162024776Y-102075440D01*
X162000000Y-102073000D01*
X160900000Y-102073000D01*
X160875224Y-102075440D01*
X160851399Y-102082667D01*
X160829443Y-102094403D01*
X160810197Y-102110197D01*
X160794403Y-102129443D01*
X160782667Y-102151399D01*
X160775440Y-102175224D01*
X160773000Y-102200000D01*
X160773000Y-102788506D01*
X160738995Y-102765785D01*
X160608752Y-102711836D01*
X160470487Y-102684334D01*
X160329513Y-102684334D01*
X160191248Y-102711836D01*
X160061005Y-102765785D01*
X159943789Y-102844106D01*
X159844106Y-102943789D01*
X159765785Y-103061005D01*
X159711836Y-103191248D01*
X159684334Y-103329513D01*
X159684334Y-103470487D01*
X159711836Y-103608752D01*
X159738449Y-103673000D01*
X159300000Y-103673000D01*
X159275224Y-103675440D01*
X159251399Y-103682667D01*
X159229443Y-103694403D01*
X159210197Y-103710197D01*
X159194403Y-103729443D01*
X159182667Y-103751399D01*
X159175440Y-103775224D01*
X159173000Y-103800000D01*
X145709905Y-103800000D01*
X145708164Y-103791248D01*
X145654215Y-103661005D01*
X145575894Y-103543789D01*
X145476211Y-103444106D01*
X145358995Y-103365785D01*
X145228752Y-103311836D01*
X145090487Y-103284334D01*
X144949513Y-103284334D01*
X144834995Y-103307113D01*
X144888164Y-103178752D01*
X144915666Y-103040487D01*
X144915666Y-102995666D01*
X146884334Y-102995666D01*
X146884334Y-103070487D01*
X146911836Y-103208752D01*
X146965785Y-103338995D01*
X147044106Y-103456211D01*
X147143789Y-103555894D01*
X147261005Y-103634215D01*
X147391248Y-103688164D01*
X147529513Y-103715666D01*
X147670487Y-103715666D01*
X147808752Y-103688164D01*
X147938995Y-103634215D01*
X148056211Y-103555894D01*
X148155894Y-103456211D01*
X148234215Y-103338995D01*
X148288164Y-103208752D01*
X148315666Y-103070487D01*
X148315666Y-102995666D01*
X158353597Y-102995666D01*
X158375258Y-103028084D01*
X158481906Y-103134732D01*
X158607311Y-103218525D01*
X158746653Y-103276242D01*
X158894578Y-103305666D01*
X159045402Y-103305666D01*
X159193327Y-103276242D01*
X159332669Y-103218525D01*
X159458074Y-103134732D01*
X159564722Y-103028084D01*
X159648515Y-102902679D01*
X159706232Y-102763337D01*
X159735656Y-102615412D01*
X159735656Y-102464588D01*
X159706232Y-102316663D01*
X159648515Y-102177321D01*
X159564722Y-102051916D01*
X159458074Y-101945268D01*
X159332669Y-101861475D01*
X159193327Y-101803758D01*
X159159972Y-101797123D01*
X159131603Y-101773842D01*
X159015962Y-101712030D01*
X158890483Y-101673966D01*
X158792684Y-101664334D01*
X158792682Y-101664334D01*
X158759990Y-101661114D01*
X158727298Y-101664334D01*
X146760841Y-101664334D01*
X146766681Y-101650235D01*
X146794183Y-101511970D01*
X146794183Y-101370996D01*
X146766681Y-101232731D01*
X146712732Y-101102488D01*
X146634411Y-100985272D01*
X146534728Y-100885589D01*
X146417512Y-100807268D01*
X146287269Y-100753319D01*
X146149004Y-100725817D01*
X146008030Y-100725817D01*
X145869765Y-100753319D01*
X145739522Y-100807268D01*
X145622306Y-100885589D01*
X145522623Y-100985272D01*
X145444302Y-101102488D01*
X145390353Y-101232731D01*
X145362851Y-101370996D01*
X145362851Y-101511970D01*
X145390353Y-101650235D01*
X145396193Y-101664334D01*
X143822692Y-101664334D01*
X143790000Y-101661114D01*
X143757308Y-101664334D01*
X143757306Y-101664334D01*
X143659507Y-101673966D01*
X143544834Y-101708752D01*
X143534028Y-101712030D01*
X143418386Y-101773842D01*
X143349357Y-101830493D01*
X143317026Y-101857026D01*
X143296185Y-101882421D01*
X142622421Y-102556186D01*
X142597027Y-102577026D01*
X142576186Y-102602421D01*
X142576185Y-102602422D01*
X142513842Y-102678387D01*
X142452030Y-102794029D01*
X142413967Y-102919507D01*
X142401114Y-103050000D01*
X142404335Y-103082701D01*
X142404335Y-103444334D01*
X141135728Y-103444334D01*
X139852105Y-102160712D01*
X139920487Y-102160712D01*
X140058752Y-102133210D01*
X140188995Y-102079261D01*
X140306211Y-102000940D01*
X140405894Y-101901257D01*
X140484215Y-101784041D01*
X140538164Y-101653798D01*
X140565666Y-101515533D01*
X140565666Y-101374559D01*
X140538164Y-101236294D01*
X140484215Y-101106051D01*
X140405894Y-100988835D01*
X140306211Y-100889152D01*
X140188995Y-100810831D01*
X140058752Y-100756882D01*
X139920487Y-100729380D01*
X139779513Y-100729380D01*
X139641248Y-100756882D01*
X139511005Y-100810831D01*
X139393789Y-100889152D01*
X139294106Y-100988835D01*
X139215785Y-101106051D01*
X139161836Y-101236294D01*
X139134334Y-101374559D01*
X139134334Y-101442941D01*
X139106713Y-101415320D01*
X139084215Y-101361005D01*
X139005894Y-101243789D01*
X138906211Y-101144106D01*
X138788995Y-101065785D01*
X138658752Y-101011836D01*
X138520487Y-100984334D01*
X138379513Y-100984334D01*
X138310222Y-100998117D01*
X138256211Y-100944106D01*
X138138995Y-100865785D01*
X138008752Y-100811836D01*
X137870487Y-100784334D01*
X137729513Y-100784334D01*
X137591248Y-100811836D01*
X137461005Y-100865785D01*
X137343789Y-100944106D01*
X137244106Y-101043789D01*
X137165785Y-101161005D01*
X137111836Y-101291248D01*
X137084334Y-101429513D01*
X137084334Y-101570487D01*
X137111836Y-101708752D01*
X137165785Y-101838995D01*
X137191583Y-101877605D01*
X137128995Y-101835785D01*
X136998752Y-101781836D01*
X136860487Y-101754334D01*
X136719513Y-101754334D01*
X136581248Y-101781836D01*
X136451005Y-101835785D01*
X136333789Y-101914106D01*
X136234106Y-102013789D01*
X136155785Y-102131005D01*
X136108842Y-102244334D01*
X136079513Y-102244334D01*
X135941248Y-102271836D01*
X135811005Y-102325785D01*
X135693789Y-102404106D01*
X135594106Y-102503789D01*
X135515785Y-102621005D01*
X135461836Y-102751248D01*
X135434334Y-102889513D01*
X135434334Y-103030487D01*
X135461836Y-103168752D01*
X135466905Y-103180990D01*
X135384106Y-103263789D01*
X135305785Y-103381005D01*
X135251836Y-103511248D01*
X135224334Y-103649513D01*
X133783132Y-103649513D01*
X133683265Y-103567555D01*
X133532879Y-103487172D01*
X133369700Y-103437672D01*
X133242521Y-103425146D01*
X133049255Y-103425146D01*
X133220269Y-103297588D01*
X133415178Y-103081355D01*
X133564157Y-102831252D01*
X133661481Y-102556891D01*
X133540814Y-102327000D01*
X132347000Y-102327000D01*
X132347000Y-102347000D01*
X132093000Y-102347000D01*
X132093000Y-102327000D01*
X129807000Y-102327000D01*
X129807000Y-102347000D01*
X129553000Y-102347000D01*
X129553000Y-102327000D01*
X129533000Y-102327000D01*
X129533000Y-102073000D01*
X129553000Y-102073000D01*
X129553000Y-100879845D01*
X129807000Y-100879845D01*
X129807000Y-102073000D01*
X132093000Y-102073000D01*
X132093000Y-100879845D01*
X132347000Y-100879845D01*
X132347000Y-102073000D01*
X133540814Y-102073000D01*
X133661481Y-101843109D01*
X133564157Y-101568748D01*
X133415178Y-101318645D01*
X133220269Y-101102412D01*
X132986920Y-100928359D01*
X132724099Y-100803175D01*
X132576890Y-100758524D01*
X132347000Y-100879845D01*
X132093000Y-100879845D01*
X131863110Y-100758524D01*
X131715901Y-100803175D01*
X131453080Y-100928359D01*
X131219731Y-101102412D01*
X131024822Y-101318645D01*
X130950000Y-101444255D01*
X130875178Y-101318645D01*
X130680269Y-101102412D01*
X130446920Y-100928359D01*
X130184099Y-100803175D01*
X130036890Y-100758524D01*
X129807000Y-100879845D01*
X129553000Y-100879845D01*
X129323110Y-100758524D01*
X129175901Y-100803175D01*
X128913080Y-100928359D01*
X128679731Y-101102412D01*
X128484822Y-101318645D01*
X128335843Y-101568748D01*
X128320504Y-101611988D01*
X128305928Y-101576798D01*
X128161945Y-101361312D01*
X127978688Y-101178055D01*
X127763202Y-101034072D01*
X127523766Y-100934894D01*
X127269582Y-100884334D01*
X127010418Y-100884334D01*
X126756234Y-100934894D01*
X126516798Y-101034072D01*
X126301312Y-101178055D01*
X126118055Y-101361312D01*
X125974072Y-101576798D01*
X125917919Y-101712363D01*
X125917919Y-101350000D01*
X125908928Y-101258714D01*
X125882301Y-101170935D01*
X125839060Y-101090038D01*
X125780869Y-101019131D01*
X125709962Y-100960940D01*
X125629065Y-100917699D01*
X125541286Y-100891072D01*
X125450000Y-100882081D01*
X123750000Y-100882081D01*
X123658714Y-100891072D01*
X123570935Y-100917699D01*
X123490038Y-100960940D01*
X123419131Y-101019131D01*
X123360940Y-101090038D01*
X123317699Y-101170935D01*
X123291072Y-101258714D01*
X123282081Y-101350000D01*
X123282081Y-103050000D01*
X123291072Y-103141286D01*
X123317699Y-103229065D01*
X123360940Y-103309962D01*
X123419131Y-103380869D01*
X123490038Y-103439060D01*
X123570935Y-103482301D01*
X123658714Y-103508928D01*
X123750000Y-103517919D01*
X124693683Y-103517919D01*
X126015736Y-104839973D01*
X125944822Y-104918645D01*
X125917919Y-104963809D01*
X125917919Y-104950000D01*
X125908928Y-104858714D01*
X125882301Y-104770935D01*
X125839060Y-104690038D01*
X125780869Y-104619131D01*
X125709962Y-104560940D01*
X125629065Y-104517699D01*
X125541286Y-104491072D01*
X125450000Y-104482081D01*
X123750000Y-104482081D01*
X123658714Y-104491072D01*
X123570935Y-104517699D01*
X123490038Y-104560940D01*
X123419131Y-104619131D01*
X123360940Y-104690038D01*
X123317699Y-104770935D01*
X123291072Y-104858714D01*
X123282081Y-104950000D01*
X123282081Y-106650000D01*
X123291072Y-106741286D01*
X123317699Y-106829065D01*
X123360940Y-106909962D01*
X123419131Y-106980869D01*
X123490038Y-107039060D01*
X123570935Y-107082301D01*
X123658714Y-107108928D01*
X123750000Y-107117919D01*
X125450000Y-107117919D01*
X125541286Y-107108928D01*
X125629065Y-107082301D01*
X125709962Y-107039060D01*
X125780869Y-106980869D01*
X125839060Y-106909962D01*
X125882301Y-106829065D01*
X125908928Y-106741286D01*
X125917919Y-106650000D01*
X125917919Y-106636191D01*
X125944822Y-106681355D01*
X126139731Y-106897588D01*
X126373080Y-107071641D01*
X126635901Y-107196825D01*
X126783110Y-107241476D01*
X127013000Y-107120155D01*
X127013000Y-105927000D01*
X126993000Y-105927000D01*
X126993000Y-105673000D01*
X127013000Y-105673000D01*
X127013000Y-105653000D01*
X127267000Y-105653000D01*
X127267000Y-105673000D01*
X127287000Y-105673000D01*
X127287000Y-105927000D01*
X127267000Y-105927000D01*
X127267000Y-107120155D01*
X127496890Y-107241476D01*
X127644099Y-107196825D01*
X127906920Y-107071641D01*
X128140269Y-106897588D01*
X128335178Y-106681355D01*
X128484157Y-106431252D01*
X128499496Y-106388012D01*
X128514072Y-106423202D01*
X128658055Y-106638688D01*
X128841312Y-106821945D01*
X129056798Y-106965928D01*
X129296234Y-107065106D01*
X129550418Y-107115666D01*
X129809582Y-107115666D01*
X130063766Y-107065106D01*
X130303202Y-106965928D01*
X130518688Y-106821945D01*
X130701945Y-106638688D01*
X130845928Y-106423202D01*
X130945106Y-106183766D01*
X130950000Y-106159162D01*
X130954894Y-106183766D01*
X131054072Y-106423202D01*
X131198055Y-106638688D01*
X131295715Y-106736348D01*
X131225785Y-106841005D01*
X131171836Y-106971248D01*
X131144334Y-107109513D01*
X131144334Y-107250487D01*
X131171836Y-107388752D01*
X131225785Y-107518995D01*
X131304106Y-107636211D01*
X131403789Y-107735894D01*
X131521005Y-107814215D01*
X131651248Y-107868164D01*
X131789513Y-107895666D01*
X131930487Y-107895666D01*
X132068752Y-107868164D01*
X132198995Y-107814215D01*
X132316211Y-107735894D01*
X132326439Y-107725666D01*
X132802359Y-107725666D01*
X132786215Y-107764641D01*
X132664966Y-107814865D01*
X132547750Y-107893186D01*
X132448067Y-107992869D01*
X132369746Y-108110085D01*
X132315797Y-108240328D01*
X132288295Y-108378593D01*
X132288295Y-108422081D01*
X131860000Y-108422081D01*
X131768714Y-108431072D01*
X131680935Y-108457699D01*
X131600038Y-108500940D01*
X131554056Y-108538676D01*
X131547414Y-108534238D01*
X131371674Y-108461444D01*
X131185110Y-108424334D01*
X130994890Y-108424334D01*
X130808326Y-108461444D01*
X130632586Y-108534238D01*
X130474424Y-108639919D01*
X130455000Y-108659343D01*
X130435576Y-108639919D01*
X130277414Y-108534238D01*
X130101674Y-108461444D01*
X129915110Y-108424334D01*
X129724890Y-108424334D01*
X129538326Y-108461444D01*
X129362586Y-108534238D01*
X129204424Y-108639919D01*
X129185000Y-108659343D01*
X129165576Y-108639919D01*
X129007414Y-108534238D01*
X128831674Y-108461444D01*
X128645110Y-108424334D01*
X128454890Y-108424334D01*
X128268326Y-108461444D01*
X128092586Y-108534238D01*
X127934424Y-108639919D01*
X127915000Y-108659343D01*
X127895576Y-108639919D01*
X127737414Y-108534238D01*
X127561674Y-108461444D01*
X127375110Y-108424334D01*
X127184890Y-108424334D01*
X126998326Y-108461444D01*
X126822586Y-108534238D01*
X126664424Y-108639919D01*
X126645000Y-108659343D01*
X126625576Y-108639919D01*
X126467414Y-108534238D01*
X126291674Y-108461444D01*
X126105110Y-108424334D01*
X125914890Y-108424334D01*
X125728326Y-108461444D01*
X125552586Y-108534238D01*
X125394424Y-108639919D01*
X125375000Y-108659343D01*
X125355576Y-108639919D01*
X125229450Y-108555644D01*
X125280487Y-108555644D01*
X125418752Y-108528142D01*
X125548995Y-108474193D01*
X125666211Y-108395872D01*
X125765894Y-108296189D01*
X125844215Y-108178973D01*
X125898164Y-108048730D01*
X125925666Y-107910465D01*
X125925666Y-107769491D01*
X125898164Y-107631226D01*
X125844215Y-107500983D01*
X125765894Y-107383767D01*
X125666211Y-107284084D01*
X125548995Y-107205763D01*
X125418752Y-107151814D01*
X125280487Y-107124312D01*
X125139513Y-107124312D01*
X125001248Y-107151814D01*
X124871005Y-107205763D01*
X124753789Y-107284084D01*
X124654106Y-107383767D01*
X124575785Y-107500983D01*
X124521836Y-107631226D01*
X124494334Y-107769491D01*
X124494334Y-107910465D01*
X124521836Y-108048730D01*
X124575785Y-108178973D01*
X124654106Y-108296189D01*
X124753789Y-108395872D01*
X124796386Y-108424334D01*
X124644890Y-108424334D01*
X124458326Y-108461444D01*
X124282586Y-108534238D01*
X124124424Y-108639919D01*
X124105000Y-108659343D01*
X124085576Y-108639919D01*
X123927414Y-108534238D01*
X123751674Y-108461444D01*
X123565110Y-108424334D01*
X123374890Y-108424334D01*
X123188326Y-108461444D01*
X123012586Y-108534238D01*
X122854424Y-108639919D01*
X122835000Y-108659343D01*
X122815576Y-108639919D01*
X122657414Y-108534238D01*
X122481674Y-108461444D01*
X122295110Y-108424334D01*
X122104890Y-108424334D01*
X121918326Y-108461444D01*
X121742586Y-108534238D01*
X121584424Y-108639919D01*
X121449919Y-108774424D01*
X121391934Y-108861204D01*
X121308994Y-108805785D01*
X121178751Y-108751836D01*
X121040486Y-108724334D01*
X120899512Y-108724334D01*
X120761247Y-108751836D01*
X120631004Y-108805785D01*
X120513788Y-108884106D01*
X120414105Y-108983789D01*
X120335784Y-109101005D01*
X120281835Y-109231248D01*
X120254333Y-109369513D01*
X109235828Y-109369513D01*
X109256211Y-109355894D01*
X109355894Y-109256211D01*
X109434215Y-109138995D01*
X109488164Y-109008752D01*
X109515666Y-108870487D01*
X109515666Y-108729513D01*
X109488164Y-108591248D01*
X109434215Y-108461005D01*
X109355894Y-108343789D01*
X109256211Y-108244106D01*
X109138995Y-108165785D01*
X109008752Y-108111836D01*
X108870487Y-108084334D01*
X108729513Y-108084334D01*
X108591248Y-108111836D01*
X108461005Y-108165785D01*
X108343789Y-108244106D01*
X108244106Y-108343789D01*
X108165785Y-108461005D01*
X108111836Y-108591248D01*
X108084334Y-108729513D01*
X107841618Y-108729513D01*
X107756211Y-108644106D01*
X107638995Y-108565785D01*
X107508752Y-108511836D01*
X107370487Y-108484334D01*
X107229513Y-108484334D01*
X107091248Y-108511836D01*
X106961005Y-108565785D01*
X106843789Y-108644106D01*
X106744106Y-108743789D01*
X106665785Y-108861005D01*
X106611836Y-108991248D01*
X106584334Y-109129513D01*
X104449328Y-109129513D01*
X104338985Y-109055785D01*
X104208742Y-109001836D01*
X104070477Y-108974334D01*
X103929503Y-108974334D01*
X103791238Y-109001836D01*
X103660995Y-109055785D01*
X103543779Y-109134106D01*
X103444096Y-109233789D01*
X103365775Y-109351005D01*
X103311826Y-109481248D01*
X103284324Y-109619513D01*
X100540666Y-109619513D01*
X100540666Y-107924588D01*
X104734334Y-107924588D01*
X104734334Y-108075412D01*
X104763758Y-108223337D01*
X104821475Y-108362679D01*
X104905268Y-108488084D01*
X105011916Y-108594732D01*
X105137321Y-108678525D01*
X105276663Y-108736242D01*
X105424588Y-108765666D01*
X105575412Y-108765666D01*
X105723337Y-108736242D01*
X105862679Y-108678525D01*
X105988084Y-108594732D01*
X106094732Y-108488084D01*
X106178525Y-108362679D01*
X106236242Y-108223337D01*
X106265666Y-108075412D01*
X106265666Y-107924588D01*
X106236242Y-107776663D01*
X106178525Y-107637321D01*
X106094732Y-107511916D01*
X105988084Y-107405268D01*
X105862679Y-107321475D01*
X105723337Y-107263758D01*
X105575412Y-107234334D01*
X105424588Y-107234334D01*
X105276663Y-107263758D01*
X105137321Y-107321475D01*
X105011916Y-107405268D01*
X104905268Y-107511916D01*
X104821475Y-107637321D01*
X104763758Y-107776663D01*
X104734334Y-107924588D01*
X100540666Y-107924588D01*
X100540666Y-106689513D01*
X103564334Y-106689513D01*
X103564334Y-106830487D01*
X103591836Y-106968752D01*
X103645785Y-107098995D01*
X103724106Y-107216211D01*
X103823789Y-107315894D01*
X103941005Y-107394215D01*
X104071248Y-107448164D01*
X104209513Y-107475666D01*
X104350487Y-107475666D01*
X104488752Y-107448164D01*
X104618995Y-107394215D01*
X104736211Y-107315894D01*
X104835894Y-107216211D01*
X104914215Y-107098995D01*
X104968164Y-106968752D01*
X104995666Y-106830487D01*
X104995666Y-106729513D01*
X110284334Y-106729513D01*
X110284334Y-106870487D01*
X110311836Y-107008752D01*
X110365785Y-107138995D01*
X110444106Y-107256211D01*
X110543789Y-107355894D01*
X110661005Y-107434215D01*
X110791248Y-107488164D01*
X110929513Y-107515666D01*
X111070487Y-107515666D01*
X111208752Y-107488164D01*
X111338995Y-107434215D01*
X111456211Y-107355894D01*
X111555894Y-107256211D01*
X111634215Y-107138995D01*
X111688164Y-107008752D01*
X111715666Y-106870487D01*
X111715666Y-106729513D01*
X111688164Y-106591248D01*
X111634215Y-106461005D01*
X111555894Y-106343789D01*
X111536693Y-106324588D01*
X113434334Y-106324588D01*
X113434334Y-106475412D01*
X113463758Y-106623337D01*
X113521475Y-106762679D01*
X113605268Y-106888084D01*
X113711916Y-106994732D01*
X113837321Y-107078525D01*
X113976663Y-107136242D01*
X114124588Y-107165666D01*
X114275412Y-107165666D01*
X114423337Y-107136242D01*
X114562679Y-107078525D01*
X114600000Y-107053588D01*
X114637321Y-107078525D01*
X114776663Y-107136242D01*
X114924588Y-107165666D01*
X115075412Y-107165666D01*
X115223337Y-107136242D01*
X115362679Y-107078525D01*
X115488084Y-106994732D01*
X115594732Y-106888084D01*
X115678525Y-106762679D01*
X115736242Y-106623337D01*
X115761851Y-106494588D01*
X116384334Y-106494588D01*
X116384334Y-106645412D01*
X116413758Y-106793337D01*
X116471475Y-106932679D01*
X116555268Y-107058084D01*
X116661916Y-107164732D01*
X116787321Y-107248525D01*
X116926663Y-107306242D01*
X117074588Y-107335666D01*
X117225412Y-107335666D01*
X117373337Y-107306242D01*
X117480000Y-107262061D01*
X117586663Y-107306242D01*
X117734588Y-107335666D01*
X117885412Y-107335666D01*
X118033337Y-107306242D01*
X118172679Y-107248525D01*
X118298084Y-107164732D01*
X118404732Y-107058084D01*
X118488525Y-106932679D01*
X118546242Y-106793337D01*
X118575666Y-106645412D01*
X118575666Y-106494588D01*
X118546242Y-106346663D01*
X118488525Y-106207321D01*
X118416073Y-106098889D01*
X118511916Y-106194732D01*
X118637321Y-106278525D01*
X118776663Y-106336242D01*
X118924588Y-106365666D01*
X119075412Y-106365666D01*
X119223337Y-106336242D01*
X119362679Y-106278525D01*
X119488084Y-106194732D01*
X119594732Y-106088084D01*
X119678525Y-105962679D01*
X119736242Y-105823337D01*
X119765666Y-105675412D01*
X119765666Y-105524588D01*
X119736242Y-105376663D01*
X119704286Y-105299513D01*
X121334324Y-105299513D01*
X121334324Y-105440487D01*
X121361826Y-105578752D01*
X121415775Y-105708995D01*
X121494096Y-105826211D01*
X121593779Y-105925894D01*
X121710995Y-106004215D01*
X121841238Y-106058164D01*
X121979503Y-106085666D01*
X122120477Y-106085666D01*
X122258742Y-106058164D01*
X122388985Y-106004215D01*
X122506201Y-105925894D01*
X122605884Y-105826211D01*
X122684205Y-105708995D01*
X122738154Y-105578752D01*
X122765656Y-105440487D01*
X122765656Y-105299513D01*
X122738154Y-105161248D01*
X122684205Y-105031005D01*
X122605884Y-104913789D01*
X122506201Y-104814106D01*
X122388985Y-104735785D01*
X122258742Y-104681836D01*
X122120477Y-104654334D01*
X121979503Y-104654334D01*
X121841238Y-104681836D01*
X121710995Y-104735785D01*
X121593779Y-104814106D01*
X121494096Y-104913789D01*
X121415775Y-105031005D01*
X121361826Y-105161248D01*
X121334324Y-105299513D01*
X119704286Y-105299513D01*
X119678525Y-105237321D01*
X119594732Y-105111916D01*
X119488084Y-105005268D01*
X119362679Y-104921475D01*
X119223337Y-104863758D01*
X119075412Y-104834334D01*
X118924588Y-104834334D01*
X118776663Y-104863758D01*
X118637321Y-104921475D01*
X118545666Y-104982717D01*
X118545666Y-104899513D01*
X118518164Y-104761248D01*
X118464215Y-104631005D01*
X118385894Y-104513789D01*
X118286211Y-104414106D01*
X118168995Y-104335785D01*
X118038752Y-104281836D01*
X117912116Y-104256647D01*
X117864215Y-104141005D01*
X117785894Y-104023789D01*
X117686211Y-103924106D01*
X117568995Y-103845785D01*
X117438752Y-103791836D01*
X117300487Y-103764334D01*
X117159513Y-103764334D01*
X117021248Y-103791836D01*
X116891005Y-103845785D01*
X116773789Y-103924106D01*
X116674106Y-104023789D01*
X116595785Y-104141005D01*
X116541836Y-104271248D01*
X116514334Y-104409513D01*
X116514334Y-104550487D01*
X116541836Y-104688752D01*
X116595785Y-104818995D01*
X116674106Y-104936211D01*
X116773789Y-105035894D01*
X116891005Y-105114215D01*
X117021248Y-105168164D01*
X117147884Y-105193353D01*
X117195785Y-105308995D01*
X117274106Y-105426211D01*
X117373789Y-105525894D01*
X117491005Y-105604215D01*
X117621248Y-105658164D01*
X117759513Y-105685666D01*
X117900487Y-105685666D01*
X118038752Y-105658164D01*
X118168995Y-105604215D01*
X118234334Y-105560557D01*
X118234334Y-105675412D01*
X118263758Y-105823337D01*
X118321475Y-105962679D01*
X118393927Y-106071111D01*
X118298084Y-105975268D01*
X118172679Y-105891475D01*
X118033337Y-105833758D01*
X117885412Y-105804334D01*
X117734588Y-105804334D01*
X117586663Y-105833758D01*
X117480000Y-105877939D01*
X117373337Y-105833758D01*
X117225412Y-105804334D01*
X117074588Y-105804334D01*
X116926663Y-105833758D01*
X116787321Y-105891475D01*
X116661916Y-105975268D01*
X116555268Y-106081916D01*
X116471475Y-106207321D01*
X116413758Y-106346663D01*
X116384334Y-106494588D01*
X115761851Y-106494588D01*
X115765666Y-106475412D01*
X115765666Y-106324588D01*
X115736242Y-106176663D01*
X115678525Y-106037321D01*
X115594732Y-105911916D01*
X115488084Y-105805268D01*
X115362679Y-105721475D01*
X115223337Y-105663758D01*
X115075412Y-105634334D01*
X114924588Y-105634334D01*
X114776663Y-105663758D01*
X114637321Y-105721475D01*
X114600000Y-105746412D01*
X114562679Y-105721475D01*
X114423337Y-105663758D01*
X114275412Y-105634334D01*
X114124588Y-105634334D01*
X113976663Y-105663758D01*
X113837321Y-105721475D01*
X113711916Y-105805268D01*
X113605268Y-105911916D01*
X113521475Y-106037321D01*
X113463758Y-106176663D01*
X113434334Y-106324588D01*
X111536693Y-106324588D01*
X111456211Y-106244106D01*
X111338995Y-106165785D01*
X111208752Y-106111836D01*
X111070487Y-106084334D01*
X110929513Y-106084334D01*
X110791248Y-106111836D01*
X110661005Y-106165785D01*
X110543789Y-106244106D01*
X110444106Y-106343789D01*
X110365785Y-106461005D01*
X110311836Y-106591248D01*
X110284334Y-106729513D01*
X104995666Y-106729513D01*
X104995666Y-106689513D01*
X104968164Y-106551248D01*
X104932566Y-106465307D01*
X105018752Y-106448164D01*
X105148995Y-106394215D01*
X105266211Y-106315894D01*
X105365894Y-106216211D01*
X105444215Y-106098995D01*
X105498164Y-105968752D01*
X105525666Y-105830487D01*
X105525666Y-105689513D01*
X105498164Y-105551248D01*
X105444215Y-105421005D01*
X105365894Y-105303789D01*
X105266211Y-105204106D01*
X105148995Y-105125785D01*
X105018752Y-105071836D01*
X104880487Y-105044334D01*
X104739513Y-105044334D01*
X104601248Y-105071836D01*
X104471005Y-105125785D01*
X104353789Y-105204106D01*
X104254106Y-105303789D01*
X104175785Y-105421005D01*
X104121836Y-105551248D01*
X104094334Y-105689513D01*
X104094334Y-105830487D01*
X104121836Y-105968752D01*
X104157434Y-106054693D01*
X104071248Y-106071836D01*
X103941005Y-106125785D01*
X103823789Y-106204106D01*
X103724106Y-106303789D01*
X103645785Y-106421005D01*
X103591836Y-106551248D01*
X103564334Y-106689513D01*
X100540666Y-106689513D01*
X100540666Y-103475000D01*
X113029420Y-103475000D01*
X113049030Y-103674105D01*
X113107107Y-103865559D01*
X113201419Y-104042004D01*
X113328341Y-104196659D01*
X113482996Y-104323581D01*
X113659441Y-104417893D01*
X113850895Y-104475970D01*
X114000107Y-104490666D01*
X114799893Y-104490666D01*
X114949105Y-104475970D01*
X115140559Y-104417893D01*
X115317004Y-104323581D01*
X115471659Y-104196659D01*
X115598581Y-104042004D01*
X115692893Y-103865559D01*
X115750970Y-103674105D01*
X115770580Y-103475000D01*
X118629420Y-103475000D01*
X118649030Y-103674105D01*
X118707107Y-103865559D01*
X118801419Y-104042004D01*
X118928341Y-104196659D01*
X119082996Y-104323581D01*
X119259441Y-104417893D01*
X119450895Y-104475970D01*
X119600107Y-104490666D01*
X120399893Y-104490666D01*
X120549105Y-104475970D01*
X120740559Y-104417893D01*
X120917004Y-104323581D01*
X121071659Y-104196659D01*
X121198581Y-104042004D01*
X121292893Y-103865559D01*
X121350970Y-103674105D01*
X121370580Y-103475000D01*
X121350970Y-103275895D01*
X121292893Y-103084441D01*
X121198581Y-102907996D01*
X121071659Y-102753341D01*
X120917004Y-102626419D01*
X120740559Y-102532107D01*
X120549105Y-102474030D01*
X120399893Y-102459334D01*
X119600107Y-102459334D01*
X119450895Y-102474030D01*
X119259441Y-102532107D01*
X119082996Y-102626419D01*
X118928341Y-102753341D01*
X118801419Y-102907996D01*
X118707107Y-103084441D01*
X118649030Y-103275895D01*
X118629420Y-103475000D01*
X115770580Y-103475000D01*
X115750970Y-103275895D01*
X115692893Y-103084441D01*
X115598581Y-102907996D01*
X115471659Y-102753341D01*
X115317004Y-102626419D01*
X115140559Y-102532107D01*
X114949105Y-102474030D01*
X114799893Y-102459334D01*
X114000107Y-102459334D01*
X113850895Y-102474030D01*
X113659441Y-102532107D01*
X113482996Y-102626419D01*
X113328341Y-102753341D01*
X113201419Y-102907996D01*
X113107107Y-103084441D01*
X113049030Y-103275895D01*
X113029420Y-103475000D01*
X100540666Y-103475000D01*
X100540666Y-102294588D01*
X104364334Y-102294588D01*
X104364334Y-102445412D01*
X104393758Y-102593337D01*
X104451475Y-102732679D01*
X104535268Y-102858084D01*
X104641916Y-102964732D01*
X104767321Y-103048525D01*
X104906663Y-103106242D01*
X105054588Y-103135666D01*
X105205412Y-103135666D01*
X105353337Y-103106242D01*
X105492679Y-103048525D01*
X105618084Y-102964732D01*
X105724732Y-102858084D01*
X105808525Y-102732679D01*
X105866242Y-102593337D01*
X105895666Y-102445412D01*
X105895666Y-102294588D01*
X105866242Y-102146663D01*
X105808525Y-102007321D01*
X105724732Y-101881916D01*
X105618084Y-101775268D01*
X105492679Y-101691475D01*
X105353337Y-101633758D01*
X105205412Y-101604334D01*
X105054588Y-101604334D01*
X104906663Y-101633758D01*
X104767321Y-101691475D01*
X104641916Y-101775268D01*
X104535268Y-101881916D01*
X104451475Y-102007321D01*
X104393758Y-102146663D01*
X104364334Y-102294588D01*
X100540666Y-102294588D01*
X100540666Y-102026447D01*
X100571003Y-101717047D01*
X100653176Y-101444878D01*
X100786648Y-101193854D01*
X100966340Y-100973531D01*
X101185403Y-100792305D01*
X101435488Y-100657085D01*
X101707084Y-100573012D01*
X102014837Y-100540666D01*
X116004711Y-100540666D01*
X115928341Y-100603341D01*
G04 #@! TA.AperFunction,Conductor*
D24*
G36*
X115928341Y-100603341D02*
G01*
X115801419Y-100757996D01*
X115707107Y-100934441D01*
X115649030Y-101125895D01*
X115629420Y-101325000D01*
X115649030Y-101524105D01*
X115707107Y-101715559D01*
X115801419Y-101892004D01*
X115928341Y-102046659D01*
X116082996Y-102173581D01*
X116259441Y-102267893D01*
X116450895Y-102325970D01*
X116600107Y-102340666D01*
X117799893Y-102340666D01*
X117949105Y-102325970D01*
X118140559Y-102267893D01*
X118317004Y-102173581D01*
X118471659Y-102046659D01*
X118598581Y-101892004D01*
X118692893Y-101715559D01*
X118750970Y-101524105D01*
X118770580Y-101325000D01*
X118750970Y-101125895D01*
X118692893Y-100934441D01*
X118598581Y-100757996D01*
X118471659Y-100603341D01*
X118395289Y-100540666D01*
X140559559Y-100540666D01*
X140546338Y-100560452D01*
X140492389Y-100690695D01*
X140464887Y-100828960D01*
X140464887Y-100969934D01*
X140492389Y-101108199D01*
X140546338Y-101238442D01*
X140624659Y-101355658D01*
X140724342Y-101455341D01*
X140841558Y-101533662D01*
X140971801Y-101587611D01*
X141110066Y-101615113D01*
X141251040Y-101615113D01*
X141389305Y-101587611D01*
X141519548Y-101533662D01*
X141636764Y-101455341D01*
X141736447Y-101355658D01*
X141814768Y-101238442D01*
X141868717Y-101108199D01*
X141896219Y-100969934D01*
X141896219Y-100828960D01*
X141868717Y-100690695D01*
X141814768Y-100560452D01*
X141801547Y-100540666D01*
X148684334Y-100540666D01*
X148684334Y-100570487D01*
X148711836Y-100708752D01*
X148765785Y-100838995D01*
X148844106Y-100956211D01*
X148943789Y-101055894D01*
X149061005Y-101134215D01*
X149191248Y-101188164D01*
X149329513Y-101215666D01*
X149470487Y-101215666D01*
X149608752Y-101188164D01*
X149738995Y-101134215D01*
X149856211Y-101055894D01*
X149955894Y-100956211D01*
X150034215Y-100838995D01*
X150088164Y-100708752D01*
X150115666Y-100570487D01*
X150115666Y-100540666D01*
X154332788Y-100540666D01*
X154311836Y-100591248D01*
X154284334Y-100729513D01*
X154284334Y-100870487D01*
X154311836Y-101008752D01*
X154365785Y-101138995D01*
X154444106Y-101256211D01*
X154543789Y-101355894D01*
X154661005Y-101434215D01*
X154791248Y-101488164D01*
X154929513Y-101515666D01*
X155070487Y-101515666D01*
X155208752Y-101488164D01*
X155338995Y-101434215D01*
X155456211Y-101355894D01*
X155555894Y-101256211D01*
X155634215Y-101138995D01*
X155688164Y-101008752D01*
X155715666Y-100870487D01*
X155715666Y-100729513D01*
X155688164Y-100591248D01*
X155667212Y-100540666D01*
X167973553Y-100540666D01*
X168282953Y-100571003D01*
X168555122Y-100653176D01*
X168806146Y-100786648D01*
X169026469Y-100966340D01*
X169207695Y-101185403D01*
X169342915Y-101435488D01*
X169426988Y-101707084D01*
X169459334Y-102014837D01*
X169459335Y-109283000D01*
X169450000Y-109282081D01*
X166450000Y-109282081D01*
X166358714Y-109291072D01*
X166270935Y-109317699D01*
X166190038Y-109360940D01*
X166119131Y-109419131D01*
X166060940Y-109490038D01*
X166017699Y-109570935D01*
X165991072Y-109658714D01*
X165982081Y-109750000D01*
X165982081Y-111750000D01*
X165991072Y-111841286D01*
X166017699Y-111929065D01*
X166055615Y-112000000D01*
X166017699Y-112070935D01*
X165991072Y-112158714D01*
X165982081Y-112250000D01*
X165982081Y-114250000D01*
X165991072Y-114341286D01*
X166017699Y-114429065D01*
X166033878Y-114459334D01*
X162513853Y-114459334D01*
X162574215Y-114368995D01*
X162628164Y-114238752D01*
X162655666Y-114100487D01*
X162655666Y-113959513D01*
X162628164Y-113821248D01*
X162574215Y-113691005D01*
X162495894Y-113573789D01*
X162396211Y-113474106D01*
X162278995Y-113395785D01*
X162148752Y-113341836D01*
X162010487Y-113314334D01*
X161869513Y-113314334D01*
X161731248Y-113341836D01*
X161601005Y-113395785D01*
X161483789Y-113474106D01*
X161384106Y-113573789D01*
X161305785Y-113691005D01*
X161251836Y-113821248D01*
X161224334Y-113959513D01*
X161224334Y-114100487D01*
X161251836Y-114238752D01*
X161305785Y-114368995D01*
X161366147Y-114459334D01*
X157018200Y-114459334D01*
X157050026Y-114446151D01*
X157167242Y-114367830D01*
X157266925Y-114268147D01*
X157345246Y-114150931D01*
X157399195Y-114020688D01*
X157426697Y-113882423D01*
X157426697Y-113741449D01*
X157399195Y-113603184D01*
X157345246Y-113472941D01*
X157266925Y-113355725D01*
X157167242Y-113256042D01*
X157050026Y-113177721D01*
X156919783Y-113123772D01*
X156781518Y-113096270D01*
X156640544Y-113096270D01*
X156502279Y-113123772D01*
X156404446Y-113164296D01*
X156448164Y-113058752D01*
X156453979Y-113029513D01*
X157984334Y-113029513D01*
X157984334Y-113170487D01*
X158011836Y-113308752D01*
X158065785Y-113438995D01*
X158144106Y-113556211D01*
X158243789Y-113655894D01*
X158361005Y-113734215D01*
X158491248Y-113788164D01*
X158629513Y-113815666D01*
X158770487Y-113815666D01*
X158908752Y-113788164D01*
X159038995Y-113734215D01*
X159156211Y-113655894D01*
X159255894Y-113556211D01*
X159334215Y-113438995D01*
X159388164Y-113308752D01*
X159415666Y-113170487D01*
X159415666Y-113029513D01*
X159388164Y-112891248D01*
X159334215Y-112761005D01*
X159255894Y-112643789D01*
X159156211Y-112544106D01*
X159038995Y-112465785D01*
X158908752Y-112411836D01*
X158770487Y-112384334D01*
X158629513Y-112384334D01*
X158491248Y-112411836D01*
X158361005Y-112465785D01*
X158243789Y-112544106D01*
X158144106Y-112643789D01*
X158065785Y-112761005D01*
X158011836Y-112891248D01*
X157984334Y-113029513D01*
X156453979Y-113029513D01*
X156475666Y-112920487D01*
X156475666Y-112779513D01*
X156448164Y-112641248D01*
X156394215Y-112511005D01*
X156315894Y-112393789D01*
X156216211Y-112294106D01*
X156098995Y-112215785D01*
X155968752Y-112161836D01*
X155830487Y-112134334D01*
X155689513Y-112134334D01*
X155551248Y-112161836D01*
X155421005Y-112215785D01*
X155303789Y-112294106D01*
X155204106Y-112393789D01*
X155184795Y-112422690D01*
X155106211Y-112344106D01*
X154988995Y-112265785D01*
X154858752Y-112211836D01*
X154720487Y-112184334D01*
X154579513Y-112184334D01*
X154441248Y-112211836D01*
X154311005Y-112265785D01*
X154193789Y-112344106D01*
X154094106Y-112443789D01*
X154015785Y-112561005D01*
X153961836Y-112691248D01*
X153934334Y-112829513D01*
X153934334Y-112970487D01*
X153961836Y-113108752D01*
X154015785Y-113238995D01*
X154094106Y-113356211D01*
X154193789Y-113455894D01*
X154311005Y-113534215D01*
X154441248Y-113588164D01*
X154579513Y-113615666D01*
X154720487Y-113615666D01*
X154858752Y-113588164D01*
X154988995Y-113534215D01*
X155106211Y-113455894D01*
X155205894Y-113356211D01*
X155225205Y-113327310D01*
X155303789Y-113405894D01*
X155421005Y-113484215D01*
X155551248Y-113538164D01*
X155689513Y-113565666D01*
X155830487Y-113565666D01*
X155968752Y-113538164D01*
X156066585Y-113497640D01*
X156022867Y-113603184D01*
X155995365Y-113741449D01*
X155995365Y-113882423D01*
X156022867Y-114020688D01*
X156076816Y-114150931D01*
X156155137Y-114268147D01*
X156254820Y-114367830D01*
X156372036Y-114446151D01*
X156403862Y-114459334D01*
X149188299Y-114459334D01*
X149262679Y-114428525D01*
X149388084Y-114344732D01*
X149494732Y-114238084D01*
X149578525Y-114112679D01*
X149636242Y-113973337D01*
X149665666Y-113825412D01*
X149665666Y-113674588D01*
X149636242Y-113526663D01*
X149578525Y-113387321D01*
X149494732Y-113261916D01*
X149388084Y-113155268D01*
X149262679Y-113071475D01*
X149123337Y-113013758D01*
X148975412Y-112984334D01*
X148824588Y-112984334D01*
X148676663Y-113013758D01*
X148537321Y-113071475D01*
X148518076Y-113084334D01*
X147288568Y-113084334D01*
X145493747Y-111289513D01*
X148054334Y-111289513D01*
X148054334Y-111430487D01*
X148081836Y-111568752D01*
X148135785Y-111698995D01*
X148214106Y-111816211D01*
X148313789Y-111915894D01*
X148431005Y-111994215D01*
X148561248Y-112048164D01*
X148699513Y-112075666D01*
X148840487Y-112075666D01*
X148978752Y-112048164D01*
X149058436Y-112015158D01*
X149089681Y-112036035D01*
X149219924Y-112089984D01*
X149358189Y-112117486D01*
X149499163Y-112117486D01*
X149637428Y-112089984D01*
X149767671Y-112036035D01*
X149884887Y-111957714D01*
X149984570Y-111858031D01*
X150062891Y-111740815D01*
X150116840Y-111610572D01*
X150144342Y-111472307D01*
X150144342Y-111359513D01*
X151824334Y-111359513D01*
X151824334Y-111500487D01*
X151851836Y-111638752D01*
X151905785Y-111768995D01*
X151984106Y-111886211D01*
X152083789Y-111985894D01*
X152201005Y-112064215D01*
X152331248Y-112118164D01*
X152469513Y-112145666D01*
X152610487Y-112145666D01*
X152748752Y-112118164D01*
X152849412Y-112076469D01*
X152861005Y-112084215D01*
X152991248Y-112138164D01*
X153129513Y-112165666D01*
X153270487Y-112165666D01*
X153408752Y-112138164D01*
X153538995Y-112084215D01*
X153656211Y-112005894D01*
X153755894Y-111906211D01*
X153834215Y-111788995D01*
X153888164Y-111658752D01*
X153915666Y-111520487D01*
X153915666Y-111394922D01*
X155822199Y-111394922D01*
X155822199Y-111535896D01*
X155849701Y-111674161D01*
X155903650Y-111804404D01*
X155981971Y-111921620D01*
X156081654Y-112021303D01*
X156198870Y-112099624D01*
X156329113Y-112153573D01*
X156467378Y-112181075D01*
X156608352Y-112181075D01*
X156746617Y-112153573D01*
X156876860Y-112099624D01*
X156994076Y-112021303D01*
X157093759Y-111921620D01*
X157172080Y-111804404D01*
X157226029Y-111674161D01*
X157253531Y-111535896D01*
X157253531Y-111394922D01*
X157226029Y-111256657D01*
X157172080Y-111126414D01*
X157093759Y-111009198D01*
X156994076Y-110909515D01*
X156876860Y-110831194D01*
X156746617Y-110777245D01*
X156608352Y-110749743D01*
X156467378Y-110749743D01*
X156329113Y-110777245D01*
X156198870Y-110831194D01*
X156081654Y-110909515D01*
X155981971Y-111009198D01*
X155903650Y-111126414D01*
X155849701Y-111256657D01*
X155822199Y-111394922D01*
X153915666Y-111394922D01*
X153915666Y-111379513D01*
X153888164Y-111241248D01*
X153834215Y-111111005D01*
X153755894Y-110993789D01*
X153656211Y-110894106D01*
X153538995Y-110815785D01*
X153408752Y-110761836D01*
X153270487Y-110734334D01*
X153129513Y-110734334D01*
X152991248Y-110761836D01*
X152890588Y-110803531D01*
X152878995Y-110795785D01*
X152748752Y-110741836D01*
X152610487Y-110714334D01*
X152469513Y-110714334D01*
X152331248Y-110741836D01*
X152201005Y-110795785D01*
X152083789Y-110874106D01*
X151984106Y-110973789D01*
X151905785Y-111091005D01*
X151851836Y-111221248D01*
X151824334Y-111359513D01*
X150144342Y-111359513D01*
X150144342Y-111331333D01*
X150116840Y-111193068D01*
X150062891Y-111062825D01*
X149984570Y-110945609D01*
X149884887Y-110845926D01*
X149767671Y-110767605D01*
X149637428Y-110713656D01*
X149499163Y-110686154D01*
X149358189Y-110686154D01*
X149219924Y-110713656D01*
X149140240Y-110746662D01*
X149108995Y-110725785D01*
X148978752Y-110671836D01*
X148840487Y-110644334D01*
X148699513Y-110644334D01*
X148561248Y-110671836D01*
X148431005Y-110725785D01*
X148313789Y-110804106D01*
X148214106Y-110903789D01*
X148135785Y-111021005D01*
X148081836Y-111151248D01*
X148054334Y-111289513D01*
X145493747Y-111289513D01*
X145243756Y-111039523D01*
X145328995Y-111004215D01*
X145446211Y-110925894D01*
X145545894Y-110826211D01*
X145624215Y-110708995D01*
X145678164Y-110578752D01*
X145695913Y-110489519D01*
X146244340Y-110489519D01*
X146244340Y-110630493D01*
X146271842Y-110768758D01*
X146325791Y-110899001D01*
X146404112Y-111016217D01*
X146503795Y-111115900D01*
X146621011Y-111194221D01*
X146751254Y-111248170D01*
X146889519Y-111275672D01*
X147030493Y-111275672D01*
X147168758Y-111248170D01*
X147299001Y-111194221D01*
X147416217Y-111115900D01*
X147515900Y-111016217D01*
X147594221Y-110899001D01*
X147648170Y-110768758D01*
X147675672Y-110630493D01*
X147675672Y-110489519D01*
X147648170Y-110351254D01*
X147594221Y-110221011D01*
X147515900Y-110103795D01*
X147416217Y-110004112D01*
X147299001Y-109925791D01*
X147168758Y-109871842D01*
X147030493Y-109844340D01*
X146889519Y-109844340D01*
X146751254Y-109871842D01*
X146621011Y-109925791D01*
X146503795Y-110004112D01*
X146404112Y-110103795D01*
X146325791Y-110221011D01*
X146271842Y-110351254D01*
X146244340Y-110489519D01*
X145695913Y-110489519D01*
X145705666Y-110440487D01*
X145705666Y-110299513D01*
X145678164Y-110161248D01*
X145624215Y-110031005D01*
X145545894Y-109913789D01*
X145468341Y-109836236D01*
X145495645Y-109698964D01*
X145495645Y-109557990D01*
X145472079Y-109439513D01*
X154324334Y-109439513D01*
X154324334Y-109580487D01*
X154351836Y-109718752D01*
X154405785Y-109848995D01*
X154484106Y-109966211D01*
X154583789Y-110065894D01*
X154701005Y-110144215D01*
X154831248Y-110198164D01*
X154969513Y-110225666D01*
X155110487Y-110225666D01*
X155248752Y-110198164D01*
X155378995Y-110144215D01*
X155496211Y-110065894D01*
X155595894Y-109966211D01*
X155674215Y-109848995D01*
X155728164Y-109718752D01*
X155735968Y-109679513D01*
X156084334Y-109679513D01*
X156084334Y-109820487D01*
X156111836Y-109958752D01*
X156165785Y-110088995D01*
X156244106Y-110206211D01*
X156343789Y-110305894D01*
X156461005Y-110384215D01*
X156591248Y-110438164D01*
X156729513Y-110465666D01*
X156870487Y-110465666D01*
X157008752Y-110438164D01*
X157138995Y-110384215D01*
X157146032Y-110379513D01*
X159214334Y-110379513D01*
X159214334Y-110520487D01*
X159241836Y-110658752D01*
X159295785Y-110788995D01*
X159374106Y-110906211D01*
X159473789Y-111005894D01*
X159591005Y-111084215D01*
X159721248Y-111138164D01*
X159859513Y-111165666D01*
X160000487Y-111165666D01*
X160138752Y-111138164D01*
X160268995Y-111084215D01*
X160386211Y-111005894D01*
X160400762Y-110991343D01*
X160444106Y-111056211D01*
X160543789Y-111155894D01*
X160661005Y-111234215D01*
X160791248Y-111288164D01*
X160929513Y-111315666D01*
X161070487Y-111315666D01*
X161208752Y-111288164D01*
X161338995Y-111234215D01*
X161456211Y-111155894D01*
X161555894Y-111056211D01*
X161634215Y-110938995D01*
X161688164Y-110808752D01*
X161715666Y-110670487D01*
X161715666Y-110589513D01*
X162014334Y-110589513D01*
X162014334Y-110730487D01*
X162041836Y-110868752D01*
X162095785Y-110998995D01*
X162174106Y-111116211D01*
X162273789Y-111215894D01*
X162391005Y-111294215D01*
X162445438Y-111316762D01*
X162375785Y-111421005D01*
X162321836Y-111551248D01*
X162294334Y-111689513D01*
X162294334Y-111830487D01*
X162321836Y-111968752D01*
X162375785Y-112098995D01*
X162454106Y-112216211D01*
X162553789Y-112315894D01*
X162671005Y-112394215D01*
X162801248Y-112448164D01*
X162939513Y-112475666D01*
X163080487Y-112475666D01*
X163218752Y-112448164D01*
X163348995Y-112394215D01*
X163466211Y-112315894D01*
X163565894Y-112216211D01*
X163644215Y-112098995D01*
X163698164Y-111968752D01*
X163725666Y-111830487D01*
X163725666Y-111689513D01*
X163698164Y-111551248D01*
X163644215Y-111421005D01*
X163565894Y-111303789D01*
X163466211Y-111204106D01*
X163348995Y-111125785D01*
X163294562Y-111103238D01*
X163364215Y-110998995D01*
X163418164Y-110868752D01*
X163445666Y-110730487D01*
X163445666Y-110589513D01*
X163418164Y-110451248D01*
X163364215Y-110321005D01*
X163285894Y-110203789D01*
X163186211Y-110104106D01*
X163068995Y-110025785D01*
X162938752Y-109971836D01*
X162800487Y-109944334D01*
X162659513Y-109944334D01*
X162521248Y-109971836D01*
X162391005Y-110025785D01*
X162273789Y-110104106D01*
X162174106Y-110203789D01*
X162095785Y-110321005D01*
X162041836Y-110451248D01*
X162014334Y-110589513D01*
X161715666Y-110589513D01*
X161715666Y-110529513D01*
X161688164Y-110391248D01*
X161634215Y-110261005D01*
X161555894Y-110143789D01*
X161456211Y-110044106D01*
X161338995Y-109965785D01*
X161208752Y-109911836D01*
X161070487Y-109884334D01*
X160929513Y-109884334D01*
X160791248Y-109911836D01*
X160661005Y-109965785D01*
X160543789Y-110044106D01*
X160529238Y-110058657D01*
X160485894Y-109993789D01*
X160386211Y-109894106D01*
X160268995Y-109815785D01*
X160138752Y-109761836D01*
X160000487Y-109734334D01*
X159859513Y-109734334D01*
X159721248Y-109761836D01*
X159591005Y-109815785D01*
X159473789Y-109894106D01*
X159374106Y-109993789D01*
X159295785Y-110111005D01*
X159241836Y-110241248D01*
X159214334Y-110379513D01*
X157146032Y-110379513D01*
X157256211Y-110305894D01*
X157355894Y-110206211D01*
X157434215Y-110088995D01*
X157488164Y-109958752D01*
X157515666Y-109820487D01*
X157515666Y-109679513D01*
X157488164Y-109541248D01*
X157434215Y-109411005D01*
X157355894Y-109293789D01*
X157256211Y-109194106D01*
X157138995Y-109115785D01*
X157008752Y-109061836D01*
X156870487Y-109034334D01*
X156729513Y-109034334D01*
X156591248Y-109061836D01*
X156461005Y-109115785D01*
X156343789Y-109194106D01*
X156244106Y-109293789D01*
X156165785Y-109411005D01*
X156111836Y-109541248D01*
X156084334Y-109679513D01*
X155735968Y-109679513D01*
X155755666Y-109580487D01*
X155755666Y-109439513D01*
X155728164Y-109301248D01*
X155674215Y-109171005D01*
X155595894Y-109053789D01*
X155496211Y-108954106D01*
X155378995Y-108875785D01*
X155248752Y-108821836D01*
X155110487Y-108794334D01*
X154969513Y-108794334D01*
X154831248Y-108821836D01*
X154701005Y-108875785D01*
X154583789Y-108954106D01*
X154484106Y-109053789D01*
X154405785Y-109171005D01*
X154351836Y-109301248D01*
X154324334Y-109439513D01*
X145472079Y-109439513D01*
X145468143Y-109419725D01*
X145414194Y-109289482D01*
X145335873Y-109172266D01*
X145236190Y-109072583D01*
X145118974Y-108994262D01*
X144988731Y-108940313D01*
X144850466Y-108912811D01*
X144709492Y-108912811D01*
X144571227Y-108940313D01*
X144440984Y-108994262D01*
X144323768Y-109072583D01*
X144224085Y-109172266D01*
X144145764Y-109289482D01*
X144091815Y-109419725D01*
X144064313Y-109557990D01*
X144064313Y-109698964D01*
X144091815Y-109837229D01*
X144127421Y-109923187D01*
X143852270Y-109648037D01*
X143829772Y-109593722D01*
X143751451Y-109476506D01*
X143651768Y-109376823D01*
X143534552Y-109298502D01*
X143404309Y-109244553D01*
X143266044Y-109217051D01*
X143125070Y-109217051D01*
X142986805Y-109244553D01*
X142856562Y-109298502D01*
X142739346Y-109376823D01*
X142639663Y-109476506D01*
X142561342Y-109593722D01*
X142507393Y-109723965D01*
X142479891Y-109862230D01*
X142479891Y-110003204D01*
X142507393Y-110141469D01*
X142561342Y-110271712D01*
X142639663Y-110388928D01*
X142739346Y-110488611D01*
X142856562Y-110566932D01*
X142910877Y-110589430D01*
X146519025Y-114197579D01*
X146539866Y-114222974D01*
X146565260Y-114243814D01*
X146641226Y-114306158D01*
X146723058Y-114349898D01*
X146756868Y-114367970D01*
X146882347Y-114406034D01*
X146980146Y-114415666D01*
X146980157Y-114415666D01*
X147012839Y-114418885D01*
X147045521Y-114415666D01*
X148518076Y-114415666D01*
X148537321Y-114428525D01*
X148611701Y-114459334D01*
X138485666Y-114459334D01*
X138485666Y-114439601D01*
X138458164Y-114301336D01*
X138404215Y-114171093D01*
X138325894Y-114053877D01*
X138226211Y-113954194D01*
X138108995Y-113875873D01*
X137978752Y-113821924D01*
X137840487Y-113794422D01*
X137699513Y-113794422D01*
X137561248Y-113821924D01*
X137431005Y-113875873D01*
X137417201Y-113885096D01*
X137406211Y-113874106D01*
X137288995Y-113795785D01*
X137158752Y-113741836D01*
X137020487Y-113714334D01*
X136879513Y-113714334D01*
X136741248Y-113741836D01*
X136611005Y-113795785D01*
X136493789Y-113874106D01*
X136394106Y-113973789D01*
X136315785Y-114091005D01*
X136261836Y-114221248D01*
X136234334Y-114359513D01*
X136234334Y-114459334D01*
X115902771Y-114459334D01*
X115955894Y-114406211D01*
X116034215Y-114288995D01*
X116088164Y-114158752D01*
X116115666Y-114020487D01*
X116115666Y-113879513D01*
X116088164Y-113741248D01*
X116034215Y-113611005D01*
X115955894Y-113493789D01*
X115856211Y-113394106D01*
X115738995Y-113315785D01*
X115608752Y-113261836D01*
X115470487Y-113234334D01*
X115329513Y-113234334D01*
X115191248Y-113261836D01*
X115061005Y-113315785D01*
X114943789Y-113394106D01*
X114844106Y-113493789D01*
X114765785Y-113611005D01*
X114711836Y-113741248D01*
X114684334Y-113879513D01*
X114684334Y-114020487D01*
X114711836Y-114158752D01*
X114765785Y-114288995D01*
X114844106Y-114406211D01*
X114897229Y-114459334D01*
X102026447Y-114459334D01*
X101717047Y-114428997D01*
X101444882Y-114346826D01*
X101193853Y-114213351D01*
X100973531Y-114033660D01*
X100792305Y-113814597D01*
X100657086Y-113564514D01*
X100573012Y-113292916D01*
X100551634Y-113089513D01*
X112154334Y-113089513D01*
X112154334Y-113230487D01*
X112181836Y-113368752D01*
X112235785Y-113498995D01*
X112314106Y-113616211D01*
X112413789Y-113715894D01*
X112531005Y-113794215D01*
X112661248Y-113848164D01*
X112799513Y-113875666D01*
X112940487Y-113875666D01*
X113078752Y-113848164D01*
X113208995Y-113794215D01*
X113326211Y-113715894D01*
X113425894Y-113616211D01*
X113504215Y-113498995D01*
X113558164Y-113368752D01*
X113585666Y-113230487D01*
X113585666Y-113089513D01*
X113558164Y-112951248D01*
X113504215Y-112821005D01*
X113425894Y-112703789D01*
X113326211Y-112604106D01*
X113208995Y-112525785D01*
X113078752Y-112471836D01*
X112940487Y-112444334D01*
X112799513Y-112444334D01*
X112661248Y-112471836D01*
X112531005Y-112525785D01*
X112413789Y-112604106D01*
X112314106Y-112703789D01*
X112235785Y-112821005D01*
X112181836Y-112951248D01*
X112154334Y-113089513D01*
X100551634Y-113089513D01*
X100540666Y-112985163D01*
X100540666Y-112419513D01*
X117834334Y-112419513D01*
X117834334Y-112560487D01*
X117861836Y-112698752D01*
X117915785Y-112828995D01*
X117994106Y-112946211D01*
X118093789Y-113045894D01*
X118211005Y-113124215D01*
X118341248Y-113178164D01*
X118479513Y-113205666D01*
X118620487Y-113205666D01*
X118758752Y-113178164D01*
X118887581Y-113124801D01*
X118887581Y-113880000D01*
X118896572Y-113971286D01*
X118923199Y-114059065D01*
X118966440Y-114139962D01*
X119024631Y-114210869D01*
X119095538Y-114269060D01*
X119176435Y-114312301D01*
X119264214Y-114338928D01*
X119355500Y-114347919D01*
X121055500Y-114347919D01*
X121146786Y-114338928D01*
X121234565Y-114312301D01*
X121315462Y-114269060D01*
X121386369Y-114210869D01*
X121444560Y-114139962D01*
X121487801Y-114059065D01*
X121514428Y-113971286D01*
X121523419Y-113880000D01*
X121523419Y-113517637D01*
X121579572Y-113653202D01*
X121723555Y-113868688D01*
X121906812Y-114051945D01*
X122122298Y-114195928D01*
X122361734Y-114295106D01*
X122615918Y-114345666D01*
X122875082Y-114345666D01*
X123129266Y-114295106D01*
X123368702Y-114195928D01*
X123584188Y-114051945D01*
X123767445Y-113868688D01*
X123911428Y-113653202D01*
X124010606Y-113413766D01*
X124015500Y-113389162D01*
X124020394Y-113413766D01*
X124119572Y-113653202D01*
X124263555Y-113868688D01*
X124446812Y-114051945D01*
X124662298Y-114195928D01*
X124901734Y-114295106D01*
X125155918Y-114345666D01*
X125415082Y-114345666D01*
X125669266Y-114295106D01*
X125908702Y-114195928D01*
X126124188Y-114051945D01*
X126307445Y-113868688D01*
X126451428Y-113653202D01*
X126550606Y-113413766D01*
X126555500Y-113389162D01*
X126560394Y-113413766D01*
X126659572Y-113653202D01*
X126803555Y-113868688D01*
X126986812Y-114051945D01*
X127202298Y-114195928D01*
X127441734Y-114295106D01*
X127695918Y-114345666D01*
X127955082Y-114345666D01*
X128209266Y-114295106D01*
X128448702Y-114195928D01*
X128664188Y-114051945D01*
X128847445Y-113868688D01*
X128991428Y-113653202D01*
X129090606Y-113413766D01*
X129095500Y-113389162D01*
X129100394Y-113413766D01*
X129199572Y-113653202D01*
X129343555Y-113868688D01*
X129526812Y-114051945D01*
X129742298Y-114195928D01*
X129981734Y-114295106D01*
X130235918Y-114345666D01*
X130495082Y-114345666D01*
X130749266Y-114295106D01*
X130988702Y-114195928D01*
X131204188Y-114051945D01*
X131387445Y-113868688D01*
X131531428Y-113653202D01*
X131630606Y-113413766D01*
X131635500Y-113389162D01*
X131640394Y-113413766D01*
X131739572Y-113653202D01*
X131883555Y-113868688D01*
X132066812Y-114051945D01*
X132282298Y-114195928D01*
X132521734Y-114295106D01*
X132775918Y-114345666D01*
X133035082Y-114345666D01*
X133289266Y-114295106D01*
X133528702Y-114195928D01*
X133744188Y-114051945D01*
X133927445Y-113868688D01*
X134071428Y-113653202D01*
X134170606Y-113413766D01*
X134175500Y-113389162D01*
X134180394Y-113413766D01*
X134279572Y-113653202D01*
X134423555Y-113868688D01*
X134606812Y-114051945D01*
X134822298Y-114195928D01*
X135061734Y-114295106D01*
X135315918Y-114345666D01*
X135575082Y-114345666D01*
X135829266Y-114295106D01*
X136068702Y-114195928D01*
X136284188Y-114051945D01*
X136467445Y-113868688D01*
X136611428Y-113653202D01*
X136710606Y-113413766D01*
X136761166Y-113159582D01*
X136761166Y-112900418D01*
X136710606Y-112646234D01*
X136611428Y-112406798D01*
X136467445Y-112191312D01*
X136455678Y-112179545D01*
X137016763Y-112179545D01*
X137016763Y-112320519D01*
X137044265Y-112458784D01*
X137098214Y-112589027D01*
X137176535Y-112706243D01*
X137276218Y-112805926D01*
X137393434Y-112884247D01*
X137523677Y-112938196D01*
X137661942Y-112965698D01*
X137802916Y-112965698D01*
X137941181Y-112938196D01*
X138071424Y-112884247D01*
X138188640Y-112805926D01*
X138288323Y-112706243D01*
X138355571Y-112605599D01*
X138405869Y-112605599D01*
X138544134Y-112578097D01*
X138551538Y-112575030D01*
X138566871Y-112597978D01*
X138666554Y-112697661D01*
X138783770Y-112775982D01*
X138914013Y-112829931D01*
X139052278Y-112857433D01*
X139193252Y-112857433D01*
X139298164Y-112836565D01*
X140174370Y-112836565D01*
X140174370Y-112977539D01*
X140201872Y-113115804D01*
X140255821Y-113246047D01*
X140334142Y-113363263D01*
X140433825Y-113462946D01*
X140551041Y-113541267D01*
X140681284Y-113595216D01*
X140819549Y-113622718D01*
X140960523Y-113622718D01*
X141098788Y-113595216D01*
X141210619Y-113548893D01*
X141211005Y-113549151D01*
X141341248Y-113603100D01*
X141479513Y-113630602D01*
X141620487Y-113630602D01*
X141758752Y-113603100D01*
X141888995Y-113549151D01*
X142006211Y-113470830D01*
X142105894Y-113371147D01*
X142184215Y-113253931D01*
X142238164Y-113123688D01*
X142265666Y-112985423D01*
X142265666Y-112844449D01*
X142238164Y-112706184D01*
X142184215Y-112575941D01*
X142105894Y-112458725D01*
X142006211Y-112359042D01*
X141888995Y-112280721D01*
X141758752Y-112226772D01*
X141620487Y-112199270D01*
X141479513Y-112199270D01*
X141341248Y-112226772D01*
X141229417Y-112273095D01*
X141229031Y-112272837D01*
X141098788Y-112218888D01*
X140960523Y-112191386D01*
X140819549Y-112191386D01*
X140681284Y-112218888D01*
X140551041Y-112272837D01*
X140433825Y-112351158D01*
X140334142Y-112450841D01*
X140255821Y-112568057D01*
X140201872Y-112698300D01*
X140174370Y-112836565D01*
X139298164Y-112836565D01*
X139331517Y-112829931D01*
X139461760Y-112775982D01*
X139578976Y-112697661D01*
X139678659Y-112597978D01*
X139756980Y-112480762D01*
X139810929Y-112350519D01*
X139838431Y-112212254D01*
X139838431Y-112071280D01*
X139810929Y-111933015D01*
X139756980Y-111802772D01*
X139678659Y-111685556D01*
X139578976Y-111585873D01*
X139461760Y-111507552D01*
X139331517Y-111453603D01*
X139193252Y-111426101D01*
X139052278Y-111426101D01*
X138914013Y-111453603D01*
X138906609Y-111456670D01*
X138891276Y-111433722D01*
X138791593Y-111334039D01*
X138674377Y-111255718D01*
X138544134Y-111201769D01*
X138405869Y-111174267D01*
X138264895Y-111174267D01*
X138126630Y-111201769D01*
X137996387Y-111255718D01*
X137879171Y-111334039D01*
X137779488Y-111433722D01*
X137712240Y-111534366D01*
X137661942Y-111534366D01*
X137523677Y-111561868D01*
X137393434Y-111615817D01*
X137276218Y-111694138D01*
X137176535Y-111793821D01*
X137098214Y-111911037D01*
X137044265Y-112041280D01*
X137016763Y-112179545D01*
X136455678Y-112179545D01*
X136284188Y-112008055D01*
X136068702Y-111864072D01*
X135829266Y-111764894D01*
X135575082Y-111714334D01*
X135315918Y-111714334D01*
X135061734Y-111764894D01*
X134822298Y-111864072D01*
X134606812Y-112008055D01*
X134423555Y-112191312D01*
X134279572Y-112406798D01*
X134180394Y-112646234D01*
X134175500Y-112670838D01*
X134170606Y-112646234D01*
X134071428Y-112406798D01*
X133927445Y-112191312D01*
X133744188Y-112008055D01*
X133528702Y-111864072D01*
X133289266Y-111764894D01*
X133035082Y-111714334D01*
X132775918Y-111714334D01*
X132521734Y-111764894D01*
X132282298Y-111864072D01*
X132066812Y-112008055D01*
X131883555Y-112191312D01*
X131739572Y-112406798D01*
X131640394Y-112646234D01*
X131635500Y-112670838D01*
X131630606Y-112646234D01*
X131531428Y-112406798D01*
X131387445Y-112191312D01*
X131204188Y-112008055D01*
X130988702Y-111864072D01*
X130749266Y-111764894D01*
X130495082Y-111714334D01*
X130235918Y-111714334D01*
X129981734Y-111764894D01*
X129742298Y-111864072D01*
X129526812Y-112008055D01*
X129343555Y-112191312D01*
X129199572Y-112406798D01*
X129100394Y-112646234D01*
X129095500Y-112670838D01*
X129090606Y-112646234D01*
X128991428Y-112406798D01*
X128847445Y-112191312D01*
X128664188Y-112008055D01*
X128448702Y-111864072D01*
X128209266Y-111764894D01*
X127955082Y-111714334D01*
X127695918Y-111714334D01*
X127441734Y-111764894D01*
X127202298Y-111864072D01*
X126986812Y-112008055D01*
X126803555Y-112191312D01*
X126659572Y-112406798D01*
X126560394Y-112646234D01*
X126555500Y-112670838D01*
X126550606Y-112646234D01*
X126451428Y-112406798D01*
X126307445Y-112191312D01*
X126124188Y-112008055D01*
X125908702Y-111864072D01*
X125669266Y-111764894D01*
X125415082Y-111714334D01*
X125155918Y-111714334D01*
X124901734Y-111764894D01*
X124662298Y-111864072D01*
X124446812Y-112008055D01*
X124263555Y-112191312D01*
X124119572Y-112406798D01*
X124020394Y-112646234D01*
X124015500Y-112670838D01*
X124010606Y-112646234D01*
X123911428Y-112406798D01*
X123767445Y-112191312D01*
X123584188Y-112008055D01*
X123368702Y-111864072D01*
X123129266Y-111764894D01*
X122875082Y-111714334D01*
X122615918Y-111714334D01*
X122361734Y-111764894D01*
X122122298Y-111864072D01*
X121906812Y-112008055D01*
X121723555Y-112191312D01*
X121579572Y-112406798D01*
X121523419Y-112542363D01*
X121523419Y-112180000D01*
X121514428Y-112088714D01*
X121487801Y-112000935D01*
X121444560Y-111920038D01*
X121386369Y-111849131D01*
X121315462Y-111790940D01*
X121234565Y-111747699D01*
X121146786Y-111721072D01*
X121055500Y-111712081D01*
X120841932Y-111712081D01*
X120868164Y-111648752D01*
X120895666Y-111510487D01*
X120895666Y-111369513D01*
X120868164Y-111231248D01*
X120814215Y-111101005D01*
X120735894Y-110983789D01*
X120636211Y-110884106D01*
X120518995Y-110805785D01*
X120388752Y-110751836D01*
X120250487Y-110724334D01*
X120109513Y-110724334D01*
X119971248Y-110751836D01*
X119841005Y-110805785D01*
X119723789Y-110884106D01*
X119624106Y-110983789D01*
X119545785Y-111101005D01*
X119491836Y-111231248D01*
X119464334Y-111369513D01*
X119464334Y-111510487D01*
X119491836Y-111648752D01*
X119518068Y-111712081D01*
X119355500Y-111712081D01*
X119264214Y-111721072D01*
X119176435Y-111747699D01*
X119095538Y-111790940D01*
X119024631Y-111849131D01*
X118973069Y-111911961D01*
X118888995Y-111855785D01*
X118758752Y-111801836D01*
X118620487Y-111774334D01*
X118479513Y-111774334D01*
X118341248Y-111801836D01*
X118211005Y-111855785D01*
X118093789Y-111934106D01*
X117994106Y-112033789D01*
X117915785Y-112151005D01*
X117861836Y-112281248D01*
X117834334Y-112419513D01*
X100540666Y-112419513D01*
X100540666Y-110469501D01*
X104594334Y-110469501D01*
X104594334Y-110610475D01*
X104621836Y-110748740D01*
X104675785Y-110878983D01*
X104754106Y-110996199D01*
X104853789Y-111095882D01*
X104971005Y-111174203D01*
X105101248Y-111228152D01*
X105239513Y-111255654D01*
X105380487Y-111255654D01*
X105518752Y-111228152D01*
X105648995Y-111174203D01*
X105766211Y-111095882D01*
X105865894Y-110996199D01*
X105944215Y-110878983D01*
X105998164Y-110748740D01*
X106025666Y-110610475D01*
X106025666Y-110469501D01*
X105998164Y-110331236D01*
X105944215Y-110200993D01*
X105865894Y-110083777D01*
X105766211Y-109984094D01*
X105648995Y-109905773D01*
X105518752Y-109851824D01*
X105380487Y-109824322D01*
X105239513Y-109824322D01*
X105101248Y-109851824D01*
X104971005Y-109905773D01*
X104853789Y-109984094D01*
X104754106Y-110083777D01*
X104675785Y-110200993D01*
X104621836Y-110331236D01*
X104594334Y-110469501D01*
X100540666Y-110469501D01*
X100540666Y-109619513D01*
X103284324Y-109619513D01*
X103284324Y-109760487D01*
X103311826Y-109898752D01*
X103365775Y-110028995D01*
X103444096Y-110146211D01*
X103543779Y-110245894D01*
X103660995Y-110324215D01*
X103791238Y-110378164D01*
X103929503Y-110405666D01*
X104070477Y-110405666D01*
X104208742Y-110378164D01*
X104338985Y-110324215D01*
X104456201Y-110245894D01*
X104555884Y-110146211D01*
X104634205Y-110028995D01*
X104688154Y-109898752D01*
X104715656Y-109760487D01*
X104715656Y-109619513D01*
X104688154Y-109481248D01*
X104634205Y-109351005D01*
X104555884Y-109233789D01*
X104456201Y-109134106D01*
X104449328Y-109129513D01*
X106584334Y-109129513D01*
X106584334Y-109270487D01*
X106611836Y-109408752D01*
X106665785Y-109538995D01*
X106744106Y-109656211D01*
X106843789Y-109755894D01*
X106961005Y-109834215D01*
X107091248Y-109888164D01*
X107229513Y-109915666D01*
X107370487Y-109915666D01*
X107508752Y-109888164D01*
X107638995Y-109834215D01*
X107756211Y-109755894D01*
X107855894Y-109656211D01*
X107934215Y-109538995D01*
X107988164Y-109408752D01*
X108015666Y-109270487D01*
X108015666Y-109129513D01*
X107988164Y-108991248D01*
X107934215Y-108861005D01*
X107855894Y-108743789D01*
X107841618Y-108729513D01*
X108084334Y-108729513D01*
X108084334Y-108870487D01*
X108111836Y-109008752D01*
X108165785Y-109138995D01*
X108244106Y-109256211D01*
X108343789Y-109355894D01*
X108461005Y-109434215D01*
X108591248Y-109488164D01*
X108729513Y-109515666D01*
X108870487Y-109515666D01*
X109008752Y-109488164D01*
X109138995Y-109434215D01*
X109235828Y-109369513D01*
X120254333Y-109369513D01*
X120254333Y-109510487D01*
X120281835Y-109648752D01*
X120335784Y-109778995D01*
X120414105Y-109896211D01*
X120513788Y-109995894D01*
X120631004Y-110074215D01*
X120761247Y-110128164D01*
X120899512Y-110155666D01*
X121040486Y-110155666D01*
X121178751Y-110128164D01*
X121308994Y-110074215D01*
X121426210Y-109995894D01*
X121436544Y-109985560D01*
X121449919Y-110005576D01*
X121584424Y-110140081D01*
X121742586Y-110245762D01*
X121918326Y-110318556D01*
X122104890Y-110355666D01*
X122295110Y-110355666D01*
X122481674Y-110318556D01*
X122657414Y-110245762D01*
X122815576Y-110140081D01*
X122835000Y-110120657D01*
X122854424Y-110140081D01*
X123012586Y-110245762D01*
X123188326Y-110318556D01*
X123374890Y-110355666D01*
X123565110Y-110355666D01*
X123751674Y-110318556D01*
X123927414Y-110245762D01*
X124085576Y-110140081D01*
X124105000Y-110120657D01*
X124124424Y-110140081D01*
X124282586Y-110245762D01*
X124458326Y-110318556D01*
X124644890Y-110355666D01*
X124835110Y-110355666D01*
X125021674Y-110318556D01*
X125197414Y-110245762D01*
X125355576Y-110140081D01*
X125375000Y-110120657D01*
X125394424Y-110140081D01*
X125552586Y-110245762D01*
X125728326Y-110318556D01*
X125914890Y-110355666D01*
X126105110Y-110355666D01*
X126291674Y-110318556D01*
X126467414Y-110245762D01*
X126625576Y-110140081D01*
X126645000Y-110120657D01*
X126664424Y-110140081D01*
X126822586Y-110245762D01*
X126998326Y-110318556D01*
X127184890Y-110355666D01*
X127375110Y-110355666D01*
X127561674Y-110318556D01*
X127737414Y-110245762D01*
X127895576Y-110140081D01*
X127915000Y-110120657D01*
X127934424Y-110140081D01*
X128092586Y-110245762D01*
X128268326Y-110318556D01*
X128454890Y-110355666D01*
X128645110Y-110355666D01*
X128831674Y-110318556D01*
X129007414Y-110245762D01*
X129165576Y-110140081D01*
X129185000Y-110120657D01*
X129204424Y-110140081D01*
X129362586Y-110245762D01*
X129538326Y-110318556D01*
X129724890Y-110355666D01*
X129915110Y-110355666D01*
X130101674Y-110318556D01*
X130277414Y-110245762D01*
X130435576Y-110140081D01*
X130455000Y-110120657D01*
X130474424Y-110140081D01*
X130632586Y-110245762D01*
X130808326Y-110318556D01*
X130994890Y-110355666D01*
X131185110Y-110355666D01*
X131371674Y-110318556D01*
X131547414Y-110245762D01*
X131554056Y-110241324D01*
X131600038Y-110279060D01*
X131680935Y-110322301D01*
X131768714Y-110348928D01*
X131860000Y-110357919D01*
X132860000Y-110357919D01*
X132951286Y-110348928D01*
X133039065Y-110322301D01*
X133119962Y-110279060D01*
X133190869Y-110220869D01*
X133249060Y-110149962D01*
X133292301Y-110069065D01*
X133318928Y-109981286D01*
X133327919Y-109890000D01*
X133327919Y-109089524D01*
X133342956Y-109083295D01*
X133460172Y-109004974D01*
X133559855Y-108905291D01*
X133638176Y-108788075D01*
X133688399Y-108666828D01*
X133809648Y-108616604D01*
X133926864Y-108538283D01*
X133991642Y-108473505D01*
X134020036Y-108479153D01*
X134041836Y-108588752D01*
X134095785Y-108718995D01*
X134174106Y-108836211D01*
X134182337Y-108844442D01*
X134160727Y-108953084D01*
X134160727Y-109094058D01*
X134188229Y-109232323D01*
X134242178Y-109362566D01*
X134320499Y-109479782D01*
X134420182Y-109579465D01*
X134537398Y-109657786D01*
X134667641Y-109711735D01*
X134805906Y-109739237D01*
X134946880Y-109739237D01*
X135085145Y-109711735D01*
X135215388Y-109657786D01*
X135332604Y-109579465D01*
X135432287Y-109479782D01*
X135464335Y-109431819D01*
X135464334Y-110013561D01*
X135454106Y-110023789D01*
X135375785Y-110141005D01*
X135321836Y-110271248D01*
X135294334Y-110409513D01*
X135294334Y-110550487D01*
X135321836Y-110688752D01*
X135375785Y-110818995D01*
X135454106Y-110936211D01*
X135553789Y-111035894D01*
X135671005Y-111114215D01*
X135801248Y-111168164D01*
X135939513Y-111195666D01*
X136080487Y-111195666D01*
X136218752Y-111168164D01*
X136348995Y-111114215D01*
X136466211Y-111035894D01*
X136473743Y-111028362D01*
X136492398Y-111063264D01*
X136600575Y-111195080D01*
X136732390Y-111303257D01*
X136882776Y-111383640D01*
X137045955Y-111433140D01*
X137215655Y-111449854D01*
X137385354Y-111433140D01*
X137548533Y-111383640D01*
X137698919Y-111303257D01*
X137830735Y-111195080D01*
X137938912Y-111063265D01*
X138019295Y-110912879D01*
X138068795Y-110749700D01*
X138081321Y-110622521D01*
X138081321Y-107899513D01*
X156104334Y-107899513D01*
X156104334Y-108040487D01*
X156131836Y-108178752D01*
X156185785Y-108308995D01*
X156264106Y-108426211D01*
X156363789Y-108525894D01*
X156481005Y-108604215D01*
X156611248Y-108658164D01*
X156749513Y-108685666D01*
X156890487Y-108685666D01*
X157028752Y-108658164D01*
X157158995Y-108604215D01*
X157276211Y-108525894D01*
X157375894Y-108426211D01*
X157454215Y-108308995D01*
X157508164Y-108178752D01*
X157535666Y-108040487D01*
X157535666Y-107899513D01*
X157508164Y-107761248D01*
X157454215Y-107631005D01*
X157375894Y-107513789D01*
X157276211Y-107414106D01*
X157158995Y-107335785D01*
X157028752Y-107281836D01*
X156890487Y-107254334D01*
X156749513Y-107254334D01*
X156611248Y-107281836D01*
X156481005Y-107335785D01*
X156363789Y-107414106D01*
X156264106Y-107513789D01*
X156185785Y-107631005D01*
X156131836Y-107761248D01*
X156104334Y-107899513D01*
X138081321Y-107899513D01*
X138081321Y-107539332D01*
X138085509Y-107496813D01*
X138076492Y-107405268D01*
X138068795Y-107327114D01*
X138019295Y-107163935D01*
X137938912Y-107013549D01*
X137830735Y-106881734D01*
X137797706Y-106854628D01*
X135410891Y-104467814D01*
X135312105Y-104386742D01*
X135161718Y-104306359D01*
X135056712Y-104274506D01*
X135038164Y-104181258D01*
X134984215Y-104051015D01*
X134905894Y-103933799D01*
X134806211Y-103834116D01*
X134688995Y-103755795D01*
X134558752Y-103701846D01*
X134420487Y-103674344D01*
X134279513Y-103674344D01*
X134141248Y-103701846D01*
X134011005Y-103755795D01*
X133925966Y-103812616D01*
X133923257Y-103807547D01*
X133815080Y-103675732D01*
X133783132Y-103649513D01*
X135224334Y-103649513D01*
X135224334Y-103790487D01*
X135251836Y-103928752D01*
X135305785Y-104058995D01*
X135384106Y-104176211D01*
X135483789Y-104275894D01*
X135601005Y-104354215D01*
X135731248Y-104408164D01*
X135869513Y-104435666D01*
X136010487Y-104435666D01*
X136148752Y-104408164D01*
X136278995Y-104354215D01*
X136396211Y-104275894D01*
X136495894Y-104176211D01*
X136574215Y-104058995D01*
X136628164Y-103928752D01*
X136643711Y-103850588D01*
X136719513Y-103865666D01*
X136860487Y-103865666D01*
X136998752Y-103838164D01*
X137128995Y-103784215D01*
X137246211Y-103705894D01*
X137345894Y-103606211D01*
X137424215Y-103488995D01*
X137478164Y-103358752D01*
X137505666Y-103220487D01*
X137505666Y-103079513D01*
X137478164Y-102941248D01*
X137424215Y-102811005D01*
X137423543Y-102810000D01*
X137424215Y-102808995D01*
X137478164Y-102678752D01*
X137505666Y-102540487D01*
X137505666Y-102399513D01*
X137478164Y-102261248D01*
X137424215Y-102131005D01*
X137398417Y-102092395D01*
X137461005Y-102134215D01*
X137591248Y-102188164D01*
X137729513Y-102215666D01*
X137870487Y-102215666D01*
X137939778Y-102201883D01*
X137993789Y-102255894D01*
X138111005Y-102334215D01*
X138165320Y-102356713D01*
X140366185Y-104557579D01*
X140387026Y-104582974D01*
X140412421Y-104603815D01*
X140488386Y-104666158D01*
X140604028Y-104727970D01*
X140729507Y-104766034D01*
X140827306Y-104775666D01*
X140827308Y-104775666D01*
X140860000Y-104778886D01*
X140892692Y-104775666D01*
X142688076Y-104775666D01*
X142707321Y-104788525D01*
X142846663Y-104846242D01*
X142994588Y-104875666D01*
X143145412Y-104875666D01*
X143293337Y-104846242D01*
X143432679Y-104788525D01*
X143558084Y-104704732D01*
X143664732Y-104598084D01*
X143748525Y-104472679D01*
X143806242Y-104333337D01*
X143835666Y-104185412D01*
X143835666Y-104034588D01*
X143806242Y-103886663D01*
X143748525Y-103747321D01*
X143735666Y-103728076D01*
X143735666Y-103517771D01*
X143743789Y-103525894D01*
X143861005Y-103604215D01*
X143991248Y-103658164D01*
X144129513Y-103685666D01*
X144270487Y-103685666D01*
X144385005Y-103662887D01*
X144331836Y-103791248D01*
X144304334Y-103929513D01*
X144304334Y-104070487D01*
X144331836Y-104208752D01*
X144385785Y-104338995D01*
X144464106Y-104456211D01*
X144511435Y-104503540D01*
X144494334Y-104589513D01*
X144494334Y-104730487D01*
X144517288Y-104845886D01*
X144514349Y-104848825D01*
X144436028Y-104966041D01*
X144382079Y-105096284D01*
X144354577Y-105234549D01*
X144354577Y-105375523D01*
X144382079Y-105513788D01*
X144436028Y-105644031D01*
X144514349Y-105761247D01*
X144614032Y-105860930D01*
X144704992Y-105921707D01*
X144671005Y-105935785D01*
X144553789Y-106014106D01*
X144454106Y-106113789D01*
X144375785Y-106231005D01*
X144321836Y-106361248D01*
X144294334Y-106499513D01*
X144294334Y-106640487D01*
X144321836Y-106778752D01*
X144375785Y-106908995D01*
X144454106Y-107026211D01*
X144553789Y-107125894D01*
X144671005Y-107204215D01*
X144801248Y-107258164D01*
X144939513Y-107285666D01*
X145080487Y-107285666D01*
X145218752Y-107258164D01*
X145348995Y-107204215D01*
X145466211Y-107125894D01*
X145492105Y-107100000D01*
X158973000Y-107100000D01*
X158973000Y-108300000D01*
X158975440Y-108324776D01*
X158982667Y-108348601D01*
X158994403Y-108370557D01*
X159010197Y-108389803D01*
X159029443Y-108405597D01*
X159051399Y-108417333D01*
X159075224Y-108424560D01*
X159100000Y-108427000D01*
X160300000Y-108427000D01*
X160324776Y-108424560D01*
X160348601Y-108417333D01*
X160370557Y-108405597D01*
X160389803Y-108389803D01*
X160405597Y-108370557D01*
X160417333Y-108348601D01*
X160424560Y-108324776D01*
X160427000Y-108300000D01*
X160427000Y-107100000D01*
X160424560Y-107075224D01*
X160417333Y-107051399D01*
X160405597Y-107029443D01*
X160389803Y-107010197D01*
X160370557Y-106994403D01*
X160348601Y-106982667D01*
X160324776Y-106975440D01*
X160300000Y-106973000D01*
X159100000Y-106973000D01*
X159075224Y-106975440D01*
X159051399Y-106982667D01*
X159029443Y-106994403D01*
X159010197Y-107010197D01*
X158994403Y-107029443D01*
X158982667Y-107051399D01*
X158975440Y-107075224D01*
X158973000Y-107100000D01*
X145492105Y-107100000D01*
X145565894Y-107026211D01*
X145644215Y-106908995D01*
X145698164Y-106778752D01*
X145725666Y-106640487D01*
X145725666Y-106499513D01*
X145698164Y-106361248D01*
X145644215Y-106231005D01*
X145565894Y-106113789D01*
X145466211Y-106014106D01*
X145375251Y-105953329D01*
X145409238Y-105939251D01*
X145526454Y-105860930D01*
X145626137Y-105761247D01*
X145704458Y-105644031D01*
X145758407Y-105513788D01*
X145785909Y-105375523D01*
X145785909Y-105234549D01*
X145762955Y-105119150D01*
X145765894Y-105116211D01*
X145844215Y-104998995D01*
X145898164Y-104868752D01*
X145925666Y-104730487D01*
X145925666Y-104589513D01*
X145898164Y-104451248D01*
X145844215Y-104321005D01*
X145765894Y-104203789D01*
X145718565Y-104156460D01*
X145735666Y-104070487D01*
X145735666Y-103929513D01*
X145709905Y-103800000D01*
X159173000Y-103800000D01*
X159173000Y-104900000D01*
X159175440Y-104924776D01*
X159182667Y-104948601D01*
X159194403Y-104970557D01*
X159210197Y-104989803D01*
X159229443Y-105005597D01*
X159251399Y-105017333D01*
X159275224Y-105024560D01*
X159300000Y-105027000D01*
X160000000Y-105027000D01*
X160024776Y-105024560D01*
X160048601Y-105017333D01*
X160070557Y-105005597D01*
X160089803Y-104989803D01*
X160105597Y-104970557D01*
X160117333Y-104948601D01*
X160124560Y-104924776D01*
X160127000Y-104900000D01*
X160127000Y-104061551D01*
X160191248Y-104088164D01*
X160329513Y-104115666D01*
X160470487Y-104115666D01*
X160608752Y-104088164D01*
X160738995Y-104034215D01*
X160773000Y-104011494D01*
X160773000Y-104700000D01*
X160775440Y-104724776D01*
X160782667Y-104748601D01*
X160794403Y-104770557D01*
X160810197Y-104789803D01*
X160829443Y-104805597D01*
X160851399Y-104817333D01*
X160875224Y-104824560D01*
X160900000Y-104827000D01*
X162000000Y-104827000D01*
X162024776Y-104824560D01*
X162048601Y-104817333D01*
X162070557Y-104805597D01*
X162089803Y-104789803D01*
X162105597Y-104770557D01*
X162117333Y-104748601D01*
X162124560Y-104724776D01*
X162127000Y-104700000D01*
X162127000Y-102400000D01*
X162473000Y-102400000D01*
X162473000Y-103100000D01*
X162475440Y-103124776D01*
X162482667Y-103148601D01*
X162494403Y-103170557D01*
X162510197Y-103189803D01*
X162529443Y-103205597D01*
X162551399Y-103217333D01*
X162575224Y-103224560D01*
X162600000Y-103227000D01*
X164300000Y-103227000D01*
X164324776Y-103224560D01*
X164348601Y-103217333D01*
X164370557Y-103205597D01*
X164389803Y-103189803D01*
X164405597Y-103170557D01*
X164417333Y-103148601D01*
X164424560Y-103124776D01*
X164427000Y-103100000D01*
X164427000Y-102400000D01*
X164424560Y-102375224D01*
X164417333Y-102351399D01*
X164405597Y-102329443D01*
X164389803Y-102310197D01*
X164370557Y-102294403D01*
X164348601Y-102282667D01*
X164324776Y-102275440D01*
X164300000Y-102273000D01*
X162600000Y-102273000D01*
X162575224Y-102275440D01*
X162551399Y-102282667D01*
X162529443Y-102294403D01*
X162510197Y-102310197D01*
X162494403Y-102329443D01*
X162482667Y-102351399D01*
X162475440Y-102375224D01*
X162473000Y-102400000D01*
X162127000Y-102400000D01*
X162127000Y-102200000D01*
X164973000Y-102200000D01*
X164973000Y-103300000D01*
X164975440Y-103324776D01*
X164982667Y-103348601D01*
X164994403Y-103370557D01*
X165010197Y-103389803D01*
X165029443Y-103405597D01*
X165051399Y-103417333D01*
X165075224Y-103424560D01*
X165100000Y-103427000D01*
X166300000Y-103427000D01*
X166324776Y-103424560D01*
X166348601Y-103417333D01*
X166370557Y-103405597D01*
X166389803Y-103389803D01*
X166405597Y-103370557D01*
X166417333Y-103348601D01*
X166424560Y-103324776D01*
X166427000Y-103300000D01*
X166427000Y-102200000D01*
X166424560Y-102175224D01*
X166417333Y-102151399D01*
X166405597Y-102129443D01*
X166389803Y-102110197D01*
X166370557Y-102094403D01*
X166348601Y-102082667D01*
X166324776Y-102075440D01*
X166300000Y-102073000D01*
X165100000Y-102073000D01*
X165075224Y-102075440D01*
X165051399Y-102082667D01*
X165029443Y-102094403D01*
X165010197Y-102110197D01*
X164994403Y-102129443D01*
X164982667Y-102151399D01*
X164975440Y-102175224D01*
X164973000Y-102200000D01*
X162127000Y-102200000D01*
X162124560Y-102175224D01*
X162117333Y-102151399D01*
X162105597Y-102129443D01*
X162089803Y-102110197D01*
X162070557Y-102094403D01*
X162048601Y-102082667D01*
X162024776Y-102075440D01*
X162000000Y-102073000D01*
X160900000Y-102073000D01*
X160875224Y-102075440D01*
X160851399Y-102082667D01*
X160829443Y-102094403D01*
X160810197Y-102110197D01*
X160794403Y-102129443D01*
X160782667Y-102151399D01*
X160775440Y-102175224D01*
X160773000Y-102200000D01*
X160773000Y-102788506D01*
X160738995Y-102765785D01*
X160608752Y-102711836D01*
X160470487Y-102684334D01*
X160329513Y-102684334D01*
X160191248Y-102711836D01*
X160061005Y-102765785D01*
X159943789Y-102844106D01*
X159844106Y-102943789D01*
X159765785Y-103061005D01*
X159711836Y-103191248D01*
X159684334Y-103329513D01*
X159684334Y-103470487D01*
X159711836Y-103608752D01*
X159738449Y-103673000D01*
X159300000Y-103673000D01*
X159275224Y-103675440D01*
X159251399Y-103682667D01*
X159229443Y-103694403D01*
X159210197Y-103710197D01*
X159194403Y-103729443D01*
X159182667Y-103751399D01*
X159175440Y-103775224D01*
X159173000Y-103800000D01*
X145709905Y-103800000D01*
X145708164Y-103791248D01*
X145654215Y-103661005D01*
X145575894Y-103543789D01*
X145476211Y-103444106D01*
X145358995Y-103365785D01*
X145228752Y-103311836D01*
X145090487Y-103284334D01*
X144949513Y-103284334D01*
X144834995Y-103307113D01*
X144888164Y-103178752D01*
X144915666Y-103040487D01*
X144915666Y-102995666D01*
X146884334Y-102995666D01*
X146884334Y-103070487D01*
X146911836Y-103208752D01*
X146965785Y-103338995D01*
X147044106Y-103456211D01*
X147143789Y-103555894D01*
X147261005Y-103634215D01*
X147391248Y-103688164D01*
X147529513Y-103715666D01*
X147670487Y-103715666D01*
X147808752Y-103688164D01*
X147938995Y-103634215D01*
X148056211Y-103555894D01*
X148155894Y-103456211D01*
X148234215Y-103338995D01*
X148288164Y-103208752D01*
X148315666Y-103070487D01*
X148315666Y-102995666D01*
X158353597Y-102995666D01*
X158375258Y-103028084D01*
X158481906Y-103134732D01*
X158607311Y-103218525D01*
X158746653Y-103276242D01*
X158894578Y-103305666D01*
X159045402Y-103305666D01*
X159193327Y-103276242D01*
X159332669Y-103218525D01*
X159458074Y-103134732D01*
X159564722Y-103028084D01*
X159648515Y-102902679D01*
X159706232Y-102763337D01*
X159735656Y-102615412D01*
X159735656Y-102464588D01*
X159706232Y-102316663D01*
X159648515Y-102177321D01*
X159564722Y-102051916D01*
X159458074Y-101945268D01*
X159332669Y-101861475D01*
X159193327Y-101803758D01*
X159159972Y-101797123D01*
X159131603Y-101773842D01*
X159015962Y-101712030D01*
X158890483Y-101673966D01*
X158792684Y-101664334D01*
X158792682Y-101664334D01*
X158759990Y-101661114D01*
X158727298Y-101664334D01*
X146760841Y-101664334D01*
X146766681Y-101650235D01*
X146794183Y-101511970D01*
X146794183Y-101370996D01*
X146766681Y-101232731D01*
X146712732Y-101102488D01*
X146634411Y-100985272D01*
X146534728Y-100885589D01*
X146417512Y-100807268D01*
X146287269Y-100753319D01*
X146149004Y-100725817D01*
X146008030Y-100725817D01*
X145869765Y-100753319D01*
X145739522Y-100807268D01*
X145622306Y-100885589D01*
X145522623Y-100985272D01*
X145444302Y-101102488D01*
X145390353Y-101232731D01*
X145362851Y-101370996D01*
X145362851Y-101511970D01*
X145390353Y-101650235D01*
X145396193Y-101664334D01*
X143822692Y-101664334D01*
X143790000Y-101661114D01*
X143757308Y-101664334D01*
X143757306Y-101664334D01*
X143659507Y-101673966D01*
X143544834Y-101708752D01*
X143534028Y-101712030D01*
X143418386Y-101773842D01*
X143349357Y-101830493D01*
X143317026Y-101857026D01*
X143296185Y-101882421D01*
X142622421Y-102556186D01*
X142597027Y-102577026D01*
X142576186Y-102602421D01*
X142576185Y-102602422D01*
X142513842Y-102678387D01*
X142452030Y-102794029D01*
X142413967Y-102919507D01*
X142401114Y-103050000D01*
X142404335Y-103082701D01*
X142404335Y-103444334D01*
X141135728Y-103444334D01*
X139852105Y-102160712D01*
X139920487Y-102160712D01*
X140058752Y-102133210D01*
X140188995Y-102079261D01*
X140306211Y-102000940D01*
X140405894Y-101901257D01*
X140484215Y-101784041D01*
X140538164Y-101653798D01*
X140565666Y-101515533D01*
X140565666Y-101374559D01*
X140538164Y-101236294D01*
X140484215Y-101106051D01*
X140405894Y-100988835D01*
X140306211Y-100889152D01*
X140188995Y-100810831D01*
X140058752Y-100756882D01*
X139920487Y-100729380D01*
X139779513Y-100729380D01*
X139641248Y-100756882D01*
X139511005Y-100810831D01*
X139393789Y-100889152D01*
X139294106Y-100988835D01*
X139215785Y-101106051D01*
X139161836Y-101236294D01*
X139134334Y-101374559D01*
X139134334Y-101442941D01*
X139106713Y-101415320D01*
X139084215Y-101361005D01*
X139005894Y-101243789D01*
X138906211Y-101144106D01*
X138788995Y-101065785D01*
X138658752Y-101011836D01*
X138520487Y-100984334D01*
X138379513Y-100984334D01*
X138310222Y-100998117D01*
X138256211Y-100944106D01*
X138138995Y-100865785D01*
X138008752Y-100811836D01*
X137870487Y-100784334D01*
X137729513Y-100784334D01*
X137591248Y-100811836D01*
X137461005Y-100865785D01*
X137343789Y-100944106D01*
X137244106Y-101043789D01*
X137165785Y-101161005D01*
X137111836Y-101291248D01*
X137084334Y-101429513D01*
X137084334Y-101570487D01*
X137111836Y-101708752D01*
X137165785Y-101838995D01*
X137191583Y-101877605D01*
X137128995Y-101835785D01*
X136998752Y-101781836D01*
X136860487Y-101754334D01*
X136719513Y-101754334D01*
X136581248Y-101781836D01*
X136451005Y-101835785D01*
X136333789Y-101914106D01*
X136234106Y-102013789D01*
X136155785Y-102131005D01*
X136108842Y-102244334D01*
X136079513Y-102244334D01*
X135941248Y-102271836D01*
X135811005Y-102325785D01*
X135693789Y-102404106D01*
X135594106Y-102503789D01*
X135515785Y-102621005D01*
X135461836Y-102751248D01*
X135434334Y-102889513D01*
X135434334Y-103030487D01*
X135461836Y-103168752D01*
X135466905Y-103180990D01*
X135384106Y-103263789D01*
X135305785Y-103381005D01*
X135251836Y-103511248D01*
X135224334Y-103649513D01*
X133783132Y-103649513D01*
X133683265Y-103567555D01*
X133532879Y-103487172D01*
X133369700Y-103437672D01*
X133242521Y-103425146D01*
X133049255Y-103425146D01*
X133220269Y-103297588D01*
X133415178Y-103081355D01*
X133564157Y-102831252D01*
X133661481Y-102556891D01*
X133540814Y-102327000D01*
X132347000Y-102327000D01*
X132347000Y-102347000D01*
X132093000Y-102347000D01*
X132093000Y-102327000D01*
X129807000Y-102327000D01*
X129807000Y-102347000D01*
X129553000Y-102347000D01*
X129553000Y-102327000D01*
X129533000Y-102327000D01*
X129533000Y-102073000D01*
X129553000Y-102073000D01*
X129553000Y-100879845D01*
X129807000Y-100879845D01*
X129807000Y-102073000D01*
X132093000Y-102073000D01*
X132093000Y-100879845D01*
X132347000Y-100879845D01*
X132347000Y-102073000D01*
X133540814Y-102073000D01*
X133661481Y-101843109D01*
X133564157Y-101568748D01*
X133415178Y-101318645D01*
X133220269Y-101102412D01*
X132986920Y-100928359D01*
X132724099Y-100803175D01*
X132576890Y-100758524D01*
X132347000Y-100879845D01*
X132093000Y-100879845D01*
X131863110Y-100758524D01*
X131715901Y-100803175D01*
X131453080Y-100928359D01*
X131219731Y-101102412D01*
X131024822Y-101318645D01*
X130950000Y-101444255D01*
X130875178Y-101318645D01*
X130680269Y-101102412D01*
X130446920Y-100928359D01*
X130184099Y-100803175D01*
X130036890Y-100758524D01*
X129807000Y-100879845D01*
X129553000Y-100879845D01*
X129323110Y-100758524D01*
X129175901Y-100803175D01*
X128913080Y-100928359D01*
X128679731Y-101102412D01*
X128484822Y-101318645D01*
X128335843Y-101568748D01*
X128320504Y-101611988D01*
X128305928Y-101576798D01*
X128161945Y-101361312D01*
X127978688Y-101178055D01*
X127763202Y-101034072D01*
X127523766Y-100934894D01*
X127269582Y-100884334D01*
X127010418Y-100884334D01*
X126756234Y-100934894D01*
X126516798Y-101034072D01*
X126301312Y-101178055D01*
X126118055Y-101361312D01*
X125974072Y-101576798D01*
X125917919Y-101712363D01*
X125917919Y-101350000D01*
X125908928Y-101258714D01*
X125882301Y-101170935D01*
X125839060Y-101090038D01*
X125780869Y-101019131D01*
X125709962Y-100960940D01*
X125629065Y-100917699D01*
X125541286Y-100891072D01*
X125450000Y-100882081D01*
X123750000Y-100882081D01*
X123658714Y-100891072D01*
X123570935Y-100917699D01*
X123490038Y-100960940D01*
X123419131Y-101019131D01*
X123360940Y-101090038D01*
X123317699Y-101170935D01*
X123291072Y-101258714D01*
X123282081Y-101350000D01*
X123282081Y-103050000D01*
X123291072Y-103141286D01*
X123317699Y-103229065D01*
X123360940Y-103309962D01*
X123419131Y-103380869D01*
X123490038Y-103439060D01*
X123570935Y-103482301D01*
X123658714Y-103508928D01*
X123750000Y-103517919D01*
X124693683Y-103517919D01*
X126015736Y-104839973D01*
X125944822Y-104918645D01*
X125917919Y-104963809D01*
X125917919Y-104950000D01*
X125908928Y-104858714D01*
X125882301Y-104770935D01*
X125839060Y-104690038D01*
X125780869Y-104619131D01*
X125709962Y-104560940D01*
X125629065Y-104517699D01*
X125541286Y-104491072D01*
X125450000Y-104482081D01*
X123750000Y-104482081D01*
X123658714Y-104491072D01*
X123570935Y-104517699D01*
X123490038Y-104560940D01*
X123419131Y-104619131D01*
X123360940Y-104690038D01*
X123317699Y-104770935D01*
X123291072Y-104858714D01*
X123282081Y-104950000D01*
X123282081Y-106650000D01*
X123291072Y-106741286D01*
X123317699Y-106829065D01*
X123360940Y-106909962D01*
X123419131Y-106980869D01*
X123490038Y-107039060D01*
X123570935Y-107082301D01*
X123658714Y-107108928D01*
X123750000Y-107117919D01*
X125450000Y-107117919D01*
X125541286Y-107108928D01*
X125629065Y-107082301D01*
X125709962Y-107039060D01*
X125780869Y-106980869D01*
X125839060Y-106909962D01*
X125882301Y-106829065D01*
X125908928Y-106741286D01*
X125917919Y-106650000D01*
X125917919Y-106636191D01*
X125944822Y-106681355D01*
X126139731Y-106897588D01*
X126373080Y-107071641D01*
X126635901Y-107196825D01*
X126783110Y-107241476D01*
X127013000Y-107120155D01*
X127013000Y-105927000D01*
X126993000Y-105927000D01*
X126993000Y-105673000D01*
X127013000Y-105673000D01*
X127013000Y-105653000D01*
X127267000Y-105653000D01*
X127267000Y-105673000D01*
X127287000Y-105673000D01*
X127287000Y-105927000D01*
X127267000Y-105927000D01*
X127267000Y-107120155D01*
X127496890Y-107241476D01*
X127644099Y-107196825D01*
X127906920Y-107071641D01*
X128140269Y-106897588D01*
X128335178Y-106681355D01*
X128484157Y-106431252D01*
X128499496Y-106388012D01*
X128514072Y-106423202D01*
X128658055Y-106638688D01*
X128841312Y-106821945D01*
X129056798Y-106965928D01*
X129296234Y-107065106D01*
X129550418Y-107115666D01*
X129809582Y-107115666D01*
X130063766Y-107065106D01*
X130303202Y-106965928D01*
X130518688Y-106821945D01*
X130701945Y-106638688D01*
X130845928Y-106423202D01*
X130945106Y-106183766D01*
X130950000Y-106159162D01*
X130954894Y-106183766D01*
X131054072Y-106423202D01*
X131198055Y-106638688D01*
X131295715Y-106736348D01*
X131225785Y-106841005D01*
X131171836Y-106971248D01*
X131144334Y-107109513D01*
X131144334Y-107250487D01*
X131171836Y-107388752D01*
X131225785Y-107518995D01*
X131304106Y-107636211D01*
X131403789Y-107735894D01*
X131521005Y-107814215D01*
X131651248Y-107868164D01*
X131789513Y-107895666D01*
X131930487Y-107895666D01*
X132068752Y-107868164D01*
X132198995Y-107814215D01*
X132316211Y-107735894D01*
X132326439Y-107725666D01*
X132802359Y-107725666D01*
X132786215Y-107764641D01*
X132664966Y-107814865D01*
X132547750Y-107893186D01*
X132448067Y-107992869D01*
X132369746Y-108110085D01*
X132315797Y-108240328D01*
X132288295Y-108378593D01*
X132288295Y-108422081D01*
X131860000Y-108422081D01*
X131768714Y-108431072D01*
X131680935Y-108457699D01*
X131600038Y-108500940D01*
X131554056Y-108538676D01*
X131547414Y-108534238D01*
X131371674Y-108461444D01*
X131185110Y-108424334D01*
X130994890Y-108424334D01*
X130808326Y-108461444D01*
X130632586Y-108534238D01*
X130474424Y-108639919D01*
X130455000Y-108659343D01*
X130435576Y-108639919D01*
X130277414Y-108534238D01*
X130101674Y-108461444D01*
X129915110Y-108424334D01*
X129724890Y-108424334D01*
X129538326Y-108461444D01*
X129362586Y-108534238D01*
X129204424Y-108639919D01*
X129185000Y-108659343D01*
X129165576Y-108639919D01*
X129007414Y-108534238D01*
X128831674Y-108461444D01*
X128645110Y-108424334D01*
X128454890Y-108424334D01*
X128268326Y-108461444D01*
X128092586Y-108534238D01*
X127934424Y-108639919D01*
X127915000Y-108659343D01*
X127895576Y-108639919D01*
X127737414Y-108534238D01*
X127561674Y-108461444D01*
X127375110Y-108424334D01*
X127184890Y-108424334D01*
X126998326Y-108461444D01*
X126822586Y-108534238D01*
X126664424Y-108639919D01*
X126645000Y-108659343D01*
X126625576Y-108639919D01*
X126467414Y-108534238D01*
X126291674Y-108461444D01*
X126105110Y-108424334D01*
X125914890Y-108424334D01*
X125728326Y-108461444D01*
X125552586Y-108534238D01*
X125394424Y-108639919D01*
X125375000Y-108659343D01*
X125355576Y-108639919D01*
X125229450Y-108555644D01*
X125280487Y-108555644D01*
X125418752Y-108528142D01*
X125548995Y-108474193D01*
X125666211Y-108395872D01*
X125765894Y-108296189D01*
X125844215Y-108178973D01*
X125898164Y-108048730D01*
X125925666Y-107910465D01*
X125925666Y-107769491D01*
X125898164Y-107631226D01*
X125844215Y-107500983D01*
X125765894Y-107383767D01*
X125666211Y-107284084D01*
X125548995Y-107205763D01*
X125418752Y-107151814D01*
X125280487Y-107124312D01*
X125139513Y-107124312D01*
X125001248Y-107151814D01*
X124871005Y-107205763D01*
X124753789Y-107284084D01*
X124654106Y-107383767D01*
X124575785Y-107500983D01*
X124521836Y-107631226D01*
X124494334Y-107769491D01*
X124494334Y-107910465D01*
X124521836Y-108048730D01*
X124575785Y-108178973D01*
X124654106Y-108296189D01*
X124753789Y-108395872D01*
X124796386Y-108424334D01*
X124644890Y-108424334D01*
X124458326Y-108461444D01*
X124282586Y-108534238D01*
X124124424Y-108639919D01*
X124105000Y-108659343D01*
X124085576Y-108639919D01*
X123927414Y-108534238D01*
X123751674Y-108461444D01*
X123565110Y-108424334D01*
X123374890Y-108424334D01*
X123188326Y-108461444D01*
X123012586Y-108534238D01*
X122854424Y-108639919D01*
X122835000Y-108659343D01*
X122815576Y-108639919D01*
X122657414Y-108534238D01*
X122481674Y-108461444D01*
X122295110Y-108424334D01*
X122104890Y-108424334D01*
X121918326Y-108461444D01*
X121742586Y-108534238D01*
X121584424Y-108639919D01*
X121449919Y-108774424D01*
X121391934Y-108861204D01*
X121308994Y-108805785D01*
X121178751Y-108751836D01*
X121040486Y-108724334D01*
X120899512Y-108724334D01*
X120761247Y-108751836D01*
X120631004Y-108805785D01*
X120513788Y-108884106D01*
X120414105Y-108983789D01*
X120335784Y-109101005D01*
X120281835Y-109231248D01*
X120254333Y-109369513D01*
X109235828Y-109369513D01*
X109256211Y-109355894D01*
X109355894Y-109256211D01*
X109434215Y-109138995D01*
X109488164Y-109008752D01*
X109515666Y-108870487D01*
X109515666Y-108729513D01*
X109488164Y-108591248D01*
X109434215Y-108461005D01*
X109355894Y-108343789D01*
X109256211Y-108244106D01*
X109138995Y-108165785D01*
X109008752Y-108111836D01*
X108870487Y-108084334D01*
X108729513Y-108084334D01*
X108591248Y-108111836D01*
X108461005Y-108165785D01*
X108343789Y-108244106D01*
X108244106Y-108343789D01*
X108165785Y-108461005D01*
X108111836Y-108591248D01*
X108084334Y-108729513D01*
X107841618Y-108729513D01*
X107756211Y-108644106D01*
X107638995Y-108565785D01*
X107508752Y-108511836D01*
X107370487Y-108484334D01*
X107229513Y-108484334D01*
X107091248Y-108511836D01*
X106961005Y-108565785D01*
X106843789Y-108644106D01*
X106744106Y-108743789D01*
X106665785Y-108861005D01*
X106611836Y-108991248D01*
X106584334Y-109129513D01*
X104449328Y-109129513D01*
X104338985Y-109055785D01*
X104208742Y-109001836D01*
X104070477Y-108974334D01*
X103929503Y-108974334D01*
X103791238Y-109001836D01*
X103660995Y-109055785D01*
X103543779Y-109134106D01*
X103444096Y-109233789D01*
X103365775Y-109351005D01*
X103311826Y-109481248D01*
X103284324Y-109619513D01*
X100540666Y-109619513D01*
X100540666Y-107924588D01*
X104734334Y-107924588D01*
X104734334Y-108075412D01*
X104763758Y-108223337D01*
X104821475Y-108362679D01*
X104905268Y-108488084D01*
X105011916Y-108594732D01*
X105137321Y-108678525D01*
X105276663Y-108736242D01*
X105424588Y-108765666D01*
X105575412Y-108765666D01*
X105723337Y-108736242D01*
X105862679Y-108678525D01*
X105988084Y-108594732D01*
X106094732Y-108488084D01*
X106178525Y-108362679D01*
X106236242Y-108223337D01*
X106265666Y-108075412D01*
X106265666Y-107924588D01*
X106236242Y-107776663D01*
X106178525Y-107637321D01*
X106094732Y-107511916D01*
X105988084Y-107405268D01*
X105862679Y-107321475D01*
X105723337Y-107263758D01*
X105575412Y-107234334D01*
X105424588Y-107234334D01*
X105276663Y-107263758D01*
X105137321Y-107321475D01*
X105011916Y-107405268D01*
X104905268Y-107511916D01*
X104821475Y-107637321D01*
X104763758Y-107776663D01*
X104734334Y-107924588D01*
X100540666Y-107924588D01*
X100540666Y-106689513D01*
X103564334Y-106689513D01*
X103564334Y-106830487D01*
X103591836Y-106968752D01*
X103645785Y-107098995D01*
X103724106Y-107216211D01*
X103823789Y-107315894D01*
X103941005Y-107394215D01*
X104071248Y-107448164D01*
X104209513Y-107475666D01*
X104350487Y-107475666D01*
X104488752Y-107448164D01*
X104618995Y-107394215D01*
X104736211Y-107315894D01*
X104835894Y-107216211D01*
X104914215Y-107098995D01*
X104968164Y-106968752D01*
X104995666Y-106830487D01*
X104995666Y-106729513D01*
X110284334Y-106729513D01*
X110284334Y-106870487D01*
X110311836Y-107008752D01*
X110365785Y-107138995D01*
X110444106Y-107256211D01*
X110543789Y-107355894D01*
X110661005Y-107434215D01*
X110791248Y-107488164D01*
X110929513Y-107515666D01*
X111070487Y-107515666D01*
X111208752Y-107488164D01*
X111338995Y-107434215D01*
X111456211Y-107355894D01*
X111555894Y-107256211D01*
X111634215Y-107138995D01*
X111688164Y-107008752D01*
X111715666Y-106870487D01*
X111715666Y-106729513D01*
X111688164Y-106591248D01*
X111634215Y-106461005D01*
X111555894Y-106343789D01*
X111536693Y-106324588D01*
X113434334Y-106324588D01*
X113434334Y-106475412D01*
X113463758Y-106623337D01*
X113521475Y-106762679D01*
X113605268Y-106888084D01*
X113711916Y-106994732D01*
X113837321Y-107078525D01*
X113976663Y-107136242D01*
X114124588Y-107165666D01*
X114275412Y-107165666D01*
X114423337Y-107136242D01*
X114562679Y-107078525D01*
X114600000Y-107053588D01*
X114637321Y-107078525D01*
X114776663Y-107136242D01*
X114924588Y-107165666D01*
X115075412Y-107165666D01*
X115223337Y-107136242D01*
X115362679Y-107078525D01*
X115488084Y-106994732D01*
X115594732Y-106888084D01*
X115678525Y-106762679D01*
X115736242Y-106623337D01*
X115761851Y-106494588D01*
X116384334Y-106494588D01*
X116384334Y-106645412D01*
X116413758Y-106793337D01*
X116471475Y-106932679D01*
X116555268Y-107058084D01*
X116661916Y-107164732D01*
X116787321Y-107248525D01*
X116926663Y-107306242D01*
X117074588Y-107335666D01*
X117225412Y-107335666D01*
X117373337Y-107306242D01*
X117480000Y-107262061D01*
X117586663Y-107306242D01*
X117734588Y-107335666D01*
X117885412Y-107335666D01*
X118033337Y-107306242D01*
X118172679Y-107248525D01*
X118298084Y-107164732D01*
X118404732Y-107058084D01*
X118488525Y-106932679D01*
X118546242Y-106793337D01*
X118575666Y-106645412D01*
X118575666Y-106494588D01*
X118546242Y-106346663D01*
X118488525Y-106207321D01*
X118416073Y-106098889D01*
X118511916Y-106194732D01*
X118637321Y-106278525D01*
X118776663Y-106336242D01*
X118924588Y-106365666D01*
X119075412Y-106365666D01*
X119223337Y-106336242D01*
X119362679Y-106278525D01*
X119488084Y-106194732D01*
X119594732Y-106088084D01*
X119678525Y-105962679D01*
X119736242Y-105823337D01*
X119765666Y-105675412D01*
X119765666Y-105524588D01*
X119736242Y-105376663D01*
X119704286Y-105299513D01*
X121334324Y-105299513D01*
X121334324Y-105440487D01*
X121361826Y-105578752D01*
X121415775Y-105708995D01*
X121494096Y-105826211D01*
X121593779Y-105925894D01*
X121710995Y-106004215D01*
X121841238Y-106058164D01*
X121979503Y-106085666D01*
X122120477Y-106085666D01*
X122258742Y-106058164D01*
X122388985Y-106004215D01*
X122506201Y-105925894D01*
X122605884Y-105826211D01*
X122684205Y-105708995D01*
X122738154Y-105578752D01*
X122765656Y-105440487D01*
X122765656Y-105299513D01*
X122738154Y-105161248D01*
X122684205Y-105031005D01*
X122605884Y-104913789D01*
X122506201Y-104814106D01*
X122388985Y-104735785D01*
X122258742Y-104681836D01*
X122120477Y-104654334D01*
X121979503Y-104654334D01*
X121841238Y-104681836D01*
X121710995Y-104735785D01*
X121593779Y-104814106D01*
X121494096Y-104913789D01*
X121415775Y-105031005D01*
X121361826Y-105161248D01*
X121334324Y-105299513D01*
X119704286Y-105299513D01*
X119678525Y-105237321D01*
X119594732Y-105111916D01*
X119488084Y-105005268D01*
X119362679Y-104921475D01*
X119223337Y-104863758D01*
X119075412Y-104834334D01*
X118924588Y-104834334D01*
X118776663Y-104863758D01*
X118637321Y-104921475D01*
X118545666Y-104982717D01*
X118545666Y-104899513D01*
X118518164Y-104761248D01*
X118464215Y-104631005D01*
X118385894Y-104513789D01*
X118286211Y-104414106D01*
X118168995Y-104335785D01*
X118038752Y-104281836D01*
X117912116Y-104256647D01*
X117864215Y-104141005D01*
X117785894Y-104023789D01*
X117686211Y-103924106D01*
X117568995Y-103845785D01*
X117438752Y-103791836D01*
X117300487Y-103764334D01*
X117159513Y-103764334D01*
X117021248Y-103791836D01*
X116891005Y-103845785D01*
X116773789Y-103924106D01*
X116674106Y-104023789D01*
X116595785Y-104141005D01*
X116541836Y-104271248D01*
X116514334Y-104409513D01*
X116514334Y-104550487D01*
X116541836Y-104688752D01*
X116595785Y-104818995D01*
X116674106Y-104936211D01*
X116773789Y-105035894D01*
X116891005Y-105114215D01*
X117021248Y-105168164D01*
X117147884Y-105193353D01*
X117195785Y-105308995D01*
X117274106Y-105426211D01*
X117373789Y-105525894D01*
X117491005Y-105604215D01*
X117621248Y-105658164D01*
X117759513Y-105685666D01*
X117900487Y-105685666D01*
X118038752Y-105658164D01*
X118168995Y-105604215D01*
X118234334Y-105560557D01*
X118234334Y-105675412D01*
X118263758Y-105823337D01*
X118321475Y-105962679D01*
X118393927Y-106071111D01*
X118298084Y-105975268D01*
X118172679Y-105891475D01*
X118033337Y-105833758D01*
X117885412Y-105804334D01*
X117734588Y-105804334D01*
X117586663Y-105833758D01*
X117480000Y-105877939D01*
X117373337Y-105833758D01*
X117225412Y-105804334D01*
X117074588Y-105804334D01*
X116926663Y-105833758D01*
X116787321Y-105891475D01*
X116661916Y-105975268D01*
X116555268Y-106081916D01*
X116471475Y-106207321D01*
X116413758Y-106346663D01*
X116384334Y-106494588D01*
X115761851Y-106494588D01*
X115765666Y-106475412D01*
X115765666Y-106324588D01*
X115736242Y-106176663D01*
X115678525Y-106037321D01*
X115594732Y-105911916D01*
X115488084Y-105805268D01*
X115362679Y-105721475D01*
X115223337Y-105663758D01*
X115075412Y-105634334D01*
X114924588Y-105634334D01*
X114776663Y-105663758D01*
X114637321Y-105721475D01*
X114600000Y-105746412D01*
X114562679Y-105721475D01*
X114423337Y-105663758D01*
X114275412Y-105634334D01*
X114124588Y-105634334D01*
X113976663Y-105663758D01*
X113837321Y-105721475D01*
X113711916Y-105805268D01*
X113605268Y-105911916D01*
X113521475Y-106037321D01*
X113463758Y-106176663D01*
X113434334Y-106324588D01*
X111536693Y-106324588D01*
X111456211Y-106244106D01*
X111338995Y-106165785D01*
X111208752Y-106111836D01*
X111070487Y-106084334D01*
X110929513Y-106084334D01*
X110791248Y-106111836D01*
X110661005Y-106165785D01*
X110543789Y-106244106D01*
X110444106Y-106343789D01*
X110365785Y-106461005D01*
X110311836Y-106591248D01*
X110284334Y-106729513D01*
X104995666Y-106729513D01*
X104995666Y-106689513D01*
X104968164Y-106551248D01*
X104932566Y-106465307D01*
X105018752Y-106448164D01*
X105148995Y-106394215D01*
X105266211Y-106315894D01*
X105365894Y-106216211D01*
X105444215Y-106098995D01*
X105498164Y-105968752D01*
X105525666Y-105830487D01*
X105525666Y-105689513D01*
X105498164Y-105551248D01*
X105444215Y-105421005D01*
X105365894Y-105303789D01*
X105266211Y-105204106D01*
X105148995Y-105125785D01*
X105018752Y-105071836D01*
X104880487Y-105044334D01*
X104739513Y-105044334D01*
X104601248Y-105071836D01*
X104471005Y-105125785D01*
X104353789Y-105204106D01*
X104254106Y-105303789D01*
X104175785Y-105421005D01*
X104121836Y-105551248D01*
X104094334Y-105689513D01*
X104094334Y-105830487D01*
X104121836Y-105968752D01*
X104157434Y-106054693D01*
X104071248Y-106071836D01*
X103941005Y-106125785D01*
X103823789Y-106204106D01*
X103724106Y-106303789D01*
X103645785Y-106421005D01*
X103591836Y-106551248D01*
X103564334Y-106689513D01*
X100540666Y-106689513D01*
X100540666Y-103475000D01*
X113029420Y-103475000D01*
X113049030Y-103674105D01*
X113107107Y-103865559D01*
X113201419Y-104042004D01*
X113328341Y-104196659D01*
X113482996Y-104323581D01*
X113659441Y-104417893D01*
X113850895Y-104475970D01*
X114000107Y-104490666D01*
X114799893Y-104490666D01*
X114949105Y-104475970D01*
X115140559Y-104417893D01*
X115317004Y-104323581D01*
X115471659Y-104196659D01*
X115598581Y-104042004D01*
X115692893Y-103865559D01*
X115750970Y-103674105D01*
X115770580Y-103475000D01*
X118629420Y-103475000D01*
X118649030Y-103674105D01*
X118707107Y-103865559D01*
X118801419Y-104042004D01*
X118928341Y-104196659D01*
X119082996Y-104323581D01*
X119259441Y-104417893D01*
X119450895Y-104475970D01*
X119600107Y-104490666D01*
X120399893Y-104490666D01*
X120549105Y-104475970D01*
X120740559Y-104417893D01*
X120917004Y-104323581D01*
X121071659Y-104196659D01*
X121198581Y-104042004D01*
X121292893Y-103865559D01*
X121350970Y-103674105D01*
X121370580Y-103475000D01*
X121350970Y-103275895D01*
X121292893Y-103084441D01*
X121198581Y-102907996D01*
X121071659Y-102753341D01*
X120917004Y-102626419D01*
X120740559Y-102532107D01*
X120549105Y-102474030D01*
X120399893Y-102459334D01*
X119600107Y-102459334D01*
X119450895Y-102474030D01*
X119259441Y-102532107D01*
X119082996Y-102626419D01*
X118928341Y-102753341D01*
X118801419Y-102907996D01*
X118707107Y-103084441D01*
X118649030Y-103275895D01*
X118629420Y-103475000D01*
X115770580Y-103475000D01*
X115750970Y-103275895D01*
X115692893Y-103084441D01*
X115598581Y-102907996D01*
X115471659Y-102753341D01*
X115317004Y-102626419D01*
X115140559Y-102532107D01*
X114949105Y-102474030D01*
X114799893Y-102459334D01*
X114000107Y-102459334D01*
X113850895Y-102474030D01*
X113659441Y-102532107D01*
X113482996Y-102626419D01*
X113328341Y-102753341D01*
X113201419Y-102907996D01*
X113107107Y-103084441D01*
X113049030Y-103275895D01*
X113029420Y-103475000D01*
X100540666Y-103475000D01*
X100540666Y-102294588D01*
X104364334Y-102294588D01*
X104364334Y-102445412D01*
X104393758Y-102593337D01*
X104451475Y-102732679D01*
X104535268Y-102858084D01*
X104641916Y-102964732D01*
X104767321Y-103048525D01*
X104906663Y-103106242D01*
X105054588Y-103135666D01*
X105205412Y-103135666D01*
X105353337Y-103106242D01*
X105492679Y-103048525D01*
X105618084Y-102964732D01*
X105724732Y-102858084D01*
X105808525Y-102732679D01*
X105866242Y-102593337D01*
X105895666Y-102445412D01*
X105895666Y-102294588D01*
X105866242Y-102146663D01*
X105808525Y-102007321D01*
X105724732Y-101881916D01*
X105618084Y-101775268D01*
X105492679Y-101691475D01*
X105353337Y-101633758D01*
X105205412Y-101604334D01*
X105054588Y-101604334D01*
X104906663Y-101633758D01*
X104767321Y-101691475D01*
X104641916Y-101775268D01*
X104535268Y-101881916D01*
X104451475Y-102007321D01*
X104393758Y-102146663D01*
X104364334Y-102294588D01*
X100540666Y-102294588D01*
X100540666Y-102026447D01*
X100571003Y-101717047D01*
X100653176Y-101444878D01*
X100786648Y-101193854D01*
X100966340Y-100973531D01*
X101185403Y-100792305D01*
X101435488Y-100657085D01*
X101707084Y-100573012D01*
X102014837Y-100540666D01*
X116004711Y-100540666D01*
X115928341Y-100603341D01*
G37*
G04 #@! TD.AperFunction*
M02*
