G04 #@! TF.GenerationSoftware,KiCad,Pcbnew,(5.1.9)-1*
G04 #@! TF.CreationDate,2021-02-01T18:23:16+11:00*
G04 #@! TF.ProjectId,BoSLnano,426f534c-6e61-46e6-9f2e-6b696361645f,0.4.2*
G04 #@! TF.SameCoordinates,Original*
G04 #@! TF.FileFunction,Soldermask,Bot*
G04 #@! TF.FilePolarity,Negative*
%FSLAX46Y46*%
G04 Gerber Fmt 4.6, Leading zero omitted, Abs format (unit mm)*
G04 Created by KiCad (PCBNEW (5.1.9)-1) date 2021-02-01 18:23:16*
%MOMM*%
%LPD*%
G01*
G04 APERTURE LIST*
%ADD10O,2.600000X1.500000*%
%ADD11O,2.200000X1.500000*%
%ADD12O,1.400000X1.400000*%
%ADD13O,2.100000X2.100000*%
%ADD14C,0.240000*%
G04 APERTURE END LIST*
D10*
X117200000Y-101325000D03*
D11*
X114400000Y-103475000D03*
X120000000Y-103475000D03*
D12*
X122200000Y-109390000D03*
X123470000Y-109390000D03*
X124740000Y-109390000D03*
X126010000Y-109390000D03*
X127280000Y-109390000D03*
X128550000Y-109390000D03*
X129820000Y-109390000D03*
X131090000Y-109390000D03*
G36*
G01*
X131860000Y-108690000D02*
X132860000Y-108690000D01*
G75*
G02*
X133060000Y-108890000I0J-200000D01*
G01*
X133060000Y-109890000D01*
G75*
G02*
X132860000Y-110090000I-200000J0D01*
G01*
X131860000Y-110090000D01*
G75*
G02*
X131660000Y-109890000I0J200000D01*
G01*
X131660000Y-108890000D01*
G75*
G02*
X131860000Y-108690000I200000J0D01*
G01*
G37*
D13*
X135445500Y-113030000D03*
X132905500Y-113030000D03*
X130365500Y-113030000D03*
X127825500Y-113030000D03*
X125285500Y-113030000D03*
X122745500Y-113030000D03*
G36*
G01*
X121055500Y-114080000D02*
X119355500Y-114080000D01*
G75*
G02*
X119155500Y-113880000I0J200000D01*
G01*
X119155500Y-112180000D01*
G75*
G02*
X119355500Y-111980000I200000J0D01*
G01*
X121055500Y-111980000D01*
G75*
G02*
X121255500Y-112180000I0J-200000D01*
G01*
X121255500Y-113880000D01*
G75*
G02*
X121055500Y-114080000I-200000J0D01*
G01*
G37*
X132220000Y-105800000D03*
X129680000Y-105800000D03*
X127140000Y-105800000D03*
G36*
G01*
X125450000Y-106850000D02*
X123750000Y-106850000D01*
G75*
G02*
X123550000Y-106650000I0J200000D01*
G01*
X123550000Y-104950000D01*
G75*
G02*
X123750000Y-104750000I200000J0D01*
G01*
X125450000Y-104750000D01*
G75*
G02*
X125650000Y-104950000I0J-200000D01*
G01*
X125650000Y-106650000D01*
G75*
G02*
X125450000Y-106850000I-200000J0D01*
G01*
G37*
G36*
G01*
X125450000Y-103250000D02*
X123750000Y-103250000D01*
G75*
G02*
X123550000Y-103050000I0J200000D01*
G01*
X123550000Y-101350000D01*
G75*
G02*
X123750000Y-101150000I200000J0D01*
G01*
X125450000Y-101150000D01*
G75*
G02*
X125650000Y-101350000I0J-200000D01*
G01*
X125650000Y-103050000D01*
G75*
G02*
X125450000Y-103250000I-200000J0D01*
G01*
G37*
X127140000Y-102200000D03*
X129680000Y-102200000D03*
X132220000Y-102200000D03*
G36*
G01*
X114740000Y-109995000D02*
X114740000Y-110565000D01*
G75*
G02*
X114505000Y-110800000I-235000J0D01*
G01*
X114035000Y-110800000D01*
G75*
G02*
X113800000Y-110565000I0J235000D01*
G01*
X113800000Y-109995000D01*
G75*
G02*
X114035000Y-109760000I235000J0D01*
G01*
X114505000Y-109760000D01*
G75*
G02*
X114740000Y-109995000I0J-235000D01*
G01*
G37*
G36*
G01*
X115760000Y-109995000D02*
X115760000Y-110565000D01*
G75*
G02*
X115525000Y-110800000I-235000J0D01*
G01*
X115055000Y-110800000D01*
G75*
G02*
X114820000Y-110565000I0J235000D01*
G01*
X114820000Y-109995000D01*
G75*
G02*
X115055000Y-109760000I235000J0D01*
G01*
X115525000Y-109760000D01*
G75*
G02*
X115760000Y-109995000I0J-235000D01*
G01*
G37*
D14*
X115625000Y-106575000D03*
X115975000Y-106575000D03*
X115625000Y-106225000D03*
X115975000Y-106225000D03*
X118825000Y-106225000D03*
X118825000Y-106575000D03*
X119175000Y-106225000D03*
X119175000Y-106575000D03*
G36*
G01*
X144250000Y-111300000D02*
X144250000Y-113100000D01*
G75*
G02*
X144050000Y-113300000I-200000J0D01*
G01*
X143050000Y-113300000D01*
G75*
G02*
X142850000Y-113100000I0J200000D01*
G01*
X142850000Y-111300000D01*
G75*
G02*
X143050000Y-111100000I200000J0D01*
G01*
X144050000Y-111100000D01*
G75*
G02*
X144250000Y-111300000I0J-200000D01*
G01*
G37*
G36*
G01*
X146750000Y-111300000D02*
X146750000Y-113100000D01*
G75*
G02*
X146550000Y-113300000I-200000J0D01*
G01*
X145550000Y-113300000D01*
G75*
G02*
X145350000Y-113100000I0J200000D01*
G01*
X145350000Y-111300000D01*
G75*
G02*
X145550000Y-111100000I200000J0D01*
G01*
X146550000Y-111100000D01*
G75*
G02*
X146750000Y-111300000I0J-200000D01*
G01*
G37*
G36*
G01*
X159350000Y-113575000D02*
X159750000Y-113575000D01*
G75*
G02*
X159950000Y-113775000I0J-200000D01*
G01*
X159950000Y-114425000D01*
G75*
G02*
X159750000Y-114625000I-200000J0D01*
G01*
X159350000Y-114625000D01*
G75*
G02*
X159150000Y-114425000I0J200000D01*
G01*
X159150000Y-113775000D01*
G75*
G02*
X159350000Y-113575000I200000J0D01*
G01*
G37*
G36*
G01*
X160650000Y-113575000D02*
X161050000Y-113575000D01*
G75*
G02*
X161250000Y-113775000I0J-200000D01*
G01*
X161250000Y-114425000D01*
G75*
G02*
X161050000Y-114625000I-200000J0D01*
G01*
X160650000Y-114625000D01*
G75*
G02*
X160450000Y-114425000I0J200000D01*
G01*
X160450000Y-113775000D01*
G75*
G02*
X160650000Y-113575000I200000J0D01*
G01*
G37*
G36*
G01*
X160000000Y-111675000D02*
X160400000Y-111675000D01*
G75*
G02*
X160600000Y-111875000I0J-200000D01*
G01*
X160600000Y-112525000D01*
G75*
G02*
X160400000Y-112725000I-200000J0D01*
G01*
X160000000Y-112725000D01*
G75*
G02*
X159800000Y-112525000I0J200000D01*
G01*
X159800000Y-111875000D01*
G75*
G02*
X160000000Y-111675000I200000J0D01*
G01*
G37*
G36*
G01*
X160650000Y-111675000D02*
X161050000Y-111675000D01*
G75*
G02*
X161250000Y-111875000I0J-200000D01*
G01*
X161250000Y-112525000D01*
G75*
G02*
X161050000Y-112725000I-200000J0D01*
G01*
X160650000Y-112725000D01*
G75*
G02*
X160450000Y-112525000I0J200000D01*
G01*
X160450000Y-111875000D01*
G75*
G02*
X160650000Y-111675000I200000J0D01*
G01*
G37*
G36*
G01*
X159350000Y-111675000D02*
X159750000Y-111675000D01*
G75*
G02*
X159950000Y-111875000I0J-200000D01*
G01*
X159950000Y-112525000D01*
G75*
G02*
X159750000Y-112725000I-200000J0D01*
G01*
X159350000Y-112725000D01*
G75*
G02*
X159150000Y-112525000I0J200000D01*
G01*
X159150000Y-111875000D01*
G75*
G02*
X159350000Y-111675000I200000J0D01*
G01*
G37*
G36*
G01*
X164775000Y-110200000D02*
X164375000Y-110200000D01*
G75*
G02*
X164175000Y-110000000I0J200000D01*
G01*
X164175000Y-108900000D01*
G75*
G02*
X164375000Y-108700000I200000J0D01*
G01*
X164775000Y-108700000D01*
G75*
G02*
X164975000Y-108900000I0J-200000D01*
G01*
X164975000Y-110000000D01*
G75*
G02*
X164775000Y-110200000I-200000J0D01*
G01*
G37*
G36*
G01*
X164125000Y-110200000D02*
X163725000Y-110200000D01*
G75*
G02*
X163525000Y-110000000I0J200000D01*
G01*
X163525000Y-108900000D01*
G75*
G02*
X163725000Y-108700000I200000J0D01*
G01*
X164125000Y-108700000D01*
G75*
G02*
X164325000Y-108900000I0J-200000D01*
G01*
X164325000Y-110000000D01*
G75*
G02*
X164125000Y-110200000I-200000J0D01*
G01*
G37*
G36*
G01*
X163475000Y-110200000D02*
X163075000Y-110200000D01*
G75*
G02*
X162875000Y-110000000I0J200000D01*
G01*
X162875000Y-108900000D01*
G75*
G02*
X163075000Y-108700000I200000J0D01*
G01*
X163475000Y-108700000D01*
G75*
G02*
X163675000Y-108900000I0J-200000D01*
G01*
X163675000Y-110000000D01*
G75*
G02*
X163475000Y-110200000I-200000J0D01*
G01*
G37*
G36*
G01*
X162825000Y-110200000D02*
X162425000Y-110200000D01*
G75*
G02*
X162225000Y-110000000I0J200000D01*
G01*
X162225000Y-108900000D01*
G75*
G02*
X162425000Y-108700000I200000J0D01*
G01*
X162825000Y-108700000D01*
G75*
G02*
X163025000Y-108900000I0J-200000D01*
G01*
X163025000Y-110000000D01*
G75*
G02*
X162825000Y-110200000I-200000J0D01*
G01*
G37*
G36*
G01*
X162825000Y-114500000D02*
X162425000Y-114500000D01*
G75*
G02*
X162225000Y-114300000I0J200000D01*
G01*
X162225000Y-113200000D01*
G75*
G02*
X162425000Y-113000000I200000J0D01*
G01*
X162825000Y-113000000D01*
G75*
G02*
X163025000Y-113200000I0J-200000D01*
G01*
X163025000Y-114300000D01*
G75*
G02*
X162825000Y-114500000I-200000J0D01*
G01*
G37*
G36*
G01*
X163475000Y-114500000D02*
X163075000Y-114500000D01*
G75*
G02*
X162875000Y-114300000I0J200000D01*
G01*
X162875000Y-113200000D01*
G75*
G02*
X163075000Y-113000000I200000J0D01*
G01*
X163475000Y-113000000D01*
G75*
G02*
X163675000Y-113200000I0J-200000D01*
G01*
X163675000Y-114300000D01*
G75*
G02*
X163475000Y-114500000I-200000J0D01*
G01*
G37*
G36*
G01*
X164125000Y-114500000D02*
X163725000Y-114500000D01*
G75*
G02*
X163525000Y-114300000I0J200000D01*
G01*
X163525000Y-113200000D01*
G75*
G02*
X163725000Y-113000000I200000J0D01*
G01*
X164125000Y-113000000D01*
G75*
G02*
X164325000Y-113200000I0J-200000D01*
G01*
X164325000Y-114300000D01*
G75*
G02*
X164125000Y-114500000I-200000J0D01*
G01*
G37*
G36*
G01*
X164775000Y-114500000D02*
X164375000Y-114500000D01*
G75*
G02*
X164175000Y-114300000I0J200000D01*
G01*
X164175000Y-113200000D01*
G75*
G02*
X164375000Y-113000000I200000J0D01*
G01*
X164775000Y-113000000D01*
G75*
G02*
X164975000Y-113200000I0J-200000D01*
G01*
X164975000Y-114300000D01*
G75*
G02*
X164775000Y-114500000I-200000J0D01*
G01*
G37*
G36*
G01*
X144854773Y-106032575D02*
X144183021Y-106704327D01*
G75*
G02*
X143953211Y-106704327I-114905J114905D01*
G01*
X143723401Y-106474517D01*
G75*
G02*
X143723401Y-106244707I114905J114905D01*
G01*
X144395153Y-105572955D01*
G75*
G02*
X144624963Y-105572955I114905J-114905D01*
G01*
X144854773Y-105802765D01*
G75*
G02*
X144854773Y-106032575I-114905J-114905D01*
G01*
G37*
G36*
G01*
X144501220Y-105679022D02*
X143829468Y-106350774D01*
G75*
G02*
X143599658Y-106350774I-114905J114905D01*
G01*
X143369848Y-106120964D01*
G75*
G02*
X143369848Y-105891154I114905J114905D01*
G01*
X144041600Y-105219402D01*
G75*
G02*
X144271410Y-105219402I114905J-114905D01*
G01*
X144501220Y-105449212D01*
G75*
G02*
X144501220Y-105679022I-114905J-114905D01*
G01*
G37*
G36*
G01*
X144147666Y-105325468D02*
X143475914Y-105997220D01*
G75*
G02*
X143246104Y-105997220I-114905J114905D01*
G01*
X143016294Y-105767410D01*
G75*
G02*
X143016294Y-105537600I114905J114905D01*
G01*
X143688046Y-104865848D01*
G75*
G02*
X143917856Y-104865848I114905J-114905D01*
G01*
X144147666Y-105095658D01*
G75*
G02*
X144147666Y-105325468I-114905J-114905D01*
G01*
G37*
G36*
G01*
X143794113Y-104971915D02*
X143122361Y-105643667D01*
G75*
G02*
X142892551Y-105643667I-114905J114905D01*
G01*
X142662741Y-105413857D01*
G75*
G02*
X142662741Y-105184047I114905J114905D01*
G01*
X143334493Y-104512295D01*
G75*
G02*
X143564303Y-104512295I114905J-114905D01*
G01*
X143794113Y-104742105D01*
G75*
G02*
X143794113Y-104971915I-114905J-114905D01*
G01*
G37*
G36*
G01*
X143440560Y-104618362D02*
X142768808Y-105290114D01*
G75*
G02*
X142538998Y-105290114I-114905J114905D01*
G01*
X142309188Y-105060304D01*
G75*
G02*
X142309188Y-104830494I114905J114905D01*
G01*
X142980940Y-104158742D01*
G75*
G02*
X143210750Y-104158742I114905J-114905D01*
G01*
X143440560Y-104388552D01*
G75*
G02*
X143440560Y-104618362I-114905J-114905D01*
G01*
G37*
G36*
G01*
X143087006Y-104264808D02*
X142415254Y-104936560D01*
G75*
G02*
X142185444Y-104936560I-114905J114905D01*
G01*
X141955634Y-104706750D01*
G75*
G02*
X141955634Y-104476940I114905J114905D01*
G01*
X142627386Y-103805188D01*
G75*
G02*
X142857196Y-103805188I114905J-114905D01*
G01*
X143087006Y-104034998D01*
G75*
G02*
X143087006Y-104264808I-114905J-114905D01*
G01*
G37*
G36*
G01*
X142733453Y-103911255D02*
X142061701Y-104583007D01*
G75*
G02*
X141831891Y-104583007I-114905J114905D01*
G01*
X141602081Y-104353197D01*
G75*
G02*
X141602081Y-104123387I114905J114905D01*
G01*
X142273833Y-103451635D01*
G75*
G02*
X142503643Y-103451635I114905J-114905D01*
G01*
X142733453Y-103681445D01*
G75*
G02*
X142733453Y-103911255I-114905J-114905D01*
G01*
G37*
G36*
G01*
X142379899Y-103557701D02*
X141708147Y-104229453D01*
G75*
G02*
X141478337Y-104229453I-114905J114905D01*
G01*
X141248527Y-103999643D01*
G75*
G02*
X141248527Y-103769833I114905J114905D01*
G01*
X141920279Y-103098081D01*
G75*
G02*
X142150089Y-103098081I114905J-114905D01*
G01*
X142379899Y-103327891D01*
G75*
G02*
X142379899Y-103557701I-114905J-114905D01*
G01*
G37*
G36*
G01*
X142026346Y-103204148D02*
X141354594Y-103875900D01*
G75*
G02*
X141124784Y-103875900I-114905J114905D01*
G01*
X140894974Y-103646090D01*
G75*
G02*
X140894974Y-103416280I114905J114905D01*
G01*
X141566726Y-102744528D01*
G75*
G02*
X141796536Y-102744528I114905J-114905D01*
G01*
X142026346Y-102974338D01*
G75*
G02*
X142026346Y-103204148I-114905J-114905D01*
G01*
G37*
G36*
G01*
X141672793Y-102850595D02*
X141001041Y-103522347D01*
G75*
G02*
X140771231Y-103522347I-114905J114905D01*
G01*
X140541421Y-103292537D01*
G75*
G02*
X140541421Y-103062727I114905J114905D01*
G01*
X141213173Y-102390975D01*
G75*
G02*
X141442983Y-102390975I114905J-114905D01*
G01*
X141672793Y-102620785D01*
G75*
G02*
X141672793Y-102850595I-114905J-114905D01*
G01*
G37*
G36*
G01*
X141319239Y-102497041D02*
X140647487Y-103168793D01*
G75*
G02*
X140417677Y-103168793I-114905J114905D01*
G01*
X140187867Y-102938983D01*
G75*
G02*
X140187867Y-102709173I114905J114905D01*
G01*
X140859619Y-102037421D01*
G75*
G02*
X141089429Y-102037421I114905J-114905D01*
G01*
X141319239Y-102267231D01*
G75*
G02*
X141319239Y-102497041I-114905J-114905D01*
G01*
G37*
G36*
G01*
X140965686Y-102143488D02*
X140293934Y-102815240D01*
G75*
G02*
X140064124Y-102815240I-114905J114905D01*
G01*
X139834314Y-102585430D01*
G75*
G02*
X139834314Y-102355620I114905J114905D01*
G01*
X140506066Y-101683868D01*
G75*
G02*
X140735876Y-101683868I114905J-114905D01*
G01*
X140965686Y-101913678D01*
G75*
G02*
X140965686Y-102143488I-114905J-114905D01*
G01*
G37*
G36*
G01*
X139993414Y-102585430D02*
X139763604Y-102815240D01*
G75*
G02*
X139533794Y-102815240I-114905J114905D01*
G01*
X138862042Y-102143488D01*
G75*
G02*
X138862042Y-101913678I114905J114905D01*
G01*
X139091852Y-101683868D01*
G75*
G02*
X139321662Y-101683868I114905J-114905D01*
G01*
X139993414Y-102355620D01*
G75*
G02*
X139993414Y-102585430I-114905J-114905D01*
G01*
G37*
G36*
G01*
X139639861Y-102938983D02*
X139410051Y-103168793D01*
G75*
G02*
X139180241Y-103168793I-114905J114905D01*
G01*
X138508489Y-102497041D01*
G75*
G02*
X138508489Y-102267231I114905J114905D01*
G01*
X138738299Y-102037421D01*
G75*
G02*
X138968109Y-102037421I114905J-114905D01*
G01*
X139639861Y-102709173D01*
G75*
G02*
X139639861Y-102938983I-114905J-114905D01*
G01*
G37*
G36*
G01*
X139286307Y-103292537D02*
X139056497Y-103522347D01*
G75*
G02*
X138826687Y-103522347I-114905J114905D01*
G01*
X138154935Y-102850595D01*
G75*
G02*
X138154935Y-102620785I114905J114905D01*
G01*
X138384745Y-102390975D01*
G75*
G02*
X138614555Y-102390975I114905J-114905D01*
G01*
X139286307Y-103062727D01*
G75*
G02*
X139286307Y-103292537I-114905J-114905D01*
G01*
G37*
G36*
G01*
X138932754Y-103646090D02*
X138702944Y-103875900D01*
G75*
G02*
X138473134Y-103875900I-114905J114905D01*
G01*
X137801382Y-103204148D01*
G75*
G02*
X137801382Y-102974338I114905J114905D01*
G01*
X138031192Y-102744528D01*
G75*
G02*
X138261002Y-102744528I114905J-114905D01*
G01*
X138932754Y-103416280D01*
G75*
G02*
X138932754Y-103646090I-114905J-114905D01*
G01*
G37*
G36*
G01*
X138579201Y-103999643D02*
X138349391Y-104229453D01*
G75*
G02*
X138119581Y-104229453I-114905J114905D01*
G01*
X137447829Y-103557701D01*
G75*
G02*
X137447829Y-103327891I114905J114905D01*
G01*
X137677639Y-103098081D01*
G75*
G02*
X137907449Y-103098081I114905J-114905D01*
G01*
X138579201Y-103769833D01*
G75*
G02*
X138579201Y-103999643I-114905J-114905D01*
G01*
G37*
G36*
G01*
X138225647Y-104353197D02*
X137995837Y-104583007D01*
G75*
G02*
X137766027Y-104583007I-114905J114905D01*
G01*
X137094275Y-103911255D01*
G75*
G02*
X137094275Y-103681445I114905J114905D01*
G01*
X137324085Y-103451635D01*
G75*
G02*
X137553895Y-103451635I114905J-114905D01*
G01*
X138225647Y-104123387D01*
G75*
G02*
X138225647Y-104353197I-114905J-114905D01*
G01*
G37*
G36*
G01*
X137872094Y-104706750D02*
X137642284Y-104936560D01*
G75*
G02*
X137412474Y-104936560I-114905J114905D01*
G01*
X136740722Y-104264808D01*
G75*
G02*
X136740722Y-104034998I114905J114905D01*
G01*
X136970532Y-103805188D01*
G75*
G02*
X137200342Y-103805188I114905J-114905D01*
G01*
X137872094Y-104476940D01*
G75*
G02*
X137872094Y-104706750I-114905J-114905D01*
G01*
G37*
G36*
G01*
X137518540Y-105060304D02*
X137288730Y-105290114D01*
G75*
G02*
X137058920Y-105290114I-114905J114905D01*
G01*
X136387168Y-104618362D01*
G75*
G02*
X136387168Y-104388552I114905J114905D01*
G01*
X136616978Y-104158742D01*
G75*
G02*
X136846788Y-104158742I114905J-114905D01*
G01*
X137518540Y-104830494D01*
G75*
G02*
X137518540Y-105060304I-114905J-114905D01*
G01*
G37*
G36*
G01*
X137164987Y-105413857D02*
X136935177Y-105643667D01*
G75*
G02*
X136705367Y-105643667I-114905J114905D01*
G01*
X136033615Y-104971915D01*
G75*
G02*
X136033615Y-104742105I114905J114905D01*
G01*
X136263425Y-104512295D01*
G75*
G02*
X136493235Y-104512295I114905J-114905D01*
G01*
X137164987Y-105184047D01*
G75*
G02*
X137164987Y-105413857I-114905J-114905D01*
G01*
G37*
G36*
G01*
X136811434Y-105767410D02*
X136581624Y-105997220D01*
G75*
G02*
X136351814Y-105997220I-114905J114905D01*
G01*
X135680062Y-105325468D01*
G75*
G02*
X135680062Y-105095658I114905J114905D01*
G01*
X135909872Y-104865848D01*
G75*
G02*
X136139682Y-104865848I114905J-114905D01*
G01*
X136811434Y-105537600D01*
G75*
G02*
X136811434Y-105767410I-114905J-114905D01*
G01*
G37*
G36*
G01*
X136457880Y-106120964D02*
X136228070Y-106350774D01*
G75*
G02*
X135998260Y-106350774I-114905J114905D01*
G01*
X135326508Y-105679022D01*
G75*
G02*
X135326508Y-105449212I114905J114905D01*
G01*
X135556318Y-105219402D01*
G75*
G02*
X135786128Y-105219402I114905J-114905D01*
G01*
X136457880Y-105891154D01*
G75*
G02*
X136457880Y-106120964I-114905J-114905D01*
G01*
G37*
G36*
G01*
X136104327Y-106474517D02*
X135874517Y-106704327D01*
G75*
G02*
X135644707Y-106704327I-114905J114905D01*
G01*
X134972955Y-106032575D01*
G75*
G02*
X134972955Y-105802765I114905J114905D01*
G01*
X135202765Y-105572955D01*
G75*
G02*
X135432575Y-105572955I114905J-114905D01*
G01*
X136104327Y-106244707D01*
G75*
G02*
X136104327Y-106474517I-114905J-114905D01*
G01*
G37*
G36*
G01*
X136104327Y-107004847D02*
X135432575Y-107676599D01*
G75*
G02*
X135202765Y-107676599I-114905J114905D01*
G01*
X134972955Y-107446789D01*
G75*
G02*
X134972955Y-107216979I114905J114905D01*
G01*
X135644707Y-106545227D01*
G75*
G02*
X135874517Y-106545227I114905J-114905D01*
G01*
X136104327Y-106775037D01*
G75*
G02*
X136104327Y-107004847I-114905J-114905D01*
G01*
G37*
G36*
G01*
X136457880Y-107358400D02*
X135786128Y-108030152D01*
G75*
G02*
X135556318Y-108030152I-114905J114905D01*
G01*
X135326508Y-107800342D01*
G75*
G02*
X135326508Y-107570532I114905J114905D01*
G01*
X135998260Y-106898780D01*
G75*
G02*
X136228070Y-106898780I114905J-114905D01*
G01*
X136457880Y-107128590D01*
G75*
G02*
X136457880Y-107358400I-114905J-114905D01*
G01*
G37*
G36*
G01*
X136811434Y-107711954D02*
X136139682Y-108383706D01*
G75*
G02*
X135909872Y-108383706I-114905J114905D01*
G01*
X135680062Y-108153896D01*
G75*
G02*
X135680062Y-107924086I114905J114905D01*
G01*
X136351814Y-107252334D01*
G75*
G02*
X136581624Y-107252334I114905J-114905D01*
G01*
X136811434Y-107482144D01*
G75*
G02*
X136811434Y-107711954I-114905J-114905D01*
G01*
G37*
G36*
G01*
X137164987Y-108065507D02*
X136493235Y-108737259D01*
G75*
G02*
X136263425Y-108737259I-114905J114905D01*
G01*
X136033615Y-108507449D01*
G75*
G02*
X136033615Y-108277639I114905J114905D01*
G01*
X136705367Y-107605887D01*
G75*
G02*
X136935177Y-107605887I114905J-114905D01*
G01*
X137164987Y-107835697D01*
G75*
G02*
X137164987Y-108065507I-114905J-114905D01*
G01*
G37*
G36*
G01*
X137518540Y-108419060D02*
X136846788Y-109090812D01*
G75*
G02*
X136616978Y-109090812I-114905J114905D01*
G01*
X136387168Y-108861002D01*
G75*
G02*
X136387168Y-108631192I114905J114905D01*
G01*
X137058920Y-107959440D01*
G75*
G02*
X137288730Y-107959440I114905J-114905D01*
G01*
X137518540Y-108189250D01*
G75*
G02*
X137518540Y-108419060I-114905J-114905D01*
G01*
G37*
G36*
G01*
X137872094Y-108772614D02*
X137200342Y-109444366D01*
G75*
G02*
X136970532Y-109444366I-114905J114905D01*
G01*
X136740722Y-109214556D01*
G75*
G02*
X136740722Y-108984746I114905J114905D01*
G01*
X137412474Y-108312994D01*
G75*
G02*
X137642284Y-108312994I114905J-114905D01*
G01*
X137872094Y-108542804D01*
G75*
G02*
X137872094Y-108772614I-114905J-114905D01*
G01*
G37*
G36*
G01*
X138225647Y-109126167D02*
X137553895Y-109797919D01*
G75*
G02*
X137324085Y-109797919I-114905J114905D01*
G01*
X137094275Y-109568109D01*
G75*
G02*
X137094275Y-109338299I114905J114905D01*
G01*
X137766027Y-108666547D01*
G75*
G02*
X137995837Y-108666547I114905J-114905D01*
G01*
X138225647Y-108896357D01*
G75*
G02*
X138225647Y-109126167I-114905J-114905D01*
G01*
G37*
G36*
G01*
X138579201Y-109479721D02*
X137907449Y-110151473D01*
G75*
G02*
X137677639Y-110151473I-114905J114905D01*
G01*
X137447829Y-109921663D01*
G75*
G02*
X137447829Y-109691853I114905J114905D01*
G01*
X138119581Y-109020101D01*
G75*
G02*
X138349391Y-109020101I114905J-114905D01*
G01*
X138579201Y-109249911D01*
G75*
G02*
X138579201Y-109479721I-114905J-114905D01*
G01*
G37*
G36*
G01*
X138932754Y-109833274D02*
X138261002Y-110505026D01*
G75*
G02*
X138031192Y-110505026I-114905J114905D01*
G01*
X137801382Y-110275216D01*
G75*
G02*
X137801382Y-110045406I114905J114905D01*
G01*
X138473134Y-109373654D01*
G75*
G02*
X138702944Y-109373654I114905J-114905D01*
G01*
X138932754Y-109603464D01*
G75*
G02*
X138932754Y-109833274I-114905J-114905D01*
G01*
G37*
G36*
G01*
X139286307Y-110186827D02*
X138614555Y-110858579D01*
G75*
G02*
X138384745Y-110858579I-114905J114905D01*
G01*
X138154935Y-110628769D01*
G75*
G02*
X138154935Y-110398959I114905J114905D01*
G01*
X138826687Y-109727207D01*
G75*
G02*
X139056497Y-109727207I114905J-114905D01*
G01*
X139286307Y-109957017D01*
G75*
G02*
X139286307Y-110186827I-114905J-114905D01*
G01*
G37*
G36*
G01*
X139639861Y-110540381D02*
X138968109Y-111212133D01*
G75*
G02*
X138738299Y-111212133I-114905J114905D01*
G01*
X138508489Y-110982323D01*
G75*
G02*
X138508489Y-110752513I114905J114905D01*
G01*
X139180241Y-110080761D01*
G75*
G02*
X139410051Y-110080761I114905J-114905D01*
G01*
X139639861Y-110310571D01*
G75*
G02*
X139639861Y-110540381I-114905J-114905D01*
G01*
G37*
G36*
G01*
X139993414Y-110893934D02*
X139321662Y-111565686D01*
G75*
G02*
X139091852Y-111565686I-114905J114905D01*
G01*
X138862042Y-111335876D01*
G75*
G02*
X138862042Y-111106066I114905J114905D01*
G01*
X139533794Y-110434314D01*
G75*
G02*
X139763604Y-110434314I114905J-114905D01*
G01*
X139993414Y-110664124D01*
G75*
G02*
X139993414Y-110893934I-114905J-114905D01*
G01*
G37*
G36*
G01*
X140965686Y-111335876D02*
X140735876Y-111565686D01*
G75*
G02*
X140506066Y-111565686I-114905J114905D01*
G01*
X139834314Y-110893934D01*
G75*
G02*
X139834314Y-110664124I114905J114905D01*
G01*
X140064124Y-110434314D01*
G75*
G02*
X140293934Y-110434314I114905J-114905D01*
G01*
X140965686Y-111106066D01*
G75*
G02*
X140965686Y-111335876I-114905J-114905D01*
G01*
G37*
G36*
G01*
X141319239Y-110982323D02*
X141089429Y-111212133D01*
G75*
G02*
X140859619Y-111212133I-114905J114905D01*
G01*
X140187867Y-110540381D01*
G75*
G02*
X140187867Y-110310571I114905J114905D01*
G01*
X140417677Y-110080761D01*
G75*
G02*
X140647487Y-110080761I114905J-114905D01*
G01*
X141319239Y-110752513D01*
G75*
G02*
X141319239Y-110982323I-114905J-114905D01*
G01*
G37*
G36*
G01*
X141672793Y-110628769D02*
X141442983Y-110858579D01*
G75*
G02*
X141213173Y-110858579I-114905J114905D01*
G01*
X140541421Y-110186827D01*
G75*
G02*
X140541421Y-109957017I114905J114905D01*
G01*
X140771231Y-109727207D01*
G75*
G02*
X141001041Y-109727207I114905J-114905D01*
G01*
X141672793Y-110398959D01*
G75*
G02*
X141672793Y-110628769I-114905J-114905D01*
G01*
G37*
G36*
G01*
X142026346Y-110275216D02*
X141796536Y-110505026D01*
G75*
G02*
X141566726Y-110505026I-114905J114905D01*
G01*
X140894974Y-109833274D01*
G75*
G02*
X140894974Y-109603464I114905J114905D01*
G01*
X141124784Y-109373654D01*
G75*
G02*
X141354594Y-109373654I114905J-114905D01*
G01*
X142026346Y-110045406D01*
G75*
G02*
X142026346Y-110275216I-114905J-114905D01*
G01*
G37*
G36*
G01*
X142379899Y-109921663D02*
X142150089Y-110151473D01*
G75*
G02*
X141920279Y-110151473I-114905J114905D01*
G01*
X141248527Y-109479721D01*
G75*
G02*
X141248527Y-109249911I114905J114905D01*
G01*
X141478337Y-109020101D01*
G75*
G02*
X141708147Y-109020101I114905J-114905D01*
G01*
X142379899Y-109691853D01*
G75*
G02*
X142379899Y-109921663I-114905J-114905D01*
G01*
G37*
G36*
G01*
X142733453Y-109568109D02*
X142503643Y-109797919D01*
G75*
G02*
X142273833Y-109797919I-114905J114905D01*
G01*
X141602081Y-109126167D01*
G75*
G02*
X141602081Y-108896357I114905J114905D01*
G01*
X141831891Y-108666547D01*
G75*
G02*
X142061701Y-108666547I114905J-114905D01*
G01*
X142733453Y-109338299D01*
G75*
G02*
X142733453Y-109568109I-114905J-114905D01*
G01*
G37*
G36*
G01*
X143087006Y-109214556D02*
X142857196Y-109444366D01*
G75*
G02*
X142627386Y-109444366I-114905J114905D01*
G01*
X141955634Y-108772614D01*
G75*
G02*
X141955634Y-108542804I114905J114905D01*
G01*
X142185444Y-108312994D01*
G75*
G02*
X142415254Y-108312994I114905J-114905D01*
G01*
X143087006Y-108984746D01*
G75*
G02*
X143087006Y-109214556I-114905J-114905D01*
G01*
G37*
G36*
G01*
X143440560Y-108861002D02*
X143210750Y-109090812D01*
G75*
G02*
X142980940Y-109090812I-114905J114905D01*
G01*
X142309188Y-108419060D01*
G75*
G02*
X142309188Y-108189250I114905J114905D01*
G01*
X142538998Y-107959440D01*
G75*
G02*
X142768808Y-107959440I114905J-114905D01*
G01*
X143440560Y-108631192D01*
G75*
G02*
X143440560Y-108861002I-114905J-114905D01*
G01*
G37*
G36*
G01*
X143794113Y-108507449D02*
X143564303Y-108737259D01*
G75*
G02*
X143334493Y-108737259I-114905J114905D01*
G01*
X142662741Y-108065507D01*
G75*
G02*
X142662741Y-107835697I114905J114905D01*
G01*
X142892551Y-107605887D01*
G75*
G02*
X143122361Y-107605887I114905J-114905D01*
G01*
X143794113Y-108277639D01*
G75*
G02*
X143794113Y-108507449I-114905J-114905D01*
G01*
G37*
G36*
G01*
X144147666Y-108153896D02*
X143917856Y-108383706D01*
G75*
G02*
X143688046Y-108383706I-114905J114905D01*
G01*
X143016294Y-107711954D01*
G75*
G02*
X143016294Y-107482144I114905J114905D01*
G01*
X143246104Y-107252334D01*
G75*
G02*
X143475914Y-107252334I114905J-114905D01*
G01*
X144147666Y-107924086D01*
G75*
G02*
X144147666Y-108153896I-114905J-114905D01*
G01*
G37*
G36*
G01*
X144501220Y-107800342D02*
X144271410Y-108030152D01*
G75*
G02*
X144041600Y-108030152I-114905J114905D01*
G01*
X143369848Y-107358400D01*
G75*
G02*
X143369848Y-107128590I114905J114905D01*
G01*
X143599658Y-106898780D01*
G75*
G02*
X143829468Y-106898780I114905J-114905D01*
G01*
X144501220Y-107570532D01*
G75*
G02*
X144501220Y-107800342I-114905J-114905D01*
G01*
G37*
G36*
G01*
X144854773Y-107446789D02*
X144624963Y-107676599D01*
G75*
G02*
X144395153Y-107676599I-114905J114905D01*
G01*
X143723401Y-107004847D01*
G75*
G02*
X143723401Y-106775037I114905J114905D01*
G01*
X143953211Y-106545227D01*
G75*
G02*
X144183021Y-106545227I114905J-114905D01*
G01*
X144854773Y-107216979D01*
G75*
G02*
X144854773Y-107446789I-114905J-114905D01*
G01*
G37*
G36*
G01*
X143646009Y-106817075D02*
X140106162Y-110356922D01*
G75*
G02*
X139721566Y-110356922I-192298J192298D01*
G01*
X136181719Y-106817075D01*
G75*
G02*
X136181719Y-106432479I192298J192298D01*
G01*
X139721566Y-102892632D01*
G75*
G02*
X140106162Y-102892632I192298J-192298D01*
G01*
X143646009Y-106432479D01*
G75*
G02*
X143646009Y-106817075I-192298J-192298D01*
G01*
G37*
G36*
G01*
X118325000Y-110562500D02*
X118325000Y-110017500D01*
G75*
G02*
X118572500Y-109770000I247500J0D01*
G01*
X119067500Y-109770000D01*
G75*
G02*
X119315000Y-110017500I0J-247500D01*
G01*
X119315000Y-110562500D01*
G75*
G02*
X119067500Y-110810000I-247500J0D01*
G01*
X118572500Y-110810000D01*
G75*
G02*
X118325000Y-110562500I0J247500D01*
G01*
G37*
G36*
G01*
X117355000Y-110562500D02*
X117355000Y-110017500D01*
G75*
G02*
X117602500Y-109770000I247500J0D01*
G01*
X118097500Y-109770000D01*
G75*
G02*
X118345000Y-110017500I0J-247500D01*
G01*
X118345000Y-110562500D01*
G75*
G02*
X118097500Y-110810000I-247500J0D01*
G01*
X117602500Y-110810000D01*
G75*
G02*
X117355000Y-110562500I0J247500D01*
G01*
G37*
G36*
G01*
X160727500Y-110105000D02*
X161272500Y-110105000D01*
G75*
G02*
X161520000Y-110352500I0J-247500D01*
G01*
X161520000Y-110847500D01*
G75*
G02*
X161272500Y-111095000I-247500J0D01*
G01*
X160727500Y-111095000D01*
G75*
G02*
X160480000Y-110847500I0J247500D01*
G01*
X160480000Y-110352500D01*
G75*
G02*
X160727500Y-110105000I247500J0D01*
G01*
G37*
G36*
G01*
X160727500Y-109135000D02*
X161272500Y-109135000D01*
G75*
G02*
X161520000Y-109382500I0J-247500D01*
G01*
X161520000Y-109877500D01*
G75*
G02*
X161272500Y-110125000I-247500J0D01*
G01*
X160727500Y-110125000D01*
G75*
G02*
X160480000Y-109877500I0J247500D01*
G01*
X160480000Y-109382500D01*
G75*
G02*
X160727500Y-109135000I247500J0D01*
G01*
G37*
G36*
G01*
X120927500Y-105875000D02*
X121472500Y-105875000D01*
G75*
G02*
X121720000Y-106122500I0J-247500D01*
G01*
X121720000Y-106617500D01*
G75*
G02*
X121472500Y-106865000I-247500J0D01*
G01*
X120927500Y-106865000D01*
G75*
G02*
X120680000Y-106617500I0J247500D01*
G01*
X120680000Y-106122500D01*
G75*
G02*
X120927500Y-105875000I247500J0D01*
G01*
G37*
G36*
G01*
X120927500Y-104905000D02*
X121472500Y-104905000D01*
G75*
G02*
X121720000Y-105152500I0J-247500D01*
G01*
X121720000Y-105647500D01*
G75*
G02*
X121472500Y-105895000I-247500J0D01*
G01*
X120927500Y-105895000D01*
G75*
G02*
X120680000Y-105647500I0J247500D01*
G01*
X120680000Y-105152500D01*
G75*
G02*
X120927500Y-104905000I247500J0D01*
G01*
G37*
G36*
G01*
X113075000Y-111730000D02*
X111725000Y-111730000D01*
G75*
G02*
X111525000Y-111530000I0J200000D01*
G01*
X111525000Y-109630000D01*
G75*
G02*
X111725000Y-109430000I200000J0D01*
G01*
X113075000Y-109430000D01*
G75*
G02*
X113275000Y-109630000I0J-200000D01*
G01*
X113275000Y-111530000D01*
G75*
G02*
X113075000Y-111730000I-200000J0D01*
G01*
G37*
G36*
G01*
X113075000Y-106610000D02*
X111725000Y-106610000D01*
G75*
G02*
X111525000Y-106410000I0J200000D01*
G01*
X111525000Y-104510000D01*
G75*
G02*
X111725000Y-104310000I200000J0D01*
G01*
X113075000Y-104310000D01*
G75*
G02*
X113275000Y-104510000I0J-200000D01*
G01*
X113275000Y-106410000D01*
G75*
G02*
X113075000Y-106610000I-200000J0D01*
G01*
G37*
G36*
G01*
X111600000Y-102200000D02*
X110600000Y-102200000D01*
G75*
G02*
X110400000Y-102000000I0J200000D01*
G01*
X110400000Y-100800000D01*
G75*
G02*
X110600000Y-100600000I200000J0D01*
G01*
X111600000Y-100600000D01*
G75*
G02*
X111800000Y-100800000I0J-200000D01*
G01*
X111800000Y-102000000D01*
G75*
G02*
X111600000Y-102200000I-200000J0D01*
G01*
G37*
G36*
G01*
X106900000Y-102200000D02*
X105900000Y-102200000D01*
G75*
G02*
X105700000Y-102000000I0J200000D01*
G01*
X105700000Y-100800000D01*
G75*
G02*
X105900000Y-100600000I200000J0D01*
G01*
X106900000Y-100600000D01*
G75*
G02*
X107100000Y-100800000I0J-200000D01*
G01*
X107100000Y-102000000D01*
G75*
G02*
X106900000Y-102200000I-200000J0D01*
G01*
G37*
G36*
G01*
X102100000Y-102760000D02*
X100750000Y-102760000D01*
G75*
G02*
X100550000Y-102560000I0J200000D01*
G01*
X100550000Y-101010000D01*
G75*
G02*
X100750000Y-100810000I200000J0D01*
G01*
X102100000Y-100810000D01*
G75*
G02*
X102300000Y-101010000I0J-200000D01*
G01*
X102300000Y-102560000D01*
G75*
G02*
X102100000Y-102760000I-200000J0D01*
G01*
G37*
G36*
G01*
X102550000Y-114310000D02*
X100750000Y-114310000D01*
G75*
G02*
X100550000Y-114110000I0J200000D01*
G01*
X100550000Y-112940000D01*
G75*
G02*
X100750000Y-112740000I200000J0D01*
G01*
X102550000Y-112740000D01*
G75*
G02*
X102750000Y-112940000I0J-200000D01*
G01*
X102750000Y-114110000D01*
G75*
G02*
X102550000Y-114310000I-200000J0D01*
G01*
G37*
G36*
G01*
X101850000Y-112900000D02*
X100750000Y-112900000D01*
G75*
G02*
X100550000Y-112700000I0J200000D01*
G01*
X100550000Y-111950000D01*
G75*
G02*
X100750000Y-111750000I200000J0D01*
G01*
X101850000Y-111750000D01*
G75*
G02*
X102050000Y-111950000I0J-200000D01*
G01*
X102050000Y-112700000D01*
G75*
G02*
X101850000Y-112900000I-200000J0D01*
G01*
G37*
G36*
G01*
X101850000Y-111900000D02*
X100750000Y-111900000D01*
G75*
G02*
X100550000Y-111700000I0J200000D01*
G01*
X100550000Y-110850000D01*
G75*
G02*
X100750000Y-110650000I200000J0D01*
G01*
X101850000Y-110650000D01*
G75*
G02*
X102050000Y-110850000I0J-200000D01*
G01*
X102050000Y-111700000D01*
G75*
G02*
X101850000Y-111900000I-200000J0D01*
G01*
G37*
G36*
G01*
X101850000Y-110800000D02*
X100750000Y-110800000D01*
G75*
G02*
X100550000Y-110600000I0J200000D01*
G01*
X100550000Y-109750000D01*
G75*
G02*
X100750000Y-109550000I200000J0D01*
G01*
X101850000Y-109550000D01*
G75*
G02*
X102050000Y-109750000I0J-200000D01*
G01*
X102050000Y-110600000D01*
G75*
G02*
X101850000Y-110800000I-200000J0D01*
G01*
G37*
G36*
G01*
X101850000Y-109700000D02*
X100750000Y-109700000D01*
G75*
G02*
X100550000Y-109500000I0J200000D01*
G01*
X100550000Y-108650000D01*
G75*
G02*
X100750000Y-108450000I200000J0D01*
G01*
X101850000Y-108450000D01*
G75*
G02*
X102050000Y-108650000I0J-200000D01*
G01*
X102050000Y-109500000D01*
G75*
G02*
X101850000Y-109700000I-200000J0D01*
G01*
G37*
G36*
G01*
X101850000Y-108600000D02*
X100750000Y-108600000D01*
G75*
G02*
X100550000Y-108400000I0J200000D01*
G01*
X100550000Y-107550000D01*
G75*
G02*
X100750000Y-107350000I200000J0D01*
G01*
X101850000Y-107350000D01*
G75*
G02*
X102050000Y-107550000I0J-200000D01*
G01*
X102050000Y-108400000D01*
G75*
G02*
X101850000Y-108600000I-200000J0D01*
G01*
G37*
G36*
G01*
X101850000Y-107500000D02*
X100750000Y-107500000D01*
G75*
G02*
X100550000Y-107300000I0J200000D01*
G01*
X100550000Y-106450000D01*
G75*
G02*
X100750000Y-106250000I200000J0D01*
G01*
X101850000Y-106250000D01*
G75*
G02*
X102050000Y-106450000I0J-200000D01*
G01*
X102050000Y-107300000D01*
G75*
G02*
X101850000Y-107500000I-200000J0D01*
G01*
G37*
G36*
G01*
X101850000Y-106400000D02*
X100750000Y-106400000D01*
G75*
G02*
X100550000Y-106200000I0J200000D01*
G01*
X100550000Y-105350000D01*
G75*
G02*
X100750000Y-105150000I200000J0D01*
G01*
X101850000Y-105150000D01*
G75*
G02*
X102050000Y-105350000I0J-200000D01*
G01*
X102050000Y-106200000D01*
G75*
G02*
X101850000Y-106400000I-200000J0D01*
G01*
G37*
G36*
G01*
X101850000Y-105300000D02*
X100750000Y-105300000D01*
G75*
G02*
X100550000Y-105100000I0J200000D01*
G01*
X100550000Y-104250000D01*
G75*
G02*
X100750000Y-104050000I200000J0D01*
G01*
X101850000Y-104050000D01*
G75*
G02*
X102050000Y-104250000I0J-200000D01*
G01*
X102050000Y-105100000D01*
G75*
G02*
X101850000Y-105300000I-200000J0D01*
G01*
G37*
G36*
G01*
X158400000Y-107350000D02*
X158400000Y-108150000D01*
G75*
G02*
X158200000Y-108350000I-200000J0D01*
G01*
X157200000Y-108350000D01*
G75*
G02*
X157000000Y-108150000I0J200000D01*
G01*
X157000000Y-107350000D01*
G75*
G02*
X157200000Y-107150000I200000J0D01*
G01*
X158200000Y-107150000D01*
G75*
G02*
X158400000Y-107350000I0J-200000D01*
G01*
G37*
G36*
G01*
X158400000Y-111850000D02*
X158400000Y-114150000D01*
G75*
G02*
X158200000Y-114350000I-200000J0D01*
G01*
X157200000Y-114350000D01*
G75*
G02*
X157000000Y-114150000I0J200000D01*
G01*
X157000000Y-111850000D01*
G75*
G02*
X157200000Y-111650000I200000J0D01*
G01*
X158200000Y-111650000D01*
G75*
G02*
X158400000Y-111850000I0J-200000D01*
G01*
G37*
G36*
G01*
X158400000Y-104650000D02*
X158400000Y-106950000D01*
G75*
G02*
X158200000Y-107150000I-200000J0D01*
G01*
X157200000Y-107150000D01*
G75*
G02*
X157000000Y-106950000I0J200000D01*
G01*
X157000000Y-104650000D01*
G75*
G02*
X157200000Y-104450000I200000J0D01*
G01*
X158200000Y-104450000D01*
G75*
G02*
X158400000Y-104650000I0J-200000D01*
G01*
G37*
G36*
G01*
X155455000Y-101785000D02*
X155455000Y-103085000D01*
G75*
G02*
X155255000Y-103285000I-200000J0D01*
G01*
X154155000Y-103285000D01*
G75*
G02*
X153955000Y-103085000I0J200000D01*
G01*
X153955000Y-101785000D01*
G75*
G02*
X154155000Y-101585000I200000J0D01*
G01*
X155255000Y-101585000D01*
G75*
G02*
X155455000Y-101785000I0J-200000D01*
G01*
G37*
G36*
G01*
X151645000Y-101785000D02*
X151645000Y-103085000D01*
G75*
G02*
X151445000Y-103285000I-200000J0D01*
G01*
X150345000Y-103285000D01*
G75*
G02*
X150145000Y-103085000I0J200000D01*
G01*
X150145000Y-101785000D01*
G75*
G02*
X150345000Y-101585000I200000J0D01*
G01*
X151445000Y-101585000D01*
G75*
G02*
X151645000Y-101785000I0J-200000D01*
G01*
G37*
G36*
G01*
X148700000Y-104650000D02*
X148700000Y-106950000D01*
G75*
G02*
X148500000Y-107150000I-200000J0D01*
G01*
X147500000Y-107150000D01*
G75*
G02*
X147300000Y-106950000I0J200000D01*
G01*
X147300000Y-104650000D01*
G75*
G02*
X147500000Y-104450000I200000J0D01*
G01*
X148500000Y-104450000D01*
G75*
G02*
X148700000Y-104650000I0J-200000D01*
G01*
G37*
G36*
G01*
X148600000Y-111850000D02*
X148600000Y-114150000D01*
G75*
G02*
X148400000Y-114350000I-200000J0D01*
G01*
X147400000Y-114350000D01*
G75*
G02*
X147200000Y-114150000I0J200000D01*
G01*
X147200000Y-111850000D01*
G75*
G02*
X147400000Y-111650000I200000J0D01*
G01*
X148400000Y-111650000D01*
G75*
G02*
X148600000Y-111850000I0J-200000D01*
G01*
G37*
G36*
G01*
X158400000Y-109750000D02*
X158400000Y-110550000D01*
G75*
G02*
X158200000Y-110750000I-200000J0D01*
G01*
X157200000Y-110750000D01*
G75*
G02*
X157000000Y-110550000I0J200000D01*
G01*
X157000000Y-109750000D01*
G75*
G02*
X157200000Y-109550000I200000J0D01*
G01*
X158200000Y-109550000D01*
G75*
G02*
X158400000Y-109750000I0J-200000D01*
G01*
G37*
G36*
G01*
X158400000Y-108550000D02*
X158400000Y-109350000D01*
G75*
G02*
X158200000Y-109550000I-200000J0D01*
G01*
X157200000Y-109550000D01*
G75*
G02*
X157000000Y-109350000I0J200000D01*
G01*
X157000000Y-108550000D01*
G75*
G02*
X157200000Y-108350000I200000J0D01*
G01*
X158200000Y-108350000D01*
G75*
G02*
X158400000Y-108550000I0J-200000D01*
G01*
G37*
G36*
G01*
X148700000Y-107350000D02*
X148700000Y-108150000D01*
G75*
G02*
X148500000Y-108350000I-200000J0D01*
G01*
X147500000Y-108350000D01*
G75*
G02*
X147300000Y-108150000I0J200000D01*
G01*
X147300000Y-107350000D01*
G75*
G02*
X147500000Y-107150000I200000J0D01*
G01*
X148500000Y-107150000D01*
G75*
G02*
X148700000Y-107350000I0J-200000D01*
G01*
G37*
G36*
G01*
X148700000Y-108550000D02*
X148700000Y-109350000D01*
G75*
G02*
X148500000Y-109550000I-200000J0D01*
G01*
X147500000Y-109550000D01*
G75*
G02*
X147300000Y-109350000I0J200000D01*
G01*
X147300000Y-108550000D01*
G75*
G02*
X147500000Y-108350000I200000J0D01*
G01*
X148500000Y-108350000D01*
G75*
G02*
X148700000Y-108550000I0J-200000D01*
G01*
G37*
G36*
G01*
X148700000Y-109750000D02*
X148700000Y-110550000D01*
G75*
G02*
X148500000Y-110750000I-200000J0D01*
G01*
X147500000Y-110750000D01*
G75*
G02*
X147300000Y-110550000I0J200000D01*
G01*
X147300000Y-109750000D01*
G75*
G02*
X147500000Y-109550000I200000J0D01*
G01*
X148500000Y-109550000D01*
G75*
G02*
X148700000Y-109750000I0J-200000D01*
G01*
G37*
G36*
G01*
X147845000Y-100537500D02*
X147845000Y-101082500D01*
G75*
G02*
X147597500Y-101330000I-247500J0D01*
G01*
X147102500Y-101330000D01*
G75*
G02*
X146855000Y-101082500I0J247500D01*
G01*
X146855000Y-100537500D01*
G75*
G02*
X147102500Y-100290000I247500J0D01*
G01*
X147597500Y-100290000D01*
G75*
G02*
X147845000Y-100537500I0J-247500D01*
G01*
G37*
G36*
G01*
X148815000Y-100537500D02*
X148815000Y-101082500D01*
G75*
G02*
X148567500Y-101330000I-247500J0D01*
G01*
X148072500Y-101330000D01*
G75*
G02*
X147825000Y-101082500I0J247500D01*
G01*
X147825000Y-100537500D01*
G75*
G02*
X148072500Y-100290000I247500J0D01*
G01*
X148567500Y-100290000D01*
G75*
G02*
X148815000Y-100537500I0J-247500D01*
G01*
G37*
G36*
G01*
X143414384Y-109400242D02*
X143799758Y-109785616D01*
G75*
G02*
X143799758Y-110135634I-175009J-175009D01*
G01*
X143449740Y-110485652D01*
G75*
G02*
X143099722Y-110485652I-175009J175009D01*
G01*
X142714348Y-110100278D01*
G75*
G02*
X142714348Y-109750260I175009J175009D01*
G01*
X143064366Y-109400242D01*
G75*
G02*
X143414384Y-109400242I175009J-175009D01*
G01*
G37*
G36*
G01*
X144100278Y-108714348D02*
X144485652Y-109099722D01*
G75*
G02*
X144485652Y-109449740I-175009J-175009D01*
G01*
X144135634Y-109799758D01*
G75*
G02*
X143785616Y-109799758I-175009J175009D01*
G01*
X143400242Y-109414384D01*
G75*
G02*
X143400242Y-109064366I175009J175009D01*
G01*
X143750260Y-108714348D01*
G75*
G02*
X144100278Y-108714348I175009J-175009D01*
G01*
G37*
G36*
G01*
X143599758Y-103214384D02*
X143214384Y-103599758D01*
G75*
G02*
X142864366Y-103599758I-175009J175009D01*
G01*
X142514348Y-103249740D01*
G75*
G02*
X142514348Y-102899722I175009J175009D01*
G01*
X142899722Y-102514348D01*
G75*
G02*
X143249740Y-102514348I175009J-175009D01*
G01*
X143599758Y-102864366D01*
G75*
G02*
X143599758Y-103214384I-175009J-175009D01*
G01*
G37*
G36*
G01*
X144285652Y-103900278D02*
X143900278Y-104285652D01*
G75*
G02*
X143550260Y-104285652I-175009J175009D01*
G01*
X143200242Y-103935634D01*
G75*
G02*
X143200242Y-103585616I175009J175009D01*
G01*
X143585616Y-103200242D01*
G75*
G02*
X143935634Y-103200242I175009J-175009D01*
G01*
X144285652Y-103550260D01*
G75*
G02*
X144285652Y-103900278I-175009J-175009D01*
G01*
G37*
G36*
G01*
X137099758Y-110114384D02*
X136714384Y-110499758D01*
G75*
G02*
X136364366Y-110499758I-175009J175009D01*
G01*
X136014348Y-110149740D01*
G75*
G02*
X136014348Y-109799722I175009J175009D01*
G01*
X136399722Y-109414348D01*
G75*
G02*
X136749740Y-109414348I175009J-175009D01*
G01*
X137099758Y-109764366D01*
G75*
G02*
X137099758Y-110114384I-175009J-175009D01*
G01*
G37*
G36*
G01*
X137785652Y-110800278D02*
X137400278Y-111185652D01*
G75*
G02*
X137050260Y-111185652I-175009J175009D01*
G01*
X136700242Y-110835634D01*
G75*
G02*
X136700242Y-110485616I175009J175009D01*
G01*
X137085616Y-110100242D01*
G75*
G02*
X137435634Y-110100242I175009J-175009D01*
G01*
X137785652Y-110450260D01*
G75*
G02*
X137785652Y-110800278I-175009J-175009D01*
G01*
G37*
G36*
G01*
X143795000Y-113827500D02*
X143795000Y-114372500D01*
G75*
G02*
X143547500Y-114620000I-247500J0D01*
G01*
X143052500Y-114620000D01*
G75*
G02*
X142805000Y-114372500I0J247500D01*
G01*
X142805000Y-113827500D01*
G75*
G02*
X143052500Y-113580000I247500J0D01*
G01*
X143547500Y-113580000D01*
G75*
G02*
X143795000Y-113827500I0J-247500D01*
G01*
G37*
G36*
G01*
X144765000Y-113827500D02*
X144765000Y-114372500D01*
G75*
G02*
X144517500Y-114620000I-247500J0D01*
G01*
X144022500Y-114620000D01*
G75*
G02*
X143775000Y-114372500I0J247500D01*
G01*
X143775000Y-113827500D01*
G75*
G02*
X144022500Y-113580000I247500J0D01*
G01*
X144517500Y-113580000D01*
G75*
G02*
X144765000Y-113827500I0J-247500D01*
G01*
G37*
G36*
G01*
X145825000Y-113827500D02*
X145825000Y-114372500D01*
G75*
G02*
X145577500Y-114620000I-247500J0D01*
G01*
X145082500Y-114620000D01*
G75*
G02*
X144835000Y-114372500I0J247500D01*
G01*
X144835000Y-113827500D01*
G75*
G02*
X145082500Y-113580000I247500J0D01*
G01*
X145577500Y-113580000D01*
G75*
G02*
X145825000Y-113827500I0J-247500D01*
G01*
G37*
G36*
G01*
X146795000Y-113827500D02*
X146795000Y-114372500D01*
G75*
G02*
X146547500Y-114620000I-247500J0D01*
G01*
X146052500Y-114620000D01*
G75*
G02*
X145805000Y-114372500I0J247500D01*
G01*
X145805000Y-113827500D01*
G75*
G02*
X146052500Y-113580000I247500J0D01*
G01*
X146547500Y-113580000D01*
G75*
G02*
X146795000Y-113827500I0J-247500D01*
G01*
G37*
G36*
G01*
X115956250Y-112750000D02*
X114843750Y-112750000D01*
G75*
G02*
X114500000Y-112406250I0J343750D01*
G01*
X114500000Y-111718750D01*
G75*
G02*
X114843750Y-111375000I343750J0D01*
G01*
X115956250Y-111375000D01*
G75*
G02*
X116300000Y-111718750I0J-343750D01*
G01*
X116300000Y-112406250D01*
G75*
G02*
X115956250Y-112750000I-343750J0D01*
G01*
G37*
G36*
G01*
X115956250Y-114625000D02*
X114843750Y-114625000D01*
G75*
G02*
X114500000Y-114281250I0J343750D01*
G01*
X114500000Y-113593750D01*
G75*
G02*
X114843750Y-113250000I343750J0D01*
G01*
X115956250Y-113250000D01*
G75*
G02*
X116300000Y-113593750I0J-343750D01*
G01*
X116300000Y-114281250D01*
G75*
G02*
X115956250Y-114625000I-343750J0D01*
G01*
G37*
G36*
G01*
X169450000Y-114450000D02*
X166450000Y-114450000D01*
G75*
G02*
X166250000Y-114250000I0J200000D01*
G01*
X166250000Y-112250000D01*
G75*
G02*
X166450000Y-112050000I200000J0D01*
G01*
X169450000Y-112050000D01*
G75*
G02*
X169650000Y-112250000I0J-200000D01*
G01*
X169650000Y-114250000D01*
G75*
G02*
X169450000Y-114450000I-200000J0D01*
G01*
G37*
G36*
G01*
X169450000Y-111950000D02*
X166450000Y-111950000D01*
G75*
G02*
X166250000Y-111750000I0J200000D01*
G01*
X166250000Y-109750000D01*
G75*
G02*
X166450000Y-109550000I200000J0D01*
G01*
X169450000Y-109550000D01*
G75*
G02*
X169650000Y-109750000I0J-200000D01*
G01*
X169650000Y-111750000D01*
G75*
G02*
X169450000Y-111950000I-200000J0D01*
G01*
G37*
M02*
