M48
; DRILL file {KiCad (5.1.9)-1} date 02/01/21 18:23:23
; FORMAT={-:-/ absolute / inch / decimal}
; #@! TF.CreationDate,2021-02-01T18:23:23+11:00
; #@! TF.GenerationSoftware,Kicad,Pcbnew,(5.1.9)-1
FMAT,2
INCH
T1C0.0118
T2C0.0157
T3C0.0197
T4C0.0256
T5C0.0394
%
G90
G05
T1
X4.0945Y-4.3185
X4.1055Y-4.2031
X4.1264Y-4.1638
X4.1461Y-4.352
X4.2244Y-4.2992
X4.2835Y-4.2835
X4.3701Y-4.2047
X4.4437Y-4.4551
X4.5433Y-4.4862
X4.6154Y-4.1134
X4.639Y-4.1327
X4.6673Y-4.4287
X4.7315Y-4.3874
X4.7626Y-4.3087
X4.8051Y-4.1484
X4.9295Y-4.2457
X5.1913Y-4.2197
X5.2364Y-4.2696
X5.2548Y-4.2513
X5.2793Y-4.2427
X5.2894Y-4.1098
X5.2929Y-4.1701
X5.3043Y-4.2669
X5.3071Y-4.1969
X5.3101Y-4.2923
X5.3323Y-4.276
X5.352Y-4.0835
X5.3547Y-4.3496
X5.3602Y-4.0535
X5.3854Y-4.0343
X5.3854Y-4.061
X5.3917Y-4.5051
X5.4225Y-4.4193
X5.424Y-4.5083
X5.4252Y-3.9961
X5.4463Y-4.4051
X5.4508Y-4.0039
X5.4773Y-4.415
X5.5035Y-4.1024
X5.5059Y-3.9939
X5.5469Y-4.4452
X5.5583Y-3.9724
X5.5728Y-4.4455
X5.6376Y-4.3281
X5.6772Y-4.0539
X5.7Y-4.3161
X5.7083Y-4.3453
X5.7091Y-4.1957
X5.7094Y-4.0945
X5.7114Y-4.1459
X5.7169Y-4.1205
X5.7511Y-3.9938
X5.7858Y-4.3528
X5.811Y-4.0551
X5.8571Y-4.3843
X5.8819Y-3.9567
X5.883Y-4.3859
X6.0055Y-4.387
X6.0315Y-4.3878
X6.0886Y-4.4449
X6.1024Y-3.9685
X6.1024Y-4.0945
X6.1039Y-4.3114
X6.1323Y-4.4429
X6.1629Y-4.3884
X6.1697Y-4.4808
X6.1732Y-4.3209
X6.174Y-4.2508
X6.248Y-4.4528
X6.2965Y-4.3484
X6.315Y-4.0709
X6.3386Y-4.3543
X6.3756Y-4.4894
X6.4067Y-4.3567
X6.4177Y-4.4
T2
X4.0528Y-4.3366
X4.0543Y-4.0748
X4.0661Y-4.4181
X4.139Y-4.0303
X4.1535Y-4.252
X4.2126Y-4.1654
X4.2598Y-4.1654
X4.2992Y-4.1654
X4.3075Y-4.4965
X4.4252Y-4.1496
X4.4252Y-4.4049
X4.4724Y-4.2425
X4.4724Y-4.2776
X4.4961Y-4.189
X4.5018Y-4.4114
X4.5276Y-4.189
X4.5433Y-4.2598
X4.5433Y-4.4114
X4.5657Y-4.1551
X4.6122Y-4.1957
X4.6382Y-4.1957
X4.685Y-4.1575
X4.7185Y-4.1957
X5.4022Y-4.3535
X5.4846Y-4.2559
X5.5709Y-4.1811
X5.6299Y-4.1969
X5.6327Y-4.0988
X5.7159Y-4.4803
X5.832Y-3.9924
X5.8622Y-4.4783
X5.8661Y-4.0945
X5.8661Y-4.1575
X5.8661Y-4.2835
X5.8954Y-3.9976
X5.9449Y-4.0945
X5.9449Y-4.1575
X5.9449Y-4.2205
X5.9567Y-4.4528
X6.0236Y-4.0945
X6.0236Y-4.1575
X6.0236Y-4.2205
X6.0236Y-4.2835
X6.0531Y-4.4425
X6.1024Y-4.1575
X6.1024Y-4.2205
X6.1024Y-4.2835
X6.2087Y-4.4488
X6.248Y-4.1465
X6.248Y-4.2165
X6.248Y-4.2648
X6.2587Y-4.037
X6.2764Y-4.1933
X6.2764Y-4.2886
X6.426Y-4.1803
X6.4803Y-4.3937
X6.4827Y-4.0177
X6.4835Y-4.0724
X6.5055Y-4.2307
X6.5122Y-4.0945
X6.5126Y-4.0
X6.6091Y-4.2299
X6.663Y-4.1063
X6.6634Y-3.985
T4
X4.811Y-4.3067
X4.861Y-4.3067
X4.911Y-4.3067
X4.961Y-4.3067
X5.011Y-4.3067
X5.061Y-4.3067
X5.111Y-4.3067
X5.161Y-4.3067
X5.211Y-4.3067
T5
X4.7325Y-4.45
X4.8325Y-4.45
X4.9055Y-4.0236
X4.9055Y-4.1654
X4.9325Y-4.45
X5.0055Y-4.0236
X5.0055Y-4.1654
X5.0325Y-4.45
X5.1055Y-4.0236
X5.1055Y-4.1654
X5.1325Y-4.45
X5.2055Y-4.0236
X5.2055Y-4.1654
X5.2325Y-4.45
X5.3325Y-4.45
X6.6122Y-4.3602
X6.6122Y-4.4587
T3
G00X4.5177Y-4.0738
M15
G01X4.4902Y-4.0738
M16
G05
G00X4.6358Y-3.9892
M15
G01X4.5925Y-3.9892
M16
G05
G00X4.7382Y-4.0738
M15
G01X4.7106Y-4.0738
M16
G05
T0
M30
