G04 #@! TF.GenerationSoftware,KiCad,Pcbnew,(5.1.9)-1*
G04 #@! TF.CreationDate,2021-02-01T18:23:16+11:00*
G04 #@! TF.ProjectId,BoSLnano,426f534c-6e61-46e6-9f2e-6b696361645f,0.4.2*
G04 #@! TF.SameCoordinates,Original*
G04 #@! TF.FileFunction,Copper,L4,Bot*
G04 #@! TF.FilePolarity,Positive*
%FSLAX46Y46*%
G04 Gerber Fmt 4.6, Leading zero omitted, Abs format (unit mm)*
G04 Created by KiCad (PCBNEW (5.1.9)-1) date 2021-02-01 18:23:16*
%MOMM*%
%LPD*%
G01*
G04 APERTURE LIST*
G04 #@! TA.AperFunction,ComponentPad*
%ADD10O,2.200000X1.100000*%
G04 #@! TD*
G04 #@! TA.AperFunction,ComponentPad*
%ADD11O,1.800000X1.100000*%
G04 #@! TD*
G04 #@! TA.AperFunction,ComponentPad*
%ADD12O,1.000000X1.000000*%
G04 #@! TD*
G04 #@! TA.AperFunction,ComponentPad*
%ADD13R,1.000000X1.000000*%
G04 #@! TD*
G04 #@! TA.AperFunction,ComponentPad*
%ADD14O,1.700000X1.700000*%
G04 #@! TD*
G04 #@! TA.AperFunction,ComponentPad*
%ADD15R,1.700000X1.700000*%
G04 #@! TD*
G04 #@! TA.AperFunction,SMDPad,CuDef*
%ADD16C,0.200000*%
G04 #@! TD*
G04 #@! TA.AperFunction,SMDPad,CuDef*
%ADD17R,1.000000X1.800000*%
G04 #@! TD*
G04 #@! TA.AperFunction,SMDPad,CuDef*
%ADD18R,0.400000X0.650000*%
G04 #@! TD*
G04 #@! TA.AperFunction,SMDPad,CuDef*
%ADD19R,0.400000X1.100000*%
G04 #@! TD*
G04 #@! TA.AperFunction,SMDPad,CuDef*
%ADD20R,1.350000X1.900000*%
G04 #@! TD*
G04 #@! TA.AperFunction,SMDPad,CuDef*
%ADD21R,1.000000X1.200000*%
G04 #@! TD*
G04 #@! TA.AperFunction,SMDPad,CuDef*
%ADD22R,1.350000X1.550000*%
G04 #@! TD*
G04 #@! TA.AperFunction,SMDPad,CuDef*
%ADD23R,1.800000X1.170000*%
G04 #@! TD*
G04 #@! TA.AperFunction,SMDPad,CuDef*
%ADD24R,1.100000X0.750000*%
G04 #@! TD*
G04 #@! TA.AperFunction,SMDPad,CuDef*
%ADD25R,1.100000X0.850000*%
G04 #@! TD*
G04 #@! TA.AperFunction,ConnectorPad*
%ADD26R,1.000000X0.800000*%
G04 #@! TD*
G04 #@! TA.AperFunction,ConnectorPad*
%ADD27R,1.000000X2.300000*%
G04 #@! TD*
G04 #@! TA.AperFunction,ConnectorPad*
%ADD28R,1.100000X1.300000*%
G04 #@! TD*
G04 #@! TA.AperFunction,ComponentPad*
%ADD29R,3.000000X2.000000*%
G04 #@! TD*
G04 #@! TA.AperFunction,ViaPad*
%ADD30C,0.500000*%
G04 #@! TD*
G04 #@! TA.AperFunction,ViaPad*
%ADD31C,0.600000*%
G04 #@! TD*
G04 #@! TA.AperFunction,Conductor*
%ADD32C,0.160000*%
G04 #@! TD*
G04 #@! TA.AperFunction,Conductor*
%ADD33C,0.800000*%
G04 #@! TD*
G04 #@! TA.AperFunction,Conductor*
%ADD34C,1.000000*%
G04 #@! TD*
G04 #@! TA.AperFunction,Conductor*
%ADD35C,0.400000*%
G04 #@! TD*
G04 #@! TA.AperFunction,Conductor*
%ADD36C,0.220000*%
G04 #@! TD*
G04 #@! TA.AperFunction,Conductor*
%ADD37C,0.250000*%
G04 #@! TD*
G04 APERTURE END LIST*
D10*
X117200000Y-101325000D03*
D11*
X114400000Y-103475000D03*
X120000000Y-103475000D03*
D12*
X122200000Y-109390000D03*
X123470000Y-109390000D03*
X124740000Y-109390000D03*
X126010000Y-109390000D03*
X127280000Y-109390000D03*
X128550000Y-109390000D03*
X129820000Y-109390000D03*
X131090000Y-109390000D03*
D13*
X132360000Y-109390000D03*
D14*
X135445500Y-113030000D03*
X132905500Y-113030000D03*
X130365500Y-113030000D03*
X127825500Y-113030000D03*
X125285500Y-113030000D03*
X122745500Y-113030000D03*
D15*
X120205500Y-113030000D03*
D14*
X132220000Y-105800000D03*
X129680000Y-105800000D03*
X127140000Y-105800000D03*
D15*
X124600000Y-105800000D03*
X124600000Y-102200000D03*
D14*
X127140000Y-102200000D03*
X129680000Y-102200000D03*
X132220000Y-102200000D03*
G04 #@! TA.AperFunction,SMDPad,CuDef*
G36*
G01*
X114540000Y-110095000D02*
X114540000Y-110465000D01*
G75*
G02*
X114405000Y-110600000I-135000J0D01*
G01*
X114135000Y-110600000D01*
G75*
G02*
X114000000Y-110465000I0J135000D01*
G01*
X114000000Y-110095000D01*
G75*
G02*
X114135000Y-109960000I135000J0D01*
G01*
X114405000Y-109960000D01*
G75*
G02*
X114540000Y-110095000I0J-135000D01*
G01*
G37*
G04 #@! TD.AperFunction*
G04 #@! TA.AperFunction,SMDPad,CuDef*
G36*
G01*
X115560000Y-110095000D02*
X115560000Y-110465000D01*
G75*
G02*
X115425000Y-110600000I-135000J0D01*
G01*
X115155000Y-110600000D01*
G75*
G02*
X115020000Y-110465000I0J135000D01*
G01*
X115020000Y-110095000D01*
G75*
G02*
X115155000Y-109960000I135000J0D01*
G01*
X115425000Y-109960000D01*
G75*
G02*
X115560000Y-110095000I0J-135000D01*
G01*
G37*
G04 #@! TD.AperFunction*
D16*
X115625000Y-106575000D03*
X115975000Y-106575000D03*
X115625000Y-106225000D03*
X115975000Y-106225000D03*
X118825000Y-106225000D03*
X118825000Y-106575000D03*
X119175000Y-106225000D03*
X119175000Y-106575000D03*
D17*
X143550000Y-112200000D03*
X146050000Y-112200000D03*
D18*
X159550000Y-114100000D03*
X160850000Y-114100000D03*
X160200000Y-112200000D03*
X160850000Y-112200000D03*
X159550000Y-112200000D03*
D19*
X164575000Y-109450000D03*
X163925000Y-109450000D03*
X163275000Y-109450000D03*
X162625000Y-109450000D03*
X162625000Y-113750000D03*
X163275000Y-113750000D03*
X163925000Y-113750000D03*
X164575000Y-113750000D03*
G04 #@! TA.AperFunction,SMDPad,CuDef*
G36*
G01*
X144642640Y-105961864D02*
X144112310Y-106492194D01*
G75*
G02*
X144023922Y-106492194I-44194J44194D01*
G01*
X143935534Y-106403806D01*
G75*
G02*
X143935534Y-106315418I44194J44194D01*
G01*
X144465864Y-105785088D01*
G75*
G02*
X144554252Y-105785088I44194J-44194D01*
G01*
X144642640Y-105873476D01*
G75*
G02*
X144642640Y-105961864I-44194J-44194D01*
G01*
G37*
G04 #@! TD.AperFunction*
G04 #@! TA.AperFunction,SMDPad,CuDef*
G36*
G01*
X144289087Y-105608311D02*
X143758757Y-106138641D01*
G75*
G02*
X143670369Y-106138641I-44194J44194D01*
G01*
X143581981Y-106050253D01*
G75*
G02*
X143581981Y-105961865I44194J44194D01*
G01*
X144112311Y-105431535D01*
G75*
G02*
X144200699Y-105431535I44194J-44194D01*
G01*
X144289087Y-105519923D01*
G75*
G02*
X144289087Y-105608311I-44194J-44194D01*
G01*
G37*
G04 #@! TD.AperFunction*
G04 #@! TA.AperFunction,SMDPad,CuDef*
G36*
G01*
X143935533Y-105254757D02*
X143405203Y-105785087D01*
G75*
G02*
X143316815Y-105785087I-44194J44194D01*
G01*
X143228427Y-105696699D01*
G75*
G02*
X143228427Y-105608311I44194J44194D01*
G01*
X143758757Y-105077981D01*
G75*
G02*
X143847145Y-105077981I44194J-44194D01*
G01*
X143935533Y-105166369D01*
G75*
G02*
X143935533Y-105254757I-44194J-44194D01*
G01*
G37*
G04 #@! TD.AperFunction*
G04 #@! TA.AperFunction,SMDPad,CuDef*
G36*
G01*
X143581980Y-104901204D02*
X143051650Y-105431534D01*
G75*
G02*
X142963262Y-105431534I-44194J44194D01*
G01*
X142874874Y-105343146D01*
G75*
G02*
X142874874Y-105254758I44194J44194D01*
G01*
X143405204Y-104724428D01*
G75*
G02*
X143493592Y-104724428I44194J-44194D01*
G01*
X143581980Y-104812816D01*
G75*
G02*
X143581980Y-104901204I-44194J-44194D01*
G01*
G37*
G04 #@! TD.AperFunction*
G04 #@! TA.AperFunction,SMDPad,CuDef*
G36*
G01*
X143228427Y-104547651D02*
X142698097Y-105077981D01*
G75*
G02*
X142609709Y-105077981I-44194J44194D01*
G01*
X142521321Y-104989593D01*
G75*
G02*
X142521321Y-104901205I44194J44194D01*
G01*
X143051651Y-104370875D01*
G75*
G02*
X143140039Y-104370875I44194J-44194D01*
G01*
X143228427Y-104459263D01*
G75*
G02*
X143228427Y-104547651I-44194J-44194D01*
G01*
G37*
G04 #@! TD.AperFunction*
G04 #@! TA.AperFunction,SMDPad,CuDef*
G36*
G01*
X142874873Y-104194097D02*
X142344543Y-104724427D01*
G75*
G02*
X142256155Y-104724427I-44194J44194D01*
G01*
X142167767Y-104636039D01*
G75*
G02*
X142167767Y-104547651I44194J44194D01*
G01*
X142698097Y-104017321D01*
G75*
G02*
X142786485Y-104017321I44194J-44194D01*
G01*
X142874873Y-104105709D01*
G75*
G02*
X142874873Y-104194097I-44194J-44194D01*
G01*
G37*
G04 #@! TD.AperFunction*
G04 #@! TA.AperFunction,SMDPad,CuDef*
G36*
G01*
X142521320Y-103840544D02*
X141990990Y-104370874D01*
G75*
G02*
X141902602Y-104370874I-44194J44194D01*
G01*
X141814214Y-104282486D01*
G75*
G02*
X141814214Y-104194098I44194J44194D01*
G01*
X142344544Y-103663768D01*
G75*
G02*
X142432932Y-103663768I44194J-44194D01*
G01*
X142521320Y-103752156D01*
G75*
G02*
X142521320Y-103840544I-44194J-44194D01*
G01*
G37*
G04 #@! TD.AperFunction*
G04 #@! TA.AperFunction,SMDPad,CuDef*
G36*
G01*
X142167766Y-103486990D02*
X141637436Y-104017320D01*
G75*
G02*
X141549048Y-104017320I-44194J44194D01*
G01*
X141460660Y-103928932D01*
G75*
G02*
X141460660Y-103840544I44194J44194D01*
G01*
X141990990Y-103310214D01*
G75*
G02*
X142079378Y-103310214I44194J-44194D01*
G01*
X142167766Y-103398602D01*
G75*
G02*
X142167766Y-103486990I-44194J-44194D01*
G01*
G37*
G04 #@! TD.AperFunction*
G04 #@! TA.AperFunction,SMDPad,CuDef*
G36*
G01*
X141814213Y-103133437D02*
X141283883Y-103663767D01*
G75*
G02*
X141195495Y-103663767I-44194J44194D01*
G01*
X141107107Y-103575379D01*
G75*
G02*
X141107107Y-103486991I44194J44194D01*
G01*
X141637437Y-102956661D01*
G75*
G02*
X141725825Y-102956661I44194J-44194D01*
G01*
X141814213Y-103045049D01*
G75*
G02*
X141814213Y-103133437I-44194J-44194D01*
G01*
G37*
G04 #@! TD.AperFunction*
G04 #@! TA.AperFunction,SMDPad,CuDef*
G36*
G01*
X141460660Y-102779884D02*
X140930330Y-103310214D01*
G75*
G02*
X140841942Y-103310214I-44194J44194D01*
G01*
X140753554Y-103221826D01*
G75*
G02*
X140753554Y-103133438I44194J44194D01*
G01*
X141283884Y-102603108D01*
G75*
G02*
X141372272Y-102603108I44194J-44194D01*
G01*
X141460660Y-102691496D01*
G75*
G02*
X141460660Y-102779884I-44194J-44194D01*
G01*
G37*
G04 #@! TD.AperFunction*
G04 #@! TA.AperFunction,SMDPad,CuDef*
G36*
G01*
X141107106Y-102426330D02*
X140576776Y-102956660D01*
G75*
G02*
X140488388Y-102956660I-44194J44194D01*
G01*
X140400000Y-102868272D01*
G75*
G02*
X140400000Y-102779884I44194J44194D01*
G01*
X140930330Y-102249554D01*
G75*
G02*
X141018718Y-102249554I44194J-44194D01*
G01*
X141107106Y-102337942D01*
G75*
G02*
X141107106Y-102426330I-44194J-44194D01*
G01*
G37*
G04 #@! TD.AperFunction*
G04 #@! TA.AperFunction,SMDPad,CuDef*
G36*
G01*
X140753553Y-102072777D02*
X140223223Y-102603107D01*
G75*
G02*
X140134835Y-102603107I-44194J44194D01*
G01*
X140046447Y-102514719D01*
G75*
G02*
X140046447Y-102426331I44194J44194D01*
G01*
X140576777Y-101896001D01*
G75*
G02*
X140665165Y-101896001I44194J-44194D01*
G01*
X140753553Y-101984389D01*
G75*
G02*
X140753553Y-102072777I-44194J-44194D01*
G01*
G37*
G04 #@! TD.AperFunction*
G04 #@! TA.AperFunction,SMDPad,CuDef*
G36*
G01*
X139781281Y-102514719D02*
X139692893Y-102603107D01*
G75*
G02*
X139604505Y-102603107I-44194J44194D01*
G01*
X139074175Y-102072777D01*
G75*
G02*
X139074175Y-101984389I44194J44194D01*
G01*
X139162563Y-101896001D01*
G75*
G02*
X139250951Y-101896001I44194J-44194D01*
G01*
X139781281Y-102426331D01*
G75*
G02*
X139781281Y-102514719I-44194J-44194D01*
G01*
G37*
G04 #@! TD.AperFunction*
G04 #@! TA.AperFunction,SMDPad,CuDef*
G36*
G01*
X139427728Y-102868272D02*
X139339340Y-102956660D01*
G75*
G02*
X139250952Y-102956660I-44194J44194D01*
G01*
X138720622Y-102426330D01*
G75*
G02*
X138720622Y-102337942I44194J44194D01*
G01*
X138809010Y-102249554D01*
G75*
G02*
X138897398Y-102249554I44194J-44194D01*
G01*
X139427728Y-102779884D01*
G75*
G02*
X139427728Y-102868272I-44194J-44194D01*
G01*
G37*
G04 #@! TD.AperFunction*
G04 #@! TA.AperFunction,SMDPad,CuDef*
G36*
G01*
X139074174Y-103221826D02*
X138985786Y-103310214D01*
G75*
G02*
X138897398Y-103310214I-44194J44194D01*
G01*
X138367068Y-102779884D01*
G75*
G02*
X138367068Y-102691496I44194J44194D01*
G01*
X138455456Y-102603108D01*
G75*
G02*
X138543844Y-102603108I44194J-44194D01*
G01*
X139074174Y-103133438D01*
G75*
G02*
X139074174Y-103221826I-44194J-44194D01*
G01*
G37*
G04 #@! TD.AperFunction*
G04 #@! TA.AperFunction,SMDPad,CuDef*
G36*
G01*
X138720621Y-103575379D02*
X138632233Y-103663767D01*
G75*
G02*
X138543845Y-103663767I-44194J44194D01*
G01*
X138013515Y-103133437D01*
G75*
G02*
X138013515Y-103045049I44194J44194D01*
G01*
X138101903Y-102956661D01*
G75*
G02*
X138190291Y-102956661I44194J-44194D01*
G01*
X138720621Y-103486991D01*
G75*
G02*
X138720621Y-103575379I-44194J-44194D01*
G01*
G37*
G04 #@! TD.AperFunction*
G04 #@! TA.AperFunction,SMDPad,CuDef*
G36*
G01*
X138367068Y-103928932D02*
X138278680Y-104017320D01*
G75*
G02*
X138190292Y-104017320I-44194J44194D01*
G01*
X137659962Y-103486990D01*
G75*
G02*
X137659962Y-103398602I44194J44194D01*
G01*
X137748350Y-103310214D01*
G75*
G02*
X137836738Y-103310214I44194J-44194D01*
G01*
X138367068Y-103840544D01*
G75*
G02*
X138367068Y-103928932I-44194J-44194D01*
G01*
G37*
G04 #@! TD.AperFunction*
G04 #@! TA.AperFunction,SMDPad,CuDef*
G36*
G01*
X138013514Y-104282486D02*
X137925126Y-104370874D01*
G75*
G02*
X137836738Y-104370874I-44194J44194D01*
G01*
X137306408Y-103840544D01*
G75*
G02*
X137306408Y-103752156I44194J44194D01*
G01*
X137394796Y-103663768D01*
G75*
G02*
X137483184Y-103663768I44194J-44194D01*
G01*
X138013514Y-104194098D01*
G75*
G02*
X138013514Y-104282486I-44194J-44194D01*
G01*
G37*
G04 #@! TD.AperFunction*
G04 #@! TA.AperFunction,SMDPad,CuDef*
G36*
G01*
X137659961Y-104636039D02*
X137571573Y-104724427D01*
G75*
G02*
X137483185Y-104724427I-44194J44194D01*
G01*
X136952855Y-104194097D01*
G75*
G02*
X136952855Y-104105709I44194J44194D01*
G01*
X137041243Y-104017321D01*
G75*
G02*
X137129631Y-104017321I44194J-44194D01*
G01*
X137659961Y-104547651D01*
G75*
G02*
X137659961Y-104636039I-44194J-44194D01*
G01*
G37*
G04 #@! TD.AperFunction*
G04 #@! TA.AperFunction,SMDPad,CuDef*
G36*
G01*
X137306407Y-104989593D02*
X137218019Y-105077981D01*
G75*
G02*
X137129631Y-105077981I-44194J44194D01*
G01*
X136599301Y-104547651D01*
G75*
G02*
X136599301Y-104459263I44194J44194D01*
G01*
X136687689Y-104370875D01*
G75*
G02*
X136776077Y-104370875I44194J-44194D01*
G01*
X137306407Y-104901205D01*
G75*
G02*
X137306407Y-104989593I-44194J-44194D01*
G01*
G37*
G04 #@! TD.AperFunction*
G04 #@! TA.AperFunction,SMDPad,CuDef*
G36*
G01*
X136952854Y-105343146D02*
X136864466Y-105431534D01*
G75*
G02*
X136776078Y-105431534I-44194J44194D01*
G01*
X136245748Y-104901204D01*
G75*
G02*
X136245748Y-104812816I44194J44194D01*
G01*
X136334136Y-104724428D01*
G75*
G02*
X136422524Y-104724428I44194J-44194D01*
G01*
X136952854Y-105254758D01*
G75*
G02*
X136952854Y-105343146I-44194J-44194D01*
G01*
G37*
G04 #@! TD.AperFunction*
G04 #@! TA.AperFunction,SMDPad,CuDef*
G36*
G01*
X136599301Y-105696699D02*
X136510913Y-105785087D01*
G75*
G02*
X136422525Y-105785087I-44194J44194D01*
G01*
X135892195Y-105254757D01*
G75*
G02*
X135892195Y-105166369I44194J44194D01*
G01*
X135980583Y-105077981D01*
G75*
G02*
X136068971Y-105077981I44194J-44194D01*
G01*
X136599301Y-105608311D01*
G75*
G02*
X136599301Y-105696699I-44194J-44194D01*
G01*
G37*
G04 #@! TD.AperFunction*
G04 #@! TA.AperFunction,SMDPad,CuDef*
G36*
G01*
X136245747Y-106050253D02*
X136157359Y-106138641D01*
G75*
G02*
X136068971Y-106138641I-44194J44194D01*
G01*
X135538641Y-105608311D01*
G75*
G02*
X135538641Y-105519923I44194J44194D01*
G01*
X135627029Y-105431535D01*
G75*
G02*
X135715417Y-105431535I44194J-44194D01*
G01*
X136245747Y-105961865D01*
G75*
G02*
X136245747Y-106050253I-44194J-44194D01*
G01*
G37*
G04 #@! TD.AperFunction*
G04 #@! TA.AperFunction,SMDPad,CuDef*
G36*
G01*
X135892194Y-106403806D02*
X135803806Y-106492194D01*
G75*
G02*
X135715418Y-106492194I-44194J44194D01*
G01*
X135185088Y-105961864D01*
G75*
G02*
X135185088Y-105873476I44194J44194D01*
G01*
X135273476Y-105785088D01*
G75*
G02*
X135361864Y-105785088I44194J-44194D01*
G01*
X135892194Y-106315418D01*
G75*
G02*
X135892194Y-106403806I-44194J-44194D01*
G01*
G37*
G04 #@! TD.AperFunction*
G04 #@! TA.AperFunction,SMDPad,CuDef*
G36*
G01*
X135892194Y-106934136D02*
X135361864Y-107464466D01*
G75*
G02*
X135273476Y-107464466I-44194J44194D01*
G01*
X135185088Y-107376078D01*
G75*
G02*
X135185088Y-107287690I44194J44194D01*
G01*
X135715418Y-106757360D01*
G75*
G02*
X135803806Y-106757360I44194J-44194D01*
G01*
X135892194Y-106845748D01*
G75*
G02*
X135892194Y-106934136I-44194J-44194D01*
G01*
G37*
G04 #@! TD.AperFunction*
G04 #@! TA.AperFunction,SMDPad,CuDef*
G36*
G01*
X136245747Y-107287689D02*
X135715417Y-107818019D01*
G75*
G02*
X135627029Y-107818019I-44194J44194D01*
G01*
X135538641Y-107729631D01*
G75*
G02*
X135538641Y-107641243I44194J44194D01*
G01*
X136068971Y-107110913D01*
G75*
G02*
X136157359Y-107110913I44194J-44194D01*
G01*
X136245747Y-107199301D01*
G75*
G02*
X136245747Y-107287689I-44194J-44194D01*
G01*
G37*
G04 #@! TD.AperFunction*
G04 #@! TA.AperFunction,SMDPad,CuDef*
G36*
G01*
X136599301Y-107641243D02*
X136068971Y-108171573D01*
G75*
G02*
X135980583Y-108171573I-44194J44194D01*
G01*
X135892195Y-108083185D01*
G75*
G02*
X135892195Y-107994797I44194J44194D01*
G01*
X136422525Y-107464467D01*
G75*
G02*
X136510913Y-107464467I44194J-44194D01*
G01*
X136599301Y-107552855D01*
G75*
G02*
X136599301Y-107641243I-44194J-44194D01*
G01*
G37*
G04 #@! TD.AperFunction*
G04 #@! TA.AperFunction,SMDPad,CuDef*
G36*
G01*
X136952854Y-107994796D02*
X136422524Y-108525126D01*
G75*
G02*
X136334136Y-108525126I-44194J44194D01*
G01*
X136245748Y-108436738D01*
G75*
G02*
X136245748Y-108348350I44194J44194D01*
G01*
X136776078Y-107818020D01*
G75*
G02*
X136864466Y-107818020I44194J-44194D01*
G01*
X136952854Y-107906408D01*
G75*
G02*
X136952854Y-107994796I-44194J-44194D01*
G01*
G37*
G04 #@! TD.AperFunction*
G04 #@! TA.AperFunction,SMDPad,CuDef*
G36*
G01*
X137306407Y-108348349D02*
X136776077Y-108878679D01*
G75*
G02*
X136687689Y-108878679I-44194J44194D01*
G01*
X136599301Y-108790291D01*
G75*
G02*
X136599301Y-108701903I44194J44194D01*
G01*
X137129631Y-108171573D01*
G75*
G02*
X137218019Y-108171573I44194J-44194D01*
G01*
X137306407Y-108259961D01*
G75*
G02*
X137306407Y-108348349I-44194J-44194D01*
G01*
G37*
G04 #@! TD.AperFunction*
G04 #@! TA.AperFunction,SMDPad,CuDef*
G36*
G01*
X137659961Y-108701903D02*
X137129631Y-109232233D01*
G75*
G02*
X137041243Y-109232233I-44194J44194D01*
G01*
X136952855Y-109143845D01*
G75*
G02*
X136952855Y-109055457I44194J44194D01*
G01*
X137483185Y-108525127D01*
G75*
G02*
X137571573Y-108525127I44194J-44194D01*
G01*
X137659961Y-108613515D01*
G75*
G02*
X137659961Y-108701903I-44194J-44194D01*
G01*
G37*
G04 #@! TD.AperFunction*
G04 #@! TA.AperFunction,SMDPad,CuDef*
G36*
G01*
X138013514Y-109055456D02*
X137483184Y-109585786D01*
G75*
G02*
X137394796Y-109585786I-44194J44194D01*
G01*
X137306408Y-109497398D01*
G75*
G02*
X137306408Y-109409010I44194J44194D01*
G01*
X137836738Y-108878680D01*
G75*
G02*
X137925126Y-108878680I44194J-44194D01*
G01*
X138013514Y-108967068D01*
G75*
G02*
X138013514Y-109055456I-44194J-44194D01*
G01*
G37*
G04 #@! TD.AperFunction*
G04 #@! TA.AperFunction,SMDPad,CuDef*
G36*
G01*
X138367068Y-109409010D02*
X137836738Y-109939340D01*
G75*
G02*
X137748350Y-109939340I-44194J44194D01*
G01*
X137659962Y-109850952D01*
G75*
G02*
X137659962Y-109762564I44194J44194D01*
G01*
X138190292Y-109232234D01*
G75*
G02*
X138278680Y-109232234I44194J-44194D01*
G01*
X138367068Y-109320622D01*
G75*
G02*
X138367068Y-109409010I-44194J-44194D01*
G01*
G37*
G04 #@! TD.AperFunction*
G04 #@! TA.AperFunction,SMDPad,CuDef*
G36*
G01*
X138720621Y-109762563D02*
X138190291Y-110292893D01*
G75*
G02*
X138101903Y-110292893I-44194J44194D01*
G01*
X138013515Y-110204505D01*
G75*
G02*
X138013515Y-110116117I44194J44194D01*
G01*
X138543845Y-109585787D01*
G75*
G02*
X138632233Y-109585787I44194J-44194D01*
G01*
X138720621Y-109674175D01*
G75*
G02*
X138720621Y-109762563I-44194J-44194D01*
G01*
G37*
G04 #@! TD.AperFunction*
G04 #@! TA.AperFunction,SMDPad,CuDef*
G36*
G01*
X139074174Y-110116116D02*
X138543844Y-110646446D01*
G75*
G02*
X138455456Y-110646446I-44194J44194D01*
G01*
X138367068Y-110558058D01*
G75*
G02*
X138367068Y-110469670I44194J44194D01*
G01*
X138897398Y-109939340D01*
G75*
G02*
X138985786Y-109939340I44194J-44194D01*
G01*
X139074174Y-110027728D01*
G75*
G02*
X139074174Y-110116116I-44194J-44194D01*
G01*
G37*
G04 #@! TD.AperFunction*
G04 #@! TA.AperFunction,SMDPad,CuDef*
G36*
G01*
X139427728Y-110469670D02*
X138897398Y-111000000D01*
G75*
G02*
X138809010Y-111000000I-44194J44194D01*
G01*
X138720622Y-110911612D01*
G75*
G02*
X138720622Y-110823224I44194J44194D01*
G01*
X139250952Y-110292894D01*
G75*
G02*
X139339340Y-110292894I44194J-44194D01*
G01*
X139427728Y-110381282D01*
G75*
G02*
X139427728Y-110469670I-44194J-44194D01*
G01*
G37*
G04 #@! TD.AperFunction*
G04 #@! TA.AperFunction,SMDPad,CuDef*
G36*
G01*
X139781281Y-110823223D02*
X139250951Y-111353553D01*
G75*
G02*
X139162563Y-111353553I-44194J44194D01*
G01*
X139074175Y-111265165D01*
G75*
G02*
X139074175Y-111176777I44194J44194D01*
G01*
X139604505Y-110646447D01*
G75*
G02*
X139692893Y-110646447I44194J-44194D01*
G01*
X139781281Y-110734835D01*
G75*
G02*
X139781281Y-110823223I-44194J-44194D01*
G01*
G37*
G04 #@! TD.AperFunction*
G04 #@! TA.AperFunction,SMDPad,CuDef*
G36*
G01*
X140753553Y-111265165D02*
X140665165Y-111353553D01*
G75*
G02*
X140576777Y-111353553I-44194J44194D01*
G01*
X140046447Y-110823223D01*
G75*
G02*
X140046447Y-110734835I44194J44194D01*
G01*
X140134835Y-110646447D01*
G75*
G02*
X140223223Y-110646447I44194J-44194D01*
G01*
X140753553Y-111176777D01*
G75*
G02*
X140753553Y-111265165I-44194J-44194D01*
G01*
G37*
G04 #@! TD.AperFunction*
G04 #@! TA.AperFunction,SMDPad,CuDef*
G36*
G01*
X141107106Y-110911612D02*
X141018718Y-111000000D01*
G75*
G02*
X140930330Y-111000000I-44194J44194D01*
G01*
X140400000Y-110469670D01*
G75*
G02*
X140400000Y-110381282I44194J44194D01*
G01*
X140488388Y-110292894D01*
G75*
G02*
X140576776Y-110292894I44194J-44194D01*
G01*
X141107106Y-110823224D01*
G75*
G02*
X141107106Y-110911612I-44194J-44194D01*
G01*
G37*
G04 #@! TD.AperFunction*
G04 #@! TA.AperFunction,SMDPad,CuDef*
G36*
G01*
X141460660Y-110558058D02*
X141372272Y-110646446D01*
G75*
G02*
X141283884Y-110646446I-44194J44194D01*
G01*
X140753554Y-110116116D01*
G75*
G02*
X140753554Y-110027728I44194J44194D01*
G01*
X140841942Y-109939340D01*
G75*
G02*
X140930330Y-109939340I44194J-44194D01*
G01*
X141460660Y-110469670D01*
G75*
G02*
X141460660Y-110558058I-44194J-44194D01*
G01*
G37*
G04 #@! TD.AperFunction*
G04 #@! TA.AperFunction,SMDPad,CuDef*
G36*
G01*
X141814213Y-110204505D02*
X141725825Y-110292893D01*
G75*
G02*
X141637437Y-110292893I-44194J44194D01*
G01*
X141107107Y-109762563D01*
G75*
G02*
X141107107Y-109674175I44194J44194D01*
G01*
X141195495Y-109585787D01*
G75*
G02*
X141283883Y-109585787I44194J-44194D01*
G01*
X141814213Y-110116117D01*
G75*
G02*
X141814213Y-110204505I-44194J-44194D01*
G01*
G37*
G04 #@! TD.AperFunction*
G04 #@! TA.AperFunction,SMDPad,CuDef*
G36*
G01*
X142167766Y-109850952D02*
X142079378Y-109939340D01*
G75*
G02*
X141990990Y-109939340I-44194J44194D01*
G01*
X141460660Y-109409010D01*
G75*
G02*
X141460660Y-109320622I44194J44194D01*
G01*
X141549048Y-109232234D01*
G75*
G02*
X141637436Y-109232234I44194J-44194D01*
G01*
X142167766Y-109762564D01*
G75*
G02*
X142167766Y-109850952I-44194J-44194D01*
G01*
G37*
G04 #@! TD.AperFunction*
G04 #@! TA.AperFunction,SMDPad,CuDef*
G36*
G01*
X142521320Y-109497398D02*
X142432932Y-109585786D01*
G75*
G02*
X142344544Y-109585786I-44194J44194D01*
G01*
X141814214Y-109055456D01*
G75*
G02*
X141814214Y-108967068I44194J44194D01*
G01*
X141902602Y-108878680D01*
G75*
G02*
X141990990Y-108878680I44194J-44194D01*
G01*
X142521320Y-109409010D01*
G75*
G02*
X142521320Y-109497398I-44194J-44194D01*
G01*
G37*
G04 #@! TD.AperFunction*
G04 #@! TA.AperFunction,SMDPad,CuDef*
G36*
G01*
X142874873Y-109143845D02*
X142786485Y-109232233D01*
G75*
G02*
X142698097Y-109232233I-44194J44194D01*
G01*
X142167767Y-108701903D01*
G75*
G02*
X142167767Y-108613515I44194J44194D01*
G01*
X142256155Y-108525127D01*
G75*
G02*
X142344543Y-108525127I44194J-44194D01*
G01*
X142874873Y-109055457D01*
G75*
G02*
X142874873Y-109143845I-44194J-44194D01*
G01*
G37*
G04 #@! TD.AperFunction*
G04 #@! TA.AperFunction,SMDPad,CuDef*
G36*
G01*
X143228427Y-108790291D02*
X143140039Y-108878679D01*
G75*
G02*
X143051651Y-108878679I-44194J44194D01*
G01*
X142521321Y-108348349D01*
G75*
G02*
X142521321Y-108259961I44194J44194D01*
G01*
X142609709Y-108171573D01*
G75*
G02*
X142698097Y-108171573I44194J-44194D01*
G01*
X143228427Y-108701903D01*
G75*
G02*
X143228427Y-108790291I-44194J-44194D01*
G01*
G37*
G04 #@! TD.AperFunction*
G04 #@! TA.AperFunction,SMDPad,CuDef*
G36*
G01*
X143581980Y-108436738D02*
X143493592Y-108525126D01*
G75*
G02*
X143405204Y-108525126I-44194J44194D01*
G01*
X142874874Y-107994796D01*
G75*
G02*
X142874874Y-107906408I44194J44194D01*
G01*
X142963262Y-107818020D01*
G75*
G02*
X143051650Y-107818020I44194J-44194D01*
G01*
X143581980Y-108348350D01*
G75*
G02*
X143581980Y-108436738I-44194J-44194D01*
G01*
G37*
G04 #@! TD.AperFunction*
G04 #@! TA.AperFunction,SMDPad,CuDef*
G36*
G01*
X143935533Y-108083185D02*
X143847145Y-108171573D01*
G75*
G02*
X143758757Y-108171573I-44194J44194D01*
G01*
X143228427Y-107641243D01*
G75*
G02*
X143228427Y-107552855I44194J44194D01*
G01*
X143316815Y-107464467D01*
G75*
G02*
X143405203Y-107464467I44194J-44194D01*
G01*
X143935533Y-107994797D01*
G75*
G02*
X143935533Y-108083185I-44194J-44194D01*
G01*
G37*
G04 #@! TD.AperFunction*
G04 #@! TA.AperFunction,SMDPad,CuDef*
G36*
G01*
X144289087Y-107729631D02*
X144200699Y-107818019D01*
G75*
G02*
X144112311Y-107818019I-44194J44194D01*
G01*
X143581981Y-107287689D01*
G75*
G02*
X143581981Y-107199301I44194J44194D01*
G01*
X143670369Y-107110913D01*
G75*
G02*
X143758757Y-107110913I44194J-44194D01*
G01*
X144289087Y-107641243D01*
G75*
G02*
X144289087Y-107729631I-44194J-44194D01*
G01*
G37*
G04 #@! TD.AperFunction*
G04 #@! TA.AperFunction,SMDPad,CuDef*
G36*
G01*
X144642640Y-107376078D02*
X144554252Y-107464466D01*
G75*
G02*
X144465864Y-107464466I-44194J44194D01*
G01*
X143935534Y-106934136D01*
G75*
G02*
X143935534Y-106845748I44194J44194D01*
G01*
X144023922Y-106757360D01*
G75*
G02*
X144112310Y-106757360I44194J-44194D01*
G01*
X144642640Y-107287690D01*
G75*
G02*
X144642640Y-107376078I-44194J-44194D01*
G01*
G37*
G04 #@! TD.AperFunction*
G04 #@! TA.AperFunction,SMDPad,CuDef*
G36*
G01*
X143377025Y-106803215D02*
X140092302Y-110087938D01*
G75*
G02*
X139735426Y-110087938I-178438J178438D01*
G01*
X136450703Y-106803215D01*
G75*
G02*
X136450703Y-106446339I178438J178438D01*
G01*
X139735426Y-103161616D01*
G75*
G02*
X140092302Y-103161616I178438J-178438D01*
G01*
X143377025Y-106446339D01*
G75*
G02*
X143377025Y-106803215I-178438J-178438D01*
G01*
G37*
G04 #@! TD.AperFunction*
G04 #@! TA.AperFunction,SMDPad,CuDef*
G36*
G01*
X118525000Y-110462500D02*
X118525000Y-110117500D01*
G75*
G02*
X118672500Y-109970000I147500J0D01*
G01*
X118967500Y-109970000D01*
G75*
G02*
X119115000Y-110117500I0J-147500D01*
G01*
X119115000Y-110462500D01*
G75*
G02*
X118967500Y-110610000I-147500J0D01*
G01*
X118672500Y-110610000D01*
G75*
G02*
X118525000Y-110462500I0J147500D01*
G01*
G37*
G04 #@! TD.AperFunction*
G04 #@! TA.AperFunction,SMDPad,CuDef*
G36*
G01*
X117555000Y-110462500D02*
X117555000Y-110117500D01*
G75*
G02*
X117702500Y-109970000I147500J0D01*
G01*
X117997500Y-109970000D01*
G75*
G02*
X118145000Y-110117500I0J-147500D01*
G01*
X118145000Y-110462500D01*
G75*
G02*
X117997500Y-110610000I-147500J0D01*
G01*
X117702500Y-110610000D01*
G75*
G02*
X117555000Y-110462500I0J147500D01*
G01*
G37*
G04 #@! TD.AperFunction*
G04 #@! TA.AperFunction,SMDPad,CuDef*
G36*
G01*
X160827500Y-110305000D02*
X161172500Y-110305000D01*
G75*
G02*
X161320000Y-110452500I0J-147500D01*
G01*
X161320000Y-110747500D01*
G75*
G02*
X161172500Y-110895000I-147500J0D01*
G01*
X160827500Y-110895000D01*
G75*
G02*
X160680000Y-110747500I0J147500D01*
G01*
X160680000Y-110452500D01*
G75*
G02*
X160827500Y-110305000I147500J0D01*
G01*
G37*
G04 #@! TD.AperFunction*
G04 #@! TA.AperFunction,SMDPad,CuDef*
G36*
G01*
X160827500Y-109335000D02*
X161172500Y-109335000D01*
G75*
G02*
X161320000Y-109482500I0J-147500D01*
G01*
X161320000Y-109777500D01*
G75*
G02*
X161172500Y-109925000I-147500J0D01*
G01*
X160827500Y-109925000D01*
G75*
G02*
X160680000Y-109777500I0J147500D01*
G01*
X160680000Y-109482500D01*
G75*
G02*
X160827500Y-109335000I147500J0D01*
G01*
G37*
G04 #@! TD.AperFunction*
G04 #@! TA.AperFunction,SMDPad,CuDef*
G36*
G01*
X121027500Y-106075000D02*
X121372500Y-106075000D01*
G75*
G02*
X121520000Y-106222500I0J-147500D01*
G01*
X121520000Y-106517500D01*
G75*
G02*
X121372500Y-106665000I-147500J0D01*
G01*
X121027500Y-106665000D01*
G75*
G02*
X120880000Y-106517500I0J147500D01*
G01*
X120880000Y-106222500D01*
G75*
G02*
X121027500Y-106075000I147500J0D01*
G01*
G37*
G04 #@! TD.AperFunction*
G04 #@! TA.AperFunction,SMDPad,CuDef*
G36*
G01*
X121027500Y-105105000D02*
X121372500Y-105105000D01*
G75*
G02*
X121520000Y-105252500I0J-147500D01*
G01*
X121520000Y-105547500D01*
G75*
G02*
X121372500Y-105695000I-147500J0D01*
G01*
X121027500Y-105695000D01*
G75*
G02*
X120880000Y-105547500I0J147500D01*
G01*
X120880000Y-105252500D01*
G75*
G02*
X121027500Y-105105000I147500J0D01*
G01*
G37*
G04 #@! TD.AperFunction*
D20*
X112400000Y-110580000D03*
X112400000Y-105460000D03*
D21*
X111100000Y-101400000D03*
X106400000Y-101400000D03*
D22*
X101425000Y-101785000D03*
D23*
X101650000Y-113525000D03*
D24*
X101300000Y-112325000D03*
D25*
X101300000Y-111275000D03*
X101300000Y-110175000D03*
X101300000Y-109075000D03*
X101300000Y-107975000D03*
X101300000Y-106875000D03*
X101300000Y-105775000D03*
X101300000Y-104675000D03*
D26*
X157700000Y-107750000D03*
D27*
X157700000Y-113000000D03*
X157700000Y-105800000D03*
D28*
X154705000Y-102435000D03*
X150895000Y-102435000D03*
D27*
X148000000Y-105800000D03*
X147900000Y-113000000D03*
D26*
X157700000Y-110150000D03*
X157700000Y-108950000D03*
X148000000Y-107750000D03*
X148000000Y-108950000D03*
X148000000Y-110150000D03*
G04 #@! TA.AperFunction,SMDPad,CuDef*
G36*
G01*
X147645000Y-100637500D02*
X147645000Y-100982500D01*
G75*
G02*
X147497500Y-101130000I-147500J0D01*
G01*
X147202500Y-101130000D01*
G75*
G02*
X147055000Y-100982500I0J147500D01*
G01*
X147055000Y-100637500D01*
G75*
G02*
X147202500Y-100490000I147500J0D01*
G01*
X147497500Y-100490000D01*
G75*
G02*
X147645000Y-100637500I0J-147500D01*
G01*
G37*
G04 #@! TD.AperFunction*
G04 #@! TA.AperFunction,SMDPad,CuDef*
G36*
G01*
X148615000Y-100637500D02*
X148615000Y-100982500D01*
G75*
G02*
X148467500Y-101130000I-147500J0D01*
G01*
X148172500Y-101130000D01*
G75*
G02*
X148025000Y-100982500I0J147500D01*
G01*
X148025000Y-100637500D01*
G75*
G02*
X148172500Y-100490000I147500J0D01*
G01*
X148467500Y-100490000D01*
G75*
G02*
X148615000Y-100637500I0J-147500D01*
G01*
G37*
G04 #@! TD.AperFunction*
G04 #@! TA.AperFunction,SMDPad,CuDef*
G36*
G01*
X143343673Y-109612375D02*
X143587625Y-109856327D01*
G75*
G02*
X143587625Y-110064923I-104298J-104298D01*
G01*
X143379029Y-110273519D01*
G75*
G02*
X143170433Y-110273519I-104298J104298D01*
G01*
X142926481Y-110029567D01*
G75*
G02*
X142926481Y-109820971I104298J104298D01*
G01*
X143135077Y-109612375D01*
G75*
G02*
X143343673Y-109612375I104298J-104298D01*
G01*
G37*
G04 #@! TD.AperFunction*
G04 #@! TA.AperFunction,SMDPad,CuDef*
G36*
G01*
X144029567Y-108926481D02*
X144273519Y-109170433D01*
G75*
G02*
X144273519Y-109379029I-104298J-104298D01*
G01*
X144064923Y-109587625D01*
G75*
G02*
X143856327Y-109587625I-104298J104298D01*
G01*
X143612375Y-109343673D01*
G75*
G02*
X143612375Y-109135077I104298J104298D01*
G01*
X143820971Y-108926481D01*
G75*
G02*
X144029567Y-108926481I104298J-104298D01*
G01*
G37*
G04 #@! TD.AperFunction*
G04 #@! TA.AperFunction,SMDPad,CuDef*
G36*
G01*
X143387625Y-103143673D02*
X143143673Y-103387625D01*
G75*
G02*
X142935077Y-103387625I-104298J104298D01*
G01*
X142726481Y-103179029D01*
G75*
G02*
X142726481Y-102970433I104298J104298D01*
G01*
X142970433Y-102726481D01*
G75*
G02*
X143179029Y-102726481I104298J-104298D01*
G01*
X143387625Y-102935077D01*
G75*
G02*
X143387625Y-103143673I-104298J-104298D01*
G01*
G37*
G04 #@! TD.AperFunction*
G04 #@! TA.AperFunction,SMDPad,CuDef*
G36*
G01*
X144073519Y-103829567D02*
X143829567Y-104073519D01*
G75*
G02*
X143620971Y-104073519I-104298J104298D01*
G01*
X143412375Y-103864923D01*
G75*
G02*
X143412375Y-103656327I104298J104298D01*
G01*
X143656327Y-103412375D01*
G75*
G02*
X143864923Y-103412375I104298J-104298D01*
G01*
X144073519Y-103620971D01*
G75*
G02*
X144073519Y-103829567I-104298J-104298D01*
G01*
G37*
G04 #@! TD.AperFunction*
G04 #@! TA.AperFunction,SMDPad,CuDef*
G36*
G01*
X136887625Y-110043673D02*
X136643673Y-110287625D01*
G75*
G02*
X136435077Y-110287625I-104298J104298D01*
G01*
X136226481Y-110079029D01*
G75*
G02*
X136226481Y-109870433I104298J104298D01*
G01*
X136470433Y-109626481D01*
G75*
G02*
X136679029Y-109626481I104298J-104298D01*
G01*
X136887625Y-109835077D01*
G75*
G02*
X136887625Y-110043673I-104298J-104298D01*
G01*
G37*
G04 #@! TD.AperFunction*
G04 #@! TA.AperFunction,SMDPad,CuDef*
G36*
G01*
X137573519Y-110729567D02*
X137329567Y-110973519D01*
G75*
G02*
X137120971Y-110973519I-104298J104298D01*
G01*
X136912375Y-110764923D01*
G75*
G02*
X136912375Y-110556327I104298J104298D01*
G01*
X137156327Y-110312375D01*
G75*
G02*
X137364923Y-110312375I104298J-104298D01*
G01*
X137573519Y-110520971D01*
G75*
G02*
X137573519Y-110729567I-104298J-104298D01*
G01*
G37*
G04 #@! TD.AperFunction*
G04 #@! TA.AperFunction,SMDPad,CuDef*
G36*
G01*
X143595000Y-113927500D02*
X143595000Y-114272500D01*
G75*
G02*
X143447500Y-114420000I-147500J0D01*
G01*
X143152500Y-114420000D01*
G75*
G02*
X143005000Y-114272500I0J147500D01*
G01*
X143005000Y-113927500D01*
G75*
G02*
X143152500Y-113780000I147500J0D01*
G01*
X143447500Y-113780000D01*
G75*
G02*
X143595000Y-113927500I0J-147500D01*
G01*
G37*
G04 #@! TD.AperFunction*
G04 #@! TA.AperFunction,SMDPad,CuDef*
G36*
G01*
X144565000Y-113927500D02*
X144565000Y-114272500D01*
G75*
G02*
X144417500Y-114420000I-147500J0D01*
G01*
X144122500Y-114420000D01*
G75*
G02*
X143975000Y-114272500I0J147500D01*
G01*
X143975000Y-113927500D01*
G75*
G02*
X144122500Y-113780000I147500J0D01*
G01*
X144417500Y-113780000D01*
G75*
G02*
X144565000Y-113927500I0J-147500D01*
G01*
G37*
G04 #@! TD.AperFunction*
G04 #@! TA.AperFunction,SMDPad,CuDef*
G36*
G01*
X145625000Y-113927500D02*
X145625000Y-114272500D01*
G75*
G02*
X145477500Y-114420000I-147500J0D01*
G01*
X145182500Y-114420000D01*
G75*
G02*
X145035000Y-114272500I0J147500D01*
G01*
X145035000Y-113927500D01*
G75*
G02*
X145182500Y-113780000I147500J0D01*
G01*
X145477500Y-113780000D01*
G75*
G02*
X145625000Y-113927500I0J-147500D01*
G01*
G37*
G04 #@! TD.AperFunction*
G04 #@! TA.AperFunction,SMDPad,CuDef*
G36*
G01*
X146595000Y-113927500D02*
X146595000Y-114272500D01*
G75*
G02*
X146447500Y-114420000I-147500J0D01*
G01*
X146152500Y-114420000D01*
G75*
G02*
X146005000Y-114272500I0J147500D01*
G01*
X146005000Y-113927500D01*
G75*
G02*
X146152500Y-113780000I147500J0D01*
G01*
X146447500Y-113780000D01*
G75*
G02*
X146595000Y-113927500I0J-147500D01*
G01*
G37*
G04 #@! TD.AperFunction*
G04 #@! TA.AperFunction,SMDPad,CuDef*
G36*
G01*
X115856250Y-112550000D02*
X114943750Y-112550000D01*
G75*
G02*
X114700000Y-112306250I0J243750D01*
G01*
X114700000Y-111818750D01*
G75*
G02*
X114943750Y-111575000I243750J0D01*
G01*
X115856250Y-111575000D01*
G75*
G02*
X116100000Y-111818750I0J-243750D01*
G01*
X116100000Y-112306250D01*
G75*
G02*
X115856250Y-112550000I-243750J0D01*
G01*
G37*
G04 #@! TD.AperFunction*
G04 #@! TA.AperFunction,SMDPad,CuDef*
G36*
G01*
X115856250Y-114425000D02*
X114943750Y-114425000D01*
G75*
G02*
X114700000Y-114181250I0J243750D01*
G01*
X114700000Y-113693750D01*
G75*
G02*
X114943750Y-113450000I243750J0D01*
G01*
X115856250Y-113450000D01*
G75*
G02*
X116100000Y-113693750I0J-243750D01*
G01*
X116100000Y-114181250D01*
G75*
G02*
X115856250Y-114425000I-243750J0D01*
G01*
G37*
G04 #@! TD.AperFunction*
D29*
X167950000Y-113250000D03*
X167950000Y-110750000D03*
D30*
X161940000Y-114030000D03*
D31*
X143000000Y-106600000D03*
X141500000Y-106200000D03*
D30*
X138450000Y-101700000D03*
X115400000Y-113950000D03*
D31*
X105500000Y-108000000D03*
X137215655Y-110580000D03*
X143070000Y-104110000D03*
D30*
X143195557Y-109932717D03*
D31*
X148900000Y-113750000D03*
X158969990Y-102540000D03*
X117810000Y-106570000D03*
X117150000Y-106570000D03*
D30*
X134093503Y-107764080D03*
X105310000Y-110539988D03*
X122049990Y-105370000D03*
X134350000Y-104390010D03*
X125210000Y-107839978D03*
D31*
X119000000Y-105600000D03*
D30*
X111000000Y-106800000D03*
X134730000Y-108380000D03*
X104810000Y-105760000D03*
X134876393Y-109023571D03*
X104280000Y-106760000D03*
X140890036Y-112907052D03*
X137800000Y-101500000D03*
X141550000Y-112914936D03*
X139850000Y-101445046D03*
X135440376Y-108609256D03*
X103999990Y-109690000D03*
X144990000Y-110370000D03*
X145070243Y-105305036D03*
X145010000Y-106570000D03*
X135940000Y-103720000D03*
X162730000Y-110660000D03*
X133003961Y-108449080D03*
X139122765Y-112141767D03*
X163010000Y-111760000D03*
X133470653Y-107982389D03*
X138335382Y-111889933D03*
X117830000Y-104970000D03*
X117230000Y-104480000D03*
X161000000Y-110600000D03*
X136790000Y-103150000D03*
X144779979Y-109628477D03*
X159930000Y-110450000D03*
D31*
X105130000Y-102370000D03*
D30*
X141180553Y-100899447D03*
X156537865Y-111465409D03*
X145020000Y-104000000D03*
X134440039Y-105920000D03*
X145210000Y-104660000D03*
X134800000Y-106600000D03*
X148770000Y-111360000D03*
X156711031Y-113811936D03*
X136150000Y-102960000D03*
X156820000Y-107970000D03*
X155760000Y-112850000D03*
X144200000Y-102970000D03*
X136790000Y-102470000D03*
X158700000Y-113100000D03*
X149428676Y-111401820D03*
X146960006Y-110560006D03*
X146078517Y-101441483D03*
D31*
X115000000Y-106400000D03*
X114200000Y-106400000D03*
D30*
X136010000Y-110480000D03*
X131860000Y-107180000D03*
X120969999Y-109440000D03*
D31*
X109410000Y-114210000D03*
X112400000Y-105400000D03*
X113600000Y-108650000D03*
X113600000Y-107760000D03*
X115400000Y-108200000D03*
X107000000Y-105800000D03*
X108200000Y-105800000D03*
X109200000Y-105800000D03*
X158700000Y-107100000D03*
X158700000Y-108325000D03*
X159420000Y-108930000D03*
X159420000Y-106510000D03*
X165420000Y-101600000D03*
X165410000Y-104000000D03*
X164680000Y-103440000D03*
X164660000Y-102050000D03*
X158700000Y-105320000D03*
X115970000Y-105540000D03*
X119850000Y-106570000D03*
X103280000Y-112220000D03*
X102980000Y-103500000D03*
X102940000Y-110150000D03*
X112400000Y-111885000D03*
D30*
X155000000Y-104000000D03*
D31*
X153000000Y-104000000D03*
X151000000Y-104000000D03*
X155000000Y-105600000D03*
X153000000Y-105600000D03*
X151000000Y-105600000D03*
X149000000Y-104000000D03*
X153000000Y-108800000D03*
X155000000Y-108800000D03*
X155000000Y-107200000D03*
X153000000Y-107200000D03*
X151000000Y-107200000D03*
X149000000Y-105600000D03*
X149000000Y-108800000D03*
X164600000Y-111600000D03*
X145185000Y-113800000D03*
X151300000Y-113100000D03*
X157700000Y-113000000D03*
D30*
X139790000Y-104200000D03*
D31*
X148133162Y-101406838D03*
X149743154Y-101540000D03*
X114345000Y-112050000D03*
X165240000Y-107460000D03*
X167870000Y-107440000D03*
X163220000Y-106180000D03*
X169240000Y-104300000D03*
X169250000Y-101220000D03*
X115400000Y-112050000D03*
X139310000Y-108100000D03*
X153750000Y-112840002D03*
D30*
X112870000Y-113160000D03*
X149400000Y-100500000D03*
X107300000Y-109200000D03*
X155000000Y-100800000D03*
X108800000Y-108800000D03*
X137732429Y-112250032D03*
X156800000Y-109750000D03*
X154650000Y-112900000D03*
X155040000Y-109510000D03*
X153200000Y-111450000D03*
X136950000Y-114430000D03*
X118550000Y-112490000D03*
X152540000Y-111430000D03*
X120180000Y-111440000D03*
X137770000Y-114510088D03*
X160400000Y-103400000D03*
X147600000Y-103000000D03*
D32*
X142521320Y-108878680D02*
X142521320Y-108881320D01*
X142521320Y-108881320D02*
X142970000Y-109330000D01*
X142970000Y-109655894D02*
X143257053Y-109942947D01*
X142970000Y-109330000D02*
X142970000Y-109655894D01*
X142874874Y-104724428D02*
X142885572Y-104724428D01*
X143742947Y-103867053D02*
X143742947Y-103742947D01*
X142885572Y-104724428D02*
X143742947Y-103867053D01*
X137242947Y-110356355D02*
X138013515Y-109585787D01*
X137242947Y-110642947D02*
X137242947Y-110356355D01*
X139427728Y-102249554D02*
X138878174Y-101700000D01*
X138878174Y-101700000D02*
X138450000Y-101700000D01*
D33*
X101305000Y-107980000D02*
X101300000Y-107975000D01*
X104452802Y-107980000D02*
X101305000Y-107980000D01*
D34*
X124600000Y-102200000D02*
X124600000Y-105800000D01*
D33*
X105480000Y-107980000D02*
X105500000Y-108000000D01*
X104452802Y-107980000D02*
X105480000Y-107980000D01*
D32*
X122440000Y-102200000D02*
X124600000Y-102200000D01*
X122160020Y-102479980D02*
X122440000Y-102200000D01*
X122160020Y-104439980D02*
X122160020Y-102479980D01*
X121200000Y-105400000D02*
X122160020Y-104439980D01*
X137242947Y-110607292D02*
X137215655Y-110580000D01*
X137242947Y-110642947D02*
X137242947Y-110607292D01*
X142782194Y-104110000D02*
X142521320Y-104370874D01*
X143070000Y-104110000D02*
X142782194Y-104110000D01*
X143375894Y-104110000D02*
X143742947Y-103742947D01*
X143070000Y-104110000D02*
X143375894Y-104110000D01*
D35*
X143205787Y-109942947D02*
X143195557Y-109932717D01*
X143257053Y-109942947D02*
X143205787Y-109942947D01*
D32*
X116715000Y-106575000D02*
X116720000Y-106570000D01*
X115975000Y-106575000D02*
X116715000Y-106575000D01*
X118105000Y-106575000D02*
X118100000Y-106570000D01*
X118825000Y-106575000D02*
X118105000Y-106575000D01*
D33*
X117810000Y-106570000D02*
X118100000Y-106570000D01*
X117150000Y-106570000D02*
X116720000Y-106570000D01*
X117370000Y-106570000D02*
X117150000Y-106570000D01*
X117370000Y-106570000D02*
X117810000Y-106570000D01*
D32*
X135538641Y-107110913D02*
X135538641Y-107111359D01*
X135538641Y-107110913D02*
X134746670Y-107110913D01*
X134746670Y-107110913D02*
X134093503Y-107764080D01*
X101300000Y-111275000D02*
X104574988Y-111275000D01*
X104574988Y-111275000D02*
X105310000Y-110539988D01*
X135204224Y-104390010D02*
X134350000Y-104390010D01*
X136245748Y-105431534D02*
X135204224Y-104390010D01*
X124519968Y-107839978D02*
X125210000Y-107839978D01*
X122049990Y-105370000D02*
X124519968Y-107839978D01*
X118825000Y-105775000D02*
X119000000Y-105600000D01*
X118825000Y-106225000D02*
X118825000Y-105775000D01*
X119175000Y-105775000D02*
X119000000Y-105600000D01*
X119175000Y-106225000D02*
X119175000Y-105775000D01*
X117200000Y-105600000D02*
X119000000Y-105600000D01*
X116400000Y-104800000D02*
X117200000Y-105600000D01*
X114000000Y-104800000D02*
X116400000Y-104800000D01*
X113200000Y-104000000D02*
X114000000Y-104800000D01*
X111400000Y-104000000D02*
X113200000Y-104000000D01*
X111000000Y-104400000D02*
X111400000Y-104000000D01*
X111000000Y-106800000D02*
X111000000Y-104400000D01*
X117850000Y-109890000D02*
X117850000Y-110290000D01*
X117290000Y-109330000D02*
X117850000Y-109890000D01*
X113176447Y-109330000D02*
X117290000Y-109330000D01*
X111000000Y-107153553D02*
X113176447Y-109330000D01*
X111000000Y-106800000D02*
X111000000Y-107153553D01*
X134976660Y-108380000D02*
X134730000Y-108380000D01*
X135892194Y-107464466D02*
X134976660Y-108380000D01*
X101315000Y-105760000D02*
X101300000Y-105775000D01*
X104810000Y-105760000D02*
X101315000Y-105760000D01*
X121200000Y-106370000D02*
X121160000Y-106410000D01*
X113379990Y-111924808D02*
X112704798Y-112600000D01*
X113379990Y-110319664D02*
X113379990Y-111924808D01*
X113979664Y-109719990D02*
X113379990Y-110319664D01*
X108439999Y-109389999D02*
X104810000Y-105760000D01*
X118272562Y-111930000D02*
X116062552Y-109719990D01*
X120390000Y-111930000D02*
X118272562Y-111930000D01*
X121459999Y-110860001D02*
X120390000Y-111930000D01*
X121459999Y-107089999D02*
X121459999Y-110860001D01*
X112704798Y-112600000D02*
X111650000Y-112600000D01*
X116062552Y-109719990D02*
X113979664Y-109719990D01*
X121200000Y-106830000D02*
X121459999Y-107089999D01*
X111650000Y-112600000D02*
X108439999Y-109389999D01*
X121200000Y-106370000D02*
X121200000Y-106830000D01*
X135473868Y-109273570D02*
X135126392Y-109273570D01*
X136575865Y-108171573D02*
X135473868Y-109273570D01*
X135126392Y-109273570D02*
X134876393Y-109023571D01*
X136599301Y-108171573D02*
X136575865Y-108171573D01*
X101415000Y-106760000D02*
X101300000Y-106875000D01*
X104280000Y-106760000D02*
X101415000Y-106760000D01*
X141160000Y-102196660D02*
X141160000Y-102046659D01*
X138344959Y-100955041D02*
X137800000Y-101500000D01*
X140068382Y-100955041D02*
X138344959Y-100955041D01*
X140753553Y-102603107D02*
X141160000Y-102196660D01*
X141160000Y-102046659D02*
X140068382Y-100955041D01*
X139850000Y-101699554D02*
X139850000Y-101445046D01*
X140400000Y-102249554D02*
X139850000Y-101699554D01*
X136245748Y-107818020D02*
X136240349Y-107818020D01*
X103384990Y-109075000D02*
X101300000Y-109075000D01*
X103999990Y-109690000D02*
X103384990Y-109075000D01*
X135460744Y-108609256D02*
X135440376Y-108609256D01*
X136245748Y-107824252D02*
X135460744Y-108609256D01*
X136245748Y-107818020D02*
X136245748Y-107824252D01*
X143581980Y-107818020D02*
X143588020Y-107818020D01*
X145269989Y-109323199D02*
X145269989Y-110090011D01*
X145269989Y-110090011D02*
X144990000Y-110370000D01*
X143581980Y-107818020D02*
X143581980Y-107821980D01*
X144270049Y-108323259D02*
X145269989Y-109323199D01*
X144083259Y-108323259D02*
X144270049Y-108323259D01*
X143581980Y-107821980D02*
X144083259Y-108323259D01*
X144415586Y-105305036D02*
X145070243Y-105305036D01*
X143935534Y-105785088D02*
X144415586Y-105305036D01*
X144578641Y-106138641D02*
X145010000Y-106570000D01*
X144289087Y-106138641D02*
X144578641Y-106138641D01*
X142169977Y-113010023D02*
X141570022Y-113609978D01*
X135988448Y-114129989D02*
X128925489Y-114129989D01*
X136738381Y-113380056D02*
X135988448Y-114129989D01*
X142169977Y-110648657D02*
X142169977Y-113010023D01*
X128925489Y-114129989D02*
X127825500Y-113030000D01*
X138310385Y-113380056D02*
X136738381Y-113380056D01*
X138540307Y-113609978D02*
X138310385Y-113380056D01*
X141570022Y-113609978D02*
X138540307Y-113609978D01*
X141460660Y-109939340D02*
X142169977Y-110648657D01*
X136944428Y-104724428D02*
X135940000Y-103720000D01*
X136952854Y-104724428D02*
X136944428Y-104724428D01*
X162625000Y-110555000D02*
X162730000Y-110660000D01*
X162625000Y-109450000D02*
X162625000Y-110555000D01*
X139427728Y-111836804D02*
X139122765Y-112141767D01*
X139427728Y-111000000D02*
X139427728Y-111836804D01*
X139074175Y-110646447D02*
X139073553Y-110646447D01*
X163275000Y-112025000D02*
X163275000Y-113750000D01*
X163010000Y-111760000D02*
X163275000Y-112025000D01*
X138335382Y-111562016D02*
X138335382Y-111889933D01*
X138650000Y-111247398D02*
X138335382Y-111562016D01*
X138650000Y-111080000D02*
X138650000Y-111247398D01*
X139074175Y-110655825D02*
X138650000Y-111080000D01*
X139074175Y-110646447D02*
X139074175Y-110655825D01*
X126050010Y-108079990D02*
X124740000Y-109390000D01*
X131714885Y-108079990D02*
X126050010Y-108079990D01*
X133310001Y-106484874D02*
X131714885Y-108079990D01*
X133310001Y-104534795D02*
X133310001Y-106484874D01*
X133944796Y-103900000D02*
X133310001Y-104534795D01*
X135421320Y-103900000D02*
X133944796Y-103900000D01*
X136599301Y-105077981D02*
X135421320Y-103900000D01*
X121262553Y-104800009D02*
X121840010Y-104222552D01*
X117999990Y-104800010D02*
X121262553Y-104800009D01*
X117830000Y-104970000D02*
X117999990Y-104800010D01*
X121840010Y-101349990D02*
X122554980Y-100635020D01*
X121840010Y-104222552D02*
X121840010Y-101349990D01*
X135691874Y-100635020D02*
X138367068Y-103310214D01*
X122554980Y-100635020D02*
X135691874Y-100635020D01*
X138720621Y-102956661D02*
X138034252Y-102270292D01*
X137779708Y-102270292D02*
X135824427Y-100315011D01*
X138034252Y-102270292D02*
X137779708Y-102270292D01*
X135824427Y-100315011D02*
X135824426Y-100315010D01*
X121130000Y-104480000D02*
X117230000Y-104480000D01*
X121520000Y-104090000D02*
X121130000Y-104480000D01*
X121520000Y-101210000D02*
X121520000Y-104090000D01*
X122414990Y-100315010D02*
X121520000Y-101210000D01*
X135824427Y-100315011D02*
X122414990Y-100315010D01*
X129680011Y-110520011D02*
X135232551Y-110520011D01*
X128550000Y-109390000D02*
X129680011Y-110520011D01*
X135232551Y-110520011D02*
X136452562Y-109300000D01*
X136885088Y-109300000D02*
X137306408Y-108878680D01*
X136452562Y-109300000D02*
X136885088Y-109300000D01*
X135000000Y-110200000D02*
X136300000Y-108900000D01*
X129820000Y-109720000D02*
X130300000Y-110200000D01*
X129820000Y-109390000D02*
X129820000Y-109720000D01*
X130300000Y-110200000D02*
X135000000Y-110200000D01*
X136300000Y-108900000D02*
X136577980Y-108900000D01*
X136577980Y-108900000D02*
X136952854Y-108525126D01*
D36*
X167450000Y-113750000D02*
X167950000Y-113250000D01*
X164575000Y-113750000D02*
X167450000Y-113750000D01*
X166650000Y-109450000D02*
X167950000Y-110750000D01*
X164575000Y-109450000D02*
X166650000Y-109450000D01*
D32*
X143300000Y-114100000D02*
X143300000Y-113700000D01*
X143550000Y-113450000D02*
X143550000Y-112200000D01*
X143300000Y-113700000D02*
X143550000Y-113450000D01*
X143860000Y-112200000D02*
X143550000Y-112200000D01*
X145590000Y-110470000D02*
X143860000Y-112200000D01*
X145590000Y-109118932D02*
X145590000Y-110470000D01*
X143935534Y-107464466D02*
X145590000Y-109118932D01*
D36*
X162625000Y-112225000D02*
X162625000Y-113750000D01*
X161000000Y-110600000D02*
X162625000Y-112225000D01*
D32*
X137659961Y-104017321D02*
X136792640Y-103150000D01*
X136792640Y-103150000D02*
X136790000Y-103150000D01*
D36*
X161000000Y-109630000D02*
X161450000Y-109630000D01*
X161450000Y-109630000D02*
X161960000Y-110140000D01*
D32*
X143700123Y-108643269D02*
X144085781Y-108643269D01*
X143228427Y-108171573D02*
X143700123Y-108643269D01*
X144085781Y-108643269D02*
X144779979Y-109337467D01*
X144779979Y-109337467D02*
X144779979Y-109628477D01*
X159930000Y-110450000D02*
X159930000Y-109860000D01*
X160160000Y-109630000D02*
X161000000Y-109630000D01*
X159930000Y-109860000D02*
X160160000Y-109630000D01*
D36*
X162979601Y-111180001D02*
X163275000Y-110884602D01*
X163275000Y-110884602D02*
X163275000Y-109450000D01*
X162480399Y-111180001D02*
X162979601Y-111180001D01*
X161960000Y-110659602D02*
X162480399Y-111180001D01*
X161960000Y-110140000D02*
X161960000Y-110659602D01*
D32*
X146050000Y-108871826D02*
X146050000Y-112200000D01*
X144289087Y-107110913D02*
X146050000Y-108871826D01*
X146050000Y-112200000D02*
X146050000Y-113250000D01*
X146300000Y-113500000D02*
X146300000Y-114100000D01*
X146050000Y-113250000D02*
X146300000Y-113500000D01*
X141460660Y-103310214D02*
X141460660Y-103309340D01*
X141460660Y-103310214D02*
X141920000Y-102850874D01*
X141920000Y-102850874D02*
X141920000Y-101638894D01*
X141920000Y-101638894D02*
X141180553Y-100899447D01*
X155222456Y-110150000D02*
X156537865Y-111465409D01*
X148000000Y-110150000D02*
X155222456Y-110150000D01*
X147350000Y-101692574D02*
X147350000Y-100810000D01*
X147109999Y-109919999D02*
X147109999Y-101932575D01*
X147109999Y-101932575D02*
X147350000Y-101692574D01*
X147340000Y-110150000D02*
X147109999Y-109919999D01*
X148000000Y-110150000D02*
X147340000Y-110150000D01*
X156150019Y-113395183D02*
X156537865Y-113007337D01*
X156150019Y-113956661D02*
X156150019Y-113395183D01*
X156537865Y-113007337D02*
X156537865Y-111465409D01*
X156583359Y-114390001D02*
X156150019Y-113956661D01*
X158749999Y-114390001D02*
X156583359Y-114390001D01*
X159040000Y-114100000D02*
X158749999Y-114390001D01*
X159550000Y-114100000D02*
X159040000Y-114100000D01*
X140753553Y-110646447D02*
X141160000Y-111052894D01*
X141160000Y-111052894D02*
X141160000Y-111430000D01*
X139620044Y-112969956D02*
X138805411Y-112969956D01*
X138805411Y-112969956D02*
X138575489Y-112740034D01*
X138575489Y-112740034D02*
X137251034Y-112740034D01*
X137251034Y-112740034D02*
X136121022Y-111610022D01*
X141160000Y-111430000D02*
X139620044Y-112969956D01*
X136121022Y-111610022D02*
X128594896Y-111610022D01*
X121680000Y-111500000D02*
X120180000Y-113000000D01*
X128484874Y-111500000D02*
X121680000Y-111500000D01*
X128594896Y-111610022D02*
X128484874Y-111500000D01*
X141675441Y-110861227D02*
X141107107Y-110292893D01*
X141675441Y-111414559D02*
X141675441Y-110861227D01*
X139800033Y-113289967D02*
X141675441Y-111414559D01*
X138672859Y-113289967D02*
X139800033Y-113289967D01*
X138442937Y-113060045D02*
X138672859Y-113289967D01*
X137118483Y-113060045D02*
X138442937Y-113060045D01*
X135988471Y-111930033D02*
X137118483Y-113060045D01*
X128462344Y-111930033D02*
X135988471Y-111930033D01*
X128352322Y-111820011D02*
X128462344Y-111930033D01*
X123899989Y-111820011D02*
X128352322Y-111820011D01*
X122720000Y-113000000D02*
X123899989Y-111820011D01*
X136121000Y-114450000D02*
X126705500Y-114450000D01*
X136870933Y-113700067D02*
X136121000Y-114450000D01*
X138177834Y-113700067D02*
X136870933Y-113700067D01*
X138407755Y-113929989D02*
X138177834Y-113700067D01*
X142489988Y-113150012D02*
X141710011Y-113929989D01*
X141710011Y-113929989D02*
X138407755Y-113929989D01*
X142489988Y-110438338D02*
X142489988Y-113150012D01*
X142210000Y-110158350D02*
X142489988Y-110438338D01*
X142210000Y-109981574D02*
X142210000Y-110158350D01*
X126705500Y-114450000D02*
X125285500Y-113030000D01*
X141814213Y-109585787D02*
X142210000Y-109981574D01*
X144306408Y-104000000D02*
X143228427Y-105077981D01*
X145020000Y-104000000D02*
X144306408Y-104000000D01*
X144353514Y-104660000D02*
X145210000Y-104660000D01*
X143581980Y-105431534D02*
X144353514Y-104660000D01*
X136150000Y-103220000D02*
X136150000Y-102960000D01*
X137300874Y-104370874D02*
X136150000Y-103220000D01*
X137306408Y-104370874D02*
X137300874Y-104370874D01*
X127780033Y-111160033D02*
X126509999Y-109889999D01*
X128727448Y-111290011D02*
X128597470Y-111160033D01*
X136253573Y-111290011D02*
X128727448Y-111290011D01*
X126509999Y-109889999D02*
X126010000Y-109390000D01*
X136763562Y-111800000D02*
X136253573Y-111290011D01*
X137395604Y-111800000D02*
X136763562Y-111800000D01*
X138330000Y-110865604D02*
X137395604Y-111800000D01*
X138330000Y-110683514D02*
X138330000Y-110865604D01*
X128597470Y-111160033D02*
X127780033Y-111160033D01*
X138720621Y-110292893D02*
X138330000Y-110683514D01*
X135538641Y-106138641D02*
X134710001Y-105310001D01*
X134710001Y-105310001D02*
X134454799Y-105310001D01*
X137263052Y-111479989D02*
X136943489Y-111479989D01*
X137985500Y-110757541D02*
X137263052Y-111479989D01*
X137985500Y-110320908D02*
X137985500Y-110757541D01*
X138367068Y-109939340D02*
X137985500Y-110320908D01*
X136433500Y-110970000D02*
X128860000Y-110970000D01*
X128860000Y-110970000D02*
X127280000Y-109390000D01*
X136943489Y-111479989D02*
X136433500Y-110970000D01*
X135892194Y-105785088D02*
X135087108Y-104980002D01*
X135087108Y-104980002D02*
X134162229Y-104980002D01*
X134162229Y-104980002D02*
X133630012Y-105512219D01*
X133630012Y-105512219D02*
X133630012Y-106617426D01*
X133630012Y-106617426D02*
X131090000Y-109157438D01*
X131090000Y-109157438D02*
X131090000Y-109390000D01*
X157040000Y-107750000D02*
X157700000Y-107750000D01*
X156000000Y-108790000D02*
X156820000Y-107970000D01*
X156000000Y-109782002D02*
X156000000Y-108790000D01*
X157217998Y-111000000D02*
X156000000Y-109782002D01*
X158350000Y-111000000D02*
X157217998Y-111000000D01*
X159550000Y-112200000D02*
X158350000Y-111000000D01*
X156820000Y-107970000D02*
X157040000Y-107750000D01*
X136830000Y-102470000D02*
X136790000Y-102470000D01*
X138013515Y-103653515D02*
X136830000Y-102470000D01*
X138013515Y-103663767D02*
X138013515Y-103653515D01*
X144715202Y-102970000D02*
X146370010Y-104624808D01*
X144200000Y-102970000D02*
X144715202Y-102970000D01*
X148534799Y-110869999D02*
X149005201Y-110869999D01*
X148354791Y-111050007D02*
X148534799Y-110869999D01*
X146724805Y-111050007D02*
X148354791Y-111050007D01*
X146370010Y-110695212D02*
X146724805Y-111050007D01*
X146370010Y-104624808D02*
X146370010Y-110695212D01*
X149428676Y-111293474D02*
X149005201Y-110869999D01*
X149428676Y-111401820D02*
X149428676Y-111293474D01*
X141107107Y-102956661D02*
X141107107Y-102952893D01*
X146789989Y-101459989D02*
X146789989Y-110389989D01*
X146789989Y-110389989D02*
X146960006Y-110560006D01*
X141054990Y-100315010D02*
X145645010Y-100315010D01*
X145645010Y-100315010D02*
X146789989Y-101459989D01*
X140690000Y-100680000D02*
X141054990Y-100315010D01*
X140690000Y-101124096D02*
X140690000Y-100680000D01*
X141480011Y-101914107D02*
X140690000Y-101124096D01*
X141480011Y-102583757D02*
X141480011Y-101914107D01*
X141107107Y-102956661D02*
X141480011Y-102583757D01*
X143414517Y-101441483D02*
X146078517Y-101441483D01*
X142340000Y-102516000D02*
X143414517Y-101441483D01*
X141814213Y-103658778D02*
X142340000Y-103132991D01*
X142340000Y-103132991D02*
X142340000Y-102516000D01*
X141814213Y-103663767D02*
X141814213Y-103658778D01*
D33*
X114200000Y-106400000D02*
X115000000Y-106400000D01*
D32*
X115175000Y-106225000D02*
X115000000Y-106400000D01*
X115625000Y-106225000D02*
X115175000Y-106225000D01*
X115175000Y-106575000D02*
X115000000Y-106400000D01*
X115625000Y-106575000D02*
X115175000Y-106575000D01*
X119189998Y-107659999D02*
X115689999Y-107659999D01*
X120969999Y-109440000D02*
X119189998Y-107659999D01*
X115000000Y-106970000D02*
X115000000Y-106400000D01*
X115689999Y-107659999D02*
X115000000Y-106970000D01*
X142874874Y-108525126D02*
X142875126Y-108525126D01*
X142875126Y-108525126D02*
X143350000Y-109000000D01*
X143685894Y-109000000D02*
X143942947Y-109257053D01*
X143350000Y-109000000D02*
X143685894Y-109000000D01*
X143057053Y-103128035D02*
X142167767Y-104017321D01*
X143057053Y-103057053D02*
X143057053Y-103128035D01*
X139913864Y-103442796D02*
X139913864Y-106624777D01*
X139074175Y-102603107D02*
X139913864Y-103442796D01*
X139913864Y-106271224D02*
X139913864Y-106624777D01*
X142167767Y-104017321D02*
X139913864Y-106271224D01*
X140974525Y-106624777D02*
X139913864Y-106624777D01*
X142874874Y-108525126D02*
X140974525Y-106624777D01*
X139913864Y-106978330D02*
X139913864Y-106624777D01*
X137659961Y-109232233D02*
X139913864Y-106978330D01*
X115975000Y-105545000D02*
X115970000Y-105540000D01*
X115975000Y-106225000D02*
X115975000Y-105545000D01*
X119845000Y-106575000D02*
X119850000Y-106570000D01*
X119175000Y-106575000D02*
X119845000Y-106575000D01*
D35*
X101975000Y-113525000D02*
X103280000Y-112220000D01*
X101650000Y-113525000D02*
X101975000Y-113525000D01*
X101425000Y-101945000D02*
X102980000Y-103500000D01*
X101425000Y-101785000D02*
X101425000Y-101945000D01*
X102915000Y-110175000D02*
X102940000Y-110150000D01*
X101300000Y-110175000D02*
X102915000Y-110175000D01*
X112400000Y-110580000D02*
X112400000Y-111885000D01*
D32*
X163925000Y-112275000D02*
X164600000Y-111600000D01*
X163925000Y-113750000D02*
X163925000Y-112275000D01*
D37*
X144270000Y-114100000D02*
X145330000Y-114100000D01*
D35*
X151200000Y-113000000D02*
X151300000Y-113100000D01*
X147900000Y-113000000D02*
X151200000Y-113000000D01*
X148800000Y-105800000D02*
X149000000Y-105600000D01*
X148000000Y-105800000D02*
X148800000Y-105800000D01*
X155200000Y-105800000D02*
X155000000Y-105600000D01*
X157700000Y-105800000D02*
X155200000Y-105800000D01*
D32*
X139913864Y-106624777D02*
X139913864Y-104323864D01*
X139913864Y-104323864D02*
X139790000Y-104200000D01*
D37*
X148320000Y-101220000D02*
X148133162Y-101406838D01*
X148320000Y-100810000D02*
X148320000Y-101220000D01*
D35*
X148000000Y-107750000D02*
X148000000Y-105800000D01*
D32*
X160200000Y-112200000D02*
X160200000Y-112507002D01*
X137212194Y-109680000D02*
X137659961Y-109232233D01*
X136830000Y-109680000D02*
X137212194Y-109680000D01*
X136557053Y-109952947D02*
X136830000Y-109680000D01*
X136557053Y-109957053D02*
X136557053Y-109952947D01*
X163925000Y-114575000D02*
X163925000Y-113750000D01*
X161734990Y-114684990D02*
X163815010Y-114684990D01*
X161440000Y-114390000D02*
X161734990Y-114684990D01*
X161440000Y-113340000D02*
X161440000Y-114390000D01*
X163815010Y-114684990D02*
X163925000Y-114575000D01*
X161110000Y-113010000D02*
X161440000Y-113340000D01*
X160525000Y-113010000D02*
X161110000Y-113010000D01*
X160200000Y-112685000D02*
X160525000Y-113010000D01*
X160200000Y-112200000D02*
X160200000Y-112685000D01*
X113700000Y-112330000D02*
X112870000Y-113160000D01*
X113700000Y-110850000D02*
X113700000Y-112330000D01*
X114270000Y-110280000D02*
X113700000Y-110850000D01*
X140400000Y-111000000D02*
X140400000Y-111589743D01*
X140400000Y-111589743D02*
X139340867Y-112648876D01*
X139340867Y-112648876D02*
X138936894Y-112648876D01*
X138936894Y-112648876D02*
X138667962Y-112379943D01*
X138667962Y-112379943D02*
X137862340Y-112379943D01*
X137862340Y-112379943D02*
X137732429Y-112250032D01*
X160140001Y-110940001D02*
X159540001Y-110940001D01*
X160850000Y-111650000D02*
X160140001Y-110940001D01*
X160850000Y-112200000D02*
X160850000Y-111650000D01*
X158750000Y-110150000D02*
X157700000Y-110150000D01*
X159540001Y-110940001D02*
X158750000Y-110150000D01*
X157200000Y-110150000D02*
X156800000Y-109750000D01*
X157700000Y-110150000D02*
X157200000Y-110150000D01*
X148290000Y-108950000D02*
X148000000Y-108950000D01*
X148850000Y-109510000D02*
X148290000Y-108950000D01*
X155040000Y-109510000D02*
X148850000Y-109510000D01*
X155275435Y-109510000D02*
X155040000Y-109510000D01*
X157085446Y-111320011D02*
X155275435Y-109510000D01*
X158800000Y-112017998D02*
X158102013Y-111320011D01*
X158800000Y-112407002D02*
X158800000Y-112017998D01*
X159722998Y-113330000D02*
X158800000Y-112407002D01*
X160570000Y-113330000D02*
X159722998Y-113330000D01*
X160850000Y-113610000D02*
X160570000Y-113330000D01*
X158102013Y-111320011D02*
X157085446Y-111320011D01*
X160850000Y-114100000D02*
X160850000Y-113610000D01*
X115290000Y-110280000D02*
X116170000Y-110280000D01*
X116170000Y-110280000D02*
X118380000Y-112490000D01*
X118380000Y-112490000D02*
X118550000Y-112490000D01*
X142167767Y-109232233D02*
X142643269Y-109707735D01*
X137359922Y-114020078D02*
X136950000Y-114430000D01*
X142643269Y-110085781D02*
X142809999Y-110252511D01*
X141842563Y-114250000D02*
X138275202Y-114249999D01*
X138275202Y-114249999D02*
X138045282Y-114020078D01*
X142643269Y-109707735D02*
X142643269Y-110085781D01*
X142809999Y-110252511D02*
X142809999Y-113282564D01*
X138045282Y-114020078D02*
X137359922Y-114020078D01*
X142809999Y-113282564D02*
X141842563Y-114250000D01*
X138430010Y-114660010D02*
X138430000Y-114660000D01*
X119030000Y-110290000D02*
X120180000Y-111440000D01*
X118820000Y-110290000D02*
X119030000Y-110290000D01*
X138430010Y-114660010D02*
X137919922Y-114660010D01*
X137919922Y-114660010D02*
X137770000Y-114510088D01*
X151499990Y-114660010D02*
X138430010Y-114660010D01*
X152540000Y-113620000D02*
X151499990Y-114660010D01*
X152540000Y-111430000D02*
X152540000Y-113620000D01*
X148000000Y-103400000D02*
X147600000Y-103000000D01*
X160400000Y-103400000D02*
X148000000Y-103400000D01*
X132360000Y-108340000D02*
X132360000Y-109390000D01*
X134710001Y-105310001D02*
X134284793Y-105310001D01*
X134284793Y-105310001D02*
X133950023Y-105644771D01*
X133950023Y-105644771D02*
X133950023Y-106749977D01*
X133950023Y-106749977D02*
X132360000Y-108340000D01*
M02*
