G04 #@! TF.GenerationSoftware,KiCad,Pcbnew,(5.1.9)-1*
G04 #@! TF.CreationDate,2021-02-01T18:23:16+11:00*
G04 #@! TF.ProjectId,BoSLnano,426f534c-6e61-46e6-9f2e-6b696361645f,0.4.2*
G04 #@! TF.SameCoordinates,Original*
G04 #@! TF.FileFunction,Legend,Top*
G04 #@! TF.FilePolarity,Positive*
%FSLAX46Y46*%
G04 Gerber Fmt 4.6, Leading zero omitted, Abs format (unit mm)*
G04 Created by KiCad (PCBNEW (5.1.9)-1) date 2021-02-01 18:23:16*
%MOMM*%
%LPD*%
G01*
G04 APERTURE LIST*
%ADD10C,0.150000*%
%ADD11C,0.120000*%
G04 APERTURE END LIST*
D10*
X164900000Y-107900000D02*
X165900000Y-107900000D01*
X164900000Y-106700000D02*
X164900000Y-107900000D01*
X164800000Y-106700000D02*
X164900000Y-106700000D01*
X163800000Y-106700000D02*
X164800000Y-106700000D01*
X163800000Y-105300000D02*
X163800000Y-106700000D01*
X164431071Y-105767857D02*
X164545357Y-105805952D01*
X164583452Y-105844047D01*
X164621547Y-105920238D01*
X164621547Y-106034523D01*
X164583452Y-106110714D01*
X164545357Y-106148809D01*
X164469166Y-106186904D01*
X164164404Y-106186904D01*
X164164404Y-105386904D01*
X164431071Y-105386904D01*
X164507261Y-105425000D01*
X164545357Y-105463095D01*
X164583452Y-105539285D01*
X164583452Y-105615476D01*
X164545357Y-105691666D01*
X164507261Y-105729761D01*
X164431071Y-105767857D01*
X164164404Y-105767857D01*
X165078690Y-106186904D02*
X165002500Y-106148809D01*
X164964404Y-106110714D01*
X164926309Y-106034523D01*
X164926309Y-105805952D01*
X164964404Y-105729761D01*
X165002500Y-105691666D01*
X165078690Y-105653571D01*
X165192976Y-105653571D01*
X165269166Y-105691666D01*
X165307261Y-105729761D01*
X165345357Y-105805952D01*
X165345357Y-106034523D01*
X165307261Y-106110714D01*
X165269166Y-106148809D01*
X165192976Y-106186904D01*
X165078690Y-106186904D01*
X165650119Y-106148809D02*
X165764404Y-106186904D01*
X165954880Y-106186904D01*
X166031071Y-106148809D01*
X166069166Y-106110714D01*
X166107261Y-106034523D01*
X166107261Y-105958333D01*
X166069166Y-105882142D01*
X166031071Y-105844047D01*
X165954880Y-105805952D01*
X165802500Y-105767857D01*
X165726309Y-105729761D01*
X165688214Y-105691666D01*
X165650119Y-105615476D01*
X165650119Y-105539285D01*
X165688214Y-105463095D01*
X165726309Y-105425000D01*
X165802500Y-105386904D01*
X165992976Y-105386904D01*
X166107261Y-105425000D01*
X166831071Y-106186904D02*
X166450119Y-106186904D01*
X166450119Y-105386904D01*
X167097738Y-105653571D02*
X167097738Y-106186904D01*
X167097738Y-105729761D02*
X167135833Y-105691666D01*
X167212023Y-105653571D01*
X167326309Y-105653571D01*
X167402500Y-105691666D01*
X167440595Y-105767857D01*
X167440595Y-106186904D01*
X168164404Y-106186904D02*
X168164404Y-105767857D01*
X168126309Y-105691666D01*
X168050119Y-105653571D01*
X167897738Y-105653571D01*
X167821547Y-105691666D01*
X168164404Y-106148809D02*
X168088214Y-106186904D01*
X167897738Y-106186904D01*
X167821547Y-106148809D01*
X167783452Y-106072619D01*
X167783452Y-105996428D01*
X167821547Y-105920238D01*
X167897738Y-105882142D01*
X168088214Y-105882142D01*
X168164404Y-105844047D01*
X168545357Y-105653571D02*
X168545357Y-106186904D01*
X168545357Y-105729761D02*
X168583452Y-105691666D01*
X168659642Y-105653571D01*
X168773928Y-105653571D01*
X168850119Y-105691666D01*
X168888214Y-105767857D01*
X168888214Y-106186904D01*
X169383452Y-106186904D02*
X169307261Y-106148809D01*
X169269166Y-106110714D01*
X169231071Y-106034523D01*
X169231071Y-105805952D01*
X169269166Y-105729761D01*
X169307261Y-105691666D01*
X169383452Y-105653571D01*
X169497738Y-105653571D01*
X169573928Y-105691666D01*
X169612023Y-105729761D01*
X169650119Y-105805952D01*
X169650119Y-106034523D01*
X169612023Y-106110714D01*
X169573928Y-106148809D01*
X169497738Y-106186904D01*
X169383452Y-106186904D01*
X165154880Y-107536904D02*
X165154880Y-107003571D01*
X165154880Y-107155952D02*
X165192976Y-107079761D01*
X165231071Y-107041666D01*
X165307261Y-107003571D01*
X165383452Y-107003571D01*
X165954880Y-107498809D02*
X165878690Y-107536904D01*
X165726309Y-107536904D01*
X165650119Y-107498809D01*
X165612023Y-107422619D01*
X165612023Y-107117857D01*
X165650119Y-107041666D01*
X165726309Y-107003571D01*
X165878690Y-107003571D01*
X165954880Y-107041666D01*
X165992976Y-107117857D01*
X165992976Y-107194047D01*
X165612023Y-107270238D01*
X166259642Y-107003571D02*
X166450119Y-107536904D01*
X166640595Y-107003571D01*
X167097738Y-106736904D02*
X167173928Y-106736904D01*
X167250119Y-106775000D01*
X167288214Y-106813095D01*
X167326309Y-106889285D01*
X167364404Y-107041666D01*
X167364404Y-107232142D01*
X167326309Y-107384523D01*
X167288214Y-107460714D01*
X167250119Y-107498809D01*
X167173928Y-107536904D01*
X167097738Y-107536904D01*
X167021547Y-107498809D01*
X166983452Y-107460714D01*
X166945357Y-107384523D01*
X166907261Y-107232142D01*
X166907261Y-107041666D01*
X166945357Y-106889285D01*
X166983452Y-106813095D01*
X167021547Y-106775000D01*
X167097738Y-106736904D01*
X167707261Y-107460714D02*
X167745357Y-107498809D01*
X167707261Y-107536904D01*
X167669166Y-107498809D01*
X167707261Y-107460714D01*
X167707261Y-107536904D01*
X168507261Y-107536904D02*
X168050119Y-107536904D01*
X168278690Y-107536904D02*
X168278690Y-106736904D01*
X168202500Y-106851190D01*
X168126309Y-106927380D01*
X168050119Y-106965476D01*
X168850119Y-107460714D02*
X168888214Y-107498809D01*
X168850119Y-107536904D01*
X168812023Y-107498809D01*
X168850119Y-107460714D01*
X168850119Y-107536904D01*
X169383452Y-106736904D02*
X169459642Y-106736904D01*
X169535833Y-106775000D01*
X169573928Y-106813095D01*
X169612023Y-106889285D01*
X169650119Y-107041666D01*
X169650119Y-107232142D01*
X169612023Y-107384523D01*
X169573928Y-107460714D01*
X169535833Y-107498809D01*
X169459642Y-107536904D01*
X169383452Y-107536904D01*
X169307261Y-107498809D01*
X169269166Y-107460714D01*
X169231071Y-107384523D01*
X169192976Y-107232142D01*
X169192976Y-107041666D01*
X169231071Y-106889285D01*
X169269166Y-106813095D01*
X169307261Y-106775000D01*
X169383452Y-106736904D01*
X163838095Y-107480952D02*
X163838095Y-107100000D01*
X164638095Y-107100000D01*
X164638095Y-107633333D02*
X164638095Y-108090476D01*
X163838095Y-107861904D02*
X164638095Y-107861904D01*
X164257142Y-108357142D02*
X164257142Y-108623809D01*
X163838095Y-108738095D02*
X163838095Y-108357142D01*
X164638095Y-108357142D01*
X164638095Y-108738095D01*
X161828571Y-100700000D02*
X161752380Y-100661904D01*
X161638095Y-100661904D01*
X161523809Y-100700000D01*
X161447619Y-100776190D01*
X161409523Y-100852380D01*
X161371428Y-101004761D01*
X161371428Y-101119047D01*
X161409523Y-101271428D01*
X161447619Y-101347619D01*
X161523809Y-101423809D01*
X161638095Y-101461904D01*
X161714285Y-101461904D01*
X161828571Y-101423809D01*
X161866666Y-101385714D01*
X161866666Y-101119047D01*
X161714285Y-101119047D01*
X162209523Y-101461904D02*
X162209523Y-100661904D01*
X162666666Y-101461904D01*
X162666666Y-100661904D01*
X163009523Y-101423809D02*
X163123809Y-101461904D01*
X163314285Y-101461904D01*
X163390476Y-101423809D01*
X163428571Y-101385714D01*
X163466666Y-101309523D01*
X163466666Y-101233333D01*
X163428571Y-101157142D01*
X163390476Y-101119047D01*
X163314285Y-101080952D01*
X163161904Y-101042857D01*
X163085714Y-101004761D01*
X163047619Y-100966666D01*
X163009523Y-100890476D01*
X163009523Y-100814285D01*
X163047619Y-100738095D01*
X163085714Y-100700000D01*
X163161904Y-100661904D01*
X163352380Y-100661904D01*
X163466666Y-100700000D01*
X163771428Y-101423809D02*
X163885714Y-101461904D01*
X164076190Y-101461904D01*
X164152380Y-101423809D01*
X164190476Y-101385714D01*
X164228571Y-101309523D01*
X164228571Y-101233333D01*
X164190476Y-101157142D01*
X164152380Y-101119047D01*
X164076190Y-101080952D01*
X163923809Y-101042857D01*
X163847619Y-101004761D01*
X163809523Y-100966666D01*
X163771428Y-100890476D01*
X163771428Y-100814285D01*
X163809523Y-100738095D01*
X163847619Y-100700000D01*
X163923809Y-100661904D01*
X164114285Y-100661904D01*
X164228571Y-100700000D01*
X165247619Y-110911904D02*
X164866666Y-110911904D01*
X164866666Y-110111904D01*
X165780952Y-110492857D02*
X165895238Y-110530952D01*
X165933333Y-110569047D01*
X165971428Y-110645238D01*
X165971428Y-110759523D01*
X165933333Y-110835714D01*
X165895238Y-110873809D01*
X165819047Y-110911904D01*
X165514285Y-110911904D01*
X165514285Y-110111904D01*
X165780952Y-110111904D01*
X165857142Y-110150000D01*
X165895238Y-110188095D01*
X165933333Y-110264285D01*
X165933333Y-110340476D01*
X165895238Y-110416666D01*
X165857142Y-110454761D01*
X165780952Y-110492857D01*
X165514285Y-110492857D01*
X165304761Y-113611904D02*
X164923809Y-113611904D01*
X164923809Y-112811904D01*
X165533333Y-113383333D02*
X165914285Y-113383333D01*
X165457142Y-113611904D02*
X165723809Y-112811904D01*
X165990476Y-113611904D01*
X163471428Y-110185714D02*
X162938095Y-110185714D01*
X163395238Y-110185714D02*
X163433333Y-110223809D01*
X163471428Y-110300000D01*
X163471428Y-110414285D01*
X163433333Y-110490476D01*
X163357142Y-110528571D01*
X162938095Y-110528571D01*
X162938095Y-111366666D02*
X163319047Y-111100000D01*
X162938095Y-110909523D02*
X163738095Y-110909523D01*
X163738095Y-111214285D01*
X163700000Y-111290476D01*
X163661904Y-111328571D01*
X163585714Y-111366666D01*
X163471428Y-111366666D01*
X163395238Y-111328571D01*
X163357142Y-111290476D01*
X163319047Y-111214285D01*
X163319047Y-110909523D01*
X163357142Y-111976190D02*
X163357142Y-111709523D01*
X162938095Y-111709523D02*
X163738095Y-111709523D01*
X163738095Y-112090476D01*
X137301428Y-102913809D02*
X137415714Y-102951904D01*
X137606190Y-102951904D01*
X137682380Y-102913809D01*
X137720476Y-102875714D01*
X137758571Y-102799523D01*
X137758571Y-102723333D01*
X137720476Y-102647142D01*
X137682380Y-102609047D01*
X137606190Y-102570952D01*
X137453809Y-102532857D01*
X137377619Y-102494761D01*
X137339523Y-102456666D01*
X137301428Y-102380476D01*
X137301428Y-102304285D01*
X137339523Y-102228095D01*
X137377619Y-102190000D01*
X137453809Y-102151904D01*
X137644285Y-102151904D01*
X137758571Y-102190000D01*
X138063333Y-102723333D02*
X138444285Y-102723333D01*
X137987142Y-102951904D02*
X138253809Y-102151904D01*
X138520476Y-102951904D01*
X138787142Y-102951904D02*
X138787142Y-102151904D01*
X139053809Y-102723333D01*
X139320476Y-102151904D01*
X139320476Y-102951904D01*
X139701428Y-102951904D02*
X139701428Y-102151904D01*
X139891904Y-102151904D01*
X140006190Y-102190000D01*
X140082380Y-102266190D01*
X140120476Y-102342380D01*
X140158571Y-102494761D01*
X140158571Y-102609047D01*
X140120476Y-102761428D01*
X140082380Y-102837619D01*
X140006190Y-102913809D01*
X139891904Y-102951904D01*
X139701428Y-102951904D01*
X131247619Y-108123809D02*
X131361904Y-108161904D01*
X131552380Y-108161904D01*
X131628571Y-108123809D01*
X131666666Y-108085714D01*
X131704761Y-108009523D01*
X131704761Y-107933333D01*
X131666666Y-107857142D01*
X131628571Y-107819047D01*
X131552380Y-107780952D01*
X131400000Y-107742857D01*
X131323809Y-107704761D01*
X131285714Y-107666666D01*
X131247619Y-107590476D01*
X131247619Y-107514285D01*
X131285714Y-107438095D01*
X131323809Y-107400000D01*
X131400000Y-107361904D01*
X131590476Y-107361904D01*
X131704761Y-107400000D01*
X132504761Y-108085714D02*
X132466666Y-108123809D01*
X132352380Y-108161904D01*
X132276190Y-108161904D01*
X132161904Y-108123809D01*
X132085714Y-108047619D01*
X132047619Y-107971428D01*
X132009523Y-107819047D01*
X132009523Y-107704761D01*
X132047619Y-107552380D01*
X132085714Y-107476190D01*
X132161904Y-107400000D01*
X132276190Y-107361904D01*
X132352380Y-107361904D01*
X132466666Y-107400000D01*
X132504761Y-107438095D01*
X133228571Y-108161904D02*
X132847619Y-108161904D01*
X132847619Y-107361904D01*
X128728571Y-108123809D02*
X128842857Y-108161904D01*
X129033333Y-108161904D01*
X129109523Y-108123809D01*
X129147619Y-108085714D01*
X129185714Y-108009523D01*
X129185714Y-107933333D01*
X129147619Y-107857142D01*
X129109523Y-107819047D01*
X129033333Y-107780952D01*
X128880952Y-107742857D01*
X128804761Y-107704761D01*
X128766666Y-107666666D01*
X128728571Y-107590476D01*
X128728571Y-107514285D01*
X128766666Y-107438095D01*
X128804761Y-107400000D01*
X128880952Y-107361904D01*
X129071428Y-107361904D01*
X129185714Y-107400000D01*
X129528571Y-108161904D02*
X129528571Y-107361904D01*
X129719047Y-107361904D01*
X129833333Y-107400000D01*
X129909523Y-107476190D01*
X129947619Y-107552380D01*
X129985714Y-107704761D01*
X129985714Y-107819047D01*
X129947619Y-107971428D01*
X129909523Y-108047619D01*
X129833333Y-108123809D01*
X129719047Y-108161904D01*
X129528571Y-108161904D01*
X130290476Y-107933333D02*
X130671428Y-107933333D01*
X130214285Y-108161904D02*
X130480952Y-107361904D01*
X130747619Y-108161904D01*
X126490476Y-107400000D02*
X126414285Y-107361904D01*
X126300000Y-107361904D01*
X126185714Y-107400000D01*
X126109523Y-107476190D01*
X126071428Y-107552380D01*
X126033333Y-107704761D01*
X126033333Y-107819047D01*
X126071428Y-107971428D01*
X126109523Y-108047619D01*
X126185714Y-108123809D01*
X126300000Y-108161904D01*
X126376190Y-108161904D01*
X126490476Y-108123809D01*
X126528571Y-108085714D01*
X126528571Y-107819047D01*
X126376190Y-107819047D01*
X126871428Y-108161904D02*
X126871428Y-107361904D01*
X127328571Y-108161904D01*
X127328571Y-107361904D01*
X127709523Y-108161904D02*
X127709523Y-107361904D01*
X127900000Y-107361904D01*
X128014285Y-107400000D01*
X128090476Y-107476190D01*
X128128571Y-107552380D01*
X128166666Y-107704761D01*
X128166666Y-107819047D01*
X128128571Y-107971428D01*
X128090476Y-108047619D01*
X128014285Y-108123809D01*
X127900000Y-108161904D01*
X127709523Y-108161904D01*
X123609523Y-107361904D02*
X124104761Y-107361904D01*
X123838095Y-107666666D01*
X123952380Y-107666666D01*
X124028571Y-107704761D01*
X124066666Y-107742857D01*
X124104761Y-107819047D01*
X124104761Y-108009523D01*
X124066666Y-108085714D01*
X124028571Y-108123809D01*
X123952380Y-108161904D01*
X123723809Y-108161904D01*
X123647619Y-108123809D01*
X123609523Y-108085714D01*
X124333333Y-107361904D02*
X124600000Y-108161904D01*
X124866666Y-107361904D01*
X125057142Y-107361904D02*
X125552380Y-107361904D01*
X125285714Y-107666666D01*
X125400000Y-107666666D01*
X125476190Y-107704761D01*
X125514285Y-107742857D01*
X125552380Y-107819047D01*
X125552380Y-108009523D01*
X125514285Y-108085714D01*
X125476190Y-108123809D01*
X125400000Y-108161904D01*
X125171428Y-108161904D01*
X125095238Y-108123809D01*
X125057142Y-108085714D01*
X123609523Y-100261904D02*
X124104761Y-100261904D01*
X123838095Y-100566666D01*
X123952380Y-100566666D01*
X124028571Y-100604761D01*
X124066666Y-100642857D01*
X124104761Y-100719047D01*
X124104761Y-100909523D01*
X124066666Y-100985714D01*
X124028571Y-101023809D01*
X123952380Y-101061904D01*
X123723809Y-101061904D01*
X123647619Y-101023809D01*
X123609523Y-100985714D01*
X124333333Y-100261904D02*
X124600000Y-101061904D01*
X124866666Y-100261904D01*
X125057142Y-100261904D02*
X125552380Y-100261904D01*
X125285714Y-100566666D01*
X125400000Y-100566666D01*
X125476190Y-100604761D01*
X125514285Y-100642857D01*
X125552380Y-100719047D01*
X125552380Y-100909523D01*
X125514285Y-100985714D01*
X125476190Y-101023809D01*
X125400000Y-101061904D01*
X125171428Y-101061904D01*
X125095238Y-101023809D01*
X125057142Y-100985714D01*
X126033333Y-100261904D02*
X126300000Y-101061904D01*
X126566666Y-100261904D01*
X126833333Y-101061904D02*
X126833333Y-100261904D01*
X127138095Y-100261904D01*
X127214285Y-100300000D01*
X127252380Y-100338095D01*
X127290476Y-100414285D01*
X127290476Y-100528571D01*
X127252380Y-100604761D01*
X127214285Y-100642857D01*
X127138095Y-100680952D01*
X126833333Y-100680952D01*
X127633333Y-101061904D02*
X127633333Y-100261904D01*
X127938095Y-100261904D01*
X128014285Y-100300000D01*
X128052380Y-100338095D01*
X128090476Y-100414285D01*
X128090476Y-100528571D01*
X128052380Y-100604761D01*
X128014285Y-100642857D01*
X127938095Y-100680952D01*
X127633333Y-100680952D01*
X129090476Y-100300000D02*
X129014285Y-100261904D01*
X128900000Y-100261904D01*
X128785714Y-100300000D01*
X128709523Y-100376190D01*
X128671428Y-100452380D01*
X128633333Y-100604761D01*
X128633333Y-100719047D01*
X128671428Y-100871428D01*
X128709523Y-100947619D01*
X128785714Y-101023809D01*
X128900000Y-101061904D01*
X128976190Y-101061904D01*
X129090476Y-101023809D01*
X129128571Y-100985714D01*
X129128571Y-100719047D01*
X128976190Y-100719047D01*
X129471428Y-101061904D02*
X129471428Y-100261904D01*
X129928571Y-101061904D01*
X129928571Y-100261904D01*
X130309523Y-101061904D02*
X130309523Y-100261904D01*
X130500000Y-100261904D01*
X130614285Y-100300000D01*
X130690476Y-100376190D01*
X130728571Y-100452380D01*
X130766666Y-100604761D01*
X130766666Y-100719047D01*
X130728571Y-100871428D01*
X130690476Y-100947619D01*
X130614285Y-101023809D01*
X130500000Y-101061904D01*
X130309523Y-101061904D01*
X131590476Y-100300000D02*
X131514285Y-100261904D01*
X131400000Y-100261904D01*
X131285714Y-100300000D01*
X131209523Y-100376190D01*
X131171428Y-100452380D01*
X131133333Y-100604761D01*
X131133333Y-100719047D01*
X131171428Y-100871428D01*
X131209523Y-100947619D01*
X131285714Y-101023809D01*
X131400000Y-101061904D01*
X131476190Y-101061904D01*
X131590476Y-101023809D01*
X131628571Y-100985714D01*
X131628571Y-100719047D01*
X131476190Y-100719047D01*
X131971428Y-101061904D02*
X131971428Y-100261904D01*
X132428571Y-101061904D01*
X132428571Y-100261904D01*
X132809523Y-101061904D02*
X132809523Y-100261904D01*
X133000000Y-100261904D01*
X133114285Y-100300000D01*
X133190476Y-100376190D01*
X133228571Y-100452380D01*
X133266666Y-100604761D01*
X133266666Y-100719047D01*
X133228571Y-100871428D01*
X133190476Y-100947619D01*
X133114285Y-101023809D01*
X133000000Y-101061904D01*
X132809523Y-101061904D01*
X137892380Y-113223333D02*
X138273333Y-113223333D01*
X137816190Y-113451904D02*
X138082857Y-112651904D01*
X138349523Y-113451904D01*
X138959047Y-112651904D02*
X138806666Y-112651904D01*
X138730476Y-112690000D01*
X138692380Y-112728095D01*
X138616190Y-112842380D01*
X138578095Y-112994761D01*
X138578095Y-113299523D01*
X138616190Y-113375714D01*
X138654285Y-113413809D01*
X138730476Y-113451904D01*
X138882857Y-113451904D01*
X138959047Y-113413809D01*
X138997142Y-113375714D01*
X139035238Y-113299523D01*
X139035238Y-113109047D01*
X138997142Y-113032857D01*
X138959047Y-112994761D01*
X138882857Y-112956666D01*
X138730476Y-112956666D01*
X138654285Y-112994761D01*
X138616190Y-113032857D01*
X138578095Y-113109047D01*
X139987619Y-113147142D02*
X139378095Y-113147142D01*
X139530476Y-113299523D02*
X139378095Y-113147142D01*
X139530476Y-112994761D01*
X140520952Y-112651904D02*
X140597142Y-112651904D01*
X140673333Y-112690000D01*
X140711428Y-112728095D01*
X140749523Y-112804285D01*
X140787619Y-112956666D01*
X140787619Y-113147142D01*
X140749523Y-113299523D01*
X140711428Y-113375714D01*
X140673333Y-113413809D01*
X140597142Y-113451904D01*
X140520952Y-113451904D01*
X140444761Y-113413809D01*
X140406666Y-113375714D01*
X140368571Y-113299523D01*
X140330476Y-113147142D01*
X140330476Y-112956666D01*
X140368571Y-112804285D01*
X140406666Y-112728095D01*
X140444761Y-112690000D01*
X140520952Y-112651904D01*
X134013333Y-109821904D02*
X134013333Y-109021904D01*
X134203809Y-109021904D01*
X134318095Y-109060000D01*
X134394285Y-109136190D01*
X134432380Y-109212380D01*
X134470476Y-109364761D01*
X134470476Y-109479047D01*
X134432380Y-109631428D01*
X134394285Y-109707619D01*
X134318095Y-109783809D01*
X134203809Y-109821904D01*
X134013333Y-109821904D01*
X134927619Y-109364761D02*
X134851428Y-109326666D01*
X134813333Y-109288571D01*
X134775238Y-109212380D01*
X134775238Y-109174285D01*
X134813333Y-109098095D01*
X134851428Y-109060000D01*
X134927619Y-109021904D01*
X135080000Y-109021904D01*
X135156190Y-109060000D01*
X135194285Y-109098095D01*
X135232380Y-109174285D01*
X135232380Y-109212380D01*
X135194285Y-109288571D01*
X135156190Y-109326666D01*
X135080000Y-109364761D01*
X134927619Y-109364761D01*
X134851428Y-109402857D01*
X134813333Y-109440952D01*
X134775238Y-109517142D01*
X134775238Y-109669523D01*
X134813333Y-109745714D01*
X134851428Y-109783809D01*
X134927619Y-109821904D01*
X135080000Y-109821904D01*
X135156190Y-109783809D01*
X135194285Y-109745714D01*
X135232380Y-109669523D01*
X135232380Y-109517142D01*
X135194285Y-109440952D01*
X135156190Y-109402857D01*
X135080000Y-109364761D01*
X136184761Y-109517142D02*
X135575238Y-109517142D01*
X135727619Y-109669523D02*
X135575238Y-109517142D01*
X135727619Y-109364761D01*
X136718095Y-109021904D02*
X136794285Y-109021904D01*
X136870476Y-109060000D01*
X136908571Y-109098095D01*
X136946666Y-109174285D01*
X136984761Y-109326666D01*
X136984761Y-109517142D01*
X136946666Y-109669523D01*
X136908571Y-109745714D01*
X136870476Y-109783809D01*
X136794285Y-109821904D01*
X136718095Y-109821904D01*
X136641904Y-109783809D01*
X136603809Y-109745714D01*
X136565714Y-109669523D01*
X136527619Y-109517142D01*
X136527619Y-109326666D01*
X136565714Y-109174285D01*
X136603809Y-109098095D01*
X136641904Y-109060000D01*
X136718095Y-109021904D01*
X108004761Y-113385714D02*
X108052380Y-113242857D01*
X108052380Y-113004761D01*
X108004761Y-112909523D01*
X107957142Y-112861904D01*
X107861904Y-112814285D01*
X107766666Y-112814285D01*
X107671428Y-112861904D01*
X107623809Y-112909523D01*
X107576190Y-113004761D01*
X107528571Y-113195238D01*
X107480952Y-113290476D01*
X107433333Y-113338095D01*
X107338095Y-113385714D01*
X107242857Y-113385714D01*
X107147619Y-113338095D01*
X107100000Y-113290476D01*
X107052380Y-113195238D01*
X107052380Y-112957142D01*
X107100000Y-112814285D01*
X109752380Y-113433333D02*
X108752380Y-113433333D01*
X109466666Y-113100000D01*
X108752380Y-112766666D01*
X109752380Y-112766666D01*
X111252380Y-113361904D02*
X110252380Y-113361904D01*
X110252380Y-112980952D01*
X110300000Y-112885714D01*
X110347619Y-112838095D01*
X110442857Y-112790476D01*
X110585714Y-112790476D01*
X110680952Y-112838095D01*
X110728571Y-112885714D01*
X110776190Y-112980952D01*
X110776190Y-113361904D01*
X111952380Y-113385714D02*
X112761904Y-113385714D01*
X112857142Y-113338095D01*
X112904761Y-113290476D01*
X112952380Y-113195238D01*
X112952380Y-113004761D01*
X112904761Y-112909523D01*
X112857142Y-112861904D01*
X112761904Y-112814285D01*
X111952380Y-112814285D01*
D11*
X115200000Y-104225000D02*
X113050000Y-104225000D01*
X113050000Y-100675000D02*
X115950000Y-100675000D01*
X121350000Y-104225000D02*
X121350000Y-100675000D01*
X121350000Y-100675000D02*
X118450000Y-100675000D01*
X113050000Y-104225000D02*
X113050000Y-100675000D01*
X119200000Y-104225000D02*
X121350000Y-104225000D01*
X118900000Y-104225000D02*
X118300000Y-104225000D01*
X118900000Y-103475000D02*
X118900000Y-104225000D01*
X133120000Y-108280000D02*
X133120000Y-109390000D01*
X132360000Y-108280000D02*
X133120000Y-108280000D01*
X118875500Y-114360000D02*
X118875500Y-113030000D01*
X120205500Y-114360000D02*
X118875500Y-114360000D01*
X123270000Y-107130000D02*
X123270000Y-105800000D01*
X124600000Y-107130000D02*
X123270000Y-107130000D01*
X124600000Y-103530000D02*
X123270000Y-103530000D01*
X123270000Y-103530000D02*
X123270000Y-102200000D01*
X138953641Y-110120000D02*
X138646359Y-110120000D01*
X138953641Y-110880000D02*
X138646359Y-110880000D01*
X138646359Y-108480000D02*
X138953641Y-108480000D01*
X138646359Y-107720000D02*
X138953641Y-107720000D01*
X113135000Y-112582500D02*
X113135000Y-110297500D01*
X111665000Y-112582500D02*
X113135000Y-112582500D01*
X111665000Y-110297500D02*
X111665000Y-112582500D01*
X138672164Y-109660000D02*
X138887836Y-109660000D01*
X138672164Y-108940000D02*
X138887836Y-108940000D01*
X139884752Y-106200000D02*
G75*
G03*
X139884752Y-106200000I-584752J0D01*
G01*
X143100000Y-102850000D02*
G75*
G03*
X143100000Y-102850000I-212132J0D01*
G01*
X142000000Y-112450000D02*
X142000000Y-101950000D01*
X158000000Y-112450000D02*
X142000000Y-112450000D01*
X158000000Y-101950000D02*
X158000000Y-112450000D01*
X142000000Y-101950000D02*
X158000000Y-101950000D01*
X100890000Y-102460000D02*
X100890000Y-107140000D01*
X107110000Y-107840000D02*
X107110000Y-106560000D01*
X108710000Y-107840000D02*
X107110000Y-107840000D01*
X108710000Y-108860000D02*
X108710000Y-107840000D01*
X104460000Y-108860000D02*
X108710000Y-108860000D01*
X107110000Y-103040000D02*
X110000000Y-103040000D01*
X107110000Y-101760000D02*
X107110000Y-103040000D01*
X108710000Y-101760000D02*
X107110000Y-101760000D01*
X108710000Y-100740000D02*
X108710000Y-101760000D01*
X104460000Y-100740000D02*
X108710000Y-100740000D01*
X162534752Y-114000000D02*
G75*
G03*
X162534752Y-114000000I-584752J0D01*
G01*
X160050000Y-103700000D02*
X160050000Y-103800000D01*
X159250000Y-103700000D02*
X160050000Y-103700000D01*
X159250000Y-103800000D02*
X159250000Y-103700000D01*
X117160000Y-114580000D02*
X115700000Y-114580000D01*
X117160000Y-111420000D02*
X115000000Y-111420000D01*
X117160000Y-111420000D02*
X117160000Y-112350000D01*
X117160000Y-114580000D02*
X117160000Y-113650000D01*
X105870000Y-110630000D02*
X105870000Y-110930000D01*
X101730000Y-113770000D02*
X101730000Y-113470000D01*
X101730000Y-110930000D02*
X101730000Y-110630000D01*
X105870000Y-113770000D02*
X101730000Y-113770000D01*
X105870000Y-113470000D02*
X105870000Y-113770000D01*
X101730000Y-110630000D02*
X105870000Y-110630000D01*
X160940000Y-103299721D02*
X160940000Y-103625279D01*
X161960000Y-103299721D02*
X161960000Y-103625279D01*
X109935000Y-112597500D02*
X109935000Y-110312500D01*
X108465000Y-112597500D02*
X109935000Y-112597500D01*
X108465000Y-110312500D02*
X108465000Y-112597500D01*
X108335000Y-112597500D02*
X108335000Y-110312500D01*
X106865000Y-112597500D02*
X108335000Y-112597500D01*
X106865000Y-110312500D02*
X106865000Y-112597500D01*
X111535000Y-112597500D02*
X111535000Y-110312500D01*
X110065000Y-112597500D02*
X111535000Y-112597500D01*
X110065000Y-110312500D02*
X110065000Y-112597500D01*
X121600000Y-105325000D02*
X121600000Y-105525000D01*
X120800000Y-105325000D02*
X120800000Y-105525000D01*
X121600000Y-105325000D02*
X120800000Y-105325000D01*
X120112500Y-110197500D02*
X120112500Y-109572500D01*
X120425000Y-109885000D02*
X119800000Y-109885000D01*
X119560000Y-106504437D02*
X118495563Y-105440000D01*
X119560000Y-109895563D02*
X118495563Y-110960000D01*
X119560000Y-109895563D02*
X119560000Y-109260000D01*
X119560000Y-106504437D02*
X119560000Y-107140000D01*
X118495563Y-105440000D02*
X114040000Y-105440000D01*
X118495563Y-110960000D02*
X114040000Y-110960000D01*
X114040000Y-110960000D02*
X114040000Y-109260000D01*
X114040000Y-105440000D02*
X114040000Y-107140000D01*
X168700000Y-101250000D02*
X168700000Y-102050000D01*
X168500000Y-101250000D02*
X168700000Y-101250000D01*
X168700000Y-104250000D02*
X168500000Y-104250000D01*
X168700000Y-103450000D02*
X168700000Y-104250000D01*
X165700000Y-104250000D02*
X165700000Y-103450000D01*
X165900000Y-104250000D02*
X165700000Y-104250000D01*
X165700000Y-101450000D02*
X165900000Y-101250000D01*
X165700000Y-102050000D02*
X165700000Y-101450000D01*
X165700000Y-102050000D02*
X165200000Y-102050000D01*
X165700000Y-103450000D02*
X165200000Y-103450000D01*
X162700000Y-106210000D02*
X162700000Y-107010000D01*
X162500000Y-106210000D02*
X162700000Y-106210000D01*
X162700000Y-109210000D02*
X162500000Y-109210000D01*
X162700000Y-108410000D02*
X162700000Y-109210000D01*
X159700000Y-109210000D02*
X159700000Y-108410000D01*
X159900000Y-109210000D02*
X159700000Y-109210000D01*
X159700000Y-106410000D02*
X159900000Y-106210000D01*
X159700000Y-107010000D02*
X159700000Y-106410000D01*
X159700000Y-107010000D02*
X159200000Y-107010000D01*
X159700000Y-108410000D02*
X159200000Y-108410000D01*
M02*
