G04 #@! TF.GenerationSoftware,KiCad,Pcbnew,(5.1.9)-1*
G04 #@! TF.CreationDate,2021-02-01T18:23:16+11:00*
G04 #@! TF.ProjectId,BoSLnano,426f534c-6e61-46e6-9f2e-6b696361645f,0.4.2*
G04 #@! TF.SameCoordinates,Original*
G04 #@! TF.FileFunction,Copper,L3,Inr*
G04 #@! TF.FilePolarity,Positive*
%FSLAX46Y46*%
G04 Gerber Fmt 4.6, Leading zero omitted, Abs format (unit mm)*
G04 Created by KiCad (PCBNEW (5.1.9)-1) date 2021-02-01 18:23:16*
%MOMM*%
%LPD*%
G01*
G04 APERTURE LIST*
G04 #@! TA.AperFunction,ComponentPad*
%ADD10O,2.200000X1.100000*%
G04 #@! TD*
G04 #@! TA.AperFunction,ComponentPad*
%ADD11O,1.800000X1.100000*%
G04 #@! TD*
G04 #@! TA.AperFunction,ComponentPad*
%ADD12O,1.000000X1.000000*%
G04 #@! TD*
G04 #@! TA.AperFunction,ComponentPad*
%ADD13R,1.000000X1.000000*%
G04 #@! TD*
G04 #@! TA.AperFunction,ComponentPad*
%ADD14O,1.700000X1.700000*%
G04 #@! TD*
G04 #@! TA.AperFunction,ComponentPad*
%ADD15R,1.700000X1.700000*%
G04 #@! TD*
G04 #@! TA.AperFunction,ComponentPad*
%ADD16R,3.000000X2.000000*%
G04 #@! TD*
G04 #@! TA.AperFunction,ViaPad*
%ADD17C,0.500000*%
G04 #@! TD*
G04 #@! TA.AperFunction,ViaPad*
%ADD18C,0.600000*%
G04 #@! TD*
G04 #@! TA.AperFunction,Conductor*
%ADD19C,0.160000*%
G04 #@! TD*
G04 #@! TA.AperFunction,Conductor*
%ADD20C,0.254000*%
G04 #@! TD*
G04 #@! TA.AperFunction,Conductor*
%ADD21C,0.100000*%
G04 #@! TD*
G04 APERTURE END LIST*
D10*
X117200000Y-101325000D03*
D11*
X114400000Y-103475000D03*
X120000000Y-103475000D03*
D12*
X122200000Y-109390000D03*
X123470000Y-109390000D03*
X124740000Y-109390000D03*
X126010000Y-109390000D03*
X127280000Y-109390000D03*
X128550000Y-109390000D03*
X129820000Y-109390000D03*
X131090000Y-109390000D03*
D13*
X132360000Y-109390000D03*
D14*
X135445500Y-113030000D03*
X132905500Y-113030000D03*
X130365500Y-113030000D03*
X127825500Y-113030000D03*
X125285500Y-113030000D03*
X122745500Y-113030000D03*
D15*
X120205500Y-113030000D03*
D14*
X132220000Y-105800000D03*
X129680000Y-105800000D03*
X127140000Y-105800000D03*
D15*
X124600000Y-105800000D03*
X124600000Y-102200000D03*
D14*
X127140000Y-102200000D03*
X129680000Y-102200000D03*
X132220000Y-102200000D03*
D16*
X167950000Y-113250000D03*
X167950000Y-110750000D03*
D17*
X161940000Y-114030000D03*
D18*
X143000000Y-106600000D03*
X141500000Y-106200000D03*
D17*
X138450000Y-101700000D03*
X115400000Y-113950000D03*
D18*
X105500000Y-108000000D03*
X137215655Y-110580000D03*
X143070000Y-104110000D03*
D17*
X143195557Y-109932717D03*
D18*
X148900000Y-113750000D03*
X158969990Y-102540000D03*
X117810000Y-106570000D03*
X117150000Y-106570000D03*
D17*
X134093503Y-107764080D03*
X105310000Y-110539988D03*
X122049990Y-105370000D03*
X134350000Y-104390010D03*
X125210000Y-107839978D03*
D18*
X119000000Y-105600000D03*
D17*
X111000000Y-106800000D03*
X134730000Y-108380000D03*
X104810000Y-105760000D03*
X134876393Y-109023571D03*
X104280000Y-106760000D03*
X140890036Y-112907052D03*
X137800000Y-101500000D03*
X141550000Y-112914936D03*
X139850000Y-101445046D03*
X135440376Y-108609256D03*
X103999990Y-109690000D03*
X144990000Y-110370000D03*
X145070243Y-105305036D03*
X145010000Y-106570000D03*
X135940000Y-103720000D03*
X162730000Y-110660000D03*
X133003961Y-108449080D03*
X139122765Y-112141767D03*
X163010000Y-111760000D03*
X133470653Y-107982389D03*
X138335382Y-111889933D03*
X117830000Y-104970000D03*
X117230000Y-104480000D03*
X161000000Y-110600000D03*
X136790000Y-103150000D03*
X144779979Y-109628477D03*
X159930000Y-110450000D03*
D18*
X105130000Y-102370000D03*
D17*
X141180553Y-100899447D03*
X156537865Y-111465409D03*
X145020000Y-104000000D03*
X134440039Y-105920000D03*
X145210000Y-104660000D03*
X134800000Y-106600000D03*
X148770000Y-111360000D03*
X156711031Y-113811936D03*
X136150000Y-102960000D03*
X156820000Y-107970000D03*
X155760000Y-112850000D03*
X144200000Y-102970000D03*
X136790000Y-102470000D03*
X158700000Y-113100000D03*
X149428676Y-111401820D03*
X146960006Y-110560006D03*
X146078517Y-101441483D03*
D18*
X115000000Y-106400000D03*
X114200000Y-106400000D03*
D17*
X136010000Y-110480000D03*
X131860000Y-107180000D03*
X120969999Y-109440000D03*
D18*
X109410000Y-114210000D03*
X112400000Y-105400000D03*
X113600000Y-108650000D03*
X113600000Y-107760000D03*
X115400000Y-108200000D03*
X107000000Y-105800000D03*
X108200000Y-105800000D03*
X109200000Y-105800000D03*
X158700000Y-107100000D03*
X158700000Y-108325000D03*
X159420000Y-108930000D03*
X159420000Y-106510000D03*
X165420000Y-101600000D03*
X165410000Y-104000000D03*
X164680000Y-103440000D03*
X164660000Y-102050000D03*
X158700000Y-105320000D03*
X115970000Y-105540000D03*
X119850000Y-106570000D03*
X103280000Y-112220000D03*
X102980000Y-103500000D03*
X102940000Y-110150000D03*
X112400000Y-111885000D03*
D17*
X155000000Y-104000000D03*
D18*
X153000000Y-104000000D03*
X151000000Y-104000000D03*
X155000000Y-105600000D03*
X153000000Y-105600000D03*
X151000000Y-105600000D03*
X149000000Y-104000000D03*
X153000000Y-108800000D03*
X155000000Y-108800000D03*
X155000000Y-107200000D03*
X153000000Y-107200000D03*
X151000000Y-107200000D03*
X149000000Y-105600000D03*
X149000000Y-108800000D03*
X164600000Y-111600000D03*
X145185000Y-113800000D03*
X151300000Y-113100000D03*
X157700000Y-113000000D03*
D17*
X139790000Y-104200000D03*
D18*
X148133162Y-101406838D03*
X149743154Y-101540000D03*
X114345000Y-112050000D03*
X165240000Y-107460000D03*
X167870000Y-107440000D03*
X163220000Y-106180000D03*
X169240000Y-104300000D03*
X169250000Y-101220000D03*
X115400000Y-112050000D03*
X139310000Y-108100000D03*
X153750000Y-112840002D03*
D17*
X112870000Y-113160000D03*
X149400000Y-100500000D03*
X107300000Y-109200000D03*
X155000000Y-100800000D03*
X108800000Y-108800000D03*
X137732429Y-112250032D03*
X156800000Y-109750000D03*
X154650000Y-112900000D03*
X155040000Y-109510000D03*
X153200000Y-111450000D03*
X136950000Y-114430000D03*
X118550000Y-112490000D03*
X152540000Y-111430000D03*
X120180000Y-111440000D03*
X137770000Y-114510088D03*
X160400000Y-103400000D03*
X147600000Y-103000000D03*
D19*
X148900000Y-112370000D02*
X148900000Y-113750000D01*
X161940000Y-114030000D02*
X163500001Y-112469999D01*
X162494799Y-110169999D02*
X160204799Y-112459999D01*
X163500001Y-112469999D02*
X163500001Y-110704799D01*
X156875203Y-112459999D02*
X155945201Y-113390001D01*
X148279999Y-111749999D02*
X148900000Y-112370000D01*
X163500001Y-110704799D02*
X162965201Y-110169999D01*
X162965201Y-110169999D02*
X162494799Y-110169999D01*
X148534799Y-110869999D02*
X148279999Y-111124799D01*
X160204799Y-112459999D02*
X156875203Y-112459999D01*
X148279999Y-111124799D02*
X148279999Y-111749999D01*
X155945201Y-113390001D02*
X153272563Y-113390001D01*
X150752561Y-110869999D02*
X148534799Y-110869999D01*
X153272563Y-113390001D02*
X150752561Y-110869999D01*
X134093503Y-107764080D02*
X134040000Y-107817583D01*
X133260000Y-110140000D02*
X133920000Y-109480000D01*
X121767687Y-110140000D02*
X133260000Y-110140000D01*
X121617656Y-109989969D02*
X121767687Y-110140000D01*
X133920000Y-108291136D02*
X134093503Y-108117633D01*
X119547143Y-109989969D02*
X121617656Y-109989969D01*
X119547091Y-109990021D02*
X119547143Y-109989969D01*
X134093503Y-108117633D02*
X134093503Y-107764080D01*
X105859967Y-109990021D02*
X119547091Y-109990021D01*
X133920000Y-109480000D02*
X133920000Y-108291136D01*
X105310000Y-110539988D02*
X105859967Y-109990021D01*
X134270000Y-109582562D02*
X134270000Y-108840000D01*
X133382584Y-110469978D02*
X134270000Y-109582562D01*
X119679695Y-110309979D02*
X121485103Y-110309979D01*
X121645102Y-110469978D02*
X133382584Y-110469978D01*
X121485103Y-110309979D02*
X121645102Y-110469978D01*
X105545191Y-111029997D02*
X106265159Y-110310029D01*
X119679645Y-110310029D02*
X119679695Y-110309979D01*
X106265159Y-110310029D02*
X119679645Y-110310029D01*
X105074795Y-111029997D02*
X105545191Y-111029997D01*
X134270000Y-108840000D02*
X134730000Y-108380000D01*
X104810000Y-110765202D02*
X105074795Y-111029997D01*
X104810000Y-105760000D02*
X104810000Y-110765202D01*
X134876393Y-109428731D02*
X134876393Y-109023571D01*
X133515135Y-110789989D02*
X134876393Y-109428731D01*
X121512551Y-110789989D02*
X133515135Y-110789989D01*
X121352551Y-110629989D02*
X121512551Y-110789989D01*
X106397711Y-110630040D02*
X119812196Y-110630040D01*
X105677743Y-111350008D02*
X106397711Y-110630040D01*
X104942244Y-111350008D02*
X105677743Y-111350008D01*
X119812247Y-110629989D02*
X121352551Y-110629989D01*
X119812196Y-110630040D02*
X119812247Y-110629989D01*
X104489990Y-110897754D02*
X104942244Y-111350008D01*
X104489990Y-106969990D02*
X104489990Y-110897754D01*
X104280000Y-106760000D02*
X104489990Y-106969990D01*
X140890036Y-111712598D02*
X136587451Y-107410013D01*
X134432246Y-107410013D02*
X133491940Y-106469707D01*
X133491940Y-106469707D02*
X133491940Y-104408060D01*
X133491940Y-104055498D02*
X133491940Y-104408060D01*
X136047438Y-101500000D02*
X133491940Y-104055498D01*
X136587451Y-107410013D02*
X134432246Y-107410013D01*
X137800000Y-101500000D02*
X136047438Y-101500000D01*
X140890036Y-112907052D02*
X140890036Y-111712598D01*
X139850000Y-101400000D02*
X139850000Y-101445046D01*
X139809999Y-101359999D02*
X139850000Y-101400000D01*
X137660000Y-102210000D02*
X139085046Y-102210000D01*
X137429999Y-101979999D02*
X137660000Y-102210000D01*
X136020001Y-101979999D02*
X137429999Y-101979999D01*
X133811951Y-104188049D02*
X136020001Y-101979999D01*
X133811951Y-106337155D02*
X133811951Y-104188049D01*
X139085046Y-102210000D02*
X139850000Y-101445046D01*
X134564798Y-107090002D02*
X133811951Y-106337155D01*
X136720003Y-107090002D02*
X134564798Y-107090002D01*
X141550000Y-111919999D02*
X136720003Y-107090002D01*
X141550000Y-112914936D02*
X141550000Y-111919999D01*
X135440376Y-109317310D02*
X135440376Y-108609256D01*
X121219999Y-110949999D02*
X121380000Y-111110000D01*
X119944799Y-110949999D02*
X121219999Y-110949999D01*
X119944747Y-110950051D02*
X119944799Y-110949999D01*
X133647686Y-111110000D02*
X135440376Y-109317310D01*
X106530263Y-110950051D02*
X119944747Y-110950051D01*
X105810295Y-111670019D02*
X106530263Y-110950051D01*
X104809693Y-111670019D02*
X105810295Y-111670019D01*
X121380000Y-111110000D02*
X133647686Y-111110000D01*
X103999990Y-110860316D02*
X104809693Y-111670019D01*
X103999990Y-109690000D02*
X103999990Y-110860316D01*
X139719989Y-111900237D02*
X139719990Y-113449990D01*
X136659978Y-111760022D02*
X137740091Y-111760022D01*
X135420000Y-113000000D02*
X136659978Y-111760022D01*
X137740091Y-111760022D02*
X138100181Y-111399932D01*
X138100181Y-111399932D02*
X139219684Y-111399932D01*
X139219684Y-111399932D02*
X139719989Y-111900237D01*
X139719990Y-113449990D02*
X140314968Y-114044968D01*
X140314968Y-114044968D02*
X142255362Y-114044968D01*
X144990000Y-111310330D02*
X144990000Y-110370000D01*
X142255362Y-114044968D02*
X144990000Y-111310330D01*
X137607539Y-111440011D02*
X134495489Y-111440011D01*
X144289979Y-107290021D02*
X144289979Y-111557788D01*
X144289979Y-111557788D02*
X142122810Y-113724957D01*
X142122810Y-113724957D02*
X140457519Y-113724957D01*
X140457519Y-113724957D02*
X140040000Y-113307438D01*
X140040000Y-113307438D02*
X140040000Y-111767686D01*
X139352235Y-111079921D02*
X137967629Y-111079921D01*
X137967629Y-111079921D02*
X137607539Y-111440011D01*
X134495489Y-111440011D02*
X132905500Y-113030000D01*
X145010000Y-106570000D02*
X144289979Y-107290021D01*
X140040000Y-111767686D02*
X139352235Y-111079921D01*
X143969968Y-106405311D02*
X145070243Y-105305036D01*
X140614946Y-113404946D02*
X141990258Y-113404946D01*
X140360011Y-113150011D02*
X140614946Y-113404946D01*
X140360011Y-111635134D02*
X140360011Y-113150011D01*
X139484787Y-110759910D02*
X140360011Y-111635134D01*
X137835077Y-110759910D02*
X139484787Y-110759910D01*
X134330000Y-111120000D02*
X137474987Y-111120000D01*
X130365500Y-113030000D02*
X131555500Y-111840000D01*
X143969968Y-111425236D02*
X143969968Y-106405311D01*
X137474987Y-111120000D02*
X137835077Y-110759910D01*
X133610000Y-111840000D02*
X134330000Y-111120000D01*
X131555500Y-111840000D02*
X133610000Y-111840000D01*
X141990258Y-113404946D02*
X143969968Y-111425236D01*
X130291386Y-105800000D02*
X129680000Y-105800000D01*
X132329080Y-108449080D02*
X129680000Y-105800000D01*
X133003961Y-108449080D02*
X132329080Y-108449080D01*
X140104979Y-114364979D02*
X139122765Y-113382765D01*
X139122765Y-113382765D02*
X139122765Y-112141767D01*
X159025021Y-114364979D02*
X140104979Y-114364979D01*
X162730000Y-110660000D02*
X159025021Y-114364979D01*
X133470653Y-107050653D02*
X132220000Y-105800000D01*
X133470653Y-107982389D02*
X133470653Y-107050653D01*
X163010000Y-111760000D02*
X160085010Y-114684990D01*
X138335382Y-113047945D02*
X138335382Y-111889933D01*
X139972427Y-114684990D02*
X138335382Y-113047945D01*
X160085010Y-114684990D02*
X139972427Y-114684990D01*
X157930019Y-107902255D02*
X156367753Y-106339989D01*
X158872572Y-109959999D02*
X157930019Y-109017446D01*
X157930019Y-109017446D02*
X157930019Y-107902255D01*
X160359999Y-109959999D02*
X158872572Y-109959999D01*
X161000000Y-110600000D02*
X160359999Y-109959999D01*
X145215201Y-103469999D02*
X145130001Y-103469999D01*
X148085191Y-106339989D02*
X145215201Y-103469999D01*
X156367753Y-106339989D02*
X148085191Y-106339989D01*
X136790000Y-103150000D02*
X136910009Y-103270009D01*
X136910009Y-103270009D02*
X137167448Y-103270010D01*
X143974797Y-103469999D02*
X145215201Y-103469999D01*
X143774808Y-103270010D02*
X143974797Y-103469999D01*
X137167448Y-103270010D02*
X143774808Y-103270010D01*
X144779979Y-107790021D02*
X144779979Y-109628477D01*
X156235201Y-106659999D02*
X145910001Y-106659999D01*
X157610010Y-108034808D02*
X156235201Y-106659999D01*
X157610011Y-109150000D02*
X157610010Y-108034808D01*
X158910011Y-110450000D02*
X157610011Y-109150000D01*
X145910001Y-106659999D02*
X144779979Y-107790021D01*
X159930000Y-110450000D02*
X158910011Y-110450000D01*
X140596124Y-100315018D02*
X141180553Y-100899447D01*
X107184982Y-100315018D02*
X140596124Y-100315018D01*
X105130000Y-102370000D02*
X107184982Y-100315018D01*
X135510039Y-104850000D02*
X134440039Y-105920000D01*
X145020000Y-104000000D02*
X144170000Y-104850000D01*
X144170000Y-104850000D02*
X135510039Y-104850000D01*
X145210000Y-104660000D02*
X144812563Y-104660000D01*
X144812563Y-104660000D02*
X144302552Y-105170011D01*
X144302552Y-105170011D02*
X136229989Y-105170011D01*
X136229989Y-105170011D02*
X134800000Y-106600000D01*
X153022405Y-114044968D02*
X156477999Y-114044968D01*
X150877438Y-111900000D02*
X153022405Y-114044968D01*
X148770000Y-111713553D02*
X148956447Y-111900000D01*
X148956447Y-111900000D02*
X150877438Y-111900000D01*
X148770000Y-111360000D02*
X148770000Y-111713553D01*
X156477999Y-114044968D02*
X156711031Y-113811936D01*
X155760000Y-112968476D02*
X155760000Y-112850000D01*
X155728476Y-113000000D02*
X155760000Y-112968476D01*
X156820000Y-107970000D02*
X157290001Y-108440001D01*
X157290001Y-108440001D02*
X157290001Y-109988071D01*
X157290001Y-109988071D02*
X155760000Y-111518072D01*
X155760000Y-111518072D02*
X155760000Y-112850000D01*
X158700000Y-113800000D02*
X158700000Y-113100000D01*
X158455031Y-114044969D02*
X158700000Y-113800000D01*
X157464969Y-114044969D02*
X158455031Y-114044969D01*
X157200000Y-113780000D02*
X157464969Y-114044969D01*
X157200000Y-113460000D02*
X157200000Y-113780000D01*
X156990000Y-113250000D02*
X157200000Y-113460000D01*
X156580000Y-113250000D02*
X156990000Y-113250000D01*
X153154957Y-113724957D02*
X156105043Y-113724957D01*
X149428676Y-111401820D02*
X150831820Y-111401820D01*
X156105043Y-113724957D02*
X156580000Y-113250000D01*
X150831820Y-111401820D02*
X153154957Y-113724957D01*
X137020000Y-102470000D02*
X136790000Y-102470000D01*
X137500000Y-102950000D02*
X137020000Y-102470000D01*
X144180000Y-102950000D02*
X137500000Y-102950000D01*
X144200000Y-102970000D02*
X144180000Y-102950000D01*
X142395215Y-100399989D02*
X149299989Y-100399989D01*
X108190001Y-108309999D02*
X109059999Y-108309999D01*
X119281993Y-109349996D02*
X122760000Y-105871989D01*
X124170570Y-103644865D02*
X132997448Y-103644865D01*
X149299989Y-100399989D02*
X149400000Y-100500000D01*
X132997448Y-103644865D02*
X136007284Y-100635029D01*
X140945351Y-101389449D02*
X141405755Y-101389449D01*
X110099996Y-109349996D02*
X119281993Y-109349996D01*
X109059999Y-108309999D02*
X110099996Y-109349996D01*
X122760000Y-105871989D02*
X122760000Y-105055435D01*
X107300000Y-109200000D02*
X108190001Y-108309999D01*
X140190931Y-100635029D02*
X140945351Y-101389449D01*
X122760000Y-105055435D02*
X124170570Y-103644865D01*
X136007284Y-100635029D02*
X140190931Y-100635029D01*
X141405755Y-101389449D02*
X142395215Y-100399989D01*
X109670007Y-109670007D02*
X108800000Y-108800000D01*
X123080011Y-106004540D02*
X119414544Y-109670007D01*
X133130000Y-103964876D02*
X124303122Y-103964876D01*
X154800000Y-101000000D02*
X149174798Y-101000000D01*
X155000000Y-100800000D02*
X154800000Y-101000000D01*
X119414544Y-109670007D02*
X109670007Y-109670007D01*
X149174798Y-101000000D02*
X148894798Y-100720000D01*
X148894798Y-100720000D02*
X142537767Y-100720000D01*
X142537767Y-100720000D02*
X141548307Y-101709460D01*
X141548307Y-101709460D02*
X140812799Y-101709460D01*
X140812799Y-101709460D02*
X140058379Y-100955040D01*
X140058379Y-100955040D02*
X136139836Y-100955040D01*
X136139836Y-100955040D02*
X133130000Y-103964876D01*
X124303122Y-103964876D02*
X123080011Y-105187987D01*
X123080011Y-105187987D02*
X123080011Y-106004540D01*
X156800000Y-109750000D02*
X154650000Y-111900000D01*
X154650000Y-111900000D02*
X154650000Y-112900000D01*
X153200000Y-111350000D02*
X153200000Y-111450000D01*
X155040000Y-109510000D02*
X153200000Y-111350000D01*
X119060000Y-114560000D02*
X118550000Y-114050000D01*
X136950000Y-114430000D02*
X136820000Y-114560000D01*
X136820000Y-114560000D02*
X119060000Y-114560000D01*
X118550000Y-114050000D02*
X118550000Y-112490000D01*
X120180000Y-111440000D02*
X128208700Y-111440000D01*
X136434798Y-114220000D02*
X136714799Y-113939999D01*
X136714799Y-113939999D02*
X137199911Y-113939999D01*
X129100000Y-113530000D02*
X129790000Y-114220000D01*
X129100000Y-112331300D02*
X129100000Y-113530000D01*
X129790000Y-114220000D02*
X136434798Y-114220000D01*
X137199911Y-113939999D02*
X137770000Y-114510088D01*
X128208700Y-111440000D02*
X129100000Y-112331300D01*
D20*
X105123979Y-101604334D02*
X105054588Y-101604334D01*
X104906663Y-101633758D01*
X104767321Y-101691475D01*
X104641916Y-101775268D01*
X104535268Y-101881916D01*
X104451475Y-102007321D01*
X104393758Y-102146663D01*
X104364334Y-102294588D01*
X104364334Y-102445412D01*
X104393758Y-102593337D01*
X104451475Y-102732679D01*
X104535268Y-102858084D01*
X104641916Y-102964732D01*
X104767321Y-103048525D01*
X104906663Y-103106242D01*
X105054588Y-103135666D01*
X105205412Y-103135666D01*
X105353337Y-103106242D01*
X105492679Y-103048525D01*
X105618084Y-102964732D01*
X105724732Y-102858084D01*
X105808525Y-102732679D01*
X105866242Y-102593337D01*
X105895666Y-102445412D01*
X105895666Y-102376021D01*
X107411004Y-100860684D01*
X115746531Y-100860684D01*
X115707107Y-100934441D01*
X115649030Y-101125895D01*
X115629420Y-101325000D01*
X115649030Y-101524105D01*
X115707107Y-101715559D01*
X115801419Y-101892004D01*
X115928341Y-102046659D01*
X116082996Y-102173581D01*
X116259441Y-102267893D01*
X116450895Y-102325970D01*
X116600107Y-102340666D01*
X117799893Y-102340666D01*
X117949105Y-102325970D01*
X118140559Y-102267893D01*
X118317004Y-102173581D01*
X118471659Y-102046659D01*
X118598581Y-101892004D01*
X118692893Y-101715559D01*
X118750970Y-101524105D01*
X118770580Y-101325000D01*
X118750970Y-101125895D01*
X118692893Y-100934441D01*
X118653469Y-100860684D01*
X123345278Y-100860684D01*
X123298815Y-100898815D01*
X123219463Y-100995506D01*
X123160498Y-101105820D01*
X123124188Y-101225518D01*
X123111928Y-101350000D01*
X123115000Y-101914250D01*
X123273750Y-102073000D01*
X124473000Y-102073000D01*
X124473000Y-102053000D01*
X124727000Y-102053000D01*
X124727000Y-102073000D01*
X124747000Y-102073000D01*
X124747000Y-102327000D01*
X124727000Y-102327000D01*
X124727000Y-102347000D01*
X124473000Y-102347000D01*
X124473000Y-102327000D01*
X123273750Y-102327000D01*
X123115000Y-102485750D01*
X123111928Y-103050000D01*
X123124188Y-103174482D01*
X123160498Y-103294180D01*
X123219463Y-103404494D01*
X123298815Y-103501185D01*
X123395506Y-103580537D01*
X123439627Y-103604120D01*
X123170747Y-103873000D01*
X123000000Y-103873000D01*
X122975224Y-103875440D01*
X122951399Y-103882667D01*
X122929443Y-103894403D01*
X122910197Y-103910197D01*
X122894403Y-103929443D01*
X122882667Y-103951399D01*
X122875440Y-103975224D01*
X122873000Y-104000000D01*
X122873000Y-104170748D01*
X122393112Y-104650636D01*
X122372290Y-104667724D01*
X122355204Y-104688544D01*
X122334840Y-104713357D01*
X122258742Y-104681836D01*
X122120477Y-104654334D01*
X121979503Y-104654334D01*
X121841238Y-104681836D01*
X121710995Y-104735785D01*
X121593779Y-104814106D01*
X121494096Y-104913789D01*
X121415775Y-105031005D01*
X121361826Y-105161248D01*
X121334324Y-105299513D01*
X121334324Y-105440487D01*
X121361826Y-105578752D01*
X121415775Y-105708995D01*
X121494096Y-105826211D01*
X121593779Y-105925894D01*
X121710995Y-106004215D01*
X121813590Y-106046712D01*
X119055972Y-108804330D01*
X115873720Y-108804330D01*
X115888084Y-108794732D01*
X115994732Y-108688084D01*
X116078525Y-108562679D01*
X116136242Y-108423337D01*
X116165666Y-108275412D01*
X116165666Y-108124588D01*
X116136242Y-107976663D01*
X116078525Y-107837321D01*
X115994732Y-107711916D01*
X115888084Y-107605268D01*
X115762679Y-107521475D01*
X115623337Y-107463758D01*
X115475412Y-107434334D01*
X115324588Y-107434334D01*
X115176663Y-107463758D01*
X115037321Y-107521475D01*
X114911916Y-107605268D01*
X114805268Y-107711916D01*
X114721475Y-107837321D01*
X114663758Y-107976663D01*
X114634334Y-108124588D01*
X114634334Y-108275412D01*
X114663758Y-108423337D01*
X114721475Y-108562679D01*
X114805268Y-108688084D01*
X114911916Y-108794732D01*
X114926280Y-108804330D01*
X114349968Y-108804330D01*
X114365666Y-108725412D01*
X114365666Y-108574588D01*
X114336242Y-108426663D01*
X114278525Y-108287321D01*
X114223520Y-108205000D01*
X114278525Y-108122679D01*
X114336242Y-107983337D01*
X114365666Y-107835412D01*
X114365666Y-107684588D01*
X114336242Y-107536663D01*
X114278525Y-107397321D01*
X114194732Y-107271916D01*
X114088084Y-107165268D01*
X114073459Y-107155496D01*
X114124588Y-107165666D01*
X114275412Y-107165666D01*
X114423337Y-107136242D01*
X114562679Y-107078525D01*
X114600000Y-107053588D01*
X114637321Y-107078525D01*
X114776663Y-107136242D01*
X114924588Y-107165666D01*
X115075412Y-107165666D01*
X115223337Y-107136242D01*
X115362679Y-107078525D01*
X115488084Y-106994732D01*
X115594732Y-106888084D01*
X115678525Y-106762679D01*
X115736242Y-106623337D01*
X115761851Y-106494588D01*
X116384334Y-106494588D01*
X116384334Y-106645412D01*
X116413758Y-106793337D01*
X116471475Y-106932679D01*
X116555268Y-107058084D01*
X116661916Y-107164732D01*
X116787321Y-107248525D01*
X116926663Y-107306242D01*
X117074588Y-107335666D01*
X117225412Y-107335666D01*
X117373337Y-107306242D01*
X117480000Y-107262061D01*
X117586663Y-107306242D01*
X117734588Y-107335666D01*
X117885412Y-107335666D01*
X118033337Y-107306242D01*
X118172679Y-107248525D01*
X118298084Y-107164732D01*
X118404732Y-107058084D01*
X118488525Y-106932679D01*
X118546242Y-106793337D01*
X118575666Y-106645412D01*
X118575666Y-106494588D01*
X118546242Y-106346663D01*
X118488525Y-106207321D01*
X118416073Y-106098889D01*
X118511916Y-106194732D01*
X118637321Y-106278525D01*
X118776663Y-106336242D01*
X118924588Y-106365666D01*
X119075412Y-106365666D01*
X119111402Y-106358507D01*
X119084334Y-106494588D01*
X119084334Y-106645412D01*
X119113758Y-106793337D01*
X119171475Y-106932679D01*
X119255268Y-107058084D01*
X119361916Y-107164732D01*
X119487321Y-107248525D01*
X119626663Y-107306242D01*
X119774588Y-107335666D01*
X119925412Y-107335666D01*
X120073337Y-107306242D01*
X120212679Y-107248525D01*
X120338084Y-107164732D01*
X120444732Y-107058084D01*
X120528525Y-106932679D01*
X120586242Y-106793337D01*
X120615666Y-106645412D01*
X120615666Y-106494588D01*
X120586242Y-106346663D01*
X120528525Y-106207321D01*
X120444732Y-106081916D01*
X120338084Y-105975268D01*
X120212679Y-105891475D01*
X120073337Y-105833758D01*
X119925412Y-105804334D01*
X119774588Y-105804334D01*
X119738598Y-105811493D01*
X119765666Y-105675412D01*
X119765666Y-105524588D01*
X119736242Y-105376663D01*
X119678525Y-105237321D01*
X119594732Y-105111916D01*
X119488084Y-105005268D01*
X119362679Y-104921475D01*
X119223337Y-104863758D01*
X119075412Y-104834334D01*
X118924588Y-104834334D01*
X118776663Y-104863758D01*
X118637321Y-104921475D01*
X118545666Y-104982717D01*
X118545666Y-104899513D01*
X118518164Y-104761248D01*
X118464215Y-104631005D01*
X118385894Y-104513789D01*
X118286211Y-104414106D01*
X118168995Y-104335785D01*
X118038752Y-104281836D01*
X117912116Y-104256647D01*
X117864215Y-104141005D01*
X117785894Y-104023789D01*
X117686211Y-103924106D01*
X117568995Y-103845785D01*
X117438752Y-103791836D01*
X117300487Y-103764334D01*
X117159513Y-103764334D01*
X117021248Y-103791836D01*
X116891005Y-103845785D01*
X116773789Y-103924106D01*
X116674106Y-104023789D01*
X116595785Y-104141005D01*
X116541836Y-104271248D01*
X116514334Y-104409513D01*
X116514334Y-104550487D01*
X116541836Y-104688752D01*
X116595785Y-104818995D01*
X116674106Y-104936211D01*
X116773789Y-105035894D01*
X116891005Y-105114215D01*
X117021248Y-105168164D01*
X117147884Y-105193353D01*
X117195785Y-105308995D01*
X117274106Y-105426211D01*
X117373789Y-105525894D01*
X117491005Y-105604215D01*
X117621248Y-105658164D01*
X117759513Y-105685666D01*
X117900487Y-105685666D01*
X118038752Y-105658164D01*
X118168995Y-105604215D01*
X118234334Y-105560557D01*
X118234334Y-105675412D01*
X118263758Y-105823337D01*
X118321475Y-105962679D01*
X118393927Y-106071111D01*
X118298084Y-105975268D01*
X118172679Y-105891475D01*
X118033337Y-105833758D01*
X117885412Y-105804334D01*
X117734588Y-105804334D01*
X117586663Y-105833758D01*
X117480000Y-105877939D01*
X117373337Y-105833758D01*
X117225412Y-105804334D01*
X117074588Y-105804334D01*
X116926663Y-105833758D01*
X116787321Y-105891475D01*
X116661916Y-105975268D01*
X116555268Y-106081916D01*
X116471475Y-106207321D01*
X116413758Y-106346663D01*
X116384334Y-106494588D01*
X115761851Y-106494588D01*
X115765666Y-106475412D01*
X115765666Y-106324588D01*
X115756436Y-106278186D01*
X115894588Y-106305666D01*
X116045412Y-106305666D01*
X116193337Y-106276242D01*
X116332679Y-106218525D01*
X116458084Y-106134732D01*
X116564732Y-106028084D01*
X116648525Y-105902679D01*
X116706242Y-105763337D01*
X116735666Y-105615412D01*
X116735666Y-105464588D01*
X116706242Y-105316663D01*
X116648525Y-105177321D01*
X116564732Y-105051916D01*
X116458084Y-104945268D01*
X116332679Y-104861475D01*
X116193337Y-104803758D01*
X116045412Y-104774334D01*
X115894588Y-104774334D01*
X115746663Y-104803758D01*
X115607321Y-104861475D01*
X115481916Y-104945268D01*
X115375268Y-105051916D01*
X115291475Y-105177321D01*
X115233758Y-105316663D01*
X115204334Y-105464588D01*
X115204334Y-105615412D01*
X115213564Y-105661814D01*
X115075412Y-105634334D01*
X114924588Y-105634334D01*
X114776663Y-105663758D01*
X114637321Y-105721475D01*
X114600000Y-105746412D01*
X114562679Y-105721475D01*
X114423337Y-105663758D01*
X114275412Y-105634334D01*
X114124588Y-105634334D01*
X113976663Y-105663758D01*
X113837321Y-105721475D01*
X113711916Y-105805268D01*
X113605268Y-105911916D01*
X113521475Y-106037321D01*
X113463758Y-106176663D01*
X113434334Y-106324588D01*
X113434334Y-106475412D01*
X113463758Y-106623337D01*
X113521475Y-106762679D01*
X113605268Y-106888084D01*
X113711916Y-106994732D01*
X113726541Y-107004504D01*
X113675412Y-106994334D01*
X113524588Y-106994334D01*
X113376663Y-107023758D01*
X113237321Y-107081475D01*
X113111916Y-107165268D01*
X113005268Y-107271916D01*
X112921475Y-107397321D01*
X112863758Y-107536663D01*
X112834334Y-107684588D01*
X112834334Y-107835412D01*
X112863758Y-107983337D01*
X112921475Y-108122679D01*
X112976480Y-108205000D01*
X112921475Y-108287321D01*
X112863758Y-108426663D01*
X112834334Y-108574588D01*
X112834334Y-108725412D01*
X112850032Y-108804330D01*
X110326018Y-108804330D01*
X109464803Y-107943116D01*
X109447710Y-107922288D01*
X109364621Y-107854099D01*
X109269827Y-107803430D01*
X109166968Y-107772229D01*
X109086802Y-107764333D01*
X109059999Y-107761693D01*
X109033196Y-107764333D01*
X108216793Y-107764333D01*
X108190000Y-107761694D01*
X108163207Y-107764333D01*
X108163198Y-107764333D01*
X108083032Y-107772229D01*
X107980173Y-107803430D01*
X107885379Y-107854099D01*
X107802290Y-107922288D01*
X107785201Y-107943111D01*
X107243979Y-108484334D01*
X107229513Y-108484334D01*
X107091248Y-108511836D01*
X106961005Y-108565785D01*
X106843789Y-108644106D01*
X106744106Y-108743789D01*
X106665785Y-108861005D01*
X106611836Y-108991248D01*
X106584334Y-109129513D01*
X106584334Y-109270487D01*
X106611836Y-109408752D01*
X106626583Y-109444355D01*
X105886770Y-109444355D01*
X105859967Y-109441715D01*
X105752997Y-109452251D01*
X105689623Y-109471475D01*
X105650139Y-109483452D01*
X105555345Y-109534121D01*
X105472256Y-109602310D01*
X105455170Y-109623130D01*
X105355666Y-109722634D01*
X105355666Y-106729513D01*
X110284334Y-106729513D01*
X110284334Y-106870487D01*
X110311836Y-107008752D01*
X110365785Y-107138995D01*
X110444106Y-107256211D01*
X110543789Y-107355894D01*
X110661005Y-107434215D01*
X110791248Y-107488164D01*
X110929513Y-107515666D01*
X111070487Y-107515666D01*
X111208752Y-107488164D01*
X111338995Y-107434215D01*
X111456211Y-107355894D01*
X111555894Y-107256211D01*
X111634215Y-107138995D01*
X111688164Y-107008752D01*
X111715666Y-106870487D01*
X111715666Y-106729513D01*
X111688164Y-106591248D01*
X111634215Y-106461005D01*
X111555894Y-106343789D01*
X111456211Y-106244106D01*
X111338995Y-106165785D01*
X111208752Y-106111836D01*
X111070487Y-106084334D01*
X110929513Y-106084334D01*
X110791248Y-106111836D01*
X110661005Y-106165785D01*
X110543789Y-106244106D01*
X110444106Y-106343789D01*
X110365785Y-106461005D01*
X110311836Y-106591248D01*
X110284334Y-106729513D01*
X105355666Y-106729513D01*
X105355666Y-106226439D01*
X105365894Y-106216211D01*
X105444215Y-106098995D01*
X105498164Y-105968752D01*
X105525666Y-105830487D01*
X105525666Y-105724588D01*
X106234334Y-105724588D01*
X106234334Y-105875412D01*
X106263758Y-106023337D01*
X106321475Y-106162679D01*
X106405268Y-106288084D01*
X106511916Y-106394732D01*
X106637321Y-106478525D01*
X106776663Y-106536242D01*
X106924588Y-106565666D01*
X107075412Y-106565666D01*
X107223337Y-106536242D01*
X107362679Y-106478525D01*
X107488084Y-106394732D01*
X107594732Y-106288084D01*
X107600000Y-106280200D01*
X107605268Y-106288084D01*
X107711916Y-106394732D01*
X107837321Y-106478525D01*
X107976663Y-106536242D01*
X108124588Y-106565666D01*
X108275412Y-106565666D01*
X108423337Y-106536242D01*
X108562679Y-106478525D01*
X108688084Y-106394732D01*
X108700000Y-106382816D01*
X108711916Y-106394732D01*
X108837321Y-106478525D01*
X108976663Y-106536242D01*
X109124588Y-106565666D01*
X109275412Y-106565666D01*
X109423337Y-106536242D01*
X109562679Y-106478525D01*
X109688084Y-106394732D01*
X109794732Y-106288084D01*
X109878525Y-106162679D01*
X109936242Y-106023337D01*
X109965666Y-105875412D01*
X109965666Y-105724588D01*
X109936242Y-105576663D01*
X109878525Y-105437321D01*
X109803200Y-105324588D01*
X111634334Y-105324588D01*
X111634334Y-105475412D01*
X111663758Y-105623337D01*
X111721475Y-105762679D01*
X111805268Y-105888084D01*
X111911916Y-105994732D01*
X112037321Y-106078525D01*
X112176663Y-106136242D01*
X112324588Y-106165666D01*
X112475412Y-106165666D01*
X112623337Y-106136242D01*
X112762679Y-106078525D01*
X112888084Y-105994732D01*
X112994732Y-105888084D01*
X113078525Y-105762679D01*
X113136242Y-105623337D01*
X113165666Y-105475412D01*
X113165666Y-105324588D01*
X113136242Y-105176663D01*
X113078525Y-105037321D01*
X112994732Y-104911916D01*
X112888084Y-104805268D01*
X112762679Y-104721475D01*
X112623337Y-104663758D01*
X112475412Y-104634334D01*
X112324588Y-104634334D01*
X112176663Y-104663758D01*
X112037321Y-104721475D01*
X111911916Y-104805268D01*
X111805268Y-104911916D01*
X111721475Y-105037321D01*
X111663758Y-105176663D01*
X111634334Y-105324588D01*
X109803200Y-105324588D01*
X109794732Y-105311916D01*
X109688084Y-105205268D01*
X109562679Y-105121475D01*
X109423337Y-105063758D01*
X109275412Y-105034334D01*
X109124588Y-105034334D01*
X108976663Y-105063758D01*
X108837321Y-105121475D01*
X108711916Y-105205268D01*
X108700000Y-105217184D01*
X108688084Y-105205268D01*
X108562679Y-105121475D01*
X108423337Y-105063758D01*
X108275412Y-105034334D01*
X108124588Y-105034334D01*
X107976663Y-105063758D01*
X107837321Y-105121475D01*
X107711916Y-105205268D01*
X107605268Y-105311916D01*
X107600000Y-105319800D01*
X107594732Y-105311916D01*
X107488084Y-105205268D01*
X107362679Y-105121475D01*
X107223337Y-105063758D01*
X107075412Y-105034334D01*
X106924588Y-105034334D01*
X106776663Y-105063758D01*
X106637321Y-105121475D01*
X106511916Y-105205268D01*
X106405268Y-105311916D01*
X106321475Y-105437321D01*
X106263758Y-105576663D01*
X106234334Y-105724588D01*
X105525666Y-105724588D01*
X105525666Y-105689513D01*
X105498164Y-105551248D01*
X105444215Y-105421005D01*
X105365894Y-105303789D01*
X105266211Y-105204106D01*
X105148995Y-105125785D01*
X105018752Y-105071836D01*
X104880487Y-105044334D01*
X104739513Y-105044334D01*
X104601248Y-105071836D01*
X104471005Y-105125785D01*
X104353789Y-105204106D01*
X104254106Y-105303789D01*
X104175785Y-105421005D01*
X104121836Y-105551248D01*
X104094334Y-105689513D01*
X104094334Y-105830487D01*
X104121836Y-105968752D01*
X104157434Y-106054693D01*
X104071248Y-106071836D01*
X103941005Y-106125785D01*
X103823789Y-106204106D01*
X103724106Y-106303789D01*
X103645785Y-106421005D01*
X103591836Y-106551248D01*
X103564334Y-106689513D01*
X103564334Y-106830487D01*
X103591836Y-106968752D01*
X103645785Y-107098995D01*
X103724106Y-107216211D01*
X103823789Y-107315894D01*
X103941005Y-107394215D01*
X103944324Y-107395590D01*
X103944325Y-108974334D01*
X103929503Y-108974334D01*
X103791238Y-109001836D01*
X103660995Y-109055785D01*
X103543779Y-109134106D01*
X103444096Y-109233789D01*
X103365775Y-109351005D01*
X103313014Y-109478380D01*
X103302679Y-109471475D01*
X103163337Y-109413758D01*
X103015412Y-109384334D01*
X102864588Y-109384334D01*
X102716663Y-109413758D01*
X102577321Y-109471475D01*
X102451916Y-109555268D01*
X102345268Y-109661916D01*
X102261475Y-109787321D01*
X102203758Y-109926663D01*
X102174334Y-110074588D01*
X102174334Y-110225412D01*
X102203758Y-110373337D01*
X102261475Y-110512679D01*
X102345268Y-110638084D01*
X102451916Y-110744732D01*
X102577321Y-110828525D01*
X102716663Y-110886242D01*
X102864588Y-110915666D01*
X103015412Y-110915666D01*
X103163337Y-110886242D01*
X103302679Y-110828525D01*
X103428084Y-110744732D01*
X103454325Y-110718491D01*
X103454325Y-110833503D01*
X103451684Y-110860316D01*
X103462220Y-110967285D01*
X103493421Y-111070143D01*
X103537663Y-111152913D01*
X103544091Y-111164938D01*
X103612280Y-111248027D01*
X103633102Y-111265115D01*
X104404893Y-112036907D01*
X104421982Y-112057730D01*
X104505071Y-112125919D01*
X104560723Y-112155666D01*
X104599865Y-112176588D01*
X104702723Y-112207789D01*
X104809693Y-112218325D01*
X104836496Y-112215685D01*
X105783492Y-112215685D01*
X105810295Y-112218325D01*
X105837098Y-112215685D01*
X105917264Y-112207789D01*
X106020123Y-112176588D01*
X106114917Y-112125919D01*
X106198006Y-112057730D01*
X106215099Y-112036903D01*
X106756286Y-111495717D01*
X111739251Y-111495717D01*
X111721475Y-111522321D01*
X111663758Y-111661663D01*
X111634334Y-111809588D01*
X111634334Y-111960412D01*
X111663758Y-112108337D01*
X111721475Y-112247679D01*
X111805268Y-112373084D01*
X111911916Y-112479732D01*
X112037321Y-112563525D01*
X112176663Y-112621242D01*
X112324588Y-112650666D01*
X112367229Y-112650666D01*
X112314106Y-112703789D01*
X112235785Y-112821005D01*
X112181836Y-112951248D01*
X112154334Y-113089513D01*
X112154334Y-113230487D01*
X112181836Y-113368752D01*
X112235785Y-113498995D01*
X112314106Y-113616211D01*
X112413789Y-113715894D01*
X112531005Y-113794215D01*
X112661248Y-113848164D01*
X112799513Y-113875666D01*
X112940487Y-113875666D01*
X113078752Y-113848164D01*
X113208995Y-113794215D01*
X113326211Y-113715894D01*
X113425894Y-113616211D01*
X113504215Y-113498995D01*
X113558164Y-113368752D01*
X113585666Y-113230487D01*
X113585666Y-113089513D01*
X113558164Y-112951248D01*
X113504215Y-112821005D01*
X113425894Y-112703789D01*
X113326211Y-112604106D01*
X113208995Y-112525785D01*
X113078752Y-112471836D01*
X112940487Y-112444334D01*
X112923482Y-112444334D01*
X112994732Y-112373084D01*
X113078525Y-112247679D01*
X113136242Y-112108337D01*
X113165666Y-111960412D01*
X113165666Y-111809588D01*
X113136242Y-111661663D01*
X113078525Y-111522321D01*
X113060749Y-111495717D01*
X113816467Y-111495717D01*
X113750268Y-111561916D01*
X113666475Y-111687321D01*
X113608758Y-111826663D01*
X113579334Y-111974588D01*
X113579334Y-112125412D01*
X113608758Y-112273337D01*
X113666475Y-112412679D01*
X113750268Y-112538084D01*
X113856916Y-112644732D01*
X113982321Y-112728525D01*
X114121663Y-112786242D01*
X114269588Y-112815666D01*
X114420412Y-112815666D01*
X114568337Y-112786242D01*
X114707679Y-112728525D01*
X114833084Y-112644732D01*
X114872500Y-112605316D01*
X114911916Y-112644732D01*
X115037321Y-112728525D01*
X115176663Y-112786242D01*
X115324588Y-112815666D01*
X115475412Y-112815666D01*
X115623337Y-112786242D01*
X115762679Y-112728525D01*
X115888084Y-112644732D01*
X115994732Y-112538084D01*
X116078525Y-112412679D01*
X116136242Y-112273337D01*
X116165666Y-112125412D01*
X116165666Y-111974588D01*
X116136242Y-111826663D01*
X116078525Y-111687321D01*
X115994732Y-111561916D01*
X115928533Y-111495717D01*
X118873000Y-111495717D01*
X118873000Y-111849160D01*
X118758752Y-111801836D01*
X118620487Y-111774334D01*
X118479513Y-111774334D01*
X118341248Y-111801836D01*
X118211005Y-111855785D01*
X118093789Y-111934106D01*
X117994106Y-112033789D01*
X117915785Y-112151005D01*
X117861836Y-112281248D01*
X117834334Y-112419513D01*
X117834334Y-112560487D01*
X117861836Y-112698752D01*
X117915785Y-112828995D01*
X117994106Y-112946211D01*
X118004335Y-112956440D01*
X118004334Y-114023196D01*
X118001694Y-114050000D01*
X118012230Y-114156969D01*
X118023468Y-114194017D01*
X118043431Y-114259827D01*
X118094100Y-114354622D01*
X118162289Y-114437711D01*
X118183117Y-114454804D01*
X118187647Y-114459334D01*
X110135474Y-114459334D01*
X110146242Y-114433337D01*
X110175666Y-114285412D01*
X110175666Y-114134588D01*
X110146242Y-113986663D01*
X110088525Y-113847321D01*
X110004732Y-113721916D01*
X109898084Y-113615268D01*
X109772679Y-113531475D01*
X109633337Y-113473758D01*
X109485412Y-113444334D01*
X109334588Y-113444334D01*
X109186663Y-113473758D01*
X109047321Y-113531475D01*
X108921916Y-113615268D01*
X108815268Y-113721916D01*
X108731475Y-113847321D01*
X108673758Y-113986663D01*
X108644334Y-114134588D01*
X108644334Y-114285412D01*
X108673758Y-114433337D01*
X108684526Y-114459334D01*
X102026447Y-114459334D01*
X101717047Y-114428997D01*
X101444882Y-114346826D01*
X101193853Y-114213351D01*
X100973531Y-114033660D01*
X100792305Y-113814597D01*
X100657086Y-113564514D01*
X100573012Y-113292916D01*
X100540666Y-112985163D01*
X100540666Y-112144588D01*
X102514334Y-112144588D01*
X102514334Y-112295412D01*
X102543758Y-112443337D01*
X102601475Y-112582679D01*
X102685268Y-112708084D01*
X102791916Y-112814732D01*
X102917321Y-112898525D01*
X103056663Y-112956242D01*
X103204588Y-112985666D01*
X103355412Y-112985666D01*
X103503337Y-112956242D01*
X103642679Y-112898525D01*
X103768084Y-112814732D01*
X103874732Y-112708084D01*
X103958525Y-112582679D01*
X104016242Y-112443337D01*
X104045666Y-112295412D01*
X104045666Y-112144588D01*
X104016242Y-111996663D01*
X103958525Y-111857321D01*
X103874732Y-111731916D01*
X103768084Y-111625268D01*
X103642679Y-111541475D01*
X103503337Y-111483758D01*
X103355412Y-111454334D01*
X103204588Y-111454334D01*
X103056663Y-111483758D01*
X102917321Y-111541475D01*
X102791916Y-111625268D01*
X102685268Y-111731916D01*
X102601475Y-111857321D01*
X102543758Y-111996663D01*
X102514334Y-112144588D01*
X100540666Y-112144588D01*
X100540666Y-103424588D01*
X102214334Y-103424588D01*
X102214334Y-103575412D01*
X102243758Y-103723337D01*
X102301475Y-103862679D01*
X102385268Y-103988084D01*
X102491916Y-104094732D01*
X102617321Y-104178525D01*
X102756663Y-104236242D01*
X102904588Y-104265666D01*
X103055412Y-104265666D01*
X103203337Y-104236242D01*
X103342679Y-104178525D01*
X103468084Y-104094732D01*
X103574732Y-103988084D01*
X103658525Y-103862679D01*
X103716242Y-103723337D01*
X103745666Y-103575412D01*
X103745666Y-103475000D01*
X113029420Y-103475000D01*
X113049030Y-103674105D01*
X113107107Y-103865559D01*
X113201419Y-104042004D01*
X113328341Y-104196659D01*
X113482996Y-104323581D01*
X113659441Y-104417893D01*
X113850895Y-104475970D01*
X114000107Y-104490666D01*
X114799893Y-104490666D01*
X114949105Y-104475970D01*
X115140559Y-104417893D01*
X115317004Y-104323581D01*
X115471659Y-104196659D01*
X115598581Y-104042004D01*
X115692893Y-103865559D01*
X115750970Y-103674105D01*
X115770580Y-103475000D01*
X118629420Y-103475000D01*
X118649030Y-103674105D01*
X118707107Y-103865559D01*
X118801419Y-104042004D01*
X118928341Y-104196659D01*
X119082996Y-104323581D01*
X119259441Y-104417893D01*
X119450895Y-104475970D01*
X119600107Y-104490666D01*
X120399893Y-104490666D01*
X120549105Y-104475970D01*
X120740559Y-104417893D01*
X120917004Y-104323581D01*
X121071659Y-104196659D01*
X121198581Y-104042004D01*
X121292893Y-103865559D01*
X121350970Y-103674105D01*
X121370580Y-103475000D01*
X121350970Y-103275895D01*
X121292893Y-103084441D01*
X121198581Y-102907996D01*
X121071659Y-102753341D01*
X120917004Y-102626419D01*
X120740559Y-102532107D01*
X120549105Y-102474030D01*
X120399893Y-102459334D01*
X119600107Y-102459334D01*
X119450895Y-102474030D01*
X119259441Y-102532107D01*
X119082996Y-102626419D01*
X118928341Y-102753341D01*
X118801419Y-102907996D01*
X118707107Y-103084441D01*
X118649030Y-103275895D01*
X118629420Y-103475000D01*
X115770580Y-103475000D01*
X115750970Y-103275895D01*
X115692893Y-103084441D01*
X115598581Y-102907996D01*
X115471659Y-102753341D01*
X115317004Y-102626419D01*
X115140559Y-102532107D01*
X114949105Y-102474030D01*
X114799893Y-102459334D01*
X114000107Y-102459334D01*
X113850895Y-102474030D01*
X113659441Y-102532107D01*
X113482996Y-102626419D01*
X113328341Y-102753341D01*
X113201419Y-102907996D01*
X113107107Y-103084441D01*
X113049030Y-103275895D01*
X113029420Y-103475000D01*
X103745666Y-103475000D01*
X103745666Y-103424588D01*
X103716242Y-103276663D01*
X103658525Y-103137321D01*
X103574732Y-103011916D01*
X103468084Y-102905268D01*
X103342679Y-102821475D01*
X103203337Y-102763758D01*
X103055412Y-102734334D01*
X102904588Y-102734334D01*
X102756663Y-102763758D01*
X102617321Y-102821475D01*
X102491916Y-102905268D01*
X102385268Y-103011916D01*
X102301475Y-103137321D01*
X102243758Y-103276663D01*
X102214334Y-103424588D01*
X100540666Y-103424588D01*
X100540666Y-102026447D01*
X100571003Y-101717047D01*
X100653176Y-101444878D01*
X100786648Y-101193854D01*
X100966340Y-100973531D01*
X101185403Y-100792305D01*
X101435488Y-100657085D01*
X101707084Y-100573012D01*
X102014837Y-100540666D01*
X106187646Y-100540666D01*
X105123979Y-101604334D01*
G04 #@! TA.AperFunction,Conductor*
D21*
G36*
X105123979Y-101604334D02*
G01*
X105054588Y-101604334D01*
X104906663Y-101633758D01*
X104767321Y-101691475D01*
X104641916Y-101775268D01*
X104535268Y-101881916D01*
X104451475Y-102007321D01*
X104393758Y-102146663D01*
X104364334Y-102294588D01*
X104364334Y-102445412D01*
X104393758Y-102593337D01*
X104451475Y-102732679D01*
X104535268Y-102858084D01*
X104641916Y-102964732D01*
X104767321Y-103048525D01*
X104906663Y-103106242D01*
X105054588Y-103135666D01*
X105205412Y-103135666D01*
X105353337Y-103106242D01*
X105492679Y-103048525D01*
X105618084Y-102964732D01*
X105724732Y-102858084D01*
X105808525Y-102732679D01*
X105866242Y-102593337D01*
X105895666Y-102445412D01*
X105895666Y-102376021D01*
X107411004Y-100860684D01*
X115746531Y-100860684D01*
X115707107Y-100934441D01*
X115649030Y-101125895D01*
X115629420Y-101325000D01*
X115649030Y-101524105D01*
X115707107Y-101715559D01*
X115801419Y-101892004D01*
X115928341Y-102046659D01*
X116082996Y-102173581D01*
X116259441Y-102267893D01*
X116450895Y-102325970D01*
X116600107Y-102340666D01*
X117799893Y-102340666D01*
X117949105Y-102325970D01*
X118140559Y-102267893D01*
X118317004Y-102173581D01*
X118471659Y-102046659D01*
X118598581Y-101892004D01*
X118692893Y-101715559D01*
X118750970Y-101524105D01*
X118770580Y-101325000D01*
X118750970Y-101125895D01*
X118692893Y-100934441D01*
X118653469Y-100860684D01*
X123345278Y-100860684D01*
X123298815Y-100898815D01*
X123219463Y-100995506D01*
X123160498Y-101105820D01*
X123124188Y-101225518D01*
X123111928Y-101350000D01*
X123115000Y-101914250D01*
X123273750Y-102073000D01*
X124473000Y-102073000D01*
X124473000Y-102053000D01*
X124727000Y-102053000D01*
X124727000Y-102073000D01*
X124747000Y-102073000D01*
X124747000Y-102327000D01*
X124727000Y-102327000D01*
X124727000Y-102347000D01*
X124473000Y-102347000D01*
X124473000Y-102327000D01*
X123273750Y-102327000D01*
X123115000Y-102485750D01*
X123111928Y-103050000D01*
X123124188Y-103174482D01*
X123160498Y-103294180D01*
X123219463Y-103404494D01*
X123298815Y-103501185D01*
X123395506Y-103580537D01*
X123439627Y-103604120D01*
X123170747Y-103873000D01*
X123000000Y-103873000D01*
X122975224Y-103875440D01*
X122951399Y-103882667D01*
X122929443Y-103894403D01*
X122910197Y-103910197D01*
X122894403Y-103929443D01*
X122882667Y-103951399D01*
X122875440Y-103975224D01*
X122873000Y-104000000D01*
X122873000Y-104170748D01*
X122393112Y-104650636D01*
X122372290Y-104667724D01*
X122355204Y-104688544D01*
X122334840Y-104713357D01*
X122258742Y-104681836D01*
X122120477Y-104654334D01*
X121979503Y-104654334D01*
X121841238Y-104681836D01*
X121710995Y-104735785D01*
X121593779Y-104814106D01*
X121494096Y-104913789D01*
X121415775Y-105031005D01*
X121361826Y-105161248D01*
X121334324Y-105299513D01*
X121334324Y-105440487D01*
X121361826Y-105578752D01*
X121415775Y-105708995D01*
X121494096Y-105826211D01*
X121593779Y-105925894D01*
X121710995Y-106004215D01*
X121813590Y-106046712D01*
X119055972Y-108804330D01*
X115873720Y-108804330D01*
X115888084Y-108794732D01*
X115994732Y-108688084D01*
X116078525Y-108562679D01*
X116136242Y-108423337D01*
X116165666Y-108275412D01*
X116165666Y-108124588D01*
X116136242Y-107976663D01*
X116078525Y-107837321D01*
X115994732Y-107711916D01*
X115888084Y-107605268D01*
X115762679Y-107521475D01*
X115623337Y-107463758D01*
X115475412Y-107434334D01*
X115324588Y-107434334D01*
X115176663Y-107463758D01*
X115037321Y-107521475D01*
X114911916Y-107605268D01*
X114805268Y-107711916D01*
X114721475Y-107837321D01*
X114663758Y-107976663D01*
X114634334Y-108124588D01*
X114634334Y-108275412D01*
X114663758Y-108423337D01*
X114721475Y-108562679D01*
X114805268Y-108688084D01*
X114911916Y-108794732D01*
X114926280Y-108804330D01*
X114349968Y-108804330D01*
X114365666Y-108725412D01*
X114365666Y-108574588D01*
X114336242Y-108426663D01*
X114278525Y-108287321D01*
X114223520Y-108205000D01*
X114278525Y-108122679D01*
X114336242Y-107983337D01*
X114365666Y-107835412D01*
X114365666Y-107684588D01*
X114336242Y-107536663D01*
X114278525Y-107397321D01*
X114194732Y-107271916D01*
X114088084Y-107165268D01*
X114073459Y-107155496D01*
X114124588Y-107165666D01*
X114275412Y-107165666D01*
X114423337Y-107136242D01*
X114562679Y-107078525D01*
X114600000Y-107053588D01*
X114637321Y-107078525D01*
X114776663Y-107136242D01*
X114924588Y-107165666D01*
X115075412Y-107165666D01*
X115223337Y-107136242D01*
X115362679Y-107078525D01*
X115488084Y-106994732D01*
X115594732Y-106888084D01*
X115678525Y-106762679D01*
X115736242Y-106623337D01*
X115761851Y-106494588D01*
X116384334Y-106494588D01*
X116384334Y-106645412D01*
X116413758Y-106793337D01*
X116471475Y-106932679D01*
X116555268Y-107058084D01*
X116661916Y-107164732D01*
X116787321Y-107248525D01*
X116926663Y-107306242D01*
X117074588Y-107335666D01*
X117225412Y-107335666D01*
X117373337Y-107306242D01*
X117480000Y-107262061D01*
X117586663Y-107306242D01*
X117734588Y-107335666D01*
X117885412Y-107335666D01*
X118033337Y-107306242D01*
X118172679Y-107248525D01*
X118298084Y-107164732D01*
X118404732Y-107058084D01*
X118488525Y-106932679D01*
X118546242Y-106793337D01*
X118575666Y-106645412D01*
X118575666Y-106494588D01*
X118546242Y-106346663D01*
X118488525Y-106207321D01*
X118416073Y-106098889D01*
X118511916Y-106194732D01*
X118637321Y-106278525D01*
X118776663Y-106336242D01*
X118924588Y-106365666D01*
X119075412Y-106365666D01*
X119111402Y-106358507D01*
X119084334Y-106494588D01*
X119084334Y-106645412D01*
X119113758Y-106793337D01*
X119171475Y-106932679D01*
X119255268Y-107058084D01*
X119361916Y-107164732D01*
X119487321Y-107248525D01*
X119626663Y-107306242D01*
X119774588Y-107335666D01*
X119925412Y-107335666D01*
X120073337Y-107306242D01*
X120212679Y-107248525D01*
X120338084Y-107164732D01*
X120444732Y-107058084D01*
X120528525Y-106932679D01*
X120586242Y-106793337D01*
X120615666Y-106645412D01*
X120615666Y-106494588D01*
X120586242Y-106346663D01*
X120528525Y-106207321D01*
X120444732Y-106081916D01*
X120338084Y-105975268D01*
X120212679Y-105891475D01*
X120073337Y-105833758D01*
X119925412Y-105804334D01*
X119774588Y-105804334D01*
X119738598Y-105811493D01*
X119765666Y-105675412D01*
X119765666Y-105524588D01*
X119736242Y-105376663D01*
X119678525Y-105237321D01*
X119594732Y-105111916D01*
X119488084Y-105005268D01*
X119362679Y-104921475D01*
X119223337Y-104863758D01*
X119075412Y-104834334D01*
X118924588Y-104834334D01*
X118776663Y-104863758D01*
X118637321Y-104921475D01*
X118545666Y-104982717D01*
X118545666Y-104899513D01*
X118518164Y-104761248D01*
X118464215Y-104631005D01*
X118385894Y-104513789D01*
X118286211Y-104414106D01*
X118168995Y-104335785D01*
X118038752Y-104281836D01*
X117912116Y-104256647D01*
X117864215Y-104141005D01*
X117785894Y-104023789D01*
X117686211Y-103924106D01*
X117568995Y-103845785D01*
X117438752Y-103791836D01*
X117300487Y-103764334D01*
X117159513Y-103764334D01*
X117021248Y-103791836D01*
X116891005Y-103845785D01*
X116773789Y-103924106D01*
X116674106Y-104023789D01*
X116595785Y-104141005D01*
X116541836Y-104271248D01*
X116514334Y-104409513D01*
X116514334Y-104550487D01*
X116541836Y-104688752D01*
X116595785Y-104818995D01*
X116674106Y-104936211D01*
X116773789Y-105035894D01*
X116891005Y-105114215D01*
X117021248Y-105168164D01*
X117147884Y-105193353D01*
X117195785Y-105308995D01*
X117274106Y-105426211D01*
X117373789Y-105525894D01*
X117491005Y-105604215D01*
X117621248Y-105658164D01*
X117759513Y-105685666D01*
X117900487Y-105685666D01*
X118038752Y-105658164D01*
X118168995Y-105604215D01*
X118234334Y-105560557D01*
X118234334Y-105675412D01*
X118263758Y-105823337D01*
X118321475Y-105962679D01*
X118393927Y-106071111D01*
X118298084Y-105975268D01*
X118172679Y-105891475D01*
X118033337Y-105833758D01*
X117885412Y-105804334D01*
X117734588Y-105804334D01*
X117586663Y-105833758D01*
X117480000Y-105877939D01*
X117373337Y-105833758D01*
X117225412Y-105804334D01*
X117074588Y-105804334D01*
X116926663Y-105833758D01*
X116787321Y-105891475D01*
X116661916Y-105975268D01*
X116555268Y-106081916D01*
X116471475Y-106207321D01*
X116413758Y-106346663D01*
X116384334Y-106494588D01*
X115761851Y-106494588D01*
X115765666Y-106475412D01*
X115765666Y-106324588D01*
X115756436Y-106278186D01*
X115894588Y-106305666D01*
X116045412Y-106305666D01*
X116193337Y-106276242D01*
X116332679Y-106218525D01*
X116458084Y-106134732D01*
X116564732Y-106028084D01*
X116648525Y-105902679D01*
X116706242Y-105763337D01*
X116735666Y-105615412D01*
X116735666Y-105464588D01*
X116706242Y-105316663D01*
X116648525Y-105177321D01*
X116564732Y-105051916D01*
X116458084Y-104945268D01*
X116332679Y-104861475D01*
X116193337Y-104803758D01*
X116045412Y-104774334D01*
X115894588Y-104774334D01*
X115746663Y-104803758D01*
X115607321Y-104861475D01*
X115481916Y-104945268D01*
X115375268Y-105051916D01*
X115291475Y-105177321D01*
X115233758Y-105316663D01*
X115204334Y-105464588D01*
X115204334Y-105615412D01*
X115213564Y-105661814D01*
X115075412Y-105634334D01*
X114924588Y-105634334D01*
X114776663Y-105663758D01*
X114637321Y-105721475D01*
X114600000Y-105746412D01*
X114562679Y-105721475D01*
X114423337Y-105663758D01*
X114275412Y-105634334D01*
X114124588Y-105634334D01*
X113976663Y-105663758D01*
X113837321Y-105721475D01*
X113711916Y-105805268D01*
X113605268Y-105911916D01*
X113521475Y-106037321D01*
X113463758Y-106176663D01*
X113434334Y-106324588D01*
X113434334Y-106475412D01*
X113463758Y-106623337D01*
X113521475Y-106762679D01*
X113605268Y-106888084D01*
X113711916Y-106994732D01*
X113726541Y-107004504D01*
X113675412Y-106994334D01*
X113524588Y-106994334D01*
X113376663Y-107023758D01*
X113237321Y-107081475D01*
X113111916Y-107165268D01*
X113005268Y-107271916D01*
X112921475Y-107397321D01*
X112863758Y-107536663D01*
X112834334Y-107684588D01*
X112834334Y-107835412D01*
X112863758Y-107983337D01*
X112921475Y-108122679D01*
X112976480Y-108205000D01*
X112921475Y-108287321D01*
X112863758Y-108426663D01*
X112834334Y-108574588D01*
X112834334Y-108725412D01*
X112850032Y-108804330D01*
X110326018Y-108804330D01*
X109464803Y-107943116D01*
X109447710Y-107922288D01*
X109364621Y-107854099D01*
X109269827Y-107803430D01*
X109166968Y-107772229D01*
X109086802Y-107764333D01*
X109059999Y-107761693D01*
X109033196Y-107764333D01*
X108216793Y-107764333D01*
X108190000Y-107761694D01*
X108163207Y-107764333D01*
X108163198Y-107764333D01*
X108083032Y-107772229D01*
X107980173Y-107803430D01*
X107885379Y-107854099D01*
X107802290Y-107922288D01*
X107785201Y-107943111D01*
X107243979Y-108484334D01*
X107229513Y-108484334D01*
X107091248Y-108511836D01*
X106961005Y-108565785D01*
X106843789Y-108644106D01*
X106744106Y-108743789D01*
X106665785Y-108861005D01*
X106611836Y-108991248D01*
X106584334Y-109129513D01*
X106584334Y-109270487D01*
X106611836Y-109408752D01*
X106626583Y-109444355D01*
X105886770Y-109444355D01*
X105859967Y-109441715D01*
X105752997Y-109452251D01*
X105689623Y-109471475D01*
X105650139Y-109483452D01*
X105555345Y-109534121D01*
X105472256Y-109602310D01*
X105455170Y-109623130D01*
X105355666Y-109722634D01*
X105355666Y-106729513D01*
X110284334Y-106729513D01*
X110284334Y-106870487D01*
X110311836Y-107008752D01*
X110365785Y-107138995D01*
X110444106Y-107256211D01*
X110543789Y-107355894D01*
X110661005Y-107434215D01*
X110791248Y-107488164D01*
X110929513Y-107515666D01*
X111070487Y-107515666D01*
X111208752Y-107488164D01*
X111338995Y-107434215D01*
X111456211Y-107355894D01*
X111555894Y-107256211D01*
X111634215Y-107138995D01*
X111688164Y-107008752D01*
X111715666Y-106870487D01*
X111715666Y-106729513D01*
X111688164Y-106591248D01*
X111634215Y-106461005D01*
X111555894Y-106343789D01*
X111456211Y-106244106D01*
X111338995Y-106165785D01*
X111208752Y-106111836D01*
X111070487Y-106084334D01*
X110929513Y-106084334D01*
X110791248Y-106111836D01*
X110661005Y-106165785D01*
X110543789Y-106244106D01*
X110444106Y-106343789D01*
X110365785Y-106461005D01*
X110311836Y-106591248D01*
X110284334Y-106729513D01*
X105355666Y-106729513D01*
X105355666Y-106226439D01*
X105365894Y-106216211D01*
X105444215Y-106098995D01*
X105498164Y-105968752D01*
X105525666Y-105830487D01*
X105525666Y-105724588D01*
X106234334Y-105724588D01*
X106234334Y-105875412D01*
X106263758Y-106023337D01*
X106321475Y-106162679D01*
X106405268Y-106288084D01*
X106511916Y-106394732D01*
X106637321Y-106478525D01*
X106776663Y-106536242D01*
X106924588Y-106565666D01*
X107075412Y-106565666D01*
X107223337Y-106536242D01*
X107362679Y-106478525D01*
X107488084Y-106394732D01*
X107594732Y-106288084D01*
X107600000Y-106280200D01*
X107605268Y-106288084D01*
X107711916Y-106394732D01*
X107837321Y-106478525D01*
X107976663Y-106536242D01*
X108124588Y-106565666D01*
X108275412Y-106565666D01*
X108423337Y-106536242D01*
X108562679Y-106478525D01*
X108688084Y-106394732D01*
X108700000Y-106382816D01*
X108711916Y-106394732D01*
X108837321Y-106478525D01*
X108976663Y-106536242D01*
X109124588Y-106565666D01*
X109275412Y-106565666D01*
X109423337Y-106536242D01*
X109562679Y-106478525D01*
X109688084Y-106394732D01*
X109794732Y-106288084D01*
X109878525Y-106162679D01*
X109936242Y-106023337D01*
X109965666Y-105875412D01*
X109965666Y-105724588D01*
X109936242Y-105576663D01*
X109878525Y-105437321D01*
X109803200Y-105324588D01*
X111634334Y-105324588D01*
X111634334Y-105475412D01*
X111663758Y-105623337D01*
X111721475Y-105762679D01*
X111805268Y-105888084D01*
X111911916Y-105994732D01*
X112037321Y-106078525D01*
X112176663Y-106136242D01*
X112324588Y-106165666D01*
X112475412Y-106165666D01*
X112623337Y-106136242D01*
X112762679Y-106078525D01*
X112888084Y-105994732D01*
X112994732Y-105888084D01*
X113078525Y-105762679D01*
X113136242Y-105623337D01*
X113165666Y-105475412D01*
X113165666Y-105324588D01*
X113136242Y-105176663D01*
X113078525Y-105037321D01*
X112994732Y-104911916D01*
X112888084Y-104805268D01*
X112762679Y-104721475D01*
X112623337Y-104663758D01*
X112475412Y-104634334D01*
X112324588Y-104634334D01*
X112176663Y-104663758D01*
X112037321Y-104721475D01*
X111911916Y-104805268D01*
X111805268Y-104911916D01*
X111721475Y-105037321D01*
X111663758Y-105176663D01*
X111634334Y-105324588D01*
X109803200Y-105324588D01*
X109794732Y-105311916D01*
X109688084Y-105205268D01*
X109562679Y-105121475D01*
X109423337Y-105063758D01*
X109275412Y-105034334D01*
X109124588Y-105034334D01*
X108976663Y-105063758D01*
X108837321Y-105121475D01*
X108711916Y-105205268D01*
X108700000Y-105217184D01*
X108688084Y-105205268D01*
X108562679Y-105121475D01*
X108423337Y-105063758D01*
X108275412Y-105034334D01*
X108124588Y-105034334D01*
X107976663Y-105063758D01*
X107837321Y-105121475D01*
X107711916Y-105205268D01*
X107605268Y-105311916D01*
X107600000Y-105319800D01*
X107594732Y-105311916D01*
X107488084Y-105205268D01*
X107362679Y-105121475D01*
X107223337Y-105063758D01*
X107075412Y-105034334D01*
X106924588Y-105034334D01*
X106776663Y-105063758D01*
X106637321Y-105121475D01*
X106511916Y-105205268D01*
X106405268Y-105311916D01*
X106321475Y-105437321D01*
X106263758Y-105576663D01*
X106234334Y-105724588D01*
X105525666Y-105724588D01*
X105525666Y-105689513D01*
X105498164Y-105551248D01*
X105444215Y-105421005D01*
X105365894Y-105303789D01*
X105266211Y-105204106D01*
X105148995Y-105125785D01*
X105018752Y-105071836D01*
X104880487Y-105044334D01*
X104739513Y-105044334D01*
X104601248Y-105071836D01*
X104471005Y-105125785D01*
X104353789Y-105204106D01*
X104254106Y-105303789D01*
X104175785Y-105421005D01*
X104121836Y-105551248D01*
X104094334Y-105689513D01*
X104094334Y-105830487D01*
X104121836Y-105968752D01*
X104157434Y-106054693D01*
X104071248Y-106071836D01*
X103941005Y-106125785D01*
X103823789Y-106204106D01*
X103724106Y-106303789D01*
X103645785Y-106421005D01*
X103591836Y-106551248D01*
X103564334Y-106689513D01*
X103564334Y-106830487D01*
X103591836Y-106968752D01*
X103645785Y-107098995D01*
X103724106Y-107216211D01*
X103823789Y-107315894D01*
X103941005Y-107394215D01*
X103944324Y-107395590D01*
X103944325Y-108974334D01*
X103929503Y-108974334D01*
X103791238Y-109001836D01*
X103660995Y-109055785D01*
X103543779Y-109134106D01*
X103444096Y-109233789D01*
X103365775Y-109351005D01*
X103313014Y-109478380D01*
X103302679Y-109471475D01*
X103163337Y-109413758D01*
X103015412Y-109384334D01*
X102864588Y-109384334D01*
X102716663Y-109413758D01*
X102577321Y-109471475D01*
X102451916Y-109555268D01*
X102345268Y-109661916D01*
X102261475Y-109787321D01*
X102203758Y-109926663D01*
X102174334Y-110074588D01*
X102174334Y-110225412D01*
X102203758Y-110373337D01*
X102261475Y-110512679D01*
X102345268Y-110638084D01*
X102451916Y-110744732D01*
X102577321Y-110828525D01*
X102716663Y-110886242D01*
X102864588Y-110915666D01*
X103015412Y-110915666D01*
X103163337Y-110886242D01*
X103302679Y-110828525D01*
X103428084Y-110744732D01*
X103454325Y-110718491D01*
X103454325Y-110833503D01*
X103451684Y-110860316D01*
X103462220Y-110967285D01*
X103493421Y-111070143D01*
X103537663Y-111152913D01*
X103544091Y-111164938D01*
X103612280Y-111248027D01*
X103633102Y-111265115D01*
X104404893Y-112036907D01*
X104421982Y-112057730D01*
X104505071Y-112125919D01*
X104560723Y-112155666D01*
X104599865Y-112176588D01*
X104702723Y-112207789D01*
X104809693Y-112218325D01*
X104836496Y-112215685D01*
X105783492Y-112215685D01*
X105810295Y-112218325D01*
X105837098Y-112215685D01*
X105917264Y-112207789D01*
X106020123Y-112176588D01*
X106114917Y-112125919D01*
X106198006Y-112057730D01*
X106215099Y-112036903D01*
X106756286Y-111495717D01*
X111739251Y-111495717D01*
X111721475Y-111522321D01*
X111663758Y-111661663D01*
X111634334Y-111809588D01*
X111634334Y-111960412D01*
X111663758Y-112108337D01*
X111721475Y-112247679D01*
X111805268Y-112373084D01*
X111911916Y-112479732D01*
X112037321Y-112563525D01*
X112176663Y-112621242D01*
X112324588Y-112650666D01*
X112367229Y-112650666D01*
X112314106Y-112703789D01*
X112235785Y-112821005D01*
X112181836Y-112951248D01*
X112154334Y-113089513D01*
X112154334Y-113230487D01*
X112181836Y-113368752D01*
X112235785Y-113498995D01*
X112314106Y-113616211D01*
X112413789Y-113715894D01*
X112531005Y-113794215D01*
X112661248Y-113848164D01*
X112799513Y-113875666D01*
X112940487Y-113875666D01*
X113078752Y-113848164D01*
X113208995Y-113794215D01*
X113326211Y-113715894D01*
X113425894Y-113616211D01*
X113504215Y-113498995D01*
X113558164Y-113368752D01*
X113585666Y-113230487D01*
X113585666Y-113089513D01*
X113558164Y-112951248D01*
X113504215Y-112821005D01*
X113425894Y-112703789D01*
X113326211Y-112604106D01*
X113208995Y-112525785D01*
X113078752Y-112471836D01*
X112940487Y-112444334D01*
X112923482Y-112444334D01*
X112994732Y-112373084D01*
X113078525Y-112247679D01*
X113136242Y-112108337D01*
X113165666Y-111960412D01*
X113165666Y-111809588D01*
X113136242Y-111661663D01*
X113078525Y-111522321D01*
X113060749Y-111495717D01*
X113816467Y-111495717D01*
X113750268Y-111561916D01*
X113666475Y-111687321D01*
X113608758Y-111826663D01*
X113579334Y-111974588D01*
X113579334Y-112125412D01*
X113608758Y-112273337D01*
X113666475Y-112412679D01*
X113750268Y-112538084D01*
X113856916Y-112644732D01*
X113982321Y-112728525D01*
X114121663Y-112786242D01*
X114269588Y-112815666D01*
X114420412Y-112815666D01*
X114568337Y-112786242D01*
X114707679Y-112728525D01*
X114833084Y-112644732D01*
X114872500Y-112605316D01*
X114911916Y-112644732D01*
X115037321Y-112728525D01*
X115176663Y-112786242D01*
X115324588Y-112815666D01*
X115475412Y-112815666D01*
X115623337Y-112786242D01*
X115762679Y-112728525D01*
X115888084Y-112644732D01*
X115994732Y-112538084D01*
X116078525Y-112412679D01*
X116136242Y-112273337D01*
X116165666Y-112125412D01*
X116165666Y-111974588D01*
X116136242Y-111826663D01*
X116078525Y-111687321D01*
X115994732Y-111561916D01*
X115928533Y-111495717D01*
X118873000Y-111495717D01*
X118873000Y-111849160D01*
X118758752Y-111801836D01*
X118620487Y-111774334D01*
X118479513Y-111774334D01*
X118341248Y-111801836D01*
X118211005Y-111855785D01*
X118093789Y-111934106D01*
X117994106Y-112033789D01*
X117915785Y-112151005D01*
X117861836Y-112281248D01*
X117834334Y-112419513D01*
X117834334Y-112560487D01*
X117861836Y-112698752D01*
X117915785Y-112828995D01*
X117994106Y-112946211D01*
X118004335Y-112956440D01*
X118004334Y-114023196D01*
X118001694Y-114050000D01*
X118012230Y-114156969D01*
X118023468Y-114194017D01*
X118043431Y-114259827D01*
X118094100Y-114354622D01*
X118162289Y-114437711D01*
X118183117Y-114454804D01*
X118187647Y-114459334D01*
X110135474Y-114459334D01*
X110146242Y-114433337D01*
X110175666Y-114285412D01*
X110175666Y-114134588D01*
X110146242Y-113986663D01*
X110088525Y-113847321D01*
X110004732Y-113721916D01*
X109898084Y-113615268D01*
X109772679Y-113531475D01*
X109633337Y-113473758D01*
X109485412Y-113444334D01*
X109334588Y-113444334D01*
X109186663Y-113473758D01*
X109047321Y-113531475D01*
X108921916Y-113615268D01*
X108815268Y-113721916D01*
X108731475Y-113847321D01*
X108673758Y-113986663D01*
X108644334Y-114134588D01*
X108644334Y-114285412D01*
X108673758Y-114433337D01*
X108684526Y-114459334D01*
X102026447Y-114459334D01*
X101717047Y-114428997D01*
X101444882Y-114346826D01*
X101193853Y-114213351D01*
X100973531Y-114033660D01*
X100792305Y-113814597D01*
X100657086Y-113564514D01*
X100573012Y-113292916D01*
X100540666Y-112985163D01*
X100540666Y-112144588D01*
X102514334Y-112144588D01*
X102514334Y-112295412D01*
X102543758Y-112443337D01*
X102601475Y-112582679D01*
X102685268Y-112708084D01*
X102791916Y-112814732D01*
X102917321Y-112898525D01*
X103056663Y-112956242D01*
X103204588Y-112985666D01*
X103355412Y-112985666D01*
X103503337Y-112956242D01*
X103642679Y-112898525D01*
X103768084Y-112814732D01*
X103874732Y-112708084D01*
X103958525Y-112582679D01*
X104016242Y-112443337D01*
X104045666Y-112295412D01*
X104045666Y-112144588D01*
X104016242Y-111996663D01*
X103958525Y-111857321D01*
X103874732Y-111731916D01*
X103768084Y-111625268D01*
X103642679Y-111541475D01*
X103503337Y-111483758D01*
X103355412Y-111454334D01*
X103204588Y-111454334D01*
X103056663Y-111483758D01*
X102917321Y-111541475D01*
X102791916Y-111625268D01*
X102685268Y-111731916D01*
X102601475Y-111857321D01*
X102543758Y-111996663D01*
X102514334Y-112144588D01*
X100540666Y-112144588D01*
X100540666Y-103424588D01*
X102214334Y-103424588D01*
X102214334Y-103575412D01*
X102243758Y-103723337D01*
X102301475Y-103862679D01*
X102385268Y-103988084D01*
X102491916Y-104094732D01*
X102617321Y-104178525D01*
X102756663Y-104236242D01*
X102904588Y-104265666D01*
X103055412Y-104265666D01*
X103203337Y-104236242D01*
X103342679Y-104178525D01*
X103468084Y-104094732D01*
X103574732Y-103988084D01*
X103658525Y-103862679D01*
X103716242Y-103723337D01*
X103745666Y-103575412D01*
X103745666Y-103475000D01*
X113029420Y-103475000D01*
X113049030Y-103674105D01*
X113107107Y-103865559D01*
X113201419Y-104042004D01*
X113328341Y-104196659D01*
X113482996Y-104323581D01*
X113659441Y-104417893D01*
X113850895Y-104475970D01*
X114000107Y-104490666D01*
X114799893Y-104490666D01*
X114949105Y-104475970D01*
X115140559Y-104417893D01*
X115317004Y-104323581D01*
X115471659Y-104196659D01*
X115598581Y-104042004D01*
X115692893Y-103865559D01*
X115750970Y-103674105D01*
X115770580Y-103475000D01*
X118629420Y-103475000D01*
X118649030Y-103674105D01*
X118707107Y-103865559D01*
X118801419Y-104042004D01*
X118928341Y-104196659D01*
X119082996Y-104323581D01*
X119259441Y-104417893D01*
X119450895Y-104475970D01*
X119600107Y-104490666D01*
X120399893Y-104490666D01*
X120549105Y-104475970D01*
X120740559Y-104417893D01*
X120917004Y-104323581D01*
X121071659Y-104196659D01*
X121198581Y-104042004D01*
X121292893Y-103865559D01*
X121350970Y-103674105D01*
X121370580Y-103475000D01*
X121350970Y-103275895D01*
X121292893Y-103084441D01*
X121198581Y-102907996D01*
X121071659Y-102753341D01*
X120917004Y-102626419D01*
X120740559Y-102532107D01*
X120549105Y-102474030D01*
X120399893Y-102459334D01*
X119600107Y-102459334D01*
X119450895Y-102474030D01*
X119259441Y-102532107D01*
X119082996Y-102626419D01*
X118928341Y-102753341D01*
X118801419Y-102907996D01*
X118707107Y-103084441D01*
X118649030Y-103275895D01*
X118629420Y-103475000D01*
X115770580Y-103475000D01*
X115750970Y-103275895D01*
X115692893Y-103084441D01*
X115598581Y-102907996D01*
X115471659Y-102753341D01*
X115317004Y-102626419D01*
X115140559Y-102532107D01*
X114949105Y-102474030D01*
X114799893Y-102459334D01*
X114000107Y-102459334D01*
X113850895Y-102474030D01*
X113659441Y-102532107D01*
X113482996Y-102626419D01*
X113328341Y-102753341D01*
X113201419Y-102907996D01*
X113107107Y-103084441D01*
X113049030Y-103275895D01*
X113029420Y-103475000D01*
X103745666Y-103475000D01*
X103745666Y-103424588D01*
X103716242Y-103276663D01*
X103658525Y-103137321D01*
X103574732Y-103011916D01*
X103468084Y-102905268D01*
X103342679Y-102821475D01*
X103203337Y-102763758D01*
X103055412Y-102734334D01*
X102904588Y-102734334D01*
X102756663Y-102763758D01*
X102617321Y-102821475D01*
X102491916Y-102905268D01*
X102385268Y-103011916D01*
X102301475Y-103137321D01*
X102243758Y-103276663D01*
X102214334Y-103424588D01*
X100540666Y-103424588D01*
X100540666Y-102026447D01*
X100571003Y-101717047D01*
X100653176Y-101444878D01*
X100786648Y-101193854D01*
X100966340Y-100973531D01*
X101185403Y-100792305D01*
X101435488Y-100657085D01*
X101707084Y-100573012D01*
X102014837Y-100540666D01*
X106187646Y-100540666D01*
X105123979Y-101604334D01*
G37*
G04 #@! TD.AperFunction*
M02*
