%TF.GenerationSoftware,KiCad,Pcbnew,(5.1.9)-1*%
%TF.CreationDate,2021-02-02T14:52:02+11:00*%
%TF.ProjectId,Program-Conn,50726f67-7261-46d2-9d43-6f6e6e2e6b69,rev?*%
%TF.SameCoordinates,Original*%
%TF.FileFunction,Legend,Bot*%
%TF.FilePolarity,Positive*%
%FSLAX46Y46*%
G04 Gerber Fmt 4.6, Leading zero omitted, Abs format (unit mm)*
G04 Created by KiCad (PCBNEW (5.1.9)-1) date 2021-02-02 14:52:02*
%MOMM*%
%LPD*%
G01*
G04 APERTURE LIST*
%ADD10C,0.150000*%
%ADD11C,0.120000*%
G04 APERTURE END LIST*
D10*
X122904285Y-108402380D02*
X123475714Y-108402380D01*
X123190000Y-108402380D02*
X123190000Y-107402380D01*
X123285238Y-107545238D01*
X123380476Y-107640476D01*
X123475714Y-107688095D01*
X122951904Y-112482380D02*
X123428095Y-112482380D01*
X123475714Y-112958571D01*
X123428095Y-112910952D01*
X123332857Y-112863333D01*
X123094761Y-112863333D01*
X122999523Y-112910952D01*
X122951904Y-112958571D01*
X122904285Y-113053809D01*
X122904285Y-113291904D01*
X122951904Y-113387142D01*
X122999523Y-113434761D01*
X123094761Y-113482380D01*
X123332857Y-113482380D01*
X123428095Y-113434761D01*
X123475714Y-113387142D01*
X123523333Y-109942380D02*
X122904285Y-109942380D01*
X123237619Y-110323333D01*
X123094761Y-110323333D01*
X122999523Y-110370952D01*
X122951904Y-110418571D01*
X122904285Y-110513809D01*
X122904285Y-110751904D01*
X122951904Y-110847142D01*
X122999523Y-110894761D01*
X123094761Y-110942380D01*
X123380476Y-110942380D01*
X123475714Y-110894761D01*
X123523333Y-110847142D01*
X130619523Y-110275714D02*
X130619523Y-110942380D01*
X130857619Y-109894761D02*
X131095714Y-110609047D01*
X130476666Y-110609047D01*
X130619523Y-112482380D02*
X130810000Y-112482380D01*
X130905238Y-112530000D01*
X130952857Y-112577619D01*
X131048095Y-112720476D01*
X131095714Y-112910952D01*
X131095714Y-113291904D01*
X131048095Y-113387142D01*
X131000476Y-113434761D01*
X130905238Y-113482380D01*
X130714761Y-113482380D01*
X130619523Y-113434761D01*
X130571904Y-113387142D01*
X130524285Y-113291904D01*
X130524285Y-113053809D01*
X130571904Y-112958571D01*
X130619523Y-112910952D01*
X130714761Y-112863333D01*
X130905238Y-112863333D01*
X131000476Y-112910952D01*
X131048095Y-112958571D01*
X131095714Y-113053809D01*
X131095714Y-107497619D02*
X131048095Y-107450000D01*
X130952857Y-107402380D01*
X130714761Y-107402380D01*
X130619523Y-107450000D01*
X130571904Y-107497619D01*
X130524285Y-107592857D01*
X130524285Y-107688095D01*
X130571904Y-107830952D01*
X131143333Y-108402380D01*
X130524285Y-108402380D01*
D11*
%TO.C,J2*%
X129000000Y-145610000D02*
X129000000Y-146110000D01*
X125000000Y-145610000D02*
X129000000Y-145610000D01*
X125000000Y-146110000D02*
X125000000Y-145610000D01*
D10*
X125444285Y-144327619D02*
X125491904Y-144280000D01*
X125587142Y-144232380D01*
X125825238Y-144232380D01*
X125920476Y-144280000D01*
X125968095Y-144327619D01*
X126015714Y-144422857D01*
X126015714Y-144518095D01*
X125968095Y-144660952D01*
X125396666Y-145232380D01*
X126015714Y-145232380D01*
X127190476Y-144565714D02*
X127190476Y-145232380D01*
X126952380Y-144184761D02*
X126714285Y-144899047D01*
X127333333Y-144899047D01*
X128460476Y-144232380D02*
X128270000Y-144232380D01*
X128174761Y-144280000D01*
X128127142Y-144327619D01*
X128031904Y-144470476D01*
X127984285Y-144660952D01*
X127984285Y-145041904D01*
X128031904Y-145137142D01*
X128079523Y-145184761D01*
X128174761Y-145232380D01*
X128365238Y-145232380D01*
X128460476Y-145184761D01*
X128508095Y-145137142D01*
X128555714Y-145041904D01*
X128555714Y-144803809D01*
X128508095Y-144708571D01*
X128460476Y-144660952D01*
X128365238Y-144613333D01*
X128174761Y-144613333D01*
X128079523Y-144660952D01*
X128031904Y-144708571D01*
X127984285Y-144803809D01*
%TD*%
M02*
