%TF.GenerationSoftware,KiCad,Pcbnew,(5.1.9)-1*%
%TF.CreationDate,2021-02-02T14:52:02+11:00*%
%TF.ProjectId,Program-Conn,50726f67-7261-46d2-9d43-6f6e6e2e6b69,rev?*%
%TF.SameCoordinates,Original*%
%TF.FileFunction,Legend,Top*%
%TF.FilePolarity,Positive*%
%FSLAX46Y46*%
G04 Gerber Fmt 4.6, Leading zero omitted, Abs format (unit mm)*
G04 Created by KiCad (PCBNEW (5.1.9)-1) date 2021-02-02 14:52:02*
%MOMM*%
%LPD*%
G01*
G04 APERTURE LIST*
%ADD10C,0.150000*%
%ADD11C,0.120000*%
G04 APERTURE END LIST*
D10*
X125357142Y-103878571D02*
X125500000Y-103926190D01*
X125547619Y-103973809D01*
X125595238Y-104069047D01*
X125595238Y-104211904D01*
X125547619Y-104307142D01*
X125500000Y-104354761D01*
X125404761Y-104402380D01*
X125023809Y-104402380D01*
X125023809Y-103402380D01*
X125357142Y-103402380D01*
X125452380Y-103450000D01*
X125500000Y-103497619D01*
X125547619Y-103592857D01*
X125547619Y-103688095D01*
X125500000Y-103783333D01*
X125452380Y-103830952D01*
X125357142Y-103878571D01*
X125023809Y-103878571D01*
X126166666Y-104402380D02*
X126071428Y-104354761D01*
X126023809Y-104307142D01*
X125976190Y-104211904D01*
X125976190Y-103926190D01*
X126023809Y-103830952D01*
X126071428Y-103783333D01*
X126166666Y-103735714D01*
X126309523Y-103735714D01*
X126404761Y-103783333D01*
X126452380Y-103830952D01*
X126500000Y-103926190D01*
X126500000Y-104211904D01*
X126452380Y-104307142D01*
X126404761Y-104354761D01*
X126309523Y-104402380D01*
X126166666Y-104402380D01*
X126880952Y-104354761D02*
X127023809Y-104402380D01*
X127261904Y-104402380D01*
X127357142Y-104354761D01*
X127404761Y-104307142D01*
X127452380Y-104211904D01*
X127452380Y-104116666D01*
X127404761Y-104021428D01*
X127357142Y-103973809D01*
X127261904Y-103926190D01*
X127071428Y-103878571D01*
X126976190Y-103830952D01*
X126928571Y-103783333D01*
X126880952Y-103688095D01*
X126880952Y-103592857D01*
X126928571Y-103497619D01*
X126976190Y-103450000D01*
X127071428Y-103402380D01*
X127309523Y-103402380D01*
X127452380Y-103450000D01*
X128357142Y-104402380D02*
X127880952Y-104402380D01*
X127880952Y-103402380D01*
X120166666Y-106052380D02*
X120166666Y-105052380D01*
X120547619Y-105052380D01*
X120642857Y-105100000D01*
X120690476Y-105147619D01*
X120738095Y-105242857D01*
X120738095Y-105385714D01*
X120690476Y-105480952D01*
X120642857Y-105528571D01*
X120547619Y-105576190D01*
X120166666Y-105576190D01*
X121166666Y-106052380D02*
X121166666Y-105385714D01*
X121166666Y-105576190D02*
X121214285Y-105480952D01*
X121261904Y-105433333D01*
X121357142Y-105385714D01*
X121452380Y-105385714D01*
X121928571Y-106052380D02*
X121833333Y-106004761D01*
X121785714Y-105957142D01*
X121738095Y-105861904D01*
X121738095Y-105576190D01*
X121785714Y-105480952D01*
X121833333Y-105433333D01*
X121928571Y-105385714D01*
X122071428Y-105385714D01*
X122166666Y-105433333D01*
X122214285Y-105480952D01*
X122261904Y-105576190D01*
X122261904Y-105861904D01*
X122214285Y-105957142D01*
X122166666Y-106004761D01*
X122071428Y-106052380D01*
X121928571Y-106052380D01*
X123119047Y-105385714D02*
X123119047Y-106195238D01*
X123071428Y-106290476D01*
X123023809Y-106338095D01*
X122928571Y-106385714D01*
X122785714Y-106385714D01*
X122690476Y-106338095D01*
X123119047Y-106004761D02*
X123023809Y-106052380D01*
X122833333Y-106052380D01*
X122738095Y-106004761D01*
X122690476Y-105957142D01*
X122642857Y-105861904D01*
X122642857Y-105576190D01*
X122690476Y-105480952D01*
X122738095Y-105433333D01*
X122833333Y-105385714D01*
X123023809Y-105385714D01*
X123119047Y-105433333D01*
X123595238Y-106052380D02*
X123595238Y-105385714D01*
X123595238Y-105576190D02*
X123642857Y-105480952D01*
X123690476Y-105433333D01*
X123785714Y-105385714D01*
X123880952Y-105385714D01*
X124642857Y-106052380D02*
X124642857Y-105528571D01*
X124595238Y-105433333D01*
X124500000Y-105385714D01*
X124309523Y-105385714D01*
X124214285Y-105433333D01*
X124642857Y-106004761D02*
X124547619Y-106052380D01*
X124309523Y-106052380D01*
X124214285Y-106004761D01*
X124166666Y-105909523D01*
X124166666Y-105814285D01*
X124214285Y-105719047D01*
X124309523Y-105671428D01*
X124547619Y-105671428D01*
X124642857Y-105623809D01*
X125119047Y-106052380D02*
X125119047Y-105385714D01*
X125119047Y-105480952D02*
X125166666Y-105433333D01*
X125261904Y-105385714D01*
X125404761Y-105385714D01*
X125500000Y-105433333D01*
X125547619Y-105528571D01*
X125547619Y-106052380D01*
X125547619Y-105528571D02*
X125595238Y-105433333D01*
X125690476Y-105385714D01*
X125833333Y-105385714D01*
X125928571Y-105433333D01*
X125976190Y-105528571D01*
X125976190Y-106052380D01*
X126452380Y-106052380D02*
X126452380Y-105385714D01*
X126452380Y-105480952D02*
X126500000Y-105433333D01*
X126595238Y-105385714D01*
X126738095Y-105385714D01*
X126833333Y-105433333D01*
X126880952Y-105528571D01*
X126880952Y-106052380D01*
X126880952Y-105528571D02*
X126928571Y-105433333D01*
X127023809Y-105385714D01*
X127166666Y-105385714D01*
X127261904Y-105433333D01*
X127309523Y-105528571D01*
X127309523Y-106052380D01*
X128166666Y-106004761D02*
X128071428Y-106052380D01*
X127880952Y-106052380D01*
X127785714Y-106004761D01*
X127738095Y-105909523D01*
X127738095Y-105528571D01*
X127785714Y-105433333D01*
X127880952Y-105385714D01*
X128071428Y-105385714D01*
X128166666Y-105433333D01*
X128214285Y-105528571D01*
X128214285Y-105623809D01*
X127738095Y-105719047D01*
X128642857Y-106052380D02*
X128642857Y-105385714D01*
X128642857Y-105576190D02*
X128690476Y-105480952D01*
X128738095Y-105433333D01*
X128833333Y-105385714D01*
X128928571Y-105385714D01*
X130023809Y-106052380D02*
X130023809Y-105052380D01*
X130404761Y-105052380D01*
X130500000Y-105100000D01*
X130547619Y-105147619D01*
X130595238Y-105242857D01*
X130595238Y-105385714D01*
X130547619Y-105480952D01*
X130500000Y-105528571D01*
X130404761Y-105576190D01*
X130023809Y-105576190D01*
X131023809Y-106052380D02*
X131023809Y-105385714D01*
X131023809Y-105576190D02*
X131071428Y-105480952D01*
X131119047Y-105433333D01*
X131214285Y-105385714D01*
X131309523Y-105385714D01*
X131785714Y-106052380D02*
X131690476Y-106004761D01*
X131642857Y-105957142D01*
X131595238Y-105861904D01*
X131595238Y-105576190D01*
X131642857Y-105480952D01*
X131690476Y-105433333D01*
X131785714Y-105385714D01*
X131928571Y-105385714D01*
X132023809Y-105433333D01*
X132071428Y-105480952D01*
X132119047Y-105576190D01*
X132119047Y-105861904D01*
X132071428Y-105957142D01*
X132023809Y-106004761D01*
X131928571Y-106052380D01*
X131785714Y-106052380D01*
X132547619Y-106052380D02*
X132547619Y-105052380D01*
X132547619Y-105433333D02*
X132642857Y-105385714D01*
X132833333Y-105385714D01*
X132928571Y-105433333D01*
X132976190Y-105480952D01*
X133023809Y-105576190D01*
X133023809Y-105861904D01*
X132976190Y-105957142D01*
X132928571Y-106004761D01*
X132833333Y-106052380D01*
X132642857Y-106052380D01*
X132547619Y-106004761D01*
X133833333Y-106004761D02*
X133738095Y-106052380D01*
X133547619Y-106052380D01*
X133452380Y-106004761D01*
X133404761Y-105909523D01*
X133404761Y-105528571D01*
X133452380Y-105433333D01*
X133547619Y-105385714D01*
X133738095Y-105385714D01*
X133833333Y-105433333D01*
X133880952Y-105528571D01*
X133880952Y-105623809D01*
X133404761Y-105719047D01*
X130524285Y-107497619D02*
X130571904Y-107450000D01*
X130667142Y-107402380D01*
X130905238Y-107402380D01*
X131000476Y-107450000D01*
X131048095Y-107497619D01*
X131095714Y-107592857D01*
X131095714Y-107688095D01*
X131048095Y-107830952D01*
X130476666Y-108402380D01*
X131095714Y-108402380D01*
X131000476Y-110275714D02*
X131000476Y-110942380D01*
X130762380Y-109894761D02*
X130524285Y-110609047D01*
X131143333Y-110609047D01*
X131000476Y-112482380D02*
X130810000Y-112482380D01*
X130714761Y-112530000D01*
X130667142Y-112577619D01*
X130571904Y-112720476D01*
X130524285Y-112910952D01*
X130524285Y-113291904D01*
X130571904Y-113387142D01*
X130619523Y-113434761D01*
X130714761Y-113482380D01*
X130905238Y-113482380D01*
X131000476Y-113434761D01*
X131048095Y-113387142D01*
X131095714Y-113291904D01*
X131095714Y-113053809D01*
X131048095Y-112958571D01*
X131000476Y-112910952D01*
X130905238Y-112863333D01*
X130714761Y-112863333D01*
X130619523Y-112910952D01*
X130571904Y-112958571D01*
X130524285Y-113053809D01*
X123428095Y-112482380D02*
X122951904Y-112482380D01*
X122904285Y-112958571D01*
X122951904Y-112910952D01*
X123047142Y-112863333D01*
X123285238Y-112863333D01*
X123380476Y-112910952D01*
X123428095Y-112958571D01*
X123475714Y-113053809D01*
X123475714Y-113291904D01*
X123428095Y-113387142D01*
X123380476Y-113434761D01*
X123285238Y-113482380D01*
X123047142Y-113482380D01*
X122951904Y-113434761D01*
X122904285Y-113387142D01*
X122856666Y-109942380D02*
X123475714Y-109942380D01*
X123142380Y-110323333D01*
X123285238Y-110323333D01*
X123380476Y-110370952D01*
X123428095Y-110418571D01*
X123475714Y-110513809D01*
X123475714Y-110751904D01*
X123428095Y-110847142D01*
X123380476Y-110894761D01*
X123285238Y-110942380D01*
X122999523Y-110942380D01*
X122904285Y-110894761D01*
X122856666Y-110847142D01*
X123475714Y-108402380D02*
X122904285Y-108402380D01*
X123190000Y-108402380D02*
X123190000Y-107402380D01*
X123094761Y-107545238D01*
X122999523Y-107640476D01*
X122904285Y-107688095D01*
D11*
%TO.C,J2*%
X129000000Y-145610000D02*
X129000000Y-146110000D01*
X125000000Y-145610000D02*
X129000000Y-145610000D01*
X125000000Y-146110000D02*
X125000000Y-145610000D01*
%TO.C,J1*%
X124400000Y-106620000D02*
X125730000Y-106620000D01*
X124400000Y-107950000D02*
X124400000Y-106620000D01*
X127000000Y-106620000D02*
X129600000Y-106620000D01*
X127000000Y-109220000D02*
X127000000Y-106620000D01*
X124400000Y-109220000D02*
X127000000Y-109220000D01*
X129600000Y-106620000D02*
X129600000Y-114360000D01*
X124400000Y-109220000D02*
X124400000Y-114360000D01*
X124400000Y-114360000D02*
X129600000Y-114360000D01*
%TO.C,J2*%
D10*
X126666666Y-142327380D02*
X126666666Y-143041666D01*
X126619047Y-143184523D01*
X126523809Y-143279761D01*
X126380952Y-143327380D01*
X126285714Y-143327380D01*
X127095238Y-142422619D02*
X127142857Y-142375000D01*
X127238095Y-142327380D01*
X127476190Y-142327380D01*
X127571428Y-142375000D01*
X127619047Y-142422619D01*
X127666666Y-142517857D01*
X127666666Y-142613095D01*
X127619047Y-142755952D01*
X127047619Y-143327380D01*
X127666666Y-143327380D01*
X128508095Y-144232380D02*
X128031904Y-144232380D01*
X127984285Y-144708571D01*
X128031904Y-144660952D01*
X128127142Y-144613333D01*
X128365238Y-144613333D01*
X128460476Y-144660952D01*
X128508095Y-144708571D01*
X128555714Y-144803809D01*
X128555714Y-145041904D01*
X128508095Y-145137142D01*
X128460476Y-145184761D01*
X128365238Y-145232380D01*
X128127142Y-145232380D01*
X128031904Y-145184761D01*
X127984285Y-145137142D01*
X126666666Y-144232380D02*
X127285714Y-144232380D01*
X126952380Y-144613333D01*
X127095238Y-144613333D01*
X127190476Y-144660952D01*
X127238095Y-144708571D01*
X127285714Y-144803809D01*
X127285714Y-145041904D01*
X127238095Y-145137142D01*
X127190476Y-145184761D01*
X127095238Y-145232380D01*
X126809523Y-145232380D01*
X126714285Y-145184761D01*
X126666666Y-145137142D01*
X126015714Y-145232380D02*
X125444285Y-145232380D01*
X125730000Y-145232380D02*
X125730000Y-144232380D01*
X125634761Y-144375238D01*
X125539523Y-144470476D01*
X125444285Y-144518095D01*
%TO.C,J1*%
X125396666Y-115022380D02*
X125396666Y-115736666D01*
X125349047Y-115879523D01*
X125253809Y-115974761D01*
X125110952Y-116022380D01*
X125015714Y-116022380D01*
X126396666Y-116022380D02*
X125825238Y-116022380D01*
X126110952Y-116022380D02*
X126110952Y-115022380D01*
X126015714Y-115165238D01*
X125920476Y-115260476D01*
X125825238Y-115308095D01*
%TD*%
M02*
